<svg width="69" height="69" viewBox="0 0 69 69" fill="none" xmlns="http://www.w3.org/2000/svg">
<circle cx="34.5" cy="34.5" r="34" fill="#EA5921"/>
<path d="M45.9993 40.9689V44.5819C46.0049 45.9631 44.763 47.1164 43.3686 46.9906C31.3334 47 22 37.58 22.0094 25.6256C21.8838 24.2386 23.0314 23.0014 24.4108 23.0001H28.031C28.6166 22.9944 29.1844 23.2013 29.6284 23.5825C30.8909 24.666 31.7029 28.3437 31.3904 29.8057C31.1465 30.9472 29.9959 31.7457 29.2136 32.5265C30.9315 35.5416 33.4329 38.0381 36.454 39.7525C37.2363 38.9718 38.0364 37.8234 39.1802 37.58C40.6473 37.2677 44.3487 38.0809 45.4279 39.3521C45.8106 39.8028 46.0139 40.3783 45.9993 40.9689Z" fill="white"/>
<path d="M37 27.8462C38.0207 28.0453 39.0339 28.4954 39.7692 29.2308C40.5046 29.9661 40.9547 30.9793 41.1538 32M37.6923 23C39.8129 23.2356 41.7211 24.2615 43.2308 25.7692C44.7404 27.277 45.7618 29.1874 46 31.3077" stroke="white" stroke-width="1.5" stroke-linecap="round" stroke-linejoin="round"/>
</svg>
