<svg width="41" height="28" viewBox="0 0 41 28" fill="none" xmlns="http://www.w3.org/2000/svg">
<path d="M33.7143 21.1567H33.7231M3.44215 20V6.8C3.44215 5.11985 3.44215 4.27976 3.75653 3.63803C4.03304 3.07354 4.47428 2.61459 5.01701 2.32698C5.63399 2 6.44167 2 8.05704 2H24.1869C25.7402 2 26.5169 2 27.1101 2.31141C27.6319 2.58533 28.0562 3.02241 28.322 3.56003C28.6243 4.1712 28.6243 4.97129 28.6243 6.57143M28.0697 20H3.92286C3.47581 20 3.25229 20 3.06889 20.0511C2.57122 20.1897 2.18249 20.5941 2.04913 21.1118C2 21.3024 2 21.5349 2 21.9999C2 22.9299 2 23.3949 2.09828 23.7764C2.36498 24.8117 3.14244 25.6203 4.13779 25.8978C4.50457 26 4.95164 26 5.84574 26H31.9524M31.2476 26H36.181C37.1677 26 37.6611 26 38.038 25.817C38.3695 25.6561 38.6391 25.3992 38.8079 25.0833C39 24.7241 39 24.2539 39 23.3136V13.5753C39 12.635 39 12.1648 38.8079 11.8056C38.6391 11.4897 38.3695 11.2329 38.038 11.0719C37.6611 10.8889 37.1677 10.8889 36.181 10.8889H31.2476C30.2609 10.8889 29.7675 10.8889 29.3906 11.0719C29.0591 11.2329 28.7895 11.4897 28.6206 11.8056C28.4286 12.1648 28.4286 12.635 28.4286 13.5753V23.3136C28.4286 24.2539 28.4286 24.7241 28.6206 25.0833C28.7895 25.3992 29.0591 25.6561 29.3906 25.817C29.7675 26 30.2609 26 31.2476 26Z" stroke="#EA5921" stroke-width="3" stroke-linecap="round" stroke-linejoin="round"/>
</svg>
