<svg width="101" height="88" viewBox="0 0 101 88" fill="none" xmlns="http://www.w3.org/2000/svg">
<g filter="url(#filter0_d_106_75)">
<path d="M53.7143 41.1567H53.7231M23.4422 40V26.8C23.4422 25.1198 23.4422 24.2798 23.7565 23.638C24.033 23.0735 24.4743 22.6146 25.017 22.327C25.634 22 26.4417 22 28.057 22H44.1869C45.7402 22 46.5169 22 47.1101 22.3114C47.6319 22.5853 48.0562 23.0224 48.322 23.56C48.6243 24.1712 48.6243 24.9713 48.6243 26.5714M48.0697 40H23.9229C23.4758 40 23.2523 40 23.0689 40.0511C22.5712 40.1897 22.1825 40.5941 22.0491 41.1118C22 41.3024 22 41.5349 22 41.9999C22 42.9299 22 43.3949 22.0983 43.7764C22.365 44.8117 23.1424 45.6203 24.1378 45.8978C24.5046 46 24.9516 46 25.8457 46H51.9524M51.2476 46H56.181C57.1677 46 57.6611 46 58.038 45.817C58.3695 45.6561 58.6391 45.3992 58.8079 45.0833C59 44.7241 59 44.2539 59 43.3136V33.5753C59 32.635 59 32.1648 58.8079 31.8056C58.6391 31.4897 58.3695 31.2329 58.038 31.0719C57.6611 30.8889 57.1677 30.8889 56.181 30.8889H51.2476C50.2609 30.8889 49.7675 30.8889 49.3906 31.0719C49.0591 31.2329 48.7895 31.4897 48.6206 31.8056C48.4286 32.1648 48.4286 32.635 48.4286 33.5753V43.3136C48.4286 44.2539 48.4286 44.7241 48.6206 45.0833C48.7895 45.3992 49.0591 45.6561 49.3906 45.817C49.7675 46 50.2609 46 51.2476 46Z" stroke="#EA5921" stroke-width="3" stroke-linecap="round" stroke-linejoin="round"/>
</g>
<defs>
<filter id="filter0_d_106_75" x="0.499634" y="0.5" width="100" height="87.0002" filterUnits="userSpaceOnUse" color-interpolation-filters="sRGB">
<feFlood flood-opacity="0" result="BackgroundImageFix"/>
<feColorMatrix in="SourceAlpha" type="matrix" values="0 0 0 0 0 0 0 0 0 0 0 0 0 0 0 0 0 0 127 0" result="hardAlpha"/>
<feOffset dx="10" dy="10"/>
<feGaussianBlur stdDeviation="15"/>
<feColorMatrix type="matrix" values="0 0 0 0 0.917647 0 0 0 0 0.34902 0 0 0 0 0.129412 0 0 0 0.6 0"/>
<feBlend mode="normal" in2="BackgroundImageFix" result="effect1_dropShadow_106_75"/>
<feBlend mode="normal" in="SourceGraphic" in2="effect1_dropShadow_106_75" result="shape"/>
</filter>
</defs>
</svg>
