<svg width="28" height="35" viewBox="0 0 28 35" fill="none" xmlns="http://www.w3.org/2000/svg">
<path d="M8.85714 2V6.13333C8.85714 7.09786 8.85714 7.58014 9.04398 7.94854C9.20835 8.27259 9.4706 8.53606 9.79316 8.70118C10.1599 8.88889 10.6398 8.88889 11.6 8.88889H14.6857C15.6459 8.88889 16.1259 8.88889 16.4926 8.70118C16.8152 8.53606 17.0773 8.27259 17.2417 7.94854C17.4286 7.58014 17.4286 7.09786 17.4286 6.13333V2.00689M26 12.5443V27.4889C26 29.4179 26 30.3826 25.6263 31.1193C25.2977 31.7674 24.7731 32.2944 24.128 32.6246C23.3946 33 22.4345 33 20.5143 33H7.48571C5.56553 33 4.60544 33 3.87203 32.6246C3.2269 32.2944 2.70239 31.7674 2.3737 31.1193C2 30.3826 2 29.4179 2 27.4889V7.51111C2 5.58203 2 4.6175 2.3737 3.8807C2.70239 3.23258 3.2269 2.70565 3.87203 2.37543C4.60544 2 5.56553 2 7.48571 2H16.5063C17.4745 2 17.9586 2 18.4055 2.12371C18.8015 2.23329 19.1747 2.41347 19.5073 2.65565C19.8826 2.92902 20.1851 3.30879 20.7899 4.06835L24.7979 9.10155C25.2435 9.66103 25.4662 9.94079 25.6246 10.2523C25.7651 10.5287 25.8678 10.8229 25.9301 11.1269C26 11.4696 26 11.8278 26 12.5443ZM17.4286 23.5278C17.4286 25.9056 15.5098 27.8333 13.1429 27.8333C10.7759 27.8333 8.85714 25.9056 8.85714 23.5278C8.85714 21.1499 10.7759 19.2222 13.1429 19.2222C15.5098 19.2222 17.4286 21.1499 17.4286 23.5278Z" stroke="#EA5921" stroke-width="3" stroke-linecap="round" stroke-linejoin="round"/>
</svg>
