<svg width="32" height="35" viewBox="0 0 32 35" fill="none" xmlns="http://www.w3.org/2000/svg">
<path d="M19.5 29.5556L23 33L30 26.1111M16 2H7.6C5.63982 2 4.65972 2 3.91104 2.37543C3.25246 2.70565 2.71703 3.23258 2.38148 3.8807C2 4.6175 2 5.58205 2 7.51111V27.4889C2 29.4179 2 30.3826 2.38148 31.1193C2.71703 31.7674 3.25246 32.2944 3.91104 32.6246C4.65972 33 5.63982 33 7.6 33H14.25M16 2L26.5 12.3333M16 2V9.57778C16 10.5423 16 11.0246 16.1908 11.393C16.3586 11.717 16.6261 11.9805 16.9555 12.1456C17.3298 12.3333 17.8198 12.3333 18.8 12.3333H26.5M26.5 12.3333V20.0833" stroke="#EA5921" stroke-width="3" stroke-linecap="round" stroke-linejoin="round"/>
</svg>
