<svg width="31" height="35" viewBox="0 0 31 35" fill="none" xmlns="http://www.w3.org/2000/svg">
<path d="M15.5 2H7.4C5.50983 2 4.56473 2 3.84278 2.37543C3.20773 2.70565 2.69142 3.23258 2.36786 3.8807C2 4.6175 2 5.58205 2 7.51111V27.4889C2 29.4179 2 30.3826 2.36786 31.1193C2.69142 31.7674 3.20773 32.2944 3.84278 32.6246C4.56473 33 5.50983 33 7.4 33H13.8125M15.5 2L25.625 12.3333M15.5 2V9.57778C15.5 10.5423 15.5 11.0246 15.6839 11.393C15.8458 11.717 16.1038 11.9805 16.4214 12.1456C16.7823 12.3333 17.2548 12.3333 18.2 12.3333H25.625M25.625 12.3333V15.7778M26.0783 30.0181L29 33M27.3125 26.9722C27.3125 29.3501 25.4237 31.2778 23.0938 31.2778C20.7638 31.2778 18.875 29.3501 18.875 26.9722C18.875 24.5943 20.7638 22.6667 23.0938 22.6667C25.4237 22.6667 27.3125 24.5943 27.3125 26.9722Z" stroke="#EA5921" stroke-width="3" stroke-linecap="round" stroke-linejoin="round"/>
</svg>
