<svg width="14" height="16" viewBox="0 0 14 16" fill="none" xmlns="http://www.w3.org/2000/svg">
<path d="M9.00103 1.6001V4.0001C9.00103 4.44193 9.3592 4.8001 9.80103 4.8001H12.201M11.001 2.8001C10.645 2.48153 10.2755 2.10368 10.0423 1.85828C9.88706 1.69499 9.67261 1.6001 9.44732 1.6001H3.40084C2.51719 1.6001 1.80085 2.31644 1.80084 3.20009L1.80078 12.8001C1.80078 13.6837 2.51712 14.4001 3.40077 14.4001L10.6008 14.4001C11.4844 14.4001 12.2008 13.6838 12.2008 12.8001L12.201 4.31865C12.201 4.11409 12.123 3.91745 11.981 3.77019C11.7185 3.49786 11.2801 3.04978 11.001 2.8001Z" stroke="#EA5921" stroke-width="2" stroke-linecap="round" stroke-linejoin="round"/>
</svg>
