<svg width="34" height="27" viewBox="0 0 34 27" fill="none" xmlns="http://www.w3.org/2000/svg">
<path d="M2 10.2143H32M7 6.10714C7 6.10714 7.01016 6.10714 7.01667 6.10714M11.1667 6.10714H11.1833M15.3333 6.10714H15.35M7.33333 25H26.6667C28.5335 25 29.467 25 30.18 24.6419C30.8072 24.3269 31.3172 23.8242 31.6367 23.206C32 22.5032 32 21.583 32 19.7429V7.25714C32 5.41698 32 4.49688 31.6367 3.79403C31.3172 3.17578 30.8072 2.67313 30.18 2.35813C29.467 2 28.5335 2 26.6667 2H7.33333C5.4665 2 4.53307 2 3.82003 2.35813C3.19282 2.67313 2.68288 3.17578 2.36332 3.79403C2 4.49688 2 5.41696 2 7.25714V19.7429C2 21.583 2 22.5032 2.36332 23.206C2.68288 23.8242 3.19282 24.3269 3.82003 24.6419C4.53307 25 5.46648 25 7.33333 25Z" stroke="#EA5921" stroke-width="3" stroke-linecap="round" stroke-linejoin="round"/>
</svg>
