<svg width="94" height="87" viewBox="0 0 94 87" fill="none" xmlns="http://www.w3.org/2000/svg">
<g filter="url(#filter0_d_87_1687)">
<path d="M22 30.2143H52M27 26.1071C27 26.1071 27.0102 26.1071 27.0167 26.1071M31.1667 26.1071H31.1833M35.3333 26.1071H35.35M27.3333 45H46.6667C48.5335 45 49.467 45 50.18 44.6419C50.8072 44.3269 51.3172 43.8242 51.6367 43.206C52 42.5032 52 41.583 52 39.7429V27.2571C52 25.417 52 24.4969 51.6367 23.794C51.3172 23.1758 50.8072 22.6731 50.18 22.3581C49.467 22 48.5335 22 46.6667 22H27.3333C25.4665 22 24.5331 22 23.82 22.3581C23.1928 22.6731 22.6829 23.1758 22.3633 23.794C22 24.4969 22 25.417 22 27.2571V39.7429C22 41.583 22 42.5032 22.3633 43.206C22.6829 43.8242 23.1928 44.3269 23.82 44.6419C24.5331 45 25.4665 45 27.3333 45Z" stroke="#EA5921" stroke-width="3" stroke-linecap="round" stroke-linejoin="round"/>
</g>
<defs>
<filter id="filter0_d_87_1687" x="0.5" y="0.5" width="93" height="86" filterUnits="userSpaceOnUse" color-interpolation-filters="sRGB">
<feFlood flood-opacity="0" result="BackgroundImageFix"/>
<feColorMatrix in="SourceAlpha" type="matrix" values="0 0 0 0 0 0 0 0 0 0 0 0 0 0 0 0 0 0 127 0" result="hardAlpha"/>
<feOffset dx="10" dy="10"/>
<feGaussianBlur stdDeviation="15"/>
<feColorMatrix type="matrix" values="0 0 0 0 0.917647 0 0 0 0 0.34902 0 0 0 0 0.129412 0 0 0 0.6 0"/>
<feBlend mode="normal" in2="BackgroundImageFix" result="effect1_dropShadow_87_1687"/>
<feBlend mode="normal" in="SourceGraphic" in2="effect1_dropShadow_87_1687" result="shape"/>
</filter>
</defs>
</svg>
