<svg width="93" height="95" viewBox="0 0 93 95" fill="none" xmlns="http://www.w3.org/2000/svg">
<g filter="url(#filter0_d_87_1768)">
<path d="M22 36.3077C22 28.4058 28.4919 22 36.5 22C44.5082 22 51 28.4058 51 36.3077M22 36.3077H25.2222C27.0018 36.3077 28.4444 37.7313 28.4444 39.4871V42.6666C28.4444 44.4227 27.0018 45.8461 25.2222 45.8461M22 36.3077V44.2564C22 45.1344 22.7213 45.8461 23.6111 45.8461H25.2222M51 36.3077H47.7778C45.9981 36.3077 44.5556 37.7313 44.5556 39.4871V42.6666C44.5556 44.4227 45.9981 45.8461 47.7778 45.8461H49.3889C50.2787 45.8461 51 45.1344 51 44.2564V36.3077ZM25.2222 45.8461V47.4359C25.2222 49.1919 26.6649 50.6154 28.4444 50.6154H31.6667M31.6667 50.6154C31.6667 51.9325 32.7486 53 34.0833 53H35.6944C37.0291 53 38.1111 51.9325 38.1111 50.6154C38.1111 49.2984 37.0291 48.2308 35.6944 48.2308H34.0833C32.7486 48.2308 31.6667 49.2984 31.6667 50.6154Z" stroke="#EA5921" stroke-width="3" stroke-linecap="round"/>
</g>
<defs>
<filter id="filter0_d_87_1768" x="0.5" y="0.5" width="92" height="94" filterUnits="userSpaceOnUse" color-interpolation-filters="sRGB">
<feFlood flood-opacity="0" result="BackgroundImageFix"/>
<feColorMatrix in="SourceAlpha" type="matrix" values="0 0 0 0 0 0 0 0 0 0 0 0 0 0 0 0 0 0 127 0" result="hardAlpha"/>
<feOffset dx="10" dy="10"/>
<feGaussianBlur stdDeviation="15"/>
<feColorMatrix type="matrix" values="0 0 0 0 0.917647 0 0 0 0 0.34902 0 0 0 0 0.129412 0 0 0 0.6 0"/>
<feBlend mode="normal" in2="BackgroundImageFix" result="effect1_dropShadow_87_1768"/>
<feBlend mode="normal" in="SourceGraphic" in2="effect1_dropShadow_87_1768" result="shape"/>
</filter>
</defs>
</svg>
