<svg width="33" height="35" viewBox="0 0 33 35" fill="none" xmlns="http://www.w3.org/2000/svg">
<path d="M2 16.3077C2 8.40579 8.49188 2 16.5 2C24.5082 2 31 8.40579 31 16.3077M2 16.3077H5.22222C7.00181 16.3077 8.44444 17.7313 8.44444 19.4871V22.6666C8.44444 24.4227 7.00181 25.8461 5.22222 25.8461M2 16.3077V24.2564C2 25.1344 2.72133 25.8461 3.61111 25.8461H5.22222M31 16.3077H27.7778C25.9981 16.3077 24.5556 17.7313 24.5556 19.4871V22.6666C24.5556 24.4227 25.9981 25.8461 27.7778 25.8461H29.3889C30.2787 25.8461 31 25.1344 31 24.2564V16.3077ZM5.22222 25.8461V27.4359C5.22222 29.1919 6.66486 30.6154 8.44444 30.6154H11.6667M11.6667 30.6154C11.6667 31.9325 12.7486 33 14.0833 33H15.6944C17.0291 33 18.1111 31.9325 18.1111 30.6154C18.1111 29.2984 17.0291 28.2308 15.6944 28.2308H14.0833C12.7486 28.2308 11.6667 29.2984 11.6667 30.6154Z" stroke="#EA5921" stroke-width="3" stroke-linecap="round"/>
</svg>
