<svg width="40" height="32" viewBox="0 0 40 32" fill="none" xmlns="http://www.w3.org/2000/svg">
<path d="M24 20H30M24 12H30M14 11V9M14 11H18.0002M14 11C10.4023 10.9999 10.0037 11.8644 10.0002 13.665C9.99668 15.4656 10.0002 16 14.0002 16C18.0002 16 18.0002 16.411 18.0002 18.3334C18.0002 19.778 18.0002 21 14.0002 21M14.0002 21L14 23M14.0002 21H10.0002M8.4 30H31.6C33.8402 30 34.9604 30 35.816 29.564C36.5686 29.1806 37.1806 28.5686 37.564 27.816C38 26.9604 38 25.8402 38 23.6V8.4C38 6.1598 38 5.03968 37.564 4.18404C37.1806 3.43138 36.5686 2.81946 35.816 2.43598C34.9604 2 33.8402 2 31.6 2H8.4C6.1598 2 5.03968 2 4.18404 2.43598C3.43138 2.81946 2.81946 3.43138 2.43598 4.18404C2 5.03968 2 6.15978 2 8.4V23.6C2 25.8402 2 26.9604 2.43598 27.816C2.81946 28.5686 3.43138 29.1806 4.18404 29.564C5.03968 30 6.15978 30 8.4 30Z" stroke="#EA5921" stroke-width="3" stroke-linecap="round" stroke-linejoin="round"/>
</svg>
