<svg width="37" height="33" viewBox="0 0 37 33" fill="none" xmlns="http://www.w3.org/2000/svg">
<path d="M11.9 11.7851C11.0242 12.5955 9.86778 13.0882 8.6 13.0882C5.8662 13.0882 3.65 10.797 3.65 7.97059C3.65 5.1442 5.8662 2.85294 8.6 2.85294C10.7553 2.85294 12.5888 4.27703 13.2683 6.26471M14.375 2V7.11765H9.425M33.35 24.1765V9.16471C33.35 7.25395 33.35 6.29855 32.9903 5.56874C32.674 4.92677 32.1691 4.40483 31.5482 4.07775C30.8423 3.70588 29.9182 3.70588 28.07 3.70588H20.975M3.65 24.1765V19.0588M35 24.1765V25.5412C35 27.4519 35 28.4074 34.6403 29.1372C34.324 29.7791 33.8191 30.3011 33.1982 30.6281C32.4923 31 31.5682 31 29.72 31H7.28C5.43183 31 4.50774 31 3.80183 30.6281C3.18089 30.3011 2.67605 29.7791 2.35968 29.1372C2 28.4074 2 27.4519 2 25.5412V24.1765H12.4565C12.8601 24.1765 13.0618 24.1765 13.2517 24.2236C13.4201 24.2653 13.581 24.3343 13.7287 24.4279C13.8952 24.5333 14.0379 24.6809 14.3232 24.9758L14.4268 25.083C14.7121 25.3779 14.8548 25.5255 15.0213 25.6309C15.169 25.7246 15.3299 25.7935 15.4983 25.8353C15.6882 25.8824 15.89 25.8824 16.2935 25.8824H20.7065C21.11 25.8824 21.3118 25.8824 21.5017 25.8353C21.6701 25.7935 21.831 25.7246 21.9787 25.6309C22.1452 25.5255 22.2879 25.3779 22.5732 25.083L22.6768 24.9758C22.9621 24.6809 23.1048 24.5333 23.2713 24.4279C23.419 24.3343 23.5799 24.2653 23.7483 24.2236C23.9382 24.1765 24.14 24.1765 24.5435 24.1765H35Z" stroke="#EA5921" stroke-width="3" stroke-linecap="round" stroke-linejoin="round"/>
</svg>
