<svg width="68" height="68" viewBox="0 0 68 68" fill="none" xmlns="http://www.w3.org/2000/svg">
<circle cx="34" cy="34" r="34" fill="#48C95F"/>
<path d="M46.6707 22.3125C43.5662 19.2187 39.4268 17.5 35.0575 17.5C25.9739 17.5 18.615 24.8333 18.615 33.8854C18.615 36.75 19.4199 39.6146 20.7997 42.0208L18.5 50.5L27.2387 48.2083C29.6533 49.4688 32.2979 50.1562 35.0575 50.1562C44.1411 50.1562 51.5 42.8229 51.5 33.7708C51.385 29.5313 49.7753 25.4062 46.6707 22.3125ZM42.9913 39.7292C42.6463 40.6458 41.0366 41.5625 40.2317 41.6771C39.5418 41.7917 38.622 41.7917 37.7021 41.5625C37.1272 41.3333 36.3223 41.1042 35.4024 40.6458C31.2631 38.9271 28.6185 34.8021 28.3885 34.4583C28.1585 34.2292 26.6638 32.2812 26.6638 30.2187C26.6638 28.1562 27.6986 27.2396 28.0436 26.7812C28.3885 26.3229 28.8484 26.3229 29.1934 26.3229C29.4233 26.3229 29.7683 26.3229 29.9983 26.3229C30.2282 26.3229 30.5732 26.2083 30.9181 27.0104C31.2631 27.8125 32.0679 29.875 32.1829 29.9896C32.2979 30.2188 32.2979 30.4479 32.1829 30.6771C32.0679 30.9062 31.953 31.1354 31.723 31.3646C31.493 31.5937 31.2631 31.9375 31.1481 32.0521C30.9181 32.2812 30.6882 32.5104 30.9181 32.8542C31.1481 33.3125 31.953 34.5729 33.2178 35.7187C34.8275 37.0937 36.0923 37.5521 36.5523 37.7813C37.0122 38.0104 37.2422 37.8958 37.4721 37.6667C37.7021 37.4375 38.507 36.5208 38.7369 36.0625C38.9669 35.6042 39.3118 35.7188 39.6568 35.8333C40.0017 35.9479 42.0714 36.9792 42.4164 37.2083C42.8763 37.4375 43.1063 37.5521 43.2213 37.6667C43.3362 38.0104 43.3362 38.8125 42.9913 39.7292Z" fill="white"/>
</svg>
