<svg width="38" height="38" viewBox="0 0 38 38" fill="none" xmlns="http://www.w3.org/2000/svg">
<g id="request-a-call-ico-3.svg" clip-path="url(#clip0_1_232)">
<g id="Clip path group">
<mask id="mask0_1_232" style="mask-type:luminance" maskUnits="userSpaceOnUse" x="0" y="0" width="38" height="38">
<g id="clip0_226_1304">
<path id="Vector" d="M37.33 0.331055H0V37.6611H37.33V0.331055Z" fill="white"/>
</g>
</mask>
<g mask="url(#mask0_1_232)">
<g id="Group">
<path id="Vector_2" d="M36.0541 12.247H34.9496C34.973 12.0012 34.8683 11.7927 34.6354 11.6214C34.6039 11.6066 33.9199 11.2875 32.7635 10.9278V7.37108C32.7635 7.06906 32.5186 6.82422 32.2167 6.82422C27.5597 6.82422 24.025 8.24956 21.8799 9.44527C20.6719 10.1185 19.7619 10.7903 19.1566 11.2903C19.0645 10.2885 18.8246 8.76926 18.206 7.15966C16.792 3.48035 14.0687 1.12163 10.3304 0.338355C9.94078 0.307587 9.72121 0.485999 9.67139 0.873588V3.37237C8.71031 2.98237 7.70946 2.67585 6.68484 2.46114C6.29535 2.43044 6.07568 2.60878 6.02588 2.99637V10.5277C4.01254 11.0076 2.75083 11.5949 2.69462 11.6213C2.46181 11.7925 2.35704 12.0011 2.38037 12.2469H1.27593C0.572418 12.2469 0 12.8192 0 13.5228V30.2443C0 30.9513 1.09365 30.9513 1.09365 30.2443V13.5229C1.09365 13.4224 1.17546 13.3406 1.27593 13.3406H2.38037V34.8438C2.38037 35.1458 2.6252 35.3906 2.92719 35.3906H34.4028C34.7048 35.3906 34.9496 35.1458 34.9496 34.8438V13.3406H36.0541C36.1545 13.3406 36.2364 13.4224 36.2364 13.5229V36.3809C36.2364 36.4814 36.1545 36.5632 36.0541 36.5632H20.3089C19.4225 35.6503 17.9075 35.6503 17.0211 36.5632H1.27593C1.17546 36.5632 1.09365 36.4814 1.09365 36.3809V33.5739C1.09365 32.8669 0 32.8669 0 33.5739V36.3809C0 37.0844 0.572418 37.6568 1.27593 37.6568H17.2708C17.4418 37.6568 17.6029 37.5768 17.7063 37.4407C18.182 36.8144 19.1481 36.8144 19.6237 37.4407C19.7271 37.5768 19.8882 37.6568 20.0592 37.6568H36.0541C36.7576 37.6568 37.33 37.0844 37.33 36.3809V13.5229C37.33 12.8194 36.7576 12.247 36.0541 12.247ZM31.6698 7.92472V13.5235C31.6698 13.8256 31.9146 14.0704 32.2167 14.0704C32.5186 14.0704 32.7635 13.8256 32.7635 13.5235V12.0764C33.2435 12.2348 33.6155 12.3781 33.856 12.4765V16.2213V32.3894C29.8149 31.1102 26.4632 31.2371 24.052 31.7262C26.1522 30.8062 28.8899 30.0499 32.2167 30.0499C32.5186 30.0499 32.7635 29.8051 32.7635 29.5032V16.8774C32.7635 16.5754 32.5186 16.3306 32.2167 16.3306C31.9146 16.3306 31.6698 16.5754 31.6698 16.8774V28.9629C27.2824 29.0685 23.9403 30.4288 21.8799 31.5773C20.7095 32.2296 19.8179 32.881 19.213 33.3758V12.7018C20.0454 11.9036 24.3808 8.10777 31.6698 7.92472ZM10.765 1.56726C13.8088 2.3969 15.9626 4.39661 17.1727 7.51979C18.1583 10.0637 18.1194 12.4379 18.1189 12.4625C18.1188 12.4667 18.1188 12.4708 18.1188 12.4748V29.0705C16.7391 25.6601 14.2061 23.4223 10.765 22.5698V1.56726ZM9.67139 4.55818V23.0057C9.67139 23.2644 9.85281 23.4879 10.106 23.5409C13.4995 24.2518 15.8771 26.3078 17.1727 29.6518C17.5237 30.5578 17.7447 31.4423 17.8839 32.2067C17.462 31.5971 16.9303 30.9034 16.278 30.1824C14.5125 28.2314 11.5085 25.7267 7.11951 24.6902V10.9584C7.11951 10.9578 7.11951 10.9572 7.11951 10.9565V3.68391C7.99636 3.90541 8.85101 4.19844 9.67139 4.55818ZM3.47403 12.4763C3.91877 12.2944 4.81564 11.9583 6.02588 11.6541V25.1286C6.02588 25.3873 6.20728 25.6107 6.46057 25.6638C10.7824 26.5692 13.7293 29.0039 15.4405 30.8869C16.1382 31.6547 16.6936 32.3964 17.1164 33.0252C16.4514 32.6971 15.619 32.3506 14.6277 32.0594C12.1992 31.3459 8.3347 30.8508 3.47409 32.3894V16.2213L3.47403 12.4763ZM3.47403 33.5402C8.20188 31.9646 11.9401 32.4192 14.2647 33.0927C15.5142 33.4547 16.4977 33.9156 17.1832 34.297H3.47403V33.5402ZM20.1431 34.297C20.8164 33.9222 21.7804 33.4701 23.0106 33.1087C25.3452 32.4228 29.101 31.9555 33.856 33.5402V34.297H20.1431Z" fill="#71836D"/>
</g>
</g>
</g>
</g>
<defs>
<clipPath id="clip0_1_232">
<rect width="37.33" height="37.33" fill="white" transform="translate(0 0.331055)"/>
</clipPath>
</defs>
</svg>
