<svg width="55" height="56" viewBox="0 0 55 56" fill="none" xmlns="http://www.w3.org/2000/svg">
<g id="request-a-call-ico-1.svg" clip-path="url(#clip0_1_211)">
<g id="Clip path group">
<mask id="mask0_1_211" style="mask-type:luminance" maskUnits="userSpaceOnUse" x="0" y="0" width="55" height="56">
<g id="clip0_226_1295">
<path id="Vector" d="M55 0.611328H0V55.6113H55V0.611328Z" fill="white"/>
</g>
</mask>
<g mask="url(#mask0_1_211)">
<g id="Group">
<path id="Vector_2" d="M34.9173 39.22C34.0791 38.3817 32.9647 37.9202 31.7792 37.9202C30.5939 37.9202 29.4795 38.3817 28.6413 39.22L25.7088 42.1524C25.4986 42.3629 25.1562 42.3629 24.946 42.1524L13.5114 30.7179C13.301 30.5075 13.301 30.1653 13.5114 29.955L16.4437 27.0225C17.2821 26.1843 17.7436 25.0699 17.7436 23.8845C17.7436 22.6991 17.2819 21.5847 16.4437 20.7465L11.5241 15.8268C9.79383 14.0968 6.97853 14.0967 5.24818 15.8268L4.25185 16.8231C-1.40817 22.4833 -1.40817 31.693 4.25185 37.3532L18.2585 51.3599C21.0004 54.1017 24.646 55.6117 28.5236 55.6117C32.4012 55.6117 36.0467 54.1017 38.7885 51.3599L39.7848 50.3636C41.515 48.6334 41.515 45.818 39.7848 44.0876L34.9173 39.22ZM6.76726 17.3459C7.65993 16.4532 9.11253 16.4531 10.0052 17.3459L14.925 22.2656C15.3573 22.698 15.5955 23.273 15.5955 23.8845C15.5955 24.496 15.3573 25.071 14.9249 25.5034L12.752 27.6763L4.67386 19.5982C5.00672 19.1612 6.76726 17.3459 6.76726 17.3459ZM19.7777 49.8409L5.77104 35.8342C1.88875 31.952 1.1327 26.1102 3.50106 21.4635L11.3919 29.3543C11.0147 30.3189 11.2145 31.4588 11.9925 32.2369L23.4272 43.6715C24.2051 44.4494 25.3451 44.6493 26.3097 44.2722L34.1524 52.1149C32.4312 52.9964 30.5135 53.4637 28.5239 53.4637C25.2199 53.4636 22.1138 52.1771 19.7777 49.8409ZM38.266 48.8447C38.266 48.8447 36.4531 50.6038 36.0145 50.939L27.9875 42.912L30.1604 40.7392C31.0532 39.8464 32.5058 39.8466 33.3983 40.7392L38.266 45.6068C38.6984 46.0391 38.9365 46.6142 38.9365 47.2257C38.9365 47.8373 38.6984 48.4122 38.266 48.8447Z" fill="#71836D"/>
<path id="Vector_3" d="M52.9052 9.90037C52.6243 9.37783 51.9732 9.1818 51.4506 9.46246C50.9281 9.74323 50.7321 10.3946 51.0127 10.917C52.2115 13.1482 52.8452 15.6758 52.8452 18.2264C52.8452 26.7548 45.9068 33.6932 37.3783 33.6932C28.8499 33.6932 21.9115 26.7548 21.9115 18.2264C21.9115 9.6979 28.8499 2.75951 37.3783 2.75951C39.929 2.75951 42.4564 3.39311 44.6876 4.5919C45.2106 4.87299 45.8615 4.67676 46.1422 4.15421C46.4229 3.63167 46.2269 2.98034 45.7045 2.69968C43.1617 1.33344 40.2826 0.611328 37.3782 0.611328C27.6653 0.611328 19.7632 8.5134 19.7632 18.2264C19.7632 27.9393 27.6653 35.8414 37.3782 35.8414C47.0912 35.8414 54.9933 27.9393 54.9933 18.2264C54.9933 15.3222 54.2713 12.443 52.9052 9.90037Z" fill="#71836D"/>
<path id="Vector_4" d="M24.4893 18.2269C24.4893 25.334 30.2713 31.116 37.3783 31.116C44.4853 31.116 50.2674 25.334 50.2674 18.2269C50.2674 11.1199 44.4853 5.33789 37.3783 5.33789C30.2713 5.33789 24.4893 11.1199 24.4893 18.2269ZM48.0657 17.1528H46.5082C45.915 17.1528 45.4341 17.6337 45.4341 18.2269C45.4341 18.82 45.915 19.301 46.5082 19.301H48.0657C47.5604 24.3678 43.5193 28.4089 38.4525 28.9142V27.3567C38.4525 26.7635 37.9715 26.2826 37.3784 26.2826C36.7852 26.2826 36.3043 26.7635 36.3043 27.3567V28.9142C31.2375 28.4089 27.1965 24.3678 26.691 19.301H28.2487C28.8418 19.301 29.3228 18.82 29.3228 18.2269C29.3228 17.6337 28.8418 17.1528 28.2487 17.1528H26.691C27.1964 12.086 31.2374 8.04503 36.3043 7.53956V9.0972C36.3043 9.69032 36.7852 10.1713 37.3784 10.1713C37.9715 10.1713 38.4525 9.69032 38.4525 9.0972V7.53956C43.5193 8.04503 47.5604 12.086 48.0657 17.1528Z" fill="#71836D"/>
<path id="Vector_5" d="M37.3784 16.7081L35.5124 14.8421C35.0928 14.4228 34.4129 14.4228 33.9933 14.8421C33.5739 15.2615 33.5739 15.9416 33.9933 16.3612L36.6188 18.9867C36.8286 19.1963 37.1034 19.3013 37.3783 19.3013C37.6531 19.3013 37.928 19.1963 38.1378 18.9867L42.8906 14.2338C43.31 13.8144 43.31 13.1343 42.8906 12.7149C42.4711 12.2955 41.7912 12.2955 41.3715 12.7149L37.3784 16.7081Z" fill="#71836D"/>
<path id="Vector_6" d="M49.0741 7.60326C49.3576 7.60326 49.6337 7.4894 49.8335 7.28962C50.0343 7.08877 50.1491 6.81284 50.1491 6.53035C50.1491 6.24787 50.0343 5.97075 49.8335 5.7699C49.6337 5.57011 49.3575 5.45508 49.0741 5.45508C48.7916 5.45508 48.5156 5.57001 48.3147 5.7699C48.115 5.97075 48 6.24787 48 6.53035C48 6.81176 48.1149 7.08877 48.3147 7.28962C48.5145 7.4894 48.7916 7.60326 49.0741 7.60326Z" fill="#71836D"/>
</g>
</g>
</g>
</g>
<defs>
<clipPath id="clip0_1_211">
<rect width="55" height="55" fill="white" transform="translate(0 0.611328)"/>
</clipPath>
</defs>
</svg>
