<svg width="23" height="18" viewBox="0 0 23 18" fill="none" xmlns="http://www.w3.org/2000/svg">
<path d="M22.2338 7.04348H21.1988L18.5366 0.929348C18.4161 0.652722 18.2196 0.417697 17.9709 0.252748C17.7223 0.0877985 17.4321 3.62367e-06 17.1355 0H5.86549C5.56892 3.62367e-06 5.27872 0.0877985 5.03004 0.252748C4.78137 0.417697 4.58489 0.652722 4.46441 0.929348L1.80215 7.04348H0.767155C0.563822 7.04348 0.368818 7.12593 0.22504 7.2727C0.0812618 7.41947 0.000488281 7.61853 0.000488281 7.82609C0.000488281 8.03365 0.0812618 8.23271 0.22504 8.37947C0.368818 8.52624 0.563822 8.6087 0.767155 8.6087H1.53382V16.4348C1.53382 16.8499 1.69537 17.248 1.98292 17.5416C2.27048 17.8351 2.66049 18 3.06715 18H5.36716C5.77382 18 6.16383 17.8351 6.45139 17.5416C6.73894 17.248 6.90049 16.8499 6.90049 16.4348V14.8696H16.1005V16.4348C16.1005 16.8499 16.262 17.248 16.5496 17.5416C16.8371 17.8351 17.2272 18 17.6338 18H19.9338C20.3405 18 20.7305 17.8351 21.0181 17.5416C21.3056 17.248 21.4672 16.8499 21.4672 16.4348V8.6087H22.2338C22.4372 8.6087 22.6322 8.52624 22.7759 8.37947C22.9197 8.23271 23.0005 8.03365 23.0005 7.82609C23.0005 7.61853 22.9197 7.41947 22.7759 7.2727C22.6322 7.12593 22.4372 7.04348 22.2338 7.04348ZM5.86549 1.56522H17.1355L19.5208 7.04348H3.4802L5.86549 1.56522ZM5.36716 16.4348H3.06715V14.8696H5.36716V16.4348ZM17.6338 16.4348V14.8696H19.9338V16.4348H17.6338ZM19.9338 13.3043H3.06715V8.6087H19.9338V13.3043ZM4.60049 10.9565C4.60049 10.749 4.68126 10.5499 4.82504 10.4031C4.96882 10.2564 5.16382 10.1739 5.36716 10.1739H6.90049C7.10382 10.1739 7.29883 10.2564 7.4426 10.4031C7.58638 10.5499 7.66715 10.749 7.66715 10.9565C7.66715 11.1641 7.58638 11.3631 7.4426 11.5099C7.29883 11.6567 7.10382 11.7391 6.90049 11.7391H5.36716C5.16382 11.7391 4.96882 11.6567 4.82504 11.5099C4.68126 11.3631 4.60049 11.1641 4.60049 10.9565ZM15.3338 10.9565C15.3338 10.749 15.4146 10.5499 15.5584 10.4031C15.7022 10.2564 15.8972 10.1739 16.1005 10.1739H17.6338C17.8372 10.1739 18.0322 10.2564 18.1759 10.4031C18.3197 10.5499 18.4005 10.749 18.4005 10.9565C18.4005 11.1641 18.3197 11.3631 18.1759 11.5099C18.0322 11.6567 17.8372 11.7391 17.6338 11.7391H16.1005C15.8972 11.7391 15.7022 11.6567 15.5584 11.5099C15.4146 11.3631 15.3338 11.1641 15.3338 10.9565Z" fill="#151918"/>
</svg>
