<svg width="14" height="20" viewBox="0 0 14 20" fill="none" xmlns="http://www.w3.org/2000/svg">
<path d="M7.00049 2C7.00049 2.26522 7.10585 2.51957 7.29338 2.70711C7.48092 2.89464 7.73527 3 8.00049 3C8.2657 3 8.52006 2.89464 8.70759 2.70711C8.89513 2.51957 9.00049 2.26522 9.00049 2C9.00049 1.73478 8.89513 1.48043 8.70759 1.29289C8.52006 1.10536 8.2657 1 8.00049 1C7.73527 1 7.48092 1.10536 7.29338 1.29289C7.10585 1.48043 7.00049 1.73478 7.00049 2ZM2.00049 19L5.00049 15L2.00049 19ZM11.0005 19L9.00049 15L6.00049 12L7.00049 6" fill="#151918"/>
<path d="M2.00049 19L5.00049 15M11.0005 19L9.00049 15L6.00049 12L7.00049 6M7.00049 2C7.00049 2.26522 7.10585 2.51957 7.29338 2.70711C7.48092 2.89464 7.73527 3 8.00049 3C8.2657 3 8.52006 2.89464 8.70759 2.70711C8.89513 2.51957 9.00049 2.26522 9.00049 2C9.00049 1.73478 8.89513 1.48043 8.70759 1.29289C8.52006 1.10536 8.2657 1 8.00049 1C7.73527 1 7.48092 1.10536 7.29338 1.29289C7.10585 1.48043 7.00049 1.73478 7.00049 2Z" stroke="#151918" stroke-width="2" stroke-linecap="round" stroke-linejoin="round"/>
<path d="M1.00049 10L3.00049 7L7.00049 6L10.0005 9L13.0005 10" fill="#151918"/>
<path d="M1.00049 10L3.00049 7L7.00049 6L10.0005 9L13.0005 10" stroke="#151918" stroke-width="2" stroke-linecap="round" stroke-linejoin="round"/>
</svg>
