<?xml version="1.0" standalone="no"?>
<!DOCTYPE svg PUBLIC "-//W3C//DTD SVG 1.1//EN" "http://www.w3.org/Graphics/SVG/1.1/DTD/svg11.dtd" >
<svg xmlns="http://www.w3.org/2000/svg" xmlns:xlink="http://www.w3.org/1999/xlink" version="1.1">
<metadata>
Created by FontForge 20170731 at Tue Oct 27 00:54:49 2015
 By Aleksey,,,
Copyright (c) 2015 by Radomir Tinkov. All rights reserved.
</metadata>
<defs>
<font id="Qanelas-Medium" horiz-adv-x="523" >
  <font-face 
    font-family="Qanelas Medium"
    font-weight="500"
    font-stretch="normal"
    units-per-em="1000"
    panose-1="0 0 6 0 0 0 0 0 0 0"
    ascent="800"
    descent="-200"
    x-height="500"
    cap-height="700"
    bbox="-350 -248 1075 965"
    underline-thickness="50"
    underline-position="-200"
    unicode-range="U+0020-FB02"
  />
<missing-glyph horiz-adv-x="500" 
d="M410 800v-1000h-317v1000h317zM333 733h-165v-33h65v-37h-66v-33h166v33h-66v37h66v33zM267 604h-100v-104h166v34h-66v70zM233 570v-36h-33v36h33zM333 473h-166v-33h66v-37h-66v-33h100v70h66v33zM333 413h-33v-66h-133v-34h166v100zM333 291h-100v-56h34v23h33v-47
h-100v80h-33v-113h166v113zM333 118h-166v-113h166v113zM300 85v-47h-100v47h100zM333 -18h-166v-33h70l-70 -47v-33h166v33h-102l70 47h32v33z" />
    <glyph glyph-name="fi" unicode="fi" horiz-adv-x="521" 
d="M455 500v-500h-87v416h-185v-416h-87v416h-81v84h81v15q0 198 218 198q41 0 103 -13v-79q-59 8 -103 8q-68 0 -99.5 -25.5t-31.5 -88.5v-15h272z" />
    <glyph glyph-name="fl" unicode="fl" horiz-adv-x="521" 
d="M314 713q59 0 141 -15v-698h-87v633q-38 2 -54 2q-67 0 -99 -28t-32 -92v-15h103v-84h-103v-416h-87v416h-81v84h81v15q0 198 218 198z" />
    <glyph glyph-name="f_f" unicode="ff" horiz-adv-x="586" 
d="M586 639q-131 11 -131 -114v-25h131v-84h-131v-416h-87v416h-80h-105v-416h-87v416h-81v84h81v15q0 101 56 153t162 45v-84q-131 11 -131 -114v-15h131h54v25q0 101 56.5 153t161.5 45v-84z" />
    <glyph glyph-name="f_f_i" unicode="ffi" horiz-adv-x="793" 
d="M727 500v-500h-87v416h-185v-416h-87v416h-80h-105v-416h-87v416h-81v84h81v15q0 101 56 153t162 45v-84q-131 11 -131 -114v-15h131h54v25q0 198 218 198q42 0 104 -13v-79q-61 8 -104 8q-67 0 -99 -25.5t-32 -88.5v-25h272z" />
    <glyph glyph-name="f_f_l" unicode="ffl" horiz-adv-x="793" 
d="M586 723q61 0 141 -15v-708h-87v643q-36 2 -54 2q-66 0 -98.5 -28t-32.5 -92v-25h104v-84h-104v-416h-87v416h-80h-105v-416h-87v416h-81v84h81v15q0 101 56 153t162 45v-84q-131 11 -131 -114v-15h131h54v25q0 198 218 198z" />
    <glyph glyph-name=".notdef" horiz-adv-x="500" 
d="M410 800v-1000h-317v1000h317zM333 733h-165v-33h65v-37h-66v-33h166v33h-66v37h66v33zM267 604h-100v-104h166v34h-66v70zM233 570v-36h-33v36h33zM333 473h-166v-33h66v-37h-66v-33h100v70h66v33zM333 413h-33v-66h-133v-34h166v100zM333 291h-100v-56h34v23h33v-47
h-100v80h-33v-113h166v113zM333 118h-166v-113h166v113zM300 85v-47h-100v47h100zM333 -18h-166v-33h70l-70 -47v-33h166v33h-102l70 47h32v33z" />
    <glyph glyph-name=".null" horiz-adv-x="0" 
 />
    <glyph glyph-name="nonmarkingreturn" horiz-adv-x="333" 
 />
    <glyph glyph-name="space" unicode=" " horiz-adv-x="250" 
 />
    <glyph glyph-name="exclam" unicode="!" horiz-adv-x="243" 
d="M88 205l-19 295v200h105v-200l-19 -295h-67zM68 0v108h107v-108h-107z" />
    <glyph glyph-name="quotedbl" unicode="&#x22;" horiz-adv-x="333" 
d="M60 490l-12 210h87l-12 -210h-63zM210 490l-12 210h87l-12 -210h-63z" />
    <glyph glyph-name="numbersign" unicode="#" horiz-adv-x="605" 
d="M565 405h-116l-18 -110h117l-12 -72h-117l-29 -173h-76l29 173h-122l-29 -173h-77l29 173h-116l12 72h116l18 110h-117l12 73h118l28 172h77l-29 -172h122l29 172h76l-28 -172h115zM355 295l18 110h-122l-18 -110h122z" />
    <glyph glyph-name="dollar" unicode="$" horiz-adv-x="548" 
d="M513 178q0 -83 -59.5 -133.5t-147.5 -56.5v-88h-63v90q-91 10 -149.5 66.5t-58.5 150.5h93q0 -53 30.5 -85.5t84.5 -40.5v238q-43 16 -71.5 30.5t-59.5 39t-46.5 59t-15.5 79.5q0 79 56 128t137 56v89h63v-90q83 -10 138.5 -64t55.5 -142h-92q0 48 -27.5 77.5t-74.5 38.5
v-233q37 -14 60.5 -24t54.5 -29t48.5 -38.5t30.5 -50t13 -67.5zM142 527q0 -40 26 -66.5t75 -48.5v209q-45 -6 -73 -30.5t-28 -63.5zM306 79q52 5 83.5 31t31.5 68q0 41 -30 68t-85 49v-216z" />
    <glyph glyph-name="percent" unicode="%" horiz-adv-x="765" 
d="M213 403q-68 0 -113 45t-45 110q0 64 45.5 109.5t112.5 45.5q68 0 113 -45t45 -110t-44.5 -110t-113.5 -45zM91 0l491 700h93l-492 -700h-92zM213 476q35 0 57.5 24t22.5 58t-22.5 57.5t-57.5 23.5t-57.5 -23.5t-22.5 -57.5q0 -35 22.5 -58.5t57.5 -23.5zM552 -12
q-68 0 -113 45t-45 110t45 110t113 45t113 -45t45 -110t-45 -110t-113 -45zM552 62q35 0 57.5 23.5t22.5 57.5t-22.5 57.5t-57.5 23.5t-57.5 -23.5t-22.5 -57.5t22.5 -57.5t57.5 -23.5z" />
    <glyph glyph-name="ampersand" unicode="&#x26;" horiz-adv-x="676" 
d="M658 0h-120l-47 47q-82 -60 -201 -60q-105 0 -173.5 57t-68.5 151q0 120 109 190q-50 60 -50 134q0 87 62 140.5t152 53.5q91 0 156 -54.5t65 -154.5h-93q0 58 -36.5 88.5t-91.5 30.5q-52 0 -87 -29t-35 -78t65 -116l221 -225q34 62 34 154h92q0 -129 -61 -219zM294 75
q82 0 133 36l-211 212q-75 -44 -75 -124q0 -56 42 -90t111 -34z" />
    <glyph glyph-name="quotesingle" unicode="'" horiz-adv-x="183" 
d="M60 490l-12 210h87l-12 -210h-63z" />
    <glyph glyph-name="parenleft" unicode="(" horiz-adv-x="280" 
d="M168 -100q-110 220 -110 450t110 450h87q-110 -220 -110 -450t110 -450h-87z" />
    <glyph glyph-name="parenright" unicode=")" horiz-adv-x="280" 
d="M112 -100h-87q110 220 110 450t-110 450h87q110 -220 110 -450t-110 -450z" />
    <glyph glyph-name="asterisk" unicode="*" horiz-adv-x="394" 
d="M337 610v-64l-91 4l53 -73l-57 -34l-45 82l-45 -82l-56 34l52 73l-90 -4v64l90 -5l-52 74l56 34l45 -82l45 82l57 -34l-53 -74z" />
    <glyph glyph-name="plus" unicode="+" horiz-adv-x="545" 
d="M488 392v-83h-174v-174h-83v174h-173v83h173v173h83v-173h174z" />
    <glyph glyph-name="comma" unicode="," horiz-adv-x="243" 
d="M68 108h107v-108q0 -58 -27.5 -93t-79.5 -40v46q26 6 39 24.5t13 62.5h-52v108z" />
    <glyph glyph-name="hyphen" unicode="-" horiz-adv-x="515" 
d="M75 265v84h365v-84h-365z" />
    <glyph glyph-name="period" unicode="." horiz-adv-x="243" 
d="M68 0v108h107v-108h-107z" />
    <glyph glyph-name="slash" unicode="/" horiz-adv-x="528" 
d="M90 -100h-52l400 900h52z" />
    <glyph glyph-name="zero" unicode="0" horiz-adv-x="630" 
d="M315 -13q-128 0 -199 99t-71 264t71 264t199 99t199 -99t71 -264t-71 -264t-199 -99zM315 78q85 0 131.5 71t46.5 201t-46.5 201.5t-131.5 71.5t-131 -71t-46 -202q0 -130 46 -201t131 -71z" />
    <glyph glyph-name="one" unicode="1" horiz-adv-x="355" 
d="M185 700h93v-700h-93v603l-171 -93v97z" />
    <glyph glyph-name="two" unicode="2" horiz-adv-x="528" 
d="M38 0v76l247 250q99 99 99 172q0 59 -35.5 92t-87.5 33q-58 0 -94.5 -31.5t-36.5 -94.5h-92q0 105 65 160.5t157 55.5q87 0 152 -57t65 -158q0 -108 -124 -230l-180 -178h317v-90h-452z" />
    <glyph glyph-name="three" unicode="3" horiz-adv-x="535" 
d="M315 412q80 -15 131.5 -68t51.5 -137q0 -102 -70 -161t-170 -59t-170 59t-70 161h92q0 -61 41 -95t107 -34q65 0 106 34t41 95t-41 95.5t-106 34.5h-59v61l159 215h-311v87h420v-82z" />
    <glyph glyph-name="four" unicode="4" horiz-adv-x="575" 
d="M561 220v-87h-85v-133h-93v133h-359v87l251 480h100l-250 -480h258v198h93v-198h85z" />
    <glyph glyph-name="five" unicode="5" horiz-adv-x="553" 
d="M279 427q100 0 168.5 -58.5t68.5 -161.5q0 -102 -70 -161t-170 -59t-170 59t-70 161h93q0 -61 41 -95t106 -34q66 0 107 34t41 95t-41 95.5t-107 34.5h-206l26 363h393v-87h-307l-13 -186h110z" />
    <glyph glyph-name="six" unicode="6" horiz-adv-x="538" 
d="M269 458q105 0 173 -65.5t68 -169.5t-68 -170t-173 -66q-106 0 -173.5 66t-67.5 170q0 81 42 140l225 337h106l-166 -244q22 2 34 2zM269 76q66 0 107.5 40.5t41.5 106.5t-41.5 106t-107.5 40q-67 0 -108 -40t-41 -106t41.5 -106.5t107.5 -40.5z" />
    <glyph glyph-name="seven" unicode="7" horiz-adv-x="490" 
d="M18 700h437v-83l-255 -617h-97l253 612h-338v88z" />
    <glyph glyph-name="eight" unicode="8" horiz-adv-x="555" 
d="M408 362q51 -26 80 -70t29 -100q0 -96 -67 -150.5t-173 -54.5q-105 0 -172 54.5t-67 150.5q0 56 29 100t80 70q-86 54 -86 153q0 95 63.5 146.5t152.5 51.5q90 0 153.5 -51.5t63.5 -146.5q0 -99 -86 -153zM277 624q-53 0 -88.5 -28t-35.5 -83q0 -53 36 -82.5t88 -29.5
t88 29.5t36 82.5q0 55 -35 83t-89 28zM277 76q67 0 107.5 31.5t40.5 90.5q0 58 -40.5 89.5t-107.5 31.5q-66 0 -106.5 -31.5t-40.5 -89.5q0 -59 40.5 -90.5t106.5 -31.5z" />
    <glyph glyph-name="nine" unicode="9" horiz-adv-x="538" 
d="M510 478q0 -83 -43 -141h1l-226 -337h-105l165 244q-11 -1 -33 -1q-106 0 -173.5 65.5t-67.5 169.5t67.5 169.5t173.5 65.5t173.5 -65.5t67.5 -169.5zM120 478q0 -66 41.5 -106.5t107.5 -40.5t107.5 40.5t41.5 106.5t-41 106t-108 40q-66 0 -107.5 -40t-41.5 -106z" />
    <glyph glyph-name="colon" unicode=":" horiz-adv-x="243" 
d="M68 393v107h107v-107h-107zM68 0v108h107v-108h-107z" />
    <glyph glyph-name="semicolon" unicode=";" horiz-adv-x="243" 
d="M68 500h107v-107h-107v107zM68 0v108h107v-108q0 -58 -27.5 -93t-79.5 -40v46q26 6 39 24.5t13 62.5h-52z" />
    <glyph glyph-name="less" unicode="&#x3c;" 
d="M468 573v-94l-314 -129l314 -128v-94l-413 180v85z" />
    <glyph glyph-name="equal" unicode="=" horiz-adv-x="535" 
d="M55 410v83h425v-83h-425zM55 207v83h425v-83h-425z" />
    <glyph glyph-name="greater" unicode="&#x3e;" 
d="M55 573l413 -180v-85l-413 -180v94l314 128l-314 129v94z" />
    <glyph glyph-name="question" unicode="?" horiz-adv-x="541" 
d="M207 205q0 44 19 82t46 65t54 51.5t46 54t19 62.5q0 51 -34 77t-90 26q-61 0 -99 -30.5t-38 -88.5h-92q0 100 66.5 154.5t164.5 54.5q89 0 152 -50t63 -139q0 -42 -19 -79t-46 -64t-54 -52.5t-46 -57t-19 -66.5h-93zM200 0v108h107v-108h-107z" />
    <glyph glyph-name="at" unicode="@" horiz-adv-x="789" 
d="M402 612q106 0 188 -51.5t122 -128.5t40 -162q0 -105 -44 -159.5t-105 -54.5q-45 0 -76.5 21.5t-42.5 62.5q-40 -51 -107 -51q-68 0 -112.5 46t-44.5 115t44.5 115t112.5 46q62 0 101 -44v36h77v-221q0 -88 63 -88q44 0 72.5 43.5t28.5 132.5q0 132 -91.5 222t-225.5 90
q-138 0 -235 -95.5t-97 -236.5q0 -144 99.5 -238t250.5 -94q99 0 170 28v-32q-70 -26 -170 -26q-164 0 -273 102.5t-109 259.5q0 151 104.5 256.5t259.5 105.5zM389 161q38 0 63.5 24.5t25.5 64.5t-25.5 64.5t-63.5 24.5t-64.5 -24.5t-26.5 -64.5t26.5 -64.5t64.5 -24.5z
" />
    <glyph glyph-name="A" unicode="A" horiz-adv-x="638" 
d="M531 0l-56 157h-312l-56 -157h-99l258 700h105l259 -700h-99zM194 244h249l-124 347z" />
    <glyph glyph-name="B" unicode="B" horiz-adv-x="685" 
d="M523 437q59 -27 94.5 -83t35.5 -126q0 -95 -63.5 -161.5t-157.5 -66.5h-339h-18v700h93h190q84 0 137 -51t53 -126q0 -47 -25 -86zM358 613h-190v-155h263q24 26 24 63q0 40 -26 66t-71 26zM419 87q64 0 102.5 41t38.5 102q0 62 -38 102.5t-102 40.5h-252v-286h251z" />
    <glyph glyph-name="C" unicode="C" horiz-adv-x="761" 
d="M404 -13q-159 0 -262.5 105t-103.5 258t103.5 258t262.5 105q118 0 210.5 -68t121.5 -175h-99q-25 68 -89 110.5t-144 42.5q-121 0 -197.5 -78t-76.5 -195q0 -116 76.5 -194t197.5 -78q80 0 144 42t89 110h99q-29 -107 -121.5 -175t-210.5 -68z" />
    <glyph glyph-name="D" unicode="D" horiz-adv-x="738" 
d="M368 700q143 0 237.5 -101.5t94.5 -248.5t-94.5 -248.5t-237.5 -101.5h-258h-35v700h93h200zM368 88q107 0 175 75t68 187t-68 187t-175 75h-200v-524h200z" />
    <glyph glyph-name="E" unicode="E" horiz-adv-x="518" 
d="M168 88h312v-88h-370h-35v700h93h307v-88h-307v-215h282v-87h-282v-222z" />
    <glyph glyph-name="F" unicode="F" horiz-adv-x="498" 
d="M475 612h-307v-245h295v-88h-295v-279h-93v700h93h307v-88z" />
    <glyph glyph-name="G" unicode="G" horiz-adv-x="792" 
d="M414 276v85h318v-85v-276h-90v101q-38 -56 -103 -85t-144 -29q-153 0 -255 105.5t-102 257.5q0 153 103 258t259 105q117 0 209.5 -67t122.5 -171h-99q-25 65 -89.5 106.5t-143.5 41.5q-119 0 -194.5 -78t-75.5 -195q0 -118 76 -196.5t194 -78.5q99 0 167.5 51t72.5 142
h2v8h-228z" />
    <glyph glyph-name="H" unicode="H" horiz-adv-x="633" 
d="M465 700h93v-700h-93v316h-297v-316h-93v700h93v-296h297v296z" />
    <glyph glyph-name="I" unicode="I" horiz-adv-x="243" 
d="M75 700h93v-700h-93v700z" />
    <glyph glyph-name="J" unicode="J" horiz-adv-x="533" 
d="M243 -13q-94 0 -159.5 55.5t-65.5 158.5v13h92v-13q0 -62 36.5 -92.5t96.5 -30.5q59 0 95.5 30.5t36.5 92.5v499h93v-499q0 -103 -65.5 -158.5t-159.5 -55.5z" />
    <glyph glyph-name="K" unicode="K" horiz-adv-x="592" 
d="M584 0h-114l-302 336v-336h-93v700h93v-317l292 317h114l-309 -341z" />
    <glyph glyph-name="L" unicode="L" horiz-adv-x="485" 
d="M168 88h300v-88h-393v700h93v-612z" />
    <glyph glyph-name="M" unicode="M" horiz-adv-x="805" 
d="M730 700v-700h-92v547l-195 -429h-80l-195 429v-547h-93v700h93h18l217 -476l216 476h111z" />
    <glyph glyph-name="N" unicode="N" horiz-adv-x="635" 
d="M468 700h92v-700h-75l-317 518v-518h-93v700h75l318 -517v517z" />
    <glyph glyph-name="O" unicode="O" horiz-adv-x="800" 
d="M400 -13q-152 0 -257 106t-105 257q0 152 105 257.5t257 105.5t257.5 -105.5t105.5 -257.5q0 -151 -105.5 -257t-257.5 -106zM400 78q115 0 192.5 78.5t77.5 193.5q0 116 -77.5 194.5t-192.5 78.5t-192.5 -78.5t-77.5 -194.5q0 -115 77.5 -193.5t192.5 -78.5z" />
    <glyph glyph-name="P" unicode="P" horiz-adv-x="583" 
d="M329 700q91 0 155 -63.5t64 -153.5t-64 -154t-155 -64h-161v-265h-93v700h93h161zM329 352q52 0 89 38.5t37 92.5t-37 92t-89 38h-161v-261h161z" />
    <glyph glyph-name="Q" unicode="Q" horiz-adv-x="805" 
d="M763 350q0 -144 -99 -249l88 -99l-67 -55l-87 99q-91 -59 -198 -59q-150 0 -256 106t-106 257t106 257t256 106t256.5 -106t106.5 -257zM400 78q74 0 137 36l-94 107l67 55l94 -107q66 77 66 181q0 115 -78.5 194t-191.5 79t-191.5 -79t-78.5 -194q0 -114 78.5 -193
t191.5 -79z" />
    <glyph glyph-name="R" unicode="R" horiz-adv-x="630" 
d="M530 0l-230 268h-132v-268h-93v700h93h162q90 0 154 -63.5t64 -153.5q0 -69 -41 -125t-105 -78l241 -280h-113zM168 613v-261h162q52 0 88.5 38.5t36.5 92.5t-36.5 92t-88.5 38h-162z" />
    <glyph glyph-name="S" unicode="S" horiz-adv-x="549" 
d="M284 -13q-106 0 -177.5 58t-71.5 162h93q0 -62 42 -95.5t114 -33.5q61 0 99 28.5t38 75.5q0 45 -36.5 71.5t-108.5 53.5q-4 1 -11 4q-34 12 -52 19.5t-47.5 21.5t-45.5 28.5t-33.5 35.5t-25.5 47.5t-8 59.5q0 87 64 138.5t152 51.5q95 0 160 -55.5t65 -153.5h-93
q0 57 -36 88t-96 31q-54 0 -89 -27t-35 -73q0 -48 34.5 -74.5t105.5 -53.5q106 -40 140 -62q88 -56 89 -151q0 -89 -67 -142t-163 -53z" />
    <glyph glyph-name="T" unicode="T" horiz-adv-x="500" 
d="M483 700v-88h-187v-612h-92v612h-186v88h278h187z" />
    <glyph glyph-name="U" unicode="U" horiz-adv-x="620" 
d="M310 -13q-106 0 -175.5 59t-69.5 164v490h93v-486q0 -66 40 -101t112 -35t112.5 35t40.5 101v486h92v-490q0 -105 -69.5 -164t-175.5 -59z" />
    <glyph glyph-name="V" unicode="V" horiz-adv-x="616" 
d="M256 0l-248 700h99l201 -588l201 588h100l-248 -700h-105z" />
    <glyph glyph-name="W" unicode="W" horiz-adv-x="870" 
d="M770 700h93l-212 -700h-112l-104 343l-104 -343h-112l-211 700h93l177 -594l114 378l-65 216h88l177 -594z" />
    <glyph glyph-name="X" unicode="X" horiz-adv-x="580" 
d="M563 0h-104l-169 277l-169 -277h-103l220 361l-207 339h104l155 -254l156 254h103l-207 -339z" />
    <glyph glyph-name="Y" unicode="Y" horiz-adv-x="584" 
d="M576 700l-238 -380v-320h-93v322l-237 378h104l180 -291l180 291h104z" />
    <glyph glyph-name="Z" unicode="Z" horiz-adv-x="525" 
d="M149 88h347v-88h-457v81l338 531h-329v88h440v-80z" />
    <glyph glyph-name="bracketleft" unicode="[" horiz-adv-x="270" 
d="M270 716h-125v-732h125v-84h-187h-25v900h87h125v-84z" />
    <glyph glyph-name="backslash" unicode="\" horiz-adv-x="528" 
d="M438 -100l-400 900h52l400 -900h-52z" />
    <glyph glyph-name="bracketright" unicode="]" horiz-adv-x="270" 
d="M213 800v-900h-87h-126v84h126v732h-126v84h213z" />
    <glyph glyph-name="asciicircum" unicode="^" horiz-adv-x="520" 
d="M299 700l181 -310h-98l-122 212l-122 -212h-98l181 310h78z" />
    <glyph glyph-name="underscore" unicode="_" horiz-adv-x="520" 
d="M38 -151v84h445v-84h-445z" />
    <glyph glyph-name="grave" unicode="`" horiz-adv-x="225" 
d="M205 568l-80 132h-105l101 -132h84z" />
    <glyph glyph-name="a" unicode="a" horiz-adv-x="502" 
d="M253 513q86 0 140.5 -51t54.5 -139v-323h-86v52q-49 -65 -149 -65q-73 0 -124 42t-51 118t51 118t124 42q97 0 149 -58v71q0 56 -30.5 83t-78.5 27q-46 0 -77 -23.5t-31 -66.5h-86q0 77 55 125t139 48zM238 61q55 0 89.5 24t34.5 62q0 40 -34.5 63.5t-89.5 23.5
q-56 0 -84.5 -24t-28.5 -63t28.5 -62.5t84.5 -23.5z" />
    <glyph glyph-name="b" unicode="b" horiz-adv-x="633" 
d="M342 513q105 0 179 -76.5t74 -186.5t-74 -186.5t-179 -76.5q-124 0 -189 98v-85h-87v700h87v-285q65 98 189 98zM331 71q75 0 126 51.5t51 127.5t-51 127.5t-126 51.5q-76 0 -127 -51.5t-51 -127.5t51 -127.5t127 -51.5z" />
    <glyph glyph-name="c" unicode="c" horiz-adv-x="571" 
d="M544 168q-20 -80 -87.5 -130.5t-155.5 -50.5q-113 0 -188 75.5t-75 187.5t75 187.5t188 75.5q88 0 155.5 -50t87.5 -130h-92q-17 43 -58 69t-93 26q-74 0 -125 -51t-51 -127q0 -75 51 -126t125 -51q52 0 93 26t58 69h92z" />
    <glyph glyph-name="d" unicode="d" horiz-adv-x="633" 
d="M480 700h87v-700h-87v85q-65 -98 -189 -98q-104 0 -178.5 76.5t-74.5 186.5t74.5 186.5t178.5 76.5q124 0 189 -98v285zM302 71q76 0 127 51.5t51 127.5t-51 127.5t-127 51.5q-75 0 -126 -51.5t-51 -127.5t51 -127.5t126 -51.5z" />
    <glyph glyph-name="e" unicode="e" horiz-adv-x="571" 
d="M127 210q11 -68 57.5 -106t114.5 -38q46 0 82.5 20.5t52.5 52.5h91q-22 -69 -83 -110.5t-144 -41.5q-116 0 -188 74.5t-72 188.5q0 113 72 188t187 75q110 0 177.5 -77.5t67.5 -186.5q0 -19 -3 -39h-412zM127 287h326q-9 70 -53 107t-104 37q-69 0 -113.5 -39t-55.5 -105
z" />
    <glyph glyph-name="f" unicode="f" horiz-adv-x="314" 
d="M314 629q-131 11 -131 -114v-15h131v-84h-131v-416h-87v416h-81v84h81v15q0 101 56 153t162 45v-84z" />
    <glyph glyph-name="g" unicode="g" horiz-adv-x="632" 
d="M481 500h86v-479q0 -111 -74 -172.5t-179 -61.5q-96 0 -169 54.5t-73 137.5h87q0 -41 42.5 -76t112.5 -35q80 0 123.5 41t43.5 112v70q-66 -99 -190 -99q-105 0 -179 76t-74 185q0 108 74 184t179 76q124 0 190 -99v86zM303 75q76 0 127 51t51 127q0 75 -51 126t-127 51
t-127 -51t-51 -126q0 -76 51 -127t127 -51z" />
    <glyph glyph-name="h" unicode="h" 
d="M301 513q72 0 120 -51t48 -137v-325h-87v321q0 52 -28.5 80.5t-75.5 28.5q-52 0 -88.5 -35.5t-36.5 -109.5v-285h-87v700h87v-262q49 75 148 75z" />
    <glyph glyph-name="i" unicode="i" horiz-adv-x="220" 
d="M66 590v110h87v-110h-87zM66 0v500h87v-500h-87z" />
    <glyph glyph-name="j" unicode="j" horiz-adv-x="241" 
d="M88 700h87v-110h-87v110zM88 -30v530h87v-530q0 -97 -49 -143.5t-144 -39.5v84q55 -5 80.5 18t25.5 81z" />
    <glyph glyph-name="k" unicode="k" horiz-adv-x="502" 
d="M487 0h-109l-225 236v-236h-87v700h87v-422l215 222h109l-237 -242z" />
    <glyph glyph-name="l" unicode="l" horiz-adv-x="220" 
d="M66 0v720h87v-720h-87z" />
    <glyph glyph-name="m" unicode="m" horiz-adv-x="768" 
d="M557 513q68 0 112.5 -46.5t44.5 -129.5v-337h-87v334q0 49 -24.5 72.5t-62.5 23.5q-41 0 -73.5 -29.5t-32.5 -95.5v-305h-87v334q0 49 -25 72.5t-63 23.5q-41 0 -73.5 -29.5t-32.5 -95.5v-305h-87v500h87v-55q46 68 130 68q88 0 129 -79q50 79 145 79z" />
    <glyph glyph-name="n" unicode="n" 
d="M301 513q72 0 120 -51t48 -137v-325h-87v321q0 52 -28.5 80.5t-75.5 28.5q-52 0 -88.5 -35.5t-36.5 -109.5v-285h-87v500h87v-62q49 75 148 75z" />
    <glyph glyph-name="o" unicode="o" horiz-adv-x="602" 
d="M301 -13q-110 0 -186.5 76t-76.5 187t76.5 187t186.5 76t187 -76t77 -187t-77 -187t-187 -76zM301 72q75 0 126 51t51 127t-51 127t-126 51q-74 0 -125 -51t-51 -127t51 -127t125 -51z" />
    <glyph glyph-name="p" unicode="p" horiz-adv-x="633" 
d="M342 513q105 0 179 -76.5t74 -186.5t-74 -186.5t-179 -76.5q-124 0 -189 98v-285h-87v700h87v-85q65 98 189 98zM331 71q75 0 126 51.5t51 127.5t-51 127.5t-126 51.5q-76 0 -127 -51.5t-51 -127.5t51 -127.5t127 -51.5z" />
    <glyph glyph-name="q" unicode="q" horiz-adv-x="633" 
d="M480 500h87v-700h-87v285q-65 -98 -189 -98q-104 0 -178.5 76.5t-74.5 186.5t74.5 186.5t178.5 76.5q124 0 189 -98v85zM302 71q76 0 127 51.5t51 127.5t-51 127.5t-127 51.5q-75 0 -126 -51.5t-51 -127.5t51 -127.5t126 -51.5z" />
    <glyph glyph-name="r" unicode="r" horiz-adv-x="322" 
d="M153 425q47 84 151 84v-91q-63 3 -107 -33.5t-44 -116.5v-268h-87v500h87v-75z" />
    <glyph glyph-name="s" unicode="s" horiz-adv-x="467" 
d="M138 364q0 -31 29.5 -48.5t71.5 -27t84 -22.5t71.5 -45.5t29.5 -84.5q0 -67 -53.5 -108t-137.5 -41t-137 43.5t-53 119.5h86q0 -42 28.5 -62t75.5 -20q46 0 75 17t29 51q0 26 -21 43t-53 24.5t-69 18.5t-69 24.5t-53 43.5t-21 74q0 66 52 107.5t130 41.5t129.5 -44
t51.5 -119h-86q0 42 -27.5 62t-67.5 20t-67.5 -17.5t-27.5 -50.5z" />
    <glyph glyph-name="t" unicode="t" horiz-adv-x="321" 
d="M303 500v-84h-98v-416h-87v416h-99v84h99v160h87v-160h98z" />
    <glyph glyph-name="u" unicode="u" 
d="M370 500h87v-500h-87v62q-49 -75 -148 -75q-72 0 -120 51.5t-48 137.5v324h87v-321q0 -52 28.5 -80.5t75.5 -28.5q53 0 89 35.5t36 110.5v284z" />
    <glyph glyph-name="v" unicode="v" horiz-adv-x="480" 
d="M380 500h93l-184 -500h-83h-15l-183 500h92l140 -401z" />
    <glyph glyph-name="w" unicode="w" horiz-adv-x="695" 
d="M593 500h92l-170 -500h-81h-8l-78 227l-78 -227h-76h-13l-171 500h93l126 -398l80 239l-54 159h85l128 -393z" />
    <glyph glyph-name="x" unicode="x" horiz-adv-x="460" 
d="M443 0h-94l-120 186l-120 -186h-94l167 259l-156 241h94l109 -168l108 168h94l-155 -241z" />
    <glyph glyph-name="y" unicode="y" horiz-adv-x="480" 
d="M380 500h93l-245 -700h-93l72 205l-199 495h92l150 -374z" />
    <glyph glyph-name="z" unicode="z" horiz-adv-x="451" 
d="M157 83h266v-83h-385v58l255 359h-245v83h365v-58z" />
    <glyph glyph-name="braceleft" unicode="{" horiz-adv-x="353" 
d="M336 -108q-190 -15 -190 170v161q0 54 -22.5 70.5t-73.5 15.5v84q51 -1 73.5 16t22.5 70v161q0 185 190 170v-84q-55 6 -79 -12.5t-24 -73.5v-161q0 -100 -72 -128q72 -27 72 -128v-161q0 -55 24.5 -73.5t78.5 -12.5v-84z" />
    <glyph glyph-name="bar" unicode="|" horiz-adv-x="237" 
d="M75 -200v920h87v-920h-87z" />
    <glyph glyph-name="braceright" unicode="}" horiz-adv-x="353" 
d="M18 -108v84q54 -6 78.5 12.5t24.5 73.5v161q0 102 71 128q-71 28 -71 128v161q0 55 -24.5 73.5t-78.5 12.5v84q190 15 190 -170v-161q0 -53 22.5 -70t72.5 -16v-84q-51 1 -73 -15.5t-22 -70.5v-161q0 -91 -48.5 -134.5t-141.5 -35.5z" />
    <glyph glyph-name="asciitilde" unicode="~" horiz-adv-x="596" 
d="M466 424l75 -36q-26 -89 -90.5 -111.5t-161.5 31.5q-76 41 -109 32.5t-50 -64.5l-75 35q26 89 91.5 111.5t159.5 -30.5q78 -42 110.5 -33.5t49.5 65.5z" />
    <glyph glyph-name="exclamdown" unicode="&#xa1;" horiz-adv-x="243" 
d="M68 500h107v-107h-107v107zM88 295h67l19 -295v-200h-105v200z" />
    <glyph glyph-name="cent" unicode="&#xa2;" horiz-adv-x="571" 
d="M301 173q52 0 93 26t58 69h92q-19 -80 -86.5 -130t-156.5 -50q-33 0 -68 8l-31 -96h-52l36 113q-68 31 -108 94t-40 143q0 112 75 187.5t188 75.5q26 0 45 -4l30 91h52l-33 -104q55 -20 95 -63.5t54 -99.5h-92q-23 57 -84 82l-109 -337q23 -5 42 -5zM125 350
q0 -49 24 -90t64 -64l107 331q-6 1 -19 1q-74 0 -125 -51t-51 -127z" />
    <glyph glyph-name="sterling" unicode="&#xa3;" horiz-adv-x="585" 
d="M217 90h353v-90h-532v90h87v182h-70v81h70v146q0 103 62.5 158.5t147.5 55.5q83 0 146.5 -56t63.5 -158v-29h-93v29q0 61 -34.5 92.5t-82.5 31.5q-51 0 -84.5 -31t-33.5 -93v-146h217v-81h-217v-182z" />
    <glyph glyph-name="currency" unicode="&#xa4;" horiz-adv-x="549" 
d="M488 350q0 -76 -46 -133l70 -70l-34 -34l-71 70q-57 -44 -132 -44q-76 0 -133 44l-70 -70l-34 34l69 70q-46 57 -46 133t46 133l-69 70l34 34l70 -70q58 45 133 45q74 0 132 -45l71 70l34 -34l-70 -70q46 -57 46 -133zM275 222q54 0 90.5 37t36.5 91q0 55 -36.5 91.5
t-90.5 36.5q-55 0 -91 -36.5t-36 -91.5q0 -54 36.5 -91t90.5 -37z" />
    <glyph glyph-name="yen" unicode="&#xa5;" horiz-adv-x="584" 
d="M576 700l-218 -348h154v-65h-174v-55h174v-66h-174v-166h-93v166h-173v66h173v55h-173v65h154l-218 348h104l180 -291l180 291h104z" />
    <glyph glyph-name="brokenbar" unicode="&#xa6;" horiz-adv-x="237" 
d="M75 350v370h87v-370h-87zM75 -200v370h87v-370h-87z" />
    <glyph glyph-name="section" unicode="&#xa7;" horiz-adv-x="522" 
d="M474 269q0 -77 -65 -127q42 -44 42 -103q0 -69 -51.5 -110t-135.5 -41q-86 0 -140 45t-54 127h86q0 -92 108 -92q46 0 73 18t27 53q0 12 -4 23t-14 20.5t-19.5 17t-27 16.5t-29 15t-33.5 16t-34 15q-73 34 -114 72.5t-41 99.5q0 78 69 127q-39 42 -39 102
q0 67 50.5 108.5t128.5 41.5q79 0 131.5 -45.5t52.5 -127.5h-86q0 48 -28.5 70t-69.5 22q-40 0 -66 -17.5t-26 -51.5q0 -19 10 -35t31.5 -30t41 -24t51.5 -24q4 -2 6.5 -3t5.5 -2.5t6 -2.5q35 -17 58.5 -30.5t48.5 -34.5t37.5 -48t12.5 -60zM135 337q0 -34 26.5 -57
t77.5 -46q100 -44 107 -48q41 32 41 78q0 35 -27.5 58.5t-81.5 47.5q-87 38 -100 45q-43 -30 -43 -78z" />
    <glyph glyph-name="dieresis" unicode="&#xa8;" horiz-adv-x="328" 
d="M20 574v92h93v-92h-93zM215 574v92h93v-92h-93z" />
    <glyph glyph-name="copyright" unicode="&#xa9;" horiz-adv-x="799" 
d="M400 -12q-150 0 -256 106t-106 256t106 256t256 106t256 -106t106 -256t-106 -256t-256 -106zM400 18q136 0 232.5 97t96.5 235t-96.5 235t-232.5 97q-137 0 -233.5 -97t-96.5 -235t96.5 -235t233.5 -97zM403 157q-82 0 -139 56.5t-57 136.5t57 136.5t139 56.5
q68 0 120 -41t65 -105h-84q-9 32 -37.5 50t-64.5 18q-51 0 -82.5 -34t-31.5 -81t31.5 -81t82.5 -34q36 0 64.5 18t37.5 51h84q-13 -65 -64.5 -106t-120.5 -41z" />
    <glyph glyph-name="ordfeminine" unicode="&#xaa;" horiz-adv-x="278" 
d="M139 713q45 0 73 -25.5t28 -69.5v-162h-55v24q-24 -30 -73 -30q-35 0 -59.5 22t-24.5 58q0 37 24.5 58.5t59.5 21.5q46 0 73 -27v34q0 42 -46 42t-46 -32h-55q0 39 28 62.5t73 23.5zM128 495q21 0 39 9t18 26q0 18 -17.5 26.5t-39.5 8.5q-21 0 -33 -9.5t-12 -25.5
q0 -15 12 -25t33 -10z" />
    <glyph glyph-name="guillemotleft" unicode="&#xab;" horiz-adv-x="510" 
d="M272 492l-110 -183l110 -182h-94l-110 182l110 183h94zM442 492l-110 -183l110 -182h-94l-110 182l110 183h94z" />
    <glyph glyph-name="logicalnot" unicode="&#xac;" horiz-adv-x="530" 
d="M55 392h420v-83v-117h-87v117h-333v83z" />
    <glyph glyph-name="registered" unicode="&#xae;" horiz-adv-x="799" 
d="M400 712q150 0 256 -106t106 -256t-106 -256t-256 -106t-256 106t-106 256t106 256t256 106zM400 18q136 0 232.5 97t96.5 235t-96.5 235t-232.5 97q-137 0 -233.5 -97t-96.5 -235t96.5 -235t233.5 -97zM550 414q0 -81 -66 -112l103 -137h-86l-92 122h-51v-122h-77v370
h77h52q64 0 102 -35t38 -86zM358 463v-106h48q32 0 49.5 14.5t17.5 38.5q0 25 -17.5 39t-49.5 14h-48z" />
    <glyph glyph-name="macron" unicode="&#xaf;" horiz-adv-x="310" 
d="M20 575v73h270v-73h-270z" />
    <glyph glyph-name="degree" unicode="&#xb0;" horiz-adv-x="391" 
d="M196 500q-68 0 -113 45t-45 110t45 110t113 45t113 -45t45 -110t-44.5 -110t-113.5 -45zM196 575q35 0 57 23t22 57t-22 57t-57 23t-57 -23t-22 -57t22 -57t57 -23z" />
    <glyph glyph-name="plusminus" unicode="&#xb1;" horiz-adv-x="545" 
d="M314 465h174v-83h-174v-157h-83v157h-173v83h173v158h83v-158zM58 78v83h430v-83h-430z" />
    <glyph glyph-name="acute" unicode="&#xb4;" horiz-adv-x="225" 
d="M20 568h84l101 132h-105z" />
    <glyph glyph-name="uni00B5" unicode="&#xb5;" horiz-adv-x="570" 
d="M504 83h38v-83h-51q-73 0 -99 60q-49 -73 -146 -73q-53 0 -93 29v-216h-87v700h87v-321q0 -52 28.5 -80.5t75.5 -28.5q53 0 89 35.5t36 110.5v284h87v-382q0 -16 9.5 -25.5t25.5 -9.5z" />
    <glyph glyph-name="paragraph" unicode="&#xb6;" horiz-adv-x="610" 
d="M568 700v-79h-61v-821h-83v821h-101v-821h-83v490q-85 0 -145 60t-60 145t59.5 145t145.5 60h83h184h61z" />
    <glyph glyph-name="periodcentered" unicode="&#xb7;" horiz-adv-x="243" 
d="M68 295v108h107v-108h-107z" />
    <glyph glyph-name="cedilla" unicode="&#xb8;" horiz-adv-x="250" 
d="M145 -45q38 -8 61.5 -29t23.5 -51q0 -103 -210 -91v66q134 -10 134 31q0 31 -83 36v83h74v-45z" />
    <glyph glyph-name="ordmasculine" unicode="&#xba;" horiz-adv-x="319" 
d="M160 450q-56 0 -94 37.5t-38 93.5t38 94t94 38t93.5 -38t37.5 -94q0 -55 -37.5 -93t-93.5 -38zM160 504q34 0 54.5 21t20.5 56t-20.5 56t-54.5 21t-55 -21t-21 -56q0 -34 21 -55.5t55 -21.5z" />
    <glyph glyph-name="guillemotright" unicode="&#xbb;" horiz-adv-x="510" 
d="M162 492l110 -183l-110 -182h-94l110 182l-110 183h94zM332 492l110 -183l-110 -182h-94l110 182l-110 183h94z" />
    <glyph glyph-name="onequarter" unicode="&#xbc;" horiz-adv-x="819" 
d="M198 300h-77v319l-103 -56v81l103 56h77v-400zM524 700h70l-400 -700h-70zM800 143v-71h-47v-72h-76v72h-199v71l142 257h83l-140 -257h114v87h76v-87h47z" />
    <glyph glyph-name="onehalf" unicode="&#xbd;" horiz-adv-x="809" 
d="M198 300h-77v319l-103 -56v81l103 56h77v-400zM524 700h70l-400 -700h-70zM609 73h172v-73h-287v58l162 152q40 37 40 77q0 24 -16.5 38.5t-44.5 14.5q-31 0 -48 -15.5t-17 -43.5h-77q0 61 40 96.5t102 35.5q61 0 99.5 -35t38.5 -90q0 -66 -64 -125z" />
    <glyph glyph-name="threequarters" unicode="&#xbe;" horiz-adv-x="916" 
d="M319 418q0 -60 -40.5 -95t-108.5 -35t-108.5 35t-40.5 95h78q0 -27 18.5 -43t52.5 -16t53 16t19 43t-19.5 43.5t-52.5 16.5h-43v51l83 99h-172v72h264v-66l-83 -100q47 -11 73.5 -41t26.5 -75zM621 700h70l-400 -700h-70zM897 143v-71h-47v-72h-76v72h-199v71l142 257h83
l-140 -257h114v87h76v-87h47z" />
    <glyph glyph-name="questiondown" unicode="&#xbf;" horiz-adv-x="539" 
d="M339 500v-107h-107v107h107zM332 295q0 -44 -19 -82t-46 -65t-54 -51.5t-46 -54t-19 -62.5q0 -51 34 -77t90 -26q61 0 99 30.5t38 88.5h92q0 -100 -66.5 -154.5t-164.5 -54.5q-89 0 -152 50t-63 139q0 42 19 79t46 64t54 52.5t46 57t19 66.5h93z" />
    <glyph glyph-name="Agrave" unicode="&#xc0;" horiz-adv-x="638" 
d="M371 768h-84l-101 132h105zM531 0l-56 157h-312l-56 -157h-99l258 700h105l259 -700h-99zM194 244h249l-124 347z" />
    <glyph glyph-name="Aacute" unicode="&#xc1;" horiz-adv-x="638" 
d="M444 900l-101 -132h-84l80 132h105zM531 0l-56 157h-312l-56 -157h-99l258 700h105l259 -700h-99zM194 244h249l-124 347z" />
    <glyph glyph-name="Acircumflex" unicode="&#xc2;" horiz-adv-x="638" 
d="M318 846l-61 -81h-93l106 135h89h7l106 -135h-93zM531 0l-56 157h-312l-56 -157h-99l258 700h105l259 -700h-99zM194 244h249l-124 347z" />
    <glyph glyph-name="Atilde" unicode="&#xc3;" horiz-adv-x="638" 
d="M315 797q-36 30 -54 27.5t-18 -51.5h-73q0 64 23.5 96.5t58 31t72.5 -28.5q37 -30 54.5 -27.5t17.5 50.5h73q0 -64 -23 -96t-57.5 -30.5t-73.5 28.5zM531 0l-56 157h-312l-56 -157h-99l258 700h105l259 -700h-99zM194 244h249l-124 347z" />
    <glyph glyph-name="Adieresis" unicode="&#xc4;" horiz-adv-x="638" 
d="M268 866v-92h-93v92h93zM463 866v-92h-93v92h93zM531 0l-56 157h-312l-56 -157h-99l258 700h105l259 -700h-99zM194 244h249l-124 347z" />
    <glyph glyph-name="Aring" unicode="&#xc5;" horiz-adv-x="638" 
d="M319 746q-50 0 -81.5 30.5t-31.5 76.5t31.5 76t81.5 30t81.5 -30t31.5 -76t-31.5 -76.5t-81.5 -30.5zM319 898q-22 0 -34.5 -13t-12.5 -32q0 -20 12.5 -33t34.5 -13q23 0 35.5 13t12.5 33t-12.5 32.5t-35.5 12.5zM531 0l-56 157h-312l-56 -157h-99l258 700h105l259 -700
h-99zM194 244h249l-124 347z" />
    <glyph glyph-name="AE" unicode="&#xc6;" horiz-adv-x="880" 
d="M541 88h302v-88h-358h-35v157h-251l-94 -157h-105l424 700h61h56h297v-88h-297v-215h279v-87h-279v-222zM252 244h198v328z" />
    <glyph glyph-name="Ccedilla" unicode="&#xc7;" horiz-adv-x="761" 
d="M404 78q80 0 144 42t89 110h99q-27 -98 -107.5 -164t-187.5 -77v-34q38 -8 61.5 -29t23.5 -51q0 -103 -210 -91v66q134 -10 134 31q0 31 -83 36v72q-144 13 -236.5 115t-92.5 246q0 153 103.5 258t262.5 105q118 0 210.5 -68t121.5 -175h-99q-25 68 -89 110.5t-144 42.5
q-121 0 -197.5 -78t-76.5 -195q0 -116 76.5 -194t197.5 -78z" />
    <glyph glyph-name="Egrave" unicode="&#xc8;" horiz-adv-x="518" 
d="M328 768h-84l-101 132h105zM168 88h312v-88h-370h-35v700h93h307v-88h-307v-215h282v-87h-282v-222z" />
    <glyph glyph-name="Eacute" unicode="&#xc9;" horiz-adv-x="518" 
d="M401 900l-101 -132h-84l80 132h105zM168 88h312v-88h-370h-35v700h93h307v-88h-307v-215h282v-87h-282v-222z" />
    <glyph glyph-name="Ecircumflex" unicode="&#xca;" horiz-adv-x="518" 
d="M275 846l-61 -81h-93l106 135h89h7l106 -135h-93zM168 88h312v-88h-370h-35v700h93h307v-88h-307v-215h282v-87h-282v-222z" />
    <glyph glyph-name="Edieresis" unicode="&#xcb;" horiz-adv-x="518" 
d="M225 866v-92h-93v92h93zM420 866v-92h-93v92h93zM168 88h312v-88h-370h-35v700h93h307v-88h-307v-215h282v-87h-282v-222z" />
    <glyph glyph-name="Igrave" unicode="&#xcc;" horiz-adv-x="243" 
d="M174 768l-80 132h-105l101 -132h84zM75 700h93v-700h-93v700z" />
    <glyph glyph-name="Iacute" unicode="&#xcd;" horiz-adv-x="243" 
d="M61 768h84l101 132h-105zM75 700h93v-700h-93v700z" />
    <glyph glyph-name="Icircumflex" unicode="&#xce;" horiz-adv-x="243" 
d="M168 900l106 -135h-93l-61 81l-61 -81h-93l106 135h89h7zM75 0v700h93v-700h-93z" />
    <glyph glyph-name="Idieresis" unicode="&#xcf;" horiz-adv-x="243" 
d="M-23 774v92h93v-92h-93zM172 774v92h93v-92h-93zM75 700h93v-700h-93v700z" />
    <glyph glyph-name="Eth" unicode="&#xd0;" horiz-adv-x="763" 
d="M393 700q143 0 237.5 -101.5t94.5 -248.5t-94.5 -248.5t-237.5 -101.5h-258h-35v306h-72v84h72v310h93h200zM393 88q107 0 175 75t68 187t-68 187t-175 75h-200v-222h200v-84h-200v-218h200z" />
    <glyph glyph-name="Ntilde" unicode="&#xd1;" horiz-adv-x="635" 
d="M169 773q0 64 23.5 96.5t58 31t72.5 -28.5q37 -30 54.5 -27.5t17.5 50.5h73q0 -64 -23 -96t-57.5 -30.5t-73.5 28.5q-36 30 -54 27.5t-18 -51.5h-73zM468 700h92v-700h-75l-317 518v-518h-93v700h75l318 -517v517z" />
    <glyph glyph-name="Ograve" unicode="&#xd2;" horiz-adv-x="800" 
d="M453 771l-80 132h-105l101 -132h84zM400 -13q-152 0 -257 106t-105 257q0 152 105 257.5t257 105.5t257.5 -105.5t105.5 -257.5q0 -151 -105.5 -257t-257.5 -106zM400 78q115 0 192.5 78.5t77.5 193.5q0 116 -77.5 194.5t-192.5 78.5t-192.5 -78.5t-77.5 -194.5
q0 -115 77.5 -193.5t192.5 -78.5z" />
    <glyph glyph-name="Oacute" unicode="&#xd3;" horiz-adv-x="800" 
d="M340 771h84l101 132h-105zM400 -13q-152 0 -257 106t-105 257q0 152 105 257.5t257 105.5t257.5 -105.5t105.5 -257.5q0 -151 -105.5 -257t-257.5 -106zM400 78q115 0 192.5 78.5t77.5 193.5q0 116 -77.5 194.5t-192.5 78.5t-192.5 -78.5t-77.5 -194.5
q0 -115 77.5 -193.5t192.5 -78.5z" />
    <glyph glyph-name="Ocircumflex" unicode="&#xd4;" horiz-adv-x="800" 
d="M399 849l-61 -81h-93l106 135h89h7l106 -135h-93zM400 713q152 0 257.5 -105.5t105.5 -257.5q0 -151 -105.5 -257t-257.5 -106t-257 106t-105 257q0 152 105 257.5t257 105.5zM400 78q115 0 192.5 78.5t77.5 193.5q0 116 -77.5 194.5t-192.5 78.5t-192.5 -78.5
t-77.5 -194.5q0 -115 77.5 -193.5t192.5 -78.5z" />
    <glyph glyph-name="Otilde" unicode="&#xd5;" horiz-adv-x="800" 
d="M251 776q0 64 23.5 96.5t58 31t72.5 -28.5q37 -30 54.5 -27.5t17.5 50.5h73q0 -64 -23 -96t-57.5 -30.5t-73.5 28.5q-36 30 -54 27.5t-18 -51.5h-73zM400 -13q-152 0 -257 106t-105 257q0 152 105 257.5t257 105.5t257.5 -105.5t105.5 -257.5q0 -151 -105.5 -257
t-257.5 -106zM400 78q115 0 192.5 78.5t77.5 193.5q0 116 -77.5 194.5t-192.5 78.5t-192.5 -78.5t-77.5 -194.5q0 -115 77.5 -193.5t192.5 -78.5z" />
    <glyph glyph-name="Odieresis" unicode="&#xd6;" horiz-adv-x="800" 
d="M256 777v92h93v-92h-93zM451 777v92h93v-92h-93zM400 -13q-152 0 -257 106t-105 257q0 152 105 257.5t257 105.5t257.5 -105.5t105.5 -257.5q0 -151 -105.5 -257t-257.5 -106zM400 78q115 0 192.5 78.5t77.5 193.5q0 116 -77.5 194.5t-192.5 78.5t-192.5 -78.5
t-77.5 -194.5q0 -115 77.5 -193.5t192.5 -78.5z" />
    <glyph glyph-name="multiply" unicode="&#xd7;" horiz-adv-x="485" 
d="M435 485l-135 -135l135 -135l-59 -56l-134 134l-133 -134l-59 56l135 135l-135 135l59 56l133 -134l134 134z" />
    <glyph glyph-name="Oslash" unicode="&#xd8;" horiz-adv-x="809" 
d="M664 609q107 -107 107 -259q0 -151 -105 -257t-257 -106q-116 0 -212 67l-45 -54h-80l79 94q-105 105 -105 256q0 152 105.5 257.5t257.5 105.5q116 0 208 -65l44 52h80zM139 350q0 -110 71 -186l349 415q-66 44 -150 44q-115 0 -192.5 -78.5t-77.5 -194.5zM409 78
q115 0 192.5 78.5t77.5 193.5q0 112 -73 190l-350 -416q68 -46 153 -46z" />
    <glyph glyph-name="Ugrave" unicode="&#xd9;" horiz-adv-x="620" 
d="M363 768l-80 132h-105l101 -132h84zM310 -13q-106 0 -175.5 59t-69.5 164v490h93v-486q0 -66 40 -101t112 -35t112.5 35t40.5 101v486h92v-490q0 -105 -69.5 -164t-175.5 -59z" />
    <glyph glyph-name="Uacute" unicode="&#xda;" horiz-adv-x="620" 
d="M250 768h84l101 132h-105zM310 -13q-106 0 -175.5 59t-69.5 164v490h93v-486q0 -66 40 -101t112 -35t112.5 35t40.5 101v486h92v-490q0 -105 -69.5 -164t-175.5 -59z" />
    <glyph glyph-name="Ucircumflex" unicode="&#xdb;" horiz-adv-x="620" 
d="M309 846l-61 -81h-93l106 135h89h7l106 -135h-93zM463 700h92v-490q0 -105 -69.5 -164t-175.5 -59t-175.5 59t-69.5 164v490h93v-486q0 -66 40 -101t112 -35t112.5 35t40.5 101v486z" />
    <glyph glyph-name="Udieresis" unicode="&#xdc;" horiz-adv-x="620" 
d="M166 774v92h93v-92h-93zM361 774v92h93v-92h-93zM310 -13q-106 0 -175.5 59t-69.5 164v490h93v-486q0 -66 40 -101t112 -35t112.5 35t40.5 101v486h92v-490q0 -105 -69.5 -164t-175.5 -59z" />
    <glyph glyph-name="Yacute" unicode="&#xdd;" horiz-adv-x="584" 
d="M414 900l-101 -132h-84l80 132h105zM576 700l-238 -380v-320h-93v322l-237 378h104l180 -291l180 291h104z" />
    <glyph glyph-name="Thorn" unicode="&#xde;" horiz-adv-x="583" 
d="M330 568q90 0 154 -64t64 -154q0 -89 -64 -153t-154 -64h-162v-133h-93v700h93v-132h162zM330 220q52 0 88.5 38t36.5 92q0 55 -36.5 93t-88.5 38h-162v-261h162z" />
    <glyph glyph-name="germandbls" unicode="&#xdf;" horiz-adv-x="502" 
d="M276 -4v78q121 -10 121 76q0 29 -21 62.5t-46.5 58.5t-46.5 57t-21 59q0 24 20 51.5t40.5 57.5t20.5 61q0 37 -24.5 55.5t-62.5 18.5q-43 0 -73 -24.5t-30 -83.5v-523h-87v523q0 90 53.5 140t138.5 50q79 0 125.5 -41.5t46.5 -107.5q0 -40 -21 -74.5t-41.5 -59.5
t-20.5 -41q0 -21 21.5 -48.5t47 -52t47 -64.5t21.5 -82q0 -72 -53.5 -113.5t-154.5 -32.5z" />
    <glyph glyph-name="agrave" unicode="&#xe0;" horiz-adv-x="502" 
d="M307 571h-84l-101 132h105zM253 513q86 0 140.5 -51t54.5 -139v-323h-86v52q-49 -65 -149 -65q-73 0 -124 42t-51 118t51 118t124 42q97 0 149 -58v71q0 56 -30.5 83t-78.5 27q-46 0 -77 -23.5t-31 -66.5h-86q0 77 55 125t139 48zM238 61q55 0 89.5 24t34.5 62
q0 40 -34.5 63.5t-89.5 23.5q-56 0 -84.5 -24t-28.5 -63t28.5 -62.5t84.5 -23.5z" />
    <glyph glyph-name="aacute" unicode="&#xe1;" horiz-adv-x="502" 
d="M380 703l-101 -132h-84l80 132h105zM253 513q86 0 140.5 -51t54.5 -139v-323h-86v52q-49 -65 -149 -65q-73 0 -124 42t-51 118t51 118t124 42q97 0 149 -58v71q0 56 -30.5 83t-78.5 27q-46 0 -77 -23.5t-31 -66.5h-86q0 77 55 125t139 48zM238 61q55 0 89.5 24t34.5 62
q0 40 -34.5 63.5t-89.5 23.5q-56 0 -84.5 -24t-28.5 -63t28.5 -62.5t84.5 -23.5z" />
    <glyph glyph-name="acircumflex" unicode="&#xe2;" horiz-adv-x="502" 
d="M254 649l-61 -81h-93l106 135h89h7l106 -135h-93zM253 513q86 0 140.5 -51t54.5 -139v-323h-86v52q-49 -65 -149 -65q-73 0 -124 42t-51 118t51 118t124 42q97 0 149 -58v71q0 56 -30.5 83t-78.5 27q-46 0 -77 -23.5t-31 -66.5h-86q0 77 55 125t139 48zM238 61
q55 0 89.5 24t34.5 62q0 40 -34.5 63.5t-89.5 23.5q-56 0 -84.5 -24t-28.5 -63t28.5 -62.5t84.5 -23.5z" />
    <glyph glyph-name="atilde" unicode="&#xe3;" horiz-adv-x="502" 
d="M251 600q-36 30 -54 27.5t-18 -51.5h-73q0 64 23.5 96.5t58 31t72.5 -28.5q37 -30 54.5 -27.5t17.5 50.5h73q0 -64 -23 -96t-57.5 -30.5t-73.5 28.5zM253 513q86 0 140.5 -51t54.5 -139v-323h-86v52q-49 -65 -149 -65q-73 0 -124 42t-51 118t51 118t124 42q97 0 149 -58
v71q0 56 -30.5 83t-78.5 27q-46 0 -77 -23.5t-31 -66.5h-86q0 77 55 125t139 48zM238 61q55 0 89.5 24t34.5 62q0 40 -34.5 63.5t-89.5 23.5q-56 0 -84.5 -24t-28.5 -63t28.5 -62.5t84.5 -23.5z" />
    <glyph glyph-name="adieresis" unicode="&#xe4;" horiz-adv-x="502" 
d="M204 669v-92h-93v92h93zM399 669v-92h-93v92h93zM253 513q86 0 140.5 -51t54.5 -139v-323h-86v52q-49 -65 -149 -65q-73 0 -124 42t-51 118t51 118t124 42q97 0 149 -58v71q0 56 -30.5 83t-78.5 27q-46 0 -77 -23.5t-31 -66.5h-86q0 77 55 125t139 48zM238 61
q55 0 89.5 24t34.5 62q0 40 -34.5 63.5t-89.5 23.5q-56 0 -84.5 -24t-28.5 -63t28.5 -62.5t84.5 -23.5z" />
    <glyph glyph-name="aring" unicode="&#xe5;" horiz-adv-x="502" 
d="M255 549q-50 0 -81.5 30.5t-31.5 76.5t31.5 76t81.5 30t81.5 -30t31.5 -76t-31.5 -76.5t-81.5 -30.5zM255 701q-22 0 -34.5 -13t-12.5 -32q0 -20 12.5 -33t34.5 -13q23 0 35.5 13t12.5 33t-12.5 32.5t-35.5 12.5zM253 513q86 0 140.5 -51t54.5 -139v-323h-86v52
q-49 -65 -149 -65q-73 0 -124 42t-51 118t51 118t124 42q97 0 149 -58v71q0 56 -30.5 83t-78.5 27q-46 0 -77 -23.5t-31 -66.5h-86q0 77 55 125t139 48zM238 61q55 0 89.5 24t34.5 62q0 40 -34.5 63.5t-89.5 23.5q-56 0 -84.5 -24t-28.5 -63t28.5 -62.5t84.5 -23.5z" />
    <glyph glyph-name="ae" unicode="&#xe6;" horiz-adv-x="838" 
d="M451 210q8 -69 45 -106.5t98 -37.5q42 0 69.5 20t37.5 53h91q-14 -68 -67 -109.5t-128 -41.5q-124 0 -178 96q-22 -46 -70 -71.5t-115 -25.5q-86 0 -141 42t-55 118t51 118t124 42q93 0 149 -51v64l24 1l-24 -1q0 56 -30.5 83t-78.5 27q-46 0 -77 -23.5t-31 -66.5h-86
q0 76 54 124.5t135 48.5q59 0 104 -25.5t68 -72.5q59 98 174 98q102 0 158.5 -76t56.5 -188q0 -19 -3 -39h-355zM450 287h272q-6 71 -41 107.5t-88 36.5q-63 0 -99 -38.5t-44 -105.5zM241 61q56 0 88.5 24t32.5 62q0 40 -34.5 63.5t-89.5 23.5q-56 0 -84.5 -24t-28.5 -63
t30.5 -62.5t85.5 -23.5z" />
    <glyph glyph-name="ccedilla" unicode="&#xe7;" horiz-adv-x="571" 
d="M301 73q52 0 93 26t58 69h92q-17 -71 -73.5 -119t-132.5 -59v-35q38 -8 61.5 -29t23.5 -51q0 -103 -210 -91v66q134 -10 134 31q0 31 -83 36v73q-99 13 -162.5 85.5t-63.5 174.5q0 112 75 187.5t188 75.5q88 0 155.5 -50t87.5 -130h-92q-17 43 -58 69t-93 26
q-74 0 -125 -51t-51 -127q0 -75 51 -126t125 -51z" />
    <glyph glyph-name="egrave" unicode="&#xe8;" horiz-adv-x="571" 
d="M349 569h-84l-101 132h105zM127 210q11 -68 57.5 -106t114.5 -38q46 0 82.5 20.5t52.5 52.5h91q-22 -69 -83 -110.5t-144 -41.5q-116 0 -188 74.5t-72 188.5q0 113 72 188t187 75q110 0 177.5 -77.5t67.5 -186.5q0 -19 -3 -39h-412zM127 287h326q-9 70 -53 107t-104 37
q-69 0 -113.5 -39t-55.5 -105z" />
    <glyph glyph-name="eacute" unicode="&#xe9;" horiz-adv-x="571" 
d="M421 701l-101 -132h-84l80 132h105zM127 210q11 -68 57.5 -106t114.5 -38q46 0 82.5 20.5t52.5 52.5h91q-22 -69 -83 -110.5t-144 -41.5q-116 0 -188 74.5t-72 188.5q0 113 72 188t187 75q110 0 177.5 -77.5t67.5 -186.5q0 -19 -3 -39h-412zM127 287h326q-9 70 -53 107
t-104 37q-69 0 -113.5 -39t-55.5 -105z" />
    <glyph glyph-name="ecircumflex" unicode="&#xea;" horiz-adv-x="571" 
d="M295 647l-61 -81h-93l106 135h89h7l106 -135h-93zM127 210q11 -68 57.5 -106t114.5 -38q46 0 82.5 20.5t52.5 52.5h91q-22 -69 -83 -110.5t-144 -41.5q-116 0 -188 74.5t-72 188.5q0 113 72 188t187 75q110 0 177.5 -77.5t67.5 -186.5q0 -19 -3 -39h-412zM127 287h326
q-9 70 -53 107t-104 37q-69 0 -113.5 -39t-55.5 -105z" />
    <glyph glyph-name="edieresis" unicode="&#xeb;" horiz-adv-x="571" 
d="M246 667v-92h-93v92h93zM441 667v-92h-93v92h93zM127 210q11 -68 57.5 -106t114.5 -38q46 0 82.5 20.5t52.5 52.5h91q-22 -69 -83 -110.5t-144 -41.5q-116 0 -188 74.5t-72 188.5q0 113 72 188t187 75q110 0 177.5 -77.5t67.5 -186.5q0 -19 -3 -39h-412zM127 287h326
q-9 70 -53 107t-104 37q-69 0 -113.5 -39t-55.5 -105z" />
    <glyph glyph-name="igrave" unicode="&#xec;" horiz-adv-x="220" 
d="M151 565l-48 135h-102l66 -135h84zM153 0h-87v500h87v-500z" />
    <glyph glyph-name="iacute" unicode="&#xed;" horiz-adv-x="220" 
d="M69 565h84l66 135h-103zM66 0v500h87v-500h-87z" />
    <glyph glyph-name="icircumflex" unicode="&#xee;" horiz-adv-x="220" 
d="M158 700l88 -135h-92l-44 69l-44 -69h-93l89 135h89h7zM66 0v500h87v-500h-87z" />
    <glyph glyph-name="idieresis" unicode="&#xef;" horiz-adv-x="220" 
d="M-12 574v92h93v-92h-93zM139 574v92h92v-92h-92zM66 0v500h87v-500h-87z" />
    <glyph glyph-name="eth" unicode="&#xf0;" horiz-adv-x="581" 
d="M498 370q46 -65 46 -140q0 -108 -74.5 -175t-178.5 -67t-178.5 67t-74.5 175q0 105 76.5 172t178.5 59q14 -1 38 -5l-75 101l-118 -66v70l82 46l-69 93h101l39 -53l114 66v-70l-78 -45zM291 71q69 0 117.5 43.5t48.5 115.5q0 56 -27 92q-48 63 -138 63q-73 0 -120 -42.5
t-47 -112.5q0 -72 48 -115.5t118 -43.5z" />
    <glyph glyph-name="ntilde" unicode="&#xf1;" 
d="M263 600q-36 30 -54 27.5t-18 -51.5h-73q0 64 23.5 96.5t58 31t72.5 -28.5q37 -30 54.5 -27.5t17.5 50.5h73q0 -64 -23 -96t-57.5 -30.5t-73.5 28.5zM301 513q72 0 120 -51t48 -137v-325h-87v321q0 52 -28.5 80.5t-75.5 28.5q-52 0 -88.5 -35.5t-36.5 -109.5v-285h-87
v500h87v-62q49 75 148 75z" />
    <glyph glyph-name="ograve" unicode="&#xf2;" horiz-adv-x="602" 
d="M354 571l-80 132h-105l101 -132h84zM301 -13q-110 0 -186.5 76t-76.5 187t76.5 187t186.5 76t187 -76t77 -187t-77 -187t-187 -76zM301 72q75 0 126 51t51 127t-51 127t-126 51q-74 0 -125 -51t-51 -127t51 -127t125 -51z" />
    <glyph glyph-name="oacute" unicode="&#xf3;" horiz-adv-x="602" 
d="M241 571h84l101 132h-105zM301 -13q-110 0 -186.5 76t-76.5 187t76.5 187t186.5 76t187 -76t77 -187t-77 -187t-187 -76zM301 72q75 0 126 51t51 127t-51 127t-126 51q-74 0 -125 -51t-51 -127t51 -127t125 -51z" />
    <glyph glyph-name="ocircumflex" unicode="&#xf4;" horiz-adv-x="602" 
d="M300 649l-61 -81h-93l106 135h89h7l106 -135h-93zM301 513q110 0 187 -76t77 -187t-77 -187t-187 -76t-186.5 76t-76.5 187t76.5 187t186.5 76zM301 72q75 0 126 51t51 127t-51 127t-126 51q-74 0 -125 -51t-51 -127t51 -127t125 -51z" />
    <glyph glyph-name="otilde" unicode="&#xf5;" horiz-adv-x="602" 
d="M152 576q0 64 23.5 96.5t58 31t72.5 -28.5q37 -30 54.5 -27.5t17.5 50.5h73q0 -64 -23 -96t-57.5 -30.5t-73.5 28.5q-36 30 -54 27.5t-18 -51.5h-73zM301 -13q-110 0 -186.5 76t-76.5 187t76.5 187t186.5 76t187 -76t77 -187t-77 -187t-187 -76zM301 72q75 0 126 51
t51 127t-51 127t-126 51q-74 0 -125 -51t-51 -127t51 -127t125 -51z" />
    <glyph glyph-name="odieresis" unicode="&#xf6;" horiz-adv-x="602" 
d="M157 577v92h93v-92h-93zM352 577v92h93v-92h-93zM301 -13q-110 0 -186.5 76t-76.5 187t76.5 187t186.5 76t187 -76t77 -187t-77 -187t-187 -76zM301 72q75 0 126 51t51 127t-51 127t-126 51q-74 0 -125 -51t-51 -127t51 -127t125 -51z" />
    <glyph glyph-name="divide" unicode="&#xf7;" horiz-adv-x="575" 
d="M288 476q-27 0 -45.5 18.5t-18.5 45.5t18.5 45t45.5 18t45 -18t18 -45t-18 -45.5t-45 -18.5zM55 309v83h465v-83h-465zM288 97q-27 0 -45.5 18.5t-18.5 45.5t18.5 45t45.5 18t45 -18t18 -45t-18 -45.5t-45 -18.5z" />
    <glyph glyph-name="oslash" unicode="&#xf8;" horiz-adv-x="602" 
d="M489 436q76 -76 76 -186q0 -111 -77 -187t-187 -76q-84 0 -151 47l-28 -34h-68l57 67q-73 75 -73 183q0 111 76.5 187t186.5 76q81 0 148 -45l27 32h67zM125 250q0 -68 41 -117l228 270q-42 25 -93 25q-74 0 -125 -51t-51 -127zM301 72q75 0 126 51t51 127q0 70 -45 120
l-228 -271q44 -27 96 -27z" />
    <glyph glyph-name="ugrave" unicode="&#xf9;" 
d="M310 568h-84l-101 132h105zM370 500h87v-500h-87v62q-49 -75 -148 -75q-72 0 -120 51.5t-48 137.5v324h87v-321q0 -52 28.5 -80.5t75.5 -28.5q53 0 89 35.5t36 110.5v284z" />
    <glyph glyph-name="uacute" unicode="&#xfa;" 
d="M382 700l-101 -132h-84l80 132h105zM370 500h87v-500h-87v62q-49 -75 -148 -75q-72 0 -120 51.5t-48 137.5v324h87v-321q0 -52 28.5 -80.5t75.5 -28.5q53 0 89 35.5t36 110.5v284z" />
    <glyph glyph-name="ucircumflex" unicode="&#xfb;" 
d="M256 646l-61 -81h-93l106 135h89h7l106 -135h-93zM370 500h87v-500h-87v62q-49 -75 -148 -75q-72 0 -120 51.5t-48 137.5v324h87v-321q0 -52 28.5 -80.5t75.5 -28.5q53 0 89 35.5t36 110.5v284z" />
    <glyph glyph-name="udieresis" unicode="&#xfc;" 
d="M206 666v-92h-93v92h93zM401 666v-92h-93v92h93zM370 500h87v-500h-87v62q-49 -75 -148 -75q-72 0 -120 51.5t-48 137.5v324h87v-321q0 -52 28.5 -80.5t75.5 -28.5q53 0 89 35.5t36 110.5v284z" />
    <glyph glyph-name="yacute" unicode="&#xfd;" horiz-adv-x="480" 
d="M180 568h84l101 132h-105zM380 500h93l-245 -700h-93l72 205l-199 495h92l150 -374z" />
    <glyph glyph-name="thorn" unicode="&#xfe;" horiz-adv-x="633" 
d="M342 513q105 0 179 -76.5t74 -186.5t-74 -186.5t-179 -76.5q-124 0 -189 98v-285h-87v900h87v-285q65 98 189 98zM331 71q75 0 126 51.5t51 127.5t-51 127.5t-126 51.5q-76 0 -127 -51.5t-51 -127.5t51 -127.5t127 -51.5z" />
    <glyph glyph-name="ydieresis" unicode="&#xff;" horiz-adv-x="480" 
d="M96 574v92h93v-92h-93zM291 574v92h93v-92h-93zM380 500h93l-245 -700h-93l72 205l-199 495h92l150 -374z" />
    <glyph glyph-name="Amacron" unicode="&#x100;" horiz-adv-x="638" 
d="M454 848v-73h-270v73h270zM531 0l-56 157h-312l-56 -157h-99l258 700h105l259 -700h-99zM194 244h249l-124 347z" />
    <glyph glyph-name="amacron" unicode="&#x101;" horiz-adv-x="502" 
d="M390 651v-73h-270v73h270zM253 513q86 0 140.5 -51t54.5 -139v-323h-86v52q-49 -65 -149 -65q-73 0 -124 42t-51 118t51 118t124 42q97 0 149 -58v71q0 56 -30.5 83t-78.5 27q-46 0 -77 -23.5t-31 -66.5h-86q0 77 55 125t139 48zM238 61q55 0 89.5 24t34.5 62
q0 40 -34.5 63.5t-89.5 23.5q-56 0 -84.5 -24t-28.5 -63t28.5 -62.5t84.5 -23.5z" />
    <glyph glyph-name="Abreve" unicode="&#x102;" horiz-adv-x="638" 
d="M319 757q-69 0 -109 35.5t-40 99.5h81q0 -65 68 -65t68 65h81q0 -64 -39.5 -99.5t-109.5 -35.5zM531 0l-56 157h-312l-56 -157h-99l258 700h105l259 -700h-99zM194 244h249l-124 347z" />
    <glyph glyph-name="abreve" unicode="&#x103;" horiz-adv-x="502" 
d="M255 560q-69 0 -109 35.5t-40 99.5h81q0 -65 68 -65t68 65h81q0 -64 -39.5 -99.5t-109.5 -35.5zM253 513q86 0 140.5 -51t54.5 -139v-323h-86v52q-49 -65 -149 -65q-73 0 -124 42t-51 118t51 118t124 42q97 0 149 -58v71q0 56 -30.5 83t-78.5 27q-46 0 -77 -23.5
t-31 -66.5h-86q0 77 55 125t139 48zM238 61q55 0 89.5 24t34.5 62q0 40 -34.5 63.5t-89.5 23.5q-56 0 -84.5 -24t-28.5 -63t28.5 -62.5t84.5 -23.5z" />
    <glyph glyph-name="Aogonek" unicode="&#x104;" horiz-adv-x="638" 
d="M593 -144q20 0 37 8v-64q-31 -13 -66 -13q-40 0 -63.5 21.5t-23.5 58.5q0 61 70 133h-16l-56 157h-312l-56 -157h-99l258 700h105l259 -700q-68 -65 -68 -114q0 -30 31 -30zM194 244h249l-124 347z" />
    <glyph glyph-name="aogonek" unicode="&#x105;" horiz-adv-x="502" 
d="M448 0q-69 -66 -69 -114q0 -30 31 -30q21 0 38 8v-64q-32 -13 -67 -13q-40 0 -63 21.5t-23 58.5q0 60 67 136v49q-49 -65 -149 -65q-73 0 -124 42t-51 118t51 118t124 42q97 0 149 -58v71q0 56 -30.5 83t-78.5 27q-46 0 -77 -23.5t-31 -66.5h-86q0 77 55 125t139 48
q86 0 140.5 -51t54.5 -139v-323zM238 61q55 0 89.5 24t34.5 62q0 40 -34.5 63.5t-89.5 23.5q-56 0 -84.5 -24t-28.5 -63t28.5 -62.5t84.5 -23.5z" />
    <glyph glyph-name="Cacute" unicode="&#x106;" horiz-adv-x="761" 
d="M344 771h84l101 132h-105zM404 -13q-159 0 -262.5 105t-103.5 258t103.5 258t262.5 105q118 0 210.5 -68t121.5 -175h-99q-25 68 -89 110.5t-144 42.5q-121 0 -197.5 -78t-76.5 -195q0 -116 76.5 -194t197.5 -78q80 0 144 42t89 110h99q-29 -107 -121.5 -175t-210.5 -68z
" />
    <glyph glyph-name="cacute" unicode="&#x107;" horiz-adv-x="571" 
d="M233 568h84l101 132h-105zM544 168q-20 -80 -87.5 -130.5t-155.5 -50.5q-113 0 -188 75.5t-75 187.5t75 187.5t188 75.5q88 0 155.5 -50t87.5 -130h-92q-17 43 -58 69t-93 26q-74 0 -125 -51t-51 -127q0 -75 51 -126t125 -51q52 0 93 26t58 69h92z" />
    <glyph glyph-name="Cdotaccent" unicode="&#x10a;" horiz-adv-x="761" 
d="M351 776v105h105v-105h-105zM404 -13q-159 0 -262.5 105t-103.5 258t103.5 258t262.5 105q118 0 210.5 -68t121.5 -175h-99q-25 68 -89 110.5t-144 42.5q-121 0 -197.5 -78t-76.5 -195q0 -116 76.5 -194t197.5 -78q80 0 144 42t89 110h99q-29 -107 -121.5 -175
t-210.5 -68z" />
    <glyph glyph-name="cdotaccent" unicode="&#x10b;" horiz-adv-x="571" 
d="M241 573v105h105v-105h-105zM544 168q-20 -80 -87.5 -130.5t-155.5 -50.5q-113 0 -188 75.5t-75 187.5t75 187.5t188 75.5q88 0 155.5 -50t87.5 -130h-92q-17 43 -58 69t-93 26q-74 0 -125 -51t-51 -127q0 -75 51 -126t125 -51q52 0 93 26t58 69h92z" />
    <glyph glyph-name="Ccaron" unicode="&#x10c;" horiz-adv-x="761" 
d="M355 768l-106 135h93l61 -81l61 81h93l-106 -135h-96zM404 78q80 0 144 42t89 110h99q-29 -107 -121.5 -175t-210.5 -68q-159 0 -262.5 105t-103.5 258t103.5 258t262.5 105q118 0 210.5 -68t121.5 -175h-99q-25 68 -89 110.5t-144 42.5q-121 0 -197.5 -78t-76.5 -195
q0 -116 76.5 -194t197.5 -78z" />
    <glyph glyph-name="ccaron" unicode="&#x10d;" horiz-adv-x="571" 
d="M244 565l-106 135h93l61 -81l61 81h93l-106 -135h-96zM301 73q52 0 93 26t58 69h92q-20 -80 -87.5 -130.5t-155.5 -50.5q-113 0 -188 75.5t-75 187.5t75 187.5t188 75.5q88 0 155.5 -50t87.5 -130h-92q-17 43 -58 69t-93 26q-74 0 -125 -51t-51 -127q0 -75 51 -126
t125 -51z" />
    <glyph glyph-name="Dcaron" unicode="&#x10e;" horiz-adv-x="738" 
d="M296 765l-106 135h93l61 -81l61 81h93l-106 -135h-96zM368 700q143 0 237.5 -101.5t94.5 -248.5t-94.5 -248.5t-237.5 -101.5h-258h-35v700h93h200zM368 88q107 0 175 75t68 187t-68 187t-175 75h-200v-524h200z" />
    <glyph glyph-name="dcaron" unicode="&#x10f;" horiz-adv-x="713" 
d="M480 415v285h87v-700h-87v85q-65 -98 -189 -98q-104 0 -178.5 76.5t-74.5 186.5t74.5 186.5t178.5 76.5q124 0 189 -98zM639 700h84l-30 -180h-64zM302 71q76 0 127 51.5t51 127.5t-51 127.5t-127 51.5q-75 0 -126 -51.5t-51 -127.5t51 -127.5t126 -51.5z" />
    <glyph glyph-name="Dcroat" unicode="&#x110;" horiz-adv-x="763" 
d="M393 700q143 0 237.5 -101.5t94.5 -248.5t-94.5 -248.5t-237.5 -101.5h-258h-35v306h-72v84h72v310h93h200zM393 88q107 0 175 75t68 187t-68 187t-175 75h-200v-222h200v-84h-200v-218h200z" />
    <glyph glyph-name="dcroat" unicode="&#x111;" horiz-adv-x="642" 
d="M634 633v-64h-67v-569h-87v85q-65 -98 -189 -98q-105 0 -179 76.5t-74 186.5t74 186.5t179 76.5q124 0 189 -98v154h-173v64h173v67h87v-67h67zM302 71q76 0 127 51.5t51 127.5t-51 127.5t-127 51.5q-75 0 -126 -51.5t-51 -127.5t51 -127.5t126 -51.5z" />
    <glyph glyph-name="Emacron" unicode="&#x112;" horiz-adv-x="518" 
d="M411 848v-73h-270v73h270zM168 88h312v-88h-370h-35v700h93h307v-88h-307v-215h282v-87h-282v-222z" />
    <glyph glyph-name="emacron" unicode="&#x113;" horiz-adv-x="571" 
d="M431 649v-73h-270v73h270zM127 210q11 -68 57.5 -106t114.5 -38q46 0 82.5 20.5t52.5 52.5h91q-22 -69 -83 -110.5t-144 -41.5q-116 0 -188 74.5t-72 188.5q0 113 72 188t187 75q110 0 177.5 -77.5t67.5 -186.5q0 -19 -3 -39h-412zM127 287h326q-9 70 -53 107t-104 37
q-69 0 -113.5 -39t-55.5 -105z" />
    <glyph glyph-name="Edotaccent" unicode="&#x116;" horiz-adv-x="518" 
d="M328 878v-105h-105v105h105zM168 88h312v-88h-370h-35v700h93h307v-88h-307v-215h282v-87h-282v-222z" />
    <glyph glyph-name="edotaccent" unicode="&#x117;" horiz-adv-x="571" 
d="M349 679v-105h-105v105h105zM127 210q11 -68 57.5 -106t114.5 -38q46 0 82.5 20.5t52.5 52.5h91q-22 -69 -83 -110.5t-144 -41.5q-116 0 -188 74.5t-72 188.5q0 113 72 188t187 75q110 0 177.5 -77.5t67.5 -186.5q0 -19 -3 -39h-412zM127 287h326q-9 70 -53 107t-104 37
q-69 0 -113.5 -39t-55.5 -105z" />
    <glyph glyph-name="Eogonek" unicode="&#x118;" horiz-adv-x="518" 
d="M480 0q-68 -65 -68 -114q-1 -15 7 -22.5t24 -7.5q20 0 37 8v-64q-32 -13 -66 -13q-41 0 -64 21.5t-23 58.5q0 63 70 133h-287h-35v700h93h307v-88h-307v-215h282v-87h-282v-222h312v-88z" />
    <glyph glyph-name="eogonek" unicode="&#x119;" horiz-adv-x="571" 
d="M127 210q11 -68 57.5 -106t114.5 -38q46 0 82.5 20.5t52.5 52.5h91q-21 -64 -75 -104q-88 -98 -88 -149q0 -30 31 -30q21 0 37 8v-64q-31 -13 -66 -13q-40 0 -63 21.5t-23 58.5q0 61 62 124q-28 -4 -42 -4q-116 0 -188 74.5t-72 188.5q0 113 72 188t187 75
q110 0 177.5 -77.5t67.5 -186.5q0 -19 -3 -39h-412zM127 287h326q-9 70 -53 107t-104 37q-69 0 -113.5 -39t-55.5 -105z" />
    <glyph glyph-name="Ecaron" unicode="&#x11a;" horiz-adv-x="518" 
d="M227 765l-106 135h93l61 -81l61 81h93l-106 -135h-96zM168 88h312v-88h-370h-35v700h93h307v-88h-307v-215h282v-87h-282v-222z" />
    <glyph glyph-name="ecaron" unicode="&#x11b;" horiz-adv-x="571" 
d="M247 566l-106 135h93l61 -81l61 81h93l-106 -135h-96zM127 210q11 -68 57.5 -106t114.5 -38q46 0 82.5 20.5t52.5 52.5h91q-22 -69 -83 -110.5t-144 -41.5q-116 0 -188 74.5t-72 188.5q0 113 72 188t187 75q110 0 177.5 -77.5t67.5 -186.5q0 -19 -3 -39h-412zM127 287
h326q-9 70 -53 107t-104 37q-69 0 -113.5 -39t-55.5 -105z" />
    <glyph glyph-name="Gbreve" unicode="&#x11e;" horiz-adv-x="792" 
d="M393 760q-69 0 -109 35.5t-40 99.5h81q0 -65 68 -65t68 65h81q0 -64 -39.5 -99.5t-109.5 -35.5zM414 276v85h318v-85v-276h-90v101q-38 -56 -103 -85t-144 -29q-153 0 -255 105.5t-102 257.5q0 153 103 258t259 105q117 0 209.5 -67t122.5 -171h-99q-25 65 -89.5 106.5
t-143.5 41.5q-119 0 -194.5 -78t-75.5 -195q0 -118 76 -196.5t194 -78.5q99 0 167.5 51t72.5 142h2v8h-228z" />
    <glyph glyph-name="gbreve" unicode="&#x11f;" horiz-adv-x="632" 
d="M305 560q-69 0 -109 35.5t-40 99.5h81q0 -65 68 -65t68 65h81q0 -64 -39.5 -99.5t-109.5 -35.5zM481 500h86v-479q0 -111 -74 -172.5t-179 -61.5q-96 0 -169 54.5t-73 137.5h87q0 -41 42.5 -76t112.5 -35q80 0 123.5 41t43.5 112v70q-66 -99 -190 -99q-105 0 -179 76
t-74 185q0 108 74 184t179 76q124 0 190 -99v86zM303 75q76 0 127 51t51 127q0 75 -51 126t-127 51t-127 -51t-51 -126q0 -76 51 -127t127 -51z" />
    <glyph glyph-name="Gdotaccent" unicode="&#x120;" horiz-adv-x="792" 
d="M445 881v-105h-105v105h105zM414 276v85h318v-85v-276h-90v101q-38 -56 -103 -85t-144 -29q-153 0 -255 105.5t-102 257.5q0 153 103 258t259 105q117 0 209.5 -67t122.5 -171h-99q-25 65 -89.5 106.5t-143.5 41.5q-119 0 -194.5 -78t-75.5 -195q0 -118 76 -196.5
t194 -78.5q99 0 167.5 51t72.5 142h2v8h-228z" />
    <glyph glyph-name="gdotaccent" unicode="&#x121;" horiz-adv-x="632" 
d="M357 681v-105h-105v105h105zM481 500h86v-479q0 -111 -74 -172.5t-179 -61.5q-96 0 -169 54.5t-73 137.5h87q0 -41 42.5 -76t112.5 -35q80 0 123.5 41t43.5 112v70q-66 -99 -190 -99q-105 0 -179 76t-74 185q0 108 74 184t179 76q124 0 190 -99v86zM303 75q76 0 127 51
t51 127q0 75 -51 126t-127 51t-127 -51t-51 -126q0 -76 51 -127t127 -51z" />
    <glyph glyph-name="Gcommaaccent" unicode="&#x122;" horiz-adv-x="792" 
d="M414 276v85h318v-85v-276h-90v101q-38 -56 -103 -85t-144 -29q-153 0 -255 105.5t-102 257.5q0 153 103 258t259 105q117 0 209.5 -67t122.5 -171h-99q-25 65 -89.5 106.5t-143.5 41.5q-119 0 -194.5 -78t-75.5 -195q0 -118 76 -196.5t194 -78.5q99 0 167.5 51t72.5 142
h2v8h-228zM369 -248l10 180h85l-30 -180h-65z" />
    <glyph glyph-name="gcommaaccent" unicode="&#x123;" horiz-adv-x="632" 
d="M351 767l-10 -180h-85l30 180h65zM481 500h86v-479q0 -111 -74 -172.5t-179 -61.5q-96 0 -169 54.5t-73 137.5h87q0 -41 42.5 -76t112.5 -35q80 0 123.5 41t43.5 112v70q-66 -99 -190 -99q-105 0 -179 76t-74 185q0 108 74 184t179 76q124 0 190 -99v86zM303 75
q76 0 127 51t51 127q0 75 -51 126t-127 51t-127 -51t-51 -126q0 -76 51 -127t127 -51z" />
    <glyph glyph-name="Hbar" unicode="&#x126;" horiz-adv-x="680" 
d="M645 579v-71h-64v-508h-92v309h-298v-309h-92v508h-64v71h64v121h92v-121h298v121h92v-121h64zM489 397v111h-298v-111h298z" />
    <glyph glyph-name="hbar" unicode="&#x127;" horiz-adv-x="532" 
d="M310 513q72 0 120 -51t48 -137v-325h-87v321q0 52 -28.5 80.5t-75.5 28.5q-52 0 -88.5 -35.5t-36.5 -109.5v-285h-87v569h-67v64h67v67h87v-67h143v-64h-143v-131q49 75 148 75z" />
    <glyph glyph-name="Imacron" unicode="&#x12a;" horiz-adv-x="243" 
d="M-14 775v73h270v-73h-270zM75 700h93v-700h-93v700z" />
    <glyph glyph-name="imacron" unicode="&#x12b;" horiz-adv-x="220" 
d="M5 575v76h210v-76h-210zM66 0v500h87v-500h-87z" />
    <glyph glyph-name="Iogonek" unicode="&#x12e;" horiz-adv-x="243" 
d="M157 -144q21 0 38 8v-64q-33 -13 -67 -13q-40 0 -63 21.5t-23 58.5q0 58 41 133h-8v700h93v-700q-42 -75 -42 -114q0 -30 31 -30z" />
    <glyph glyph-name="iogonek" unicode="&#x12f;" horiz-adv-x="220" 
d="M153 700v-110h-87v110h87zM146 -144q20 0 37 8v-64q-33 -13 -66 -13q-40 0 -63.5 25t-23.5 63q0 52 39 125h-3v500h87v-500q-38 -62 -38 -107q-1 -15 7.5 -26t23.5 -11z" />
    <glyph glyph-name="Idotaccent" unicode="&#x130;" horiz-adv-x="243" 
d="M69 773v105h105v-105h-105zM75 700h93v-700h-93v700z" />
    <glyph glyph-name="dotlessi" unicode="&#x131;" horiz-adv-x="220" 
d="M66 0v500h87v-500h-87z" />
    <glyph glyph-name="Kcommaaccent" unicode="&#x136;" horiz-adv-x="592" 
d="M265 359l319 -359h-114l-302 336v-336h-93v700h93v-317l292 317h114zM258 -248l10 180h85l-30 -180h-65z" />
    <glyph glyph-name="kcommaaccent" unicode="&#x137;" horiz-adv-x="502" 
d="M240 258l247 -258h-109l-225 236v-236h-87v700h87v-422l215 222h109zM221 -248l10 180h85l-30 -180h-65z" />
    <glyph glyph-name="Lacute" unicode="&#x139;" horiz-adv-x="485" 
d="M262 900l-101 -132h-84l80 132h105zM168 88h300v-88h-393v700h93v-612z" />
    <glyph glyph-name="lacute" unicode="&#x13a;" horiz-adv-x="220" 
d="M66 768h84l101 132h-105zM66 0v720h87v-720h-87z" />
    <glyph glyph-name="Lcommaaccent" unicode="&#x13b;" horiz-adv-x="485" 
d="M168 88h300v-88h-393v700h93v-612zM232 -248l10 180h85l-30 -180h-65z" />
    <glyph glyph-name="lcommaaccent" unicode="&#x13c;" horiz-adv-x="220" 
d="M66 0v720h87v-720h-87zM124 -248l30 180h-85l-10 -180h65z" />
    <glyph glyph-name="Lcaron" unicode="&#x13d;" horiz-adv-x="485" 
d="M168 88h300v-88h-393v700h93v-612zM357 700l-30 -175h-67l10 175h87z" />
    <glyph glyph-name="lcaron" unicode="&#x13e;" horiz-adv-x="299" 
d="M66 0v720h87v-720h-87zM279 540l30 180h-84l-10 -180h64z" />
    <glyph glyph-name="Lslash" unicode="&#x141;" horiz-adv-x="508" 
d="M188 88h300v-88h-393v235l-57 -37v88l57 37v377h93v-316l160 105v-88l-160 -105v-208z" />
    <glyph glyph-name="lslash" unicode="&#x142;" horiz-adv-x="248" 
d="M230 470v-83l-63 -43v-344h-87v284l-62 -42v83l62 42v353h87v-293z" />
    <glyph glyph-name="Nacute" unicode="&#x143;" horiz-adv-x="635" 
d="M258 768h84l101 132h-105zM468 700h92v-700h-75l-317 518v-518h-93v700h75l318 -517v517z" />
    <glyph glyph-name="nacute" unicode="&#x144;" 
d="M392 703l-101 -132h-84l80 132h105zM301 513q72 0 120 -51t48 -137v-325h-87v321q0 52 -28.5 80.5t-75.5 28.5q-52 0 -88.5 -35.5t-36.5 -109.5v-285h-87v500h87v-62q49 75 148 75z" />
    <glyph glyph-name="Ncommaaccent" unicode="&#x145;" horiz-adv-x="635" 
d="M468 700h92v-700h-75l-317 518v-518h-93v700h75l318 -517v517zM333 -248l30 180h-85l-10 -180h65z" />
    <glyph glyph-name="ncommaaccent" unicode="&#x146;" 
d="M301 513q72 0 120 -51t48 -137v-325h-87v321q0 52 -28.5 80.5t-75.5 28.5q-52 0 -88.5 -35.5t-36.5 -109.5v-285h-87v500h87v-62q49 75 148 75zM221 -248l10 180h85l-30 -180h-65z" />
    <glyph glyph-name="Ncaron" unicode="&#x147;" horiz-adv-x="635" 
d="M269 765l-106 135h93l61 -81l61 81h93l-106 -135h-96zM468 700h92v-700h-75l-317 518v-518h-93v700h75l318 -517v517z" />
    <glyph glyph-name="ncaron" unicode="&#x148;" 
d="M218 568l-106 135h93l61 -81l61 81h93l-106 -135h-96zM301 513q72 0 120 -51t48 -137v-325h-87v321q0 52 -28.5 80.5t-75.5 28.5q-52 0 -88.5 -35.5t-36.5 -109.5v-285h-87v500h87v-62q49 75 148 75z" />
    <glyph glyph-name="Eng" unicode="&#x14a;" horiz-adv-x="635" 
d="M468 700h92v-700q0 -200 -217 -200v86q62 0 93.5 24t31.5 90v29l-300 489v-518h-93v700h75l318 -517v517z" />
    <glyph glyph-name="eng" unicode="&#x14b;" 
d="M301 513q72 0 120 -51t48 -137v-355q0 -95 -49 -142.5t-141 -40.5v84q52 -5 77.5 18t25.5 81v351q0 52 -28.5 80.5t-75.5 28.5q-52 0 -88.5 -35.5t-36.5 -109.5v-285h-87v500h87v-62q49 75 148 75z" />
    <glyph glyph-name="Omacron" unicode="&#x14c;" horiz-adv-x="800" 
d="M265 778v73h270v-73h-270zM400 -13q-152 0 -257 106t-105 257q0 152 105 257.5t257 105.5t257.5 -105.5t105.5 -257.5q0 -151 -105.5 -257t-257.5 -106zM400 78q115 0 192.5 78.5t77.5 193.5q0 116 -77.5 194.5t-192.5 78.5t-192.5 -78.5t-77.5 -194.5
q0 -115 77.5 -193.5t192.5 -78.5z" />
    <glyph glyph-name="omacron" unicode="&#x14d;" horiz-adv-x="602" 
d="M166 578v73h270v-73h-270zM301 -13q-110 0 -186.5 76t-76.5 187t76.5 187t186.5 76t187 -76t77 -187t-77 -187t-187 -76zM301 72q75 0 126 51t51 127t-51 127t-126 51q-74 0 -125 -51t-51 -127t51 -127t125 -51z" />
    <glyph glyph-name="Ohungarumlaut" unicode="&#x150;" horiz-adv-x="800" 
d="M265 768h88l79 133h-94zM418 768h88l89 133h-94zM400 -13q-152 0 -257 106t-105 257q0 152 105 257.5t257 105.5t257.5 -105.5t105.5 -257.5q0 -151 -105.5 -257t-257.5 -106zM400 78q115 0 192.5 78.5t77.5 193.5q0 116 -77.5 194.5t-192.5 78.5t-192.5 -78.5
t-77.5 -194.5q0 -115 77.5 -193.5t192.5 -78.5z" />
    <glyph glyph-name="ohungarumlaut" unicode="&#x151;" horiz-adv-x="602" 
d="M166 568h88l79 133h-94zM319 568h88l89 133h-94zM301 -13q-110 0 -186.5 76t-76.5 187t76.5 187t186.5 76t187 -76t77 -187t-77 -187t-187 -76zM301 72q75 0 126 51t51 127t-51 127t-126 51q-74 0 -125 -51t-51 -127t51 -127t125 -51z" />
    <glyph glyph-name="OE" unicode="&#x152;" horiz-adv-x="915" 
d="M578 88h300v-88h-358h-35q-47 -13 -95 -13q-151 0 -251.5 105.5t-100.5 257.5q0 153 100.5 258t251.5 105q48 0 95 -13h93h295v-88h-295v-215h277v-87h-277v-222zM485 93v515q-43 15 -95 15q-114 0 -187 -78t-73 -195q0 -116 73 -194t187 -78q55 0 95 15z" />
    <glyph glyph-name="oe" unicode="&#x153;" horiz-adv-x="1011" 
d="M567 210q11 -68 57.5 -106t114.5 -38q46 0 82.5 20.5t52.5 52.5h91q-22 -69 -83.5 -110.5t-144.5 -41.5q-78 0 -134 35.5t-84 97.5q-31 -61 -88.5 -97t-130.5 -36q-113 0 -187.5 75.5t-74.5 187.5t74.5 187.5t187.5 75.5q73 0 130.5 -36t88.5 -97q29 62 84.5 97.5
t132.5 35.5q110 0 178 -77.5t68 -186.5q0 -19 -3 -39h-412zM567 287h326q-9 70 -53 107t-104 37q-69 0 -113.5 -39t-55.5 -105zM301 72q75 0 126 51t51 127t-51 127t-126 51q-77 0 -126.5 -51t-49.5 -127t49.5 -127t126.5 -51z" />
    <glyph glyph-name="Racute" unicode="&#x154;" horiz-adv-x="630" 
d="M405 900l-101 -132h-84l80 132h105zM530 0l-230 268h-132v-268h-93v700h93h162q90 0 154 -63.5t64 -153.5q0 -69 -41 -125t-105 -78l241 -280h-113zM168 613v-261h162q52 0 88.5 38.5t36.5 92.5t-36.5 92t-88.5 38h-162z" />
    <glyph glyph-name="racute" unicode="&#x155;" horiz-adv-x="322" 
d="M311 700l-101 -132h-84l80 132h105zM153 425q47 84 151 84v-91q-63 3 -107 -33.5t-44 -116.5v-268h-87v500h87v-75z" />
    <glyph glyph-name="Rcommaaccent" unicode="&#x156;" horiz-adv-x="630" 
d="M402 280l241 -280h-113l-230 268h-132v-268h-93v700h93h162q90 0 154 -63.5t64 -153.5q0 -69 -41 -125t-105 -78zM168 613v-261h162q52 0 88.5 38.5t36.5 92.5t-36.5 92t-88.5 38h-162zM301 -248l10 180h85l-30 -180h-65z" />
    <glyph glyph-name="rcommaaccent" unicode="&#x157;" horiz-adv-x="322" 
d="M153 425q47 84 151 84v-91q-63 3 -107 -33.5t-44 -116.5v-268h-87v500h87v-75zM59 -248l10 180h85l-30 -180h-65z" />
    <glyph glyph-name="Rcaron" unicode="&#x158;" horiz-adv-x="630" 
d="M231 765l-106 135h93l61 -81l61 81h93l-106 -135h-96zM530 0l-230 268h-132v-268h-93v700h93h162q90 0 154 -63.5t64 -153.5q0 -69 -41 -125t-105 -78l241 -280h-113zM168 613v-261h162q52 0 88.5 38.5t36.5 92.5t-36.5 92t-88.5 38h-162z" />
    <glyph glyph-name="rcaron" unicode="&#x159;" horiz-adv-x="322" 
d="M137 565l-106 135h93l61 -81l61 81h93l-106 -135h-96zM153 425q47 84 151 84v-91q-63 3 -107 -33.5t-44 -116.5v-268h-87v500h87v-75z" />
    <glyph glyph-name="Sacute" unicode="&#x15a;" horiz-adv-x="549" 
d="M211 771h84l101 132h-105zM284 -13q-106 0 -177.5 58t-71.5 162h93q0 -62 42 -95.5t114 -33.5q61 0 99 28.5t38 75.5q0 45 -36.5 71.5t-108.5 53.5q-4 1 -11 4q-34 12 -52 19.5t-47.5 21.5t-45.5 28.5t-33.5 35.5t-25.5 47.5t-8 59.5q0 87 64 138.5t152 51.5
q95 0 160 -55.5t65 -153.5h-93q0 57 -36 88t-96 31q-54 0 -89 -27t-35 -73q0 -48 34.5 -74.5t105.5 -53.5q106 -40 140 -62q88 -56 89 -151q0 -89 -67 -142t-163 -53z" />
    <glyph glyph-name="sacute" unicode="&#x15b;" horiz-adv-x="467" 
d="M358 703l-101 -132h-84l80 132h105zM138 364q0 -31 29.5 -48.5t71.5 -27t84 -22.5t71.5 -45.5t29.5 -84.5q0 -67 -53.5 -108t-137.5 -41t-137 43.5t-53 119.5h86q0 -42 28.5 -62t75.5 -20q46 0 75 17t29 51q0 26 -21 43t-53 24.5t-69 18.5t-69 24.5t-53 43.5t-21 74
q0 66 52 107.5t130 41.5t129.5 -44t51.5 -119h-86q0 42 -27.5 62t-67.5 20t-67.5 -17.5t-27.5 -50.5z" />
    <glyph glyph-name="Scedilla" unicode="&#x15e;" horiz-adv-x="549" 
d="M514 182q0 -81 -56 -132.5t-141 -60.5v-34q38 -8 61.5 -29t23.5 -51q0 -103 -210 -91v66q134 -10 134 31q0 31 -83 36v73q-91 11 -149.5 67.5t-58.5 149.5h93q0 -62 42 -95.5t114 -33.5q61 0 99 28.5t38 75.5q0 45 -36.5 71.5t-108.5 53.5q-4 1 -11 4q-34 12 -52 19.5
t-47.5 21.5t-45.5 28.5t-33.5 35.5t-25.5 47.5t-8 59.5q0 87 64 138.5t152 51.5q95 0 160 -55.5t65 -153.5h-93q0 57 -36 88t-96 31q-54 0 -89 -27t-35 -73q0 -48 34.5 -74.5t105.5 -53.5q106 -40 140 -62q88 -56 89 -151z" />
    <glyph glyph-name="scedilla" unicode="&#x15f;" horiz-adv-x="467" 
d="M424 136q0 -58 -41 -97t-109 -49v-35q38 -8 61.5 -29t23.5 -51q0 -103 -210 -91v66q134 -10 134 31q0 31 -83 36v72q-72 8 -114.5 50.5t-42.5 110.5h86q0 -42 28.5 -62t75.5 -20q46 0 75 17t29 51q0 26 -21 43t-53 24.5t-69 18.5t-69 24.5t-53 43.5t-21 74q0 66 52 107.5
t130 41.5t129.5 -44t51.5 -119h-86q0 42 -27.5 62t-67.5 20t-67.5 -17.5t-27.5 -50.5q0 -31 29.5 -48.5t71.5 -27t84 -22.5t71.5 -45.5t29.5 -84.5z" />
    <glyph glyph-name="Scaron" unicode="&#x160;" horiz-adv-x="549" 
d="M222 768l-106 135h93l61 -81l61 81h93l-106 -135h-96zM285 395q106 -40 140 -62q88 -56 89 -151q0 -89 -67 -142t-163 -53q-106 0 -177.5 58t-71.5 162h93q0 -62 42 -95.5t114 -33.5q61 0 99 28.5t38 75.5q0 45 -36.5 71.5t-108.5 53.5q-4 1 -11 4q-34 12 -52 19.5
t-47.5 21.5t-45.5 28.5t-33.5 35.5t-25.5 47.5t-8 59.5q0 87 64 138.5t152 51.5q95 0 160 -55.5t65 -153.5h-93q0 57 -36 88t-96 31q-54 0 -89 -27t-35 -73q0 -48 34.5 -74.5t105.5 -53.5z" />
    <glyph glyph-name="scaron" unicode="&#x161;" horiz-adv-x="467" 
d="M184 568l-106 135h93l61 -81l61 81h93l-106 -135h-96zM138 364q0 -31 29.5 -48.5t71.5 -27t84 -22.5t71.5 -45.5t29.5 -84.5q0 -67 -53.5 -108t-137.5 -41t-137 43.5t-53 119.5h86q0 -42 28.5 -62t75.5 -20q46 0 75 17t29 51q0 26 -21 43t-53 24.5t-69 18.5t-69 24.5
t-53 43.5t-21 74q0 66 52 107.5t130 41.5t129.5 -44t51.5 -119h-86q0 42 -27.5 62t-67.5 20t-67.5 -17.5t-27.5 -50.5z" />
    <glyph glyph-name="uni0162" unicode="&#x162;" horiz-adv-x="500" 
d="M483 700v-88h-187v-612h-92v612h-186v88h278h187zM201 -248l10 180h85l-30 -180h-65z" />
    <glyph glyph-name="uni0163" unicode="&#x163;" horiz-adv-x="321" 
d="M205 500h98v-84h-98v-416h-87v416h-99v84h99v160h87v-160zM111 -248l10 180h85l-30 -180h-65z" />
    <glyph glyph-name="Tcaron" unicode="&#x164;" horiz-adv-x="500" 
d="M201 765l-106 135h93l61 -81l61 81h93l-106 -135h-96zM483 700v-88h-187v-612h-92v612h-186v88h278h187z" />
    <glyph glyph-name="tcaron" unicode="&#x165;" horiz-adv-x="346" 
d="M266 725h85l-30 -167h-65zM205 660v-160h98v-84h-98v-416h-87v416h-99v84h99v160h87z" />
    <glyph glyph-name="Tbar" unicode="&#x166;" horiz-adv-x="500" 
d="M483 612h-187v-222h137v-84h-137v-306h-92v306h-136v84h136v222h-186v88h278h187v-88z" />
    <glyph glyph-name="tbar" unicode="&#x167;" horiz-adv-x="321" 
d="M303 416h-98v-92h72v-70h-72v-254h-87v254h-76v70h76v92h-99v84h99v160h87v-160h98v-84z" />
    <glyph glyph-name="Umacron" unicode="&#x16a;" horiz-adv-x="620" 
d="M175 775v73h270v-73h-270zM310 -13q-106 0 -175.5 59t-69.5 164v490h93v-486q0 -66 40 -101t112 -35t112.5 35t40.5 101v486h92v-490q0 -105 -69.5 -164t-175.5 -59z" />
    <glyph glyph-name="umacron" unicode="&#x16b;" 
d="M392 648v-73h-270v73h270zM370 500h87v-500h-87v62q-49 -75 -148 -75q-72 0 -120 51.5t-48 137.5v324h87v-321q0 -52 28.5 -80.5t75.5 -28.5q53 0 89 35.5t36 110.5v284z" />
    <glyph glyph-name="Uring" unicode="&#x16e;" horiz-adv-x="620" 
d="M310 746q-50 0 -81.5 30.5t-31.5 76.5t31.5 76t81.5 30t81.5 -30t31.5 -76t-31.5 -76.5t-81.5 -30.5zM310 807q23 0 35.5 13t12.5 33t-12.5 32.5t-35.5 12.5q-22 0 -34.5 -13t-12.5 -32q0 -20 12.5 -33t34.5 -13zM310 -13q-106 0 -175.5 59t-69.5 164v490h93v-486
q0 -66 40 -101t112 -35t112.5 35t40.5 101v486h92v-490q0 -105 -69.5 -164t-175.5 -59z" />
    <glyph glyph-name="uring" unicode="&#x16f;" 
d="M257 546q-50 0 -81.5 30.5t-31.5 76.5t31.5 76t81.5 30t81.5 -30t31.5 -76t-31.5 -76.5t-81.5 -30.5zM257 698q-22 0 -34.5 -13t-12.5 -32q0 -20 12.5 -33t34.5 -13q23 0 35.5 13t12.5 33t-12.5 32.5t-35.5 12.5zM370 500h87v-500h-87v62q-49 -75 -148 -75
q-72 0 -120 51.5t-48 137.5v324h87v-321q0 -52 28.5 -80.5t75.5 -28.5q53 0 89 35.5t36 110.5v284z" />
    <glyph glyph-name="Uhungarumlaut" unicode="&#x170;" horiz-adv-x="620" 
d="M175 765h88l79 133h-94zM328 765h88l89 133h-94zM310 -13q-106 0 -175.5 59t-69.5 164v490h93v-486q0 -66 40 -101t112 -35t112.5 35t40.5 101v486h92v-490q0 -105 -69.5 -164t-175.5 -59z" />
    <glyph glyph-name="uhungarumlaut" unicode="&#x171;" 
d="M289 698l-79 -133h-88l73 133h94zM363 565h-88l83 133h94zM370 500h87v-500h-87v62q-49 -75 -148 -75q-72 0 -120 51.5t-48 137.5v324h87v-321q0 -52 28.5 -80.5t75.5 -28.5q53 0 89 35.5t36 110.5v284z" />
    <glyph glyph-name="Uogonek" unicode="&#x172;" horiz-adv-x="620" 
d="M463 700h92v-490q0 -105 -73 -167q-63 -58 -88.5 -92t-25.5 -65q0 -30 31 -30q21 0 38 8v-64q-33 -13 -67 -13q-40 0 -63 21.5t-23 58.5q0 58 59 122q-22 -2 -33 -2q-106 0 -175.5 59t-69.5 164v490h93v-486q0 -66 40 -101t112 -35t112.5 35t40.5 101v486z" />
    <glyph glyph-name="uogonek" unicode="&#x173;" 
d="M370 500h87v-500q-69 -66 -69 -114q0 -30 31 -30q21 0 38 8v-64q-33 -13 -67 -13q-40 0 -63 21.5t-23 58.5q0 56 66 134v61q-49 -75 -148 -75q-72 0 -120 51.5t-48 137.5v324h87v-321q0 -52 28.5 -80.5t75.5 -28.5q53 0 89 35.5t36 110.5v284z" />
    <glyph glyph-name="Wcircumflex" unicode="&#x174;" horiz-adv-x="870" 
d="M434 846l-61 -81h-93l106 135h89h7l106 -135h-93zM770 700h93l-212 -700h-112l-104 343l-104 -343h-112l-211 700h93l177 -594l114 378l-65 216h88l177 -594z" />
    <glyph glyph-name="wcircumflex" unicode="&#x175;" horiz-adv-x="695" 
d="M347 646l-61 -81h-93l106 135h89h7l106 -135h-93zM593 500h92l-170 -500h-81h-8l-78 227l-78 -227h-76h-13l-171 500h93l126 -398l80 239l-54 159h85l128 -393z" />
    <glyph glyph-name="Ycircumflex" unicode="&#x176;" horiz-adv-x="584" 
d="M288 846l-61 -81h-93l106 135h89h7l106 -135h-93zM576 700l-238 -380v-320h-93v322l-237 378h104l180 -291l180 291h104z" />
    <glyph glyph-name="ycircumflex" unicode="&#x177;" horiz-adv-x="480" 
d="M239 646l-61 -81h-93l106 135h89h7l106 -135h-93zM380 500h93l-245 -700h-93l72 205l-199 495h92l150 -374z" />
    <glyph glyph-name="Ydieresis" unicode="&#x178;" horiz-adv-x="584" 
d="M239 866v-92h-93v92h93zM434 866v-92h-93v92h93zM576 700l-238 -380v-320h-93v322l-237 378h104l180 -291l180 291h104z" />
    <glyph glyph-name="Zacute" unicode="&#x179;" horiz-adv-x="525" 
d="M393 900l-101 -132h-84l80 132h105zM149 88h347v-88h-457v81l338 531h-329v88h440v-80z" />
    <glyph glyph-name="zacute" unicode="&#x17a;" horiz-adv-x="451" 
d="M357 700l-101 -132h-84l80 132h105zM157 83h266v-83h-385v58l255 359h-245v83h365v-58z" />
    <glyph glyph-name="Zdotaccent" unicode="&#x17b;" horiz-adv-x="525" 
d="M320 878v-105h-105v105h105zM149 88h347v-88h-457v81l338 531h-329v88h440v-80z" />
    <glyph glyph-name="zdotaccent" unicode="&#x17c;" horiz-adv-x="451" 
d="M284 678v-105h-105v105h105zM157 83h266v-83h-385v58l255 359h-245v83h365v-58z" />
    <glyph glyph-name="Zcaron" unicode="&#x17d;" horiz-adv-x="525" 
d="M219 765l-106 135h93l61 -81l61 81h93l-106 -135h-96zM149 88h347v-88h-457v81l338 531h-329v88h440v-80z" />
    <glyph glyph-name="zcaron" unicode="&#x17e;" horiz-adv-x="451" 
d="M183 565l-106 135h93l61 -81l61 81h93l-106 -135h-96zM157 83h266v-83h-385v58l255 359h-245v83h365v-58z" />
    <glyph glyph-name="florin" unicode="&#x192;" horiz-adv-x="440" 
d="M440 618q-47 20 -81.5 2.5t-42.5 -66.5l-28 -161h107v-84h-121l-63 -369q-15 -94 -72.5 -129t-138.5 -12v85q47 -19 81.5 -1.5t42.5 65.5l61 361h-100v84h115l29 169q15 94 72.5 129.5t138.5 12.5v-86z" />
    <glyph glyph-name="Scommaaccent" unicode="&#x218;" horiz-adv-x="549" 
d="M284 -13q-106 0 -177.5 58t-71.5 162h93q0 -62 42 -95.5t114 -33.5q61 0 99 28.5t38 75.5q0 45 -36.5 71.5t-108.5 53.5q-4 1 -11 4q-34 12 -52 19.5t-47.5 21.5t-45.5 28.5t-33.5 35.5t-25.5 47.5t-8 59.5q0 87 64 138.5t152 51.5q95 0 160 -55.5t65 -153.5h-93
q0 57 -36 88t-96 31q-54 0 -89 -27t-35 -73q0 -48 34.5 -74.5t105.5 -53.5q106 -40 140 -62q88 -56 89 -151q0 -89 -67 -142t-163 -53zM306 -248l30 180h-85l-10 -180h65z" />
    <glyph glyph-name="scommaaccent" unicode="&#x219;" horiz-adv-x="467" 
d="M138 364q0 -31 29.5 -48.5t71.5 -27t84 -22.5t71.5 -45.5t29.5 -84.5q0 -67 -53.5 -108t-137.5 -41t-137 43.5t-53 119.5h86q0 -42 28.5 -62t75.5 -20q46 0 75 17t29 51q0 26 -21 43t-53 24.5t-69 18.5t-69 24.5t-53 43.5t-21 74q0 66 52 107.5t130 41.5t129.5 -44
t51.5 -119h-86q0 42 -27.5 62t-67.5 20t-67.5 -17.5t-27.5 -50.5zM198 -248l10 180h85l-30 -180h-65z" />
    <glyph glyph-name="uni021A" unicode="&#x21a;" horiz-adv-x="500" 
d="M483 700v-88h-187v-612h-92v612h-186v88h278h187zM201 -248l10 180h85l-30 -180h-65z" />
    <glyph glyph-name="uni021B" unicode="&#x21b;" horiz-adv-x="321" 
d="M205 500h98v-84h-98v-416h-87v416h-99v84h99v160h87v-160zM111 -248l10 180h85l-30 -180h-65z" />
    <glyph glyph-name="circumflex" unicode="&#x2c6;" horiz-adv-x="348" 
d="M328 565h-93l-61 81l-61 -81h-93l106 135h89h7z" />
    <glyph glyph-name="caron" unicode="&#x2c7;" horiz-adv-x="348" 
d="M235 700h93l-106 -135h-89h-7l-106 135h93l61 -81z" />
    <glyph glyph-name="breve" unicode="&#x2d8;" horiz-adv-x="338" 
d="M169 557q-69 0 -109 35.5t-40 99.5h81q0 -65 68 -65t68 65h81q0 -64 -39.5 -99.5t-109.5 -35.5z" />
    <glyph glyph-name="dotaccent" unicode="&#x2d9;" horiz-adv-x="145" 
d="M20 573v105h105v-105h-105z" />
    <glyph glyph-name="ring" unicode="&#x2da;" horiz-adv-x="266" 
d="M133 546q-50 0 -81.5 30.5t-31.5 76.5t31.5 76t81.5 30t81.5 -30t31.5 -76t-31.5 -76.5t-81.5 -30.5zM133 607q23 0 35.5 13t12.5 33q0 19 -12.5 32t-35.5 13q-22 0 -34.5 -12.5t-12.5 -32.5t12.5 -33t34.5 -13z" />
    <glyph glyph-name="ogonek" unicode="&#x2db;" horiz-adv-x="193" 
d="M107 -213q-41 0 -64 21.5t-23 58.5q0 63 70 133h83q-68 -65 -68 -114q-1 -15 7 -22.5t24 -7.5q20 0 37 8v-64q-33 -13 -66 -13z" />
    <glyph glyph-name="tilde" unicode="&#x2dc;" horiz-adv-x="340" 
d="M20 573q0 64 23.5 96.5t58 31t73.5 -28.5q36 -30 53.5 -27.5t17.5 50.5h74q0 -64 -23.5 -96t-58 -30.5t-72.5 28.5q-36 30 -54 27.5t-18 -51.5h-74z" />
    <glyph glyph-name="hungarumlaut" unicode="&#x2dd;" horiz-adv-x="370" 
d="M20 565h88l79 133h-94zM173 565h88l89 133h-94z" />
    <glyph glyph-name="gravecomb" unicode="&#x300;" horiz-adv-x="0" 
d="M-20 568l-80 132h-105l101 -132h84z" />
    <glyph glyph-name="acutecomb" unicode="&#x301;" horiz-adv-x="0" 
d="M-205 568h84l101 132h-105z" />
    <glyph glyph-name="uni0302" unicode="&#x302;" horiz-adv-x="0" 
d="M-20 565h-93l-61 81l-61 -81h-93l106 135h89h7z" />
    <glyph glyph-name="tildecomb" unicode="&#x303;" horiz-adv-x="0" 
d="M-317 573q0 64 23.5 96.5t58 31t72.5 -28.5q37 -30 54.5 -27.5t17.5 50.5h73q0 -64 -23 -96t-57.5 -30.5t-73.5 28.5q-36 30 -54 27.5t-18 -51.5h-73z" />
    <glyph glyph-name="uni0304" unicode="&#x304;" horiz-adv-x="0" 
d="M-290 575v73h270v-73h-270z" />
    <glyph glyph-name="uni0306" unicode="&#x306;" horiz-adv-x="0" 
d="M-169 557q-69 0 -109 35.5t-40 99.5h81q0 -65 68 -65t68 65h81q0 -64 -39.5 -99.5t-109.5 -35.5z" />
    <glyph glyph-name="uni0307" unicode="&#x307;" horiz-adv-x="0" 
d="M-129 573v105h105v-105h-105z" />
    <glyph glyph-name="uni0308" unicode="&#x308;" horiz-adv-x="0" 
d="M-308 574v92h93v-92h-93zM-113 574v92h93v-92h-93z" />
    <glyph glyph-name="uni030A" unicode="&#x30a;" horiz-adv-x="0" 
d="M-134 546q-50 0 -81.5 30.5t-31.5 76.5t31.5 76t81.5 30t81.5 -30t31.5 -76t-31.5 -76.5t-81.5 -30.5zM-134 607q23 0 35.5 13t12.5 33t-12.5 32.5t-35.5 12.5q-22 0 -34.5 -13t-12.5 -32q0 -20 12.5 -33t34.5 -13z" />
    <glyph glyph-name="uni030B" unicode="&#x30b;" horiz-adv-x="0" 
d="M-350 565h88l79 133h-94zM-197 565h88l89 133h-94z" />
    <glyph glyph-name="uni030C" unicode="&#x30c;" horiz-adv-x="0" 
d="M-113 700h93l-106 -135h-89h-7l-106 135h93l61 -81z" />
    <glyph glyph-name="uni0312" unicode="&#x312;" horiz-adv-x="0" 
d="M-85 965l-30 -180h85l10 180h-65z" />
    <glyph glyph-name="uni0326" unicode="&#x326;" horiz-adv-x="0" 
d="M-50 -248l30 180h-85l-10 -180h65z" />
    <glyph glyph-name="uni0327" unicode="&#x327;" horiz-adv-x="0" 
d="M-105 -45q38 -8 61.5 -29t23.5 -51q0 -103 -210 -91v66q134 -10 134 31q0 31 -83 36v83h74v-45z" />
    <glyph glyph-name="uni0328" unicode="&#x328;" horiz-adv-x="0" 
d="M-88 -213q-41 0 -64 21.5t-23 58.5q0 63 70 133h83q-68 -65 -68 -114q-1 -15 7 -22.5t24 -7.5q20 0 37 8v-64q-33 -13 -66 -13z" />
    <glyph glyph-name="uni0394" unicode="&#x394;" horiz-adv-x="638" 
d="M371 700l259 -700h-99h-446h-77l258 700h105zM138 87h362l-181 504z" />
    <glyph glyph-name="uni03A9" unicode="&#x3a9;" horiz-adv-x="795" 
d="M760 355q0 -83 -36 -152.5t-99 -114.5h123v-88h-275v88q86 24 140.5 96t54.5 166q0 116 -77.5 194.5t-192.5 78.5t-192.5 -78.5t-77.5 -194.5q0 -95 53.5 -166.5t140.5 -95.5v-88h-274v88h122q-63 45 -99 114.5t-36 152.5q0 150 105 254t258 104q152 0 257 -104t105 -254
z" />
    <glyph glyph-name="pi" unicode="&#x3c0;" horiz-adv-x="625" 
d="M598 500v-83h-82v-417h-87v417h-229v-417h-87v417h-85v83h172h316h82z" />
    <glyph glyph-name="uni0401" unicode="&#x401;" horiz-adv-x="518" 
d="M225 866v-92h-93v92h93zM420 866v-92h-93v92h93zM168 88h312v-88h-370h-35v700h93h307v-88h-307v-215h282v-87h-282v-222z" />
    <glyph glyph-name="uni0402" unicode="&#x402;" horiz-adv-x="660" 
d="M421 468q85 0 137 -49.5t52 -142.5v-102q0 -97 -49 -143.5t-144 -39.5v86q54 -5 77 17.5t23 79.5v97q0 113 -105 113q-57 0 -123 -29v-355h-93v612h-178v88h271h216v-88h-216v-175q68 31 132 31z" />
    <glyph glyph-name="uni0403" unicode="&#x403;" horiz-adv-x="485" 
d="M399 899l-101 -132h-84l80 132h105zM468 700v-88h-300v-612h-93v700h393z" />
    <glyph glyph-name="uni0404" unicode="&#x404;" horiz-adv-x="753" 
d="M391 78q88 0 150 41t87 111h99q-29 -109 -119.5 -176t-216.5 -67q-155 0 -254 105t-99 258q0 154 99 258.5t254 104.5q126 0 216.5 -67t119.5 -176h-99q-25 70 -87 111.5t-150 41.5q-106 0 -175.5 -64t-82.5 -165h360v-87h-360q13 -101 82.5 -165t175.5 -64z" />
    <glyph glyph-name="uni0405" unicode="&#x405;" horiz-adv-x="549" 
d="M284 -13q-106 0 -177.5 58t-71.5 162h93q0 -62 42 -95.5t114 -33.5q61 0 99 28.5t38 75.5q0 45 -36.5 71.5t-108.5 53.5q-4 1 -11 4q-34 12 -52 19.5t-47.5 21.5t-45.5 28.5t-33.5 35.5t-25.5 47.5t-8 59.5q0 87 64 138.5t152 51.5q95 0 160 -55.5t65 -153.5h-93
q0 57 -36 88t-96 31q-54 0 -89 -27t-35 -73q0 -48 34.5 -74.5t105.5 -53.5q106 -40 140 -62q88 -56 89 -151q0 -89 -67 -142t-163 -53z" />
    <glyph glyph-name="uni0406" unicode="&#x406;" horiz-adv-x="243" 
d="M75 700h93v-700h-93v700z" />
    <glyph glyph-name="uni0407" unicode="&#x407;" horiz-adv-x="243" 
d="M-23 774v92h93v-92h-93zM172 774v92h93v-92h-93zM75 700h93v-700h-93v700z" />
    <glyph glyph-name="uni0408" unicode="&#x408;" horiz-adv-x="533" 
d="M243 -13q-94 0 -159.5 55.5t-65.5 158.5v13h92v-13q0 -62 36.5 -92.5t96.5 -30.5q59 0 95.5 30.5t36.5 92.5v499h93v-499q0 -103 -65.5 -158.5t-159.5 -55.5z" />
    <glyph glyph-name="uni0409" unicode="&#x409;" horiz-adv-x="944" 
d="M690 413q92 0 155.5 -59t63.5 -148t-63.5 -147.5t-155.5 -58.5h-199h-35v612h-211v-309q0 -94 -17.5 -157.5t-50 -96t-72 -44t-91.5 -6.5v84q69 -9 103.5 39.5t34.5 180.5v397h397v-287h141zM690 87q54 0 90 33t36 86t-36 86.5t-90 33.5h-141v-239h141z" />
    <glyph glyph-name="uni040A" unicode="&#x40a;" horiz-adv-x="933" 
d="M679 413q92 0 155.5 -59t63.5 -148t-63.5 -147.5t-155.5 -58.5h-199h-35v326h-277v-326h-93v700h93v-287h277v287h93v-287h141zM679 87q54 0 90 33t36 86t-36.5 86.5t-89.5 33.5h-141v-239h141z" />
    <glyph glyph-name="uni040B" unicode="&#x40b;" horiz-adv-x="665" 
d="M421 468q85 0 137 -49.5t52 -142.5v-276h-93v271q0 113 -105 113q-57 0 -123 -29v-355h-93v612h-178v88h271h216v-88h-216v-175q68 31 132 31z" />
    <glyph glyph-name="uni040C" unicode="&#x40c;" horiz-adv-x="592" 
d="M419 899l-101 -132h-84l80 132h105zM584 0h-114l-302 336v-336h-93v700h93v-317l292 317h114l-309 -341z" />
    <glyph glyph-name="uni040E" unicode="&#x40e;" horiz-adv-x="580" 
d="M424 850v-76h-270v76h270zM476 700h94l-225 -534q-38 -90 -97 -130.5t-144 -35.5v86q58 -6 94 17t60 79l6 16l-236 502h94l185 -400z" />
    <glyph glyph-name="uni040F" unicode="&#x40f;" horiz-adv-x="633" 
d="M465 700h93v-700h-93h-102v-144h-93v144h-160h-35v700h93v-612h297v612z" />
    <glyph glyph-name="uni0410" unicode="&#x410;" horiz-adv-x="638" 
d="M531 0l-56 157h-312l-56 -157h-99l258 700h105l259 -700h-99zM194 244h249l-124 347z" />
    <glyph glyph-name="uni0411" unicode="&#x411;" horiz-adv-x="585" 
d="M338 425q91 0 154 -61.5t63 -150.5q0 -91 -62.5 -152t-154.5 -61h-228h-35v700h93h327v-88h-327v-187h170zM338 87q52 0 88.5 36t36.5 90q0 53 -36.5 89t-88.5 36h-170v-251h170z" />
    <glyph glyph-name="uni0412" unicode="&#x412;" horiz-adv-x="685" 
d="M523 437q59 -27 94.5 -83t35.5 -126q0 -95 -63.5 -161.5t-157.5 -66.5h-339h-18v700h93h190q84 0 137 -51t53 -126q0 -47 -25 -86zM358 613h-190v-155h263q24 26 24 63q0 40 -26 66t-71 26zM419 87q64 0 102.5 41t38.5 102q0 62 -38 102.5t-102 40.5h-252v-286h251z" />
    <glyph glyph-name="uni0413" unicode="&#x413;" horiz-adv-x="485" 
d="M468 700v-88h-300v-612h-93v700h393z" />
    <glyph glyph-name="uni0414" unicode="&#x414;" horiz-adv-x="668" 
d="M560 87h75v-87v-144h-92v144h-435v-144h-93v180v51h60q66 80 66 247v366h419v-613zM180 87h288v526h-234v-281q0 -158 -54 -245z" />
    <glyph glyph-name="uni0415" unicode="&#x415;" horiz-adv-x="518" 
d="M168 88h312v-88h-370h-35v700h93h307v-88h-307v-215h282v-87h-282v-222z" />
    <glyph glyph-name="uni0416" unicode="&#x416;" horiz-adv-x="868" 
d="M851 0h-106l-265 335v-335h-92v335l-265 -335h-105l281 358l-271 342h105l255 -320v320h92v-320l255 320h106l-272 -342z" />
    <glyph glyph-name="uni0417" unicode="&#x417;" horiz-adv-x="535" 
d="M410 414q51 -30 79.5 -81t28.5 -114q0 -100 -68 -166t-182 -66t-182 67t-68 168h92q0 -63 41.5 -105t116.5 -42t116 40.5t41 103.5q0 62 -39.5 103.5t-106.5 41.5h-51v84h51q21 0 40 -3q49 36 49 88q0 41 -28 67t-79 26q-52 0 -79.5 -26t-27.5 -67h-93q0 78 54.5 129
t145.5 51q90 0 144.5 -50.5t54.5 -126.5q0 -68 -50 -122z" />
    <glyph glyph-name="uni0418" unicode="&#x418;" horiz-adv-x="635" 
d="M468 0v518l-318 -518h-75v700h93v-517l317 517h75v-700h-92z" />
    <glyph glyph-name="uni0419" unicode="&#x419;" horiz-adv-x="635" 
d="M193 775v76h270v-76h-270zM468 0v518l-318 -518h-75v700h93v-517l317 517h75v-700h-92z" />
    <glyph glyph-name="uni041A" unicode="&#x41a;" horiz-adv-x="592" 
d="M584 0h-114l-302 336v-336h-93v700h93v-317l292 317h114l-309 -341z" />
    <glyph glyph-name="uni041B" unicode="&#x41b;" horiz-adv-x="644" 
d="M14 -1v84q69 -9 103.5 39.5t34.5 180.5v397h417v-700h-93v612h-231v-309q0 -94 -17.5 -157.5t-50 -96t-72 -44t-91.5 -6.5z" />
    <glyph glyph-name="uni041C" unicode="&#x41c;" horiz-adv-x="805" 
d="M730 700v-700h-92v547l-195 -429h-80l-195 429v-547h-93v700h93h18l217 -476l216 476h111z" />
    <glyph glyph-name="uni041D" unicode="&#x41d;" horiz-adv-x="633" 
d="M465 700h93v-700h-93v316h-297v-316h-93v700h93v-296h297v296z" />
    <glyph glyph-name="uni041E" unicode="&#x41e;" horiz-adv-x="800" 
d="M400 -13q-152 0 -257 106t-105 257q0 152 105 257.5t257 105.5t257.5 -105.5t105.5 -257.5q0 -151 -105.5 -257t-257.5 -106zM400 78q115 0 192.5 78.5t77.5 193.5q0 116 -77.5 194.5t-192.5 78.5t-192.5 -78.5t-77.5 -194.5q0 -115 77.5 -193.5t192.5 -78.5z" />
    <glyph glyph-name="uni041F" unicode="&#x41f;" horiz-adv-x="633" 
d="M558 700v-700h-93v612h-297v-612h-93v700h93h390z" />
    <glyph glyph-name="uni0420" unicode="&#x420;" horiz-adv-x="583" 
d="M329 700q91 0 155 -63.5t64 -153.5t-64 -154t-155 -64h-161v-265h-93v700h93h161zM329 352q52 0 89 38.5t37 92.5t-37 92t-89 38h-161v-261h161z" />
    <glyph glyph-name="uni0421" unicode="&#x421;" horiz-adv-x="761" 
d="M404 -13q-159 0 -262.5 105t-103.5 258t103.5 258t262.5 105q118 0 210.5 -68t121.5 -175h-99q-25 68 -89 110.5t-144 42.5q-121 0 -197.5 -78t-76.5 -195q0 -116 76.5 -194t197.5 -78q80 0 144 42t89 110h99q-29 -107 -121.5 -175t-210.5 -68z" />
    <glyph glyph-name="uni0422" unicode="&#x422;" horiz-adv-x="500" 
d="M483 700v-88h-187v-612h-92v612h-186v88h278h187z" />
    <glyph glyph-name="uni0423" unicode="&#x423;" horiz-adv-x="580" 
d="M476 700h94l-225 -534q-38 -90 -97 -130.5t-144 -35.5v86q58 -6 94 17t60 79l6 16l-236 502h94l185 -400z" />
    <glyph glyph-name="uni0424" unicode="&#x424;" horiz-adv-x="809" 
d="M782 350q0 -122 -90.5 -194t-241.5 -82v-79h-91v79q-150 10 -240.5 82t-90.5 194t90.5 194t240.5 82v79h91v-79q151 -10 241.5 -82t90.5 -194zM120 350q0 -88 63 -135.5t176 -55.5v382q-113 -8 -176 -55.5t-63 -135.5zM450 159q113 8 176 55.5t63 135.5t-63 135.5
t-176 55.5v-382z" />
    <glyph glyph-name="uni0425" unicode="&#x425;" horiz-adv-x="580" 
d="M563 0h-104l-169 277l-169 -277h-103l220 361l-207 339h104l155 -254l156 254h103l-207 -339z" />
    <glyph glyph-name="uni0426" unicode="&#x426;" horiz-adv-x="665" 
d="M558 88h75v-232h-93v144h-465v700h93v-612h297v612h93v-612z" />
    <glyph glyph-name="uni0427" unicode="&#x427;" horiz-adv-x="609" 
d="M441 700h93v-700h-93v274q-70 -31 -153 -31q-102 0 -165 57.5t-63 149.5v250h93v-244q0 -57 36 -91t100 -34q83 0 152 31v338z" />
    <glyph glyph-name="uni0428" unicode="&#x428;" horiz-adv-x="908" 
d="M740 700h93v-700h-758v700h93v-612h240v612h92v-612h240v612z" />
    <glyph glyph-name="uni0429" unicode="&#x429;" horiz-adv-x="940" 
d="M833 88h75v-232h-93v144h-740v700h93v-612h240v612h92v-612h240v612h93v-612z" />
    <glyph glyph-name="uni042A" unicode="&#x42a;" horiz-adv-x="690" 
d="M183 0v612h-183v88h275v-265h161q91 0 155 -63.5t64 -153.5q0 -91 -64 -154.5t-155 -63.5h-253zM275 87h161q53 0 90 38t37 93q0 54 -37 92t-90 38h-161v-261z" />
    <glyph glyph-name="uni042B" unicode="&#x42b;" horiz-adv-x="786" 
d="M75 0v700h93v-265h161q91 0 155 -64t64 -153q0 -91 -64 -154.5t-155 -63.5h-254zM619 0v700h92v-700h-92zM168 87h161q53 0 89.5 38t36.5 93q0 54 -37 92t-89 38h-161v-261z" />
    <glyph glyph-name="uni042C" unicode="&#x42c;" horiz-adv-x="583" 
d="M329 435q91 0 155 -64t64 -153q0 -91 -64 -154.5t-155 -63.5h-219h-35v700h93v-265h161zM329 87q53 0 89.5 38t36.5 93q0 54 -37 92t-89 38h-161v-261h161z" />
    <glyph glyph-name="uni042D" unicode="&#x42d;" horiz-adv-x="753" 
d="M362 713q155 0 254.5 -104.5t99.5 -258.5q0 -153 -99.5 -258t-254.5 -105q-126 0 -216.5 67t-119.5 176h99q25 -70 87 -111t150 -41q106 0 175.5 64t82.5 165h-360v87h360q-13 101 -82.5 165t-175.5 64q-88 0 -150 -41.5t-87 -111.5h-99q29 109 119.5 176t216.5 67z" />
    <glyph glyph-name="uni042E" unicode="&#x42e;" horiz-adv-x="1045" 
d="M645 713q152 0 257.5 -105.5t105.5 -257.5q0 -151 -105.5 -257t-257.5 -106q-143 0 -244 94.5t-113 234.5h-120v-316h-93v700h93v-296h122q19 133 118.5 221t236.5 88zM645 78q115 0 192.5 78.5t77.5 193.5q0 116 -77.5 194.5t-192.5 78.5t-192.5 -78.5t-77.5 -194.5
q0 -115 77.5 -193.5t192.5 -78.5z" />
    <glyph glyph-name="uni042F" unicode="&#x42f;" horiz-adv-x="625" 
d="M550 700v-700h-92v268h-99l-230 -268h-114l236 272q-75 16 -124 75t-49 136q0 90 63.5 153.5t154.5 63.5h254zM298 352h160v261h-160q-53 0 -90.5 -38t-37.5 -92t37.5 -92.5t90.5 -38.5z" />
    <glyph glyph-name="uni0430" unicode="&#x430;" horiz-adv-x="502" 
d="M253 513q86 0 140.5 -51t54.5 -139v-323h-86v52q-49 -65 -149 -65q-73 0 -124 42t-51 118t51 118t124 42q97 0 149 -58v71q0 56 -30.5 83t-78.5 27q-46 0 -77 -23.5t-31 -66.5h-86q0 77 55 125t139 48zM238 61q55 0 89.5 24t34.5 62q0 40 -34.5 63.5t-89.5 23.5
q-56 0 -84.5 -24t-28.5 -63t28.5 -62.5t84.5 -23.5z" />
    <glyph glyph-name="uni0431" unicode="&#x431;" horiz-adv-x="566" 
d="M292 -13q-110 0 -182 72.5t-72 187.5q0 85 35.5 151.5t86 106.5t100.5 71.5t85.5 62t35.5 61.5h91q0 -46 -25 -81t-64.5 -59t-82 -47t-84.5 -56t-64 -74q64 68 155 68q95 0 164 -65t69 -164q0 -102 -70 -168.5t-178 -66.5zM292 71q70 0 115.5 43t45.5 108q0 66 -47 109
t-119 43q-63 0 -111.5 -40t-48.5 -107q0 -68 47.5 -112t117.5 -44z" />
    <glyph glyph-name="uni0432" unicode="&#x432;" horiz-adv-x="525" 
d="M418 300q41 -19 63.5 -55.5t22.5 -82.5q0 -70 -46.5 -116t-133.5 -46h-258v247v253h85h125q73 0 116.5 -39.5t43.5 -98.5q0 -34 -18 -62zM151 424v-104h173q2 0 8 -0.5t9 -0.5q11 20 11 37q0 33 -23 51.5t-59 16.5h-119zM320 77q47 0 72.5 23t25.5 63t-25.5 62t-72.5 22
h-169v-170h169z" />
    <glyph glyph-name="uni0433" unicode="&#x433;" horiz-adv-x="378" 
d="M374 500v-84h-221v-416h-87v500h308z" />
    <glyph glyph-name="uni0434" unicode="&#x434;" horiz-adv-x="573" 
d="M476 82h69v-82v-144h-86v144h-355v-144h-86v180v46h60q49 67 49 186v232h86h216h47v-418zM178 82h212v337h-177v-151q0 -111 -35 -186z" />
    <glyph glyph-name="uni0435" unicode="&#x435;" horiz-adv-x="571" 
d="M127 210q11 -68 57.5 -106t114.5 -38q46 0 82.5 20.5t52.5 52.5h91q-22 -69 -83 -110.5t-144 -41.5q-116 0 -188 74.5t-72 188.5q0 113 72 188t187 75q110 0 177.5 -77.5t67.5 -186.5q0 -19 -3 -39h-412zM127 287h326q-9 70 -53 107t-104 37q-69 0 -113.5 -39t-55.5 -105
z" />
    <glyph glyph-name="uni0436" unicode="&#x436;" horiz-adv-x="698" 
d="M681 0h-102l-187 236v-236h-86v236l-187 -236h-101l209 258l-199 242h101l177 -221v221h86v-221l177 221h102l-200 -242z" />
    <glyph glyph-name="uni0437" unicode="&#x437;" horiz-adv-x="425" 
d="M336 282q70 -44 70 -129q0 -70 -52 -118t-141 -48q-90 0 -142 48t-52 119h86q0 -39 29.5 -62t78.5 -23t78 23t29 63q0 39 -29.5 62t-77.5 23h-39v73h40q22 0 40 -3q32 23 32 56q0 32 -22.5 49.5t-57.5 17.5t-57 -17.5t-22 -53.5h-86q0 68 45 109.5t122 41.5
q74 0 118.5 -41t44.5 -102q0 -51 -35 -88z" />
    <glyph glyph-name="uni0438" unicode="&#x438;" horiz-adv-x="535" 
d="M399 500h70v-500h-86v350l-247 -350h-70v500h86v-350z" />
    <glyph glyph-name="uni0439" unicode="&#x439;" horiz-adv-x="535" 
d="M133 575v76h270v-76h-270zM399 500h70v-500h-86v350l-247 -350h-70v500h86v-350z" />
    <glyph glyph-name="uni043A" unicode="&#x43a;" horiz-adv-x="502" 
d="M487 0h-109l-225 236v-236h-87v500h87v-222l215 222h109l-237 -242z" />
    <glyph glyph-name="uni043B" unicode="&#x43b;" horiz-adv-x="526" 
d="M460 500v-500h-87v416h-174v-204q0 -122 -49.5 -171t-139.5 -43v82q51 -6 76.5 24t25.5 110v286h87h261z" />
    <glyph glyph-name="uni043C" unicode="&#x43c;" horiz-adv-x="638" 
d="M571 500v-500h-85v363l-138 -264h-58l-138 264v-363h-86v500h86h10l157 -301l156 301h96z" />
    <glyph glyph-name="uni043D" unicode="&#x43d;" horiz-adv-x="536" 
d="M382 500h87v-500h-87v209h-229v-209h-87v500h87v-208h229v208z" />
    <glyph glyph-name="uni043E" unicode="&#x43e;" horiz-adv-x="602" 
d="M301 -13q-110 0 -186.5 76t-76.5 187t76.5 187t186.5 76t187 -76t77 -187t-77 -187t-187 -76zM301 72q75 0 126 51t51 127t-51 127t-126 51q-74 0 -125 -51t-51 -127t51 -127t125 -51z" />
    <glyph glyph-name="uni043F" unicode="&#x43f;" horiz-adv-x="535" 
d="M469 500v-500h-87v417h-229v-417h-87v500h87h316z" />
    <glyph glyph-name="uni0440" unicode="&#x440;" horiz-adv-x="633" 
d="M342 513q105 0 179 -76.5t74 -186.5t-74 -186.5t-179 -76.5q-124 0 -189 98v-285h-87v700h87v-85q65 98 189 98zM331 71q75 0 126 51.5t51 127.5t-51 127.5t-126 51.5q-76 0 -127 -51.5t-51 -127.5t51 -127.5t127 -51.5z" />
    <glyph glyph-name="uni0441" unicode="&#x441;" horiz-adv-x="571" 
d="M544 168q-20 -80 -87.5 -130.5t-155.5 -50.5q-113 0 -188 75.5t-75 187.5t75 187.5t188 75.5q88 0 155.5 -50t87.5 -130h-92q-17 43 -58 69t-93 26q-74 0 -125 -51t-51 -127q0 -75 51 -126t125 -51q52 0 93 26t58 69h92z" />
    <glyph glyph-name="uni0442" unicode="&#x442;" horiz-adv-x="408" 
d="M398 500v-83h-150v-417h-87v417h-151v83h238h150z" />
    <glyph glyph-name="uni0443" unicode="&#x443;" horiz-adv-x="485" 
d="M385 500h93l-186 -531q-30 -85 -89 -129.5t-134 -39.5v81q97 -7 134 100l9 22l-199 497h92l151 -380z" />
    <glyph glyph-name="uni0444" unicode="&#x444;" horiz-adv-x="675" 
d="M638 250q0 -103 -70 -175t-187 -85v-190h-86v190q-118 13 -187.5 85t-69.5 175t69.5 175t187.5 85v190h86v-190q117 -13 187 -85t70 -175zM124 250q0 -69 45.5 -117t125.5 -59v352q-80 -11 -125.5 -59t-45.5 -117zM381 74q80 11 125 59t45 117t-45 117t-125 59v-352z" />
    <glyph glyph-name="uni0445" unicode="&#x445;" horiz-adv-x="460" 
d="M443 0h-94l-120 186l-120 -186h-94l167 259l-156 241h94l109 -168l108 168h94l-155 -241z" />
    <glyph glyph-name="uni0446" unicode="&#x446;" horiz-adv-x="565" 
d="M456 83h82v-227h-86v144h-386v500h87v-417h216v417h87v-417z" />
    <glyph glyph-name="uni0447" unicode="&#x447;" horiz-adv-x="504" 
d="M351 500h87v-500h-87v179q-56 -25 -125 -25q-84 0 -132.5 44t-48.5 126v176h87v-171q0 -94 101 -94q60 0 118 26v239z" />
    <glyph glyph-name="uni0448" unicode="&#x448;" horiz-adv-x="758" 
d="M604 500h87v-500h-87h-269h-226h-43v500h87v-417h182v417h87v-417h182v417z" />
    <glyph glyph-name="uni0449" unicode="&#x449;" horiz-adv-x="783" 
d="M686 83h69v-83v-144h-86v144h-249h-267h-87v500h87v-417h180v417h87v-417h179v417h87v-417z" />
    <glyph glyph-name="uni044A" unicode="&#x44a;" horiz-adv-x="551" 
d="M350 320q74 0 124 -45t50 -115t-50 -115t-124 -45h-178h-33v417h-139v83h180h46v-180h124zM350 81q37 0 62.5 21.5t25.5 57.5t-25.5 58t-62.5 22h-124v-159h124z" />
    <glyph glyph-name="uni044B" unicode="&#x44b;" horiz-adv-x="670" 
d="M277 320q75 0 124.5 -44.5t49.5 -115.5t-49.5 -115.5t-124.5 -44.5h-178h-33v500h87v-180h124zM516 500h87v-500h-87v500zM277 81q37 0 62.5 21.5t25.5 57.5t-25.5 58t-62.5 22h-124v-159h124z" />
    <glyph glyph-name="uni044C" unicode="&#x44c;" horiz-adv-x="479" 
d="M277 320q75 0 124.5 -44.5t49.5 -115.5t-49.5 -115.5t-124.5 -44.5h-178h-33v500h87v-180h124zM277 81q37 0 62.5 21.5t25.5 57.5t-25.5 58t-62.5 22h-124v-159h124z" />
    <glyph glyph-name="uni044D" unicode="&#x44d;" horiz-adv-x="567" 
d="M271 513q112 0 185.5 -75.5t73.5 -187.5t-73.5 -187.5t-185.5 -75.5q-89 0 -158 50.5t-88 130.5h91q17 -44 59.5 -71t97.5 -27q63 0 108.5 38.5t58.5 100.5h-223v82h223q-13 62 -58.5 100.5t-108.5 38.5q-54 0 -97 -26.5t-60 -70.5h-91q20 80 88.5 130t157.5 50z" />
    <glyph glyph-name="uni044E" unicode="&#x44e;" horiz-adv-x="804" 
d="M503 513q110 0 186.5 -76t76.5 -187t-76.5 -187t-186.5 -76q-99 0 -171 62.5t-86 159.5h-93v-209h-87v500h87v-208h93q14 96 86 158.5t171 62.5zM503 72q74 0 125 51t51 127t-51 127t-125 51q-75 0 -126 -51t-51 -127t51 -127t126 -51z" />
    <glyph glyph-name="uni044F" unicode="&#x44f;" horiz-adv-x="506" 
d="M440 500v-500h-86v180h-78l-155 -180h-106l163 186q-55 14 -89 55.5t-34 97.5q0 69 49 115t123 46h213zM230 258h124v161h-124q-37 0 -63 -22t-26 -59q0 -36 26 -58t63 -22z" />
    <glyph glyph-name="uni0451" unicode="&#x451;" horiz-adv-x="571" 
d="M246 667v-92h-93v92h93zM441 667v-92h-93v92h93zM127 210q11 -68 57.5 -106t114.5 -38q46 0 82.5 20.5t52.5 52.5h91q-22 -69 -83 -110.5t-144 -41.5q-116 0 -188 74.5t-72 188.5q0 113 72 188t187 75q110 0 177.5 -77.5t67.5 -186.5q0 -19 -3 -39h-412zM127 287h326
q-9 70 -53 107t-104 37q-69 0 -113.5 -39t-55.5 -105z" />
    <glyph glyph-name="uni0452" unicode="&#x452;" horiz-adv-x="528" 
d="M310 513q72 0 120 -51t48 -137v-355q0 -97 -49 -143.5t-144 -39.5v84q55 -5 80.5 18t25.5 81v351q0 52 -28.5 80.5t-75.5 28.5q-52 0 -88.5 -35.5t-36.5 -109.5v-285h-87v569h-67v64h67v67h87v-67h143v-64h-143v-131q49 75 148 75z" />
    <glyph glyph-name="uni0453" unicode="&#x453;" horiz-adv-x="378" 
d="M324 700l-101 -132h-84l80 132h105zM374 500v-84h-221v-416h-87v500h308z" />
    <glyph glyph-name="uni0454" unicode="&#x454;" horiz-adv-x="567" 
d="M294 70q55 0 97.5 27t59.5 71h91q-19 -80 -88 -130.5t-158 -50.5q-112 0 -185 75.5t-73 187.5t73 187.5t185 75.5q89 0 157.5 -50t88.5 -130h-91q-17 44 -60 70.5t-97 26.5q-63 0 -108.5 -38.5t-58.5 -100.5h224v-82h-224q13 -62 58.5 -100.5t108.5 -38.5z" />
    <glyph glyph-name="uni0455" unicode="&#x455;" horiz-adv-x="467" 
d="M138 364q0 -31 29.5 -48.5t71.5 -27t84 -22.5t71.5 -45.5t29.5 -84.5q0 -67 -53.5 -108t-137.5 -41t-137 43.5t-53 119.5h86q0 -42 28.5 -62t75.5 -20q46 0 75 17t29 51q0 26 -21 43t-53 24.5t-69 18.5t-69 24.5t-53 43.5t-21 74q0 66 52 107.5t130 41.5t129.5 -44
t51.5 -119h-86q0 42 -27.5 62t-67.5 20t-67.5 -17.5t-27.5 -50.5z" />
    <glyph glyph-name="uni0456" unicode="&#x456;" horiz-adv-x="220" 
d="M66 590v110h87v-110h-87zM66 0v500h87v-500h-87z" />
    <glyph glyph-name="uni0457" unicode="&#x457;" horiz-adv-x="220" 
d="M-34 574v92h93v-92h-93zM161 574v92h93v-92h-93zM66 0v500h87v-500h-87z" />
    <glyph glyph-name="uni0458" unicode="&#x458;" horiz-adv-x="241" 
d="M88 700h87v-110h-87v110zM88 -30v530h87v-530q0 -97 -49 -143.5t-144 -39.5v84q55 -5 80.5 18t25.5 81z" />
    <glyph glyph-name="uni0459" unicode="&#x459;" horiz-adv-x="753" 
d="M561 303q72 0 118.5 -41t46.5 -111q0 -69 -47 -110t-118 -41h-165h-33v416h-164v-204q0 -122 -49.5 -171t-139.5 -43v82q51 -6 76.5 24t25.5 110v286h87h204h47v-197h111zM562 81q33 0 55.5 17.5t22.5 52.5t-22.5 53t-55.5 18h-112v-141h112z" />
    <glyph glyph-name="uni045A" unicode="&#x45a;" horiz-adv-x="759" 
d="M568 303q71 0 117.5 -41t46.5 -111q0 -69 -47 -110t-117 -41h-166h-33v220h-218v-220h-87v500h87v-197h218v197h87v-197h112zM568 81q34 0 56 17.5t22 52.5t-22 53t-56 18h-112v-141h112z" />
    <glyph glyph-name="uni045B" unicode="&#x45b;" horiz-adv-x="532" 
d="M310 513q72 0 120 -51t48 -137v-325h-87v321q0 52 -28.5 80.5t-75.5 28.5q-52 0 -88.5 -35.5t-36.5 -109.5v-285h-87v569h-67v64h67v67h87v-67h143v-64h-143v-131q49 75 148 75z" />
    <glyph glyph-name="uni045C" unicode="&#x45c;" horiz-adv-x="502" 
d="M376 700l-101 -132h-84l80 132h105zM487 0h-109l-225 236v-236h-87v500h87v-222l215 222h109l-237 -242z" />
    <glyph glyph-name="uni045E" unicode="&#x45e;" horiz-adv-x="485" 
d="M379 651v-76h-270v76h270zM385 500h93l-186 -531q-30 -85 -89 -129.5t-134 -39.5v81q97 -7 134 100l9 22l-199 497h92l151 -380z" />
    <glyph glyph-name="uni045F" unicode="&#x45f;" horiz-adv-x="535" 
d="M382 500h87v-500h-87h-71v-144h-86v144h-116h-43v500h87v-417h229v417z" />
    <glyph glyph-name="uni0490" unicode="&#x490;" horiz-adv-x="485" 
d="M375 820h93v-162v-46h-300v-612h-93v700h300v120z" />
    <glyph glyph-name="uni0491" unicode="&#x491;" horiz-adv-x="378" 
d="M288 603h86v-187h-221v-416h-87v500h222v103z" />
    <glyph glyph-name="Wgrave" unicode="&#x1e80;" horiz-adv-x="870" 
d="M488 768h-84l-101 132h105zM770 700h93l-212 -700h-112l-104 343l-104 -343h-112l-211 700h93l177 -594l114 378l-65 216h88l177 -594z" />
    <glyph glyph-name="wgrave" unicode="&#x1e81;" horiz-adv-x="695" 
d="M400 568h-84l-101 132h105zM593 500h92l-170 -500h-81h-8l-78 227l-78 -227h-76h-13l-171 500h93l126 -398l80 239l-54 159h85l128 -393z" />
    <glyph glyph-name="Wacute" unicode="&#x1e82;" horiz-adv-x="870" 
d="M560 900l-101 -132h-84l80 132h105zM770 700h93l-212 -700h-112l-104 343l-104 -343h-112l-211 700h93l177 -594l114 378l-65 216h88l177 -594z" />
    <glyph glyph-name="wacute" unicode="&#x1e83;" horiz-adv-x="695" 
d="M473 700l-101 -132h-84l80 132h105zM593 500h92l-170 -500h-81h-8l-78 227l-78 -227h-76h-13l-171 500h93l126 -398l80 239l-54 159h85l128 -393z" />
    <glyph glyph-name="Wdieresis" unicode="&#x1e84;" horiz-adv-x="870" 
d="M384 866v-92h-93v92h93zM579 866v-92h-93v92h93zM770 700h93l-212 -700h-112l-104 343l-104 -343h-112l-211 700h93l177 -594l114 378l-65 216h88l177 -594z" />
    <glyph glyph-name="wdieresis" unicode="&#x1e85;" horiz-adv-x="695" 
d="M297 666v-92h-93v92h93zM492 666v-92h-93v92h93zM593 500h92l-170 -500h-81h-8l-78 227l-78 -227h-76h-13l-171 500h93l126 -398l80 239l-54 159h85l128 -393z" />
    <glyph glyph-name="Ygrave" unicode="&#x1ef2;" horiz-adv-x="584" 
d="M342 768h-84l-101 132h105zM576 700l-238 -380v-320h-93v322l-237 378h104l180 -291l180 291h104z" />
    <glyph glyph-name="ygrave" unicode="&#x1ef3;" horiz-adv-x="480" 
d="M293 568l-80 132h-105l101 -132h84zM380 500h93l-245 -700h-93l72 205l-199 495h92l150 -374z" />
    <glyph glyph-name="endash" unicode="&#x2013;" horiz-adv-x="655" 
d="M75 265v84h505v-84h-505z" />
    <glyph glyph-name="emdash" unicode="&#x2014;" horiz-adv-x="755" 
d="M75 265v84h605v-84h-605z" />
    <glyph glyph-name="quoteleft" unicode="&#x2018;" horiz-adv-x="243" 
d="M175 659q-26 -5 -39 -23.5t-13 -63.5h52v-107h-107v107q0 58 27.5 93.5t79.5 39.5v-46z" />
    <glyph glyph-name="quoteright" unicode="&#x2019;" horiz-adv-x="243" 
d="M68 700h107v-107q0 -58 -27.5 -93.5t-79.5 -39.5v46q26 5 39 23.5t13 63.5h-52v107z" />
    <glyph glyph-name="quotesinglbase" unicode="&#x201a;" horiz-adv-x="243" 
d="M68 108h107v-108q0 -58 -27.5 -93t-79.5 -40v46q26 6 39 24.5t13 62.5h-52v108z" />
    <glyph glyph-name="quotedblleft" unicode="&#x201c;" horiz-adv-x="398" 
d="M68 572q0 58 27.5 93t79.5 40v-46q-26 -6 -39 -24.5t-13 -62.5h52v-108h-107v108zM330 659q-26 -5 -39 -23.5t-13 -63.5h52v-107h-107v107q0 58 27.5 93.5t79.5 39.5v-46z" />
    <glyph glyph-name="quotedblright" unicode="&#x201d;" horiz-adv-x="398" 
d="M223 701h107v-108q0 -58 -27.5 -93t-79.5 -40v46q26 6 39 24.5t13 62.5h-52v108zM68 593v107h107v-107q0 -58 -27.5 -93.5t-79.5 -39.5v46q26 5 39 23.5t13 63.5h-52z" />
    <glyph glyph-name="quotedblbase" unicode="&#x201e;" horiz-adv-x="398" 
d="M223 108h107v-108q0 -58 -27.5 -93t-79.5 -40v46q26 6 39 24.5t13 62.5h-52v108zM68 0v108h107v-108q0 -58 -27.5 -93t-79.5 -40v46q26 6 39 24.5t13 62.5h-52z" />
    <glyph glyph-name="dagger" unicode="&#x2020;" horiz-adv-x="480" 
d="M425 545v-84h-141v-461h-87v461h-142v84h142v155h87v-155h141z" />
    <glyph glyph-name="daggerdbl" unicode="&#x2021;" horiz-adv-x="480" 
d="M425 461h-141v-222h141v-84h-141v-155h-87v155h-142v84h142v222h-142v84h142v155h87v-155h141v-84z" />
    <glyph glyph-name="bullet" unicode="&#x2022;" horiz-adv-x="320" 
d="M161 238q-47 0 -80 33t-33 80t33 79.5t80 32.5t79.5 -32.5t32.5 -79.5t-32.5 -80t-79.5 -33z" />
    <glyph glyph-name="ellipsis" unicode="&#x2026;" horiz-adv-x="648" 
d="M270 0v108h108v-108h-108zM473 0v108h107v-108h-107zM68 0v108h107v-108h-107z" />
    <glyph glyph-name="perthousand" unicode="&#x2030;" horiz-adv-x="1113" 
d="M213 403q-68 0 -113 45t-45 110q0 64 45.5 109.5t112.5 45.5t112.5 -45.5t45.5 -109.5q0 -65 -44.5 -110t-113.5 -45zM91 0l491 700h93l-492 -700h-92zM213 476q35 0 57.5 24t22.5 58t-22.5 57.5t-57.5 23.5t-57.5 -23.5t-22.5 -57.5q0 -35 22.5 -58.5t57.5 -23.5z
M552 -12q-68 0 -113 45t-45 110t45 110t113 45t113 -45t45 -110t-45 -110t-113 -45zM917 -12q-68 0 -113 45t-45 110t45 110t113 45t113 -45t45 -110t-45 -110t-113 -45zM552 62q35 0 57.5 23.5t22.5 57.5t-22.5 57.5t-57.5 23.5t-57.5 -23.5t-22.5 -57.5t22.5 -57.5
t57.5 -23.5zM917 62q35 0 57.5 23.5t22.5 57.5t-22.5 57.5t-57.5 23.5t-57.5 -23.5t-22.5 -57.5t22.5 -57.5t57.5 -23.5z" />
    <glyph glyph-name="guilsinglleft" unicode="&#x2039;" horiz-adv-x="340" 
d="M272 492l-110 -183l110 -182h-94l-110 182l110 183h94z" />
    <glyph glyph-name="guilsinglright" unicode="&#x203a;" horiz-adv-x="340" 
d="M162 492l110 -183l-110 -182h-94l110 182l-110 183h94z" />
    <glyph glyph-name="fraction" unicode="&#x2044;" horiz-adv-x="210" 
d="M-60 0h-70l400 700h70z" />
    <glyph glyph-name="Euro" unicode="&#x20ac;" horiz-adv-x="628" 
d="M507 239h94q-14 -117 -80 -184.5t-171 -67.5q-110 0 -178 74t-86 202h-73v65h67v22q0 20 1 31h-68v64h74q19 125 87 196.5t176 71.5q104 0 169 -65.5t80 -178.5h-94q-10 74 -50.5 114t-104.5 40q-68 0 -111.5 -46t-58.5 -132h238v-64h-245v-31v-22h245v-65h-239
q14 -89 57.5 -137t113.5 -48q66 0 106.5 41.5t50.5 119.5z" />
    <glyph glyph-name="uni20BD" unicode="&#x20bd;" horiz-adv-x="594" 
d="M356 268h-161v-81h248v-68h-248v-119h-92v119h-85v68h85v81h-85v84h85v348h92h161q91 0 155 -63.5t64 -153.5t-63.5 -152.5t-155.5 -62.5zM195 613v-261h161q52 0 89.5 38.5t37.5 92.5t-37 92t-90 38h-161z" />
    <glyph glyph-name="uni2116" unicode="&#x2116;" horiz-adv-x="979" 
d="M783 403q-68 0 -113 45t-45 110q0 64 45.5 109.5t112.5 45.5t112.5 -45.5t45.5 -109.5q0 -65 -44.5 -110t-113.5 -45zM468 700h92v-700h-75l-317 518v-518h-93v700h75l318 -517v517zM783 478q35 0 57 23t22 57t-22 57t-57 23t-57 -23t-22 -57t22 -57t57 -23zM638 255v83
h292v-83h-292z" />
    <glyph glyph-name="trademark" unicode="&#x2122;" horiz-adv-x="465" 
d="M196 700v-43h-56v-157h-46v157h-56v43h158zM427 700v-200h-47v120l-39 -77h-36l-41 79v-122h-46v200h46h7l52 -106l52 106h52z" />
    <glyph glyph-name="estimated" unicode="&#x212e;" horiz-adv-x="810" 
d="M405 710q163 0 266.5 -104t103.5 -256q0 -15 -15 -15h-560q-15 0 -15 -15v-192q0 -11 7 -19q84 -89 233 -89q145 0 231 97q8 9 18 9h37q10 0 13 -6t-4 -13q-109 -117 -295 -117q-176 0 -283 103.5t-107 256.5q0 152 103.5 256t266.5 104zM625 572q0 11 -7 19
q-84 89 -213 89t-213 -89q-7 -8 -7 -19v-192q0 -15 15 -15h410q15 0 15 15v192z" />
    <glyph glyph-name="oneeighth" unicode="&#x215b;" horiz-adv-x="804" 
d="M198 300h-77v319l-103 -56v81l103 56h77v-400zM524 700h70l-400 -700h-70zM718 211q63 -34 63 -104q0 -55 -40 -87.5t-107 -32.5t-107 32.5t-40 87.5q0 70 63 104q-50 30 -50 86q0 53 38.5 84.5t95.5 31.5t95.5 -31.5t38.5 -84.5q0 -56 -50 -86zM634 344q-30 0 -46 -13.5
t-16 -36.5q0 -24 16 -38.5t46 -14.5q29 0 45.5 14.5t16.5 38.5q0 23 -16.5 36.5t-45.5 13.5zM634 58q34 0 53 16t19 43t-19.5 43t-52.5 16q-34 0 -53 -15.5t-19 -43.5q0 -27 19 -43t53 -16z" />
    <glyph glyph-name="threeeighths" unicode="&#x215c;" horiz-adv-x="900" 
d="M319 418q0 -60 -40.5 -95t-108.5 -35t-108.5 35t-40.5 95h78q0 -27 18.5 -43t52.5 -16t53 16t19 43t-19.5 43.5t-52.5 16.5h-43v51l83 99h-172v72h264v-66l-83 -100q47 -11 73.5 -41t26.5 -75zM621 700h70l-400 -700h-70zM815 211q63 -34 63 -104q0 -55 -40 -87.5
t-107 -32.5t-107 32.5t-40 87.5q0 70 63 104q-50 30 -50 86q0 53 38.5 84.5t95.5 31.5t95.5 -31.5t38.5 -84.5q0 -56 -50 -86zM731 344q-30 0 -46 -13.5t-16 -36.5q0 -24 16 -38.5t46 -14.5q29 0 45.5 14.5t16.5 38.5q0 23 -16.5 36.5t-45.5 13.5zM731 58q34 0 53 16t19 43
t-19.5 43t-52.5 16q-34 0 -53 -15.5t-19 -43.5q0 -27 19 -43t53 -16z" />
    <glyph glyph-name="fiveeighths" unicode="&#x215d;" horiz-adv-x="889" 
d="M307 417q0 -60 -39 -94.5t-105 -34.5t-105 35t-39 95h74q0 -27 18.5 -43.5t51.5 -16.5t51.5 16.5t18.5 43.5q0 29 -18.5 46t-51.5 17h-128l16 219h239v-71h-171l-5 -79h52q64 0 102.5 -35.5t38.5 -97.5zM609 700h70l-400 -700h-70zM803 211q63 -34 63 -104
q0 -55 -40 -87.5t-107 -32.5t-107 32.5t-40 87.5q0 70 63 104q-50 30 -50 86q0 53 38.5 84.5t95.5 31.5t95.5 -31.5t38.5 -84.5q0 -56 -50 -86zM719 344q-30 0 -46 -13.5t-16 -36.5q0 -24 16 -38.5t46 -14.5q29 0 45.5 14.5t16.5 38.5q0 23 -16.5 36.5t-45.5 13.5zM719 58
q34 0 53 16t19 43t-19.5 43t-52.5 16q-34 0 -53 -15.5t-19 -43.5q0 -27 19 -43t53 -16z" />
    <glyph glyph-name="seveneighths" unicode="&#x215e;" horiz-adv-x="846" 
d="M277 700v-61l-141 -339h-81l138 328h-185v72h269zM566 700h70l-400 -700h-70zM760 211q63 -34 63 -104q0 -55 -40 -87.5t-107 -32.5t-107 32.5t-40 87.5q0 70 63 104q-50 30 -50 86q0 53 38.5 84.5t95.5 31.5t95.5 -31.5t38.5 -84.5q0 -56 -50 -86zM676 344
q-30 0 -46 -13.5t-16 -36.5q0 -24 16 -38.5t46 -14.5q29 0 45.5 14.5t16.5 38.5q0 23 -16.5 36.5t-45.5 13.5zM676 58q34 0 53 16t19 43t-19.5 43t-52.5 16q-34 0 -53 -15.5t-19 -43.5q0 -27 19 -43t53 -16z" />
    <glyph glyph-name="arrowleft" unicode="&#x2190;" horiz-adv-x="813" 
d="M758 392v-84h-544l258 -258h-117l-300 300l300 300h117l-258 -258h544z" />
    <glyph glyph-name="arrowup" unicode="&#x2191;" horiz-adv-x="710" 
d="M655 400v-117l-256 257v-540h-87v540l-257 -257v117l300 300z" />
    <glyph glyph-name="arrowright" unicode="&#x2192;" horiz-adv-x="813" 
d="M458 650l300 -300l-300 -300h-117l258 258h-544v84h544l-258 258h117z" />
    <glyph glyph-name="arrowdown" unicode="&#x2193;" horiz-adv-x="710" 
d="M399 161l256 256v-117l-300 -300l-300 300v117l257 -256v539h87v-539z" />
    <glyph glyph-name="arrowboth" unicode="&#x2194;" horiz-adv-x="1055" 
d="M743 608l257 -258l-257 -257h-116l214 215h-628l215 -215h-116l-257 257l257 258h116l-215 -216h629l-215 216h116z" />
    <glyph glyph-name="arrowupdn" unicode="&#x2195;" horiz-adv-x="625" 
d="M570 450l-214 213v-626l214 213v-116l-257 -257l-258 257v116l214 -213v626l-214 -213v116l258 257l257 -257v-116z" />
    <glyph glyph-name="uni2196" unicode="&#x2196;" horiz-adv-x="640" 
d="M585 127l-61 -61l-387 387v-363l-82 82v424h424l82 -82h-363z" />
    <glyph glyph-name="uni2197" unicode="&#x2197;" horiz-adv-x="640" 
d="M161 596h424v-424l-82 -82v363l-387 -387l-61 61l387 387h-363z" />
    <glyph glyph-name="uni2198" unicode="&#x2198;" horiz-adv-x="640" 
d="M503 590l82 -82v-424h-424l-82 82h363l-387 387l61 60l387 -387v364z" />
    <glyph glyph-name="uni2199" unicode="&#x2199;" horiz-adv-x="640" 
d="M585 553l-387 -387h363l-82 -82h-424v424l82 82v-364l387 387z" />
    <glyph glyph-name="partialdiff" unicode="&#x2202;" horiz-adv-x="579" 
d="M235 713q121 0 205 -100.5t84 -262.5q0 -171 -75 -267t-191 -96q-97 0 -153.5 60.5t-56.5 152.5q0 103 60.5 167t167.5 64q88 0 159 -48q-7 107 -60.5 176t-145.5 70q-68 0 -125 -34v82q56 36 131 36zM260 71q74 0 120 61t55 169q-67 50 -153 50q-67 0 -107 -39t-40 -111
q0 -57 32 -93.5t93 -36.5z" />
    <glyph glyph-name="emptyset" unicode="&#x2205;" horiz-adv-x="804" 
d="M655 609q109 -107 109 -259q0 -150 -106 -256t-256 -106q-113 0 -204 63l-58 -71h-82l91 111q-109 107 -109 259q0 150 106 256t256 106q113 0 204 -63l58 71h83zM110 350q0 -121 82 -206l371 452q-74 48 -161 48q-122 0 -207 -85.5t-85 -208.5zM402 56q122 0 207 86
t85 208q0 121 -82 206l-371 -452q74 -48 161 -48z" />
    <glyph glyph-name="product" unicode="&#x220f;" horiz-adv-x="640" 
d="M75 -200v900h490v-900h-87v816h-316v-816h-87z" />
    <glyph glyph-name="summation" unicode="&#x2211;" horiz-adv-x="548" 
d="M45 -200v80l231 380l-216 359v81h440v-84h-339l215 -356l-229 -376h368v-84h-470z" />
    <glyph glyph-name="minus" unicode="&#x2212;" horiz-adv-x="545" 
d="M58 309v83h430v-83h-430z" />
    <glyph glyph-name="radical" unicode="&#x221a;" horiz-adv-x="655" 
d="M280 0l-132 224h-93v84h143l118 -205l233 697h91l-272 -800h-88z" />
    <glyph glyph-name="infinity" unicode="&#x221e;" horiz-adv-x="803" 
d="M581 515q72 0 120 -46.5t48 -118.5t-48 -118.5t-120 -46.5q-94 0 -179 101q-89 -101 -180 -101q-72 0 -120 46.5t-48 118.5t48 118.5t120 46.5q91 0 180 -101q85 101 179 101zM242 275q46 9 91 86q-63 72 -120 64q-32 -4 -49 -28.5t-12 -57.5t29.5 -51t60.5 -13zM652 339
q5 32 -12.5 57t-48.5 29q-58 8 -121 -64q47 -78 92 -86q36 -5 60.5 13t29.5 51z" />
    <glyph glyph-name="integral" unicode="&#x222b;" horiz-adv-x="440" 
d="M0 -203v86q47 -19 79.5 -2t40.5 66l104 614q16 95 72.5 129.5t143.5 11.5v-85q-54 18 -87.5 1t-41.5 -65l-104 -614q-16 -95 -71 -130t-136 -12z" />
    <glyph glyph-name="approxequal" unicode="&#x2248;" horiz-adv-x="586" 
d="M284 394q-49 28 -81.5 32t-49.5 -10t-30 -46l-68 28q26 89 89 111t157 -31q74 -40 107 -31.5t48 63.5l75 -35q-25 -88 -87.5 -110.5t-159.5 29.5zM130 190l-75 35q25 88 88.5 111t157.5 -30q50 -29 82.5 -32.5t49.5 10.5t30 46l68 -28q-26 -89 -88 -111t-159 31
q-73 39 -106 30.5t-48 -62.5z" />
    <glyph glyph-name="notequal" unicode="&#x2260;" horiz-adv-x="535" 
d="M480 410h-156l-53 -120h209v-83h-246l-64 -142h-60l64 142h-119v83h156l53 120h-209v83h246l64 142h60l-64 -142h119v-83z" />
    <glyph glyph-name="lessequal" unicode="&#x2264;" 
d="M468 618v-94l-308 -107l308 -106v-94l-413 159v82zM55 85v83h413v-83h-413z" />
    <glyph glyph-name="greaterequal" unicode="&#x2265;" 
d="M55 618l413 -160v-82l-413 -159v94l308 106l-308 107v94zM55 85v83h413v-83h-413z" />
    <glyph glyph-name="lozenge" unicode="&#x25ca;" horiz-adv-x="545" 
d="M234 0l-186 350l186 350h78l186 -350l-186 -350h-78zM273 104l131 246l-131 246l-132 -246z" />
    <glyph glyph-name="i.loclTRK" horiz-adv-x="220" 
d="M57 573v105h105v-105h-105zM66 0v500h87v-500h-87z" />
    <glyph glyph-name="a.ss01" horiz-adv-x="633" 
d="M480 500h87v-500h-87v85q-65 -98 -189 -98q-105 0 -179 76.5t-74 186.5t74 186.5t179 76.5q124 0 189 -98v85zM302 71q76 0 127 51.5t51 127.5t-51 127.5t-127 51.5q-75 0 -126 -51.5t-51 -127.5t51 -127.5t126 -51.5z" />
    <glyph glyph-name="aacute.ss01" horiz-adv-x="633" 
d="M428 700l-101 -132h-84l80 132h105zM480 500h87v-500h-87v85q-65 -98 -189 -98q-105 0 -179 76.5t-74 186.5t74 186.5t179 76.5q124 0 189 -98v85zM302 71q76 0 127 51.5t51 127.5t-51 127.5t-127 51.5q-75 0 -126 -51.5t-51 -127.5t51 -127.5t126 -51.5z" />
    <glyph glyph-name="abreve.ss01" horiz-adv-x="633" 
d="M303 557q-69 0 -109 35.5t-40 99.5h81q0 -65 68 -65t68 65h81q0 -64 -39.5 -99.5t-109.5 -35.5zM480 500h87v-500h-87v85q-65 -98 -189 -98q-105 0 -179 76.5t-74 186.5t74 186.5t179 76.5q124 0 189 -98v85zM302 71q76 0 127 51.5t51 127.5t-51 127.5t-127 51.5
q-75 0 -126 -51.5t-51 -127.5t51 -127.5t126 -51.5z" />
    <glyph glyph-name="acircumflex.ss01" horiz-adv-x="633" 
d="M302 646l-61 -81h-93l106 135h89h7l106 -135h-93zM480 500h87v-500h-87v85q-65 -98 -189 -98q-105 0 -179 76.5t-74 186.5t74 186.5t179 76.5q124 0 189 -98v85zM302 71q76 0 127 51.5t51 127.5t-51 127.5t-127 51.5q-75 0 -126 -51.5t-51 -127.5t51 -127.5t126 -51.5z
" />
    <glyph glyph-name="adieresis.ss01" horiz-adv-x="633" 
d="M252 666v-92h-93v92h93zM447 666v-92h-93v92h93zM480 500h87v-500h-87v85q-65 -98 -189 -98q-105 0 -179 76.5t-74 186.5t74 186.5t179 76.5q124 0 189 -98v85zM302 71q76 0 127 51.5t51 127.5t-51 127.5t-127 51.5q-75 0 -126 -51.5t-51 -127.5t51 -127.5t126 -51.5z
" />
    <glyph glyph-name="agrave.ss01" horiz-adv-x="633" 
d="M355 568h-84l-101 132h105zM480 500h87v-500h-87v85q-65 -98 -189 -98q-105 0 -179 76.5t-74 186.5t74 186.5t179 76.5q124 0 189 -98v85zM302 71q76 0 127 51.5t51 127.5t-51 127.5t-127 51.5q-75 0 -126 -51.5t-51 -127.5t51 -127.5t126 -51.5z" />
    <glyph glyph-name="amacron.ss01" horiz-adv-x="633" 
d="M438 648v-73h-270v73h270zM480 500h87v-500h-87v85q-65 -98 -189 -98q-105 0 -179 76.5t-74 186.5t74 186.5t179 76.5q124 0 189 -98v85zM302 71q76 0 127 51.5t51 127.5t-51 127.5t-127 51.5q-75 0 -126 -51.5t-51 -127.5t51 -127.5t126 -51.5z" />
    <glyph glyph-name="aogonek.ss01" horiz-adv-x="633" 
d="M567 0q-69 -66 -69 -114q0 -30 31 -30q21 0 38 8v-64q-33 -13 -67 -13q-40 0 -63 21.5t-23 58.5q0 60 66 135v83q-65 -98 -189 -98q-105 0 -179 76.5t-74 186.5t74 186.5t179 76.5q124 0 189 -98v85h87v-500zM302 71q76 0 127 51.5t51 127.5t-51 127.5t-127 51.5
q-75 0 -126 -51.5t-51 -127.5t51 -127.5t126 -51.5z" />
    <glyph glyph-name="aring.ss01" horiz-adv-x="633" 
d="M303 546q-50 0 -81.5 30.5t-31.5 76.5t31.5 76t81.5 30t81.5 -30t31.5 -76t-31.5 -76.5t-81.5 -30.5zM303 698q-22 0 -34.5 -13t-12.5 -32q0 -20 12.5 -33t34.5 -13q23 0 35.5 13t12.5 33t-12.5 32.5t-35.5 12.5zM480 500h87v-500h-87v85q-65 -98 -189 -98
q-105 0 -179 76.5t-74 186.5t74 186.5t179 76.5q124 0 189 -98v85zM302 71q76 0 127 51.5t51 127.5t-51 127.5t-127 51.5q-75 0 -126 -51.5t-51 -127.5t51 -127.5t126 -51.5z" />
    <glyph glyph-name="atilde.ss01" horiz-adv-x="633" 
d="M298 597q-36 30 -54 27.5t-18 -51.5h-73q0 64 23.5 96.5t58 31t72.5 -28.5q37 -30 54.5 -27.5t17.5 50.5h73q0 -64 -23 -96t-57.5 -30.5t-73.5 28.5zM480 500h87v-500h-87v85q-65 -98 -189 -98q-105 0 -179 76.5t-74 186.5t74 186.5t179 76.5q124 0 189 -98v85zM302 71
q76 0 127 51.5t51 127.5t-51 127.5t-127 51.5q-75 0 -126 -51.5t-51 -127.5t51 -127.5t126 -51.5z" />
    <glyph glyph-name="ae.ss01" horiz-adv-x="1014" 
d="M570 210q11 -68 57.5 -106t113.5 -38q47 0 83 20.5t52 52.5h91q-22 -70 -77.5 -111t-137.5 -41q-125 0 -188 96v-83h-84v85q-65 -98 -189 -98q-105 0 -179 76.5t-74 186.5t74 186.5t179 76.5q124 0 189 -98v85h84v-85q64 98 184 98q109 0 172.5 -77t63.5 -187
q0 -19 -3 -39h-411zM570 287h326q-9 70 -53 107t-104 37q-69 0 -114 -39.5t-55 -104.5zM302 71q76 0 127 51.5t51 127.5t-51 127.5t-127 51.5q-75 0 -126 -51.5t-51 -127.5t51 -127.5t126 -51.5z" />
    <glyph glyph-name="y.ss01" 
d="M370 500h87v-523q0 -90 -54.5 -140t-141.5 -50q-84 0 -139 46.5t-55 121.5h86q0 -42 30.5 -65t77.5 -23q48 0 78.5 27t30.5 83v85q-49 -75 -148 -75q-72 0 -120 51.5t-48 137.5v324h87v-321q0 -52 28.5 -80.5t75.5 -28.5q53 0 89 35.5t36 110.5v284z" />
    <glyph glyph-name="yacute.ss01" 
d="M380 700l-101 -132h-84l80 132h105zM370 500h87v-523q0 -90 -54.5 -140t-141.5 -50q-84 0 -139 46.5t-55 121.5h86q0 -42 30.5 -65t77.5 -23q48 0 78.5 27t30.5 83v85q-49 -75 -148 -75q-72 0 -120 51.5t-48 137.5v324h87v-321q0 -52 28.5 -80.5t75.5 -28.5q53 0 89 35.5
t36 110.5v284z" />
    <glyph glyph-name="ycircumflex.ss01" 
d="M254 646l-61 -81h-93l106 135h89h7l106 -135h-93zM370 500h87v-523q0 -90 -54.5 -140t-141.5 -50q-84 0 -139 46.5t-55 121.5h86q0 -42 30.5 -65t77.5 -23q48 0 78.5 27t30.5 83v85q-49 -75 -148 -75q-72 0 -120 51.5t-48 137.5v324h87v-321q0 -52 28.5 -80.5t75.5 -28.5
q53 0 89 35.5t36 110.5v284z" />
    <glyph glyph-name="ydieresis.ss01" 
d="M205 666v-92h-93v92h93zM400 666v-92h-93v92h93zM370 500h87v-523q0 -90 -54.5 -140t-141.5 -50q-84 0 -139 46.5t-55 121.5h86q0 -42 30.5 -65t77.5 -23q48 0 78.5 27t30.5 83v85q-49 -75 -148 -75q-72 0 -120 51.5t-48 137.5v324h87v-321q0 -52 28.5 -80.5t75.5 -28.5
q53 0 89 35.5t36 110.5v284z" />
    <glyph glyph-name="ygrave.ss01" 
d="M308 568h-84l-101 132h105zM370 500h87v-523q0 -90 -54.5 -140t-141.5 -50q-84 0 -139 46.5t-55 121.5h86q0 -42 30.5 -65t77.5 -23q48 0 78.5 27t30.5 83v85q-49 -75 -148 -75q-72 0 -120 51.5t-48 137.5v324h87v-321q0 -52 28.5 -80.5t75.5 -28.5q53 0 89 35.5
t36 110.5v284z" />
    <glyph glyph-name="f_f_j" horiz-adv-x="793" 
d="M727 500v-530q0 -97 -49 -143.5t-143 -39.5v84q54 -5 79.5 18t25.5 81v446h-185v-416h-87v416h-80h-105v-416h-87v416h-81v84h81v15q0 101 56 153t162 45v-84q-131 11 -131 -114v-15h131h54v25q0 198 218 198q42 0 104 -13v-79q-61 8 -104 8q-67 0 -99 -25.5t-32 -88.5
v-25h272z" />
    <glyph glyph-name="f_j" horiz-adv-x="521" 
d="M455 500v-530q0 -97 -49 -143.5t-144 -39.5v84q55 -5 80.5 18t25.5 81v446h-185v-416h-87v416h-81v84h81v15q0 198 218 198q41 0 103 -13v-79q-59 8 -103 8q-68 0 -99.5 -25.5t-31.5 -88.5v-15h272z" />
    <glyph glyph-name="uni0414.loclBGR" horiz-adv-x="710" 
d="M618 87h70v-87v-144h-93v144h-435h-45v-144h-92v180v51h69l211 613h105zM189 87h332l-166 503z" />
    <glyph glyph-name="uni041B.loclBGR" horiz-adv-x="616" 
d="M256 700h105l248 -700h-100l-201 589l-201 -589h-99z" />
    <glyph glyph-name="uni0424.loclBGR" horiz-adv-x="849" 
d="M812 350q0 -152 -94 -249.5t-248 -110.5v-90h-90v90q-155 13 -248.5 110t-93.5 250t93.5 250t248.5 110v90h90v-90q154 -13 248 -110.5t94 -249.5zM130 350q0 -117 66.5 -190t183.5 -85v550q-117 -12 -183.5 -85t-66.5 -190zM470 75q116 12 182.5 85t66.5 190t-66.5 190
t-182.5 85v-550z" />
    <glyph glyph-name="uni0414.ss01" horiz-adv-x="668" 
d="M560 87h75v-87h-167h-453v87h60q66 80 66 247v366h419v-613zM180 87h288v526h-234v-281q0 -158 -54 -245z" />
    <glyph glyph-name="uni0426.ss01" horiz-adv-x="665" 
d="M558 88h75v-88h-558v700h93v-612h297v612h93v-612z" />
    <glyph glyph-name="uni0429.ss01" horiz-adv-x="940" 
d="M833 88h75v-88h-833v700h93v-612h240v612h92v-612h240v612h93v-612z" />
    <glyph glyph-name="uni0414.loclBGR.ss01" horiz-adv-x="710" 
d="M618 87h70v-87h-138h-488h-39v87h69l211 613h105zM189 87h332l-166 503z" />
    <glyph glyph-name="uni0432.loclBGR" horiz-adv-x="569" 
d="M406 403q60 -21 92.5 -72t32.5 -126q0 -103 -61.5 -160.5t-170.5 -57.5t-171 65t-62 178v236q0 113 59.5 180t161.5 67q85 0 136 -47t51 -123q0 -77 -68 -140zM287 630q-62 0 -98 -44.5t-36 -119.5v-74l85 18q42 8 75 8q75 54 75 120q0 40 -27 66t-74 26zM299 72
q68 0 106.5 35t38.5 98q0 76 -56.5 109.5t-149.5 13.5l-85 -17v-81q0 -74 39 -116t107 -42z" />
    <glyph glyph-name="uni0433.loclBGR" horiz-adv-x="452" 
d="M331 150h86q0 -76 -53.5 -119.5t-137.5 -43.5q-88 0 -139.5 38t-51.5 107q0 52 29.5 85t71 47t83 24.5t71 28.5t29.5 49q0 33 -26.5 49.5t-63.5 16.5q-42 0 -71 -20.5t-29 -62.5h-86q0 75 53 119.5t133 44.5q75 0 126 -40.5t51 -106.5q0 -52 -29.5 -85t-71 -47t-83 -24.5
t-71 -28.5t-29.5 -49q0 -35 26.5 -49.5t77.5 -14.5q46 0 75.5 20t29.5 62z" />
    <glyph glyph-name="uni0434.loclBGR" horiz-adv-x="632" 
d="M481 500h86v-479q0 -111 -74 -172.5t-179 -61.5q-96 0 -169 54.5t-73 137.5h87q0 -41 42.5 -76t112.5 -35q80 0 123.5 41t43.5 112v70q-66 -99 -190 -99q-105 0 -179 76t-74 185q0 108 74 184t179 76q124 0 190 -99v86zM303 75q76 0 127 51t51 127q0 75 -51 126t-127 51
t-127 -51t-51 -126q0 -76 51 -127t127 -51z" />
    <glyph glyph-name="uni0436.loclBGR" horiz-adv-x="698" 
d="M681 0h-102l-187 235v-235h-86v235l-187 -235h-101l209 258l-199 242h101l177 -220v420h86v-420l177 220h102l-200 -242z" />
    <glyph glyph-name="uni0438.loclBGR" 
d="M370 500h87v-500h-87v62q-49 -75 -148 -75q-72 0 -120 51.5t-48 137.5v324h87v-321q0 -52 28.5 -80.5t75.5 -28.5q53 0 89 35.5t36 110.5v284z" />
    <glyph glyph-name="uni0439.loclBGR" 
d="M395 651v-76h-270v76h270zM370 500h87v-500h-87v62q-49 -75 -148 -75q-72 0 -120 51.5t-48 137.5v324h87v-321q0 -52 28.5 -80.5t75.5 -28.5q53 0 89 35.5t36 110.5v284z" />
    <glyph glyph-name="uni043A.loclBGR" horiz-adv-x="502" 
d="M487 0h-109l-225 236v-236h-87v700h87v-422l215 222h109l-237 -242z" />
    <glyph glyph-name="uni043B.loclBGR" horiz-adv-x="480" 
d="M473 0h-93l-140 401l-140 -401h-92l183 500h84h14z" />
    <glyph glyph-name="uni043F.loclBGR" 
d="M301 513q72 0 120 -51t48 -137v-325h-87v321q0 52 -28.5 80.5t-75.5 28.5q-52 0 -88.5 -35.5t-36.5 -109.5v-285h-87v500h87v-62q49 75 148 75z" />
    <glyph glyph-name="uni0442.loclBGR" horiz-adv-x="768" 
d="M557 513q68 0 112.5 -46.5t44.5 -129.5v-337h-87v334q0 49 -24.5 72.5t-62.5 23.5q-41 0 -73.5 -29.5t-32.5 -95.5v-305h-87v334q0 49 -25 72.5t-63 23.5q-41 0 -73.5 -29.5t-32.5 -95.5v-305h-87v500h87v-55q46 68 130 68q88 0 129 -79q50 79 145 79z" />
    <glyph glyph-name="uni0446.loclBGR" horiz-adv-x="560" 
d="M492 83h40v-83v-144h-86v148q-49 13 -67 57q-51 -74 -154 -74q-73 0 -122 51.5t-49 137.5v324h87v-321q0 -52 28.5 -80.5t75.5 -28.5q53 0 89 35.5t36 110.5v284h87v-382q0 -16 9.5 -25.5t25.5 -9.5z" />
    <glyph glyph-name="uni0448.loclBGR" horiz-adv-x="768" 
d="M615 500h87v-500h-87v55q-46 -68 -129 -68q-89 0 -130 79q-50 -79 -144 -79q-69 0 -113.5 46.5t-44.5 129.5v337h87v-334q0 -49 25 -72.5t63 -23.5q41 0 73.5 30t32.5 96v304h87v-334q0 -49 24.5 -72.5t62.5 -23.5q41 0 73.5 30t32.5 96v304z" />
    <glyph glyph-name="uni0449.loclBGR" horiz-adv-x="805" 
d="M737 83h40v-83v-144h-86v148q-46 12 -66 55q-48 -72 -140 -72q-89 0 -129 79q-50 -79 -145 -79q-68 0 -112.5 46.5t-44.5 129.5v337h87v-334q0 -49 24.5 -72.5t62.5 -23.5q41 0 73.5 30t32.5 96v304h87v-334q0 -49 25 -72.5t63 -23.5q41 0 73.5 30t32.5 96v304h87v-382
q0 -16 9.5 -25.5t25.5 -9.5z" />
    <glyph glyph-name="uni044C.loclBGR" horiz-adv-x="482" 
d="M257 346q94 0 145.5 -46t51.5 -128q0 -77 -56 -131t-144 -54q-92 0 -146 52.5t-54 134.5v326h86v-154h117zM254 71q49 0 81.5 31t32.5 70q0 44 -29.5 68.5t-81.5 24.5h-117v-91q0 -43 31 -73t83 -30z" />
    <glyph glyph-name="uni044A.loclBGR" horiz-adv-x="568" 
d="M341 346q94 0 146 -46t52 -128q0 -77 -56 -131t-144 -54q-92 0 -146 52.5t-54 134.5v243h-139v83h180h45v-154h116zM339 71q49 0 81.5 31t32.5 70q0 44 -29.5 68.5t-82.5 24.5h-116v-91q0 -43 31 -73t83 -30z" />
    <glyph glyph-name="uni044E.loclBGR" horiz-adv-x="804" 
d="M503 513q110 0 186.5 -76t76.5 -187t-76.5 -187t-186.5 -76q-99 0 -171 62.5t-86 159.5h-93v-209h-87v700h87v-408h93q14 96 86 158.5t171 62.5zM503 72q74 0 125 51t51 127t-51 127t-125 51q-75 0 -126 -51t-51 -127t51 -127t126 -51z" />
    <glyph glyph-name="uni0430.ss01" horiz-adv-x="633" 
d="M480 500h87v-500h-87v85q-65 -98 -189 -98q-105 0 -179 76.5t-74 186.5t74 186.5t179 76.5q124 0 189 -98v85zM302 71q76 0 127 51.5t51 127.5t-51 127.5t-127 51.5q-75 0 -126 -51.5t-51 -127.5t51 -127.5t126 -51.5z" />
    <glyph glyph-name="uni0443.ss01" 
d="M370 500h87v-523q0 -90 -54.5 -140t-141.5 -50q-84 0 -139 46.5t-55 121.5h86q0 -42 30.5 -65t77.5 -23q48 0 78.5 27t30.5 83v85q-49 -75 -148 -75q-72 0 -120 51.5t-48 137.5v324h87v-321q0 -52 28.5 -80.5t75.5 -28.5q53 0 89 35.5t36 110.5v284z" />
    <glyph glyph-name="zero.sinf" horiz-adv-x="410" 
d="M205 -173q-82 0 -129.5 58t-47.5 155t47.5 155t129.5 58t129.5 -58t47.5 -155t-47.5 -155t-129.5 -58zM205 -97q47 0 73 35t26 102t-26 102t-73 35t-73 -35t-26 -102t26 -102t73 -35z" />
    <glyph glyph-name="one.sinf" horiz-adv-x="254" 
d="M121 240h77v-400h-77v319l-103 -56v81z" />
    <glyph glyph-name="two.sinf" horiz-adv-x="345" 
d="M30 -160v57l162 153q40 37 40 77q0 24 -16.5 38.5t-44.5 14.5q-31 0 -48 -15.5t-17 -43.5h-77q0 61 40 96.5t102 35.5q61 0 99.5 -35t38.5 -90q0 -66 -64 -125l-100 -91h172v-72h-287z" />
    <glyph glyph-name="three.sinf" horiz-adv-x="351" 
d="M219 74q47 -10 73.5 -41t26.5 -75q0 -60 -40.5 -95.5t-108.5 -35.5t-108.5 35.5t-40.5 95.5h78q0 -28 18 -43.5t53 -15.5t53.5 16t18.5 43t-19.5 43.5t-52.5 16.5h-43v51l82 99h-171v72h264v-66z" />
    <glyph glyph-name="four.sinf" horiz-adv-x="355" 
d="M336 -18v-71h-47v-71h-76v71h-199v71l142 258h83l-140 -258h114v88h76v-88h47z" />
    <glyph glyph-name="five.sinf" horiz-adv-x="339" 
d="M170 90q64 0 102.5 -35.5t38.5 -97.5q0 -60 -39 -95t-105 -35t-105 35t-39 96h74q0 -27 18.5 -43.5t51.5 -16.5t51.5 16.5t18.5 43.5q0 28 -18.5 45.5t-51.5 17.5h-128l16 219h239v-71h-171l-5 -79h52z" />
    <glyph glyph-name="six.sinf" horiz-adv-x="337" 
d="M168 108q66 0 108 -40t42 -100t-42.5 -100.5t-107.5 -40.5t-107 40.5t-42 100.5q0 39 19 71l1 1q0 1 2 5l124 195h87l-89 -132h5zM168 -103q34 0 55 19.5t21 51.5t-21 51t-55 19t-54.5 -19t-20.5 -51t20.5 -51.5t54.5 -19.5z" />
    <glyph glyph-name="seven.sinf" horiz-adv-x="296" 
d="M8 240h269v-61l-141 -339h-81l138 328h-185v72z" />
    <glyph glyph-name="eight.sinf" horiz-adv-x="340" 
d="M254 50q63 -34 63 -103q0 -55 -40 -87.5t-107 -32.5t-107 32.5t-40 87.5q0 69 63 103q-50 32 -50 87q0 53 38.5 84.5t95.5 31.5t95.5 -31.5t38.5 -84.5q0 -55 -50 -87zM170 184q-30 0 -46 -13.5t-16 -36.5q0 -24 16 -38.5t46 -14.5q29 0 45.5 14.5t16.5 38.5
q0 23 -16.5 36.5t-45.5 13.5zM170 -102q34 0 53 16t19 43t-19.5 43t-52.5 16q-34 0 -53 -15.5t-19 -43.5q0 -27 19 -43t53 -16z" />
    <glyph glyph-name="nine.sinf" horiz-adv-x="337" 
d="M299 41l-1 -1l-3 -5l-123 -195h-87l89 132h-5q-66 0 -108 40t-42 100t42.5 100.5t107.5 40.5t107 -40.5t42 -100.5q0 -39 -19 -71zM93 112q0 -32 21 -51t55 -19t54.5 19t20.5 51t-20.5 51.5t-54.5 19.5t-55 -19.5t-21 -51.5z" />
    <glyph glyph-name="zero.tf" horiz-adv-x="573" 
d="M286 -13q-128 0 -199 99t-71 264t71 264t199 99t199 -99t71 -264t-71 -264t-199 -99zM286 78q85 0 131.5 70.5t46.5 201.5t-46.5 202t-131.5 71t-131 -71t-46 -202q0 -130 46 -201t131 -71z" />
    <glyph glyph-name="one.tf" horiz-adv-x="573" 
d="M359 88h187v-88h-280h-230v88h230v515l-193 -108v96l193 109h93v-612z" />
    <glyph glyph-name="two.tf" horiz-adv-x="573" 
d="M43 0v76l253 223q64 54 98 98.5t34 90.5q0 62 -39 98.5t-104 36.5q-62 0 -106 -36t-44 -100h-92q0 105 73 165.5t168 60.5q99 0 167.5 -61t68.5 -164q0 -121 -160 -250l-182 -148h356v-90h-491z" />
    <glyph glyph-name="three.tf" horiz-adv-x="573" 
d="M348 415q88 -14 142 -67.5t54 -138.5q0 -104 -73.5 -163t-185.5 -59t-185.5 59t-73.5 163h93q0 -63 44 -97t122 -34t122 34t44 97q0 62 -44.5 96.5t-121.5 34.5h-58v61l173 212h-344v87h457v-82z" />
    <glyph glyph-name="four.tf" horiz-adv-x="573" 
d="M554 220v-87h-85v-133h-93v133h-360v87l251 480h100l-251 -480h260v183h93v-183h85z" />
    <glyph glyph-name="five.tf" horiz-adv-x="573" 
d="M289 427q107 0 177 -58.5t70 -161.5t-71.5 -161.5t-178.5 -58.5t-178.5 58.5t-71.5 161.5h93q0 -61 42.5 -95t114.5 -34t115 34t43 95q0 62 -42.5 96t-115.5 34h-216l26 363h413v-87h-327l-13 -186h120z" />
    <glyph glyph-name="six.tf" horiz-adv-x="573" 
d="M279 460q118 0 189 -65t71 -171t-71 -171.5t-189 -65.5q-119 0 -189.5 65.5t-70.5 171.5q0 83 45 142l238 334h109l-174 -242q28 2 42 2zM279 76q79 0 123 40t44 108t-44 108t-123 40t-123.5 -40t-44.5 -108t44.5 -108t123.5 -40z" />
    <glyph glyph-name="seven.tf" horiz-adv-x="573" 
d="M35 700h500v-83l-278 -617h-97l275 612h-400v88z" />
    <glyph glyph-name="eight.tf" horiz-adv-x="573" 
d="M431 362q53 -26 82.5 -70.5t29.5 -99.5q0 -96 -69.5 -150.5t-187.5 -54.5q-117 0 -186.5 54.5t-69.5 150.5q0 55 29.5 99.5t82.5 70.5q-88 54 -88 153q0 94 65.5 146t166.5 52t167 -51.5t66 -146.5q0 -99 -88 -153zM286 624q-65 0 -102.5 -28t-37.5 -83q0 -53 38 -82.5
t102 -29.5q65 0 103 29.5t38 82.5q0 55 -37.5 83t-103.5 28zM286 76q79 0 122 32t43 90t-43 89.5t-122 31.5t-121.5 -31.5t-42.5 -89.5t42.5 -90t121.5 -32z" />
    <glyph glyph-name="nine.tf" horiz-adv-x="573" 
d="M554 476q0 -83 -45 -142l-239 -334h-108l173 242q-26 -2 -41 -2q-118 0 -189 65t-71 171t71 171.5t189 65.5t189 -65.5t71 -171.5zM126 476q0 -68 44.5 -107.5t123.5 -39.5t123 39.5t44 107.5q0 69 -44 108.5t-123 39.5t-123.5 -40t-44.5 -108z" />
    <glyph glyph-name="zero.dnom" horiz-adv-x="410" 
d="M205 -13q-82 0 -129.5 58t-47.5 155t47.5 155t129.5 58t129.5 -58t47.5 -155t-47.5 -155t-129.5 -58zM205 63q47 0 73 35t26 102t-26 102t-73 35t-73 -35t-26 -102t26 -102t73 -35z" />
    <glyph glyph-name="one.dnom" horiz-adv-x="254" 
d="M121 400h77v-400h-77v319l-103 -56v81z" />
    <glyph glyph-name="two.dnom" horiz-adv-x="345" 
d="M30 0v58l162 152q40 37 40 77q0 24 -16.5 38.5t-44.5 14.5q-31 0 -48 -15.5t-17 -43.5h-77q0 61 40 96.5t102 35.5q61 0 99.5 -35t38.5 -90q0 -66 -64 -125l-100 -90h172v-73h-287z" />
    <glyph glyph-name="three.dnom" horiz-adv-x="351" 
d="M219 234q47 -11 73.5 -41t26.5 -75q0 -60 -40.5 -95.5t-108.5 -35.5t-108.5 35.5t-40.5 95.5h78q0 -27 18.5 -43t52.5 -16t53 16t19 43t-19.5 43.5t-52.5 16.5h-43v51l83 99h-172v72h264v-66z" />
    <glyph glyph-name="four.dnom" horiz-adv-x="355" 
d="M336 143v-71h-47v-72h-76v72h-199v71l142 257h83l-140 -257h114v87h76v-87h47z" />
    <glyph glyph-name="five.dnom" horiz-adv-x="339" 
d="M166 250q64 0 103 -35.5t39 -97.5q0 -60 -39.5 -95t-105.5 -35t-105 35t-39 96h74q0 -27 19 -43.5t51 -16.5q34 0 52 16.5t18 43.5q0 29 -18.5 46t-51.5 17h-127l15 219h239v-71h-171l-5 -79h52z" />
    <glyph glyph-name="six.dnom" horiz-adv-x="337" 
d="M168 268q66 0 108 -40t42 -100t-42.5 -100.5t-107.5 -40.5t-107 40.5t-42 100.5q0 47 25 81l121 191h87l-89 -132h5zM168 58q34 0 55 19.5t21 50.5q0 32 -21 51t-55 19t-54.5 -19t-20.5 -51q0 -31 20.5 -50.5t54.5 -19.5z" />
    <glyph glyph-name="seven.dnom" horiz-adv-x="296" 
d="M8 400h269v-61l-141 -339h-81l138 328h-185v72z" />
    <glyph glyph-name="eight.dnom" horiz-adv-x="340" 
d="M254 211q63 -34 63 -104q0 -55 -40 -87.5t-107 -32.5t-107 32.5t-40 87.5q0 70 63 104q-50 30 -50 86q0 53 38.5 84.5t95.5 31.5t95.5 -31.5t38.5 -84.5q0 -56 -50 -86zM170 344q-30 0 -46 -13.5t-16 -36.5q0 -24 16 -38.5t46 -14.5q29 0 45.5 14.5t16.5 38.5
q0 23 -16.5 36.5t-45.5 13.5zM170 58q34 0 53 16t19 43t-19.5 43t-52.5 16q-34 0 -53 -15.5t-19 -43.5q0 -27 19 -43t53 -16z" />
    <glyph glyph-name="nine.dnom" horiz-adv-x="337" 
d="M318 272q0 -47 -25 -81l-121 -191h-87l89 132h-5q-66 0 -108 40t-42 100t42.5 100.5t107.5 40.5t107 -40.5t42 -100.5zM93 272q0 -32 21 -51t55 -19t54.5 19.5t20.5 50.5q0 32 -20.5 51.5t-54.5 19.5t-55 -19.5t-21 -51.5z" />
    <glyph glyph-name="zero.numr" horiz-adv-x="410" 
d="M205 288q-83 0 -130 57.5t-47 154.5t47.5 155t129.5 58t129.5 -58t47.5 -155t-47 -154.5t-130 -57.5zM205 363q47 0 73 35t26 102t-26 102t-73 35t-73 -35t-26 -102t26 -102t73 -35z" />
    <glyph glyph-name="one.numr" horiz-adv-x="254" 
d="M121 700h77v-400h-77v319l-103 -56v81z" />
    <glyph glyph-name="two.numr" horiz-adv-x="345" 
d="M30 300v58l162 152q40 37 40 77q0 24 -16.5 38.5t-44.5 14.5q-31 0 -48 -15.5t-17 -43.5h-77q0 61 40 96.5t102 35.5q61 0 99.5 -35t38.5 -90q0 -66 -64 -125l-100 -90h172v-73h-287z" />
    <glyph glyph-name="three.numr" horiz-adv-x="351" 
d="M219 534q47 -11 73.5 -41t26.5 -75q0 -60 -40.5 -95t-108.5 -35t-108.5 35t-40.5 95h78q0 -27 18.5 -43t52.5 -16t53 16t19 43t-19.5 43.5t-52.5 16.5h-43v51l83 99h-172v72h264v-66z" />
    <glyph glyph-name="four.numr" horiz-adv-x="355" 
d="M336 443v-71h-47v-72h-76v72h-199v71l142 257h83l-140 -257h114v87h76v-87h47z" />
    <glyph glyph-name="five.numr" horiz-adv-x="339" 
d="M166 550q64 0 103 -35.5t39 -97.5q0 -60 -39.5 -94.5t-105.5 -34.5t-105 35t-39 95h74q0 -27 19 -43.5t51 -16.5q34 0 52 16.5t18 43.5q0 29 -18.5 46t-51.5 17h-127l15 219h239v-71h-171l-5 -79h52z" />
    <glyph glyph-name="six.numr" horiz-adv-x="337" 
d="M168 568q66 0 108 -40t42 -100t-42 -100t-108 -40q-65 0 -107 40t-42 100q0 47 25 81l121 191h87l-89 -132h5zM168 358q34 0 55 19.5t21 50.5q0 32 -21 51t-55 19t-54.5 -19t-20.5 -51q0 -31 20.5 -50.5t54.5 -19.5z" />
    <glyph glyph-name="seven.numr" horiz-adv-x="296" 
d="M8 700h269v-61l-141 -339h-81l138 328h-185v72z" />
    <glyph glyph-name="eight.numr" horiz-adv-x="340" 
d="M254 511q63 -34 63 -104q0 -55 -40 -87t-107 -32t-107 32t-40 87q0 70 63 104q-50 30 -50 86q0 53 38.5 84.5t95.5 31.5t95.5 -31.5t38.5 -84.5q0 -56 -50 -86zM170 644q-30 0 -46 -13.5t-16 -36.5q0 -24 16 -38.5t46 -14.5q29 0 45.5 14.5t16.5 38.5q0 23 -16.5 36.5
t-45.5 13.5zM170 358q34 0 53 16t19 43t-19.5 43t-52.5 16q-34 0 -53 -15.5t-19 -43.5q0 -27 19 -43t53 -16z" />
    <glyph glyph-name="nine.numr" horiz-adv-x="337" 
d="M318 572q0 -47 -25 -81l-121 -191h-87l89 132h-5q-66 0 -108 40t-42 100t42.5 100.5t107.5 40.5t107 -40.5t42 -100.5zM93 572q0 -32 21 -51t55 -19t54.5 19t20.5 51t-20.5 51.5t-54.5 19.5t-55 -19.5t-21 -51.5z" />
    <glyph glyph-name="zero.sups" horiz-adv-x="410" 
d="M205 448q-83 0 -130 57.5t-47 154.5t47.5 155t129.5 58t129.5 -58t47.5 -155t-47 -154.5t-130 -57.5zM205 523q47 0 73 35t26 102t-26 102t-73 35t-73 -35t-26 -102t26 -102t73 -35z" />
    <glyph glyph-name="one.sups" horiz-adv-x="254" 
d="M121 860h77v-400h-77v319l-103 -56v81z" />
    <glyph glyph-name="two.sups" horiz-adv-x="345" 
d="M30 460v58l162 152q40 37 40 77q0 24 -16.5 38.5t-44.5 14.5q-31 0 -48 -15.5t-17 -43.5h-77q0 61 40 96.5t102 35.5q61 0 99.5 -35t38.5 -90q0 -66 -64 -125l-100 -90h172v-73h-287z" />
    <glyph glyph-name="three.sups" horiz-adv-x="351" 
d="M219 694q47 -11 73.5 -41t26.5 -75q0 -60 -40.5 -95t-108.5 -35t-108.5 35t-40.5 95h78q0 -27 18.5 -43t52.5 -16t53 16t19 43t-19.5 43.5t-52.5 16.5h-43v51l83 99h-172v72h264v-66z" />
    <glyph glyph-name="four.sups" horiz-adv-x="355" 
d="M336 603v-71h-47v-72h-76v72h-199v71l142 257h83l-140 -257h114v87h76v-87h47z" />
    <glyph glyph-name="five.sups" horiz-adv-x="339" 
d="M166 710q64 0 103 -35.5t39 -97.5q0 -60 -39.5 -94.5t-105.5 -34.5t-105 35t-39 95h74q0 -27 19 -43.5t51 -16.5q34 0 52 16.5t18 43.5q0 29 -18.5 46t-51.5 17h-127l15 219h239v-71h-171l-5 -79h52z" />
    <glyph glyph-name="six.sups" horiz-adv-x="337" 
d="M168 728q66 0 108 -40t42 -100t-42 -100t-108 -40q-65 0 -107 40t-42 100q0 47 25 81l121 191h87l-89 -132h5zM168 518q34 0 55 19.5t21 50.5q0 32 -21 51t-55 19t-54.5 -19t-20.5 -51q0 -31 20.5 -50.5t54.5 -19.5z" />
    <glyph glyph-name="seven.sups" horiz-adv-x="296" 
d="M8 860h269v-61l-141 -339h-81l138 328h-185v72z" />
    <glyph glyph-name="eight.sups" horiz-adv-x="340" 
d="M254 671q63 -34 63 -104q0 -55 -40 -87t-107 -32t-107 32t-40 87q0 70 63 104q-50 30 -50 86q0 53 38.5 84.5t95.5 31.5t95.5 -31.5t38.5 -84.5q0 -56 -50 -86zM170 804q-30 0 -46 -13.5t-16 -36.5q0 -24 16 -38.5t46 -14.5q29 0 45.5 14.5t16.5 38.5q0 23 -16.5 36.5
t-45.5 13.5zM170 518q34 0 53 16t19 43t-19.5 43t-52.5 16q-34 0 -53 -15.5t-19 -43.5q0 -27 19 -43t53 -16z" />
    <glyph glyph-name="nine.sups" horiz-adv-x="337" 
d="M318 732q0 -47 -25 -81l-121 -191h-87l89 132h-5q-66 0 -108 40t-42 100t42.5 100.5t107.5 40.5t107 -40.5t42 -100.5zM93 732q0 -32 21 -51t55 -19t54.5 19t20.5 51t-20.5 51.5t-54.5 19.5t-55 -19.5t-21 -51.5z" />
    <glyph glyph-name="cent.tf" horiz-adv-x="573" 
d="M304 173q52 0 93 26t58 69h92q-19 -80 -86.5 -130t-156.5 -50q-33 0 -68 8l-31 -96h-52l36 113q-68 31 -108 94t-40 143q0 112 75 187.5t188 75.5q26 0 45 -4l30 91h52l-33 -104q55 -20 95 -63.5t54 -99.5h-92q-23 57 -84 82l-109 -337q23 -5 42 -5zM128 350
q0 -49 24 -90t64 -64l107 331q-6 1 -19 1q-74 0 -125 -51t-51 -127z" />
    <glyph glyph-name="dollar.tf" horiz-adv-x="573" 
d="M535 179q0 -83 -61.5 -134t-155.5 -57v-88h-62v89q-98 10 -158 66.5t-60 151.5h92q0 -54 33 -86.5t93 -40.5v237q-47 17 -77.5 31.5t-63 38.5t-48.5 58.5t-16 79.5q0 81 58.5 130.5t146.5 55.5v89h62v-89q89 -10 145.5 -64t56.5 -143h-91q0 49 -29.5 78.5t-81.5 37.5
v-231q41 -15 65 -25t57 -29t51 -38.5t31 -50t13 -67.5zM143 525q0 -40 28.5 -65.5t84.5 -47.5v209q-52 -5 -82.5 -30t-30.5 -66zM318 78q58 5 91.5 31.5t33.5 69.5q0 40 -32 66.5t-93 49.5v-217z" />
    <glyph glyph-name="Euro.tf" horiz-adv-x="573" 
d="M459 239h94q-8 -115 -73 -183.5t-164 -68.5q-104 0 -167.5 74t-79.5 202h-64v65h59q-1 7 -1 22q0 20 1 31h-59v64h65q18 125 81.5 196.5t164.5 71.5q97 0 161 -66.5t74 -177.5h-94q-4 72 -44 113t-97 41q-62 0 -101 -46t-53 -132h222v-64h-228v-31v-22h228v-65h-223
q13 -90 52.5 -137.5t102.5 -47.5q59 0 99 42.5t44 118.5z" />
    <glyph glyph-name="florin.tf" horiz-adv-x="573" 
d="M545 618q-111 39 -137 -64l-41 -161h141v-84h-163l-94 -369q-49 -188 -223 -141v85q111 -37 136 64l92 361h-139v84h161l43 169q48 189 224 142v-86z" />
    <glyph glyph-name="uni20BD.tf" horiz-adv-x="573" 
d="M326 268h-138v-81h225v-68h-225v-119h-93v119h-85v68h85v81h-85v84h85v348h93h138q91 0 155 -63.5t64 -153.5t-63.5 -152.5t-155.5 -62.5zM188 613v-261h138q52 0 89.5 38.5t37.5 92.5t-37 92t-90 38h-138z" />
    <glyph glyph-name="sterling.tf" horiz-adv-x="573" 
d="M182 90h356v-90h-535v90h87v182h-70v81h70v146q0 103 62.5 158.5t148.5 55.5q83 0 147 -56t64 -158v-29h-92v29q0 61 -35 92.5t-84 31.5q-51 0 -85 -31t-34 -93v-146h219v-81h-219v-182z" />
    <glyph glyph-name="yen.tf" horiz-adv-x="573" 
d="M567 700l-215 -348h155v-65h-174v-55h174v-66h-174v-166h-93v166h-173v66h173v55h-173v65h154l-215 348h103l178 -292l177 292h103z" />
    <glyph glyph-name="brevecy" horiz-adv-x="320" 
d="M25 575v76h270v-76h-270z" />
    </font>
</defs>
</svg>
