<svg width="20" height="20" viewBox="0 0 20 20" fill="none" xmlns="http://www.w3.org/2000/svg">
<path d="M7.99988 10C7.99988 10.5523 7.55216 11 6.99988 11C6.44759 11 5.99988 10.5523 5.99988 10C5.99988 9.44775 6.44759 9.00003 6.99988 9.00003C7.55216 9.00003 7.99988 9.44775 7.99988 10Z" fill="#09425D"/>
<path d="M9.99988 11C10.5522 11 10.9999 10.5523 10.9999 10C10.9999 9.44775 10.5522 9.00003 9.99988 9.00003C9.44759 9.00003 8.99988 9.44775 8.99988 10C8.99988 10.5523 9.44759 11 9.99988 11Z" fill="#09425D"/>
<path d="M13.9999 10C13.9999 10.5523 13.5522 11 12.9999 11C12.4476 11 11.9999 10.5523 11.9999 10C11.9999 9.44775 12.4476 9.00003 12.9999 9.00003C13.5522 9.00003 13.9999 9.44775 13.9999 10Z" fill="#09425D"/>
<path fill-rule="evenodd" clip-rule="evenodd" d="M1.3999 10.2C1.3999 5.90002 5.2999 2.40002 9.9999 2.40002C14.6999 2.40002 18.5999 5.90002 18.7999 10.1C18.7999 14.4 14.8999 17.9 10.1999 17.9C9.39991 17.9 8.6999 17.9 7.9999 17.7C6.9999 18.3 5.8999 18.6 4.7999 18.6H4.1999C3.9999 18.5 3.8999 18.5 3.6999 18.5C3.3999 18.5 3.2999 18.3 3.1999 18.1C3.0999 17.9 3.1999 17.7 3.2999 17.5C3.5999 17.1 3.8999 16.5 3.9999 16C3.9999 15.8 3.7999 15.6 3.7999 15.6C2.1999 14.1 1.3999 12.2 1.3999 10.2ZM7.8999 16.4C8.5999 16.6 9.2999 16.7 9.9999 16.7C14.0999 16.7 17.3999 13.9 17.3999 10.2C17.3999 6.50002 14.0999 3.60002 9.9999 3.60002C5.8999 3.60002 2.5999 6.60002 2.5999 10.2C2.5999 11.9 3.2999 13.5 4.5999 14.7C5.0999 15.1 5.2999 15.7 5.1999 16.3C5.0999 16.7 4.9999 17 4.7999 17.3C5.6999 17.3 6.5999 17 7.3999 16.5C7.5999 16.4 7.6999 16.4 7.8999 16.4Z" fill="#09425D"/>
</svg>
