<svg width="20" height="20" viewBox="0 0 20 20" fill="none" xmlns="http://www.w3.org/2000/svg">
<path fill-rule="evenodd" clip-rule="evenodd" d="M5.3999 0.999994C5.3999 0.668623 5.66853 0.399994 5.9999 0.399994H14.1428C14.3049 0.399994 14.4601 0.465619 14.5731 0.581923L18.4303 4.55251C18.5391 4.66449 18.5999 4.81446 18.5999 4.97058V16C18.5999 16.3314 18.3313 16.6 17.9999 16.6C17.6685 16.6 17.3999 16.3314 17.3999 16V5.21403L13.8891 1.59999H5.9999C5.66853 1.59999 5.3999 1.33136 5.3999 0.999994ZM5.3999 8.05882C5.3999 7.72745 5.66853 7.45882 5.9999 7.45882H8.57133C8.9027 7.45882 9.17133 7.72745 9.17133 8.05882C9.17133 8.39019 8.9027 8.65882 8.57133 8.65882H5.9999C5.66853 8.65882 5.3999 8.39019 5.3999 8.05882ZM5.3999 11.5882C5.3999 11.2569 5.66853 10.9882 5.9999 10.9882H6.85705C7.18842 10.9882 7.45705 11.2569 7.45705 11.5882C7.45705 11.9196 7.18842 12.1882 6.85705 12.1882H5.9999C5.66853 12.1882 5.3999 11.9196 5.3999 11.5882ZM5.3999 15.1176C5.3999 14.7863 5.66853 14.5176 5.9999 14.5176H11.9999C12.3313 14.5176 12.5999 14.7863 12.5999 15.1176C12.5999 15.449 12.3313 15.7176 11.9999 15.7176H5.9999C5.66853 15.7176 5.3999 15.449 5.3999 15.1176Z" fill="#09425D"/>
<path fill-rule="evenodd" clip-rule="evenodd" d="M3.2999 4.59999C3.11776 4.59999 2.94085 4.67356 2.80872 4.80809C2.67622 4.94298 2.5999 5.12819 2.5999 5.32352V17.6765C2.5999 17.8718 2.67622 18.057 2.80872 18.1919C2.94085 18.3264 3.11776 18.4 3.2999 18.4H13.6999C13.882 18.4 14.0589 18.3264 14.1911 18.1919C14.3236 18.057 14.3999 17.8718 14.3999 17.6765V7.33361L11.7149 4.59999H3.2999ZM1.95261 3.9672C2.30807 3.60531 2.79248 3.39999 3.2999 3.39999H11.7516C12.052 3.40026 12.3382 3.52199 12.5472 3.73485L15.2752 6.51223C15.3791 6.61793 15.4609 6.74292 15.5165 6.87976C15.5719 7.01627 15.6001 7.16221 15.5999 7.3093V17.6765C15.5999 18.1832 15.4023 18.6713 15.0472 19.0328C14.6917 19.3947 14.2073 19.6 13.6999 19.6H3.2999C2.79248 19.6 2.30807 19.3947 1.95261 19.0328C1.59751 18.6713 1.3999 18.1832 1.3999 17.6765V5.32352C1.3999 4.81681 1.59751 4.32873 1.95261 3.9672Z" fill="#09425D"/>
<path fill-rule="evenodd" clip-rule="evenodd" d="M11.9999 4.39999C12.3313 4.39999 12.5999 4.66862 12.5999 4.99999V6.39999H13.9999C14.3313 6.39999 14.5999 6.66862 14.5999 6.99999C14.5999 7.33136 14.3313 7.59999 13.9999 7.59999H12.2999C12.0612 7.59999 11.8323 7.50517 11.6635 7.33639C11.4947 7.16761 11.3999 6.93869 11.3999 6.69999V4.99999C11.3999 4.66862 11.6685 4.39999 11.9999 4.39999Z" fill="#09425D"/>
</svg>
