<svg width="20" height="20" viewBox="0 0 20 20" fill="none" xmlns="http://www.w3.org/2000/svg">
<path fill-rule="evenodd" clip-rule="evenodd" d="M1.3999 5.99947C1.3999 5.99945 1.3999 5.99948 1.3999 5.99947V5.49999C1.3999 4.30431 2.42194 3.39999 3.5999 3.39999H16.3999C17.5779 3.39999 18.5999 4.30431 18.5999 5.49999V5.98693C18.6001 5.99528 18.6001 6.00362 18.5999 6.01196V14.5C18.5999 15.6957 17.5779 16.6 16.3999 16.6H3.5999C2.42194 16.6 1.3999 15.6957 1.3999 14.5V5.99947ZM2.5999 5.49999C2.5999 5.03883 3.01055 4.59999 3.5999 4.59999H16.3999C16.9893 4.59999 17.3999 5.03883 17.3999 5.49999V5.67778L10.4959 10.2508L10.4944 10.2518C10.3441 10.3495 10.1728 10.4 9.99997 10.4C9.82708 10.4 9.65583 10.3495 9.50549 10.2517L2.5999 5.67769V5.49999ZM17.3999 7.11715V14.5C17.3999 14.9612 16.9893 15.4 16.3999 15.4H3.5999C3.01055 15.4 2.5999 14.9612 2.5999 14.5V7.11706L8.84463 11.2534L8.84789 11.2555C9.19118 11.4797 9.5905 11.6 9.99997 11.6C10.4094 11.6 10.8088 11.4797 11.152 11.2555L17.3999 7.11715Z" fill="#09425D"/>
</svg>
