<svg width="20" height="20" viewBox="0 0 20 20" fill="none" xmlns="http://www.w3.org/2000/svg">
<path fill-rule="evenodd" clip-rule="evenodd" d="M6.92399 2.54911C7.73977 1.73333 8.84621 1.27502 9.9999 1.27502C11.1536 1.27502 12.26 1.73333 13.0758 2.54911C13.8916 3.36489 14.3499 4.47133 14.3499 5.62502V8.15002H14.3749C15.0313 8.15002 15.6608 8.41078 16.125 8.87494C16.5891 9.33909 16.8499 9.96861 16.8499 10.625V16.25C16.8499 16.9064 16.5891 17.536 16.125 18.0001C15.6608 18.4643 15.0313 18.725 14.3749 18.725H5.6249C4.96849 18.725 4.33897 18.4643 3.87481 18.0001C3.41066 17.536 3.1499 16.9064 3.1499 16.25V10.625C3.1499 9.96861 3.41066 9.33909 3.87481 8.87494C4.33897 8.41078 4.96849 8.15002 5.6249 8.15002H5.6499V5.62502C5.6499 4.47133 6.1082 3.36489 6.92399 2.54911ZM5.6249 9.35002C5.28675 9.35002 4.96245 9.48435 4.72334 9.72346C4.48423 9.96257 4.3499 10.2869 4.3499 10.625V16.25C4.3499 16.5882 4.48423 16.9125 4.72334 17.1516C4.96245 17.3907 5.28675 17.525 5.6249 17.525H14.3749C14.7131 17.525 15.0374 17.3907 15.2765 17.1516C15.5156 16.9125 15.6499 16.5882 15.6499 16.25V10.625C15.6499 10.2869 15.5156 9.96257 15.2765 9.72346C15.0374 9.48435 14.7131 9.35002 14.3749 9.35002H5.6249ZM13.1499 8.15002H6.8499V5.62502C6.8499 4.78959 7.18178 3.98838 7.77252 3.39764C8.36326 2.8069 9.16447 2.47502 9.9999 2.47502C10.8353 2.47502 11.6365 2.8069 12.2273 3.39764C12.818 3.98838 13.1499 4.78959 13.1499 5.62502V8.15002Z" fill="#7A8F99"/>
</svg>
