<svg width="30" height="30" viewBox="0 0 30 30" fill="none" xmlns="http://www.w3.org/2000/svg">
<g id="X">
<path id="Vector" d="M24.4326 22.4426C24.6968 22.7068 24.8452 23.0651 24.8452 23.4387C24.8452 23.8123 24.6968 24.1706 24.4326 24.4348C24.1684 24.699 23.8101 24.8474 23.4365 24.8474C23.0629 24.8474 22.7046 24.699 22.4404 24.4348L15.0002 16.9922L7.55762 24.4324C7.29343 24.6966 6.93513 24.845 6.56152 24.845C6.18791 24.845 5.82961 24.6966 5.56543 24.4324C5.30125 24.1683 5.15283 23.81 5.15283 23.4364C5.15283 23.0627 5.30125 22.7044 5.56543 22.4403L13.008 15L5.56777 7.55744C5.30359 7.29326 5.15518 6.93496 5.15518 6.56135C5.15518 6.18774 5.30359 5.82944 5.56777 5.56526C5.83195 5.30108 6.19026 5.15266 6.56386 5.15266C6.93747 5.15266 7.29578 5.30108 7.55996 5.56526L15.0002 13.0078L22.4428 5.56408C22.707 5.2999 23.0653 5.15149 23.4389 5.15149C23.8125 5.15149 24.1708 5.2999 24.435 5.56408C24.6991 5.82827 24.8476 6.18657 24.8476 6.56018C24.8476 6.93379 24.6991 7.29209 24.435 7.55627L16.9924 15L24.4326 22.4426Z" fill="#5898FF"/>
</g>
</svg>
