<?xml version="1.0" encoding="utf-8"?>
<!-- Generator: Adobe Illustrator 21.1.0, SVG Export Plug-In . SVG Version: 6.00 Build 0)  -->
<svg version="1.1" id="Capa_1" xmlns="http://www.w3.org/2000/svg" xmlns:xlink="http://www.w3.org/1999/xlink" x="0px" y="0px"
	 viewBox="0 0 50 47" style="enable-background:new 0 0 50 47;" xml:space="preserve">
<style type="text/css">
	.st0{fill:#1A1A1A;}
</style>
<g>
	<path class="st0" d="M32.3,34.5c-0.4,0-0.7,0.3-0.7,0.7s0.3,0.7,0.7,0.7h14.4c0.4,0,0.7-0.3,0.7-0.7s-0.3-0.7-0.7-0.7H32.3z"/>
	<path class="st0" d="M49.2,13.1c-0.6-0.7-1.4-1.2-2.3-1.3L46,6.7V4.1c0-0.4-0.3-0.7-0.7-0.7H34V0.7C34,0.3,33.7,0,33.3,0h-16
		c-0.4,0-0.7,0.3-0.7,0.7v8.3c0,0.4,0.3,0.7,0.7,0.7c0.4,0,0.7-0.3,0.7-0.7V1.5h14.6l0,10.3h-19l-1.2-6c-0.1-0.3-0.4-0.6-0.7-0.6
		H8.1c-0.3-1-1.2-1.8-2.2-1.8H2.3C1,3.3,0,4.4,0,5.7v0.5c0,1.3,1,2.4,2.3,2.4h3.5c1.1,0,2.1-0.8,2.3-1.9H11l5,24.7
		c0.6,2.7,3,4.7,5.7,4.7h1.6l-3.1,3.2c-1,1-1.3,2.6-0.7,3.9c0.5,1.3,1.8,2.2,3.2,2.2h2c0.3,1,1.3,1.8,2.4,1.8c1.1,0,2.1-0.8,2.4-1.8
		h9.2c0.3,1,1.3,1.8,2.4,1.8s2.1-0.8,2.4-1.8h3.3c0.4,0,0.7-0.3,0.7-0.7c0-0.4-0.3-0.7-0.7-0.7h-3.3c-0.3-1-1.3-1.8-2.4-1.8
		s-2.1,0.8-2.4,1.8h-9.2c-0.3-1-1.3-1.8-2.4-1.8s-2.1,0.8-2.4,1.8h-2c-1.8,0-2.7-2.2-1.4-3.5l4.1-4.2h3.4c0.4,0,0.7-0.3,0.7-0.7
		s-0.3-0.7-0.7-0.7h-7c-2.2,0-4-1.7-4.4-3.9h26.8c1.7,0,3.2-1.2,3.5-3l2.2-11.5C50.1,15,49.9,13.9,49.2,13.1L49.2,13.1z M6.7,6.2
		C6.7,6.6,6.3,7,5.8,7H2.3C1.8,7,1.5,6.6,1.5,6.2V5.7c0-0.5,0.4-0.9,0.8-0.9h3.5c0.5,0,0.8,0.4,0.8,0.9V6.2z M41,43.4
		c0.6,0,1,0.5,1,1c0,0,0,0,0,0c0,0,0,0,0,0c0,0.6-0.5,1-1,1c-0.6,0-1-0.5-1-1c0,0,0,0,0,0c0,0,0,0,0,0C40,43.9,40.4,43.4,41,43.4
		L41,43.4z M27,43.4c0.6,0,1,0.5,1,1c0,0.6-0.5,1-1,1s-1-0.5-1-1C26,43.9,26.5,43.4,27,43.4z M34,7.5h10.6l0.8,4.2H34L34,7.5z
		 M44.5,4.8V6H34V4.8H44.5z M48.5,15.8l-2.2,11.5c-0.2,1-1.1,1.8-2.1,1.8H17.1l-3.2-15.9h32.5C47.7,13.2,48.7,14.5,48.5,15.8
		L48.5,15.8z"/>
	<path class="st0" d="M20,16.6c-0.1-0.4-0.4-0.7-0.8-0.6c-0.4,0.1-0.7,0.4-0.6,0.8l1.1,8.6c0,0.4,0.4,0.6,0.7,0.6c0,0,0.1,0,0.1,0
		c0.4-0.1,0.7-0.4,0.6-0.8L20,16.6z"/>
	<path class="st0" d="M26.2,16.7c0-0.4-0.4-0.7-0.8-0.7c-0.4,0-0.7,0.4-0.7,0.8l0.6,8.6c0,0.4,0.3,0.7,0.7,0.7c0,0,0,0,0,0
		c0.4,0,0.7-0.4,0.7-0.8L26.2,16.7z"/>
	<path class="st0" d="M31.6,16c-0.4,0-0.7,0.3-0.7,0.7v8.6c0,0.4,0.3,0.7,0.7,0.7c0.4,0,0.7-0.3,0.7-0.7v-8.6
		C32.4,16.3,32.1,16,31.6,16z"/>
	<path class="st0" d="M37.9,16c-0.4,0-0.8,0.3-0.8,0.7l-0.6,8.6c0,0.4,0.3,0.8,0.7,0.8c0,0,0,0,0,0c0.4,0,0.7-0.3,0.7-0.7l0.6-8.6
		C38.6,16.4,38.3,16,37.9,16L37.9,16z"/>
	<path class="st0" d="M44.1,16c-0.4-0.1-0.8,0.2-0.8,0.6l-1.1,8.6c-0.1,0.4,0.2,0.8,0.6,0.8c0,0,0.1,0,0.1,0c0.4,0,0.7-0.3,0.7-0.6
		l1.1-8.6C44.8,16.4,44.5,16,44.1,16L44.1,16z"/>
	<path class="st0" d="M22.8,4.8c0.4,0,0.7-0.3,0.7-0.7c0-0.4-0.3-0.7-0.7-0.7h-2.4c-0.4,0-0.7,0.3-0.7,0.7c0,0.4,0.3,0.7,0.7,0.7
		H22.8z"/>
</g>
</svg>
