<?xml version="1.0" encoding="utf-8"?>
<!-- Generator: Adobe Illustrator 21.1.0, SVG Export Plug-In . SVG Version: 6.00 Build 0)  -->
<svg version="1.1" id="Icons" xmlns="http://www.w3.org/2000/svg" xmlns:xlink="http://www.w3.org/1999/xlink" x="0px" y="0px"
	 viewBox="0 0 32 55.2" style="enable-background:new 0 0 32 55.2;" xml:space="preserve">
<style type="text/css">
	.st0{fill:#1A1A1A;}
</style>
<path class="st0" d="M28.9,55.2H3.1C1.4,55.2,0,53.8,0,52V3.3c0-1.7,1.4-3.1,3.1-3.1h25.8c1.7,0,3.1,1.4,3.1,3.1V52
	C32,53.8,30.6,55.2,28.9,55.2z M3.1,1.7c-0.9,0-1.6,0.7-1.6,1.6V52c0,0.9,0.7,1.6,1.6,1.6h25.8c0.9,0,1.6-0.7,1.6-1.6V3.3
	c0-0.9-0.7-1.6-1.6-1.6H3.1z"/>
<path class="st0" d="M31.2,8.8H0.8C0.3,8.8,0,8.5,0,8c0-0.4,0.3-0.8,0.8-0.8h30.4C31.7,7.2,32,7.6,32,8C32,8.5,31.7,8.8,31.2,8.8z"
	/>
<path class="st0" d="M31.2,45H0.8C0.3,45,0,44.6,0,44.2s0.3-0.8,0.8-0.8h30.4c0.4,0,0.8,0.4,0.8,0.8S31.7,45,31.2,45z"/>
<path class="st0" d="M16,52.2c-1.6,0-2.9-1.3-2.9-2.9c0-1.6,1.3-2.9,2.9-2.9c1.6,0,2.9,1.3,2.9,2.9C18.9,50.9,17.6,52.2,16,52.2z
	 M16,47.9c-0.7,0-1.3,0.6-1.3,1.3c0,0.7,0.6,1.3,1.3,1.3c0.7,0,1.3-0.6,1.3-1.3c0,0,0,0,0,0C17.3,48.5,16.7,47.9,16,47.9L16,47.9z"
	/>
<path class="st0" d="M19.1,5.5h-6.2c-0.4,0-0.8-0.4-0.8-0.8c0-0.4,0.3-0.8,0.8-0.8h6.2c0.4,0,0.8,0.4,0.8,0.8
	C19.9,5.1,19.6,5.5,19.1,5.5z"/>
<path class="st0" d="M11.1,26.3h-5c-0.3,0-0.6-0.4-0.6-0.8s0.3-0.8,0.6-0.8h5c0.3,0,0.6,0.4,0.6,0.8S11.5,26.3,11.1,26.3z"/>
<path class="st0" d="M18.5,26.3h-5c-0.3,0-0.6-0.4-0.6-0.8s0.3-0.8,0.6-0.8h5c0.3,0,0.6,0.4,0.6,0.8S18.8,26.3,18.5,26.3z"/>
<path class="st0" d="M25.8,26.3h-5c-0.3,0-0.6-0.4-0.6-0.8s0.3-0.8,0.6-0.8h5c0.3,0,0.6,0.4,0.6,0.8S26.1,26.3,25.8,26.3z"/>
</svg>
