<?xml version="1.0" encoding="utf-8"?>
<!-- Generator: Adobe Illustrator 21.1.0, SVG Export Plug-In . SVG Version: 6.00 Build 0)  -->
<svg version="1.1" id="Capa_1" xmlns="http://www.w3.org/2000/svg" xmlns:xlink="http://www.w3.org/1999/xlink" x="0px" y="0px"
	 viewBox="0 0 45 45" style="enable-background:new 0 0 45 45;" xml:space="preserve">
<style type="text/css">
	.st0{fill:#1A1A1A;}
</style>
<g>
	<path class="st0" d="M0.9,18.1h12.8v4.4c0,0.5,0.4,0.9,0.9,0.9s0.9-0.4,0.9-0.9v-4.4h1.8c0.5,0,0.9-0.4,0.9-0.9V7.3h3.5v4.4
		c0,0.5,0.4,0.9,0.9,0.9s0.9-0.4,0.9-0.9V6.4c0-0.5-0.4-0.9-0.9-0.9h-4.4V0.9c0-0.5-0.4-0.9-0.9-0.9H3.5C1.6,0,0,1.6,0,3.5v13.7
		C0,17.7,0.4,18.1,0.9,18.1z M1.8,3.5c0-1,0.8-1.8,1.8-1.8h12.8v14.6H1.8V3.5z"/>
	<path class="st0" d="M11.7,5.5H6.4c-0.5,0-0.9,0.4-0.9,0.9v5.3c0,0.5,0.4,0.9,0.9,0.9h5.3c0.5,0,0.9-0.4,0.9-0.9V6.4
		C12.6,5.9,12.2,5.5,11.7,5.5z M10.8,10.8H7.3V7.3h3.5V10.8z"/>
	<path class="st0" d="M12.6,38.6v-5.3c0-0.5-0.4-0.9-0.9-0.9H6.4c-0.5,0-0.9,0.4-0.9,0.9v5.3c0,0.5,0.4,0.9,0.9,0.9h5.3
		C12.2,39.5,12.6,39.1,12.6,38.6z M10.8,37.7H7.3v-3.5h3.5V37.7z"/>
	<path class="st0" d="M41.5,0H27.8c-0.5,0-0.9,0.4-0.9,0.9v16.3c0,0.5,0.4,0.9,0.9,0.9h16.3c0.5,0,0.9-0.4,0.9-0.9V3.5
		C45,1.6,43.4,0,41.5,0z M43.2,16.3H28.7V1.8h12.8c1,0,1.8,0.8,1.8,1.8V16.3z"/>
	<path class="st0" d="M38.6,5.5h-5.3c-0.5,0-0.9,0.4-0.9,0.9v5.3c0,0.5,0.4,0.9,0.9,0.9h5.3c0.5,0,0.9-0.4,0.9-0.9V6.4
		C39.5,5.9,39.1,5.5,38.6,5.5z M37.7,10.8h-3.5V7.3h3.5V10.8z"/>
	<path class="st0" d="M44.1,26.9c-0.5,0-0.9,0.4-0.9,0.9v5.5c0,0.5,0.4,0.9,0.9,0.9s0.9-0.4,0.9-0.9v-5.5
		C45,27.3,44.6,26.9,44.1,26.9z"/>
	<path class="st0" d="M44.1,37.7c-0.5,0-0.9,0.4-0.9,0.9v2.9c0,1-0.8,1.8-1.8,1.8h-8.2c-0.5,0-0.9,0.4-0.9,0.9s0.4,0.9,0.9,0.9h8.2
		c1.9,0,3.5-1.6,3.5-3.5v-2.9C45,38.1,44.6,37.7,44.1,37.7z"/>
	<path class="st0" d="M27.8,37.7c-0.5,0-0.9,0.4-0.9,0.9v5.5c0,0.5,0.4,0.9,0.9,0.9s0.9-0.4,0.9-0.9v-5.5
		C28.7,38.1,28.3,37.7,27.8,37.7z"/>
	<path class="st0" d="M27.8,26.9c-0.5,0-0.9,0.4-0.9,0.9v5.5c0,0.5,0.4,0.9,0.9,0.9s0.9-0.4,0.9-0.9v-4.7h9.9c0.5,0,0.9-0.4,0.9-0.9
		v-5.3c0-0.5-0.4-0.9-0.9-0.9h-5.3c-0.5,0-0.9,0.4-0.9,0.9s0.4,0.9,0.9,0.9h4.4v3.5H27.8z"/>
	<path class="st0" d="M38.6,32.4h-5.3c-0.5,0-0.9,0.4-0.9,0.9v5.3c0,0.5,0.4,0.9,0.9,0.9h5.3c0.5,0,0.9-0.4,0.9-0.9v-5.3
		C39.5,32.8,39.1,32.4,38.6,32.4z M37.7,37.7h-3.5v-3.5h3.5V37.7z"/>
	<path class="st0" d="M27.8,21.6h-4.4v-4.4c0-0.5-0.4-0.9-0.9-0.9s-0.9,0.4-0.9,0.9v5.3c0,0.5,0.4,0.9,0.9,0.9h5.3
		c0.5,0,0.9-0.4,0.9-0.9S28.3,21.6,27.8,21.6z"/>
	<path class="st0" d="M22.5,37.7c-0.5,0-0.9,0.4-0.9,0.9v2.9c0,0.5,0.4,0.9,0.9,0.9s0.9-0.4,0.9-0.9v-2.9
		C23.4,38.1,23,37.7,22.5,37.7z"/>
	<circle class="st0" cx="9.1" cy="44.1" r="0.9"/>
	<path class="st0" d="M3.5,45h1.6C5.6,45,6,44.6,6,44.1s-0.4-0.9-0.9-0.9H3.5c-1,0-1.8-0.8-1.8-1.8V28.7h14.6v14.6H13
		c-0.5,0-0.9,0.4-0.9,0.9S12.5,45,13,45h4.2c0.5,0,0.9-0.4,0.9-0.9V31.3h3.5v2c0,0.5,0.4,0.9,0.9,0.9s0.9-0.4,0.9-0.9v-2.9
		c0-0.5-0.4-0.9-0.9-0.9h-4.4v-1.8c0-0.5-0.4-0.9-0.9-0.9H4.4v-3.5h4.7c0.5,0,0.9-0.4,0.9-0.9s-0.4-0.9-0.9-0.9H3.5
		c-0.5,0-0.9,0.4-0.9,0.9v4.4H0.9c-0.5,0-0.9,0.4-0.9,0.9v13.7C0,43.4,1.6,45,3.5,45z"/>
</g>
</svg>
