<svg width="63" height="36" viewBox="0 0 63 36" fill="none" xmlns="http://www.w3.org/2000/svg">
<path d="M30.0727 0.6C29.9393 1.86667 29.8393 3.1 29.7727 4.3C29.7393 5.46667 29.7227 6.36666 29.7227 7C29.7227 7.8 29.7393 8.55 29.7727 9.25C29.806 9.95 29.8393 10.5667 29.8727 11.1H28.7227C28.4893 8.76667 28.1727 6.93333 27.7727 5.6C27.3727 4.23333 26.6727 3.25 25.6727 2.65C24.6727 2.05 23.1227 1.75 21.0227 1.75H18.3227V30.2C18.3227 31.5333 18.4393 32.5333 18.6727 33.2C18.9393 33.8667 19.4393 34.3167 20.1727 34.55C20.906 34.7833 21.9727 34.9333 23.3727 35V36C22.506 35.9333 21.406 35.9 20.0727 35.9C18.7393 35.8667 17.3893 35.85 16.0227 35.85C14.5227 35.85 13.106 35.8667 11.7727 35.9C10.4727 35.9 9.42266 35.9333 8.62266 36V35C10.0227 34.9333 11.0893 34.7833 11.8227 34.55C12.556 34.3167 13.0393 33.8667 13.2727 33.2C13.5393 32.5333 13.6727 31.5333 13.6727 30.2V1.75H10.9727C8.90599 1.75 7.35599 2.05 6.32266 2.65C5.32266 3.25 4.62266 4.23333 4.22266 5.6C3.82266 6.93333 3.50599 8.76667 3.27266 11.1H2.12266C2.18932 10.5667 2.22266 9.95 2.22266 9.25C2.25599 8.55 2.27266 7.8 2.27266 7C2.27266 6.36666 2.23932 5.46667 2.17266 4.3C2.13932 3.1 2.05599 1.86667 1.92266 0.6C3.32266 0.633333 4.83932 0.666666 6.47266 0.699998C8.13932 0.733331 9.80599 0.749998 11.4727 0.749998C13.1393 0.749998 14.656 0.749998 16.0227 0.749998C17.3893 0.749998 18.8893 0.749998 20.5227 0.749998C22.1893 0.749998 23.856 0.733331 25.5227 0.699998C27.1893 0.666666 28.706 0.633333 30.0727 0.6Z" fill="white"/>
<path d="M49.9436 7.76C49.8636 8.52 49.8036 9.26 49.7636 9.98C49.7436 10.68 49.7336 11.22 49.7336 11.6C49.7336 12.08 49.7436 12.53 49.7636 12.95C49.7836 13.37 49.8036 13.74 49.8236 14.06H49.1336C48.9936 12.66 48.8036 11.56 48.5636 10.76C48.3236 9.94 47.9036 9.35 47.3036 8.99C46.7036 8.63 45.7736 8.45 44.5136 8.45H42.8936V25.52C42.8936 26.32 42.9636 26.92 43.1036 27.32C43.2636 27.72 43.5636 27.99 44.0036 28.13C44.4436 28.27 45.0836 28.36 45.9236 28.4V29C45.4036 28.96 44.7436 28.94 43.9436 28.94C43.1436 28.92 42.3336 28.91 41.5136 28.91C40.6136 28.91 39.7636 28.92 38.9636 28.94C38.1836 28.94 37.5536 28.96 37.0736 29V28.4C37.9136 28.36 38.5536 28.27 38.9936 28.13C39.4336 27.99 39.7236 27.72 39.8636 27.32C40.0236 26.92 40.1036 26.32 40.1036 25.52V8.45H38.4836C37.2436 8.45 36.3136 8.63 35.6936 8.99C35.0936 9.35 34.6736 9.94 34.4336 10.76C34.1936 11.56 34.0036 12.66 33.8636 14.06H33.1736C33.2136 13.74 33.2336 13.37 33.2336 12.95C33.2536 12.53 33.2636 12.08 33.2636 11.6C33.2636 11.22 33.2436 10.68 33.2036 9.98C33.1836 9.26 33.1336 8.52 33.0536 7.76C33.8936 7.78 34.8036 7.8 35.7836 7.82C36.7836 7.84 37.7836 7.85 38.7836 7.85C39.7836 7.85 40.6936 7.85 41.5136 7.85C42.3336 7.85 43.2336 7.85 44.2136 7.85C45.2136 7.85 46.2136 7.84 47.2136 7.82C48.2136 7.8 49.1236 7.78 49.9436 7.76Z" fill="white"/>
<path d="M62.2218 13.38C62.1818 13.76 62.1518 14.13 62.1318 14.49C62.1218 14.84 62.1168 15.11 62.1168 15.3C62.1168 15.54 62.1218 15.765 62.1318 15.975C62.1418 16.185 62.1518 16.37 62.1618 16.53H61.8168C61.7468 15.83 61.6518 15.28 61.5318 14.88C61.4118 14.47 61.2018 14.175 60.9018 13.995C60.6018 13.815 60.1368 13.725 59.5068 13.725H58.6968V22.26C58.6968 22.66 58.7318 22.96 58.8018 23.16C58.8818 23.36 59.0318 23.495 59.2518 23.565C59.4718 23.635 59.7918 23.68 60.2118 23.7V24C59.9518 23.98 59.6218 23.97 59.2218 23.97C58.8218 23.96 58.4168 23.955 58.0068 23.955C57.5568 23.955 57.1318 23.96 56.7318 23.97C56.3418 23.97 56.0268 23.98 55.7868 24V23.7C56.2068 23.68 56.5268 23.635 56.7468 23.565C56.9668 23.495 57.1118 23.36 57.1818 23.16C57.2618 22.96 57.3018 22.66 57.3018 22.26V13.725H56.4918C55.8718 13.725 55.4068 13.815 55.0968 13.995C54.7968 14.175 54.5868 14.47 54.4668 14.88C54.3468 15.28 54.2518 15.83 54.1818 16.53H53.8368C53.8568 16.37 53.8668 16.185 53.8668 15.975C53.8768 15.765 53.8818 15.54 53.8818 15.3C53.8818 15.11 53.8718 14.84 53.8518 14.49C53.8418 14.13 53.8168 13.76 53.7768 13.38C54.1968 13.39 54.6518 13.4 55.1418 13.41C55.6418 13.42 56.1418 13.425 56.6418 13.425C57.1418 13.425 57.5968 13.425 58.0068 13.425C58.4168 13.425 58.8668 13.425 59.3568 13.425C59.8568 13.425 60.3568 13.42 60.8568 13.41C61.3568 13.4 61.8118 13.39 62.2218 13.38Z" fill="white"/>
</svg>
