<svg width="147" height="197" viewBox="0 0 147 197" fill="none" xmlns="http://www.w3.org/2000/svg">
<g opacity="0.5" clip-path="url(#clip0_1485_78135)">
<mask id="mask0_1485_78135" style="mask-type:luminance" maskUnits="userSpaceOnUse" x="1" y="1" width="146" height="196">
<path d="M129.65 1.00605L1.3418 12.5031L17.7847 196.008L146.093 184.511L129.65 1.00605Z" fill="white"/>
</mask>
<g mask="url(#mask0_1485_78135)">
<path d="M139.405 160.854C140.478 163.962 139.545 160.775 139.44 160.834C139.408 160.788 139.412 160.837 139.405 160.854ZM130.643 168.492C131.674 171.637 130.784 168.413 130.678 168.472C130.647 168.426 130.651 168.475 130.643 168.492ZM130.397 171.209C130.422 171.289 130.683 171.923 130.683 171.923C130.71 171.92 130.36 170.801 130.235 170.435C130.207 170.437 130.143 170.443 130.406 171.208L130.397 171.209ZM126.407 185.782C126.644 186.467 126.613 186.223 126.657 186.203C126.46 185.547 126.425 185.468 126.39 185.487C126.39 185.487 126.271 185.399 126.407 185.782ZM121.066 185.176C121.13 185.17 121.298 183.331 121.244 183.352C121.187 183.439 121.023 185.114 121.066 185.176ZM120.666 186.181C120.771 185.596 120.841 185.245 120.935 184.333C120.852 184.34 120.747 185.023 120.666 186.181ZM140.982 162.98C140.797 162.372 140.918 162.592 140.946 162.573C141.122 163.099 141.445 164.023 141.4 164.044C141.365 164.063 141.222 163.813 140.972 162.981L140.982 162.98ZM140.633 165.789C140.439 165.182 140.56 165.401 140.596 165.381C140.781 165.907 141.105 166.831 141.06 166.852C141.025 166.871 140.883 166.621 140.633 165.789ZM135.147 169.551C135.013 169.086 134.868 168.606 134.976 168.777C135.162 169.303 135.475 170.228 135.44 170.248L135.156 169.55L135.147 169.551ZM133.107 172.363C133.12 172.198 133.293 172.691 133.651 173.793L133.614 173.797C133.47 173.431 133.285 172.906 133.116 172.362L133.107 172.363ZM126.928 174.889C126.98 174.851 127.463 176.32 127.419 176.34C127.228 175.864 126.918 175.087 126.928 174.889ZM126.602 177.646C126.754 178.207 126.591 177.828 126.436 177.234C126.339 176.881 126.266 176.575 126.154 176.158C126.332 176.7 126.637 177.626 126.602 177.646C126.808 178.4 126.637 177.626 126.602 177.646ZM125.323 179.157L125.438 179.098C125.645 179.753 125.67 179.833 125.635 179.852C125.608 179.855 125.578 179.94 125.323 179.157ZM121.074 180.524C121.074 180.524 121.175 180.203 120.969 181.52L120.942 181.522L121.083 180.523L121.074 180.524ZM119.325 179.678C119.174 180.053 119.485 179.598 118.818 180.924C118.758 181.077 118.827 181.021 118.814 181.088C118.802 181.155 118.737 181.358 118.502 181.839C118.618 181.582 118.923 180.963 119.185 180.381C119.489 179.746 119.761 179.179 119.78 179.178C119.816 179.174 118.765 181.569 119.076 181.016C119.186 180.808 119.546 179.971 119.637 179.749C120.053 178.824 120.037 178.957 120.031 178.991C120.035 179.04 119.853 179.582 119.299 180.831C119.068 181.345 118.931 181.571 118.802 181.779C118.698 181.953 118.568 182.162 118.34 182.708C117.802 184.022 117.992 183.775 118.41 182.866C118.974 181.633 118.851 182.432 118.303 183.846C118.439 183.505 118.904 182.296 118.933 182.31C118.979 182.306 119.052 182.299 119.492 181.126C119.261 181.738 119.061 182.299 118.97 182.619C118.894 182.905 118.859 183.138 118.846 183.304C118.822 183.651 118.89 183.793 118.911 183.824C118.972 183.884 119.104 183.708 119.289 183.297C119.541 182.699 119.884 181.683 120.279 180.415C120.229 180.583 119.997 181.294 119.76 182.055C119.646 182.427 119.523 182.816 119.414 183.138C119.299 183.51 119.277 183.577 119.245 183.728L119.34 183.555C119.359 183.554 119.362 183.488 119.194 184.094C118.943 185.004 118.871 185.438 119.259 184.089C119.477 183.33 119.686 182.571 119.732 182.567C119.76 182.565 119.814 182.445 119.762 182.696C119.744 182.796 119.681 183.032 119.626 183.234C119.584 183.386 119.55 183.52 119.559 183.519C119.595 183.516 119.634 183.529 119.678 183.509C119.704 183.49 119.746 183.338 119.845 183.001C119.933 182.648 120.059 182.193 120.183 181.721C120.407 180.814 120.632 179.923 120.638 179.889C120.638 179.889 120.455 180.727 120.249 181.633C120.151 182.086 120.045 182.555 119.952 182.958C119.882 183.31 119.833 183.593 119.799 183.728C119.696 184.329 119.72 184.392 119.956 183.204C120.102 182.468 120.617 180.269 120.433 181.206C120.339 181.707 120.213 182.36 120.064 183.178C120.044 183.262 119.923 183.98 119.923 183.98C119.923 183.98 120.031 183.428 120.182 182.74C120.341 182.036 120.513 181.281 120.566 181.046C120.647 180.71 120.474 181.564 120.319 182.416C120.208 183.034 120.096 183.636 120.068 183.737C119.782 185.389 119.916 184.72 120.116 183.65C120.345 182.496 120.663 180.89 120.676 180.823C120.794 180.286 120.111 184.012 120.518 182.053C120.125 183.962 120.55 183.135 120.61 183.08C120.684 182.975 120.836 182.304 120.928 181.983C120.985 181.798 120.755 183.56 120.883 182.924C120.912 182.741 120.997 182.24 121.077 181.789C121.155 181.322 121.228 180.905 121.228 180.905C121.228 180.905 121.051 182.12 120.899 183.104C120.762 184.053 120.66 184.768 120.821 183.883C120.964 183.114 120.989 183.391 121.176 181.863C121.334 180.534 121.199 182.222 121.344 180.96C121.176 182.487 121.068 183.45 121.102 183.825C121.112 183.939 121.213 183.108 121.32 182.129C121.432 181.117 121.554 180.005 121.597 179.655C121.711 178.758 121.642 179.75 121.545 181.139C121.445 182.496 121.315 184.249 121.262 184.994C121.46 183.283 121.594 181.891 121.733 180.35C121.686 181.472 121.647 182.28 121.647 183.102C121.706 181.897 121.753 182.32 121.795 182.07C121.818 181.92 121.945 180.233 121.941 179.888C121.928 181.187 121.819 183.58 121.955 182.417C122.049 181.604 122.062 182.161 122.049 183.871C122.104 183.866 122.081 182.998 122.108 182.469C122.13 181.678 122.194 182.297 122.224 181.801C122.252 181.29 122.207 180.373 122.215 179.748C122.213 179.107 122.267 179.809 122.241 179.006C122.277 180.334 122.27 180.253 122.316 180.248L122.398 180.241C122.428 180.879 122.489 181.975 122.443 181.979C122.44 182.357 122.409 182.015 122.438 182.851C122.559 182.757 122.479 180.94 122.477 179.987C122.476 179.051 122.597 181.637 122.592 181.686C122.6 181.768 122.607 181.028 122.607 181.028C122.584 180.257 122.584 180.257 122.681 181.021C122.809 182.045 122.966 182.244 122.703 180.132C122.746 180.309 122.707 179.868 122.699 179.787C122.689 179.673 122.892 181.627 122.929 181.936C123.009 182.619 123.005 182.274 122.997 182.077C122.981 181.076 122.625 178.446 122.69 178.44C122.816 179.333 122.951 180.323 123.087 181.116C123.316 182.443 123.265 181.56 123.062 180.329C123.217 181.335 123.422 182.483 123.494 182.46C123.398 181.91 122.819 178.642 123.124 180.094C123.283 180.836 123.537 182.226 123.617 182.186C123.661 182.166 123.526 181.373 123.606 181.546C123.841 182.725 124.007 182.315 124.002 182.152C124.006 181.888 123.591 180.561 123.521 180.19C123.326 179.254 124.1 182.11 124.208 182.495C124.399 183.184 124.471 182.948 124.495 182.913C124.577 182.79 124.578 182.494 124.519 182.04C124.507 181.909 124.224 180.505 124.298 180.712C124.422 181.062 125.092 183.796 125.054 183.471C125.03 183.21 124.742 181.543 124.507 180.775C124.822 181.815 124.975 182.18 125.056 182.254C125.126 182.314 125.134 182.198 125.089 181.906C125.049 181.663 124.873 181.038 124.829 180.763C124.694 179.97 125.252 181.563 125.502 182.083C125.581 182.24 125.489 181.936 125.375 181.585C125.386 181.502 125.437 181.563 125.463 181.544C125.517 181.523 125.34 180.783 125.39 180.729C125.432 180.676 125.545 180.912 125.665 181.115C125.72 181.209 125.815 181.348 125.692 180.899C125.484 180.129 125.802 180.577 125.831 180.492C125.847 180.458 125.597 179.116 125.635 179.228C125.697 179.403 125.965 180.332 125.993 180.445L125.831 179.671C125.789 179.51 125.392 178.066 125.413 178.098C125.413 178.098 125.513 178.384 125.605 178.688C125.706 178.992 125.808 179.311 125.845 179.406C125.976 179.74 125.991 179.591 126.017 179.572C125.931 179.136 125.785 178.426 126.233 179.815C126.094 179.4 125.919 178.693 125.833 178.454C126.181 179.442 126.219 179.455 126.282 179.433C126.309 179.431 126.4 179.521 126.313 179.167C126.256 178.942 126.147 178.656 126.173 178.637C126.235 178.599 126.491 179.299 126.565 179.293C126.601 179.289 126.64 178.891 126.982 179.929C127.053 179.89 126.533 178.523 126.447 178.087C126.399 177.861 126.767 178.864 126.856 179.135C126.936 179.309 127.018 179.499 127.072 179.592C127.203 179.811 126.723 177.651 127.156 178.977C127.041 178.626 126.339 176.47 126.378 176.483C126.396 176.481 126.683 177.31 126.754 177.484C126.814 177.643 126.88 177.752 126.914 177.832C127.06 178.114 127.102 178.176 127.061 177.917C127.052 177.819 127.045 177.738 127.144 178.025C127.363 178.613 127.701 179.799 127.796 180.037C127.905 180.323 127.576 179.021 127.58 178.971C127.613 178.821 127.935 179.531 128.107 179.795C128.291 180.091 126.954 176.316 127.567 177.79C127.885 178.55 128.202 179.409 128.156 179.002C128.143 178.855 127.435 176.52 128.032 178.241C128.719 180.233 128.254 178.55 128.072 177.859C127.728 176.592 128.369 178.391 128.514 178.559C128.66 178.743 127.852 176.532 127.657 175.908C127.473 175.3 128.472 177.988 128.213 177.157C128.136 176.917 127.96 176.505 127.861 176.12C127.807 175.927 127.86 175.906 127.922 176.082C128.231 176.843 128.509 177.886 128.715 178.229C128.996 178.68 129.061 178.379 128.962 177.681C128.923 177.454 128.855 177.214 128.879 177.163C128.525 175.896 129.52 178.962 129.52 178.962C129.582 178.924 128.603 176.152 129.269 177.801C129.3 177.848 129.277 177.686 129.271 177.62C129.256 177.457 128.919 175.45 129.396 176.853L128.77 174.609C129.159 175.757 129.299 175.975 129.367 176.018C129.445 176.06 129.724 176.906 129.987 177.573C130.193 178.113 129.265 175.189 129.319 175.167C129.456 175.566 130.146 177.69 130.211 177.799C130.344 178.05 130.136 177.165 129.861 176.368C129.671 175.793 129.424 175.207 129.443 175.107C129.457 175.056 129.514 175.183 129.684 175.628C129.974 176.391 130.342 177.607 130.608 178.306C130.656 178.433 130.267 177.186 130.279 177.218C130.145 176.753 130.105 176.51 130.119 176.46C130.133 176.409 130.294 176.871 130.224 176.598C130.124 176.213 129.97 175.733 129.835 175.253C129.637 174.597 130.37 176.684 130.2 176.025C130.116 175.704 129.915 175.114 129.891 174.952C129.867 174.79 129.908 174.835 129.934 174.817C129.873 174.855 130.264 176.332 130.418 176.4C130.485 176.427 130.473 176.083 130.108 174.998C130.799 177.04 130.811 176.036 130.891 175.996C130.961 175.957 130.607 175.003 130.194 173.791C129.802 172.511 129.81 172.494 130.273 173.751C131.027 175.968 131.432 176.572 131.51 176.516C131.553 176.479 131.617 176.473 131.391 175.705C131.069 174.583 130.982 174.23 131.061 174.19C130.982 174.23 131.438 175.717 131.535 175.659C131.615 175.619 131.696 175.595 131.75 175.476C131.813 175.355 131.831 175.255 131.333 173.607C131.554 174.326 131.717 174.903 132.011 175.715C132.172 176.161 132.337 176.458 132.132 175.819C131.863 174.989 132.078 175.43 132.088 175.33C132.093 175.281 131.827 174.483 131.753 174.177C131.639 173.727 131.984 174.682 132.071 174.839C132.15 174.996 132.199 175.024 132.202 174.958C132.213 174.875 132.176 174.665 132.003 174.072C131.82 173.481 131.934 173.717 131.969 173.697C132.286 174.655 132.358 174.944 132.293 174.523C132.252 174.28 132.197 173.973 132.119 173.618C132.146 173.714 131.963 172.909 132.135 173.485C132.2 173.693 132.222 173.839 132.396 174.333C132.448 174.296 132.35 174.025 132.205 173.446C132.105 173.044 131.94 172.336 132.224 173.132C132.583 174.152 132.625 174.411 132.834 174.787C132.945 174.99 133.16 175.431 133.195 175.412C133.239 175.391 132.96 174.644 132.83 174.228C132.646 173.62 132.556 173.234 132.733 173.662C132.842 173.948 133.116 174.531 132.86 173.733C133.513 175.761 133.176 174.066 133.193 173.949C133.212 173.849 133.319 174.217 133.419 174.406C133.53 174.609 133.573 174.573 133.617 174.552C133.654 174.549 133.749 174.064 134.106 175.166C134.168 175.127 134.124 174.95 133.776 173.848C133.619 173.336 133.345 172.342 133.371 172.323C133.371 172.323 133.925 173.966 133.999 174.173C134.227 174.76 134.257 174.676 134.183 174.272C134.116 173.932 134.046 173.561 134.057 173.478C134.057 173.478 134.359 174.272 134.407 174.399C134.686 175.032 133.69 171.966 133.741 171.912C133.82 171.872 134.432 174.052 134.586 174.334C134.841 174.804 134.275 172.718 134.181 172.185C134.173 172.087 134.113 171.32 134.397 172.428C134.318 172.468 134.583 173.365 134.812 173.755C134.888 173.88 134.949 173.743 134.635 172.818C134.548 172.562 134.199 171.657 134.113 171.32C134.098 171.255 135.23 174.194 134.932 173.235C134.739 172.628 134.523 171.973 134.321 171.367C134.149 170.791 134.096 170.516 133.975 170.083C134.469 171.583 134.685 172.238 134.777 172.23C134.804 172.227 134.698 171.448 134.401 170.719L134.481 170.679C134.668 171.221 134.865 171.877 135.036 172.338C135.254 172.91 135.345 173.001 135.306 172.774C135.232 172.255 134.395 169.717 135.235 171.975C136.078 174.48 135.109 171.395 135.17 171.356C135.205 171.337 135.743 172.702 135.619 172.237C135.59 172.124 135.192 170.779 135.179 170.731C135.479 171.509 135.571 171.912 135.797 172.368C135.898 172.573 136.06 172.838 135.818 172.087C135.611 171.432 135.754 171.682 135.798 171.662C135.826 171.659 135.334 170.191 135.387 170.17L135.887 171.621C135.887 171.621 135.978 171.613 135.716 170.847C135.528 170.19 135.537 170.19 135.795 170.807C135.831 170.788 135.804 170.692 135.58 170.054C135.316 169.273 135.374 169.3 135.4 169.282L136.25 171.753C135.913 170.78 135.974 170.529 136.021 170.541C136.085 170.535 136.334 171.252 136.434 171.44C136.9 172.204 136.989 171.851 137.156 171.754C137.156 171.754 137.423 172.469 137.449 172.451C137.477 172.448 137.488 172.365 137.5 172.298C137.536 172.081 137.55 171.817 137.563 171.553C137.577 171.19 137.66 170.985 137.598 170.399C137.576 170.155 137.572 170.007 137.387 169.383C137.254 168.935 137.338 169.042 137.355 169.024C137.327 169.027 137.495 169.554 137.569 169.662C137.727 169.878 137.746 169.679 137.815 169.624C137.841 169.605 137.992 169.74 137.797 169.116C137.656 168.669 137.098 167.19 136.914 166.681C136.966 166.643 137.478 168.027 137.773 168.839C138.179 169.969 138.069 169.47 138.131 169.431C138.201 169.392 138.226 169.16 138.433 169.503C138.475 169.565 138.643 169.994 138.651 169.976C138.648 169.845 138.479 169.301 138.38 168.916C138.168 168.097 138.725 169.362 138.85 169.515C138.994 169.683 138.679 168.741 138.37 167.766C137.813 165.992 138.745 168.653 138.893 169.067C139.293 170.132 138.645 168.054 138.607 167.943C138.385 167.108 138.996 168.779 139.177 169.14C139.401 169.58 139.364 169.272 139.344 169.043C139.33 168.897 139.242 168.017 139.711 169.323C139.841 169.541 139.76 169.154 139.732 168.943C139.634 168.163 139.84 168.193 139.767 167.477C139.745 167.232 139.657 166.764 139.236 165.569C139.47 166.222 139.808 167.21 139.993 167.621C140.143 167.953 139.949 167.346 140.024 167.454C140.067 167.532 140.122 167.626 140.187 167.735C140.43 168.174 140.461 168.006 140.541 167.966C140.352 167.309 140.53 167.326 140.504 167.247C140.061 165.906 139.511 164.41 139.06 162.988C138.944 162.621 139.585 164.108 139.952 165.324C140.337 166.621 140.554 167.078 140.624 167.039C140.652 167.036 140.738 167.078 140.582 166.566C140.45 166.134 140.332 165.832 140.45 166.019C140.537 166.159 141.291 167.883 141.532 168.617C141.213 167.627 141.237 167.592 141.288 167.538C141.339 167.484 141.367 167.383 141.246 166.868C141.216 166.739 140.983 165.889 141.044 166.048C141.151 166.318 141.455 167.129 141.496 167.174C141.58 167.282 141.38 166.609 141.423 166.573L141.556 166.495C141.993 167.573 141.388 165.754 141.173 165.116C140.932 164.382 140.92 164.251 140.955 164.232C141.478 165.746 141.623 166.226 141.75 166.297C141.963 166.409 142.067 166.219 142.205 166.108C142.213 166.107 142.396 166.091 142.168 165.487C141.768 164.438 141.869 164.429 141.97 164.617C142.069 164.806 142.267 165.462 142.394 165.746C142.488 165.968 142.513 165.933 142.529 165.915C142.575 165.911 142.795 166.203 142.592 165.482C142.403 164.825 142.591 165.268 142.543 164.944C142.51 164.766 142.203 163.725 142.222 163.724C142.241 163.722 142.479 164.424 142.56 164.614C142.784 165.152 142.888 165.275 142.918 165.206C142.974 165.103 143.037 164.982 143.018 164.671C143.004 164.508 142.868 164.027 142.626 163.277C142.191 161.623 140.98 158.938 142.234 162.622C141.928 161.68 141.808 161.986 141.406 160.905C141.124 160.141 141.331 160.796 141.385 161.087C141.45 161.394 141.355 161.271 141.369 161.434C141.422 162.218 141.2 162.221 140.948 162.096C140.784 162.012 139.987 160.539 141.078 163.744C141.139 163.919 141.853 166.107 141.598 165.423C141.368 164.819 141.099 164.087 140.86 163.386C140.749 163.067 139.484 159.466 139.449 159.387C139.503 159.58 139.613 159.882 139.651 160.092C139.688 160.302 139.675 160.369 139.649 160.388C139.605 160.409 139.534 160.448 139.184 159.427C139.845 161.34 139.274 160.011 139.781 161.543C140.06 162.389 140.636 164.178 140.07 162.717C139.806 162.034 139.553 161.268 139.308 160.698C139.144 160.318 139.112 160.371 139.343 161.09C139.585 161.84 139.487 161.57 139.435 161.607C139.408 161.609 139.264 161.146 139.131 160.796C138.624 159.461 139.446 162.247 138.939 161.027C138.887 161.064 139.522 163.095 139.377 162.713C139.294 162.507 138.829 161.234 138.863 161.412C138.937 161.717 139.266 162.608 139.377 163.026C139.376 163.009 138.53 160.784 138.516 160.736C138.887 161.886 139.096 162.673 138.778 162.011C138.63 161.696 138.487 161.446 138.478 161.545C138.48 161.578 138.602 162.109 138.646 162.088L138.559 162.146C138.498 162.184 138.565 162.211 138.738 162.803C138.86 163.236 138.443 162.402 138.381 162.326C138.298 162.218 138.106 161.94 138.269 162.517C138.404 162.998 138.951 164.461 138.389 163.131C138.027 162.193 137.718 161.629 138.309 163.171C138.792 164.54 138.861 164.896 138.501 164.074C138.245 163.488 137.874 162.437 138.028 163.13C138.045 163.211 138.529 164.909 138.43 164.622C138.344 164.384 138.083 163.437 137.909 163.042C137.758 162.694 138.088 163.897 138.157 164.154C138.112 164.174 138.086 164.292 137.865 163.785C137.656 163.311 137.544 163.091 137.477 163.064C137.41 163.037 137.383 163.155 137.452 163.51C137.521 163.866 137.85 164.855 137.517 164.03C137.148 163.11 137.001 162.91 137.036 163.202C137.055 163.414 137.38 164.256 137.592 164.862C136.841 162.776 136.902 163.461 137.192 164.421C137.351 164.965 137.309 165.002 137.033 164.304C136.854 163.843 136.8 163.552 136.624 163.141C136.459 162.745 136.669 163.433 136.714 163.626C136.83 164.092 136.752 164.05 136.485 163.449C136.041 162.207 136.599 163.998 136.62 164.127C136.668 164.451 136.389 163.918 136.574 164.641C136.742 165.283 136.622 165.179 136.505 165.008C136.368 164.824 136.029 164.229 136.295 165.142C136.39 165.479 135.97 164.399 135.879 164.21C135.721 163.895 135.973 164.645 135.938 164.665C135.894 164.685 135.816 164.643 135.834 164.838C135.853 165.05 136.144 165.83 135.867 165.213C135.604 164.645 135.099 163.655 135.904 165.933C135.076 163.608 135.071 164.578 135.331 165.524C135.551 166.326 134.214 162.749 134.897 164.906C135.205 165.864 135.609 167.077 135.171 165.999C135.152 166.001 135.078 166.205 135.137 166.347C135.101 166.252 134.95 165.706 134.825 165.438C134.723 165.234 134.736 165.381 134.71 165.399C134.637 165.406 134.248 164.57 134.259 164.799C134.521 165.35 135.266 167.371 135.55 168.381C135.489 168.419 135.013 166.917 134.849 166.439C134.575 165.641 134.709 166.32 134.644 166.211C134.579 166.101 134.088 164.847 134.194 165.215C134.327 165.664 134.567 166.382 134.444 166.146C134.246 165.786 133.937 165.025 133.864 165.032C134.195 165.84 133.848 165.789 133.898 166.031C133.931 166.192 134.413 167.447 134.551 167.961C134.732 168.635 134.024 166.611 133.874 166.181C134.036 166.643 134.321 167.554 134.132 167.095C133.956 166.683 133.673 165.788 133.549 165.536C133.47 165.379 134.141 167.406 134.014 167.22C133.982 167.174 133.311 165.459 133.575 166.241C133.726 166.687 133.898 167.066 133.979 167.453C134.009 167.582 133.992 167.6 133.933 167.457C133.735 166.999 133.29 165.543 133.208 165.452C133.157 165.391 133.09 165.364 133.127 165.574C133.134 165.656 133.315 166.231 133.315 166.231C133.263 166.268 133.175 166.211 133.175 166.424C133.18 166.687 133.398 167.357 133.62 167.781C133.568 167.819 133.54 167.92 133.229 167.126C132.979 166.508 132.595 165.523 132.779 166.23C132.91 166.76 133.033 167.111 133.018 167.244C132.999 167.245 132.926 167.153 132.947 167.283C133.011 167.474 133.124 167.809 133.152 167.922C133.25 168.39 133.037 167.981 133.087 168.322C133.134 168.646 133.328 169.369 132.99 168.479C132.783 167.922 132.692 168.045 132.855 168.622C133.032 169.264 133.273 169.686 133.283 169.685C133.246 169.688 133.227 169.789 133.074 169.424C132.935 169.108 132.737 168.551 132.649 168.394C132.496 168.128 132.813 169.185 132.583 168.679C132.49 168.474 131.762 166.436 132.205 167.875C132.466 168.723 132.931 170.193 132.563 169.289C132.338 168.734 132.167 168.174 132.024 167.908C131.98 167.83 131.739 167.522 131.92 168.098C132.05 168.514 132.648 170.235 132.502 170.051C132.397 169.912 132.095 168.805 131.898 168.264C131.903 168.313 132.285 169.692 132.314 169.805C132.474 170.464 132.337 170.066 132.151 169.54C131.866 168.727 131.54 168.181 131.61 168.553C131.649 168.78 131.879 169.499 132.097 170.169C132.21 170.504 132.313 170.824 132.389 171.063C132.466 171.303 132.518 171.463 132.51 171.48C132.488 171.547 132.232 170.749 132.1 170.415C131.919 169.939 131.799 169.736 131.737 169.659C131.644 169.552 131.011 167.949 131.092 168.337C131.127 168.531 131.536 169.891 131.356 169.43C131.208 169.016 131.07 168.618 131.011 168.574C130.882 168.47 131.574 170.725 131.535 170.91C131.505 171.093 130.669 168.67 130.607 168.709C130.589 168.71 130.982 169.793 130.982 169.793C130.928 169.814 130.536 168.633 130.529 168.765C130.516 168.93 130.609 169.349 130.548 169.388C130.575 169.385 130.528 169.472 130.625 169.841C130.753 170.339 130.661 170.133 130.57 169.944C130.379 169.567 130.337 169.719 130.413 170.156C130.448 170.333 130.896 171.937 130.67 171.267C130.217 169.927 129.749 168.522 130.115 169.919C130.342 170.803 130.949 172.836 130.499 171.726C130.251 171.123 129.886 170.154 129.745 169.92C129.615 169.701 129.844 170.404 129.8 170.424C129.763 170.428 129.372 169.362 129.329 169.398C129.329 169.398 129.551 170.118 129.591 170.262C129.895 171.385 129.01 168.934 128.956 168.955C128.984 168.953 130.098 172.205 129.546 170.891C129.24 170.162 129.234 170.097 129.155 170.137C129.03 169.885 128.969 169.71 128.706 168.945C129.374 170.939 128.661 169.475 129.277 171.293C128.901 170.193 128.845 170.493 128.835 170.593C128.826 170.692 128.839 170.839 128.902 171.129C128.899 171.097 129.279 172.345 129.23 172.217C129.035 171.693 128.58 170.32 128.376 169.697C128.528 170.259 128.58 170.534 128.859 171.38C129.151 172.257 129.519 173.375 129.458 173.413C129.305 172.95 128.721 171.178 128.617 170.941C128.443 170.546 128.771 171.634 128.887 172.002C128.86 172.004 128.823 172.007 128.698 171.739C128.616 171.549 128.327 170.803 128.3 170.805C128.264 170.825 128.845 172.564 128.757 172.408C128.745 172.376 128.508 171.789 128.461 171.678C128.382 171.521 128.341 171.475 128.312 171.461C128.236 171.435 128.355 171.934 128.339 172.067C128.32 172.168 128.001 171.292 128.091 171.678C128.153 171.952 128.246 172.273 128.421 172.783C127.981 171.475 127.778 170.868 127.7 170.925C127.726 171.005 127.9 171.498 127.951 171.658C127.907 171.679 127.563 171.249 127.788 172.001C127.813 172.081 128.399 173.672 128.304 173.533C128.219 173.409 127.895 172.583 127.774 172.364C127.474 171.799 127.253 171.507 127.242 171.787C127.236 171.936 127.464 172.721 127.434 172.806C127.391 172.941 127.566 173.451 127.93 174.618C127.8 174.203 126.834 171.775 127.255 173.068C127.51 173.85 128.132 175.225 128.402 176.071C128.402 176.071 127.816 174.694 127.769 174.583C127.484 173.869 127.081 172.886 126.715 171.785C127.33 173.604 126.946 172.816 127.22 173.811C127.149 173.85 127.084 173.642 126.731 172.589C126.426 171.663 126.489 172.052 126.264 171.399L127.346 174.605C127.285 174.643 126.391 172.094 126.417 172.174C126.546 172.688 127.066 174.465 126.697 173.546C126.423 172.863 125.776 171.524 126.293 173.171C126.526 173.906 126.139 173.102 126.359 173.904C126.778 175.379 125.936 172.89 125.837 172.719C125.717 172.516 126.056 173.619 125.998 173.591C125.921 173.549 125.8 173.133 125.584 172.478C125.34 171.711 125.526 172.549 125.552 172.629C125.692 173.159 125.566 172.792 125.5 172.667C125.31 172.306 126.8 176.56 125.886 174.095C125.398 172.774 125.341 172.862 125.641 173.936C125.98 175.138 126.047 175.477 125.381 173.614C124.996 172.515 125.613 174.859 125.193 173.68C125.536 174.619 126.131 177.129 125.419 174.761C124.683 172.526 125.201 174.386 125.2 174.583C125.201 174.698 125.173 174.799 125.031 174.451C124.939 174.245 124.842 173.892 124.803 173.863C124.743 173.819 124.758 174.294 125.077 175.268C124.797 174.422 124.538 173.591 124.459 173.532C124.41 173.504 124.792 174.883 124.5 173.989C124.524 174.052 124.555 174.296 124.658 174.616C124.811 175.095 124.668 174.73 124.613 174.636C124.371 174.099 124.035 173.34 124.767 175.625C124.628 175.21 124.062 173.436 124.274 174.255C124.459 174.978 124.532 175.169 124.478 175.19C124.515 175.187 124.003 173.606 123.933 173.547C123.872 173.486 123.887 173.649 123.918 173.893C124.002 174.411 124.095 174.732 124.507 176.026C124.436 176.065 124.363 175.759 124.052 174.867C124.053 174.883 124.439 176.196 124.544 176.548C124.145 175.286 123.829 174.345 123.426 173.148C123.61 173.855 123.787 174.496 123.996 175.283C124.367 176.63 124.115 176.094 123.939 175.781C123.85 175.608 123.507 174.982 123.875 176.198C124.187 177.205 124.513 178.26 124.826 179.284C124.773 179.305 124.208 177.433 124.001 176.778C124.262 177.625 123.765 176.306 123.566 175.634C123.397 175.09 123.109 174.146 123.074 174.166L124.078 177.428C123.531 175.653 123.325 175.737 123.272 175.759C123.309 175.755 123.595 176.683 123.764 177.226C123.645 177.139 122.742 174.278 123.13 175.821C123.2 176.094 123.611 177.684 123.3 176.693C123.171 176.277 122.736 174.623 122.734 174.804C122.724 175.002 122.981 175.916 122.807 175.62C122.676 175.401 122.471 174.861 122.432 174.946C122.384 175.033 122.846 176.783 122.935 176.742C122.898 176.745 122.873 176.879 122.801 176.688C122.73 176.514 122.55 175.955 122.442 175.57C122.365 175.331 122.442 175.57 122.476 175.748C122.577 176.15 122.718 176.696 122.942 177.547C122.797 176.952 122.926 177.367 123.072 177.962C123.188 178.428 123.264 178.865 123.19 178.658C123.054 178.276 122.603 176.229 122.579 176.281C122.579 176.281 122.685 177.044 122.923 178.058C123.125 178.861 123.185 179.02 123.348 179.909C123.444 180.46 123.489 180.866 123.322 180.241C123.091 179.308 122.502 176.238 122.45 176.079C122.378 175.789 122.416 176 122.478 176.388C122.562 176.907 122.728 177.73 122.811 178.249C122.948 179.255 122.34 175.776 122.449 176.473C122.556 177.154 122.725 178.322 122.908 179.538C122.765 178.663 122.591 177.545 122.466 176.768C122.315 175.91 122.129 174.661 122.196 175.198C122.212 175.377 122.368 176.398 122.423 176.903C122.459 177.31 122.432 177.214 122.398 177.037C122.36 176.826 122.236 175.851 122.242 175.917C122.25 176.014 122.414 177.84 122.331 177.223C122.293 176.898 122.118 174.843 122.175 175.692C122.233 176.542 122.378 178.468 122.332 178.472L122.262 177.377C122.218 176.888 122.214 176.642 122.221 176.609C122.202 176.2 122.228 177.315 122.214 177.365C122.205 177.465 122.16 176.548 122.157 176.828C122.157 177.14 122.162 177.6 122.143 177.602C122.125 177.603 122.114 177.588 122.098 177.096C122.078 176.359 122.075 178.282 122.037 178.269C122.018 178.27 122.019 177.761 122.018 177.235C122.018 176.725 122.018 176.2 122.018 176.2C122.018 176.2 121.953 177.75 121.921 178.115C121.868 178.662 122.011 175.51 122.037 174.768C121.992 175.61 121.947 176.338 121.891 177.361C121.734 179.742 121.847 177.595 121.947 176.025C121.804 178.355 121.858 176.69 121.724 178.494C121.772 177.684 121.837 176.758 121.848 176.576C121.736 177.803 121.754 177.489 121.731 177.54C121.702 177.625 121.521 179.219 121.493 179.221C121.492 179.205 121.608 178.126 121.696 177.247C121.792 176.368 121.873 175.72 121.75 176.618C121.653 177.284 121.202 181.121 121.326 179.828C121.401 179.016 121.512 178.299 121.321 179.467C121.326 179.417 121.07 181.1 121.091 180.917C121.234 179.935 121.568 177.686 121.655 177.103C121.676 176.921 121.531 177.887 121.516 177.921C121.4 178.589 121.416 178.456 121.407 178.457C121.407 178.457 121.444 178.256 121.483 177.973C121.523 177.69 121.584 177.34 121.622 177.041C121.469 178.024 121.573 177.226 121.536 177.426C121.486 177.693 121.415 178.143 121.393 178.31C121.292 178.828 121.257 178.848 121.457 177.68C121.743 176.027 121.762 175.828 121.469 177.399C121.4 177.668 121.566 176.733 121.236 178.406C121.336 177.773 121.607 176.368 121.703 175.883C121.778 175.482 121.739 175.666 121.35 177.311C122.137 173.921 122.006 174.525 121.68 175.836C121.363 177.146 120.843 179.181 120.983 178.577C121.224 177.553 121.854 175.097 121.437 176.63C121.324 177.018 120.314 180.707 120.26 180.926C120.617 179.546 121.102 177.843 120.938 178.285C120.841 178.54 120.343 180.409 120.306 180.412C120.588 179.434 121.269 177.023 121.48 176.281C121.641 175.708 121.546 175.995 121.206 177.143C121.063 177.616 120.969 177.904 120.91 178.074C120.848 178.211 120.822 178.23 120.815 178.247C120.782 178.299 120.652 178.491 121.08 177.187C121.64 175.494 122 174.459 121.614 175.513C121.429 176.022 121.007 177.194 120.928 177.349C120.857 177.487 121.034 176.978 121.159 176.622C121.179 176.538 121.572 175.451 121.323 176.081C120.366 178.5 121.004 176.751 121.047 176.615C121.083 176.497 121.095 176.43 121.025 176.568C120.945 176.707 120.906 176.792 120.73 177.202C120.514 177.682 120.786 177 120.786 177C120.786 177 120.759 177.003 120.671 177.159C120.576 177.331 120.02 178.351 120.591 177.198C121.249 175.874 121.325 175.687 121.157 175.981C120.98 176.276 120.392 177.446 120.394 177.364C120.607 176.967 120.814 176.587 120.963 176.294C121.112 176.001 121.216 175.811 121.214 175.795C121.214 175.795 121.102 175.986 120.936 176.297C120.771 176.624 120.541 177.055 120.303 177.487C119.838 178.383 119.354 179.38 119.288 179.567L119.325 179.678ZM121.14 174.766C120.556 175.049 120.683 175.021 121.578 174.596L121.131 174.767L121.14 174.766ZM117.911 174.513C117.8 174.622 117.885 174.746 117.996 174.851C118.126 174.954 118.211 174.979 118.754 174.947C119.377 174.891 118.542 175.164 119.693 174.912C118.614 175.141 118.549 175.442 118.369 175.606C118.302 175.678 118.211 175.801 118 175.919C117.544 176.091 117.095 176.345 117.095 176.444L117.994 176.067C117.986 176.183 117.287 176.525 117.485 176.573C117.655 176.607 117.992 176.56 118.507 176.317C118.738 176.214 118.877 176.119 118.845 176.172C118.814 176.24 118.739 176.329 118.567 176.476C118.232 176.753 117.745 177.207 118.156 177.039C118.556 176.871 118.809 176.799 118.618 177.047C118.526 177.153 117.548 177.997 117.804 177.859C118.366 177.529 119.26 176.578 119.249 176.76C119.245 176.826 118.809 177.21 118.37 177.578C117.94 177.929 117.51 178.296 117.513 178.427C117.517 178.575 118.183 177.858 118.343 177.794C118.619 177.671 118.367 178.055 118.277 178.293C118.061 178.773 117.403 179.982 117.682 180.006C117.774 179.998 118.131 179.555 118.409 179.251C118.738 178.893 118.696 178.946 118.524 179.191C118.367 179.403 118.111 179.738 118.014 179.895C117.731 180.347 118.113 180.066 118.361 179.748C118.79 179.168 118.956 178.956 118.876 179.094C118.802 179.199 118.544 179.617 118.221 180.139C118.084 180.365 119.762 177.947 119.783 177.879C119.754 177.964 118.893 179.29 118.716 179.585C118.281 180.298 118.625 179.905 118.783 179.711C118.869 179.637 119.48 178.925 118.577 180.403C117.647 181.883 118.713 180.473 118.819 180.315C118.92 180.306 117.117 183.607 117.8 182.559C117.972 182.215 118.169 181.836 118.365 181.441C118.584 180.994 118.81 180.53 119.03 180.099C119.509 179.152 119.958 178.274 120.225 177.757C120.279 177.637 121.24 175.875 120.874 176.532C120.56 177.053 120.509 177.107 120.708 176.744C120.962 176.278 121.443 175.462 121.068 176.022C120.75 176.494 120.375 177.054 120.901 176.218C120.907 176.184 119.683 177.789 121.104 175.805C120.012 177.333 120.79 176.112 120.647 176.273C120.486 176.435 120.074 176.998 119.73 177.391C119.436 177.713 120.265 176.653 120.523 176.334C121.839 174.72 120.769 175.983 120.68 176.024C120.643 176.027 120.995 175.519 121.158 175.373C120.971 175.554 121.159 175.389 120.744 175.804C120.523 176.021 120.563 175.952 120.57 175.935C120.568 175.902 120.522 175.907 120.836 175.599C121.141 175.292 121.502 174.981 121.235 175.202C121.046 175.366 120.453 175.863 120.306 175.975C120.044 176.146 120.76 175.474 120.967 175.308C121.206 175.089 121.318 174.997 121.308 174.981C121.289 174.983 121.139 175.062 120.856 175.203C120.724 175.28 120.002 175.674 120.008 175.64C120.017 175.639 120.826 175.172 120.993 175.075C121.29 174.885 121.164 174.929 121.083 174.952C120.949 174.997 120.5 175.251 120.425 175.241C120.37 175.246 120.447 175.174 120.577 175.08C120.961 174.832 121.786 174.544 121.191 174.712C120.696 174.855 120.755 174.801 120.76 174.751C120.76 174.751 119.855 174.964 119.868 174.897C120.175 174.82 121.245 174.593 120.962 174.634C120.77 174.652 120.213 174.734 119.883 174.764C120.718 174.689 120.322 174.61 120.411 174.569C120.581 174.504 121.271 174.475 121.278 174.442C121.278 174.442 120.716 174.459 120.146 174.494C119.576 174.529 119 174.597 118.995 174.646L118.987 174.565C118.987 174.565 118.093 174.382 117.941 174.544L117.911 174.513ZM116.818 168.712C116.228 168.83 116.36 168.868 117.273 168.835L117.267 168.77L116.818 168.712ZM116.918 160.026C115.898 160.298 117.374 160.166 117.373 160.051L116.918 160.026ZM119.482 173.584C119.474 173.7 118.561 173.617 118.562 173.535C118.874 173.507 119.388 173.461 119.482 173.584ZM118.158 170.876C118.653 170.832 119.019 170.897 118.611 170.983C118.059 171.115 116.673 171.223 117.245 171.007C117.481 170.953 117.817 170.89 118.158 170.876ZM118.224 166.663L116.851 166.704C117.242 166.636 118.221 166.532 118.224 166.663ZM118.256 164.441C118.256 164.54 117.343 164.573 117.344 164.474C117.644 164.414 118.162 164.318 118.256 164.441ZM118.724 163.479C118.725 163.594 117.812 163.61 117.814 163.528C117.817 163.363 118.727 163.298 118.724 163.479ZM117.848 148.537C117.848 148.537 117.641 148.605 117.341 148.763C117.042 148.938 116.647 149.171 116.243 149.404C115.436 149.887 114.615 150.421 114.534 150.543C114.477 150.631 114.353 150.905 114.653 150.746C115.281 150.427 115.878 150.078 115.403 150.548C115.205 150.812 115.025 151.074 115.179 151.143C115.275 151.184 116.234 150.753 116.118 150.895C115.926 151.125 114.663 151.781 114.508 152.008C114.417 152.132 115.296 151.626 115.527 151.523C115.534 151.604 114.403 152.182 114.764 152.084C114.864 152.059 117.08 151.005 116.374 151.48C116.05 151.689 115.495 151.887 115.221 152.125C115.109 152.217 115.107 152.3 115.208 152.291C115.466 152.284 116.457 151.686 116.476 151.898C115.977 152.107 115.535 152.327 115.185 152.556C114.952 152.741 114.607 153.018 115.498 152.643C114.341 153.141 114.609 153.133 115.232 152.979C114.395 153.333 115.273 153.435 115.278 153.484C115.259 153.272 116.394 152.842 116.056 153.201C115.828 153.435 115.752 153.622 115.756 153.77C116.732 153.419 116.858 152.964 117.025 152.769C117.035 152.883 117.082 152.994 117.05 153.145C117.02 153.229 116.934 153.401 116.435 153.611C115.964 153.817 115.67 153.843 115.355 154.036C114.727 154.454 115.932 154.083 116.011 154.24C116.079 154.382 115.586 154.656 114.93 154.961C115.505 154.778 116.261 154.661 116.519 154.655C116.917 154.652 115.94 154.887 115.944 154.936C115.951 155.018 116.661 154.79 116.949 154.698C116.643 154.791 115.684 155.025 115.508 155.123C115.226 155.28 115.409 155.362 115.479 155.422C115.558 155.48 115.688 155.584 116.18 155.507C116.498 155.445 116.689 155.412 116.614 155.501C116.572 155.554 116.415 155.65 116.135 155.725C115.775 155.839 115.894 155.828 115.899 155.877C115.906 155.959 116.383 155.916 116.526 155.969C116.66 156.022 116.705 156.101 116.632 156.222C116.583 156.292 116.046 156.488 116.05 156.537C116.052 156.554 116.384 156.442 116.387 156.474L116.393 156.54L116.405 156.883C116.415 156.998 116.128 157.303 117.163 157.095C116.391 157.246 116.349 157.497 116.358 157.594C116.369 157.725 116.962 157.639 116.882 157.777C116.85 157.83 116.237 157.901 116.052 158C115.875 158.081 115.908 158.144 115.949 158.19C116.01 158.25 116.117 158.306 116.358 158.318C116.517 158.336 116.923 158.234 117.179 158.195C116.058 158.377 116.929 158.398 116.89 158.483C116.844 158.586 115.058 158.763 115.343 158.852C115.695 158.968 117.085 158.696 117.818 158.63C118.433 158.575 116.806 158.984 116.714 158.992C117.081 158.959 117.307 158.906 117.343 159.001C117.345 159.018 117.279 159.106 117.409 159.111C117.566 159.113 117.873 159.036 118.069 159.052C118.299 159.047 118.259 159.117 118.264 159.166C117.688 159.234 117.342 159.297 117.534 159.379C117.794 159.487 118.042 159.481 117.103 159.615C116.783 159.66 116.79 159.84 117.048 159.833C117.389 159.819 117.548 159.739 117.647 159.812C117.764 159.884 117.729 160.002 117.609 160.112C117.49 160.221 117.034 160.295 116.785 160.399C116.554 160.502 116.509 160.621 116.918 160.65C117.466 160.683 116.495 160.984 116.411 160.975C117.089 161.013 117.876 160.712 118.224 160.681C118.316 160.673 118.381 160.782 118.089 160.825C117.575 160.871 117.798 160.982 117.996 161.03C118.412 161.124 117.555 161.152 117.001 161.267C116.63 161.35 117.291 161.307 117.375 161.316C117.852 161.273 117.824 161.374 117.828 161.423C117.842 161.57 117.54 161.613 118.286 161.678C118.313 161.675 118.679 161.741 118.571 161.767C118.326 161.822 117.219 161.741 116.985 161.91C116.758 162.061 116.919 162.211 116.914 162.36C116.914 162.36 116.893 162.23 117.289 162.211C117.491 162.193 117.273 162.442 117.768 162.398C117.52 162.42 118.193 162.196 118.27 162.222C118.48 162.301 119.431 162.397 118.273 162.468C117.968 162.462 117.523 162.453 117.421 162.544C117.275 162.672 117.216 162.842 117.41 162.94C117.556 163.025 118.339 162.889 118.725 162.871C118.731 162.936 118.237 163.194 117.862 163.244C117.506 163.293 117.36 163.108 117.359 163.092C117.366 163.174 117.576 163.352 117.131 163.441C116.786 163.505 115.967 163.546 115.533 163.552C116.292 163.566 117.031 163.565 117.665 163.623C117.983 163.661 117.768 163.746 117.95 163.811C118.035 163.837 118.776 163.852 118.33 163.925C117.783 164.007 117.1 163.921 116.487 163.992C115.974 164.038 116.464 164.142 116.661 164.174C116.914 164.217 117.18 164.193 117.27 164.267C117.36 164.341 117.347 164.408 117.355 164.489C117.371 164.669 117.079 164.925 117.61 165.074C117.734 165.113 118.241 165.1 118.051 165.15C117.808 165.221 117.302 165.25 117.061 165.337C116.567 165.497 116.457 165.72 116.941 165.858C117.036 165.882 117.677 165.923 117.622 165.928C117.434 165.994 116.536 165.976 116.534 166.058C116.534 166.058 117.292 166.056 117.326 166.135C117.349 166.183 117.3 166.253 117.715 166.248C118.583 166.236 118.549 166.272 119.157 166.349C118.975 166.382 117.51 166.53 117.598 166.489C117.67 166.466 117.978 166.389 117.585 166.342C117.333 166.315 117.226 166.358 117.145 166.382C117.003 166.444 117.748 166.607 117.043 166.687C116.511 166.734 117.309 167.074 117.301 167.189C118.066 167.17 118.013 167.093 118.676 167.066C118.683 167.148 117.85 167.239 117.928 167.281C118.073 167.35 118.795 167.368 119.122 167.404C118.554 167.455 115.761 167.952 117.29 167.897C117.396 167.838 117.156 167.843 117.107 167.815C117.011 167.774 118.012 167.799 118.132 167.805C118.393 167.831 118.482 167.889 118.413 167.944C118.24 168.075 117.094 167.98 116.877 168.131C116.782 168.205 116.745 168.307 116.879 168.361C117.051 168.428 117.682 168.355 117.729 168.466C117.764 168.545 117.833 168.588 117.28 168.605C117.151 168.616 116.786 168.567 116.621 168.581C116.374 168.604 118.466 168.843 117.788 168.92C117.258 168.984 116.702 168.969 116.631 169.106C116.616 169.141 116.748 169.277 116.851 169.284C116.765 169.259 118.124 168.956 118.015 169.081C117.923 169.188 117.728 169.271 117.729 169.386L117.723 169.534C117.644 169.574 117.7 169.586 117.913 169.583C118.018 169.623 116.878 169.594 116.759 169.604C116.31 169.645 116.824 169.713 116.974 169.733C117.179 169.748 117.782 169.776 117.52 169.848C117.286 169.919 116.824 169.911 116.53 169.937C116.969 169.881 117.704 170.045 117.802 170.103C117.907 170.142 117.988 170.217 117.846 170.279C117.722 170.34 117.433 170.316 117.327 170.375C117.231 170.433 117.064 170.629 117.533 170.603C117.947 170.582 118.141 170.582 118.176 170.661C118.176 170.661 118.241 170.77 118.12 170.764C117.946 170.78 116.889 170.644 116.699 170.793C116.534 170.906 117.504 170.902 117.1 171.036C116.643 171.192 117.147 171.246 117.531 171.31C117.823 171.366 117.647 171.365 117.531 171.409C117.442 171.449 117.723 171.49 117.726 171.523C118.17 171.532 118.842 171.603 118.02 171.71C117.827 171.727 116.136 171.928 117.041 171.929C117.475 171.923 117.787 171.895 117.713 172C117.672 172.053 117.2 172.046 117.001 172.097C116.775 172.15 116.808 172.213 116.811 172.246L117.719 172.164C117.826 172.122 118.005 172.056 118.269 172.016C118.735 171.958 118.631 172.132 118.625 172.165C118.627 172.296 118.106 172.261 117.785 172.388C117.731 172.409 117.256 172.567 117.395 172.571C117.767 172.604 118.105 172.557 118.151 172.651C118.173 172.699 118.022 172.761 118.292 172.787C118.917 172.846 118.633 173.183 118.576 173.271C118.528 173.357 118.34 173.324 117.934 173.328C117.546 173.33 117.66 173.468 117.655 173.517C117.438 173.57 117.299 173.664 117.877 173.728C118.232 173.762 118.097 173.807 118.094 173.873C118.096 173.905 118.423 173.942 118.493 174.001C118.603 174.09 118.386 174.142 118.355 174.211C118.33 174.344 120.181 174.474 120.526 174.411C120.499 174.413 120.384 174.374 120.401 174.356C120.464 174.334 120.573 174.308 120.832 174.317C121.19 174.285 121.397 174.119 121.293 173.997C121.219 173.888 120.14 173.919 119.971 173.787C119.862 173.698 120.07 173.646 120.408 173.6C120.815 173.612 120.87 173.607 120.875 173.558C120.883 173.442 120.842 173.495 120.245 173.433C119.993 173.407 119.81 173.324 120.019 173.289C120.494 173.23 121.316 173.42 121.344 173.22C121.356 173.153 120.906 172.98 120.434 172.973C120.357 172.93 120.446 172.889 120.404 172.844C120.354 172.799 119.574 172.442 119.699 172.398C120.051 172.3 120.917 172.584 121.186 172.593C120.853 172.59 120.499 172.047 120.246 172.003C119.861 171.939 120.005 171.894 120.439 171.789C121.109 171.63 120.44 171.69 120.443 171.624C120.436 171.543 120.388 171.531 120.705 171.453C120.813 171.427 120.858 171.406 120.818 171.377C120.731 171.336 120.269 171.328 119.989 171.402C119.706 171.444 119.138 171.495 119.352 171.41C119.548 171.327 120.089 171.278 120.274 171.179C120.46 171.097 120.206 171.037 119.998 170.99C119.994 170.941 120.015 170.874 120.196 170.825C120.379 170.808 120.459 170.768 120.457 170.752C120.45 170.671 120.047 170.707 120.012 170.628C119.988 170.564 120.205 170.512 120.264 170.457C120.4 170.313 120.273 170.144 119.73 170.061C119.354 169.996 119.28 169.987 120.015 169.937C120.453 169.98 120.464 169.897 120.467 169.831C120.48 169.764 120.535 169.66 120.337 169.612C120.184 169.56 119.767 169.548 120.017 169.444C120.762 169.41 120.552 169.232 120.426 169.161C120.301 169.106 119.196 169.057 119.461 169.017C120.118 168.925 120.373 168.886 120.444 168.748C120.547 168.558 120.539 168.362 120.375 168.179C120.314 168.119 120.224 168.045 120.108 167.99C120.04 167.946 119.696 167.928 119.693 167.895C119.689 167.846 120.338 167.772 120.528 167.722C120.771 167.651 120.922 167.588 120.981 167.517C121.056 167.428 120.957 167.355 120.312 167.38C120.81 167.368 119.972 167.196 119.885 167.155C119.828 167.127 120.583 166.994 120.688 166.935C120.829 166.857 120.903 166.752 120.74 166.684C120.595 166.615 119.971 166.671 119.612 166.686C119.609 166.654 119.538 166.578 119.618 166.538C119.755 166.526 119.893 166.513 120.012 166.503C120.149 166.49 120.069 166.416 120.075 166.382C120.072 166.349 120.459 166.331 120.538 166.291C120.626 166.234 120.612 166.186 120.58 166.14C120.466 166.002 120.019 165.96 119.565 165.852C118.999 165.722 119.555 165.738 120.275 165.723C119.861 165.744 120.229 165.629 119.895 165.609C119.831 165.615 119.294 165.614 119.285 165.615C119.28 165.549 119.973 165.553 119.976 165.487C119.969 165.405 119.384 165.376 119.241 165.323C119 165.213 119.504 165.266 119.719 165.296C120.047 165.349 120.866 165.309 120.691 165.209C120.526 165.126 120.009 165.024 119.337 165.051C121.031 164.982 119.351 164.393 120.568 164.349C121.358 164.196 120.326 164.125 120.193 163.988C120.091 163.883 120.128 163.781 120.111 163.684C120.097 163.537 119.662 163.428 119.66 163.297C119.66 163.198 120.136 163.139 120.115 163.01C120.11 162.961 120.121 162.877 119.851 162.852C119.721 162.848 119.345 162.881 119.359 162.831C119.396 162.729 120.315 162.663 120.756 162.64C119.846 162.689 120.256 161.797 120.3 161.678C120.345 161.559 120.745 161.376 120.689 161.265C120.642 161.155 120.421 161.059 120.137 160.986C120.042 160.962 118.985 160.925 118.982 160.991C118.975 160.91 120.354 160.835 119.921 160.743C119.864 160.731 119.202 160.659 119.382 160.61C119.482 160.585 120.565 160.603 120.455 160.514C120.327 160.427 119.935 160.281 119.212 160.362C119.115 160.305 119.905 160.152 120.114 160.117C120.15 160.098 120.736 159.831 120.598 159.844C120.247 159.842 119.544 159.938 119.471 159.846C119.418 159.769 119.724 159.676 119.597 159.605C119.471 159.534 119.196 159.559 119.196 159.46C119.186 159.346 119.759 159.245 119.85 159.122C119.916 159.034 119.794 158.913 119.182 159.001C119.3 158.974 120.106 158.688 119.888 158.724C119.616 158.781 118.821 158.984 118.882 158.847C118.913 158.779 119.239 158.7 119.361 158.624C119.616 158.469 119.678 158.234 118.979 158.28C119.374 158.244 120.039 157.938 120.062 157.887C119.471 157.989 119.61 157.895 119.612 157.812C119.603 157.714 119.67 157.741 119.294 157.775C118.763 157.823 119.552 157.456 119.591 157.37C119.614 157.319 119.267 157.367 119.206 157.306C119.107 157.233 119.152 157.114 119.136 157.033C119.12 156.854 118.982 156.768 117.995 156.889C118.316 156.86 118.802 156.817 119.183 156.733C119.626 156.628 119.117 156.624 118.971 156.637C118.089 156.7 118.383 156.575 119.301 156.295C119.949 156.106 117.531 156.454 118.655 156.205C119.398 156.04 119.324 155.735 118.338 155.971C118.763 155.867 118.959 155.784 119.189 155.664C119.303 155.605 119.074 155.625 119.068 155.56C119.061 155.479 119.347 155.371 119.384 155.269C119.43 155.166 119.047 155.217 119.049 155.135C119.041 155.053 119.078 154.951 119.16 154.829C119.292 154.653 119.563 154.481 119.398 154.397C119.321 154.354 118.665 154.462 118.662 154.43C118.658 154.381 119.412 154.133 119.56 154.037C119.761 153.904 119.172 154.039 118.928 154.094C118.692 154.148 117.513 154.5 117.981 154.261C118.37 154.062 118.916 153.865 119.131 153.681C119.405 153.443 117.711 153.923 118.571 153.518C119.095 153.274 118.762 153.073 118.665 153.016C118.566 152.943 118.334 152.931 118.469 152.787C118.502 152.751 119.216 152.26 119.074 152.322C118.798 152.446 118.572 152.597 118.315 152.62C118.178 152.633 118.155 152.585 118.16 152.536C118.178 152.435 118.379 152.204 118.978 151.969C117.12 152.694 119.232 151.717 119.042 151.651C118.871 151.601 118.005 151.942 117.877 151.854C117.846 151.824 118.255 151.541 118.332 151.468C118.642 151.112 117.743 151.603 117.981 151.27C118.138 151.058 118.253 150.9 118.161 150.794C118.13 150.763 117.745 150.798 117.745 150.798C117.816 150.561 119.253 149.578 118.622 149.651C118.319 149.678 118.083 149.93 118.061 149.784C118.26 149.634 118.423 149.488 118.452 149.403C118.467 149.369 118.16 149.545 118.076 149.536C117.587 149.547 119.082 148.082 117.867 148.552C117.86 148.47 118.296 148.382 117.867 148.552L117.848 148.537Z" fill="#959EC6"/>
<path d="M12.8959 28.365C12.2682 24.9701 12.2595 28.5863 12.7169 28.4303C12.7854 28.4735 12.8423 28.3862 12.8959 28.365ZM58.1519 15.6328C57.8316 12.1611 57.5086 15.674 57.9685 15.6492C58.0294 15.7095 58.0968 15.6377 58.1519 15.6328ZM62.4914 13.1076C62.4826 13.0097 62.261 12.2901 62.2427 12.2917C62.1052 12.3041 62.1308 13.5179 62.1841 13.9075C62.3217 13.8952 62.5505 13.9733 62.4914 13.1076ZM98.5377 8.5794C98.4492 7.79851 98.2699 7.96247 98.0792 7.89738C98.0503 8.60662 98.0683 8.70363 98.23 8.75486C98.2483 8.75322 98.5863 9.01876 98.5363 8.56308L98.5377 8.5794ZM115.581 21.9906C115.357 21.7641 114.944 23.1321 115.198 23.3889C115.435 23.5648 115.752 22.2546 115.581 21.9906ZM116.812 22.4226C116.58 22.7228 116.39 22.8713 116.234 23.6083C116.572 23.9725 116.766 23.5606 116.812 22.4226ZM9.08056 26.7348C9.10524 27.4228 8.88308 27.2126 8.72242 27.2763C8.61482 26.6943 8.41422 25.6934 8.60239 25.6273C8.77221 25.5627 9.04314 25.8014 9.0714 26.7356L9.08056 26.7348ZM13.8039 22.614C13.8286 23.302 13.6064 23.0918 13.4457 23.1555C13.3381 22.5735 13.1467 21.5718 13.3349 21.5056C13.5062 21.4574 13.7756 21.6798 13.8039 22.614ZM40.7897 14.8549C40.7539 15.384 40.7639 15.909 40.5462 15.7477C40.4569 15.1641 40.2915 14.1436 40.4826 14.1101L40.7819 14.8721L40.7897 14.8549ZM52.7504 11.1538C52.4793 11.326 52.3395 10.7962 52.2024 9.57596L52.3857 9.55953C52.5246 9.97437 52.6781 10.5522 52.7504 11.1538ZM81.7748 13.664C81.5029 13.6226 81.4882 12.0134 81.7218 12.0418C81.8646 12.6042 82.0762 13.5219 81.7748 13.664ZM86.8957 12.0219C87.0189 11.4357 87.2001 11.9124 87.0313 12.5028C86.935 12.8729 86.8421 13.177 86.7518 13.6124C86.7358 13.0223 86.6897 11.9911 86.8865 12.0227C86.6988 11.9902 87.0471 11.2359 86.8865 12.0227L86.8957 12.0219ZM94.2819 13.7922L93.7282 13.5954C93.757 12.8861 93.7865 12.8013 93.9496 12.8689C94.0838 12.9226 94.3267 12.9501 94.2834 13.8085L94.2819 13.7922ZM117.326 28.5719C117.16 28.3732 116.94 28.393 117.232 27.5287L117.389 27.7282L117.317 28.5727L117.326 28.5719ZM127.952 44.9411C127.943 44.4324 127.448 44.263 128.016 43.4891C128.019 43.111 127.46 42.9637 127.992 42.193C127.759 42.4769 127.005 44.0727 126.822 43.777C126.671 43.5439 127.343 41.7581 126.943 41.827C126.805 41.8393 126.563 42.4362 126.495 42.6065C126.135 43.1317 126.012 42.7813 125.921 42.5922C125.796 42.3405 125.702 41.593 126.274 41.0652C126.743 40.6287 127.157 41.4298 127.587 40.4545C128.108 39.2575 127.728 39.1436 127.18 39.735C126.439 40.5409 125.977 38.8897 126.652 37.7609C126.483 38.039 125.964 39.0551 125.84 38.902C125.685 38.7186 125.423 38.3806 125.054 39.0052C125.883 37.6327 124.801 35.7739 124.539 35.4196C124.028 34.6764 123.282 35.0063 122.301 35.8172C122.429 35.707 123.397 34.8481 123.452 34.3336L123.207 34.1749C123.12 34.0347 123.163 34.1953 123.354 33.6522C123.639 32.805 123.614 32.2157 123.093 33.2155C122.755 33.8702 122.64 34.2421 122.438 33.948C122.332 33.793 122.19 33.6578 122.155 33.3652C122.134 33.1371 122.341 32.757 122.286 32.6632C122.114 32.3992 121.949 32.1019 121.77 31.855C121.454 31.4232 120.638 33.6654 120.723 33.7892C120.584 33.5718 121.069 31.1453 121.079 30.5364C121.086 29.8948 120.963 29.6595 120.799 30.7094C120.704 31.3094 120.321 32.8065 120.262 31.8422C120.225 31.3196 120.256 30.7416 120.332 30.0446C120.343 29.9614 120.437 29.3614 120.404 29.2987C120.468 29.3915 119.899 30.9873 119.744 31.2148C119.558 31.5108 119.956 29.1416 119.975 28.9427C120.336 26.0672 119.414 30.8335 119.344 30.8726C119.143 31.1044 119.562 28.158 119.098 29.3663C119.562 28.158 118.251 27.1416 118.04 26.9468C117.749 26.6935 117.409 26.9211 117.115 26.8326C116.906 26.7691 117.179 25.3806 116.899 25.6686C116.738 25.8309 116.203 26.7664 116.109 26.6433C116.109 26.6433 116.478 25.92 116.747 25.3042C117.015 24.6886 117.19 24.1634 116.803 24.5925C116.475 24.9508 116.274 24.4593 115.927 25.5422C115.639 26.4553 115.677 24.9235 115.416 25.8179C115.719 24.7719 115.895 23.9508 115.694 23.3609C115.558 22.9786 114.733 25.6325 114.41 25.9409C113.557 26.7405 114.626 22.4704 114.921 21.3266C114.301 22.3516 113.88 23.3261 113.437 24.3682C113.47 23.3957 113.49 22.6873 113.425 21.855C113.266 22.8718 113.009 22.2703 112.825 22.3854C112.729 22.4433 112.144 23.5475 112.145 23.876C112.142 22.7095 112.72 20.8993 112.05 21.4688C111.569 21.8735 111.537 21.3175 111.758 19.868C111.542 19.723 111.521 20.5138 111.363 20.9223C111.138 21.5012 110.931 20.7473 110.701 21.0638C110.471 21.3802 110.473 22.2345 110.302 22.6936C110.123 23.1699 109.99 22.4093 109.875 23.0934C110.051 21.9601 110.087 22.0555 109.832 21.8812L109.329 21.5318C109.418 20.9815 109.544 20.0171 109.741 20.1473C109.855 19.8742 109.925 20.2459 110.035 19.5129C109.537 19.2125 109.233 20.7681 108.736 21.3056C108.229 21.844 108.937 19.8414 108.934 19.8088C108.945 19.7256 108.549 20.1555 108.549 20.1555C108.294 20.7043 108.245 20.6758 108.194 19.908C108.116 18.8303 107.61 18.2348 107.545 20.2948C107.448 20.0405 107.352 20.4107 107.292 20.4653C107.214 20.5217 107.573 18.8462 107.61 18.547C107.692 17.9151 107.517 18.128 107.398 18.2374C106.83 18.8141 106.551 21.2713 106.068 20.9366C106.199 20.1196 106.36 19.2342 106.37 18.428C106.396 17.0617 105.978 17.6579 105.804 18.8075C105.943 17.8911 106.025 16.7335 105.758 16.5437C105.676 17.0769 105.358 20.2279 105.253 18.6432C105.198 17.8264 105.395 16.5105 105.108 16.3061C104.921 16.175 104.744 16.8811 104.577 16.5674C104.753 15.4341 103.879 15.1673 103.706 15.1992C103.406 15.259 103.566 16.8387 103.435 17.1298C103.079 17.9012 103.31 14.906 103.299 14.4797C103.316 14.1496 103.204 13.9295 103.059 13.7617C102.881 13.6298 102.658 13.6169 102.574 13.608C102.228 13.5569 101.871 13.7038 101.532 14.0465C101.43 14.1378 100.781 15.3627 100.732 15.1206C100.659 14.7163 101.394 12.0868 101.136 12.3071C100.931 12.4898 99.9626 13.8584 99.9334 14.6663C99.9823 13.5608 99.8192 13.0825 99.5801 12.8902C99.3807 12.7273 99.1713 12.7625 98.9702 12.9942C98.8107 13.1728 98.7408 13.8364 98.5749 14.0485C98.0956 14.6831 97.8664 12.8466 97.5135 12.1058C97.4106 11.885 97.4031 12.2143 97.3817 12.5942C97.2441 12.6065 97.0949 12.4884 96.9607 12.4347C96.7121 12.342 96.468 13.0212 96.1842 12.948C95.9384 12.8879 95.7978 12.5554 95.576 12.2466C95.4697 12.0918 95.2615 11.831 95.1543 12.2844C94.983 13.0556 94.2715 12.232 94.0195 12.2053C93.9081 12.1988 93.1276 13.2876 93.1067 13.158C93.0694 12.9477 93.2535 12.011 93.2723 11.9107L92.8693 12.5713C92.8274 12.7229 92.513 14.1644 92.4522 14.1041C92.4125 14.0748 92.5014 12.9 92.4322 12.6433C92.3209 12.226 92.0945 12.2791 91.9511 12.2263C91.7251 12.5916 91.3453 13.2008 91.4126 11.6829C91.397 12.128 91.1529 12.8072 91.1671 13.0689C91.0846 11.9424 90.9659 11.8544 90.6516 11.7511C90.5082 11.6982 90.2952 11.4872 90.1474 11.7963C90.0549 12.0018 90.1145 12.358 90.0093 12.3181C89.6935 12.1985 89.6127 11.4005 89.2758 11.2499C89.1309 11.1807 88.4187 11.2774 88.4647 10.1393C88.1107 10.0067 88.3775 11.6426 88.1148 12.0113C87.9826 12.1874 87.8988 11.0446 87.8801 10.734C87.8047 10.5107 87.7172 10.2556 87.5911 10.0861C87.5592 10.0397 87.5119 10.0275 87.466 10.0316C87.0347 10.1689 86.396 11.7051 86.3357 10.4123C86.3615 10.8044 86.361 13.1709 86.2176 13.118C86.1414 13.092 86.0397 12.1643 86.013 11.9695C85.9695 11.7927 85.8434 11.6232 85.7888 11.5295C85.5795 11.1538 85.4882 11.0634 85.2978 11.3105C85.2317 11.3986 85.1444 11.4557 85.0877 11.1321C84.9805 10.4515 85.1826 9.20089 85.1105 8.91155C85.0248 8.57412 84.6818 9.90312 84.5641 9.9301C84.2186 9.99391 83.8265 9.12521 83.4768 8.72926C83.1058 8.30235 83.5634 12.5834 82.9978 10.81C82.7037 9.89958 82.5778 8.90841 82.1929 9.25515C82.0642 9.36529 81.8094 11.886 81.683 9.95818C81.5393 7.73605 81.1778 9.47757 81.0022 10.1999C80.6943 11.5094 80.4934 9.47315 80.1447 9.19216C79.7854 8.89568 80.1311 11.4119 80.0717 12.091C80.0203 12.753 79.5302 9.65806 79.4442 10.5532C79.4216 10.8182 79.5862 11.3129 79.5112 11.714C79.4737 11.9145 79.2387 11.8699 79.183 11.6612C78.9531 10.7451 79.2368 9.68435 78.8051 9.19715C78.2486 8.5568 77.5576 8.68446 77.0586 9.30436C76.8928 9.51641 76.878 9.76425 76.6854 9.78151C76.4158 11.1039 76.5028 7.74364 76.4753 7.74611C76.1563 7.69252 76.4199 10.8406 75.9101 8.86496C75.8295 8.79001 75.7219 8.93111 75.653 8.98659C75.4616 9.11878 74.1373 10.9466 74.0811 9.39039L73.6162 11.7328C73.5649 10.4391 73.2776 10.1197 73.0473 10.0253C72.788 9.91708 72.769 8.98208 72.6241 8.18979C72.5043 7.57604 72.3631 10.744 72.1006 10.7018C72.0794 10.26 72.1011 7.92442 72.004 7.76879C71.79 7.44285 71.4625 8.32676 71.4864 9.21204C71.4975 9.85194 71.7086 10.5561 71.4899 10.5922C71.3432 10.6053 71.3025 10.461 71.1993 9.92798C71.0365 9.03871 71.161 7.74572 71.0145 6.93716C70.983 6.79207 70.8905 8.1315 70.8876 8.0989C70.7924 8.584 70.6648 8.80907 70.5012 8.84017C70.3636 8.8525 70.3183 8.34711 70.2409 8.61699C70.1094 9.00674 70.0828 9.535 70.0166 10.0339C69.922 10.7326 69.7377 8.36626 69.5592 9.05604C69.4784 9.39196 69.4895 10.0319 69.3836 10.1893C69.2683 10.3475 69.1297 10.2449 69.0076 10.223C69.3174 10.2774 69.6889 8.74862 69.1781 8.51502C68.9463 8.40431 68.5127 8.72253 68.5643 9.91757C68.4621 7.64244 67.0106 8.46272 66.6501 8.46215C66.3065 8.44365 66.5159 9.54238 66.5989 10.8825C66.5305 12.2855 66.4847 12.2896 66.2278 10.8665C66.0715 8.39896 65.1659 7.57626 64.7412 7.58144C64.5106 7.58567 64.2403 7.56059 64.1391 8.39135C63.989 9.60446 63.8836 9.97545 63.5048 9.97653C63.9034 9.9901 63.9436 8.37601 63.4519 8.35432C63.0716 8.33909 62.6927 8.34018 62.3197 8.40646C61.8749 8.49563 61.6789 8.57893 61.6181 10.3756C61.6489 9.58407 61.6942 8.95553 61.5482 8.04832C61.4663 7.54621 61.1484 7.19672 61.1915 7.88308C61.2457 8.79851 60.9317 8.28434 60.7449 8.3668C60.6485 8.42475 60.7274 9.3051 60.6634 9.62309C60.5682 10.1082 60.3527 9.04288 60.2053 8.84243C60.0579 8.64201 59.9161 8.60541 59.7934 8.68214C59.6619 8.75967 59.4974 8.98804 59.4993 9.62877C59.5027 10.2858 59.3115 10.0072 59.1464 10.0219C59.0423 8.96307 59.1168 8.66059 58.8416 9.0961C58.6894 9.35623 58.5429 9.68161 58.4009 10.0559C58.4104 9.95642 58.1548 10.8175 58.1528 10.1767C58.1507 9.94683 58.2385 9.79106 58.1444 9.25718C57.8694 9.28182 57.9415 9.57116 57.8319 10.2055C57.7599 10.6392 57.5414 11.3983 57.3603 10.5107C57.1204 9.38179 57.3002 9.11917 56.8804 8.66378C56.6554 8.421 56.3245 7.92477 56.1135 7.94368C55.8843 7.96421 56.1239 8.78087 56.1479 9.2553C56.1789 9.90987 56.0411 10.3331 55.869 9.85547C55.7572 9.5368 55.3199 8.88577 55.408 9.76531C55.1804 7.53428 54.4763 9.37221 54.2727 9.47262C54.0706 9.58933 54.0692 9.16217 53.8669 8.96668C53.6341 8.74103 53.4154 8.77705 53.2046 8.79595C53.0487 8.80991 52.0125 9.3136 51.8769 8.10966C51.5927 8.13512 51.546 8.33651 51.6648 9.55841C51.7144 10.1127 51.6458 11.2035 51.5082 11.2158C51.5357 11.2133 51.198 9.40302 51.1148 9.19684C50.873 8.56116 50.6312 8.64855 50.4951 9.08803C50.3712 9.46067 50.2321 9.86755 50.0561 9.9655C50.0286 9.96796 49.8015 9.08444 49.7348 8.95895C49.3496 8.27038 49.762 11.6352 49.5083 11.6908C49.1338 11.7408 49.2231 9.33347 48.9386 9.04673C48.4397 8.53269 48.276 10.8316 47.9892 11.4489C47.9354 11.5688 47.2093 12.4391 47.3946 11.2064C47.7676 11.1401 47.7455 10.1725 47.2906 9.73671C47.1399 9.60231 46.7129 9.78847 46.886 10.7919C46.9398 11.0828 47.2948 12.0535 47.2353 12.4204C47.232 12.4864 46.1132 9.28346 46.1638 10.3636C46.2052 11.0336 46.3613 11.7427 46.3859 12.4307C46.4063 13.0698 46.2858 13.3764 46.2456 13.8566C46.0248 12.2166 45.9683 11.4821 45.5373 11.5208C45.4273 11.5306 44.9241 12.4138 45.2278 13.2247L44.8639 13.2902C44.7641 12.6911 44.7534 11.9525 44.598 11.457C44.4035 10.8335 44.1473 10.7579 44.021 10.9993C43.7131 11.5856 44.0117 14.4019 43.365 11.929C42.9699 9.17071 43.156 12.5887 42.8839 12.6459C42.6942 12.6958 42.1993 11.1954 42.1361 11.7269C42.1188 11.8435 42.0896 13.3745 42.1016 13.4062C41.8408 12.5586 41.9482 12.1053 41.5728 11.6295C41.4057 11.4144 41.086 11.1472 41.133 11.9811C41.1803 12.7164 40.8805 12.4639 40.6908 12.5138C40.573 12.5407 40.7727 14.1498 40.5204 14.2217L40.284 12.616C40.1479 12.6446 39.9173 12.6488 40.0405 13.5088C39.9871 14.2531 39.9412 14.2572 39.6782 13.5905C39.5146 13.6216 39.5156 13.7366 39.6151 14.4343C39.7476 15.2934 39.5063 15.2822 39.3702 15.3108L38.9689 12.5859C39.1295 13.6561 38.5845 13.9679 38.4011 13.9843C38.1443 14.0073 38.0361 13.2118 37.8154 13.0179C36.8945 12.2295 36.0951 12.6955 35.2878 12.8664C35.2878 12.8664 35.1246 12.0758 34.9702 12.1061C34.8341 12.1347 34.7131 12.2277 34.5814 12.3053C34.18 12.5713 33.786 12.9188 33.392 13.2664C32.8693 13.7241 32.2754 14.0073 31.8035 14.7234C31.6175 15.0195 31.4028 15.203 31.3938 15.9269C31.3826 16.4209 31.1629 16.342 31.0451 16.369C31.1537 16.3428 31.1654 15.7502 30.9809 15.6517C30.6105 15.4383 30.2657 15.7158 29.9415 15.8105C29.7977 15.8563 29.3812 15.7457 29.389 16.4517C29.3961 16.9441 29.7836 18.5856 29.8713 19.1529C29.6098 19.2256 29.2876 17.6933 29.1248 16.804C28.9008 15.5423 28.6967 16.1522 28.426 16.2257C28.0834 16.3221 27.7126 16.6183 27.3122 16.2762C27.233 16.2176 27.0715 15.7555 27.0362 15.7751C26.8752 15.9374 26.8757 16.5618 26.7959 17.0127C26.6408 17.9633 25.9742 16.6097 25.631 16.4926C25.2481 16.3461 25.3523 17.405 25.3691 18.521C25.3929 20.5402 24.9866 17.5528 24.8814 17.1021C24.6099 15.9267 24.6184 18.2924 24.6026 18.4253C24.4687 19.4069 24.0716 17.5526 23.7967 17.1664C23.4594 16.7036 23.1904 17.1057 22.9769 17.4042C22.8449 17.5804 22.0962 18.7156 21.8456 17.2591C21.5944 17.0351 21.4244 17.5104 21.2737 17.7869C20.6769 18.7606 19.8913 18.8639 19.2811 19.7896C19.069 20.1044 18.8513 20.6662 19.0889 21.9761C18.9589 21.2482 18.8152 20.16 18.574 19.7379C18.3768 19.394 18.4199 20.0804 18.2538 19.9802C18.1548 19.9069 18.0466 19.8345 17.9356 19.7294C17.482 19.3099 17.1618 19.5522 16.7932 19.6674C16.7581 20.4101 16.0381 20.5239 16.0469 20.6217C16.1828 22.1379 16.5855 23.7451 16.6921 25.3461C16.7208 25.7708 15.9252 24.2151 15.9478 22.8163C15.9736 21.3513 15.6807 20.8681 15.3305 20.9817C15.1867 21.0274 14.9087 21.0195 14.9064 21.6113C14.9043 22.1045 15.016 22.4232 14.7799 22.2636C14.6109 22.1308 13.6129 20.3796 13.5568 19.5465C13.63 20.6739 13.5229 20.7164 13.22 20.8421C12.9522 20.9483 12.727 21.1164 12.5778 21.7213C12.536 21.873 12.4663 22.8488 12.3967 22.6907C12.2695 22.4063 12.0164 21.5416 11.9112 21.5017C11.6915 21.4228 11.6777 22.1964 11.4895 22.2626L10.8715 22.4823C10.3735 21.3601 10.6724 23.3547 10.7733 24.0687C10.8831 24.8806 10.7587 25.0396 10.598 25.1033C10.2931 23.4544 10.2449 22.9164 9.83859 22.92C9.11904 22.9351 8.44851 23.291 7.77066 23.5654C7.72482 23.5695 6.97404 23.7518 7.20668 24.3883C7.61005 25.4861 7.1835 25.5736 6.99322 25.4099C6.80148 25.2299 6.76472 24.5101 6.59172 24.2298C6.46124 24.0114 6.32955 24.0889 6.23932 24.1135C6.05887 24.1625 5.45932 23.9697 5.46672 24.7743C5.46828 25.5137 5.22565 25.0753 5.06671 25.4675C4.97568 25.6893 5.04272 26.8501 4.98 26.8721C4.91728 26.8942 4.71255 26.1566 4.60187 25.9529C4.29548 25.4216 4.02081 25.3476 3.7912 25.4667C3.44822 25.6618 3.06086 25.8773 2.76585 26.2981C2.60917 26.5094 2.63904 27.049 2.7946 27.8568C2.73045 29.7195 4.58185 32.3308 3.6555 28.3877C3.84838 29.4057 4.68769 28.8704 5.06647 30.0032C5.34269 30.8166 5.24028 30.0863 5.33797 29.7324C5.44335 29.3614 5.64612 29.4583 5.78447 29.2487C6.45012 28.2194 7.35531 28.0069 8.22156 27.9785C8.76544 27.9627 10.237 29.3263 9.60058 25.8336C9.56616 25.6559 9.23849 23.2367 9.45238 23.9735C9.6498 24.6296 9.89413 25.3965 10.0376 26.1724C10.105 26.5115 11.0063 30.5885 11.0159 30.489C11.0413 30.2567 10.9296 29.938 11.0177 29.6836C11.1058 29.4292 11.236 29.3354 11.3706 29.2904C11.5771 29.2226 11.8999 29.1115 12.1107 30.2266C11.7206 28.1416 12.4436 29.5066 12.2183 27.8176C12.0969 26.8753 11.8927 24.9052 12.4547 26.4324C12.713 27.1488 12.7995 28.0121 13.1103 28.5923C13.3211 28.9842 13.488 28.8871 13.3995 28.1062C13.3052 27.2601 13.4048 27.547 13.6205 27.4783C13.7276 27.4359 13.7575 27.9755 13.8751 28.3594C14.3091 29.7995 14.3298 26.626 14.8882 27.9071C15.1131 27.8376 15.0185 25.5454 15.1559 25.9439C15.23 26.1509 15.5848 27.5324 15.6237 27.3481C15.7031 26.9959 15.4411 26.0334 15.5074 25.5344C15.5103 25.567 16.1864 27.9551 16.2 28.0032C16.1121 26.7128 16.1876 25.8021 16.6828 26.4809C16.9137 26.7888 17.1572 27.03 17.3288 26.8831C17.3887 26.8285 17.4997 26.2105 17.3206 26.2758L17.7428 26.1394C18.0303 26.0479 17.8012 26.0684 17.8223 25.3763C17.8426 24.8815 18.5007 25.7263 18.6441 25.7792C18.8454 25.8598 19.2567 26.1188 19.2991 25.4576C19.332 24.8959 18.949 23.3033 19.5557 24.7115C19.8601 25.736 20.4079 26.2786 19.9153 24.5971C19.6509 23.0925 19.8423 22.6481 20.2542 23.5314C20.5495 24.1459 20.7372 25.3123 20.9605 24.5035C20.9884 24.4024 21.1369 22.4499 21.2104 22.7555C21.2705 23.0131 21.1208 24.1276 21.3514 24.5342C21.55 24.8944 21.6855 23.5182 21.7326 23.2182C21.9391 23.1504 22.1749 22.9978 22.4538 23.5315C22.7207 24.0335 22.8877 24.2486 23.1185 24.2444C23.3674 24.2385 23.6019 24.0696 23.7657 23.6277C23.9293 23.1857 23.8575 22.0746 24.1609 22.9842C24.5005 23.9891 24.848 24.1551 25.0649 23.7906C25.2172 23.5305 25.0041 22.5964 24.8984 21.9321C25.2906 24.2469 25.9251 23.3848 25.9739 22.2794C25.9931 21.6696 26.2349 21.5823 26.4518 22.3516C26.5887 22.8488 26.4543 23.206 26.642 23.6493C26.8189 24.0771 26.8236 23.3043 26.8674 23.0703C26.9765 22.5347 27.2713 22.5247 27.5436 23.1905C27.7686 24.5672 27.78 22.5284 27.8769 22.3718C28.1169 21.9559 28.5728 22.5067 28.703 21.6898C28.8129 20.9568 29.1793 21.0226 29.4613 21.1781C29.7905 21.3458 30.3899 21.9495 30.4904 20.9051C30.5302 20.5236 30.8752 21.6923 31.0134 21.8936C31.2381 22.235 31.1712 21.3864 31.3701 21.3357C31.5873 21.2834 31.8391 21.3101 32.0204 21.0638C32.2277 20.7988 32.0127 19.947 32.3935 20.5867C32.7531 21.1954 33.5295 22.2269 33.1366 19.6984C33.5354 22.2921 34.8312 21.0749 34.9639 19.9784C35.0761 19.0645 36.0011 22.9914 35.9422 20.581C35.9205 19.5147 35.781 18.1632 36.2361 19.3221C36.3186 19.3147 36.8574 19.0363 36.7983 18.8937C36.8346 18.9891 36.7435 19.6217 36.9256 19.9012C37.0744 20.118 37.2249 19.9401 37.3427 19.9132C37.6712 19.8673 38.1777 20.7751 38.4584 20.5034C38.0727 19.9135 37.6038 17.6712 37.6879 16.5462C37.9875 16.4865 38.054 18.1567 38.1114 18.6939C38.21 19.5889 38.5357 18.7874 38.6848 18.9055C38.8235 19.0081 39.2701 20.3814 39.2793 19.9697C39.2891 19.4594 39.2098 18.6777 39.444 18.9196C39.8 19.2821 40.125 20.124 40.4536 20.0781C40.1089 19.2216 41.5116 19.0959 41.6075 18.8244C41.674 18.6376 41.2564 17.2782 41.3336 16.6961C41.4315 15.9314 41.8515 18.1451 41.9214 18.6155C41.8472 18.0962 41.8025 17.0813 42.0312 17.5703C42.2371 18.012 42.3078 19.0081 42.4886 19.2713C42.5963 19.4424 42.384 17.1771 42.6598 17.3661C42.739 17.4247 43.393 19.256 43.2605 18.3969C43.1877 17.8939 42.9586 17.5036 43.0765 17.0658C43.1198 16.9304 43.1904 16.8912 43.2691 17.0485C43.4992 17.5538 43.5415 19.1605 43.7794 19.2378C43.9412 19.289 44.1458 19.3036 44.2629 19.063C44.3092 18.9602 44.2904 18.3375 44.2904 18.3375C44.5717 18.2794 44.8709 18.3183 45.1163 18.0662C45.4124 17.7603 45.3544 17.0096 44.9452 16.5697C45.1991 16.5141 45.4548 16.3761 45.772 17.2351C46.0274 17.9189 46.437 18.9832 46.5686 18.1826C46.6642 17.5989 46.6199 17.2084 46.8451 17.0404C46.9369 17.0321 47.1304 17.1298 47.1998 16.9757C47.1716 16.7646 47.1105 16.3921 47.1538 16.2567C47.3103 15.7333 47.718 16.1569 47.9151 15.7777C48.1121 15.3985 48.2163 14.6003 48.5163 15.5759C48.7001 16.1839 49.2217 16.0221 49.2487 15.3952C49.2775 14.686 48.8211 14.2339 48.7386 14.2413C48.922 14.2248 49.098 14.1269 49.3074 14.5026C49.5046 14.8464 49.6594 15.4406 49.8603 15.6198C50.1907 15.9024 50.1434 14.7563 50.488 15.3006C50.6275 15.5182 51.2248 17.749 51.1016 16.1659C51.0274 15.2359 50.892 13.621 51.3141 14.6185C51.5727 15.2363 51.6451 15.8379 51.9296 16.1246C52.0209 16.215 52.6596 16.5358 52.6133 15.9154C52.5739 15.4753 52.1447 13.5745 52.515 13.7879C52.7879 13.9442 52.7478 15.1474 52.9027 15.7416C52.8983 15.6927 52.9763 14.1902 52.9922 14.0574C53.0943 13.3416 53.1797 13.7776 53.3239 14.3563C53.551 15.2398 54.2068 15.8548 54.3735 15.4455C54.5802 14.9668 54.0168 12.2893 54.133 12.246C54.3029 12.1815 54.4183 13.0586 54.5437 13.4253C54.7294 13.951 54.9454 14.1946 55.1283 14.2768C55.3798 14.4021 56.0294 16.1845 56.1685 15.7777C56.2335 15.5746 56.2473 14.0779 56.3857 14.5914C56.5091 15.0405 56.55 15.497 56.7224 15.5637C57.1236 15.7085 57.0405 13.2344 57.3941 13.0549C57.766 12.8736 58.1905 15.5472 58.4776 15.5543C58.5784 15.5453 58.313 14.3365 58.2763 14.3398C58.5056 14.3193 58.6697 15.6357 58.8627 15.5198C59.1077 15.3664 59.2609 14.9089 59.5374 14.9006C59.3999 14.9129 59.7164 14.8353 59.7807 14.4187C59.8623 13.8855 59.985 14.121 60.1445 14.3532C60.4527 14.8021 60.8031 14.6886 61.0295 14.2246C61.1157 14.0525 61.3093 12.2932 61.3872 13.0586C61.5384 14.5405 61.6603 16.1072 61.9309 14.5875C62.1057 13.6516 62.2294 11.4219 62.6855 12.6958C62.9318 13.3803 63.17 14.4929 63.4439 14.7642C63.7086 15.0363 63.6766 14.2668 63.8615 14.2666C64.0188 14.269 64.2476 15.481 64.4522 15.4955C64.4889 15.4923 64.4829 14.704 64.5064 14.5539C64.7314 13.3506 65.1553 16.1228 65.3769 16.1193C65.2576 16.13 64.9488 12.4765 65.5016 14.0046C65.8097 14.8644 65.7316 14.9208 66.0844 14.9384C66.2695 15.2505 66.2962 15.4453 66.3537 16.2947C66.2101 14.0726 67.2308 15.871 67.1032 13.8283C67.1852 15.0534 67.7942 14.8345 67.9626 14.7537C68.1034 14.6754 68.249 14.5473 68.3695 14.2407C68.3724 14.2733 68.4452 12.9192 68.4766 13.0643C68.5857 13.6626 68.5932 15.1902 68.627 15.8774C68.7303 15.2765 68.8903 14.9993 68.8818 14.0797C68.8781 13.1105 68.8574 11.8469 69.1581 11.9022C69.1759 12.41 69.1571 14.3673 69.2568 14.6542C69.4198 15.1326 69.5665 13.9855 69.5942 13.5722C69.7347 13.5925 69.8872 13.6445 70.0279 13.977C70.1218 14.1987 70.2845 15.088 70.396 15.0944C70.593 15.1261 70.5306 13.1925 70.6689 13.3937C70.7008 13.4402 70.8277 14.1354 70.8944 14.2609C70.9959 14.4655 71.1041 14.538 71.2093 14.5778C71.487 14.6844 71.654 14.1764 71.9063 14.1045C72.1235 14.0522 72.2309 15.045 72.4005 14.6683C72.516 14.4114 72.5588 14.0625 72.5352 13.4894C72.5917 14.947 72.615 15.6187 72.9891 15.6673C72.9818 15.5858 72.9688 15.0282 72.9542 14.8652C73.1785 14.8944 74.0097 15.6087 74.123 14.8098C74.134 14.7266 73.8879 12.9081 74.0719 13.1052C74.2454 13.2869 74.4704 14.2527 74.6556 14.5648C75.1122 15.3292 75.6343 15.7918 76.0796 15.604C76.3199 15.5003 76.4316 14.6851 76.6778 14.6466C77.072 14.6113 77.0194 14.0243 77.1193 12.7664C77.0854 13.2132 77.7671 16.0773 77.8172 14.6759C77.8421 13.8192 77.1341 12.1078 77.1716 11.1841C77.1716 11.1841 77.7362 12.8426 77.7783 13.0032C77.9931 13.8549 78.3108 15.0261 78.3546 16.2383C78.285 14.2232 78.8094 15.228 79.0213 14.1901C79.3588 14.242 79.3609 14.4719 79.3638 15.6384C79.3626 16.6574 79.6451 16.3034 79.6728 17.024L79.5482 13.4691C79.8674 13.5227 80.068 16.3806 80.1065 16.295C80.2827 15.7862 80.5287 13.8907 80.8206 14.982C81.0419 15.8003 81.9056 17.4978 82.0046 15.714C82.0536 14.9208 82.5705 15.9427 82.7068 15.0924C82.9652 13.5409 83.0837 16.3076 83.2905 16.552C83.5276 16.8265 83.5966 15.6371 83.8178 15.7323C84.0876 15.8561 84.0353 16.3045 84.0157 17.0129C83.9985 17.8525 84.3593 17.0314 84.3795 16.9474C84.5069 16.4101 84.571 16.8152 84.6681 16.9709C84.9793 17.4524 84.5208 12.6455 84.9873 15.4796C85.2347 17.0023 85.6228 17.0003 85.8183 15.8818C86.0465 14.6124 86.222 14.3008 86.476 16.4144C86.6054 17.6518 87.24 15.2449 87.3598 16.5818C87.3339 16.1897 87.3469 15.6133 87.407 15.1478C87.4728 14.3366 87.9234 14.0005 87.6374 15.5544C87.5404 17.9789 88.0322 16.1435 88.3212 16.0683C88.4925 16.0201 88.7247 16.0322 88.8557 16.4641C88.9341 16.7201 88.8746 17.0869 89.004 17.1904C89.2005 17.3207 89.8277 17.1001 89.8718 16.0444C89.8344 16.9681 89.7573 17.8624 90.0317 18.035C90.1978 18.1352 90.5195 16.7752 90.5628 17.7738C90.5555 17.6923 90.7532 17.5267 90.7775 17.1794C90.8056 16.6674 90.9397 17.132 90.9881 17.2591C91.2555 17.9747 91.6424 18.9918 91.7351 16.5184C91.7209 16.9798 91.6336 18.8939 91.8858 18.0989C92.1011 17.4059 92.0623 17.1793 92.3384 17.2696C92.1751 17.202 92.1437 18.914 92.363 19.0915C92.5427 19.2398 92.737 19.1402 92.915 18.9599C93.3061 18.5797 93.3304 18.2324 93.4079 16.8286C93.7419 16.9466 93.6569 17.2336 93.7305 18.2623C93.7305 18.2623 93.7915 17.9118 93.8495 17.5286C93.9077 17.1454 93.9705 16.7125 93.982 16.5307C93.9291 17.8994 93.9676 18.9477 94.014 20.2912C94.2215 19.6152 94.3966 18.9915 94.5648 18.1876C94.8606 16.8464 95.1952 17.5888 95.5078 18.0867C95.6702 18.3515 96.2558 19.3179 96.3422 18.0119C96.4122 16.9374 96.4398 15.801 96.4794 14.6964C96.7464 14.7875 96.5825 16.7743 96.5536 17.4835C96.5909 16.5599 96.902 18.1754 96.8733 18.8846C96.8509 19.4618 96.7934 20.4694 96.9948 20.55L97.1328 17.0372C97.0547 18.9505 98.0675 19.3199 98.3543 19.4257C98.1545 19.3614 98.212 18.3538 98.2328 17.7603C98.6075 18.0225 98.6495 21.1741 99.0895 19.6885C99.1303 19.4219 99.5262 17.858 99.5401 18.9414C99.5443 19.4012 99.191 21.0269 99.4617 20.9534C99.7598 20.8774 99.8966 19.9284 100.235 20.4075C100.498 20.7619 100.697 21.4343 100.989 21.4904C101.326 21.5423 101.631 19.7894 101.211 19.6462C101.402 19.7113 101.613 19.6924 101.785 19.9564C101.956 20.2204 102.012 20.8399 102.144 21.2882C102.254 21.5906 102.21 21.2988 102.27 21.1455C102.294 20.9954 102.326 20.8446 102.345 20.6457C102.39 20.3131 102.423 19.8663 102.476 19.3193L102.464 19.3861C102.359 19.872 102.347 19.4294 102.455 18.8774C102.48 18.7438 102.516 18.6255 102.551 18.5073C102.639 18.2529 102.75 18.1444 102.796 18.3539C102.885 18.6253 102.761 19.1952 102.621 19.7007C102.561 19.9526 102.52 20.2192 102.49 20.4027C102.46 20.5861 102.454 20.7182 102.551 20.7752C102.707 20.8598 103.596 20.6815 103.532 19.5533C103.479 18.6542 103.412 18.4138 103.746 17.71C103.948 17.2811 104.204 17.0445 104.258 17.7463C104.334 18.8077 103.57 21.522 103.635 21.7298C103.743 22.1145 104.006 22.0581 104.185 21.7792C104.438 21.4113 104.416 20.5423 104.639 20.1444C105.071 19.399 104.502 22.6381 104.864 22.1455C105.211 21.6871 105.462 20.6623 105.637 19.529C105.516 20.3451 105.301 21.3504 105.307 22.1387C105.313 23.0255 105.472 24.3917 105.793 24.0508C105.903 23.9422 105.795 22.8344 106.033 22.5009C106.231 22.2367 106.418 22.4664 106.542 22.7182C106.682 23.0344 106.684 23.9873 106.845 24.0387C107.1 24.0979 107.344 22.4821 107.501 23.2075C107.581 23.5784 107.329 25.4086 107.634 24.7898C107.939 24.1707 108.173 22.457 108.51 22.7062L108.364 23.6561C108.339 24.102 108.283 24.3043 108.189 24.2797C108.099 24.6166 108.842 24.0405 108.917 24.0502C109.124 24.0974 109.09 24.955 109.3 24.8212C109.528 24.6856 109.605 24.3008 109.823 24.4622C110.049 24.6225 110.12 24.6821 110.252 25.229C110.445 26.0497 110.808 24.5218 111.073 24.6952C111.348 24.8842 111.184 26.6574 111.44 26.8316C111.647 26.9773 111.954 25.7667 112.189 25.5978C112.536 25.3529 112.068 27.8599 111.983 28.4591C112.246 27.8932 112.497 27.3942 112.736 26.6498C113.3 24.9064 113.05 26.6544 112.85 27.9214C113.282 26.1406 113.228 27.6081 113.593 26.3101C113.567 27.0518 113.514 27.9111 113.687 28.1913C113.931 27.2986 113.971 27.64 114.149 27.7721C114.396 27.9472 114.844 26.9702 115.059 27.1975C115.119 27.2577 114.612 30.7709 115.103 29.6586C115.288 29.2476 115.838 26.306 115.845 27.5215C115.848 28.277 115.709 28.7827 116.147 28.2011C116.131 28.2353 116.624 27.238 116.61 27.3871C116.494 28.1536 115.725 29.3728 115.695 29.8685C115.681 30.0177 116.025 29.5266 116.041 29.4924C116.289 29.1743 116.312 29.3202 116.456 29.488C116.342 29.3503 116.22 29.953 116.08 30.3434C116.298 29.6831 116.322 30.4696 116.467 30.4401C116.526 30.2706 116.618 29.9502 116.706 29.9094C116.979 29.7535 117.237 30.059 116.982 30.8213C116.619 31.9221 117 32.5618 117.353 31.5605C117.546 31.5432 117.644 32.5368 118.032 31.4997C118.099 32.6604 117.917 35.7828 119.074 33.9534C117.358 37.9035 120.139 33.1514 120.002 34.1004C119.879 34.8839 119.319 36.3801 119.957 35.8629C120.12 35.7169 121.373 34.1255 121.407 33.991C121.168 34.9327 120.554 35.6121 121.035 35.9306C121.311 36.1196 121.608 34.7946 121.846 35.1841C121.589 35.7167 120.895 36.9456 120.826 37.5105C120.764 37.9599 121.092 38.2099 121.398 37.6071C121.648 37.0919 122.138 37.7217 122.221 37.8128C122.367 37.997 122.824 38.4655 122.517 39.2653C122.12 40.3033 121.97 41.1056 122.529 40.9405C122.799 40.867 123.158 40.2267 123.377 40.4044C123.567 40.5681 123.577 41.0931 123.586 41.5031C123.595 41.601 123.801 43.1765 123.985 42.7492C124.656 41.1608 124.611 43.0383 124.738 43.4214C124.839 43.7245 124.958 44.026 125.149 44.1896C125.35 44.369 125.349 44.254 125.472 43.98C125.628 43.6539 125.639 44.5073 125.661 44.5382C125.75 44.7111 125.856 44.8659 126.01 44.9342C126.175 45.0181 126.93 44.9833 126.455 45.6668C125.906 46.4554 126.07 47.0489 126.349 47.1717C126.628 47.2946 126.992 46.2925 127.169 46.7203C126.795 47.1974 126.429 47.5426 126.559 47.8596C126.772 48.3828 127.95 45.5329 127.938 44.9916L127.952 44.9411ZM131.33 65.8215C131.854 65.2814 131.699 65.0981 130.806 65.3425L130.832 65.6359L131.33 65.8215ZM135.28 71.9588C135.349 71.476 135.23 70.9773 135.07 70.5314C134.895 70.0214 134.779 69.8672 134.217 69.6876C133.57 69.4827 134.336 68.7403 133.198 68.9245C134.272 68.746 134.191 67.4386 134.297 66.8702C134.334 66.6533 134.389 66.2376 134.573 66.024C135.026 65.9175 135.431 65.4868 135.391 65.1454L134.495 65.3571C134.431 64.8533 135.13 64.61 134.848 64.1422C134.63 63.7673 134.216 63.3771 133.673 63.3107C133.431 63.2831 133.305 63.426 133.303 63.196C133.3 62.9497 133.333 62.7004 133.466 62.4419C133.736 61.941 134.146 61.2635 133.671 61.0103C133.212 60.739 132.834 60.2306 132.931 59.6631C132.973 59.413 133.914 58.77 133.614 58.6159C132.94 58.3149 132.256 59.658 132.095 58.7851C131.951 58.0091 133.877 58.2637 133.692 57.3272C133.59 56.8104 132.999 57.5371 132.765 57.2951C132.391 56.9343 132.48 56.0717 132.467 55.5142C132.41 54.2703 132.764 52.3323 132.15 51.3684C131.966 51.0564 131.59 51.3036 131.237 51.2696C130.427 51.2106 131.377 50.8789 131.541 50.5521C131.767 50.0716 131.144 49.6181 130.833 49.6624C129.864 50.0942 130.241 49.7482 130.803 48.909C130.875 48.7875 129.201 49.8086 129.222 49.9382C129.183 49.7115 129.965 48.9349 130.11 48.7081C130.477 48.1496 129.974 48.0137 129.774 47.9496C129.612 47.7832 128.642 47.1798 129.544 46.5239C130.647 45.7185 129.054 45.7955 128.893 45.6454C128.476 45.2227 130.486 42.8899 129.534 43.2051C128.791 44.1921 128.074 46.409 127.739 47.3102C127.711 47.4111 127.112 48.9768 127.43 48.6033C127.78 48.4896 127.859 48.5484 127.779 48.9992C127.673 49.5675 127.392 50.4472 127.864 50.4543C128.271 50.467 128.623 50.1562 128.24 50.9463C128.384 51.4101 129.798 51.2999 128.483 52.42C129.506 51.5561 129.091 53.2201 129.325 53.4621C129.593 53.7669 129.886 53.116 130.299 53.1777C130.654 53.2279 129.919 54.0006 129.675 54.1704C128.433 55.054 129.616 54.948 129.808 55.3416C129.897 55.5143 129.929 57.2043 129.742 57.188C129.956 57.2018 129.672 56.9149 130.133 56.9066C130.371 56.8853 130.389 57.1795 130.422 57.3408C130.471 57.583 130.608 57.9815 130.341 58.3012C130.083 58.6201 129.727 58.7671 130.071 58.9992C130.318 59.1743 130.896 58.9253 131.084 59.0564C131.411 59.3064 130.806 60.1824 130.672 60.5557C130.51 61.0142 130.467 61.4616 130.566 61.8309C130.646 62.218 130.871 62.5594 131.209 62.8248C131.367 62.9422 132.135 63.0541 132.162 63.249C132.158 63.2001 131.315 63.292 131.157 63.3883C130.879 63.5775 131.123 64.2458 131.22 64.4016C131.39 64.6493 131.816 64.3482 131.941 64.6985C132.039 64.969 132.012 65.2839 131.909 65.5889C131.645 66.4507 130.82 66.6396 131.509 67.3173C132.048 67.5484 132.034 67.9113 132.084 68.3669C132.101 68.5624 133.019 68.4802 133.058 68.9204C132.751 68.9973 131.668 68.8806 131.992 69.2954C132.202 69.5725 132.792 69.6674 133.143 69.866C132.251 69.4036 132.792 70.7026 132.723 70.9554C132.597 71.4104 131.875 71.0806 131.912 71.6032C131.947 72.0932 134.223 71.9057 134.17 71.2202L134.211 71.6766C134.233 72.1349 135.19 72.6079 135.289 71.9417L135.28 71.9588ZM136.976 98.9225C137.579 98.6383 137.454 98.3702 136.539 98.1728L136.532 98.5022L136.986 98.938L136.976 98.9225ZM133.336 137.523C134.446 137.423 133.001 136.468 132.935 136.967L133.336 137.523ZM134.037 76.5401C134.013 76.0658 134.932 76.1149 134.95 76.5241C134.657 76.7476 134.159 77.0716 134.037 76.5401ZM135.726 88.5826C135.22 88.513 134.852 88.1187 135.265 87.8844C135.828 87.5546 137.219 87.6107 136.649 88.3686C136.411 88.5048 136.082 88.633 135.735 88.5818L135.726 88.5826ZM135.17 107.548L136.551 107.999C136.146 108.134 135.138 108.126 135.17 107.548ZM134.391 117.314C134.432 116.85 135.341 117.294 135.304 117.708C134.978 117.787 134.442 117.884 134.391 117.314ZM133.524 121.155C133.575 120.69 134.479 121.184 134.431 121.583C134.349 122.313 133.435 121.918 133.524 121.155ZM121.179 175.44C121.037 175.716 123.66 180.132 124.063 179.882C124.204 179.804 124.66 179.319 124.442 178.845C123.983 177.851 123.453 177.094 124.172 177.177C124.608 176.99 125.033 176.673 125.138 175.989C125.21 175.556 124.456 174.16 124.678 174.059C125.042 173.894 126.208 175.351 126.594 175.021C126.809 174.837 125.905 174.031 125.703 173.737C125.8 173.481 126.894 174.649 126.684 173.961C126.63 173.769 124.623 171.171 125.452 171.557C125.829 171.737 126.253 172.553 126.664 172.5C126.829 172.485 126.943 172.212 126.92 171.951C126.849 171.267 125.718 170.711 126.001 169.947C126.449 170.514 126.892 170.919 127.304 171.079C127.634 171.049 128.146 170.888 127.315 169.96C128.394 171.178 128.312 170.463 127.861 169.451C128.65 170.317 128.473 167.622 128.527 167.403C128.261 168.249 127.227 167.027 127.822 166.546C128.218 166.215 128.487 165.714 128.677 165.155C127.746 164.252 127.149 165.538 126.841 165.812C126.978 165.373 127.074 164.904 127.261 164.509C127.385 164.252 127.611 163.886 128.14 164.217C128.629 164.518 128.812 165.11 129.229 165.023C130.072 164.833 128.965 163.518 129.099 162.75C129.214 162.066 129.817 162.095 130.568 162.224C130.015 161.732 129.406 160.603 129.24 160.092C128.984 159.293 129.862 160.332 129.904 160.18C129.987 159.861 129.283 159.332 129.003 159.094C129.303 159.347 130.169 160.354 130.389 160.334C130.738 160.303 130.724 159.532 130.739 159.185C130.759 158.789 130.779 158.081 130.348 157.495C130.073 157.109 129.892 156.944 130.035 156.685C130.124 156.545 130.313 156.495 130.594 156.635C130.963 156.832 130.866 156.676 130.917 156.425C130.996 156.073 130.604 155.401 130.552 154.929C130.511 154.473 130.548 154.059 130.697 153.766C130.8 153.576 131.388 153.638 131.421 153.487C131.441 153.403 131.08 153.288 131.108 153.187L131.173 152.885L131.469 151.445C131.564 150.96 132.035 150.129 131.019 149.415C131.778 149.939 132.023 148.963 132.098 148.562C132.195 147.995 131.627 147.536 131.806 147.06C131.88 146.856 132.457 147.413 132.679 147.31C132.892 147.209 132.911 146.912 132.906 146.649C132.905 146.321 132.86 145.93 132.657 145.521C132.533 145.269 132.109 145.077 131.855 144.919C132.962 145.625 132.222 144.377 132.324 144.072C132.437 143.684 134.125 145.291 133.935 144.519C133.712 143.57 132.287 143.04 131.595 142.33C131.026 141.756 132.74 142.112 132.821 142.187C132.475 141.84 132.234 141.829 132.262 141.415C132.271 141.316 132.396 141.058 132.279 140.888C132.141 140.687 131.811 140.618 131.644 140.403C131.436 140.142 131.516 139.904 131.538 139.738C132.098 140.099 132.453 140.248 132.33 139.7C132.162 138.959 131.928 138.717 132.876 139.191C133.196 139.36 133.309 138.561 133.067 138.336C132.743 138.02 132.555 138.184 132.5 137.779C132.44 137.324 132.551 136.903 132.715 136.576C132.897 136.231 133.348 136.421 133.653 136.213C133.932 136.023 134.052 135.503 133.684 135.01C133.189 134.332 134.286 133.987 134.36 134.095C133.751 133.279 132.837 133.804 132.486 133.606C132.399 133.564 132.395 133.006 132.694 133.143C133.216 133.392 133.063 132.716 132.901 132.352C132.571 131.56 133.382 132.26 133.981 132.239C134.377 132.22 133.739 131.801 133.653 131.677C133.178 131.424 133.262 131.022 133.287 130.789C133.353 130.176 133.673 130.245 132.991 129.337C132.967 129.273 132.657 128.71 132.775 128.683C133.041 128.659 134.053 129.948 134.359 129.444C134.658 128.958 134.597 128.174 134.671 127.56C134.658 127.626 134.627 128.106 134.237 127.878C134.032 127.748 134.373 126.912 133.879 126.661C134.121 126.787 133.365 127.216 133.298 126.992C133.148 126.447 132.273 125.342 133.425 125.929C133.716 126.182 134.133 126.605 134.282 126.313C134.493 125.883 134.632 125.164 134.504 124.567C134.407 124.099 133.584 124.091 133.201 123.846C133.233 123.58 133.823 122.837 134.224 122.883C134.597 122.915 134.65 123.815 134.64 123.914C134.681 123.549 134.546 122.657 135.027 122.565C135.4 122.498 136.201 122.969 136.635 123.176C135.904 122.552 135.192 122.024 134.603 121.337C134.304 120.986 134.555 120.7 134.413 120.352C134.342 120.177 133.617 119.618 134.099 119.624C134.671 119.622 135.303 120.486 135.921 120.578C136.447 120.662 136.013 119.946 135.841 119.682C135.609 119.357 135.339 119.233 135.281 118.894C135.221 118.537 135.255 118.189 135.291 117.874C135.36 117.095 135.743 116.108 135.27 115.164C135.158 114.944 134.655 114.693 134.865 114.559C135.134 114.371 135.646 114.506 135.913 114.301C136.466 113.857 136.646 112.888 136.212 112.056C136.122 111.883 135.505 111.396 135.565 111.341C135.77 111.142 136.653 111.721 136.688 111.29C136.688 111.29 135.932 110.898 135.92 110.554C135.917 110.324 135.977 110.056 135.562 109.863C134.695 109.464 134.741 109.361 134.157 108.723C134.356 108.672 135.843 108.769 135.744 108.893C135.66 108.999 135.334 109.176 135.707 109.521C135.958 109.745 136.07 109.653 136.151 109.53C136.315 109.286 135.625 108.197 136.336 108.183C136.881 108.183 136.171 106.34 136.208 105.828C135.439 105.601 135.478 105.926 134.812 105.723C134.836 105.375 135.68 105.3 135.608 105.109C135.475 104.759 134.76 104.314 134.436 103.998C135.005 104.046 137.916 103.029 136.373 102.608C136.261 102.799 136.493 102.926 136.549 103.036C136.642 103.242 135.643 102.707 135.523 102.619C135.272 102.395 135.191 102.106 135.264 101.903C135.458 101.376 136.596 102.309 136.828 101.713C136.933 101.441 136.986 100.992 136.865 100.675C136.707 100.261 136.06 100.369 136.032 99.8452C136.009 99.4859 135.952 99.2608 136.5 99.3924C136.627 99.4633 136.994 99.7426 137.16 99.7441C137.418 99.7374 135.34 97.7874 136.035 97.7086C136.574 97.6439 137.135 97.9059 137.22 97.3231C137.236 97.1902 137.123 96.5429 137.016 96.3882C137.101 96.512 135.701 97.377 135.83 96.8559C135.93 96.4361 136.138 96.0724 136.144 95.6282L136.154 94.9207C136.244 94.7812 136.182 94.7045 135.974 94.6575C135.873 94.4528 137.013 95.008 137.143 95.0128C137.605 95.0206 137.086 94.4756 136.937 94.3738C136.73 94.2117 136.124 93.8551 136.39 93.6339C136.632 93.4316 137.099 93.7019 137.399 93.6423C136.952 93.7151 136.228 92.6461 136.131 92.3918C136.036 92.1374 135.942 91.8172 136.088 91.5906C136.218 91.3981 136.5 91.5537 136.609 91.3301C136.704 91.1409 136.876 90.2874 136.406 90.198C135.984 90.1208 135.79 90.0232 135.76 89.6972C135.76 89.6972 135.699 89.2096 135.81 89.216C135.987 89.233 137.05 90.2718 137.248 89.6953C137.419 89.2198 136.438 88.8968 136.832 88.4507C137.285 87.9336 136.775 87.5026 136.389 87.0114C136.086 86.6277 136.271 86.7261 136.383 86.5353C136.472 86.3958 136.185 86.0766 136.179 85.9126C135.727 85.7068 135.039 85.0452 135.861 84.9387C136.054 84.9214 137.759 84.7686 136.846 84.374C136.403 84.1835 136.091 84.1951 136.153 83.7622C136.188 83.529 136.666 83.7162 136.871 83.6157C137.1 83.4967 137.056 83.2046 137.048 83.0246L136.128 82.9592C136.022 83.1166 135.849 83.3622 135.585 83.4022C135.122 83.493 135.198 82.6975 135.197 82.5825C135.186 82.0412 135.711 82.3391 136.022 81.8841C136.079 81.7969 136.533 81.0987 136.38 81.0302C136.001 80.8342 135.669 81.0447 135.608 80.5571C135.587 80.329 135.721 80.0705 135.443 79.9639C134.81 79.7084 135.036 78.2091 135.057 77.8128C135.085 77.4158 135.268 77.498 135.671 77.3469C136.047 77.2145 135.901 76.6196 135.891 76.3904C136.083 76.0774 136.185 75.559 135.601 75.4304C135.243 75.3474 135.362 75.1396 135.346 74.8453C135.33 74.666 135.004 74.6458 134.917 74.407C134.78 74.0085 134.978 73.7443 134.979 73.3498C134.969 72.9071 133.043 72.0606 132.737 72.4497C132.761 72.4147 132.91 72.845 132.907 72.9109C132.875 73.1604 132.777 73.4157 132.535 73.6016C132.225 74.1554 132.054 74.7294 132.189 75.3089C132.29 75.7107 133.331 75.2724 133.538 75.8126C133.681 76.1776 133.474 76.4427 133.156 76.7178C132.749 76.7213 132.698 76.7588 132.714 77.0367C132.737 77.5111 132.762 77.2626 133.355 77.3901C133.61 77.4495 133.817 77.7924 133.608 77.9426C133.146 78.2634 132.3 77.6818 132.316 78.3871C132.32 78.6332 132.79 79.232 133.262 79.2389C133.346 79.3629 133.264 79.584 133.308 79.7444C133.369 79.9196 134.194 81.2919 134.073 81.3848C133.724 81.6135 132.835 80.6577 132.566 80.649C132.908 80.6511 133.292 82.3588 133.55 82.5658C133.94 82.8923 133.802 83.102 133.374 83.3866C132.711 83.8077 133.385 83.8129 133.384 84.109C133.387 84.4537 133.442 84.5475 133.128 84.7563C133.014 84.8323 132.976 84.9179 133.015 85.0458C133.101 85.2846 133.574 85.5052 133.854 85.3323C134.143 85.2569 134.706 85.2559 134.506 85.6024C134.322 85.9147 133.768 85.9151 133.592 86.2266C133.407 86.539 133.665 86.9431 133.879 87.2528C133.882 87.4989 133.867 87.7468 133.691 87.9434C133.508 87.9762 133.423 88.0495 133.423 88.1645C133.424 88.5753 133.844 88.5212 133.881 88.9288C133.906 89.206 133.688 89.3569 133.627 89.609C133.488 90.213 133.623 91.0062 134.167 91.6147C134.548 92.0408 134.622 92.1492 133.87 92.0192C133.431 91.6478 133.412 92.0603 133.405 92.291C133.389 92.6212 133.323 93.0215 133.531 93.3809C133.684 93.6465 134.097 93.9217 133.84 94.2569C133.097 94.11 133.281 95.0302 133.402 95.348C133.523 95.6658 134.625 96.3067 134.354 96.3802C133.686 96.5551 133.431 96.5944 133.341 97.1447C133.211 97.9617 133.197 98.8339 133.34 99.7084C133.387 100.033 133.462 100.355 133.574 100.674C133.639 100.881 133.982 101.097 133.969 101.263C133.962 101.493 133.3 101.536 133.109 101.668C132.856 101.839 132.695 102.1 132.617 102.37C132.521 102.74 132.61 103.11 133.255 103.299C132.761 103.146 133.553 104.258 133.638 104.48C133.686 104.608 132.905 104.858 132.793 105.049C132.632 105.327 132.53 105.73 132.684 106.111C132.817 106.46 133.442 106.519 133.813 106.634C133.807 106.782 133.858 107.14 133.776 107.262C133.632 107.193 133.5 107.172 133.37 107.167C133.236 107.212 133.293 107.535 133.284 107.651C133.276 107.767 132.89 107.686 132.795 107.859C132.69 108.033 132.691 108.247 132.72 108.474C132.791 109.158 133.234 109.562 133.647 110.248C134.169 111.122 133.616 110.727 132.899 110.463C133.32 110.622 132.917 110.872 133.23 111.173C133.291 111.233 133.837 111.447 133.832 111.497C133.811 111.778 133.127 111.461 133.112 111.709C133.086 112.04 133.662 112.482 133.787 112.848C133.989 113.455 133.51 112.955 133.31 112.677C133.004 112.261 132.179 112.023 132.316 112.52C132.451 113.001 132.918 113.666 133.599 113.95C131.913 113.279 133.34 116.734 132.13 116.218C131.296 116.408 132.285 117.338 132.35 117.957C132.402 118.428 132.33 118.862 132.296 119.309C132.257 119.904 132.629 120.66 132.558 121.208C132.505 121.64 132.024 121.535 131.982 122.098C131.964 122.313 131.92 122.646 132.166 122.92C132.29 123.056 132.669 123.17 132.631 123.354C132.537 123.757 131.622 123.346 131.188 123.139C132.096 123.583 131.253 126.962 131.138 127.432C131.023 127.903 130.559 128.289 130.546 128.767C130.533 129.245 130.687 129.823 130.921 130.377C131.003 130.567 131.979 131.663 132.012 131.413C131.97 131.762 130.634 130.781 130.991 131.57C131.037 131.665 131.626 132.565 131.433 132.582C131.323 132.592 130.315 131.549 130.376 131.921C130.444 132.375 130.731 133.303 131.45 133.698C131.514 134.005 130.687 133.849 130.46 133.787C130.409 133.841 129.726 134.264 129.849 134.401C130.175 134.733 130.888 135.064 130.893 135.523C130.905 135.867 130.558 135.915 130.633 136.335C130.706 136.74 130.965 136.946 130.913 137.296C130.85 137.729 130.277 137.518 130.109 137.911C129.994 138.184 130.036 138.755 130.641 139.112C130.513 139.123 129.597 139.321 129.827 139.415C130.106 139.538 130.963 139.609 130.802 140.084C130.722 140.321 130.383 140.253 130.222 140.415C129.889 140.724 129.687 141.564 130.337 142.212C129.97 141.834 129.174 142.234 129.117 142.42C129.705 142.795 129.515 142.943 129.462 143.277C129.394 143.661 129.366 143.45 129.722 143.812C130.221 144.326 129.274 144.69 129.186 144.945C129.129 145.131 129.456 145.381 129.475 145.691C129.513 146.115 129.386 146.455 129.327 146.822C129.204 147.523 129.264 147.978 130.167 148.982C129.87 148.663 129.448 148.077 129.061 147.881C128.605 147.643 129.031 148.377 129.168 148.562C129.937 149.61 129.603 149.706 128.636 149.332C127.956 149.065 130.192 151.428 129.085 150.624C128.354 150.097 128.172 151.264 129.134 152C128.718 151.692 128.48 151.713 128.217 151.77C128.08 151.782 128.275 152.109 128.229 152.311C128.165 152.629 127.853 152.558 127.739 152.831C127.625 153.104 127.945 153.585 127.885 153.837C127.812 154.156 127.699 154.445 127.544 154.673C127.298 155.024 126.967 155.152 126.992 155.741C127.01 156.035 127.578 156.806 127.55 156.907C127.517 157.058 126.759 156.534 126.568 156.568C126.305 156.625 126.833 157.267 127.062 157.543C127.279 157.803 128.405 158.819 127.863 158.753C127.413 158.678 126.854 158.317 126.547 158.509C126.143 158.742 127.71 160.443 126.755 160.101C126.172 159.89 126.199 161.12 126.19 161.532C126.18 161.944 126.31 162.458 126.068 162.644C126.008 162.699 125.091 162.682 125.231 162.801C125.501 163.023 125.797 163.03 125.968 163.491C126.055 163.746 126.018 163.947 125.965 164.083C125.851 164.356 125.497 164.634 124.927 164.044C126.681 165.876 124.532 164.277 124.555 164.85C124.584 165.374 125.387 166.288 125.335 166.851C125.323 167.016 124.804 166.899 124.681 166.975C124.151 167.253 125.083 167.958 124.61 168.346C124.297 168.571 124.069 168.706 123.966 169.209C123.934 169.359 124.133 170.147 124.118 170.181C123.789 170.736 122.171 169.698 122.444 170.988C122.575 171.634 122.919 171.652 122.759 172.028C122.524 171.885 122.306 171.822 122.195 171.931C122.145 171.985 122.427 172.354 122.446 172.566C122.532 173.939 120.44 173.173 121.188 175.341C120.934 174.558 121.078 175.548 121.188 175.341L121.179 175.44Z" fill="#959EC6"/>
</g>
</g>
<defs>
<clipPath id="clip0_1485_78135">
<rect width="129.977" height="185.37" fill="white" transform="translate(0.541992 11.9044) rotate(-5.12028)"/>
</clipPath>
</defs>
</svg>
