<svg width="21" height="27" viewBox="0 0 21 27" fill="none" xmlns="http://www.w3.org/2000/svg">
<path d="M7.94721 24.0531C6.91005 24.2602 5.87289 24.1955 4.84838 23.9754C4.73454 23.9495 4.60806 23.9625 4.54482 23.8201C8.33931 23.2893 9.79387 21.3604 9.86976 19.4703C8.95908 20.5966 7.87132 21.1532 6.48001 20.5966C5.67052 20.2729 5.26577 19.6515 5.35431 18.7324C3.97565 19.056 3.16615 20.6872 3.29264 23.0304C2.33137 21.5934 1.78749 20.1564 2.0784 18.4994C2.30607 17.1789 3.72268 15.5348 4.81043 15.1464C4.29185 16.2986 4.65865 17.1012 5.56933 17.399C6.29029 17.632 6.93535 17.386 7.32745 16.7258C7.36539 16.5057 7.42863 16.2856 7.42863 16.0656C7.39069 14.771 8.28872 13.9554 9.52825 13.8389C9.78122 13.813 10.0215 13.8389 10.3504 13.8389C10.0974 14.059 9.8824 14.2273 9.69268 14.4085C9.36382 14.7451 9.09821 15.1335 9.27529 15.6384C9.45236 16.1562 9.81916 16.5057 10.3377 16.6222C11.552 16.92 12.235 16.5316 12.8295 15.1853C12.9306 14.5768 12.9306 13.9554 13.1583 13.3729C13.6769 12.0783 14.6382 11.3792 15.9789 11.198C15.9789 11.198 15.8398 11.3533 15.7512 11.4051C14.7773 12.156 14.2208 13.101 14.3599 14.4085C14.4484 15.2629 14.5243 16.1174 14.322 16.9718C14.1702 18.4217 13.6642 19.7292 12.8042 20.8814C11.6785 22.7326 9.95829 23.6388 7.94721 24.0531ZM16.8769 11.7417C16.3963 13.347 16.586 15.017 16.4595 16.6481C16.3077 18.2275 15.8651 19.6904 14.9164 20.972C14.0816 21.9818 13.1204 22.8621 12.0706 23.6518C10.5654 24.5968 8.88319 25.0628 7.20096 25.5548C9.37647 26.1891 11.5267 26.6422 13.7654 26.0338C14.8279 25.749 15.7386 25.2311 16.4848 24.2473C15.4097 24.5191 14.4231 24.7651 13.4239 24.3897C13.4366 24.2732 13.5125 24.2602 13.601 24.2473C14.8152 23.9625 15.8651 23.3928 16.7504 22.4996C17.6991 21.6581 18.205 20.5707 18.5844 19.3667C18.7236 18.9395 18.7615 18.823 18.8248 18.357C18.8753 17.9556 18.8627 17.7744 18.8753 17.632C18.9765 16.1821 18.7742 14.7581 18.4833 13.347C18.1291 11.6252 18.4453 10.0717 19.786 8.84187C19.8113 8.81598 19.824 8.77714 19.8493 8.69946C18.2176 9.11373 17.3323 10.2141 16.8769 11.7417ZM18.5718 19.3797C18.6603 19.0949 18.7489 18.836 18.8121 18.3699C18.8627 17.9686 18.8501 17.7874 18.8627 17.6449" fill="#F2B118"/>
<path d="M6.00795 9.82579C8.37318 9.63161 9.81508 7.8451 9.56212 5.35952C9.49888 5.46309 9.46093 5.54076 9.42299 5.60549C8.60085 6.9389 7.52574 7.90983 5.9447 8.18169C5.35023 8.28525 4.76841 8.45355 4.21189 8.71246C3.40239 9.11378 2.83322 9.72223 2.6182 10.7449C3.08619 10.3695 3.56682 10.1883 4.06011 10.0718C4.70517 9.91641 5.36288 9.87758 6.00795 9.82579ZM3.54153 13.6448C4.89489 13.3729 6.24826 13.1917 7.62693 13.0752C8.36053 13.0104 9.09413 12.9845 9.80244 12.7386C11.042 12.4926 12.155 11.9359 13.2301 11.2757C13.3819 11.198 13.5337 11.1333 13.6728 11.0427C15.6839 9.69634 16.7969 8.51828 17.9985 6.35634C18.163 6.05859 18.7448 5.02294 18.7195 4.64751C18.593 4.89348 18.2515 5.41131 17.7709 6.09743C17.227 6.84828 16.6452 7.56029 15.8104 7.9875C15.0641 8.38882 14.0649 8.2982 13.6855 7.83215C13.2807 7.34022 13.3693 6.58937 13.9258 5.78673C14.4823 5.28185 15.1021 4.89348 15.7851 4.58278C17.0246 4.01317 18.125 3.23643 19.0231 2.18782C19.5669 1.55348 19.9717 0.828525 20.1488 0C19.8072 0.491937 19.491 0.99682 19.0736 1.42403C17.657 2.89984 15.8863 3.74131 14.0017 4.37565C13.5716 4.51805 13.1416 4.66046 12.7874 4.97115C11.9653 5.4372 11.3961 6.14921 11.0293 7.01657C10.7511 7.67681 10.4981 8.34998 10.2325 9.01021C9.82773 9.82579 9.67595 10.1494 8.25934 10.5119C7.98108 10.5896 7.66487 10.6543 7.33602 10.7449C6.53917 10.9003 5.75498 11.0297 4.97078 11.198C3.95892 11.4181 3.0103 11.7806 2.23875 12.5185C0.847437 13.58 0.0126483 14.9394 0 16.7776C0 17.8004 0.215021 18.7842 0.51858 19.7422C0.67036 20.1953 0.923326 20.8167 0.923326 20.8167C0.923326 20.8167 0.708305 20.0141 0.632415 19.7552C0.632415 19.7552 0.581822 19.5221 0.569174 19.4056C0.316208 17.878 0.480636 16.4411 1.40396 15.1594C1.94784 14.3956 2.73203 13.9814 3.54153 13.6448Z" fill="#0075FF"/>
</svg>
