<svg width="94" height="16" viewBox="0 0 94 16" fill="none" xmlns="http://www.w3.org/2000/svg">
<path d="M7.28323 0.00195312L6.0184 6.17705H11.7101L12.9497 0.00195312H16.2003L12.975 15.1484H9.87613L11.1157 8.93449H5.44923L4.12116 15.1484H0.984375L4.01997 0.00195312H7.28323ZM35.5142 0.00195312H32.251L29.2154 15.1484H32.3522L35.5142 0.00195312ZM40.7127 0.00195312H37.4494L34.4138 15.1484H37.5506L40.7127 0.00195312ZM27.3814 12.3651C27.3814 12.3651 21.0699 12.378 20.3236 12.3651C19.5774 12.3522 19.4383 12.2615 19.4383 12.0415C19.4383 11.8214 19.9442 8.88271 20.1339 7.96356C20.3236 7.04442 20.8802 6.52659 21.6264 6.52659C22.3727 6.52659 24.4849 6.5007 24.9909 6.5007C25.4968 6.5007 25.8004 6.87612 25.8004 7.08325C25.8004 7.29039 25.6992 8.1448 25.6992 8.1448H21.3734L20.7916 10.9411H28.2415C28.2415 10.9411 29.228 6.28062 29.228 5.52977C29.228 4.77892 28.9498 4.44233 28.7474 4.24815C28.545 4.05396 27.8873 3.74326 27.217 3.74326C26.5466 3.74326 21.7149 3.74326 20.6398 3.74326C19.5647 3.74326 18.6414 4.36466 18.2999 4.63652C17.9584 4.90838 17.4398 5.55566 17.288 6.24178C17.1363 6.92791 16.4533 10.5398 16.2256 11.666C15.9979 12.7794 15.7196 13.7632 16.2256 14.5011C16.7315 15.2261 17.8066 15.1484 17.8066 15.1484H26.749L27.3814 12.3651ZM91.1794 12.3651C91.1794 12.3651 84.8679 12.378 84.1217 12.3651C83.3754 12.3522 83.2363 12.2615 83.2363 12.0415C83.2363 11.8214 83.7422 8.88271 83.932 7.96356C84.1217 7.04442 84.6782 6.52659 85.4245 6.52659C86.1707 6.52659 88.283 6.5007 88.7889 6.5007C89.2948 6.5007 89.5984 6.87612 89.5984 7.08325C89.5984 7.29039 89.4972 8.1448 89.4972 8.1448H85.1715L84.5897 10.9411H92.0395C92.0395 10.9411 93.0261 6.28062 93.0261 5.52977C93.0261 4.77892 92.7478 4.44233 92.5455 4.24815C92.3431 4.05396 91.6854 3.74326 91.015 3.74326C90.3447 3.74326 85.513 3.74326 84.4379 3.74326C83.3628 3.74326 82.4395 4.36466 82.098 4.63652C81.7565 4.90838 81.2379 5.55566 81.0861 6.24178C80.9343 6.92791 80.2513 10.5398 80.0236 11.666C79.796 12.7923 79.5177 13.7632 80.0236 14.5011C80.5296 15.2391 81.6047 15.1484 81.6047 15.1484H90.547L91.1794 12.3651ZM53.7531 6.53954C53.7531 6.53954 60.0646 6.52659 60.8109 6.53954C61.5571 6.55248 61.6962 6.6431 61.6962 6.86318C61.6962 7.08325 61.1903 10.0219 61.0006 10.9411C60.8109 11.8602 60.2543 12.378 59.5081 12.378C58.7618 12.378 56.6496 12.4039 56.1436 12.4039C55.6377 12.4039 55.2962 12.2098 55.2962 11.7567C55.2962 11.2 55.7136 10.8116 56.2322 10.8116C57.4211 10.8116 59.7231 10.7987 59.7231 10.7987L60.3429 7.93767C60.3429 7.93767 57.2946 7.93767 55.9033 7.93767C54.1958 7.93767 53.108 8.4555 52.7159 9.49116C52.1594 10.954 51.9191 12.8441 51.9191 13.349C51.9191 14.0998 52.1974 14.4364 52.3997 14.6306C52.6021 14.8248 53.2598 15.1355 53.9302 15.1355C54.6005 15.1355 63.3532 15.1355 63.3532 15.1355C63.505 14.4623 64.6939 8.33899 64.9216 7.22566C65.1492 6.11233 65.4275 5.12845 64.9216 4.39055C64.4156 3.65264 63.3405 3.74326 63.3405 3.74326H54.3982L53.7531 6.53954ZM50.2748 12.3651C50.2748 12.3651 45.0384 12.378 44.2922 12.3651C43.5459 12.3522 43.4068 12.2615 43.4068 12.0415C43.4068 11.8214 43.9127 8.88271 44.1025 7.96356C44.2922 7.04442 44.8487 6.52659 45.5949 6.52659C46.3412 6.52659 51.1096 6.5007 51.6155 6.5007L52.0709 3.76915C51.3879 3.76915 45.6835 3.76915 44.6084 3.76915C43.5333 3.76915 42.61 4.39055 42.2684 4.66241C41.9269 4.93427 41.4084 5.58155 41.2566 6.26767C41.1048 6.9538 40.4218 10.5657 40.1941 11.6919C39.9665 12.8053 39.6882 13.7891 40.1941 14.527C40.7001 15.252 41.7752 15.1743 41.7752 15.1743H49.6424L50.2748 12.3651ZM79.9098 3.75621C79.9098 3.75621 71.309 3.75621 69.8797 3.75621C68.4504 3.75621 67.5651 4.70125 67.2235 5.93109C66.882 7.16093 66.7556 8.18364 66.7556 8.18364C66.452 9.58178 67.603 10.8246 69.0955 10.8246C70.588 10.8246 74.0283 10.8246 74.5343 10.8246C75.0402 10.8246 75.2932 11.2777 75.2932 11.6013C75.2932 11.925 74.9517 12.4169 73.8133 12.4169C72.675 12.4169 65.9081 12.4169 65.9081 12.4169L65.339 15.1355C65.339 15.1355 73.9778 15.1355 75.2426 15.1355C76.5074 15.1355 77.3043 14.3976 77.6205 13.6856C77.9367 12.9736 79.0118 10.1902 77.962 8.85682C77.3549 8.08007 76.4189 8.08007 75.2426 8.08007C74.0663 8.08007 71.3469 8.08007 70.7904 8.08007C70.2465 8.08007 69.9682 7.65287 69.9682 7.39395C69.9682 7.13504 70.3477 6.48775 71.486 6.48775C72.6244 6.48775 79.3027 6.48775 79.3027 6.48775L79.9098 3.75621Z" fill="#DCE1E5"/>
</svg>
