<svg width="89" height="90" viewBox="0 0 89 90" fill="none" xmlns="http://www.w3.org/2000/svg">
<g id="Vector">
<path d="M86.3233 62.3938C85.5716 62.0118 85.045 61.4048 84.5703 60.724C81.3775 56.1557 79.2276 51.1418 78.0385 45.7021C77.2606 42.1452 76.8362 38.5543 76.845 34.914C76.8533 32.0688 76.8935 29.2237 76.9036 26.3772C76.905 25.9975 76.8217 25.6179 76.7784 25.2385L76.8192 25.1639L76.801 25.2447C76.5445 25.6309 76.2592 26.0015 76.0369 26.4074C74.9384 28.4367 74.128 30.5861 73.3739 32.7648C71.5101 38.1455 70.4495 43.681 70.1962 49.3657C70.1224 51.0382 70.2215 52.7161 70.2378 54.3928C70.2425 54.7818 70.2913 55.1815 70.2175 55.5558C69.9756 56.7801 68.6809 57.2775 67.6946 56.5149C67.3324 56.2341 67.0321 55.8543 66.7612 55.479C66.3716 54.9435 66.0183 54.3787 65.6766 53.8115C63.6432 50.4376 61.5938 47.0715 59.593 43.6788C57.5502 40.2183 55.5161 36.7547 53.5545 33.2487C52.1651 30.7647 50.9086 28.2091 49.5913 25.6856C49.5245 25.56 49.4374 25.4478 49.2354 25.141C49.2647 25.6277 49.2609 25.8952 49.2981 26.1567C49.8165 29.8261 50.2742 33.5037 50.8774 37.157C51.9166 43.4584 53.8022 49.5178 56.3228 55.3843C56.5076 55.8136 56.6936 56.2448 56.8575 56.6827C56.9536 56.9372 57.0399 57.201 57.079 57.4693C57.2973 58.9706 56.057 59.9806 54.6551 59.4068C54.1589 59.2037 53.6846 58.8934 53.2744 58.5436C51.9686 57.4324 50.6579 56.3218 49.4193 55.1399C46.7968 52.6358 44.2521 50.0488 41.859 47.3223C40.4174 45.6833 39.0269 43.9974 37.6186 42.3285C35.4789 39.798 33.3436 37.262 31.2021 34.7328C31.135 34.6551 31.0193 34.62 30.7943 34.4873C30.8488 34.7349 30.8549 34.8686 30.9045 34.9843C31.7799 37.0253 32.614 39.0881 33.5527 41.1006C34.5914 43.3255 35.7075 45.5152 36.8348 47.6976C37.8011 49.5674 38.8204 51.413 39.8317 53.2585C40.75 54.9347 41.6776 56.6049 42.6267 58.2635C43.2471 59.3465 43.9216 60.3991 44.553 61.4748C45.7995 63.5973 47.2294 65.5963 48.6501 67.6015C49.0086 68.1098 49.4231 68.5787 49.8075 69.07C50.0237 69.3462 50.2541 69.6157 50.4322 69.9144C50.6923 70.3497 50.6887 70.8184 50.4215 71.2486C50.1283 71.7198 49.6654 71.9371 49.1225 71.8601C48.7426 71.8056 48.3655 71.675 48.0045 71.5366C46.2934 70.8829 44.596 70.1858 42.8749 69.5573C38.1303 67.8252 33.2717 66.571 28.2286 66.0977C27.84 66.0622 27.4508 66.0297 27.0633 66.0039C26.9941 65.9992 26.9233 66.0405 26.8404 66.0633C26.9148 66.3852 27.2274 66.4098 27.4456 66.5364C31.659 68.997 35.7993 71.5719 39.6536 74.5683C43.6617 77.6859 47.3527 81.1579 50.8292 84.8587C51.306 85.3659 51.6929 85.9616 52.1088 86.5249C52.2238 86.6796 52.3149 86.8581 52.3851 87.037C52.5309 87.4152 52.4583 87.7994 52.204 88.004C51.917 88.2353 51.6045 88.1787 51.337 87.9893C50.7657 87.5839 50.1871 87.1834 49.661 86.7218C47.3171 84.6649 44.9966 82.5793 42.657 80.5169C39.7571 77.9571 36.6843 75.6251 33.4293 73.5349C31.3942 72.2283 29.3609 70.9206 27.3016 69.6537C25.1715 68.3435 22.9316 67.2486 20.6131 66.3034C19.6953 65.9302 18.7747 65.7098 17.7738 65.7409C16.3257 65.7883 14.8867 65.6443 13.5026 65.178C13.0294 65.018 12.5634 64.7924 12.1522 64.5095C11.5521 64.0965 11.3279 63.4706 11.5077 62.7589C11.6862 62.0533 12.1693 61.6134 12.888 61.4952C13.2268 61.439 13.591 61.4456 13.9317 61.4968C14.7411 61.6209 15.5536 61.7456 16.3441 61.9536C17.2211 62.1842 18.0993 62.2842 19.0032 62.2745C21.6157 62.2473 24.2239 62.3182 26.8329 62.4867C31.2239 62.7693 35.4767 63.6941 39.633 65.1034C40.9987 65.566 42.3381 66.1093 43.6864 66.6177C44.0493 66.7549 44.4078 66.9056 44.7591 67.0453C44.9897 66.8087 44.7887 66.6682 44.6882 66.5277C42.8687 63.9851 41.3433 61.2621 39.7908 58.5544C39.1504 57.4369 38.5419 56.3037 37.9119 55.182C35.5834 51.0302 33.3864 46.8129 31.3646 42.5041C29.7389 39.0419 28.3153 35.4969 27.1897 31.8379C27.0745 31.466 26.9649 31.0905 26.8903 30.7078C26.8377 30.4431 26.8091 30.1625 26.84 29.8959C26.9462 28.9358 27.7306 28.3506 28.6675 28.6C29.1427 28.7269 29.6246 28.9685 30.0062 29.2789C30.8202 29.9404 31.6057 30.6471 32.3388 31.3989C35.0932 34.216 37.6647 37.2013 40.2176 40.1988C43.608 44.1788 47.092 48.0679 50.8114 51.7438C50.9346 51.8666 51.0683 51.9773 51.4089 52.2855C51.2747 51.8044 51.2304 51.5924 51.1573 51.3889C50.0925 48.413 49.1536 45.3993 48.4076 42.3248C47.5757 38.9068 47.0268 35.4403 46.6092 31.9563C45.9573 26.4966 45.3987 21.0258 44.8076 15.5579C44.7608 15.133 44.73 14.7003 44.7427 14.2734C44.774 13.3283 45.2354 12.6987 45.9932 12.5071C46.8135 12.2981 47.6145 12.6344 48.0448 13.4769C48.5413 14.4481 48.9732 15.4539 49.4045 16.4547C51.0056 20.1848 52.756 23.8404 54.7192 27.393C56.4929 30.6016 58.2358 33.8277 60.015 37.0326C61.3581 39.4544 62.746 41.8519 64.1001 44.2665C64.9592 45.7963 65.7942 47.342 66.6428 48.8761C66.7175 49.0096 66.81 49.1341 66.9877 49.404C67.0402 48.9773 67.0859 48.6929 67.1076 48.4084C67.2485 46.464 67.3471 44.5156 67.5272 42.5745C67.8634 38.9411 68.8035 35.4453 69.9592 31.9956C71.3673 27.7916 73.2304 23.8206 75.7809 20.1864C76.1603 19.6452 76.4969 19.0713 76.8696 18.5239C77.0661 18.2356 77.2719 17.9412 77.5258 17.7078C78.6726 16.6482 80.2959 16.9755 80.8824 18.4251C81.1403 19.066 81.2819 19.7754 81.3512 20.4636C81.4369 21.3132 81.4017 22.1761 81.3996 23.0331C81.3835 27.2451 81.2797 31.4566 81.355 35.6667C81.4571 41.2923 82.5677 46.7414 84.6115 51.992C85.4464 54.1364 86.2936 56.2754 87.1237 58.4204C87.3342 58.9652 87.5201 59.521 87.679 60.0839C87.7621 60.3789 87.8107 60.7019 87.7852 61.0048C87.7379 61.5922 87.4578 62.0389 86.8522 62.2124C86.6655 62.2665 86.4794 62.3174 86.2927 62.3715L86.3252 62.3766L86.3233 62.3938Z" fill="url(#paint0_linear_1_206)"/>
<path d="M86.2896 62.3868C86.3868 62.45 86.4765 62.534 86.5811 62.5764C87.8514 63.091 88.3114 64.1233 88.2324 65.386C88.1836 66.1519 87.9937 66.9286 87.7433 67.6577C87.0401 69.7127 85.821 71.4743 84.4502 73.1344C83.2319 74.612 81.8068 75.884 80.3903 77.161C78.1296 79.1977 75.7136 81.0427 73.1807 82.7182C69.8608 84.9145 66.3429 86.7538 62.6544 88.2577C61.1998 88.8498 59.679 89.1887 58.1131 89.266C57.5389 89.2943 56.9463 89.2262 56.3834 89.1067C55.8676 88.9986 55.4887 88.6441 55.321 88.1161C55.1557 87.5918 55.4802 87.1159 56.0158 87.1898C58.0422 87.4663 59.8756 86.7943 61.652 86.0036C64.1752 84.8802 66.6329 83.625 69.0075 82.1915C71.315 80.7968 73.4697 79.206 75.5922 77.5623C77.7522 75.8912 79.7689 74.0628 81.6674 72.1029C83.0306 70.6968 84.1837 69.1323 84.9935 67.3356C85.2963 66.662 85.5771 65.9792 85.6042 65.2567C85.3385 64.9335 85.0489 65.0845 84.8222 65.1702C83.6234 65.6283 82.4172 66.0753 81.2493 66.6085C77.0165 68.5317 73.0353 70.8932 69.2783 73.6315C68.0841 74.5025 66.9501 75.4531 65.7784 76.3543C65.38 76.6616 64.9591 76.9467 64.5285 77.209C64.3205 77.3353 64.068 77.3135 63.8856 77.121C63.7021 76.9266 63.7193 76.6795 63.8406 76.4698C64.0158 76.1691 64.1934 75.8561 64.4314 75.6067C65.1825 74.8181 65.9165 74.0037 66.7389 73.2954C69.4001 71.0029 72.2294 68.9336 75.2565 67.1526C77.3344 65.9276 79.4501 64.7599 81.6482 63.7577C83.1401 63.0775 84.6506 62.4698 86.3202 62.3931L86.2877 62.388L86.2896 62.3868Z" fill="url(#paint1_linear_1_206)"/>
<path d="M6.96925 55.0897C7.55968 55.9222 7.868 56.8768 7.93738 57.9067C8.06883 59.8387 6.9141 61.0069 4.97188 60.9187C3.87877 60.8701 2.93854 60.4348 2.11932 59.7291C1.91605 59.553 1.74798 59.3299 1.59833 59.1026C1.44989 58.8771 1.22744 58.6156 1.24155 58.3838C1.29103 57.6068 0.663795 57.0078 0.718602 56.2671C0.800604 55.1376 1.24556 54.1373 2.15925 53.4431C3.00089 52.8042 3.95896 52.7642 4.91936 53.21C5.79229 53.6155 6.453 54.2613 6.97047 55.0915L6.96925 55.0897ZM5.12003 56.3204C4.88449 56.0993 4.58996 55.7846 4.25592 55.5224C3.95119 55.2806 3.56927 55.2592 3.28942 55.5335C2.93375 55.8816 2.62869 56.2864 2.33222 56.6882C2.12718 56.9636 2.17097 57.2633 2.33371 57.5667C2.85894 58.5534 4.06865 59.1689 5.18132 58.998C5.61829 58.9302 5.81318 58.7197 5.78537 58.2956C5.74049 57.6205 5.47878 57.014 5.12309 56.321L5.12003 56.3204Z" fill="url(#paint2_linear_1_206)"/>
<path d="M25.8621 26.7224C24.0312 27.9649 21.6891 26.8472 21.1756 24.7931C20.7901 23.2509 21.1221 21.9144 22.1112 20.6513C23.0743 19.4211 25.2417 19.0194 26.6769 20.3633C27.7545 21.3731 27.9871 22.6266 27.7192 24.0003C27.4923 25.159 26.8211 26.0486 25.8621 26.7224ZM24.451 25.1136C25.0963 24.6146 25.497 23.9852 25.4413 23.137C25.4055 22.6123 25.061 22.2378 24.5971 22.1723C23.7319 22.0479 22.5966 23.0205 22.6 23.8818C22.6025 24.4524 22.9625 24.7982 23.3736 25.105C23.7212 25.3636 24.0872 25.369 24.451 25.1136Z" fill="url(#paint3_linear_1_206)"/>
<path d="M79.7989 9.12237C80.1425 8.84846 80.536 8.53375 80.9338 8.22152C82.3902 7.06933 84.0525 7.68093 84.9193 8.88508C85.55 9.76262 85.7694 10.7149 85.5493 11.7632C85.3612 12.6552 84.9645 13.4594 84.3654 14.1452C83.2858 15.3832 81.3419 15.7306 79.879 14.9717C79.1764 14.6078 78.7465 14.0273 78.5389 13.2818C78.3487 12.5991 78.3138 11.8989 78.4027 11.1939C78.5154 10.2959 78.8493 9.54095 79.8008 9.12115L79.7989 9.12237ZM80.9987 10.2292C80.3888 10.5248 80.1721 11.0277 80.2147 11.6672C80.2346 11.9747 80.2433 12.2895 80.316 12.5887C80.4468 13.125 80.7577 13.3601 81.3069 13.4065C82.675 13.523 83.9939 11.6958 83.4764 10.4073C83.2918 9.94603 82.6701 9.45995 82.0589 9.76164C81.714 9.93309 81.3527 10.0756 80.9999 10.2311L80.9987 10.2292Z" fill="url(#paint4_linear_1_206)"/>
<path d="M44.4155 1.32033C45.0459 0.862938 45.7629 0.706078 46.5105 0.921176C47.8202 1.29868 48.7961 2.07347 49.1401 3.46023C49.4127 4.55761 49.3188 5.62876 48.7494 6.62087C47.9881 7.94857 46.5971 8.34783 45.2462 7.6345C44.058 7.00746 43.4084 6.00466 43.2271 4.68026C43.1805 4.3401 43.1265 3.99683 43.0227 3.67043C42.9063 3.30468 42.9632 2.98112 43.1403 2.66322C43.4474 2.10872 43.8832 1.67343 44.4186 1.32096L44.4155 1.32033ZM44.6367 3.56151C44.6565 3.88494 44.6413 4.19955 44.7047 4.49687C44.8501 5.19591 45.2836 5.67345 45.9389 5.94932C46.5103 6.19031 46.8668 6.0404 46.9943 5.4584C47.0685 5.12084 47.1047 4.75789 47.0642 4.419C46.9533 3.48275 46.2229 3.01256 45.2987 3.26075C45.0807 3.31951 44.8801 3.44893 44.6379 3.56336L44.6367 3.56151Z" fill="url(#paint5_linear_1_206)"/>
</g>
<defs>
<linearGradient id="paint0_linear_1_206" x1="-12" y1="38.4588" x2="79.3126" y2="-11.1764" gradientUnits="userSpaceOnUse">
<stop stop-color="#5CFF41"/>
<stop offset="1" stop-color="#F0FF41"/>
</linearGradient>
<linearGradient id="paint1_linear_1_206" x1="-12" y1="38.4588" x2="79.3126" y2="-11.1764" gradientUnits="userSpaceOnUse">
<stop stop-color="#5CFF41"/>
<stop offset="1" stop-color="#F0FF41"/>
</linearGradient>
<linearGradient id="paint2_linear_1_206" x1="-12" y1="38.4588" x2="79.3126" y2="-11.1764" gradientUnits="userSpaceOnUse">
<stop stop-color="#5CFF41"/>
<stop offset="1" stop-color="#F0FF41"/>
</linearGradient>
<linearGradient id="paint3_linear_1_206" x1="-12" y1="38.4588" x2="79.3126" y2="-11.1764" gradientUnits="userSpaceOnUse">
<stop stop-color="#5CFF41"/>
<stop offset="1" stop-color="#F0FF41"/>
</linearGradient>
<linearGradient id="paint4_linear_1_206" x1="-12" y1="38.4588" x2="79.3126" y2="-11.1764" gradientUnits="userSpaceOnUse">
<stop stop-color="#5CFF41"/>
<stop offset="1" stop-color="#F0FF41"/>
</linearGradient>
<linearGradient id="paint5_linear_1_206" x1="-12" y1="38.4588" x2="79.3126" y2="-11.1764" gradientUnits="userSpaceOnUse">
<stop stop-color="#5CFF41"/>
<stop offset="1" stop-color="#F0FF41"/>
</linearGradient>
</defs>
</svg>
