<svg width="93" height="98" viewBox="0 0 93 98" fill="none" xmlns="http://www.w3.org/2000/svg">
<g id="Vector">
<path d="M86.4835 51.4111L86.3258 51.5811C86.3258 51.5811 86.4111 51.6602 86.5752 51.6543L87.4019 51.7889C87.4019 51.7889 87.7301 51.7771 87.8942 51.7712C87.973 51.6862 88.0518 51.6013 88.3864 51.7535C88.4716 51.8326 88.7998 51.8209 88.9639 51.815C88.9639 51.815 88.9901 51.7866 89.0427 51.73C89.0427 51.73 88.1306 51.5163 87.6384 51.534C87.6384 51.534 87.5596 51.6189 87.3103 51.5457L86.654 51.5693L86.4835 51.4111ZM87.2315 51.6307C87.2315 51.6307 87.2315 51.6307 87.1462 51.5516L87.3167 51.7098C87.3167 51.7098 87.3167 51.7098 87.2379 51.7948L87.2315 51.6307Z" fill="url(#paint0_linear_1_208)"/>
<path d="M90.6028 53.8097L91.9218 53.9266L92.0859 53.9207C92.0859 53.9207 92.0859 53.9207 92.0006 53.8416C91.3379 53.7012 90.7604 53.6397 90.0189 53.5842C89.6908 53.596 89.4414 53.5228 89.4479 53.6869C89.4479 53.6869 89.6183 53.845 89.8612 53.7542C90.1041 53.6633 90.3535 53.7365 90.6028 53.8097Z" fill="url(#paint1_linear_1_208)"/>
<path d="M76.1708 54.492L75.508 54.3515C75.2587 54.2783 75.0158 54.3692 74.8517 54.3751C75.2651 54.4424 75.6785 54.5097 76.0919 54.577L76.1708 54.492Z" fill="url(#paint2_linear_1_208)"/>
<path d="M79.3321 49.2036C79.3321 49.2036 79.3321 49.2036 79.5026 49.3618L79.9948 49.3441C79.9948 49.3441 79.8243 49.1859 79.4961 49.1977L79.2532 49.2886L79.3321 49.2036Z" fill="url(#paint3_linear_1_208)"/>
<path d="M80.9856 49.4728C80.9856 49.4728 80.9856 49.4728 80.9004 49.3937L80.1589 49.3382C80.1589 49.3382 80.4934 49.4905 80.6575 49.4846L80.9068 49.5578L80.9856 49.4728Z" fill="url(#paint4_linear_1_208)"/>
<path d="M89.9611 52.1077C89.9611 52.1077 89.7118 52.0345 89.5477 52.0404C89.5477 52.0404 89.5477 52.0404 89.633 52.1195L89.9611 52.1077Z" fill="url(#paint5_linear_1_208)"/>
<path d="M53.7011 0.920647C53.7011 0.920647 53.669 0.100382 53.5113 0.270326C53.4261 0.191244 53.4261 0.191244 53.4261 0.191244C53.4261 0.191244 53.3409 0.112157 53.262 0.197129C53.1832 0.282101 53.0256 0.452046 53.0384 0.780154C52.9 1.44226 52.7616 2.10436 52.7084 2.84555L52.5765 3.6717C52.5765 3.6717 52.4637 4.99002 52.4894 5.64623L52.5022 5.97434L52.1869 6.31422C52.1869 6.31422 52.1209 6.7273 51.9633 6.89724C51.8716 6.65411 51.944 6.40509 51.8524 6.16195L51.8267 5.50573C51.8267 5.50573 51.735 5.2626 51.6562 5.34757C51.6562 5.34757 51.4986 5.51751 51.505 5.68157L51.373 6.50772L51.0944 9.88554L50.9203 13.8346L50.9331 14.1627L50.7801 16.5503L50.7398 17.6196C50.6078 18.4458 50.6399 19.266 50.5932 20.1713C50.5207 20.4203 50.6124 20.6634 50.54 20.9125C50.4676 21.1615 50.4016 21.5746 50.4144 21.9027L50.3549 22.4798L50.3017 23.221L50.0827 26.0217C50.0827 26.0217 50.0295 26.7629 50.0488 27.255C50.0616 27.5831 49.9104 27.9171 49.8444 28.3302L49.7848 28.9073C49.7848 28.9073 49.7573 30.3047 49.6189 30.9668C49.6189 30.9668 49.7235 31.5381 49.8023 31.4531L49.8811 31.3681L49.7235 31.5381L49.7363 31.8662C49.6575 31.9512 49.5851 32.2002 49.5191 32.6133L49.5319 32.9414C49.5319 32.9414 49.4787 33.6825 49.4128 34.0956L49.3532 34.6728L49.213 37.3885C49.213 37.3885 49.2322 37.8806 49.3175 37.9597L49.4092 38.2029C49.4092 38.2029 49.3303 38.2878 49.1791 38.6218L49.1131 39.0349C49.1131 39.0349 49.0664 39.9401 49.0004 40.3532C48.9344 40.7663 48.8684 41.1794 49.0389 41.3375L49.0517 41.6656C48.9729 41.7506 48.9005 41.9996 48.9133 42.3277L48.8666 43.233C48.8666 43.233 48.8199 44.1382 48.9115 44.3814C48.9115 44.3814 49.0096 44.7885 48.8519 44.9585C48.8519 44.9585 48.6943 45.1284 48.6155 45.2134C48.5431 45.4624 48.5559 45.7905 48.4835 46.0396C48.4175 46.4526 48.5156 46.8598 48.5284 47.1879C48.5413 47.516 48.5477 47.6801 48.39 47.85L47.5697 47.8795C47.5697 47.8795 47.3268 47.9704 47.412 48.0494C47.412 48.0494 47.5825 48.2076 47.2543 48.2194L45.9482 48.4305L46.1847 48.1756C46.1847 48.1756 45.2002 48.211 44.7932 48.3077C44.6292 48.3136 44.4651 48.3195 44.4715 48.4836C44.4715 48.4836 44.3139 48.6535 43.9857 48.6653C43.6576 48.6771 43.4935 48.6829 43.2442 48.6098C43.0737 48.4516 42.752 48.6274 42.4238 48.6392C42.2597 48.6451 42.2662 48.8091 42.345 48.7242C42.345 48.7242 42.345 48.7242 42.2662 48.8091C42.2662 48.8091 42.1021 48.815 42.0168 48.736C41.9316 48.6569 41.6887 48.7477 41.5246 48.7536L41.1176 48.8504L40.4613 48.8739C40.4613 48.8739 40.3761 48.7948 40.048 48.8066L38.0855 49.0414L37.2651 49.0708C37.2651 49.0708 36.2807 49.1061 35.7096 49.2088L34.0753 49.4317C34.0753 49.4317 33.5831 49.4494 33.4255 49.6193C33.3466 49.7043 33.2678 49.7893 32.7756 49.807C32.4474 49.8187 32.4474 49.8187 32.3622 49.7396L31.9488 49.6723C31.87 49.7573 31.5418 49.7691 31.5418 49.7691C31.463 49.8541 31.2201 49.9449 30.9708 49.8717L30.2357 49.9803C30.2357 49.9803 29.5005 50.0888 29.0083 50.1065C28.6802 50.1182 28.4373 50.2091 28.1091 50.2209C27.374 50.3294 26.5601 50.5229 25.8249 50.6314L25.6673 50.8014C25.6673 50.8014 25.2539 50.7341 25.2603 50.8981C25.2603 50.8981 25.1815 50.9831 25.0238 51.1531C24.7809 51.2439 24.4528 51.2557 24.2887 51.2616C24.4464 51.0916 24.4464 51.0916 24.0394 51.1884L23.4683 51.291C23.4683 51.291 23.1402 51.3028 22.9825 51.4728C22.4967 51.6545 22.0109 51.8362 21.3611 52.0238L20.6259 52.1323L20.3766 52.0591C20.3766 52.0591 20.2914 51.9801 20.0485 52.0709L19.5627 52.2526C19.5627 52.2526 18.3418 52.5429 17.6066 52.6514C17.5278 52.7364 17.2785 52.6632 17.1144 52.6691C17.1144 52.6691 16.8715 52.76 16.7863 52.6809C16.4645 52.8567 16.1364 52.8685 15.7294 52.9652L15.4013 52.977L14.0951 53.1882L13.1171 53.3876L12.8742 53.4784C12.8742 53.4784 12.5525 53.6543 12.3948 53.8242C12.1583 54.0791 11.5873 54.1818 11.1015 54.3635L10.6157 54.5452L9.80814 54.9028C9.80814 54.9028 9.32234 55.0845 9.24351 55.1695C9.00703 55.4244 8.52122 55.6061 7.7861 55.7146L7.13623 55.9022C7.13623 55.9022 6.65043 56.084 6.5716 56.1689C6.41395 56.3389 6.09864 56.6788 6.01981 56.7637C5.94098 56.8487 5.78333 57.0187 5.37635 57.1154L5.2187 57.2853C5.2187 57.2853 4.24068 57.4847 3.91895 57.6606C3.84012 57.7455 3.7613 57.8305 3.84012 57.7455C3.68889 58.0795 3.85296 58.0736 4.58808 57.9651L4.91623 57.9533L6.2224 57.7422C6.2224 57.7422 5.90709 58.0821 5.57894 58.0938C5.33604 58.1847 5.09314 58.2756 4.93548 58.4455L4.77783 58.6154C4.77783 58.6154 4.62018 58.7854 4.29203 58.7972C4.29203 58.7972 3.71456 58.7358 3.39284 58.9116L3.23518 59.0815C3.23518 59.0815 3.15635 59.1665 2.99228 59.1724C2.82821 59.1783 2.74938 59.2632 2.58531 59.2691C2.42765 59.4391 2.27 59.609 1.86302 59.7058C1.37722 59.8875 1.37722 59.8875 1.62654 59.9607L1.54771 60.0457C1.22599 60.2215 0.819012 60.3182 0.989504 60.4764C0.910677 60.5614 0.910677 60.5614 1.07475 60.5555C1.07475 60.5555 0.995923 60.6405 1.16 60.6346C1.24524 60.7137 1.57339 60.7019 1.73746 60.696C2.39375 60.6724 2.9648 60.5698 3.69992 60.4613L4.43504 60.3527C4.43504 60.3527 5.66238 60.2265 6.22701 59.9598L6.55516 59.9481C6.55516 59.9481 6.96855 60.0154 7.0538 60.0944C7.0538 60.0944 7.46719 60.1617 7.63126 60.1559C7.47361 60.3258 7.14546 60.3376 6.98139 60.3435L6.33151 60.5311L6.17386 60.701C6.17386 60.701 6.2591 60.7801 6.58725 60.7683L7.32237 60.6598L10.4205 60.0557L14.0044 59.2699L14.1621 59.1L16.5315 58.7685L17.5096 58.5691C18.3235 58.3756 19.0586 58.2671 19.7937 58.1586C20.0366 58.0677 20.2007 58.0618 20.5289 58.05C20.857 58.0383 21.1852 58.0265 21.4281 57.9356L21.9991 57.833L22.7342 57.7245C23.6334 57.61 24.4474 57.4165 25.3466 57.3021C25.6747 57.2903 26.0817 57.1936 26.4034 57.0177C26.7316 57.006 27.0597 56.9942 27.4667 56.8974L28.0377 56.7948C28.0377 56.7948 29.3439 56.5836 30.0002 56.5601C30.0002 56.5601 30.5712 56.4574 30.3219 56.3842L30.4796 56.2143L30.7353 56.4515C30.8205 56.5306 31.1487 56.5188 31.4768 56.5071L31.6345 56.3371C31.6345 56.3371 32.4549 56.3077 32.8683 56.375L33.3605 56.3573L35.894 56.0199C35.894 56.0199 36.301 55.9232 36.3798 55.8382L36.5374 55.6683L36.6227 55.7474C36.6227 55.7474 36.7079 55.8264 37.0361 55.8147L37.3642 55.8029C37.3642 55.8029 38.0993 55.6943 38.5916 55.6767C39.0838 55.659 39.3267 55.5682 39.5696 55.4773L39.6484 55.3923L39.9766 55.3805C40.0618 55.4596 40.3899 55.4478 40.6328 55.357L41.368 55.2485C41.368 55.2485 42.1031 55.1399 42.4248 54.9641C42.4248 54.9641 42.8318 54.8673 42.917 54.9464C42.917 54.9464 43.0023 55.0255 43.2516 55.0987C43.5009 55.1719 43.7438 55.081 44.072 55.0692C44.4789 54.9725 44.8071 54.9607 45.1288 54.7849C45.3717 54.694 45.5358 54.6881 45.7851 54.7613C45.9556 54.9195 46.2837 54.9077 46.6119 54.8959L47.347 54.7874C47.2746 55.0364 47.2022 55.2855 47.1362 55.6985L47.0299 57.1809C47.0299 57.1809 46.9639 57.594 46.9703 57.758C46.8191 58.092 46.7595 58.6692 46.7788 59.1613L46.732 60.0666C46.732 60.0666 46.7449 60.3947 46.6661 60.4796C46.5148 60.8136 46.5277 61.1417 46.5405 61.4698L46.5662 62.1261C46.5662 62.1261 46.5662 62.1261 46.4085 62.296C46.3297 62.381 46.3361 62.545 46.3425 62.7091C46.3618 63.2012 46.3022 63.7784 46.1574 64.2764C46.019 64.9385 46.0447 65.5947 46.1428 66.0019C46.1428 66.0019 46.1492 66.166 46.1556 66.33L45.9979 66.5C45.9191 66.585 45.8403 66.6699 45.8531 66.998C45.866 67.3261 45.7935 67.5752 45.8064 67.9033C45.7404 68.3163 45.668 68.5654 45.8321 68.5595C45.8321 68.5595 45.9173 68.6386 45.9237 68.8026C45.9237 68.8026 45.9366 69.1307 45.8577 69.2157C45.8577 69.2157 45.7789 69.3007 45.7129 69.7137L45.6533 70.2909L45.5149 70.953C45.5149 70.953 45.5342 71.4451 45.6194 71.5242L45.7899 71.6824C45.7899 71.6824 45.6387 72.0164 45.5599 72.1014C45.5599 72.1014 45.3234 72.3563 45.4151 72.5994C45.3555 73.1765 45.2895 73.5896 45.2299 74.1667C45.1511 74.2517 45.1575 74.4158 45.1639 74.5798L45.0063 74.7498L45.1768 74.9079C45.1768 74.9079 45.1768 74.9079 45.2556 74.823C45.4068 74.489 45.4921 74.568 45.4985 74.7321C45.5837 74.8112 45.4985 74.7321 45.6562 74.5622L45.7286 74.3131C45.7286 74.3131 45.8202 74.5563 45.7414 74.6412C45.5837 74.8112 45.5966 75.1393 45.5306 75.5524C45.4518 75.6373 45.4646 75.9654 45.3858 76.0504C45.3858 76.0504 45.3794 75.8864 45.3729 75.7223L45.1172 75.4851C45.1172 75.4851 45.1172 75.4851 45.0384 75.57L44.9724 75.9831L44.8147 76.1531L44.8211 76.3171C44.7487 76.5661 44.5975 76.9001 44.6103 77.2282L44.5764 78.4616C44.5764 78.4616 44.7341 78.2916 44.8853 77.9576C44.8001 77.8786 44.7084 77.6354 44.8597 77.3014L44.9256 76.8884L45.2217 76.0563C45.2217 76.0563 45.2345 76.3844 45.1557 76.4694C45.0045 76.8034 45.0173 77.1315 45.0302 77.4596L44.9513 77.5446C44.9513 77.5446 44.8789 77.7936 44.8853 77.9576C44.8982 78.2857 44.7534 78.7838 44.845 79.0269C44.845 79.0269 44.7662 79.1119 44.7726 79.276C44.6938 79.3609 44.7002 79.525 44.7066 79.689C44.7195 80.0171 44.7259 80.1812 44.5682 80.3511C44.5682 80.3511 44.4958 80.6002 44.5022 80.7642L44.4362 81.1773C44.4362 81.1773 44.5279 81.4204 44.5343 81.5845C44.6196 81.6636 44.4683 81.9976 44.4748 82.1616C44.494 82.6538 44.3492 83.1518 44.2896 83.729L44.1576 84.5551C44.1576 84.5551 44.1641 84.7192 44.2429 84.6342L44.5582 84.2943C44.5582 84.2943 44.3538 85.3695 44.2154 86.0316L44.3006 86.1107C44.3006 86.1107 44.3006 86.1107 44.3135 86.4388L43.7791 89.5794C43.7791 89.5794 43.66 90.7336 43.594 91.1467L43.6793 91.2258C43.8369 91.0558 43.7645 91.3049 43.6921 91.5539L43.4556 91.8088C43.4556 91.8088 43.3896 92.2219 43.4025 92.55C43.3493 93.2912 43.2109 93.9533 43.0789 94.7794C43.0918 95.1075 43.0258 95.5206 42.8745 95.8546L42.7169 96.0246L42.8938 96.3468C42.8938 96.3468 42.9726 96.2618 43.0515 96.1768L43.4602 94.0265L43.737 92.7023C43.737 92.7023 43.9928 92.9395 43.7691 93.5225L43.7031 93.9356C43.7031 93.9356 44.012 93.4317 44.0716 92.8545C44.0716 92.8545 44.0588 92.5264 44.1376 92.4415C44.2952 92.2715 44.2824 91.9434 44.3548 91.6944C44.5592 90.6192 44.7572 89.38 45.0468 88.3839L45.2045 88.2139C45.2045 88.2139 45.2448 87.1446 45.3832 86.4825C45.33 87.2237 45.1852 87.7218 45.1256 88.2989C45.1256 88.2989 44.902 88.8819 44.9148 89.21L44.9277 89.5381C44.9277 89.5381 44.9277 89.5381 45.0065 89.4532L45.0129 89.6172C45.0917 89.5322 45.1641 89.2832 45.1513 88.9551C45.1385 88.627 45.2109 88.378 45.2897 88.293C45.2897 88.293 45.3685 88.208 45.3621 88.044L45.4281 87.6309C45.4281 87.6309 45.4474 88.1231 45.5326 88.2021C45.5326 88.2021 45.6838 87.8681 45.6774 87.7041C45.6774 87.7041 45.6903 88.0322 45.6967 88.1963C45.6179 88.2812 45.6307 88.6093 45.6371 88.7734L45.6692 89.5937C45.6692 89.5937 45.6692 89.5937 45.8269 89.4237C45.6096 90.1708 45.6289 90.6629 45.5629 91.076L45.5757 91.4041C45.4969 91.4891 45.4245 91.7381 45.4309 91.9022C45.3649 92.3153 45.3842 92.8074 45.2394 93.3055L45.1138 94.2957L45.3503 94.0408C45.3503 94.0408 45.4951 93.5427 45.4823 93.2146C45.4823 93.2146 45.4758 93.0506 45.5547 92.9656C45.5547 92.9656 45.7123 92.7956 45.7059 92.6316L45.9167 91.7205C45.9167 91.7205 46.1147 90.4812 46.2531 89.8191C46.3319 89.7341 46.4107 89.6492 46.3319 89.7341L46.5024 89.8923C46.5024 89.8923 46.4364 90.3054 46.4493 90.6335C46.2916 90.8034 46.4621 90.9616 46.4621 90.9616C46.4621 90.9616 46.4685 91.1257 46.4749 91.2897C46.4025 91.5387 46.3301 91.7878 46.3429 92.1159C46.4218 92.0309 46.5794 91.861 46.5666 91.5328L46.9818 89.5465L47.1394 89.3766C47.1459 89.5406 47.2375 89.7838 47.1715 90.1969L47.0396 91.023L46.914 92.0132C46.914 92.0132 47.276 90.7681 47.4209 90.27C47.4209 90.27 47.4933 90.021 47.4868 89.857C47.4804 89.6929 47.3952 89.6138 47.4676 89.3648L47.5464 89.2798C47.7041 89.1099 47.6912 88.7818 47.7636 88.5328C47.7765 88.8609 47.7893 89.189 47.7233 89.6021C47.7233 89.6021 47.7233 89.6021 47.6445 89.687C47.6445 89.687 47.6509 89.8511 47.7297 89.7661C47.7297 89.7661 47.8086 89.6811 47.8022 89.5171C47.7957 89.353 47.8681 89.104 47.8553 88.7759C47.9277 88.5269 47.9149 88.1988 47.8296 88.1197C47.8296 88.1197 47.9085 88.0347 47.902 87.8707C47.968 87.4576 48.0404 87.2086 48.1981 87.0386C48.2769 86.9536 48.3558 86.8687 48.1981 87.0386C48.1981 87.0386 48.2705 86.7896 48.2641 86.6255L48.4217 86.4556C48.4217 86.4556 48.3768 85.3072 48.4364 84.7301C48.4364 84.7301 48.5088 84.4811 48.5024 84.317L48.66 84.1471C48.66 84.1471 48.66 84.1471 48.6729 84.4752L48.5345 85.1373L48.6921 84.9673C48.7453 84.2261 48.8772 83.4 48.9304 82.6588L48.9771 81.7536C48.9771 81.7536 49.0431 81.3405 49.122 81.2555C49.0431 81.3405 49.1348 81.5836 48.9771 81.7536C48.9047 82.0026 48.99 82.0817 49.0624 81.8327C49.0624 81.8327 49.1412 81.7477 49.1476 81.9117L49.1605 82.2398C49.2393 82.1549 49.2329 81.9908 49.2265 81.8268L49.2072 81.3346C49.2072 81.3346 49.2732 80.9215 49.352 80.8366C49.5097 80.6666 49.4968 80.3385 49.5628 79.9254C49.5436 79.4333 49.6884 78.9352 49.6691 78.4431C49.6627 78.279 49.7351 78.03 49.7287 77.8659C49.8075 77.781 49.8011 77.6169 49.8799 77.5319C49.8799 77.5319 49.8799 77.5319 49.9588 77.447C50.0972 76.7849 50.2356 76.1227 50.1375 75.7156C50.1375 75.7156 50.1246 75.3875 50.2035 75.3025C50.2759 75.0535 50.2695 74.8894 50.263 74.7253C50.3419 74.6404 50.3419 74.6404 50.3483 74.8044C50.2695 74.8894 50.2823 75.2175 50.3611 75.1325C50.3611 75.1325 50.5188 74.9626 50.4271 74.7195L50.4867 74.1423C50.4867 74.1423 50.6975 73.2312 50.7635 72.8181C50.9019 72.156 51.0403 71.4939 51.0934 70.7527C51.0806 70.4246 51.153 70.1756 51.1402 69.8475L51.2126 69.5985C51.2126 69.5985 51.2978 69.6776 51.3702 69.4285C51.5279 69.2586 51.5151 68.9305 51.5086 68.7664C51.5875 68.6815 51.4958 68.4383 51.5746 68.3533C51.7259 68.0193 51.6342 67.7762 51.5489 67.6971C51.4637 67.618 51.4509 67.2899 51.5233 67.0409L51.6296 65.5585C51.6296 65.5585 51.6956 65.1455 51.6891 64.9814C51.702 65.3095 51.7148 65.6376 51.7277 65.9657C51.7469 66.4579 51.7598 66.786 51.845 66.8651L51.8322 66.537C51.7469 66.4579 51.8193 66.2089 51.8065 65.8808L51.8532 64.9755L51.8404 64.6474C51.8404 64.6474 51.7487 64.4043 51.8211 64.1553C51.8871 63.7422 51.8807 63.5781 51.9659 63.6572C51.9659 63.6572 52.1364 63.8154 52.2281 64.0585L52.1493 64.1435L52.3198 64.3016L52.3986 64.2167C52.3986 64.2167 52.2941 63.6454 52.2088 63.5663C52.0384 63.4082 52.1832 62.9101 52.1639 62.418C52.2363 62.1689 52.1511 62.0899 52.0658 62.0108C52.0658 62.0108 52.0594 61.8467 52.053 61.6827L52.1978 61.1846C52.1978 61.1846 52.2638 60.7715 52.3426 60.6866C52.3555 61.0147 52.2895 61.4278 52.2171 61.6768C52.1382 61.7618 52.1447 61.9258 52.2299 62.0049C52.2299 62.0049 52.2427 62.333 52.2492 62.4971C52.3216 62.248 52.3876 61.835 52.3747 61.5068L52.5003 60.5166L52.4874 60.1885C52.4874 60.1885 52.3958 59.9454 52.4682 59.6964C52.5406 59.4473 52.5278 59.1192 52.6066 59.0343C52.6854 58.9493 52.7771 59.1924 52.7047 59.4415L52.7707 59.0284L52.7917 57.4669C52.7917 57.4669 52.6808 56.7316 52.7468 56.3185C52.8128 55.9055 52.8788 55.4924 52.7807 55.0852L52.7743 54.9212L52.8659 55.1643C52.8788 55.4924 52.8788 55.4924 53.0364 55.3224L53.1941 55.1525C53.1941 55.1525 53.1748 54.6603 53.2472 54.4113L53.5754 54.3995C53.5754 54.3995 53.9035 54.3878 54.1528 54.461C54.5662 54.5283 54.9796 54.5956 55.4654 54.4138L56.3646 54.2994C56.3646 54.2994 56.6928 54.2876 56.778 54.3667C57.0273 54.4399 57.3555 54.4281 57.6836 54.4164L58.3399 54.3928C58.3399 54.3928 58.3399 54.3928 58.5104 54.551C58.5104 54.551 58.7597 54.6242 58.9238 54.6183C59.416 54.6006 59.9082 54.5829 60.4005 54.5653C61.0568 54.5417 61.549 54.524 62.0348 54.3423C62.0348 54.3423 62.1989 54.3364 62.3629 54.3305L62.4482 54.4096C62.5334 54.4887 62.6187 54.5678 62.9468 54.556L63.7672 54.5265C63.7672 54.5265 64.4235 54.503 64.3382 54.4239C64.3382 54.4239 64.4171 54.3389 64.5811 54.333C64.5811 54.333 64.9093 54.3213 64.9945 54.4004C64.9945 54.4004 65.165 54.5585 65.4932 54.5467L65.9854 54.5291L66.5628 54.5905C66.5628 54.5905 67.0551 54.5728 67.1339 54.4878L67.2127 54.4029C67.2127 54.4029 67.6325 54.6342 67.7178 54.7133C67.7178 54.7133 67.9671 54.7865 68.2164 54.8597C68.7086 54.842 69.2008 54.8243 69.6931 54.8067C69.6931 54.8067 69.9424 54.8799 70.1065 54.874L70.1853 54.789L70.3494 54.7831C70.3494 54.7831 70.3494 54.7831 70.2641 54.704C70.0148 54.6308 70.0936 54.5459 70.1725 54.4609C70.2513 54.3759 70.1725 54.4609 70.002 54.3027L69.7526 54.2296C69.7526 54.2296 69.8315 54.1446 70.0808 54.2178C70.3301 54.291 70.5794 54.3642 70.9076 54.3524C70.9076 54.3524 71.2357 54.3406 71.321 54.4197C71.321 54.4197 71.0781 54.5105 70.9928 54.4315L70.8352 54.6014C70.8352 54.6014 70.8352 54.6014 70.9204 54.6805L71.3338 54.7478C71.3338 54.7478 71.1633 54.5896 71.2486 54.6687L71.3274 54.5837L71.5831 54.821C71.9113 54.8092 72.1606 54.8824 72.4099 54.9556L73.5584 54.9144C73.5584 54.9144 73.3879 54.7562 73.0598 54.768C72.981 54.8529 72.7381 54.9438 72.4887 54.8706L72.1606 54.8824L71.3338 54.7478C71.3338 54.7478 71.6619 54.736 71.7472 54.8151C72.0818 54.9674 72.3247 54.8765 72.6528 54.8647C72.6528 54.8647 72.9085 55.102 73.1514 55.0111C73.4796 54.9993 73.893 55.0666 74.1359 54.9758C74.1359 54.9758 74.1359 54.9758 74.3 54.9699C74.3852 55.049 74.5493 55.0431 74.7134 55.0372C74.9563 54.9463 75.2056 55.0195 75.2908 55.0986C75.2908 55.0986 75.5401 55.1718 75.619 55.0868L75.9471 55.075C75.9471 55.075 76.19 54.9842 76.3541 54.9783C76.4329 54.8933 76.7675 55.0456 76.9316 55.0397C77.4238 55.022 77.916 55.0044 78.3294 55.0717L79.0709 55.1272C79.0709 55.1272 79.235 55.1213 79.1497 55.0422L78.6511 54.8958C78.6511 54.8958 79.7996 54.8546 80.3771 54.916L80.4559 54.831C80.4559 54.831 80.4559 54.831 80.6988 54.7402L83.665 54.9623C83.665 54.9623 84.7347 55.006 85.2269 54.9884L85.3057 54.9034C85.1352 54.7452 85.3845 54.8184 85.5486 54.8125L85.8043 55.0498C85.8043 55.0498 86.2966 55.0321 86.4606 55.0262C87.1169 55.0026 87.8585 55.0582 88.5212 55.1987C88.8493 55.1869 89.1775 55.1751 89.512 55.3274L89.6825 55.4855L90.0043 55.3097C90.0043 55.3097 89.919 55.2306 89.8338 55.1516L87.7732 54.9791L86.533 54.7772C86.533 54.7772 86.7695 54.5223 87.2682 54.6687L87.5963 54.6569C87.5963 54.6569 87.0913 54.3464 86.5202 54.4491C86.5202 54.4491 86.1921 54.4609 86.1068 54.3818C85.9363 54.2236 85.6082 54.2354 85.4441 54.2413C84.368 54.0335 83.2195 54.0747 82.3075 53.861L82.137 53.7029C82.137 53.7029 81.1525 53.7382 80.4898 53.5977C81.1461 53.5741 81.7236 53.6356 82.2158 53.6179C82.2158 53.6179 82.7144 53.7643 83.1278 53.8316L83.456 53.8198C83.456 53.8198 83.456 53.8198 83.3707 53.7407L83.5348 53.7348C83.4495 53.6557 83.2002 53.5826 82.9573 53.6734C82.6292 53.6852 82.4651 53.6911 82.2946 53.5329C82.2946 53.5329 82.2094 53.4538 82.0453 53.4597L81.7172 53.4715C81.7172 53.4715 82.2946 53.5329 82.2094 53.4538C82.2094 53.4538 81.9601 53.3806 81.7107 53.3074C81.7107 53.3074 82.0389 53.2957 82.203 53.2898C82.2882 53.3689 82.6163 53.3571 82.6952 53.2721L83.5155 53.2427C83.5155 53.2427 83.5155 53.2427 83.345 53.0845C84.0078 53.225 84.5 53.2073 84.9922 53.1897L85.3203 53.1779C85.4056 53.257 85.5697 53.2511 85.819 53.3243C86.226 53.2275 86.6394 53.2948 87.138 53.4412L88.1288 53.5699L87.7943 53.4176C87.7943 53.4176 87.2956 53.2713 86.9675 53.283C86.9675 53.283 86.8034 53.2889 86.7182 53.2098C86.7182 53.2098 86.5477 53.0517 86.3836 53.0576L85.5568 52.923C85.5568 52.923 84.4019 52.8001 83.7392 52.6596L83.6539 52.5806L83.8968 52.4897C83.9757 52.4047 84.1397 52.3988 84.5531 52.4661C84.6384 52.5452 84.8813 52.4544 84.8813 52.4544C84.8813 52.4544 84.9601 52.3694 85.2094 52.4426C85.4587 52.5158 85.7081 52.589 86.0362 52.5772C85.951 52.4981 85.8657 52.419 85.5376 52.4308L83.6347 52.0884L83.4642 51.9302C83.543 51.8453 83.8712 51.8335 84.1993 51.8217L84.9409 51.8772L85.9317 52.0059C85.9317 52.0059 84.6915 51.804 84.357 51.6518C84.357 51.6518 84.1076 51.5786 83.9436 51.5845C83.8647 51.6694 83.7007 51.6753 83.5366 51.6812L83.3661 51.523C83.1956 51.3649 82.9527 51.4557 82.7034 51.3826C83.0315 51.3708 83.2744 51.2799 83.6878 51.3472L83.9372 51.4204C83.9372 51.4204 83.8519 51.3413 83.6878 51.3472C83.5238 51.3531 83.1956 51.3649 83.0315 51.3708C82.7822 51.2976 82.4541 51.3094 82.3752 51.3943C82.3752 51.3943 82.3752 51.3943 82.2112 51.4002C81.883 51.412 81.6337 51.3388 81.3844 51.2656C81.2139 51.1074 81.2991 51.1865 81.3844 51.2656C81.3844 51.2656 81.1351 51.1924 80.971 51.1983L80.8922 51.2833C80.8922 51.2833 79.7372 51.1605 79.1662 51.2631L78.7528 51.1958L78.5035 51.1226C78.5035 51.1226 78.5823 51.0376 78.7464 51.0317L79.4027 51.0082L79.2322 50.85C79.2322 50.85 77.6703 50.8239 77.014 50.8475L76.1084 50.7979C76.1084 50.7979 75.7802 50.8096 75.695 50.7306L76.1872 50.7129C76.1872 50.7129 76.5153 50.7011 76.266 50.6279C76.266 50.6279 76.1808 50.5488 76.3449 50.5429L76.673 50.5312C76.673 50.5312 76.4237 50.458 76.2596 50.4639L75.7674 50.4815C75.7674 50.4815 75.354 50.4142 75.2688 50.3352C75.0983 50.177 74.7701 50.1888 74.442 50.2006C73.9497 50.2182 73.4575 50.2359 73.1294 50.2477C72.9653 50.2536 72.8012 50.2594 72.4731 50.2712C72.3878 50.1921 72.2238 50.198 72.0597 50.2039C72.0597 50.2039 72.0597 50.2039 71.9744 50.1248C71.397 50.0634 70.7343 49.9229 70.3337 50.1837C70.3337 50.1837 70.0908 50.2746 69.9267 50.2805C69.7627 50.2864 69.5133 50.2132 69.3493 50.2191C69.264 50.14 69.264 50.14 69.4281 50.1341C69.4281 50.1341 69.8415 50.2014 69.8351 50.0374C69.8351 50.0374 69.5858 49.9642 69.4217 49.9701L68.8442 49.9086C68.8442 49.9086 67.9386 49.859 67.5252 49.7917C66.8625 49.6512 66.2062 49.6748 65.4711 49.7833C65.2282 49.8742 64.8148 49.8069 64.6507 49.8127L64.3226 49.8245C64.3226 49.8245 64.3226 49.8245 64.2373 49.7454C63.988 49.6722 63.8239 49.6781 63.4958 49.6899C63.4958 49.6899 63.1676 49.7017 63.0036 49.7076C62.6754 49.7194 62.5114 49.7253 62.3473 49.7311C62.2685 49.8161 62.0256 49.907 61.7762 49.8338L60.3848 49.9659C60.3848 49.9659 60.0567 49.9777 59.8074 49.9045C60.0503 49.8136 60.3784 49.8018 60.7065 49.79C61.1988 49.7724 61.4417 49.6815 61.4352 49.5175L61.1071 49.5292C61.0283 49.6142 60.7001 49.626 60.5361 49.6319L59.6369 49.7463C59.6369 49.7463 59.3087 49.7581 59.2299 49.843C59.2299 49.843 58.987 49.9339 58.6588 49.9457C58.1666 49.9634 58.0814 49.8843 58.1602 49.7993C58.1602 49.7993 58.1538 49.6352 58.3967 49.5444L58.4755 49.4594C58.4755 49.4594 57.9833 49.4771 57.8192 49.483C57.6616 49.6529 57.1693 49.6706 56.8412 49.6824C56.513 49.6941 56.513 49.6941 56.4342 49.7791C56.4342 49.7791 56.2701 49.785 56.1061 49.7909L55.6074 49.6445C55.6074 49.6445 55.1152 49.6622 55.03 49.5831C55.3581 49.5713 55.6863 49.5595 56.0144 49.5478C56.0997 49.6268 56.3426 49.536 56.3426 49.536C56.3426 49.536 56.5855 49.4451 56.7495 49.4392C56.4214 49.451 56.0932 49.4628 55.7651 49.4746L54.7806 49.5099C54.7806 49.5099 54.4525 49.5217 54.3737 49.6067C54.3737 49.6067 54.216 49.7766 53.8879 49.7884C53.7238 49.7943 53.3957 49.806 53.3104 49.727C53.2252 49.6479 53.4681 49.557 53.6321 49.5511L53.304 49.5629L52.7329 49.6656C52.7329 49.6656 52.6413 49.4224 52.7137 49.1734C52.7009 48.8453 52.8585 48.6753 52.9309 48.4263C53.0886 48.2564 53.0757 47.9283 53.0629 47.6002C53.0565 47.4361 53.0565 47.4361 52.9776 47.5211C52.9776 47.5211 52.9776 47.5211 52.8924 47.442C52.8924 47.442 53.0501 47.2721 52.9648 47.193C53.0436 47.108 53.0372 46.9439 53.0308 46.7799L53.0115 46.2877L53.1499 45.6256C53.1499 45.6256 53.2288 45.5407 53.3012 45.2916L53.4671 43.2321L53.599 42.406C53.599 42.406 53.7246 41.4158 53.7842 40.8386L53.8841 39.1922C53.8841 39.1922 53.9436 38.6151 53.852 38.3719C53.7667 38.2929 53.7603 38.1288 53.8263 37.7157C53.8135 37.3876 53.9775 37.3817 53.9775 37.3817L54.0435 36.9687C54.0371 36.8046 54.1095 36.5556 54.0243 36.4765C53.939 36.3974 54.0114 36.1484 54.0838 35.8994L54.137 35.1582C54.137 35.1582 54.1837 34.2529 54.2497 33.8399L54.2964 32.9346C54.2643 32.1144 54.3175 31.3732 54.4495 30.547L54.6071 30.3771L54.4238 29.8908C54.4238 29.8908 54.3386 29.8117 54.2469 29.5686C54.2341 29.2405 54.2276 29.0764 54.3 28.8274C54.3 28.8274 54.3789 28.7424 54.5365 28.5725L54.5961 27.9954C54.5961 27.9954 54.6621 27.5823 54.5768 27.5032C54.4723 26.9319 54.4531 26.4398 54.5062 25.6986L54.5594 24.9574L54.6318 24.7084C54.6318 24.7084 54.7106 24.6234 54.7042 24.4594L54.685 23.9672L54.6868 21.9136C54.6868 21.9136 54.6739 21.5855 54.8316 21.4155L54.8187 21.0874C54.8187 21.0874 54.7866 20.2672 54.9379 19.9332L54.925 19.6051L54.9525 18.2077L54.9928 17.1384L54.98 16.8103C54.98 16.8103 54.8819 16.4031 54.8755 16.239C54.7774 15.8318 54.6793 15.4246 54.7389 14.8475L54.7196 14.3554L54.6023 13.456C54.6023 13.456 54.5831 12.9638 54.4126 12.8057C54.2357 12.4835 54.21 11.8273 54.1843 11.171L54.2375 10.4299C54.2375 10.4299 54.2182 9.9377 54.1265 9.69456C53.956 9.5364 53.9368 9.04424 53.6875 8.97104C53.6022 8.89196 53.5106 8.64883 53.4913 8.15667L53.4785 7.82856C53.4785 7.82856 53.4399 6.84424 53.3419 6.43705C53.2566 6.35797 53.2502 6.19391 53.2566 6.35797C53.0009 6.12072 52.9221 6.2057 52.7901 7.03185L52.8029 7.35995L52.6114 8.76324C52.6114 8.76324 52.5133 8.35605 52.5004 8.02795C52.4876 7.69984 52.3959 7.45671 52.3895 7.29265L52.219 7.13449C52.219 7.13449 52.2062 6.80639 52.2786 6.55736L52.3574 6.47239C52.3574 6.47239 52.417 5.89526 52.3189 5.48807L52.1484 5.3299L52.2208 5.08088C52.3785 4.91093 52.208 4.75277 52.2016 4.58872C52.1099 4.34558 52.0182 4.10245 51.999 3.61029C51.8945 3.03904 51.8945 3.03904 51.7433 3.37304L53.7011 0.920647ZM6.79806 59.8572C6.79806 59.8572 6.95571 59.6873 7.11979 59.6814C7.11979 59.6814 7.19861 59.5964 7.36269 59.5905C7.20503 59.7604 6.95571 59.6873 6.71281 59.7781L6.79806 59.8572ZM24.605 57.2466C24.605 57.2466 24.605 57.2466 24.5262 57.3316L24.605 57.2466ZM28.3649 50.4581L28.2072 50.6281C28.2072 50.6281 27.715 50.6457 27.6297 50.5667C27.6297 50.5667 27.7874 50.3967 28.1155 50.3849C28.1155 50.3849 28.1155 50.3849 28.3584 50.2941L28.4437 50.3732C28.4437 50.3732 28.4437 50.3732 28.286 50.5431L28.3649 50.4581ZM31.0624 50.1149L30.9772 50.0358C30.9772 50.0358 30.9772 50.0358 31.056 49.9508L31.1413 50.0299C31.1413 50.0299 31.1413 50.0299 31.0624 50.1149ZM36.0442 49.3611L35.8866 49.531C35.8866 49.531 35.145 49.4755 34.9874 49.6454C34.9874 49.6454 34.9085 49.7304 34.7445 49.7363C34.9021 49.5663 35.3091 49.4696 35.552 49.3787C35.7949 49.2879 36.2871 49.2702 36.6941 49.1734C36.6153 49.2584 36.3724 49.3493 36.1295 49.4401L36.0442 49.3611ZM38.4136 49.0296C38.4136 49.0296 38.4136 49.0296 38.5713 48.8596L39.3917 48.8302C39.3917 48.8302 39.641 48.9034 39.5622 48.9883C39.4045 49.1583 38.9975 49.255 38.5841 49.1877L38.4136 49.0296ZM44.2182 90.3029C44.2182 90.3029 44.1715 91.2081 44.1055 91.6212C43.9478 91.7911 44.0395 92.0343 43.9607 92.1192L44.0395 92.0343C44.0395 92.0343 44.1119 91.7852 44.1055 91.6212C44.1055 91.6212 44.001 91.0499 44.067 90.6369C44.1458 90.5519 44.133 90.2238 44.2118 90.1388C44.2118 90.1388 44.2118 90.1388 44.3823 90.297L44.2182 90.3029ZM44.2521 89.0695C44.2521 89.0695 44.1733 89.1545 44.1797 89.3186L44.1009 89.4035C44.1009 89.4035 44.0156 89.3244 43.924 89.0813C43.924 89.0813 43.924 89.0813 44.0092 89.1604L44.2521 89.0695ZM44.5353 87.9094L44.6013 87.4963L44.759 87.3264C44.759 87.3264 44.759 87.3264 44.8442 87.4054L44.7654 87.4904L44.8571 87.7335L44.5353 87.9094ZM44.7911 88.1466L44.6334 88.3166C44.6334 88.3166 44.6334 88.3166 44.627 88.1525C44.7846 87.9826 44.693 87.7394 44.7718 87.6545C44.7782 87.8185 44.7058 88.0675 44.7122 88.2316L44.7911 88.1466ZM46.6472 89.3943L46.7068 88.8171C46.7132 88.9812 46.7196 89.1452 46.6472 89.3943ZM45.4813 86.8897L45.198 88.0499C45.198 88.0499 45.0468 88.3839 45.0532 88.5479L45.264 87.6368L45.462 86.3976C45.462 86.3976 45.5537 86.6407 45.4813 86.8897ZM46.8791 86.9217L46.8067 87.1707C46.8067 87.1707 46.8067 87.1707 46.7214 87.0916C46.7214 87.0916 46.8003 87.0067 46.8791 86.9217ZM47.9955 86.0602L47.9231 86.3092C47.9231 86.3092 47.9231 86.3092 47.8314 86.0661L47.9891 85.8961C47.9891 85.8961 47.9891 85.8961 47.9955 86.0602ZM44.8881 82.2289L44.5728 82.5688C44.5728 82.5688 44.4812 82.3257 44.6388 82.1557L44.7048 81.7426C44.7048 81.7426 44.7708 81.3296 44.8432 81.0805C44.856 81.4086 44.8625 81.5727 44.8689 81.7368C44.8689 81.7368 44.8817 82.0649 44.8029 82.1498L44.8881 82.2289ZM47.5051 84.0242L47.3474 84.1942C47.3474 84.1942 47.341 84.0301 47.3346 83.8661L47.4923 83.6961C47.4923 83.6961 47.5775 83.7752 47.5115 84.1883L47.5051 84.0242ZM44.8496 81.2446C44.8496 81.2446 44.8496 81.2446 44.7644 81.1655C44.7644 81.1655 44.8368 80.9165 44.8304 80.7524L44.9624 79.9263C44.9624 79.9263 45.0733 80.6616 45.0137 81.2387L44.8496 81.2446ZM45.9147 79.0707C45.9147 79.0707 45.9147 79.0707 45.9935 78.9857C45.9935 78.9857 45.9935 78.9857 45.9147 79.0707ZM45.2602 77.0406C45.2602 77.0406 45.3986 76.3785 45.4839 76.4576C45.4839 76.4576 45.5691 76.5367 45.5031 76.9498C45.4307 77.1988 45.3583 77.4478 45.273 77.3687C45.273 77.3687 45.1026 77.2106 45.175 76.9615L45.2602 77.0406ZM49.7205 79.7555C49.7205 79.7555 49.6609 80.3326 49.6673 80.4967C49.5097 80.6666 49.4437 81.0797 49.3777 81.4928C49.4308 80.7516 49.484 80.0104 49.6224 79.3483C49.6224 79.3483 49.7141 79.5914 49.7205 79.7555ZM45.6158 75.6314L45.4582 75.8014L45.3729 75.7223C45.4518 75.6373 45.5306 75.5524 45.5306 75.5524L45.6158 75.6314ZM46.1291 74.0523L45.9715 74.2223C45.9715 74.2223 45.9715 74.2223 45.801 74.0641C45.8798 73.9791 45.9586 73.8942 45.9586 73.8942C45.9586 73.8942 45.9586 73.8942 46.1291 74.0523ZM45.6112 73.4138L45.4536 73.5837L45.4728 74.0759C45.5452 73.8269 45.4536 73.5837 45.526 73.3347C45.6048 73.2497 45.6836 73.1648 45.6836 73.1648C45.6836 73.1648 45.7689 73.2438 45.7817 73.5719L45.6112 73.4138ZM50.3401 76.694C50.3401 76.694 50.3593 77.1862 50.2081 77.5201C50.2081 77.5201 50.2805 77.2711 50.2741 77.1071C50.2741 77.1071 50.3529 77.0221 50.3465 76.858L50.3401 76.694ZM46.0585 72.2477C46.0585 72.2477 45.9925 72.6608 45.9137 72.7458C45.9137 72.7458 45.756 72.9157 45.8349 72.8308C45.8349 72.8308 45.822 72.5027 45.9009 72.4177C45.9797 72.3327 46.0585 72.2477 46.1373 72.1628C46.1373 72.1628 46.1373 72.1628 46.2226 72.2418L46.0585 72.2477ZM46.0072 70.9353C46.0072 70.9353 46.0072 70.9353 45.8367 70.7771C45.8303 70.6131 45.9027 70.3641 45.8962 70.2L45.9751 70.115L45.9943 70.6072C45.9943 70.6072 46.0072 70.9353 45.9283 71.0203L46.0072 70.9353ZM46.657 70.7477C46.657 70.7477 46.427 71.1667 46.4206 71.0026L46.4994 70.9176L46.4077 70.6745C46.4077 70.6745 46.5782 70.8327 46.493 70.7536C46.493 70.7536 46.493 70.7536 46.4141 70.8386L46.657 70.7477ZM51.3941 72.1384C51.3941 72.1384 51.4069 72.4665 51.3281 72.5514C51.2493 72.6364 51.2557 72.8005 51.1769 72.8854C51.1705 72.7214 51.164 72.5573 51.2364 72.3083C51.3153 72.2233 51.3941 72.1384 51.3941 72.1384ZM46.6863 67.2967L46.6075 67.3817C46.6075 67.3817 46.4627 67.8797 46.3838 67.9647C46.3838 67.9647 46.2986 67.8856 46.2922 67.7215C46.3646 67.4725 46.3582 67.3085 46.5158 67.1385C46.5158 67.1385 46.5158 67.1385 46.6863 67.2967ZM46.701 65.5712L46.6221 65.6562L46.5369 65.5771L46.6157 65.4921L46.701 65.5712ZM51.9477 69.4899C51.9477 69.4899 51.8753 69.739 51.8817 69.903C51.7241 70.073 51.8029 69.988 51.8817 69.903L51.8625 69.4109L51.9413 69.3259L52.0265 69.405C52.0265 69.405 52.0265 69.405 52.1182 69.6481L51.9477 69.4899ZM46.9988 62.6855L46.8412 62.8555C46.8412 62.8555 46.7559 62.7764 46.8283 62.5274L46.986 62.3574C46.986 62.3574 46.986 62.3574 46.9072 62.4424L46.9988 62.6855ZM47.5203 59.2168L47.3627 59.3868C47.3627 59.3868 47.3755 59.7149 47.3691 59.5508L47.4479 59.4659L47.3498 59.0587L47.5075 58.8887C47.5075 58.8887 47.5927 58.9678 47.5203 59.2168ZM52.9183 62.8016L52.7606 62.9715C52.7606 62.9715 52.7542 62.8075 52.7478 62.6434C52.8266 62.5585 52.8202 62.3944 52.8202 62.3944C52.8202 62.3944 52.9055 62.4735 52.833 62.7225L52.9183 62.8016ZM48.0547 56.0763L47.9098 56.5743C47.9098 56.5743 47.7393 56.4162 47.8053 56.0031C47.7989 55.839 47.9566 55.6691 47.9566 55.6691C47.9566 55.6691 48.1271 55.8272 48.0547 56.0763ZM86.1535 53.4765C86.1535 53.4765 86.9739 53.4471 87.3873 53.5144C87.5514 53.5085 87.8007 53.5817 87.8007 53.5817C87.8007 53.5817 87.545 53.3444 87.3873 53.5144C87.3873 53.5144 86.9803 53.6111 86.5669 53.5438C86.4817 53.4648 86.2388 53.5556 86.1535 53.4765C86.1535 53.4765 86.1535 53.4765 86.3112 53.3066L86.1535 53.4765ZM84.9262 53.6027C84.9262 53.6027 84.9262 53.6027 85.005 53.5178L85.0903 53.5968C85.0903 53.5968 85.0115 53.6818 84.8538 53.8518L84.7686 53.7727C84.7686 53.7727 84.7686 53.7727 84.8474 53.6877L84.9262 53.6027ZM83.9225 53.1459L84.0078 53.225C84.0078 53.225 84.0078 53.225 83.8437 53.2309C83.7584 53.1518 83.4303 53.1636 83.345 53.0845C83.4239 52.9995 83.6732 53.0727 83.9225 53.1459ZM83.4367 53.3276L83.6072 53.4858L83.2791 53.4976L83.1938 53.4185C83.1938 53.4185 83.1938 53.4185 83.2726 53.3335L83.4367 53.3276ZM84.3377 51.1596C84.3377 51.1596 84.5806 51.0687 84.9088 51.057L85.0792 51.2151L84.5018 51.1537L84.4165 51.0746L84.3377 51.1596ZM81.7528 50.1845L82.0022 50.2577C82.0022 50.2577 82.0022 50.2577 81.8445 50.4277L81.674 50.2695C81.674 50.2695 81.674 50.2695 81.8381 50.2636L81.7528 50.1845ZM82.697 51.2185C82.697 51.2185 82.9463 51.2917 83.0251 51.2067C83.0251 51.2067 83.0251 51.2067 82.9399 51.1276L82.697 51.2185ZM82.8336 52.61L83.9885 52.7328C83.9885 52.7328 84.4019 52.8001 84.4871 52.8792L83.6604 52.7446L82.5054 52.6218C82.5054 52.6218 82.7483 52.5309 82.9124 52.525L82.8336 52.61ZM79.9737 50.9055L80.1442 51.0637C80.1442 51.0637 80.0654 51.1487 79.8161 51.0755L79.5667 51.0023C79.5667 51.0023 79.6456 50.9173 79.9737 50.9055ZM75.8801 49.1632C75.8801 49.1632 76.3723 49.1456 76.6217 49.2187C76.871 49.2919 77.1203 49.3651 77.6125 49.3475C76.9562 49.371 76.2147 49.3155 75.5584 49.3391C75.5584 49.3391 75.8013 49.2482 75.9654 49.2423L75.8801 49.1632ZM72.8351 49.0261C72.8351 49.0261 73.3273 49.0084 73.5767 49.0816C73.5767 49.0816 73.4126 49.0875 73.1633 49.0143C73.1633 49.0143 73.078 48.9352 72.8351 49.0261ZM78.1928 53.6802L78.5209 53.6684L78.7767 53.9056C78.7767 53.9056 78.5338 53.9965 78.4485 53.9174L78.0351 53.8501C78.0351 53.8501 77.6217 53.7828 77.4577 53.7887C77.7858 53.7769 77.8646 53.6919 78.1075 53.6011L78.1928 53.6802ZM77.5429 53.8678C77.5429 53.8678 77.5429 53.8678 77.4641 53.9527L77.1359 53.9645L76.3944 53.909C76.3944 53.909 77.0443 53.7214 77.6217 53.7828L77.5429 53.8678ZM75.4567 53.0391C75.4567 53.0391 75.4567 53.0391 75.3779 53.1241C75.3779 53.1241 75.3779 53.1241 75.4567 53.0391ZM68.4647 48.608C68.4647 48.608 68.7929 48.5962 68.9569 48.5903C69.0422 48.6694 69.2063 48.6635 69.3703 48.6576C69.2915 48.7426 69.0422 48.6694 68.8781 48.6753L68.7076 48.5171L68.4647 48.608ZM73.5923 53.681C73.5923 53.681 74.0057 53.7483 74.091 53.8274C74.091 53.8274 73.9333 53.9973 73.7692 54.0032C73.4411 54.015 73.1918 53.9418 73.1853 53.7778C73.1853 53.7778 73.343 53.6078 73.5923 53.681ZM72.4502 53.8863C72.365 53.8072 72.2009 53.8131 72.2797 53.7281L72.4502 53.8863ZM65.5902 48.629C65.5902 48.629 65.5902 48.629 65.7479 48.4591C65.7479 48.4591 66.076 48.4473 66.1613 48.5264C66.2465 48.6055 66.3318 48.6846 66.1613 48.5264L65.505 48.5499L65.5902 48.629ZM70.7967 53.6171L71.046 53.6903C71.046 53.6903 71.046 53.6903 70.8883 53.8602L70.7178 53.702C70.7178 53.702 70.7178 53.702 70.8755 53.5321L70.7967 53.6171ZM70.2449 54.2119L70.4154 54.37L70.9076 54.3524L70.2513 54.3759L70.0808 54.2178C70.0808 54.2178 70.1596 54.1328 70.4025 54.0419L70.2449 54.2119ZM69.0835 53.925C69.0835 53.925 69.4117 53.9132 69.4969 53.9923C69.4969 53.9923 69.6674 54.1505 69.5821 54.0714L69.254 54.0832C69.1688 54.0041 69.0835 53.925 68.9983 53.8459C68.9983 53.8459 68.9983 53.8459 69.0771 53.7609L69.0835 53.925ZM67.5152 53.7349C67.5152 53.7349 67.5152 53.7349 67.594 53.6499C67.9222 53.6381 68.0074 53.7172 67.8498 53.8871L67.7709 53.9721L67.5152 53.7349ZM66.9634 54.3297L67.4492 54.1479C67.4492 54.1479 67.7773 54.1362 67.8626 54.2153C67.8626 54.2153 67.9478 54.2943 67.7049 54.3852C67.5409 54.3911 67.3768 54.397 67.1275 54.3238L67.0422 54.2447L66.9634 54.3297ZM59.349 48.6888L59.5983 48.762C59.5983 48.762 59.5195 48.8469 59.2702 48.7738C59.1061 48.7796 59.0209 48.7006 59.0209 48.7006C59.0209 48.7006 59.0997 48.6156 59.349 48.6888ZM64.2466 54.1808C64.2466 54.1808 64.7452 54.3272 64.8304 54.4062C64.8304 54.4062 64.7516 54.4912 64.5875 54.4971C64.3382 54.4239 64.1742 54.4298 64.0101 54.4357C64.0101 54.4357 64.0101 54.4357 64.1677 54.2657L64.2466 54.1808ZM55.1491 48.4288C55.1491 48.4288 55.1491 48.4288 55.2279 48.3439L55.1491 48.4288ZM47.9363 48.852L48.094 48.6821C47.6806 48.6148 48.0087 48.603 48.1728 48.5971C48.1728 48.5971 48.1728 48.5971 48.4157 48.5063C48.4157 48.5063 48.4157 48.5063 48.258 48.6762C48.1792 48.7612 48.0151 48.7671 47.8511 48.7729L47.7658 48.6939L47.9363 48.852ZM45.2259 48.8672C45.2259 48.8672 45.554 48.8554 45.6329 48.7704C45.7969 48.7645 45.961 48.7587 46.2039 48.6678C46.1251 48.7528 45.7969 48.7645 45.554 48.8554C45.4752 48.9404 45.2259 48.8672 45.2259 48.8672ZM43.9261 49.2424L44.4184 49.2247C44.4184 49.2247 44.1755 49.3156 44.0114 49.3215L43.9261 49.2424ZM42.6007 48.9614C42.6007 48.9614 42.6007 48.9614 42.9289 48.9496L43.0141 49.0287C43.0141 49.0287 42.9353 49.1137 42.8565 49.1987L42.5283 49.2104L42.1149 49.1431C42.1149 49.1431 42.3578 49.0523 42.686 49.0405L42.6007 48.9614ZM47.9309 55.0129C47.9309 55.0129 47.9309 55.0129 47.8521 55.0978L47.6028 55.0246C47.6028 55.0246 47.6028 55.0246 47.7604 54.8547L47.9309 55.0129ZM53.932 59.3153C53.932 59.3153 53.8339 58.9081 53.8999 58.495C53.8871 58.1669 53.8807 58.0028 54.0512 58.161L54.13 58.076C54.1428 58.4041 54.0768 58.8172 53.9384 59.4793L53.932 59.3153ZM57.0338 54.604L56.7056 54.6157L56.5351 54.4576C56.5351 54.4576 56.6139 54.3726 56.778 54.3667L56.9485 54.5249L57.1914 54.434L57.0338 54.604ZM59.9871 54.498L59.9082 54.5829C59.9082 54.5829 59.7378 54.4248 60.0659 54.413L60.3152 54.4862C60.3152 54.4862 60.2364 54.5711 60.0723 54.577L59.9871 54.498ZM55.4708 48.253C55.4708 48.253 55.4708 48.253 55.6349 48.2471C55.6349 48.2471 55.5561 48.3321 55.392 48.338L55.4708 48.253ZM62.527 54.3246L62.6058 54.2397C62.6911 54.3187 62.6911 54.3187 62.6911 54.3187L62.6122 54.4037L62.4418 54.2456L62.527 54.3246ZM54.9209 46.7942L54.8613 47.3713C54.8613 47.3713 54.8484 47.0432 54.842 46.8792L54.9209 46.7942ZM55.4406 45.3791C55.4406 45.3791 55.3617 45.4641 55.3681 45.6281L55.2893 45.7131C55.2893 45.7131 55.2893 45.7131 55.1977 45.47L55.2636 45.0569C55.2636 45.0569 55.3296 44.6438 55.4149 44.7229C55.4149 44.7229 55.4277 45.051 55.4341 45.2151L55.4406 45.3791ZM55.8704 41.6673L55.9025 42.4876C55.9025 42.4876 55.8301 42.7366 55.7448 42.6575C55.5743 42.4994 55.6403 42.0863 55.7063 41.6732L55.7851 41.5882C55.7851 41.5882 55.7851 41.5882 55.9556 41.7464L55.8704 41.6673ZM56.0766 38.5385C56.0766 38.5385 56.0234 39.2797 56.0427 39.7719C55.9574 39.6928 55.9446 39.3647 55.9318 39.0366L55.9189 38.7085C55.9189 38.7085 55.8933 38.0522 55.8868 37.8882C55.8868 37.8882 55.9657 37.8032 55.9592 37.6392C56.0509 37.8823 56.0637 38.2104 56.1618 38.6176L56.0766 38.5385ZM56.3038 33.8483L56.225 33.9332C56.225 33.9332 56.225 33.9332 56.1398 33.8542L56.2974 33.6842C56.2974 33.6842 56.2974 33.6842 56.3038 33.8483ZM50.7197 25.506L50.8774 25.336C50.8774 25.336 50.8774 25.336 50.9626 25.4151L50.8902 25.6641C50.8902 25.6641 50.8902 25.6641 50.805 25.585L50.7197 25.506ZM56.6017 30.9626C56.6017 30.9626 56.5229 31.0476 56.5293 31.2116L56.4505 31.2966C56.4505 31.2966 56.4505 31.2966 56.444 31.1325L56.6017 30.9626C56.6017 30.9626 56.4972 30.3914 56.5824 30.4704C56.5824 30.4704 56.7529 30.6286 56.6869 31.0417L56.6017 30.9626ZM52.3574 6.47239C52.3574 6.47239 52.3638 6.63644 52.3703 6.8005C52.3638 6.63644 52.351 6.30833 52.3446 6.14428C52.3446 6.14428 52.4363 6.38742 52.3574 6.47239Z" fill="url(#paint6_linear_1_208)"/>
<path d="M46.1468 91.3015L46.0551 91.0584C46.0551 91.0584 45.8975 91.2283 45.9827 91.3074L45.8507 92.1335C45.8507 92.1335 45.7847 92.5466 45.87 92.6257C45.9552 92.7048 46.0405 92.7839 45.8104 93.2028C45.7316 93.2878 45.7444 93.6159 45.7508 93.78C45.7508 93.78 45.7793 93.8063 45.8361 93.859C45.8361 93.859 46.1257 92.8629 46.1065 92.3708C46.1065 92.3708 46.0212 92.2917 46.0936 92.0427L46.1468 91.3015ZM45.936 92.2126C45.936 92.2126 45.936 92.2126 45.8507 92.1335L45.936 92.2126Z" fill="url(#paint7_linear_1_208)"/>
<path d="M43.3539 95.5088L43.0771 96.833L43.0047 97.0821C43.0047 97.0821 43.0047 97.0821 43.0836 96.9971C43.2219 96.335 43.3603 95.6729 43.5776 94.9258C43.6436 94.5127 43.6371 94.3487 43.4731 94.3546C43.3942 94.4395 43.2366 94.6095 43.3283 94.8526C43.3411 95.1807 43.3475 95.3448 43.2751 95.5938L43.3539 95.5088Z" fill="url(#paint8_linear_1_208)"/>
<path d="M44.1484 80.1198L44.2868 79.4577C44.3592 79.2087 44.4316 78.9596 44.34 78.7165C44.1887 79.0505 44.1227 79.4636 44.0632 80.0407L44.0696 80.2048L44.1484 80.1198Z" fill="url(#paint9_linear_1_208)"/>
<path d="M53.9934 56.6845C53.9934 56.6845 53.9274 57.0976 53.9338 57.2616C53.9338 57.2616 54.0915 57.0917 54.0851 56.9276C54.0786 56.7636 54.0722 56.5995 54.0658 56.4355L53.987 56.5205L53.9934 56.6845Z" fill="url(#paint10_linear_1_208)"/>
<path d="M48.9818 83.9712C48.9818 83.9712 48.9818 83.9712 48.8241 84.1412L48.7645 84.7183C48.7645 84.7183 48.9222 84.5484 48.9946 84.2993L48.9818 83.9712Z" fill="url(#paint11_linear_1_208)"/>
<path d="M48.5537 85.6294C48.5537 85.6294 48.5537 85.6294 48.6325 85.5445L48.8498 84.7974C48.8498 84.7974 48.6985 85.1314 48.6261 85.3804L48.5473 85.4654L48.5537 85.6294Z" fill="url(#paint12_linear_1_208)"/>
<path d="M45.1395 94.9519C45.1395 94.9519 45.2119 94.7029 45.1266 94.6238C45.1266 94.6238 45.1266 94.6238 45.0478 94.7088C45.0478 94.7088 44.969 94.7937 44.9754 94.9578L45.1395 94.9519Z" fill="url(#paint13_linear_1_208)"/>
<path d="M44.0293 81.274L43.9504 81.359L44.0421 81.6022L44.1209 81.5172L44.0293 81.274Z" fill="url(#paint14_linear_1_208)"/>
</g>
<defs>
<linearGradient id="paint0_linear_1_208" x1="-1.03027" y1="58.7213" x2="62.4765" y2="1.49413" gradientUnits="userSpaceOnUse">
<stop stop-color="#5CFF41"/>
<stop offset="1" stop-color="#F0FF41"/>
</linearGradient>
<linearGradient id="paint1_linear_1_208" x1="-1.03027" y1="58.7213" x2="62.4765" y2="1.49413" gradientUnits="userSpaceOnUse">
<stop stop-color="#5CFF41"/>
<stop offset="1" stop-color="#F0FF41"/>
</linearGradient>
<linearGradient id="paint2_linear_1_208" x1="-1.03027" y1="58.7213" x2="62.4765" y2="1.49413" gradientUnits="userSpaceOnUse">
<stop stop-color="#5CFF41"/>
<stop offset="1" stop-color="#F0FF41"/>
</linearGradient>
<linearGradient id="paint3_linear_1_208" x1="-1.03027" y1="58.7213" x2="62.4765" y2="1.49413" gradientUnits="userSpaceOnUse">
<stop stop-color="#5CFF41"/>
<stop offset="1" stop-color="#F0FF41"/>
</linearGradient>
<linearGradient id="paint4_linear_1_208" x1="-1.03027" y1="58.7213" x2="62.4765" y2="1.49413" gradientUnits="userSpaceOnUse">
<stop stop-color="#5CFF41"/>
<stop offset="1" stop-color="#F0FF41"/>
</linearGradient>
<linearGradient id="paint5_linear_1_208" x1="-1.03027" y1="58.7213" x2="62.4765" y2="1.49413" gradientUnits="userSpaceOnUse">
<stop stop-color="#5CFF41"/>
<stop offset="1" stop-color="#F0FF41"/>
</linearGradient>
<linearGradient id="paint6_linear_1_208" x1="-1.03027" y1="58.7213" x2="62.4765" y2="1.49413" gradientUnits="userSpaceOnUse">
<stop stop-color="#5CFF41"/>
<stop offset="1" stop-color="#F0FF41"/>
</linearGradient>
<linearGradient id="paint7_linear_1_208" x1="-1.03027" y1="58.7213" x2="62.4765" y2="1.49413" gradientUnits="userSpaceOnUse">
<stop stop-color="#5CFF41"/>
<stop offset="1" stop-color="#F0FF41"/>
</linearGradient>
<linearGradient id="paint8_linear_1_208" x1="-1.03027" y1="58.7213" x2="62.4765" y2="1.49413" gradientUnits="userSpaceOnUse">
<stop stop-color="#5CFF41"/>
<stop offset="1" stop-color="#F0FF41"/>
</linearGradient>
<linearGradient id="paint9_linear_1_208" x1="-1.03027" y1="58.7213" x2="62.4765" y2="1.49413" gradientUnits="userSpaceOnUse">
<stop stop-color="#5CFF41"/>
<stop offset="1" stop-color="#F0FF41"/>
</linearGradient>
<linearGradient id="paint10_linear_1_208" x1="-1.03027" y1="58.7213" x2="62.4765" y2="1.49413" gradientUnits="userSpaceOnUse">
<stop stop-color="#5CFF41"/>
<stop offset="1" stop-color="#F0FF41"/>
</linearGradient>
<linearGradient id="paint11_linear_1_208" x1="-1.03027" y1="58.7213" x2="62.4765" y2="1.49413" gradientUnits="userSpaceOnUse">
<stop stop-color="#5CFF41"/>
<stop offset="1" stop-color="#F0FF41"/>
</linearGradient>
<linearGradient id="paint12_linear_1_208" x1="-1.03027" y1="58.7213" x2="62.4765" y2="1.49413" gradientUnits="userSpaceOnUse">
<stop stop-color="#5CFF41"/>
<stop offset="1" stop-color="#F0FF41"/>
</linearGradient>
<linearGradient id="paint13_linear_1_208" x1="-1.03027" y1="58.7213" x2="62.4765" y2="1.49413" gradientUnits="userSpaceOnUse">
<stop stop-color="#5CFF41"/>
<stop offset="1" stop-color="#F0FF41"/>
</linearGradient>
<linearGradient id="paint14_linear_1_208" x1="-1.03027" y1="58.7213" x2="62.4765" y2="1.49413" gradientUnits="userSpaceOnUse">
<stop stop-color="#5CFF41"/>
<stop offset="1" stop-color="#F0FF41"/>
</linearGradient>
</defs>
</svg>
