<svg width="33" height="33" viewBox="0 0 33 33" fill="none" xmlns="http://www.w3.org/2000/svg">
<path d="M15.5239 16.5001L20.3914 11.6326C20.6475 11.375 20.7912 11.0265 20.7912 10.6632C20.7912 10.3 20.6475 9.95146 20.3914 9.69383C20.2635 9.56496 20.1115 9.46266 19.9439 9.39286C19.7764 9.32305 19.5966 9.28711 19.4151 9.28711C19.2336 9.28711 19.0539 9.32305 18.8863 9.39286C18.7188 9.46266 18.5667 9.56496 18.4389 9.69383L12.6089 15.5238C12.48 15.6517 12.3777 15.8037 12.3079 15.9713C12.2381 16.1388 12.2021 16.3186 12.2021 16.5001C12.2021 16.6816 12.2381 16.8613 12.3079 17.0289C12.3777 17.1964 12.48 17.3485 12.6089 17.4763L18.4389 23.3751C18.5673 23.5025 18.7197 23.6033 18.8872 23.6718C19.0548 23.7402 19.2342 23.7749 19.4151 23.7738C19.5961 23.7749 19.7755 23.7402 19.943 23.6718C20.1105 23.6033 20.2629 23.5025 20.3914 23.3751C20.6475 23.1175 20.7912 22.769 20.7912 22.4057C20.7912 22.0425 20.6475 21.694 20.3914 21.4363L15.5239 16.5001Z" fill="white"/>
</svg>
