<?xml version="1.0" encoding="utf-8"?>
<!-- Generator: Adobe Illustrator 21.1.0, SVG Export Plug-In . SVG Version: 6.00 Build 0)  -->
<svg version="1.1" id="Layer_1" xmlns="http://www.w3.org/2000/svg" xmlns:xlink="http://www.w3.org/1999/xlink" x="0px" y="0px"
	 viewBox="0 0 46 69" style="enable-background:new 0 0 46 69;" xml:space="preserve">
<style type="text/css">
	.st0{fill:#C19356;}
</style>
<g id="XMLID_1866_">
	<g id="XMLID_1218_">
		<path id="XMLID_1223_" class="st0" d="M44.6,31.8h-5.1V16.4c0-6.6-4-12.6-10.1-15.1c-0.7-0.3-1.5,0-1.8,0.7
			c-0.3,0.7,0,1.5,0.7,1.8c3.8,1.6,6.6,4.8,7.8,8.6h-4.5c-0.7,0-1.4,0.6-1.4,1.3s0.6,1.3,1.4,1.3h5c0,0.4,0.1,0.9,0.1,1.3v2.4h-5.1
			c-0.7,0-1.4,0.6-1.4,1.3s0.6,1.3,1.4,1.3h5.1v3.8h-5.1c-0.7,0-1.4,0.6-1.4,1.3S31,28,31.7,28h5.1v3.8H9.2V28h5.1
			c0.7,0,1.4-0.6,1.4-1.3s-0.6-1.3-1.4-1.3H9.2v-3.8h5.1c0.7,0,1.4-0.6,1.4-1.3s-0.6-1.3-1.4-1.3H9.2v-2.4c0-0.5,0-0.9,0.1-1.3h5
			c0.7,0,1.4-0.6,1.4-1.3s-0.6-1.3-1.4-1.3H9.8c1.2-3.8,4-7,7.7-8.6c0.7-0.3,1-1.1,0.7-1.8c-0.3-0.7-1.1-1-1.8-0.7
			c-6.1,2.6-10,8.5-10,15.1v15.4H1.4c-0.7,0-1.4,0.6-1.4,1.3v2.2c0,5.5,2,10.7,5.5,14.9c3.3,3.8,7.7,6.4,12.6,7.5v10
			c0,0.7,0.6,1.3,1.4,1.3h7c0.7,0,1.4-0.6,1.4-1.3v-10c4.9-1.1,9.3-3.7,12.6-7.5C44,46.1,46,40.8,46,35.3v-2.2
			C46,32.4,45.4,31.8,44.6,31.8L44.6,31.8z M36.8,34.5v0.8c0,7.6-6.2,13.7-13.8,13.7S9.2,42.9,9.2,35.3v-0.8H36.8z M2.7,35.3v-0.8
			h3.8v0.8c0,7.4,4.9,13.6,11.6,15.7v3.9C9.1,52.7,2.7,44.7,2.7,35.3z M20.8,66.3V51.6c0.7,0.1,1.4,0.1,2.2,0.1c0.7,0,1.5,0,2.2-0.1
			v14.7H20.8z M43.3,35.3c0,9.4-6.4,17.4-15.4,19.6V51c6.7-2.1,11.6-8.3,11.6-15.7v-0.8h3.8V35.3z"/>
		<path id="XMLID_1228_" class="st0" d="M23,2.7c0.4,0,0.7-0.1,1-0.4c0.3-0.3,0.4-0.6,0.4-1s-0.1-0.7-0.4-1C23.7,0.1,23.4,0,23,0
			c-0.4,0-0.7,0.1-1,0.4c-0.3,0.3-0.4,0.6-0.4,1s0.1,0.7,0.4,1C22.3,2.6,22.6,2.7,23,2.7z"/>
	</g>
</g>
</svg>
