<?xml version="1.0" encoding="utf-8"?>
<!-- Generator: Adobe Illustrator 21.1.0, SVG Export Plug-In . SVG Version: 6.00 Build 0)  -->
<svg version="1.1" id="Layer_1" xmlns="http://www.w3.org/2000/svg" xmlns:xlink="http://www.w3.org/1999/xlink" x="0px" y="0px"
	 viewBox="0 0 73 69" style="enable-background:new 0 0 73 69;" xml:space="preserve">
<style type="text/css">
	.st0{fill:#C19356;}
</style>
<path class="st0" d="M19.5,43.9c0.7-0.4,0.9-1.3,0.5-1.9c-0.4-0.7-1.3-0.9-1.9-0.5c-0.7,0.4-0.9,1.3-0.5,1.9
	C18,44.1,18.8,44.3,19.5,43.9z"/>
<path class="st0" d="M13.7,53.7l7.2,12.4c1.5,2.7,5,3.7,7.8,2.1c2.7-1.6,3.7-5.1,2.1-7.8l-4.3-7.4l3.7-2.1c0.7-0.4,0.9-1.3,0.5-1.9
	l-1.9-3.2c0.2,0,1.7-0.3,27.3-5.4c3.2-0.2,5.1-3.6,3.5-6.4l-4.7-8.2l3-4.6c0.3-0.5,0.3-1,0-1.5l-2.9-4.9c-0.3-0.5-0.8-0.7-1.3-0.7
	l-5.5,0.3L43,5.3c-0.8-1.3-2.1-2.1-3.7-2.1c0,0,0,0-0.1,0c-1.5,0-2.8,0.7-3.6,2L17.1,28.9L5,35.8c-4.8,2.7-6.4,8.8-3.7,13.6
	C3.9,53.8,9.2,55.5,13.7,53.7z M28.3,61.9c0.8,1.4,0.3,3.1-1,3.9c-1.4,0.8-3.1,0.3-3.9-1l-7.1-12.3l4.9-2.8
	C29.4,63.8,28.1,61.7,28.3,61.9z M25,50.6l-1.4-2.5l2.5-1.4l1.4,2.5L25,50.6z M53.1,17l2,3.4l-1.8,2.7l-3.4-5.9L53.1,17z M38.1,6.7
	c0.4-0.6,1-0.7,1.2-0.7c0.2,0,0.8,0.1,1.2,0.7l16.6,28.7c0.5,0.9-0.1,2.1-1.2,2.1c-0.2,0-0.3,0-0.8,0.1L37.6,7.4
	C38,6.9,38,6.8,38.1,6.7z M35.7,9.8l16.5,28.5l-24.9,4.9l-7.6-13.1L35.7,9.8z M3.8,48c-0.6-1.1-1-2.3-1-3.6c0-2.5,1.4-4.9,3.6-6.2
	l11.1-6.4l7.1,12.3l-11.1,6.4C10.1,52.6,5.8,51.4,3.8,48z"/>
<path class="st0" d="M15.1,44.8c-0.4-0.7-1.3-0.9-1.9-0.5l-2.5,1.4c-0.7,0.4-1.6,0.2-1.9-0.5c-0.4-0.7-1.3-0.9-1.9-0.5
	s-0.9,1.3-0.5,1.9c1.2,2,3.8,2.7,5.8,1.6l2.5-1.4C15.3,46.4,15.5,45.5,15.1,44.8z"/>
<path class="st0" d="M70.9,6.2l-7.9,4.4c-0.7,0.4-0.9,1.3-0.6,1.9c0.4,0.7,1.2,0.9,1.9,0.6l7.9-4.4c0.7-0.4,0.9-1.3,0.6-1.9
	C72.4,6.1,71.6,5.8,70.9,6.2z"/>
<path class="st0" d="M70,21l-5.5-1.5c-0.8-0.2-1.5,0.2-1.7,1c-0.2,0.8,0.2,1.5,1,1.7l5.5,1.5c0.8,0.2,1.5-0.3,1.7-1
	C71.3,22,70.8,21.2,70,21z"/>
<path class="st0" d="M56.2,1.1l-1.5,5.5c-0.2,0.8,0.2,1.5,1,1.7c0.8,0.2,1.5-0.2,1.7-1L59,1.8C59.2,1,58.7,0.3,58,0
	C57.2-0.2,56.4,0.3,56.2,1.1z"/>
</svg>
