<svg width="107" height="130" viewBox="0 0 107 130" fill="none" xmlns="http://www.w3.org/2000/svg">
<mask id="mask0_1538_125634" style="mask-type:luminance" maskUnits="userSpaceOnUse" x="0" y="0" width="107" height="130">
<path d="M0.350152 21.4396L76.1406 0.513672L106.069 108.908L30.2781 129.834L0.350152 21.4396Z" fill="white"/>
</mask>
<g mask="url(#mask0_1538_125634)">
<path d="M29.0291 114.881C29.0821 116.887 28.9324 114.866 29.0051 114.877C29.0133 114.844 29.0213 114.873 29.0291 114.881ZM35.6731 117.368C35.7582 119.387 35.5759 117.354 35.6488 117.365C35.657 117.331 35.6651 117.36 35.6731 117.368ZM36.3962 118.868C36.3987 118.92 36.3859 119.338 36.3859 119.338C36.3696 119.342 36.3298 118.628 36.3228 118.391C36.339 118.387 36.3769 118.376 36.3908 118.87L36.3962 118.868ZM41.7995 126.342C41.8109 126.784 41.7764 126.638 41.7466 126.636C41.7189 126.219 41.7218 126.166 41.7462 126.17C41.7462 126.17 41.7952 126.094 41.7995 126.342ZM44.7218 124.851C44.684 124.861 44.1938 123.846 44.229 123.847C44.2802 123.884 44.7329 124.806 44.7218 124.851ZM45.1658 125.34C44.9807 125.028 44.8652 124.842 44.6161 124.341C44.6648 124.327 44.8713 124.695 45.1658 125.34ZM28.5835 116.434C28.5589 116.047 28.5366 116.198 28.517 116.194C28.529 116.532 28.5428 117.13 28.5727 117.132C28.5966 117.135 28.6247 116.962 28.5894 116.433L28.5835 116.434ZM29.385 117.964C29.3656 117.576 29.3433 117.727 29.3186 117.724C29.3254 118.064 29.3385 118.661 29.3683 118.663C29.3931 118.667 29.4204 118.494 29.385 117.964ZM33.3264 118.939C33.3034 118.645 33.2832 118.339 33.2583 118.46C33.2648 118.8 33.2837 119.396 33.3079 119.4L33.321 118.94L33.3264 118.939ZM35.095 120.109C35.0521 120.017 35.0587 120.336 35.0905 121.043L35.1122 121.037C35.116 120.797 35.1095 120.457 35.0895 120.11L35.095 120.109ZM39.1672 120.228C39.1294 120.218 39.1682 121.161 39.1979 121.163C39.2049 120.85 39.2154 120.339 39.1672 120.228ZM39.9444 121.734C39.9779 122.087 39.9899 121.835 39.9511 121.463C39.9305 121.24 39.9071 121.05 39.8812 120.787C39.8958 121.136 39.92 121.73 39.9444 121.734C39.9881 122.209 39.92 121.73 39.9444 121.734ZM40.999 122.324L40.9207 122.314C40.943 122.733 40.9454 122.784 40.9698 122.788C40.986 122.783 41.021 122.825 40.999 122.324ZM43.7203 122.194C43.7203 122.194 43.5939 122.032 43.9936 122.741L44.0098 122.736L43.7149 122.196L43.7203 122.194ZM44.5384 121.336C44.7052 121.518 44.4302 121.324 45.0953 121.939C45.1626 122.014 45.1113 121.997 45.1327 122.032C45.1542 122.068 45.2349 122.17 45.4718 122.395C45.3507 122.272 45.0437 121.984 44.7692 121.708C44.4596 121.41 44.1823 121.144 44.1715 121.147C44.1498 121.153 45.264 122.296 44.9677 122.047C44.86 121.952 44.4751 121.55 44.3756 121.443C43.9396 121.004 43.9771 121.076 43.9879 121.094C43.9958 121.123 44.2163 121.394 44.8003 121.989C45.0426 122.233 45.1692 122.333 45.2878 122.425C45.3847 122.501 45.5033 122.593 45.7509 122.856C46.3401 123.492 46.1783 123.391 45.745 122.962C45.1582 122.378 45.3995 122.808 46.0156 123.499C45.8649 123.333 45.3404 122.742 45.3268 122.756C45.2997 122.763 45.2563 122.775 44.7534 122.199C45.017 122.499 45.251 122.777 45.3718 122.94C45.4766 123.088 45.5463 123.213 45.5892 123.305C45.6775 123.498 45.6689 123.594 45.6634 123.616C45.6416 123.664 45.5284 123.592 45.3345 123.396C45.0627 123.109 44.6487 122.601 44.1514 121.961C44.2159 122.047 44.5009 122.404 44.7992 122.788C44.9444 122.975 45.0976 123.172 45.2294 123.332C45.3745 123.52 45.4014 123.554 45.4524 123.633L45.3608 123.555C45.35 123.558 45.334 123.521 45.5597 123.832C45.8982 124.298 46.0323 124.53 45.5217 123.842C45.2342 123.455 44.9521 123.067 44.925 123.074C44.9088 123.079 44.8522 123.022 44.9354 123.154C44.9676 123.207 45.0536 123.329 45.1288 123.432C45.1852 123.51 45.2336 123.58 45.2282 123.581C45.2065 123.587 45.1875 123.603 45.1577 123.601C45.1388 123.595 45.0825 123.518 44.9534 123.346C44.8272 123.163 44.6579 122.93 44.486 122.687C44.1637 122.217 43.8441 121.756 43.8333 121.738C43.8333 121.738 44.1179 122.178 44.4294 122.651C44.5824 122.889 44.7435 123.135 44.8831 123.345C44.9986 123.531 45.0871 123.682 45.1354 123.752C45.3232 124.073 45.323 124.115 44.9339 123.486C44.6923 123.097 43.927 121.95 44.2329 122.446C44.3939 122.713 44.6059 123.059 44.8662 123.495C44.8958 123.538 45.1184 123.922 45.1184 123.922C45.1184 123.922 44.9386 123.63 44.705 123.27C44.4634 122.901 44.2029 122.506 44.1224 122.384C44.0042 122.209 44.286 122.66 44.557 123.114C44.7529 123.443 44.9461 123.763 44.9837 123.814C45.5015 124.698 45.2814 124.344 44.9379 123.775C44.5595 123.165 44.0334 122.315 44.0119 122.279C43.8294 121.998 45.0181 123.981 44.3657 122.949C44.9993 123.955 44.5792 123.574 44.5333 123.555C44.4686 123.511 44.2376 123.16 44.1167 122.997C44.0442 122.903 44.5534 123.861 44.3441 123.525C44.2878 123.426 44.1322 123.158 43.99 122.918C43.8452 122.667 43.7137 122.445 43.7137 122.445C43.7137 122.445 44.0757 123.101 44.3734 123.631C44.6549 124.144 44.8667 124.531 44.585 124.059C44.3381 123.651 44.3833 123.814 43.9492 122.981C43.574 122.255 44.013 123.191 43.6594 122.501C44.0826 123.338 44.3506 123.865 44.4117 124.086C44.4304 124.154 44.1945 123.701 43.9239 123.164C43.6426 122.609 43.3345 122 43.2353 121.81C42.978 121.321 43.2296 121.874 43.5829 122.647C43.9309 123.4 44.3807 124.375 44.5707 124.789C44.091 123.854 43.7161 123.087 43.3063 122.236C43.5738 122.867 43.7691 123.321 43.9453 123.79C43.6537 123.114 43.7174 123.366 43.6397 123.232C43.594 123.151 43.1603 122.214 43.0882 122.016C43.3742 122.756 43.9493 124.1 43.6224 123.465C43.3946 123.02 43.5066 123.341 43.8806 124.316C43.8481 124.325 43.6747 123.824 43.5463 123.527C43.3645 123.08 43.4601 123.447 43.3371 123.17C43.2113 122.884 43.0408 122.351 42.9018 121.995C42.7656 121.629 42.8854 122.041 42.728 121.577C42.9921 122.343 42.9788 122.295 42.9517 122.303L42.9029 122.316C43.0229 122.687 43.2227 123.326 43.2498 123.319C43.3326 123.535 43.2768 123.332 43.4395 123.816C43.3503 123.789 43.0065 122.733 42.8035 122.188C42.6032 121.653 43.0883 123.156 43.1017 123.184C43.115 123.232 42.952 122.81 42.952 122.81C42.7999 122.365 42.7999 122.365 42.9087 122.822C43.0546 123.435 43.0079 123.583 42.7056 122.319C42.7185 122.429 42.6468 122.169 42.6335 122.121C42.6148 122.054 42.9177 123.214 42.9627 123.398C43.0636 123.806 42.9915 123.608 42.9542 123.494C42.7487 122.918 42.3884 121.339 42.3504 121.349C42.4696 121.887 42.6047 122.481 42.6971 122.964C42.8501 123.771 42.6903 123.256 42.5424 122.509C42.6693 123.117 42.7985 123.817 42.7525 123.819C42.6892 123.484 42.32 121.493 42.4564 122.388C42.5245 122.846 42.6774 123.695 42.6233 123.689C42.5936 123.687 42.5012 123.204 42.4926 123.321C42.6108 124.045 42.4278 123.846 42.3958 123.752C42.337 123.602 42.2897 122.755 42.2502 122.527C42.161 121.951 42.331 123.749 42.3515 123.992C42.39 124.427 42.2986 124.307 42.277 124.292C42.2043 124.24 42.1402 124.071 42.0765 123.798C42.0553 123.721 41.916 122.858 41.9181 122.992C41.9224 123.219 42.1253 124.925 42.0775 124.731C42.035 124.577 41.8424 123.562 41.8122 123.073C41.8551 123.735 41.8458 123.976 41.8157 124.036C41.7885 124.085 41.759 124.021 41.7221 123.844C41.693 123.697 41.6597 123.302 41.6253 123.135C41.5329 122.653 41.5551 123.683 41.5237 124.034C41.5124 124.141 41.4997 123.947 41.49 123.722C41.4659 123.677 41.4495 123.723 41.4306 123.718C41.3954 123.717 41.3381 123.256 41.2976 123.236C41.2625 123.215 41.2483 123.374 41.2233 123.516C41.2121 123.581 41.1873 123.681 41.1616 123.398C41.1152 122.913 41.0298 123.238 40.9949 123.195C40.9787 123.179 40.8339 122.359 40.8363 122.431C40.8384 122.544 40.8843 123.133 40.8921 123.203L40.8187 122.726C40.8083 122.625 40.726 121.715 40.7205 121.737C40.7205 121.737 40.7251 121.923 40.7376 122.116C40.7449 122.311 40.7547 122.515 40.7544 122.578C40.7507 122.796 40.7105 122.714 40.6916 122.709C40.6469 122.442 40.5786 122.004 40.6204 122.895C40.6108 122.628 40.5588 122.186 40.5569 122.031C40.5701 122.67 40.5511 122.686 40.5105 122.687C40.4943 122.691 40.4615 122.762 40.4355 122.541C40.4199 122.401 40.4208 122.214 40.4019 122.209C40.3587 122.2 40.3619 122.655 40.3186 122.667C40.2969 122.673 40.1898 122.454 40.2164 123.12C40.1677 123.113 40.1719 122.22 40.1273 121.953C40.1063 121.814 40.1113 122.465 40.1186 122.639C40.1099 122.756 40.1039 122.882 40.0928 122.947C40.065 123.1 39.8766 121.763 39.9132 122.613C39.9035 122.388 39.8423 121.005 39.8233 121.021C39.8125 121.024 39.8262 121.559 39.823 121.674C39.8225 121.778 39.8086 121.854 39.8057 121.907C39.7831 122.1 39.7721 122.144 39.7403 121.987C39.7244 121.929 39.7111 121.881 39.7157 122.066C39.7166 122.45 39.7778 123.2 39.7744 123.356C39.7735 123.543 39.6827 122.729 39.6694 122.701C39.6183 122.622 39.5864 123.097 39.5449 123.285C39.5033 123.493 39.4581 121.049 39.4238 122.023C39.4051 122.525 39.4079 123.084 39.3469 122.842C39.3229 122.755 39.2272 121.269 39.2544 122.38C39.2889 123.666 39.1938 122.604 39.15 122.171C39.0753 121.373 39.0941 122.539 39.0475 122.666C39.0036 122.802 38.9915 121.365 38.969 120.967C38.9438 120.58 38.949 122.33 38.9191 121.799C38.9117 121.646 38.9238 121.373 38.898 121.132C38.8876 121.01 38.8525 121.009 38.8547 121.123C38.8415 121.624 38.906 122.28 38.8616 122.52C38.7979 122.838 38.6959 122.68 38.6032 122.26C38.5768 122.122 38.564 121.97 38.5398 121.945C38.4706 121.146 38.5586 123.111 38.5586 123.111C38.5154 123.103 38.4806 121.309 38.4538 122.394C38.4455 122.428 38.4244 122.33 38.4138 122.291C38.3872 122.195 38.1495 120.975 38.1777 121.88L38.0546 120.463C38.0781 121.202 38.0449 121.357 38.015 121.396C37.9797 121.437 38.0014 121.98 37.994 122.418C37.9923 122.77 37.8957 120.9 37.8605 120.9C37.8674 121.157 37.9286 122.518 37.9147 122.595C37.8922 122.767 37.8219 122.216 37.808 121.702C37.7936 121.333 37.8089 120.945 37.7768 120.892C37.7579 120.866 37.7521 120.95 37.7508 121.241C37.7484 121.739 37.7988 122.513 37.7966 122.97C37.7963 123.052 37.7513 122.256 37.7512 122.277C37.7283 121.983 37.6993 121.836 37.6804 121.81C37.6616 121.784 37.6683 122.082 37.6502 121.911C37.6243 121.67 37.6095 121.363 37.5839 121.059C37.5562 120.642 37.5849 121.992 37.5409 121.579C37.5202 121.377 37.5085 120.997 37.4873 120.899C37.4661 120.801 37.4525 120.836 37.4336 120.831C37.4767 120.84 37.5697 121.768 37.4964 121.84C37.4638 121.87 37.3971 121.67 37.3734 120.972C37.4159 122.287 37.194 121.716 37.14 121.71C37.0914 121.703 37.0889 121.082 37.0656 120.301C37.0154 119.485 37.0073 119.477 37.0115 120.295C37.0562 121.723 36.954 122.155 36.8973 122.14C36.8649 122.128 36.827 122.139 36.7914 121.651C36.7353 120.941 36.7093 120.72 36.6552 120.714C36.7093 120.72 36.767 121.668 36.6994 121.656C36.6454 121.65 36.594 121.654 36.5375 121.597C36.4755 121.541 36.4433 121.488 36.3753 120.439C36.4029 120.898 36.4336 121.263 36.4392 121.79C36.4432 122.079 36.4125 122.284 36.3928 121.875C36.3683 121.343 36.3398 121.641 36.313 121.586C36.2996 121.559 36.2804 121.046 36.257 120.855C36.2259 120.574 36.2337 121.193 36.217 121.302C36.2057 121.409 36.1839 121.435 36.1679 121.398C36.1438 121.353 36.1201 121.225 36.0921 120.849C36.0695 120.472 36.0553 120.631 36.0309 120.628C36.0551 121.243 36.0758 121.424 36.0229 121.169C35.9939 121.021 35.9596 120.834 35.9282 120.615C35.9334 120.675 35.8653 120.176 35.8907 120.542C35.8982 120.675 35.9167 120.763 35.9233 121.082C35.8855 121.072 35.8836 120.896 35.8421 120.535C35.8135 120.283 35.756 119.843 35.7644 120.359C35.7775 121.019 35.8093 121.176 35.7701 121.435C35.7506 121.576 35.7221 121.874 35.6978 121.87C35.6681 121.868 35.6677 121.381 35.6527 121.115C35.6275 120.729 35.5961 120.489 35.5867 120.771C35.5858 120.958 35.5542 121.35 35.5296 120.839C35.591 122.138 35.4202 121.097 35.3854 121.034C35.3532 120.981 35.3709 121.214 35.3541 121.343C35.3346 121.483 35.3022 121.471 35.2724 121.469C35.2507 121.475 35.0924 121.218 35.1242 121.925C35.081 121.916 35.068 121.805 35.0308 121.101C35.0106 120.775 34.9542 120.148 34.9352 120.142C34.9352 120.142 34.9708 121.2 34.9729 121.334C34.9683 121.719 34.9334 121.677 34.8885 121.43C34.8544 121.222 34.8149 120.994 34.7908 120.949C34.7908 120.949 34.7883 121.468 34.7879 121.551C34.7642 121.972 34.6763 120.007 34.6358 119.987C34.5817 119.981 34.6996 121.358 34.6716 121.552C34.6268 121.875 34.5032 120.562 34.4426 120.237C34.4266 120.179 34.2962 119.728 34.3713 120.422C34.4254 120.428 34.466 120.997 34.4187 121.27C34.4021 121.357 34.3375 121.292 34.3187 120.696C34.3141 120.532 34.3196 119.939 34.2963 119.728C34.291 119.688 34.2738 121.61 34.2388 120.998C34.219 120.61 34.2021 120.189 34.1877 119.8C34.1624 119.433 34.1335 119.265 34.1104 118.992C34.1491 119.955 34.1661 120.375 34.1119 120.39C34.0956 120.395 33.9897 119.927 34.0028 119.446L33.9487 119.441C33.9579 119.79 33.9856 120.208 33.9869 120.508C33.9851 120.881 33.9524 120.953 33.926 120.815C33.8572 120.502 33.7918 118.872 33.7957 120.343C33.8503 121.955 33.7433 119.984 33.7001 119.976C33.6758 119.972 33.6607 120.867 33.6323 120.575C33.6246 120.504 33.5637 119.651 33.5612 119.62C33.556 120.129 33.59 120.379 33.5588 120.688C33.5446 120.827 33.5086 121.013 33.4865 120.532C33.4642 120.113 33.4363 120.287 33.4066 120.285C33.3903 120.289 33.3569 119.345 33.3218 119.344L33.3471 120.28C33.3471 120.28 33.2929 120.295 33.2791 119.802C33.2459 119.386 33.2404 119.387 33.225 119.796C33.2007 119.792 33.1955 119.732 33.1866 119.319C33.1701 118.816 33.1429 118.844 33.124 118.839L33.1678 120.434C33.1519 119.806 33.0633 119.675 33.0389 119.692C33.0009 119.702 33.0123 120.166 32.9954 120.295C32.8928 120.831 32.7666 120.648 32.6504 120.628C32.6504 120.628 32.6509 121.094 32.632 121.089C32.6158 121.094 32.5916 121.049 32.5702 121.013C32.5031 120.897 32.4389 120.749 32.3747 120.601C32.2891 120.396 32.1976 120.297 32.1073 119.949C32.0674 119.805 32.0381 119.719 32.0102 119.323C31.9899 119.038 31.9652 119.118 31.9517 119.111C31.9679 119.107 31.9853 119.444 31.966 119.522C31.922 119.679 31.8684 119.569 31.8171 119.552C31.7982 119.547 31.7409 119.656 31.7184 119.258C31.7036 118.972 31.7054 118.008 31.7016 117.677C31.6638 117.667 31.6676 118.568 31.6732 119.095C31.6833 119.828 31.6387 119.519 31.5956 119.51C31.5469 119.503 31.4826 119.375 31.4382 119.616C31.4271 119.66 31.4231 119.941 31.415 119.933C31.3884 119.857 31.3683 119.51 31.3425 119.269C31.2882 118.755 31.2408 119.597 31.2024 119.712C31.1559 119.839 31.1344 119.233 31.1022 118.61C31.0399 117.477 31.0778 119.197 31.0819 119.465C31.0814 120.16 31.0065 118.833 31.0041 118.761C30.9525 118.236 30.9609 119.322 30.9354 119.568C30.9015 119.867 30.8564 119.683 30.8192 119.548C30.7953 119.461 30.6571 118.94 30.6693 119.786C30.6416 119.939 30.6048 119.701 30.5757 119.574C30.4643 119.107 30.3531 119.169 30.2416 118.744C30.2017 118.599 30.1516 118.313 30.1364 117.539C30.1425 117.963 30.1611 118.6 30.1435 118.874C30.1288 119.096 30.1093 118.708 30.0897 118.786C30.0817 118.84 30.0704 118.905 30.0567 118.981C30.012 119.284 29.9582 119.195 29.9044 119.189C29.8711 118.773 29.7735 118.821 29.7712 118.77C29.7369 117.909 29.7309 116.936 29.6838 116.027C29.6714 115.792 29.6234 116.779 29.6742 117.553C29.7322 118.376 29.7064 118.684 29.6577 118.677C29.6415 118.681 29.601 118.724 29.5806 118.398C29.5632 118.123 29.5664 117.925 29.5387 118.057C29.5193 118.155 29.4576 119.302 29.477 119.774C29.4474 119.139 29.4259 119.124 29.3856 119.104C29.3445 119.085 29.3072 119.033 29.2656 118.713C29.2553 118.633 29.2063 118.097 29.2057 118.201C29.2024 118.378 29.2019 118.906 29.1886 118.941C29.1638 119.021 29.1338 118.594 29.1013 118.582L29.009 118.566C28.9898 119.276 28.9463 118.106 28.9318 117.696C28.9124 117.224 28.8911 117.147 28.8672 117.144C28.8926 118.121 28.9128 118.427 28.8555 118.494C28.7576 118.604 28.6578 118.518 28.5551 118.484C28.5499 118.485 28.4419 118.515 28.443 118.121C28.4469 117.436 28.3874 117.452 28.37 117.582C28.3534 117.71 28.3808 118.128 28.3691 118.318C28.3629 118.464 28.3415 118.45 28.3285 118.443C28.3013 118.45 28.2378 118.665 28.1998 118.209C28.1665 117.793 28.1542 118.087 28.1121 117.891C28.0931 117.782 28.0453 117.122 28.0342 117.125C28.0232 117.128 28.0373 117.58 28.0317 117.706C28.0191 118.062 27.986 118.154 27.9541 118.121C27.8999 118.074 27.8379 118.019 27.7822 117.837C27.7556 117.741 27.7302 117.437 27.7075 116.956C27.602 115.918 27.7184 114.124 27.7914 116.498C27.764 115.894 27.8986 116.043 27.8965 115.339C27.8938 114.842 27.9161 115.261 27.9477 115.439C27.9762 115.628 28.0042 115.537 28.0308 115.633C28.1687 116.093 28.2962 116.047 28.4134 115.922C28.4894 115.838 28.6292 114.826 28.6923 116.891C28.695 117.005 28.7556 118.408 28.7553 117.962C28.7572 117.568 28.754 117.092 28.7399 116.64C28.7353 116.434 28.6866 114.105 28.6895 114.052C28.7001 114.174 28.7021 114.37 28.7256 114.499C28.7491 114.627 28.7708 114.662 28.7896 114.667C28.8195 114.669 28.8682 114.677 28.8495 114.019C28.8818 115.253 28.9236 114.371 28.9622 115.356C28.984 115.899 29.0377 117.045 29.0482 116.088C29.053 115.641 29.0335 115.149 29.0515 114.771C29.0635 114.519 29.0931 114.542 29.1153 115.002C29.1376 115.483 29.1358 115.308 29.1734 115.318C29.1895 115.313 29.172 115.018 29.1731 114.789C29.1772 113.918 29.3041 115.686 29.3322 114.88C29.3701 114.891 29.4424 116.187 29.4435 115.938C29.4469 115.802 29.4399 114.975 29.4584 115.084C29.4818 115.274 29.4845 115.854 29.5103 116.116C29.5076 116.107 29.5145 114.654 29.5119 114.623C29.5463 115.36 29.5953 115.854 29.6353 115.408C29.6526 115.196 29.6805 115.023 29.7072 115.077C29.7125 115.097 29.7569 115.426 29.7272 115.424L29.7893 115.438C29.8325 115.447 29.8 115.477 29.8279 115.852C29.851 116.126 29.9105 115.56 29.9297 115.503C29.9544 115.424 30.004 115.223 30.0347 115.588C30.0603 115.892 30.0613 116.845 30.0978 115.964C30.1035 115.351 30.1593 114.963 30.1519 115.97C30.1694 116.857 30.2062 117.075 30.2358 116.527C30.2566 116.138 30.2436 115.458 30.3037 115.887C30.3116 115.936 30.3985 117.011 30.394 116.826C30.392 116.671 30.338 116.074 30.3528 115.811C30.3647 115.58 30.4342 116.338 30.4496 116.499C30.4794 116.502 30.5196 116.563 30.5374 116.226C30.5552 115.911 30.5721 115.761 30.6047 115.731C30.6372 115.701 30.6775 115.763 30.7144 115.981C30.7512 116.198 30.7753 116.834 30.7886 116.292C30.8023 115.687 30.8436 115.541 30.886 115.716C30.9206 115.841 30.9153 116.392 30.9242 116.783C30.9063 115.43 31.018 115.835 31.0584 116.445C31.0838 116.791 31.1162 116.803 31.1237 116.344C31.1279 116.043 31.0963 115.865 31.1084 115.592C31.1177 115.33 31.1454 115.768 31.161 115.888C31.1948 116.18 31.2302 116.139 31.2537 115.739C31.2413 114.934 31.3062 116.076 31.322 116.155C31.3644 116.351 31.4094 115.986 31.4586 116.438C31.5 116.842 31.5464 116.756 31.5767 116.634C31.6152 116.499 31.682 116.087 31.7253 116.665C31.7432 116.878 31.7519 116.171 31.7634 116.043C31.7861 115.83 31.8027 116.312 31.827 116.316C31.8568 116.318 31.8921 116.277 31.924 116.393C31.9586 116.518 31.9589 117.026 31.9852 116.614C32.014 116.233 32.0902 115.559 32.1184 117.034C32.0931 115.527 32.3041 116.081 32.3581 116.677C32.4043 117.183 32.4019 114.851 32.4738 116.231C32.5033 116.844 32.5321 117.624 32.5516 116.914C32.5625 116.911 32.6486 117.012 32.6454 117.106C32.6457 117.044 32.6149 116.7 32.6292 116.519C32.6434 116.381 32.6674 116.468 32.6863 116.473C32.7296 116.461 32.7728 115.899 32.8155 116.033C32.7839 116.404 32.7912 117.718 32.8451 118.357C32.8883 118.365 32.8387 117.405 32.8294 117.096C32.8155 116.582 32.8839 116.998 32.8978 116.922C32.9117 116.846 32.9237 116.024 32.9415 116.257C32.9618 116.542 32.9786 117.003 32.9982 116.843C33.0346 116.594 33.0478 116.093 33.0911 116.081C33.0751 116.614 33.2621 116.511 33.2858 116.66C33.3016 116.759 33.2949 117.579 33.3259 117.902C33.3671 118.326 33.3382 117.018 33.3314 116.74C33.338 117.039 33.3705 117.621 33.38 117.318C33.3921 117.045 33.3624 116.473 33.3794 116.302C33.3907 116.195 33.4414 117.498 33.4744 117.364C33.4827 117.331 33.4988 116.207 33.5154 116.71C33.5249 116.998 33.5075 117.251 33.5441 117.49C33.5546 117.57 33.5681 117.576 33.5713 117.482C33.5862 117.178 33.5284 116.251 33.5557 116.181C33.5723 116.135 33.6048 116.105 33.6286 116.233C33.6419 116.281 33.6618 116.649 33.6618 116.649C33.6996 116.659 33.7377 116.607 33.7831 116.729C33.8364 116.881 33.856 117.31 33.8195 117.6C33.8573 117.611 33.895 117.662 33.9028 117.142C33.9128 116.735 33.9213 116.09 33.9679 116.533C34.0069 116.865 34.0112 117.091 34.0487 117.164C34.0596 117.161 34.0815 117.093 34.0974 117.171C34.1022 117.294 34.1093 117.51 34.1171 117.58C34.1617 117.869 34.1955 117.59 34.2405 117.795C34.2828 117.991 34.3267 118.445 34.3294 117.864C34.3284 117.501 34.4066 117.552 34.4373 117.917C34.4733 118.322 34.4259 118.614 34.4205 118.616C34.4422 118.61 34.4744 118.663 34.4836 118.422C34.4954 118.212 34.489 117.851 34.5058 117.743C34.5364 117.558 34.5819 118.229 34.6051 117.891C34.6139 117.754 34.5931 116.433 34.6482 117.351C34.6808 117.891 34.7304 118.831 34.7468 118.236C34.7566 117.87 34.734 117.514 34.7592 117.331C34.7676 117.276 34.839 117.049 34.8589 117.417C34.8738 117.682 34.901 118.794 34.945 118.658C34.9751 118.556 34.9109 117.859 34.9071 117.507C34.9151 117.536 34.9921 118.406 34.9999 118.477C35.0494 118.888 35.0425 118.631 35.036 118.291C35.0249 117.765 35.0943 117.383 35.1338 117.611C35.1602 117.748 35.1824 118.209 35.2019 118.639C35.2091 118.854 35.2189 119.059 35.2263 119.212C35.2336 119.366 35.2386 119.468 35.2466 119.476C35.2735 119.51 35.249 118.999 35.2527 118.78C35.2542 118.469 35.2792 118.327 35.2984 118.27C35.3285 118.189 35.347 117.137 35.3837 117.376C35.4048 117.494 35.4629 118.359 35.467 118.058C35.4629 117.789 35.456 117.532 35.4805 117.494C35.5323 117.407 35.6201 118.844 35.6819 118.941C35.7382 119.04 35.6969 117.476 35.7402 117.485C35.751 117.482 35.7585 118.184 35.7585 118.184C35.7936 118.185 35.7648 117.426 35.7969 117.5C35.8398 117.592 35.8764 117.851 35.9196 117.86C35.9034 117.865 35.9492 117.904 35.9724 118.136C36.0061 118.448 36.0148 118.31 36.0263 118.183C36.0545 117.926 36.111 118.004 36.161 118.27C36.1795 118.379 36.2666 119.391 36.2525 118.96C36.2241 118.097 36.1905 117.194 36.281 118.071C36.3406 118.625 36.4291 119.917 36.4488 119.186C36.4615 118.788 36.4618 118.156 36.4923 117.992C36.5201 117.839 36.5396 118.29 36.5693 118.292C36.591 118.286 36.5862 117.593 36.6185 117.605C36.6185 117.605 36.6461 118.064 36.6538 118.155C36.7208 118.862 36.7013 117.271 36.7364 117.272C36.7202 117.276 36.7806 119.374 36.8144 118.504C36.833 118.022 36.8223 117.984 36.8763 117.99C36.8934 117.819 36.8912 117.706 36.8774 117.212C36.9226 118.495 37.0165 117.505 37.0543 118.676C37.0333 117.967 37.1299 118.127 37.1567 118.182C37.1835 118.237 37.2074 118.323 37.2336 118.502C37.2283 118.483 37.2787 119.278 37.279 119.195C37.278 118.853 37.2443 117.971 37.2272 117.572C37.2607 117.925 37.2897 118.093 37.3114 118.636C37.3331 119.201 37.3621 119.918 37.4054 119.927C37.3933 119.63 37.3473 118.492 37.3561 118.334C37.3709 118.071 37.4163 118.763 37.4287 118.998C37.4449 118.994 37.4666 118.988 37.481 118.807C37.487 118.681 37.492 118.193 37.5083 118.188C37.5326 118.192 37.5733 119.31 37.59 119.202C37.5901 119.181 37.6 118.795 37.6031 118.722C37.6144 118.615 37.6281 118.58 37.6417 118.566C37.6797 118.535 37.7188 118.845 37.7563 118.918C37.7885 118.971 37.7831 118.403 37.8144 118.643C37.8379 118.812 37.8532 119.015 37.8624 119.345C37.834 118.503 37.8196 118.113 37.8763 118.128C37.8788 118.179 37.8854 118.499 37.8904 118.601C37.9201 118.603 38.0243 118.284 38.0573 118.762C38.0597 118.813 38.0657 119.848 38.0905 119.748C38.1125 119.659 38.1205 119.118 38.1428 118.967C38.1933 118.58 38.2565 118.365 38.3234 118.523C38.3581 118.607 38.3964 119.104 38.4314 119.146C38.4851 119.214 38.4944 119.543 38.5368 120.288C38.5219 120.023 38.5537 118.428 38.5903 119.258C38.6123 119.759 38.5512 120.678 38.5784 121.22C38.5784 121.22 38.6179 120.307 38.6209 120.234C38.6312 119.764 38.6505 119.117 38.6241 118.409C38.6618 119.58 38.7131 119.048 38.7696 119.675C38.8183 119.682 38.8107 119.549 38.7869 118.872C38.7627 118.277 38.8102 118.513 38.7987 118.091L38.8674 120.155C38.9106 120.164 38.8751 118.516 38.8776 118.567C38.9139 118.888 38.9979 120.016 39.0116 119.411C39.0218 118.962 39.1044 118.059 39.1617 119.11C39.1865 119.58 39.2351 119.038 39.2813 119.544C39.3581 120.476 39.3062 118.873 39.3257 118.754C39.3506 118.612 39.3933 119.316 39.4205 119.287C39.4558 119.247 39.4354 118.983 39.4185 118.563C39.3938 118.072 39.4671 118.591 39.4695 118.642C39.5031 118.975 39.4961 118.738 39.5073 118.652C39.5383 118.405 39.5983 121.156 39.5923 119.551C39.5882 118.692 39.6395 118.73 39.6985 119.408C39.7625 120.167 39.7966 120.376 39.778 119.168C39.7624 118.457 39.9123 119.929 39.8998 119.166C39.905 119.776 40.1031 121.338 40.0021 119.832C39.944 118.397 40.0466 119.571 40.0893 119.683C40.1134 119.749 40.1509 119.801 40.1574 119.571C40.1662 119.434 40.1456 119.212 40.162 119.186C40.1865 119.149 40.2799 119.423 40.3066 120.048C40.2849 119.505 40.2549 118.974 40.2876 118.924C40.3094 118.897 40.3864 119.767 40.3621 119.193C40.3619 119.235 40.3964 119.381 40.4062 119.585C40.421 119.892 40.4248 119.653 40.4359 119.588C40.4593 119.229 40.4887 118.723 40.5602 120.185C40.5507 119.919 40.4939 118.784 40.5482 119.297C40.5974 119.75 40.5968 119.875 40.632 119.875C40.6104 119.881 40.5637 118.868 40.591 118.819C40.6128 118.772 40.6394 118.868 40.6739 119.014C40.7373 119.328 40.7526 119.531 40.7946 120.359C40.8433 120.366 40.8199 120.176 40.8063 119.599C40.809 119.609 40.87 120.442 40.8852 120.666C40.843 119.859 40.8215 119.253 40.7955 118.483C40.842 118.926 40.878 119.331 40.927 119.825C41.0041 120.674 41.0329 120.314 41.0663 120.098C41.0804 119.98 41.142 119.548 41.1924 120.322C41.2299 120.964 41.27 121.637 41.3102 122.29C41.3453 122.29 41.2672 121.099 41.2448 120.68C41.2774 121.221 41.2788 120.36 41.2483 119.933C41.2283 119.586 41.1906 118.985 41.2149 118.989L41.3403 121.069C41.2727 119.937 41.4079 119.941 41.443 119.942C41.4213 119.948 41.4564 120.539 41.4764 120.886C41.5255 120.81 41.4286 118.982 41.5376 119.947C41.5558 120.118 41.6619 121.115 41.627 120.482C41.6121 120.216 41.5061 119.178 41.5462 119.281C41.5943 119.392 41.643 119.969 41.6792 119.762C41.7069 119.61 41.7086 119.257 41.7489 119.298C41.7947 119.337 41.9058 120.436 41.8464 120.431C41.868 120.425 41.9109 120.497 41.9115 120.372C41.9148 120.257 41.8975 119.899 41.877 119.656C41.8697 119.503 41.877 119.656 41.8955 119.765C41.924 120.016 41.9603 120.359 42.0145 120.893C41.9703 120.522 41.9853 120.787 42.0295 121.158C42.0633 121.449 42.1134 121.715 42.1113 121.581C42.1071 121.334 41.9265 120.067 41.9507 120.092C41.9507 120.092 42.054 120.55 42.1349 121.181C42.192 121.683 42.1915 121.787 42.289 122.33C42.3523 122.665 42.4134 122.907 42.3747 122.514C42.3071 121.931 41.986 120.051 41.9811 119.949C41.9603 119.768 41.9841 119.896 42.0317 120.132C42.0951 120.446 42.1765 120.952 42.2399 121.266C42.3777 121.87 41.9794 119.752 42.0667 120.174C42.1512 120.586 42.3047 121.289 42.4609 122.024C42.3552 121.493 42.215 120.817 42.1199 120.346C42.0223 119.823 41.8609 119.07 41.9379 119.391C41.9671 119.496 42.0967 120.114 42.1736 120.414C42.2401 120.654 42.235 120.594 42.2166 120.485C42.1928 120.356 42.055 119.773 42.0657 119.811C42.0816 119.869 42.3794 120.948 42.2946 120.577C42.2468 120.383 41.9064 119.171 42.0555 119.669C42.2045 120.167 42.5345 121.299 42.5617 121.291L42.3673 120.65C42.2875 120.361 42.2368 120.22 42.2261 120.202C42.1487 119.965 42.3729 120.607 42.3917 120.633C42.4184 120.688 42.2479 120.155 42.3094 120.314C42.3762 120.492 42.4722 120.756 42.4831 120.753C42.4939 120.75 42.4967 120.739 42.4007 120.455C42.2539 120.029 42.6679 121.127 42.6869 121.111C42.6978 121.108 42.5882 120.817 42.4761 120.517C42.3666 120.226 42.2544 119.925 42.2544 119.925C42.2544 119.925 42.6235 120.797 42.7199 120.999C42.8672 121.3 42.1103 119.529 41.9364 119.111C42.1425 119.583 42.3244 119.989 42.5759 120.562C43.1754 121.889 42.6511 120.686 42.2576 119.81C42.8383 121.111 42.4507 120.171 42.9138 121.173C42.7131 120.721 42.4776 120.205 42.432 120.104C42.7588 120.781 42.6812 120.605 42.7054 120.63C42.7404 120.672 43.1852 121.544 43.2014 121.539C43.1988 121.53 42.9014 120.938 42.663 120.455C42.4192 119.973 42.2342 119.62 42.4969 120.107C42.6953 120.466 43.7753 122.562 43.4271 121.85C43.2102 121.402 42.993 121.017 43.3524 121.643C43.339 121.615 43.8458 122.522 43.795 122.422C43.5026 121.891 42.8296 120.678 42.6553 120.364C42.6044 120.264 42.894 120.785 42.9101 120.801C43.1194 121.158 43.0819 121.085 43.0873 121.084C43.0873 121.084 43.0228 120.977 42.9398 120.824C42.8566 120.671 42.7467 120.483 42.6609 120.321C42.9586 120.85 42.7281 120.416 42.7925 120.523C42.8783 120.665 43.0151 120.907 43.0633 120.997C43.2324 121.272 43.2568 121.275 42.8919 120.651C42.3741 119.767 42.3206 119.658 42.825 120.493C42.9218 120.632 42.6266 120.133 43.1741 121.018C42.981 120.678 42.5248 119.933 42.3665 119.676C42.2376 119.463 42.2994 119.56 42.8741 120.417C41.698 118.648 41.902 118.965 42.3693 119.645C42.8312 120.325 43.5646 121.377 43.3551 121.062C42.998 120.528 42.1115 119.26 42.6784 120.046C42.8262 120.244 44.1938 122.136 44.2718 122.249C43.772 121.537 43.1298 120.668 43.3181 120.885C43.4284 121.01 44.1134 121.972 44.1351 121.966C43.7643 121.467 42.8587 120.235 42.5792 119.856C42.3643 119.563 42.4799 119.707 42.9206 120.29C43.1034 120.53 43.219 120.674 43.2889 120.759C43.3535 120.824 43.3724 120.829 43.3805 120.837C43.4102 120.86 43.526 120.942 43.0018 120.289C42.3189 119.441 41.8913 118.927 42.3378 119.446C42.5529 119.697 43.0451 120.277 43.1232 120.348C43.1932 120.412 42.9835 120.159 42.8356 119.982C42.806 119.939 42.3488 119.401 42.6259 119.708C43.6913 120.886 42.9517 120.023 42.8979 119.955C42.8522 119.895 42.8308 119.859 42.9008 119.923C42.9762 119.985 43.0165 120.025 43.2049 120.222C43.431 120.45 43.1297 120.119 43.1297 120.119C43.1297 120.119 43.146 120.114 43.2295 120.184C43.321 120.263 43.857 120.726 43.2835 120.19C42.6239 119.574 42.5405 119.483 42.6994 119.616C42.8638 119.746 43.4507 120.289 43.432 120.242C43.2247 120.061 43.0254 119.888 42.8772 119.753C42.7292 119.618 42.6295 119.531 42.6268 119.522C42.6268 119.522 42.7319 119.607 42.8935 119.749C43.0577 119.9 43.2813 120.097 43.5102 120.293C43.968 120.706 44.458 121.172 44.536 121.264L44.5384 121.336ZM42.4485 118.918C42.8431 118.954 42.7647 118.965 42.1619 118.914L42.4539 118.916L42.4485 118.918ZM44.2401 118.081C44.3264 118.12 44.3043 118.208 44.2634 118.292C44.2116 118.379 44.1681 118.412 43.8513 118.51C43.483 118.611 44.0186 118.588 43.3069 118.691C43.9726 118.59 44.0746 118.749 44.2123 118.804C44.2662 118.83 44.3445 118.881 44.4904 118.903C44.7879 118.904 45.0986 118.953 45.12 119.009L44.5252 118.987C44.5546 119.051 45.0277 119.097 44.9245 119.167C44.835 119.223 44.632 119.269 44.286 119.24C44.1319 119.23 44.0319 119.206 44.0615 119.229C44.0939 119.262 44.1558 119.296 44.2855 119.343C44.5365 119.43 44.9118 119.585 44.6413 119.577C44.3764 119.567 44.2167 119.58 44.3786 119.681C44.4541 119.722 45.1938 119.994 45.0181 119.97C44.6263 119.902 43.9113 119.55 43.9568 119.652C43.9728 119.689 44.3049 119.815 44.6343 119.931C44.9556 120.039 45.2795 120.157 45.3062 120.233C45.3356 120.318 44.8014 120.051 44.6959 120.049C44.5121 120.037 44.7385 120.203 44.8407 120.32C45.0667 120.548 45.7024 121.098 45.5479 121.171C45.4937 121.186 45.1944 121.01 44.9705 120.895C44.7061 120.761 44.7411 120.783 44.8921 120.886C45.0269 120.973 45.2453 121.11 45.3342 121.179C45.5929 121.377 45.3147 121.298 45.1044 121.169C44.735 120.929 44.5948 120.844 44.6702 120.906C44.7349 120.95 44.972 121.133 45.2685 121.363C45.3951 121.462 43.9179 120.44 43.891 120.406C43.926 120.448 44.7021 121.021 44.8665 121.152C45.2679 121.466 44.9874 121.316 44.8553 121.238C44.7904 121.215 44.2887 120.939 45.1213 121.59C45.9702 122.236 45.0588 121.659 44.9644 121.591C44.9049 121.608 46.6421 123.108 46.0277 122.656C45.8554 122.496 45.6614 122.321 45.4649 122.137C45.2441 121.929 45.0153 121.712 44.7972 121.513C44.3206 121.075 43.8762 120.669 43.6123 120.431C43.5558 120.374 42.6293 119.573 42.9794 119.87C43.2705 120.1 43.3109 120.12 43.1197 119.956C42.8746 119.743 42.4247 119.38 42.7589 119.62C43.0419 119.822 43.3761 120.061 42.8964 119.696C42.8857 119.678 43.9292 120.333 42.6918 119.504C43.6434 120.143 42.9374 119.612 43.0534 119.673C43.1802 119.731 43.5361 119.965 43.8167 120.115C44.0541 120.236 43.353 119.808 43.1372 119.681C42.0395 119.041 42.9215 119.533 42.9811 119.538C43.0027 119.532 42.6927 119.317 42.5685 119.268C42.7143 119.332 42.5711 119.278 42.8977 119.426C43.0704 119.503 43.0327 119.472 43.0247 119.464C43.0194 119.444 43.0464 119.437 42.8009 119.328C42.5607 119.219 42.288 119.118 42.4878 119.187C42.6308 119.241 43.0764 119.397 43.1844 119.43C43.3707 119.472 42.8174 119.241 42.6636 119.19C42.48 119.116 42.3963 119.088 42.399 119.077C42.4099 119.074 42.5126 119.087 42.7045 119.106C42.7964 119.122 43.2937 119.192 43.2829 119.175C43.2775 119.176 42.7154 119.082 42.5992 119.063C42.3885 119.017 42.4696 119.016 42.5211 119.012C42.6076 119.009 42.9184 119.058 42.9591 119.036C42.9916 119.027 42.9322 119.002 42.8377 118.976C42.5648 118.917 42.0319 118.929 42.408 118.898C42.7218 118.873 42.6759 118.855 42.6626 118.828C42.6626 118.828 43.2254 118.755 43.2039 118.72C43.0118 118.742 42.3515 118.841 42.5221 118.804C42.6358 118.773 42.9714 118.701 43.1664 118.647C42.6736 118.783 42.8824 118.653 42.8229 118.649C42.7121 118.648 42.3112 118.78 42.3005 118.762C42.3005 118.762 42.6255 118.651 42.9587 118.549C43.2918 118.447 43.6356 118.362 43.6491 118.389L43.6358 118.341C43.6358 118.341 44.1077 118.045 44.2291 118.105L44.2401 118.081ZM43.6214 114.531C43.984 114.473 43.9161 114.522 43.3879 114.699L43.3773 114.661L43.6214 114.531ZM41.7029 109.589C42.3442 109.526 41.4723 109.767 41.4482 109.701L41.7029 109.589ZM43.143 117.887C43.1724 117.951 43.6766 117.708 43.6579 117.662C43.4738 117.712 43.1704 117.796 43.143 117.887ZM43.3193 116.055C43.0269 116.136 42.8316 116.252 43.0833 116.214C43.427 116.171 44.2421 115.935 43.8689 115.935C43.7228 115.954 43.517 115.99 43.3193 116.055ZM42.3787 113.662L43.1724 113.391C42.9342 113.436 42.352 113.586 42.3787 113.662ZM41.8843 112.399C41.9057 112.455 42.434 112.279 42.4125 112.222C42.2285 112.252 41.9118 112.309 41.8843 112.399ZM41.4105 111.95C41.4345 112.015 41.9601 111.829 41.9414 111.782C41.9039 111.689 41.3704 111.847 41.4105 111.95ZM38.7095 103.223C38.7095 103.223 38.8421 103.217 39.0475 103.243C39.2556 103.279 39.5312 103.327 39.8122 103.374C40.377 103.477 40.9605 103.606 41.0332 103.659C41.0845 103.697 41.2136 103.827 41.0083 103.801C40.5812 103.753 40.1651 103.681 40.5374 103.848C40.7073 103.956 40.8664 104.068 40.793 104.14C40.7468 104.184 40.1061 104.143 40.2032 104.199C40.3623 104.29 41.2245 104.394 41.3619 104.491C41.4402 104.542 40.8295 104.441 40.6753 104.431C40.6886 104.48 41.459 104.567 41.2317 104.589C41.1694 104.595 39.6772 104.469 40.1824 104.588C40.412 104.639 40.7717 104.633 40.9796 104.71C41.0633 104.739 41.082 104.785 41.0224 104.802C40.8734 104.853 40.1791 104.724 40.2136 104.849C40.5435 104.862 40.8435 104.893 41.0921 104.949C41.2648 105.004 41.5214 105.089 40.932 105.065C41.6998 105.102 41.5454 105.155 41.1558 105.2C41.7101 105.224 41.2302 105.47 41.2382 105.499C41.2036 105.374 40.4627 105.371 40.7324 105.504C40.9133 105.589 40.9966 105.68 41.026 105.765C40.3931 105.774 40.2238 105.541 40.0863 105.465C40.1049 105.532 40.1019 105.605 40.1529 105.685C40.1878 105.727 40.274 105.807 40.6039 105.819C40.9175 105.836 41.0908 105.788 41.3124 105.831C41.7608 105.935 40.9925 105.981 40.9812 106.088C40.9727 106.184 41.3132 106.235 41.7538 106.269C41.3859 106.287 40.9284 106.382 40.7794 106.434C40.5519 106.518 41.1607 106.443 41.1687 106.472C41.182 106.52 40.7275 106.542 40.5436 106.551C40.7383 106.539 41.3364 106.467 41.458 106.485C41.6526 106.514 41.5657 106.6 41.5384 106.649C41.5057 106.7 41.4538 106.787 41.1561 106.848C40.9612 106.881 40.8448 106.903 40.9069 106.938C40.9419 106.959 41.0527 106.98 41.2286 106.963C41.4585 106.951 41.3881 106.971 41.3961 107C41.4093 107.048 41.1277 107.125 41.0571 107.186C40.9919 107.246 40.9836 107.3 41.0509 107.354C41.0941 107.384 41.443 107.38 41.451 107.409C41.4536 107.419 41.2399 107.426 41.2452 107.445L41.2558 107.484L41.3225 107.683C41.3412 107.751 41.5705 107.863 40.9344 107.966C41.4081 107.888 41.4859 108.022 41.5018 108.079C41.5231 108.156 41.1658 108.234 41.2412 108.296C41.2708 108.319 41.6364 108.229 41.7634 108.245C41.8824 108.254 41.8767 108.297 41.863 108.332C41.8412 108.38 41.7922 108.434 41.6568 108.493C41.57 108.537 41.3156 108.566 41.1613 108.598C41.8408 108.463 41.3477 108.661 41.388 108.701C41.4365 108.75 42.4952 108.468 42.3514 108.581C42.1749 108.723 41.3224 108.865 40.8891 108.984C40.5262 109.085 41.5436 108.97 41.5978 108.955C41.3812 109.014 41.2404 109.032 41.2401 109.095C41.2427 109.104 41.2994 109.141 41.2262 109.171C41.1368 109.206 40.9447 109.228 40.8363 109.279C40.7036 109.326 40.7413 109.357 40.7492 109.386C41.0931 109.301 41.3042 109.264 41.2118 109.351C41.0869 109.469 40.9434 109.519 41.5091 109.394C41.7013 109.351 41.736 109.455 41.5871 109.507C41.3893 109.572 41.2812 109.56 41.2403 109.623C41.1886 109.689 41.2343 109.749 41.3261 109.786C41.4179 109.823 41.694 109.767 41.8589 109.774C42.013 109.783 42.0641 109.841 41.8365 109.946C41.5302 110.082 42.1497 110.046 42.1958 110.023C41.8164 110.19 41.3025 110.186 41.0967 110.243C41.0426 110.258 41.0287 110.335 41.2047 110.296C41.508 110.213 41.4047 110.324 41.3016 110.394C41.0845 110.537 41.5803 110.369 41.9212 110.316C42.1513 110.284 41.764 110.401 41.7179 110.424C41.4363 110.502 41.4739 110.554 41.4819 110.583C41.5058 110.669 41.6872 110.63 41.2752 110.826C41.2589 110.831 41.0637 110.947 41.1314 110.938C41.2828 110.917 41.8982 110.633 42.0683 110.68C42.2303 110.718 42.1703 110.838 42.205 110.922C42.205 110.922 42.1892 110.843 41.959 110.917C41.8398 110.95 42.0178 111.046 41.7254 111.127C41.8716 111.086 41.4388 111.102 41.4008 111.134C41.2977 111.224 40.7744 111.483 41.4515 111.275C41.625 111.206 41.8769 111.106 41.9552 111.136C42.066 111.178 42.1359 111.262 42.0462 111.36C41.9808 111.44 41.5044 111.53 41.2797 111.602C41.2903 111.641 41.6282 111.682 41.8528 111.631C42.0667 111.582 42.1106 111.445 42.108 111.436C42.1212 111.484 42.0394 111.631 42.3128 111.586C42.5239 111.549 43.0006 111.397 43.2498 111.307C42.819 111.478 42.3964 111.636 42.0467 111.805C41.8732 111.894 42.0138 111.897 41.9242 111.974C41.8808 112.006 41.4608 112.174 41.7315 112.12C42.0618 112.05 42.4332 111.854 42.7988 111.763C43.1021 111.68 42.8444 111.844 42.7386 111.904C42.603 111.983 42.4459 112.027 42.4105 112.088C42.375 112.15 42.3965 112.185 42.4098 112.233C42.439 112.339 42.6604 112.423 42.389 112.623C42.3266 112.671 42.034 112.772 42.1531 112.76C42.3073 112.749 42.6025 112.657 42.7594 112.655C43.0759 112.64 43.1862 112.744 42.9393 112.927C42.8905 112.961 42.5327 113.122 42.5652 113.113C42.6869 113.11 43.1963 112.908 43.215 112.954C43.215 112.954 42.7815 113.115 42.7786 113.168C42.7758 113.2 42.8189 113.229 42.5805 113.316C42.082 113.495 42.109 113.508 41.7782 113.683C41.8892 113.662 42.7584 113.433 42.6989 113.428C42.653 113.431 42.4608 113.453 42.675 113.342C42.8133 113.272 42.8836 113.274 42.9349 113.27C43.0296 113.275 42.6389 113.528 43.0587 113.422C43.3728 113.336 42.9897 113.7 43.0192 113.765C42.5776 113.918 42.5914 113.862 42.2068 113.989C42.2201 114.037 42.7156 113.911 42.6802 113.952C42.6123 114.022 42.2031 114.187 42.0242 114.278C42.36 114.185 44.0626 113.871 43.1768 114.167C43.1038 114.156 43.242 114.107 43.2638 114.081C43.3099 114.037 42.7436 114.266 42.6759 114.295C42.5322 114.366 42.4941 114.418 42.5454 114.435C42.6723 114.472 43.3066 114.173 43.4633 114.212C43.5335 114.234 43.5765 114.285 43.5113 114.344C43.4271 114.419 43.0508 114.513 43.0477 114.586C43.0448 114.639 43.0149 114.678 43.3345 114.569C43.4103 114.548 43.6082 114.442 43.7057 114.415C43.8519 114.374 42.7079 114.96 43.1113 114.859C43.4281 114.782 43.7424 114.653 43.8124 114.717C43.8286 114.733 43.7821 114.839 43.7252 114.865C43.7687 114.833 42.927 114.951 43.0161 114.999C43.0915 115.04 43.2213 115.046 43.2454 115.112L43.2801 115.196C43.3342 115.201 43.3043 115.22 43.1824 115.264C43.1309 115.309 43.7758 115.048 43.8461 115.029C44.1116 114.956 43.8322 115.105 43.7509 115.149C43.6371 115.201 43.2983 115.346 43.4634 115.332C43.6122 115.322 43.875 115.218 44.0483 115.17C43.7857 115.232 43.4005 115.484 43.3569 115.537C43.3053 115.582 43.2753 115.643 43.3699 115.648C43.4537 115.655 43.6136 115.58 43.6866 115.591C43.7542 115.604 43.8917 115.68 43.6182 115.765C43.3771 115.842 43.266 115.884 43.2631 115.936C43.2631 115.936 43.2492 116.013 43.317 115.983C43.4198 115.955 43.9947 115.651 44.135 115.695C44.2539 115.725 43.6985 115.93 43.9582 115.92C44.253 115.912 43.9765 116.05 43.7704 116.169C43.6158 116.264 43.7161 116.226 43.7918 116.225C43.8513 116.23 43.6994 116.313 43.7048 116.332C43.4527 116.433 43.0841 116.618 43.5768 116.502C43.6906 116.471 44.7005 116.223 44.183 116.418C43.9338 116.508 43.7497 116.558 43.8144 116.603C43.8494 116.624 44.1177 116.519 44.2421 116.505C44.3829 116.487 44.3772 116.53 44.3826 116.549L43.8463 116.698C43.7761 116.696 43.6597 116.697 43.5 116.731C43.2212 116.798 43.3181 116.874 43.3289 116.892C43.3556 116.968 43.6456 116.836 43.8565 116.84C43.8916 116.84 44.1973 116.829 44.1187 116.861C43.9127 116.959 43.7097 117.005 43.704 117.068C43.7011 117.1 43.8012 117.104 43.6521 117.176C43.3078 117.344 43.5425 117.476 43.5937 117.513C43.6395 117.553 43.7398 117.494 43.9728 117.409C44.1949 117.327 44.1593 117.43 44.1727 117.457C44.308 117.441 44.4079 117.465 44.0908 117.625C43.8956 117.72 43.9822 117.717 43.9982 117.754C44.0036 117.773 43.8246 117.864 43.7973 117.913C43.7537 117.987 43.889 117.971 43.9213 118.003C43.9643 118.074 42.9343 118.545 42.7232 118.583C42.7395 118.578 42.7965 118.532 42.783 118.525C42.7424 118.526 42.6747 118.534 42.5284 118.595C42.3172 118.654 42.1633 118.603 42.1962 118.511C42.2155 118.433 42.8385 118.219 42.9067 118.107C42.9503 118.033 42.8204 118.048 42.6173 118.094C42.3871 118.189 42.3546 118.198 42.3411 118.17C42.3117 118.106 42.3467 118.127 42.6748 117.964C42.813 117.895 42.8999 117.809 42.7727 117.833C42.4885 117.901 42.0598 118.186 42.0008 118.078C41.9793 118.042 42.1993 117.847 42.4676 117.741C42.5029 117.701 42.4434 117.696 42.4571 117.661C42.4762 117.625 42.8458 117.254 42.7647 117.255C42.5428 117.275 42.1085 117.623 41.9567 117.686C42.1463 117.613 42.232 117.226 42.3676 117.147C42.5737 117.028 42.4817 117.033 42.2112 117.066C41.7944 117.119 42.1898 117.01 42.1737 116.973C42.1604 116.925 42.1849 116.907 41.9874 116.931C41.9197 116.939 41.8899 116.937 41.9063 116.912C41.9471 116.87 42.2099 116.766 42.3857 116.748C42.5563 116.712 42.892 116.619 42.7515 116.616C42.6217 116.611 42.3021 116.699 42.1751 116.682C42.0508 116.675 42.1837 116.586 42.2922 116.515C42.2842 116.486 42.2573 116.452 42.1437 116.463C42.0354 116.493 41.9813 116.487 41.9786 116.477C41.9654 116.429 42.2037 116.363 42.2066 116.311C42.2068 116.269 42.0715 116.286 42.0256 116.267C41.9177 116.214 41.9534 116.09 42.2463 115.927C42.4469 115.809 42.4877 115.787 42.057 115.917C41.8158 116.035 41.7916 115.99 41.7756 115.953C41.7541 115.917 41.7002 115.87 41.8034 115.8C41.8794 115.738 42.1151 115.642 41.9502 115.635C41.5168 115.776 41.5986 115.629 41.6558 115.561C41.7155 115.503 42.3361 115.239 42.1764 115.272C41.7811 115.361 41.6268 115.393 41.5568 115.329C41.4571 115.243 41.4198 115.129 41.4745 114.989C41.4964 114.942 41.5318 114.88 41.5862 114.824C41.6162 114.784 41.8086 114.7 41.8032 114.681C41.7953 114.652 41.4081 114.749 41.289 114.761C41.1348 114.772 41.0348 114.769 40.9862 114.741C40.9242 114.706 40.9651 114.643 41.3389 114.519C41.0517 114.619 41.4939 114.341 41.5346 114.299C41.5618 114.271 41.1016 114.356 41.0287 114.346C40.9313 114.331 40.8667 114.287 40.9455 114.213C41.0134 114.142 41.3816 114.041 41.5902 113.973C41.5849 113.954 41.6096 113.895 41.5555 113.889C41.4743 113.912 41.393 113.934 41.3226 113.953C41.2414 113.976 41.2714 113.916 41.2606 113.898C41.2553 113.879 41.0306 113.951 40.9765 113.945C40.9143 113.931 40.9118 113.901 40.9201 113.868C40.9557 113.765 41.2023 113.645 41.4384 113.486C41.7341 113.291 41.4198 113.419 41.0053 113.564C41.2464 113.487 41.011 113.501 41.198 113.418C41.236 113.407 41.5421 113.292 41.5475 113.29C41.5368 113.252 41.1413 113.402 41.1252 113.365C41.1119 113.317 41.4399 113.175 41.5105 113.114C41.6246 112.999 41.3481 113.138 41.2315 113.201C41.0553 113.302 40.5785 113.454 40.6574 113.36C40.7335 113.277 41.0075 113.108 41.3975 112.979C40.4143 113.303 41.2479 112.606 40.5436 112.842C40.0591 112.924 40.6337 112.662 40.6801 112.555C40.7157 112.473 40.6727 112.423 40.6621 112.364C40.6382 112.277 40.8634 112.121 40.8367 112.046C40.8153 111.99 40.531 112.058 40.5152 111.979C40.5073 111.95 40.4831 111.905 40.6322 111.833C40.7054 111.802 40.9274 111.741 40.9086 111.715C40.8656 111.665 40.3266 111.824 40.0693 111.905C40.6002 111.738 40.1749 111.317 40.1238 111.258C40.0727 111.2 39.8051 111.18 39.8135 111.105C39.8166 111.032 39.9225 110.93 40.069 110.828C40.1179 110.793 40.714 110.546 40.73 110.583C40.7167 110.535 39.9123 110.788 40.1402 110.642C40.17 110.623 40.5333 110.44 40.4197 110.451C40.3574 110.458 39.7423 110.7 39.786 110.626C39.8404 110.549 40.0332 110.381 40.4638 110.273C40.5073 110.219 40.0229 110.301 39.8956 110.326C39.8713 110.323 39.4792 110.296 39.5605 110.274C39.761 110.197 40.1833 110.102 40.2053 110.033C40.2191 109.978 40.0243 109.99 40.0814 109.922C40.1385 109.855 40.301 109.81 40.2797 109.754C40.2611 109.686 39.9118 109.752 39.8337 109.701C39.7771 109.664 39.8207 109.57 40.189 109.489C40.1159 109.498 39.5939 109.508 39.7265 109.482C39.8943 109.456 40.3922 109.401 40.3276 109.336C40.2953 109.304 40.0924 109.329 40.0059 109.311C39.8275 109.277 39.7415 109.156 40.1505 109.033C39.9176 109.097 39.4716 109.065 39.4474 109.04C39.8074 108.972 39.7074 108.948 39.6887 108.901C39.6727 108.843 39.6402 108.873 39.8622 108.812C40.1763 108.725 39.6464 108.685 39.6061 108.644C39.5818 108.62 39.7903 108.573 39.8122 108.525C39.8531 108.462 39.802 108.404 39.794 108.354C39.7648 108.248 39.8247 108.169 40.4149 108.027C40.2254 108.079 39.9383 108.159 39.7029 108.193C39.4269 108.227 39.7167 108.116 39.8034 108.092C40.3207 107.939 40.126 107.931 39.5417 107.968C39.1305 107.998 40.587 107.679 39.8914 107.778C39.4313 107.843 39.408 107.652 40.0222 107.576C39.757 107.608 39.6272 107.602 39.4705 107.583C39.3921 107.574 39.5275 107.536 39.5169 107.498C39.5036 107.45 39.317 107.449 39.2739 107.399C39.2255 107.35 39.4556 107.297 39.4368 107.25C39.4236 107.202 39.3805 107.152 39.3078 107.099C39.1945 107.027 39.0027 106.987 39.0788 106.904C39.1142 106.863 39.5121 106.784 39.5068 106.765C39.4988 106.736 39.0146 106.755 38.9093 106.733C38.7661 106.7 39.1314 106.651 39.2829 106.63C39.4291 106.61 40.1785 106.558 39.8595 106.522C39.5946 106.492 39.2403 106.496 39.0783 106.437C38.8704 106.36 39.9419 106.271 39.3633 106.224C39.0118 106.197 39.1588 106.011 39.2023 105.957C39.2432 105.894 39.3732 105.838 39.2654 105.785C39.2383 105.771 38.7251 105.644 38.8198 105.648C39.0036 105.66 39.1657 105.698 39.3174 105.656C39.3985 105.634 39.4014 105.602 39.388 105.574C39.3558 105.521 39.1913 105.432 38.7991 105.426C40.0161 105.442 38.5995 105.336 38.6945 105.258C38.7814 105.193 39.3492 105.202 39.4037 105.125C39.4146 105.101 39.1202 105.027 39.0608 105.001C38.8073 104.864 39.4261 104.952 39.2186 104.813C39.0837 104.726 38.984 104.66 39.0141 104.579C39.025 104.555 39.2525 104.493 39.2525 104.493C39.1611 104.373 38.1292 104.119 38.5056 104.025C38.6843 103.976 38.8732 104.069 38.8547 103.981C38.7088 103.938 38.5847 103.889 38.5497 103.847C38.5336 103.831 38.747 103.865 38.7931 103.842C39.0749 103.744 37.9063 103.227 38.7013 103.235C38.688 103.187 38.4201 103.23 38.7013 103.235L38.7095 103.223Z" fill="#959EC6"/>
<path d="M72.936 12.0546C72.5672 9.97999 73.3472 12.0447 73.0523 12.0536C73.0224 12.093 72.9712 12.0553 72.936 12.0546ZM44.3443 14.4766C43.7833 12.424 44.7208 14.3623 44.4526 14.4467C44.4307 14.4942 44.3768 14.4677 44.3443 14.4766ZM41.3232 13.9635C41.3072 13.9057 41.2796 13.4469 41.2904 13.4439C41.3717 13.4215 41.6172 14.1207 41.6702 14.3547C41.5889 14.3772 41.4749 14.4709 41.3232 13.9635ZM19.7527 19.1004C19.636 18.6351 19.7736 18.6904 19.8686 18.6123C20.0371 19.0115 20.0476 19.0707 19.9662 19.1347C19.9554 19.1377 19.8191 19.3618 19.7501 19.0907L19.7527 19.1004ZM12.8868 30.417C12.966 30.2397 13.4955 30.9329 13.4053 31.1341C13.3072 31.2855 12.8453 30.6047 12.8868 30.417ZM12.2758 30.9277C12.4727 31.0495 12.6131 31.0937 12.8601 31.4815C12.7452 31.762 12.546 31.5682 12.2758 30.9277ZM74.7671 10.3054C74.9004 10.7038 74.9824 10.5361 75.0878 10.5381C75.0246 10.1824 74.9248 9.56745 74.803 9.56996C74.6922 9.56948 74.5885 9.76393 74.7725 10.3039L74.7671 10.3054ZM71.1847 8.96257C71.318 9.36105 71.4 9.19333 71.5054 9.1953C71.4422 8.83965 71.3369 8.22614 71.2152 8.22865C71.107 8.23781 71.0006 8.42263 71.1847 8.96257ZM54.0999 10.3114C54.2337 10.6061 54.3405 10.9083 54.4304 10.7695C54.3563 10.4168 54.2321 9.79815 54.1157 9.81992L54.108 10.3195L54.0999 10.3114ZM46.4713 10.7594C46.6632 10.7997 46.6295 10.467 46.4464 9.74026L46.3381 9.77017C46.3476 10.037 46.3837 10.4001 46.4713 10.7594ZM30.4222 18.4138C30.5687 18.3319 30.2322 17.4092 30.1048 17.4754C30.1437 17.8274 30.2195 18.3973 30.4222 18.4138ZM27.1437 18.5728C26.9477 18.2642 26.9463 18.5755 27.1693 18.8767C27.3037 19.0676 27.4219 19.2215 27.5668 19.4509C27.4495 19.1102 27.2549 18.5111 27.1492 18.5713C27.2495 18.5125 26.8887 18.1561 27.1492 18.5713L27.1437 18.5728ZM23.302 21.1674L23.5762 20.9362C23.4078 20.5371 23.3728 20.4949 23.294 20.5685C23.2288 20.628 23.0959 20.6957 23.3046 21.177L23.302 21.1674ZM13.2999 34.5521C13.352 34.4031 13.482 34.3672 13.1297 33.9359L13.0831 34.0834L13.3053 34.5506L13.2999 34.5521ZM10.7352 46.184C10.6311 45.8915 10.8781 45.6885 10.3874 45.3679C10.3046 45.1525 10.5922 44.9487 10.1232 44.6222C10.3174 44.7344 11.09 45.4849 11.1316 45.2766C11.1675 45.1112 10.4009 44.2345 10.6445 44.1881C10.7258 44.1657 10.9921 44.4548 11.0674 44.5377C11.3855 44.7607 11.3812 44.534 11.3926 44.4064C11.4097 44.2359 11.3036 43.7884 10.8636 43.6094C10.5019 43.4605 10.4372 44.0069 9.9823 43.5418C9.42788 42.9694 9.62065 42.8229 10.0604 43.0435C10.6566 43.3452 10.5669 42.3025 9.93913 41.8022C10.0954 41.9248 10.6097 42.3943 10.6481 42.2801C10.6975 42.142 10.7744 41.8929 11.1193 42.1707C10.3514 41.564 10.5711 40.2699 10.6454 40.0111C10.7777 39.4771 11.2752 39.5056 12.0096 39.7588C11.9124 39.7234 11.1754 39.4399 11.0334 39.1577L11.1396 39.0145C11.159 38.9158 11.1694 39.0166 10.9435 38.7473C10.5993 38.3241 10.4873 37.9819 10.9989 38.4418C11.3329 38.7434 11.478 38.9314 11.5305 38.72C11.558 38.6087 11.6098 38.5011 11.5674 38.3262C11.5302 38.1915 11.3309 38.0185 11.342 37.9532C11.3835 37.7656 11.4142 37.5602 11.4637 37.3807C11.5517 37.0662 12.4985 38.1728 12.4764 38.2618C12.5096 38.1076 11.7124 36.8248 11.5761 36.4791C11.4346 36.1139 11.4543 35.9531 11.7734 36.5179C11.9558 36.8406 12.4957 37.614 12.3226 37.0503C12.2321 36.7436 12.0903 36.42 11.8973 36.038C11.8732 35.9928 11.6909 35.6701 11.6965 35.6271C11.68 35.6938 12.3469 36.484 12.4844 36.5807C12.6541 36.71 11.9191 35.4412 11.8656 35.3317C11.0427 33.7658 12.5912 36.2921 12.6398 36.2993C12.8044 36.3887 11.933 34.7949 12.4576 35.3858C11.933 34.7949 12.4645 33.933 12.5436 33.7764C12.6555 33.5693 12.8986 33.6265 13.0479 33.5128C13.1537 33.4317 12.7002 32.6967 12.9215 32.8015C13.0483 32.8597 13.5547 33.2796 13.5822 33.1891C13.5822 33.1891 13.216 32.855 12.9307 32.5605C12.6454 32.2662 12.433 32.0035 12.746 32.1659C13.0103 32.3002 13.02 31.9763 13.4501 32.5208C13.8103 32.981 13.4602 32.1138 13.8015 32.5689C13.4038 32.0361 13.1272 31.6046 13.1156 31.2244C13.1113 30.9769 14.1515 32.3167 14.4025 32.4236C15.0611 32.6979 13.5355 30.4865 13.1218 29.8961C13.6957 30.349 14.1451 30.8157 14.6214 31.3164C14.3941 30.7677 14.2311 30.3671 14.09 29.8774C14.3985 30.4246 14.4166 30.0257 14.5463 30.0521C14.6139 30.0645 15.1848 30.5702 15.2542 30.7583C15.0059 30.091 14.2881 29.1802 14.793 29.3621C15.1547 29.4902 15.0535 29.1658 14.6164 28.3848C14.709 28.2556 14.8907 28.7029 15.0683 28.9026C15.3212 29.1852 15.2775 28.7101 15.4769 28.8416C15.6764 28.9731 15.858 29.4619 16.0544 29.6874C16.2588 29.9213 16.1717 29.4582 16.3837 29.8246C16.0404 29.2146 16.0401 29.2769 16.149 29.1224L16.3614 28.815C16.1924 28.5197 15.9137 27.9955 15.8292 28.1121C15.7055 27.9805 15.745 28.2079 15.525 27.8126C15.7454 27.5341 16.2527 28.3579 16.652 28.5586C17.0567 28.7578 16.2231 27.765 16.2177 27.7458C16.1936 27.7006 16.5119 27.8614 16.5119 27.8614C16.7758 28.1203 16.7975 28.0935 16.6617 27.6439C16.4754 27.0113 16.6371 26.5625 17.1156 27.7259C17.1165 27.5598 17.2508 27.7507 17.2966 27.7692C17.3534 27.7846 16.7896 26.9038 16.7039 26.741C16.5216 26.3974 16.6673 26.4816 16.759 26.5185C17.207 26.7264 17.8929 28.0709 18.0972 27.7761C17.8477 27.3372 17.566 26.8657 17.3869 26.4073C17.0796 25.6319 17.4462 25.8831 17.7922 26.5027C17.5159 26.0089 17.2215 25.3647 17.3332 25.1991C17.4941 25.4864 18.3513 27.2189 18.0717 26.2907C17.928 25.8122 17.5337 25.1023 17.6536 24.9241C17.7326 24.809 17.9851 25.1746 18.0131 24.9596C17.6698 24.3496 18.1122 24.0098 18.2178 23.991C18.4019 23.9609 18.6489 24.8981 18.7862 25.0363C19.155 25.4009 18.3813 23.7386 18.2959 23.4927C18.2157 23.3076 18.2326 23.1578 18.2792 23.031C18.3528 22.9174 18.4774 22.8623 18.5234 22.8392C18.7106 22.7357 18.9458 22.7433 19.213 22.8664C19.2912 22.8966 19.9241 23.4577 19.9005 23.3088C19.8557 23.0621 18.8723 21.7168 19.0666 21.7875C19.2232 21.8479 20.0697 22.4226 20.2595 22.878C19.9947 22.2568 19.9854 21.9484 20.0808 21.7873C20.1599 21.6515 20.2871 21.6267 20.4516 21.716C20.5811 21.7839 20.7633 22.1482 20.9035 22.2339C21.3134 22.4938 21.0508 21.3951 21.0938 20.8962C21.1052 20.7479 21.1801 20.9345 21.2738 21.147C21.355 21.1246 21.415 21.0251 21.4802 20.9657C21.6023 20.8594 21.8875 21.1952 22.0339 21.0926C22.1615 21.0056 22.1706 20.7854 22.2312 20.5614C22.2588 20.4501 22.3219 20.2565 22.4803 20.4926C22.7435 20.8967 22.9736 20.2735 23.1118 20.2042C23.1741 20.1767 23.8535 20.6317 23.8377 20.5531C23.8139 20.425 23.508 19.929 23.4758 19.8757L23.8476 20.1669C23.904 20.2446 24.3926 21.001 24.4145 20.9535C24.4309 20.9283 24.1283 20.276 24.1129 20.1144C24.087 19.8521 24.2278 19.8339 24.2984 19.773C24.5059 19.9334 24.8535 20.2001 24.4897 19.3471C24.594 19.5981 24.8791 19.934 24.927 20.0865C24.7328 19.4251 24.7817 19.3493 24.9392 19.2229C25.0098 19.162 25.0864 18.9958 25.2371 19.1407C25.334 19.2383 25.3762 19.4547 25.4278 19.4093C25.5826 19.2733 25.4578 18.7999 25.6181 18.6417C25.6861 18.5711 26.1138 18.4737 25.8437 17.8332C26.0175 17.6815 26.2156 18.6736 26.4447 18.828C26.558 18.9004 26.361 18.2293 26.3051 18.0478C26.3004 17.904 26.2957 17.7395 26.3315 17.6156C26.3398 17.5822 26.3642 17.5651 26.3913 17.5576C26.6672 17.5436 27.3614 18.2847 27.1188 17.5329C27.1881 17.7625 27.6955 19.1149 27.7661 19.0539C27.8041 19.0227 27.6635 18.4708 27.6369 18.3537C27.6239 18.2433 27.6597 18.1195 27.6708 18.0542C27.7099 17.7947 27.7427 17.7234 27.9045 17.8238C27.9611 17.86 28.0233 17.874 27.9863 17.6769C27.9017 17.2649 27.5182 16.5935 27.4974 16.4127C27.4741 16.2015 27.9549 16.8875 28.0279 16.8777C28.2391 16.8402 28.277 16.2597 28.392 15.9584C28.5125 15.635 29.1684 18.1796 29.1116 17.0449C29.0846 16.4616 28.9441 15.8682 29.2384 15.9839C29.3356 16.0192 30.0214 17.4052 29.6805 16.2764C29.2864 14.9757 29.8662 15.8934 30.1213 16.2686C30.5779 16.951 30.2564 15.7442 30.3954 15.5089C30.5372 15.2625 30.8789 16.7746 31.0584 17.15C31.2296 17.5172 30.8464 15.6435 31.0874 16.1366C31.1571 16.2832 31.1691 16.6012 31.2979 16.8144C31.3623 16.9209 31.487 16.8451 31.4742 16.7139C31.4092 16.1411 31.0197 15.5957 31.1621 15.2247C31.3429 14.7395 31.7652 14.6644 32.1831 14.9117C32.3234 14.9974 32.3849 15.1358 32.4987 15.1044C32.9362 15.8024 32.1663 13.9007 32.1826 13.8962C32.3534 13.7972 32.8774 15.6528 32.7453 14.4145C32.7753 14.3544 32.867 14.412 32.9183 14.4289C33.0561 14.4634 34.2046 15.2242 33.9032 14.3228L34.6708 15.5618C34.4229 14.8115 34.5187 14.5674 34.6301 14.4641C34.755 14.3467 34.5656 13.8083 34.4786 13.3244C34.4155 12.948 35.1751 14.7282 35.3161 14.6478C35.2335 14.3908 34.7206 13.0607 34.7427 12.9509C34.7952 12.7188 35.1718 13.1538 35.3478 13.6648C35.4786 14.0329 35.5089 14.4806 35.6415 14.4543C35.7282 14.4304 35.7206 14.3392 35.6653 14.0125C35.5678 13.4694 35.2196 12.7571 35.13 12.2636C35.1169 12.174 35.4568 12.9196 35.4515 12.9004C35.6098 13.1572 35.731 13.2585 35.8312 13.2412C35.9124 13.2187 35.83 12.9202 35.9321 13.0578C36.0908 13.2524 36.2191 13.5486 36.3639 13.8196C36.5677 14.1986 36.1659 12.8067 36.4158 13.1627C36.5339 13.3373 36.6647 13.7054 36.759 13.7727C36.8588 13.8384 36.916 13.75 36.981 13.7114C36.8157 13.8088 36.2758 13.0148 36.5176 12.7718C36.6263 12.6589 36.9423 12.7478 37.1689 13.4418C36.7398 12.1197 37.7451 12.2775 37.951 12.1999C38.1434 12.1157 38.2592 12.7884 38.4989 13.5721C38.8387 14.3592 38.8657 14.3518 38.7076 13.4834C38.2681 12.0398 38.6094 11.3755 38.8532 11.2875C38.9859 11.2405 39.135 11.1682 39.3709 11.6213C39.7166 12.2824 39.8563 12.4718 40.073 12.3913C39.8482 12.4845 39.4793 11.5706 39.7556 11.4529C39.9697 11.3627 40.1864 11.2821 40.4138 11.24C40.6872 11.1957 40.817 11.2013 41.2368 12.215C41.0496 11.7693 40.889 11.4198 40.778 10.87C40.7172 10.5655 40.824 10.2977 40.9465 10.6992C41.1116 11.2339 41.1809 10.8728 41.3053 10.8799C41.3728 10.8923 41.5164 11.4124 41.6211 11.5804C41.7795 11.8372 41.6744 11.1822 41.7156 11.0361C41.7569 10.8899 41.8301 10.8386 41.9166 10.8562C42.0085 10.8723 42.1514 10.9676 42.2876 11.3342C42.4264 11.7104 42.476 11.5102 42.5735 11.4832C42.4061 10.8558 42.2987 10.6989 42.5493 10.8888C42.692 11.0049 42.8455 11.1594 43.0069 11.3429C42.9801 11.2881 43.3107 11.7254 43.1745 11.3588C43.1265 11.2269 43.0429 11.1567 42.9823 10.8314C43.1447 10.7866 43.1655 10.9674 43.3641 11.3064C43.4982 11.5388 43.7857 11.9259 43.699 11.3798C43.5942 10.6832 43.4352 10.5717 43.5775 10.2215C43.654 10.0345 43.7368 9.67999 43.8614 9.64558C43.9968 9.6082 44.0349 10.1263 44.1228 10.4025C44.2454 10.7832 44.4148 10.9956 44.4109 10.6857C44.4065 10.4797 44.5168 10.0139 44.655 10.5354C44.307 9.21165 45.1032 10.1111 45.2411 10.1249C45.3816 10.1483 45.2908 9.90385 45.3646 9.74876C45.4493 9.56992 45.5819 9.54366 45.7065 9.50926C45.7985 9.48385 46.4987 9.54964 46.3182 8.83254C46.486 8.78619 46.5559 8.89127 46.7499 9.61503C46.8403 9.94244 47.1132 10.5511 47.1945 10.5287C47.1782 10.5331 46.9833 9.42619 46.9867 9.29053C46.9887 8.87543 47.1455 8.87357 47.3175 9.09554C47.4682 9.28196 47.6348 9.48468 47.7564 9.50293C47.7727 9.49844 47.7131 8.94486 47.7244 8.85884C47.7969 8.38279 48.2823 10.3941 48.4393 10.3715C48.664 10.3199 48.097 8.96323 48.1982 8.73838C48.3732 8.3377 48.9594 9.61645 49.2555 9.90778C49.312 9.96474 49.9135 10.3065 49.5434 9.64175C49.316 9.6838 49.1213 9.1261 49.2879 8.77954C49.3452 8.67044 49.6291 8.68532 49.7452 9.29584C49.7768 9.47366 49.7819 10.1045 49.8945 10.3014C49.9106 10.3384 49.8636 8.26819 50.0662 8.8963C50.1861 9.28812 50.2489 9.7268 50.3822 10.1253C50.5075 10.4949 50.6421 10.6443 50.7679 10.9101C50.5427 9.9255 50.4176 9.49366 50.6722 9.42337C50.7372 9.40543 51.214 9.80233 51.2142 10.3309L51.4362 10.2903C51.3649 9.9265 51.2127 9.50213 51.1953 9.18566C51.1728 8.78766 51.3031 8.68952 51.427 8.8004C51.7286 9.06952 52.1615 10.743 52.0011 9.19117C51.6358 7.53015 52.2619 9.52338 52.4297 9.49777C52.5488 9.48562 52.5101 8.52209 52.6601 8.81232C52.695 8.87524 53.0397 9.74391 53.0397 9.76464C53.0071 9.22435 52.8486 8.98828 52.9612 8.63591C53.0106 8.47718 53.136 8.25599 53.2879 8.74264C53.4184 9.17297 53.5356 8.96442 53.6547 8.95227C53.7278 8.94245 53.9585 9.90479 54.1181 9.89182L53.9091 8.92349C53.993 8.91069 54.1257 8.86368 54.2395 9.38154C54.4295 9.79545 54.4567 9.78796 54.4641 9.35063C54.5643 9.33334 54.5883 9.39924 54.681 9.81931C54.7894 10.3387 54.9249 10.2805 55.0088 10.2677L54.6542 8.62449C54.7918 9.27052 55.1701 9.33191 55.2784 9.302C55.4301 9.26012 55.3214 8.78228 55.406 8.62418C55.7633 7.97623 56.32 8.07128 56.818 7.99596C56.818 7.99596 56.7418 7.50914 56.8366 7.49336C56.9205 7.48056 57.0096 7.50778 57.1015 7.52387C57.3879 7.58988 57.6875 7.70407 57.9871 7.81825C58.384 7.96779 58.7841 8.00242 59.2072 8.31051C59.3769 8.43984 59.539 8.49875 59.6993 8.9105C59.8115 9.19043 59.9201 9.09825 59.9932 9.08844C59.9256 9.09675 59.7919 8.76056 59.8762 8.66472C60.0422 8.46344 60.2987 8.54808 60.5043 8.53277C60.5962 8.52811 60.8106 8.37565 60.9574 8.78076C61.0589 9.06367 61.1892 10.0848 61.2607 10.4278C61.4257 10.4134 61.2814 9.46861 61.1839 8.92551C61.0415 8.15643 61.2889 8.46125 61.4593 8.44526C61.6758 8.42696 61.9512 8.51675 62.1067 8.23545C62.1394 8.18495 62.1327 7.88625 62.157 7.8899C62.2838 7.94816 62.4174 8.30513 62.5596 8.54569C62.8519 9.05571 62.9428 8.13931 63.1138 7.99882C63.3013 7.83306 63.4687 8.46052 63.6982 9.10188C64.1173 10.261 63.7093 8.46661 63.6728 8.1865C63.5761 7.45662 64.0782 8.81042 64.1157 8.88297C64.4026 9.41525 64.2322 8.27043 64.3065 7.9908C64.4001 7.65406 64.64 7.82619 64.826 7.95102C64.9392 8.0234 65.6103 8.51176 65.4414 7.62564C65.537 7.4438 65.736 7.67905 65.8814 7.80473C66.4311 8.23333 66.9022 8.12399 67.4493 8.52223C67.6379 8.65669 67.8827 8.93111 68.0277 9.73059C67.946 9.28676 67.7949 8.63409 67.8423 8.34118C67.8813 8.10239 68.0038 8.50386 68.0772 8.41104C68.1181 8.34793 68.1644 8.28333 68.2053 8.19948C68.3746 7.86254 68.6096 7.93241 68.8449 7.91925C69.0241 8.33615 69.4599 8.24691 69.4759 8.30469C69.7232 9.20028 69.8374 10.2051 70.1196 11.1429C70.1942 11.3918 70.3155 10.3322 70.0028 9.53762C69.6741 8.70597 69.738 8.36707 69.9624 8.3569C70.0544 8.35223 70.2116 8.2881 70.3398 8.62583C70.4467 8.90724 70.4511 9.1133 70.5518 8.97148C70.62 8.85939 70.815 7.64476 70.6686 7.15662C70.8683 7.8166 70.9386 7.81792 71.1387 7.82486C71.3145 7.82815 71.4792 7.87593 71.6941 8.18972C71.7505 8.26742 71.9994 8.81016 72.0054 8.70489C72.0171 8.51511 71.9764 7.96668 72.028 7.92134C72.1366 7.82916 72.3103 8.26831 72.432 8.26579L72.8323 8.25892C72.8764 7.5109 73.133 8.71482 73.2284 9.14451C73.3397 9.63199 73.4448 9.69623 73.5503 9.6982C73.3712 8.69053 73.2834 8.37275 73.5164 8.28769C73.9309 8.14217 74.3903 8.20185 74.8365 8.21339C74.8636 8.20591 75.3317 8.14922 75.3352 8.56282C75.3399 9.27663 75.6024 9.23525 75.6761 9.10091C75.7471 8.95694 75.6138 8.5377 75.6526 8.34044C75.6804 8.18767 75.7723 8.20376 75.8291 8.19844C75.9427 8.18779 76.2441 7.94914 76.4122 8.41054C76.5698 8.83341 76.6145 8.53088 76.7894 8.72097C76.8889 8.82821 77.0994 9.50595 77.14 9.50512C77.1805 9.50428 77.1395 9.03887 77.1591 8.89874C77.2203 8.52944 77.3614 8.4283 77.5182 8.4472C77.756 8.48518 78.0235 8.52531 78.2823 8.7026C78.4171 8.78975 78.5157 9.10454 78.5999 9.5995C79.0358 10.6503 78.5373 12.5394 78.2217 10.0874C78.3296 10.7105 77.7352 10.5844 77.7615 11.313C77.778 11.8371 77.68 11.3977 77.5483 11.2164C77.4086 11.027 77.3135 11.1258 77.1895 11.0357C76.5885 10.5901 76.0257 10.6626 75.5246 10.8321C75.2103 10.9396 74.6616 12.0342 74.2768 9.9018C74.2584 9.79288 73.9272 8.34008 73.9629 8.80699C73.9906 9.22425 74.0154 9.71489 74.0997 10.1891C74.1338 10.3973 74.4924 12.9204 74.4656 12.8656C74.4013 12.7383 74.3969 12.5322 74.292 12.4057C74.1871 12.2792 74.0926 12.2535 74.006 12.2567C73.8735 12.2622 73.6652 12.2678 73.7837 12.9502C73.5599 11.6751 73.4391 12.6101 73.206 11.5966C73.0734 11.0321 72.7679 9.86239 72.774 10.8557C72.78 11.3204 72.9155 11.8323 72.8622 12.2305C72.8258 12.4996 72.7096 12.4799 72.5928 12.0147C72.4653 11.5109 72.4699 11.6962 72.3319 11.7032C72.2616 11.7019 72.3602 12.0167 72.3753 12.2613C72.4358 13.1773 71.7439 11.3681 71.6994 12.2199C71.5559 12.2284 71.1188 10.8981 71.1256 11.1553C71.1277 11.2895 71.221 12.155 71.1592 12.0581C71.0384 11.8738 70.9818 11.2676 70.837 10.9966C70.8423 11.0159 70.9677 12.5255 70.9702 12.5559C70.7439 11.7996 70.5057 11.2954 70.3681 11.7894C70.3021 12.0149 70.2147 12.2049 70.0851 12.1577C70.0392 12.1393 69.8433 11.8099 69.9597 11.8089L69.6892 11.8214C69.5052 11.8307 69.6406 11.7934 69.4802 11.4024C69.3625 11.1239 69.1675 11.7478 69.0969 11.8087C68.9991 11.8979 68.8196 12.1341 68.6536 11.7653C68.5145 11.4513 68.3921 10.4591 68.3471 11.3939C68.3927 12.0446 68.1959 12.4721 68.1171 11.4056C67.9457 10.4891 67.7411 10.2761 67.695 10.8692C67.6579 11.2836 67.8006 11.9905 67.4997 11.5761C67.4621 11.5243 66.9588 10.4403 66.9823 10.6307C67.0031 10.7908 67.3275 11.3956 67.2829 11.6774C67.2466 11.9258 66.8743 11.1684 66.783 11.007C66.6505 11.0125 66.483 10.9758 66.438 11.3406C66.3931 11.6847 66.3437 11.8434 66.2109 11.8904C66.0674 11.9404 65.8972 11.8941 65.7089 11.6767C65.5206 11.4592 65.3236 10.8088 65.3451 11.3936C65.3664 12.0407 65.2034 12.2101 65.0013 12.0482C64.8586 11.9322 64.7801 11.3527 64.6982 10.9504C64.9701 12.3574 64.4228 12.0007 64.158 11.3794C64.0163 11.035 63.8594 11.0369 63.9004 11.5231C63.9287 11.8366 64.082 12.0119 64.0698 12.3054C64.0603 12.5879 63.892 12.1472 63.8169 12.0229C63.6397 11.7401 63.4691 11.7976 63.4562 12.2365C63.6226 13.0715 63.1792 11.9088 63.0903 11.84C62.8639 11.6538 62.7214 12.0662 62.472 11.6273C62.2521 11.232 62.0568 11.3481 61.929 11.4974C61.7768 11.6638 61.5636 12.1372 61.2823 11.5619C61.1779 11.3524 61.2312 12.0942 61.1953 12.2389C61.14 12.4821 60.9964 11.9829 60.8719 11.9965C60.7366 12.0131 60.5984 12.0824 60.442 11.9805C60.2667 11.8734 60.207 11.3406 60.1265 11.7878C60.0514 12.2127 59.8288 12.9685 59.5115 11.4393C59.8394 13.0071 58.8381 12.5892 58.5272 11.9909C58.2672 11.4927 58.5802 13.9351 58.0973 12.5449C57.8811 11.931 57.6712 11.1287 57.6595 11.8885C57.6108 11.902 57.2432 11.8583 57.2464 11.7642C57.2461 11.8265 57.4338 12.1685 57.3896 12.3672C57.351 12.523 57.2269 12.4536 57.1538 12.4634C56.9562 12.5076 56.8613 13.1349 56.6427 13.0398C56.7366 12.6201 56.5241 11.2381 56.2349 10.6132C56.0509 10.6433 56.3709 11.6121 56.4532 11.9314C56.5886 12.464 56.2307 12.0757 56.1708 12.1752C56.1135 12.2635 56.1526 13.144 56.0591 12.9108C55.9442 12.6212 55.822 12.1575 55.74 12.3459C55.6142 12.6294 55.6089 13.1802 55.4113 13.2244C55.4247 12.661 54.5961 12.8898 54.4832 12.7551C54.4052 12.6627 54.3525 11.7963 54.1836 11.4802C53.9638 11.0641 54.1981 12.4193 54.259 12.703C54.1902 12.3904 53.9982 11.8008 53.9723 12.1293C53.9492 12.4258 54.1223 13.0102 54.0754 13.1994C54.0505 13.3203 53.6864 11.9802 53.5692 12.1473C53.5366 12.1977 53.5553 13.3844 53.4469 12.8651C53.3807 12.5621 53.428 12.2899 53.2668 12.0649C53.213 11.9969 53.1643 11.9896 53.153 12.0963C53.1298 12.4344 53.4499 13.3617 53.3305 13.4569C53.249 13.5208 53.1352 13.573 53.0168 13.4606C52.9683 13.4118 52.8456 13.0518 52.8456 13.0518C52.6724 13.0789 52.5097 13.1653 52.3154 13.0738C52.0807 12.9624 51.9529 12.521 52.0925 12.1819C51.9355 12.2045 51.7598 12.1805 51.7626 12.7394C51.7632 13.1848 51.7572 13.8809 51.5104 13.4516C51.3307 13.1384 51.2723 12.9058 51.1076 12.858C51.0534 12.873 50.9637 12.9703 50.891 12.8971C50.8619 12.7704 50.817 12.5444 50.7632 12.4763C50.5616 12.2107 50.4195 12.5402 50.2255 12.3657C50.0317 12.1912 49.8011 11.7574 49.8387 12.3792C49.864 12.7661 49.5312 12.7854 49.3815 12.4329C49.213 12.0338 49.3769 11.6776 49.4257 11.6641C49.3174 11.6941 49.1958 11.6758 49.1566 11.9354C49.1176 12.1741 49.1564 12.5469 49.08 12.6923C48.9518 12.9247 48.7332 12.2595 48.6529 12.6444C48.6198 12.7987 48.7565 14.2015 48.4877 13.2704C48.3308 12.723 48.0621 11.7712 48.0346 12.4317C48.0192 12.8401 48.1068 13.1994 48.0056 13.4243C47.9728 13.4955 47.6766 13.8157 47.5701 13.4513C47.4983 13.1913 47.3362 12.013 47.1703 12.2143C47.0479 12.3621 47.3287 13.0412 47.3675 13.4139C47.3595 13.385 46.9929 12.5431 46.9554 12.4706C46.7436 12.0834 46.7883 12.3509 46.8299 12.7125C46.8894 13.2661 46.6465 13.7581 46.4635 13.5599C46.2428 13.3306 45.991 11.6797 45.9153 11.6799C45.8044 11.6794 45.9263 12.2054 45.9333 12.4419C45.9398 12.7821 45.8686 12.9676 45.7816 13.0537C45.6648 13.1793 45.6755 14.3371 45.5088 14.1344C45.4282 14.0323 45.0995 13.1799 45.1305 13.503C45.1562 13.7861 45.2306 14.0557 45.1464 14.1308C44.9482 14.2995 44.4654 12.8679 44.2249 12.841C43.9735 12.8171 44.3039 14.436 44.1413 14.5016C44.0818 14.518 43.9744 13.7704 43.9961 13.7644C43.8607 13.8018 44.049 14.5893 43.9138 14.5644C43.7409 14.5292 43.5554 14.3006 43.3956 14.3551C43.4768 14.3327 43.2793 14.3561 43.1533 14.1318C42.9924 13.8446 42.9727 14.0055 42.9313 14.1724C42.8514 14.495 42.6268 14.5052 42.398 14.2885C42.3118 14.2087 41.8242 13.2447 41.9437 13.6988C42.1749 14.5782 42.4409 15.4996 41.9607 14.6891C41.6601 14.1917 41.1116 12.944 41.124 13.7697C41.1299 14.2137 41.2322 14.9006 41.1338 15.1143C41.0409 15.3265 40.8942 14.8799 40.7886 14.9195C40.6992 14.9545 40.8281 15.6962 40.7143 15.7483C40.6927 15.7543 40.5272 15.3026 40.4815 15.2219C40.0951 14.5824 40.4469 16.2575 40.3196 16.303C40.39 16.2835 39.7835 14.1295 39.7951 15.1212C39.8033 15.6786 39.86 15.694 39.6622 15.7798C39.6233 15.9978 39.6497 16.1148 39.7989 16.6126C39.4048 15.3119 39.2069 16.5584 38.842 15.3636C39.0577 16.0814 38.6628 16.0868 38.5492 16.0767C38.452 16.0621 38.3413 16.0201 38.2067 15.8707C38.2121 15.8899 37.8803 15.1317 37.8934 15.2213C37.9593 15.5866 38.2824 16.4613 38.4103 16.8613C38.2225 16.54 38.0717 16.4158 37.8795 15.8885C37.6738 15.3338 37.4149 14.6073 37.2549 14.7033C37.3536 14.9973 37.7837 16.1118 37.7883 16.2971C37.7976 16.6055 37.468 15.9814 37.3635 15.7511C37.2876 15.7928 37.2116 15.8552 37.2025 16.0754C37.1963 16.2222 37.2939 16.7653 37.2315 16.7929C37.1258 16.8532 36.747 15.7348 36.7111 15.8794C36.7029 15.9128 36.7793 16.3373 36.7681 16.4233C36.7539 16.562 36.7077 16.6266 36.6561 16.6719C36.5202 16.7923 36.3159 16.5378 36.1563 16.5508C36.021 16.5674 36.1724 17.1579 35.9947 16.9789C35.8736 16.8569 35.7744 16.6666 35.6651 16.3341C35.9451 17.1791 36.0757 17.568 35.8724 17.676C35.8591 17.6278 35.747 17.3064 35.7204 17.2101C35.5985 17.2748 35.2766 17.8612 35.0406 17.4289C35.0165 17.3837 34.7674 16.2917 34.7046 16.4438C34.6443 16.5848 34.7227 17.185 34.6837 17.403C34.5866 17.9377 34.3874 18.314 34.0927 18.3021C33.9331 18.2943 33.6945 17.8524 33.5456 17.8831C33.3128 17.9474 33.217 17.6007 32.8904 16.9032C33.0055 17.1513 33.2297 18.9342 32.9007 18.1441C32.7029 17.6598 32.7407 16.53 32.5214 16.0102C32.5214 16.0102 32.5542 17.079 32.5645 17.1798C32.6243 17.7126 32.6937 18.45 32.9284 19.1521C32.5364 17.9856 32.452 18.6722 32.1085 18.1244C31.9268 18.2264 31.9748 18.3583 32.2231 19.0256C32.4422 19.6076 32.2049 19.4659 32.3435 19.8836L31.6528 17.8253C31.482 17.9243 31.9797 19.6006 31.9394 19.5599C31.7296 19.3069 31.1828 18.2764 31.2499 18.9626C31.2988 19.4777 31.169 20.6328 30.7301 19.6347C30.5322 19.1919 30.4558 19.8866 30.1956 19.4299C29.7155 18.5986 30.2406 20.2051 30.1749 20.3891C30.0982 20.5968 29.8039 19.9319 29.6979 20.0337C29.5702 20.1622 29.6961 20.4073 29.8592 20.8079C30.0489 21.2841 29.6668 20.8921 29.6372 20.8485C29.4493 20.5687 29.4995 20.814 29.4773 20.9237C29.4027 21.2656 28.6346 18.4203 28.9753 20.1399C29.1603 21.0631 28.9381 21.1452 28.5866 20.5478C28.1842 19.8712 28.0171 19.7308 28.3249 20.9932C28.5161 21.728 27.6377 20.4885 27.8557 21.2782C27.7864 21.0486 27.6555 20.722 27.5214 20.4688C27.31 20.0193 26.9804 19.9238 27.4769 20.7506C28.0519 22.1153 27.3775 21.1718 27.1962 21.1908C27.088 21.1999 26.9579 21.2566 26.9756 21.5315C26.9856 21.6946 27.0982 21.8915 27.0465 21.9784C26.9621 22.0949 26.5564 22.1033 26.305 21.5094C26.5242 22.0293 26.7599 22.5238 26.6402 22.6813C26.5667 22.7741 26.0914 22.0659 26.2807 22.6458C26.2674 22.5977 26.1189 22.5454 26.0305 22.3521C25.9048 22.0656 25.9277 22.3598 25.9273 22.4428C25.9278 22.9091 25.9247 23.5732 25.3417 22.1796C25.4486 22.4402 25.9087 23.5154 25.5942 23.1152C25.3227 22.7652 25.2963 22.6274 25.1579 22.7382C25.2367 22.6646 25.6215 23.6362 25.5342 23.7847C25.4633 23.9079 25.3309 23.8926 25.1906 23.8277C24.8856 23.6943 24.7973 23.501 24.4522 22.7154C24.2865 22.8544 24.3967 23.0002 24.5751 23.6038C24.5751 23.6038 24.465 23.4166 24.3498 23.21C24.2344 23.0035 24.1057 22.7696 24.0602 22.6681C24.3838 23.439 24.5865 24.0464 24.8478 24.8241C24.5844 24.4822 24.3506 24.1633 24.0822 23.7399C23.6257 23.0368 23.5937 23.5328 23.5217 23.8843C23.4856 24.0705 23.3581 24.7483 23.0288 24.0204C22.7586 23.4214 22.4992 22.7778 22.2399 22.1551C22.1068 22.2643 22.6263 23.3646 22.7948 23.7637C22.5755 23.2439 22.7439 24.2338 22.9123 24.6329C23.0488 24.958 23.2976 25.5215 23.1998 25.6107L22.3681 23.6328C22.8228 24.7095 22.3231 25.1377 22.1819 25.2596C22.2823 25.18 22.0335 24.6165 21.8944 24.2818C21.7365 24.512 22.3879 26.322 21.8181 25.5673C21.7376 25.4237 21.1762 24.6148 21.4004 25.2369C21.4966 25.5006 22.0469 26.354 21.8764 26.3699C21.6898 26.3904 21.4082 25.8774 21.3173 26.2237C21.2431 26.4826 21.2736 26.9095 21.1189 27.004C20.9373 27.106 20.3873 26.1696 20.5964 25.9979C20.5013 26.076 20.3767 26.1104 20.3353 26.298C20.2938 26.4856 20.3948 26.8515 20.4152 27.1361C20.4169 27.3326 20.3799 27.1562 20.3127 27.0815C20.267 27.0008 20.216 26.9217 20.1624 26.8121C20.066 26.6314 19.9509 26.3834 19.8036 26.082L19.825 26.1176C19.9887 26.3729 19.9008 26.1174 19.7209 25.825C19.678 25.754 19.6323 25.694 19.5866 25.6341C19.4817 25.5076 19.3954 25.4693 19.4137 25.5989C19.421 25.7731 19.6143 26.0721 19.8024 26.3311C19.891 26.4621 19.9714 26.6057 20.0278 26.7042C20.0841 26.8026 20.1162 26.8767 20.0727 26.9301C20.002 27.0118 19.4553 27.1006 19.2501 26.4421C19.0876 25.917 19.0748 25.7651 18.7329 25.4345C18.5257 25.2326 18.3286 25.1523 18.4484 25.5649C18.632 26.1879 19.6504 27.5753 19.6579 27.7079C19.6784 27.951 19.516 27.9751 19.3543 27.854C19.1306 27.6981 18.9572 27.1967 18.7444 27.0171C18.3376 26.6837 19.3571 28.4128 19.0444 28.209C18.7477 28.0214 18.3852 27.4893 18.0419 26.8794C18.2859 27.3198 18.6242 27.8483 18.7897 28.3001C18.9766 28.808 19.1783 29.6229 18.922 29.4968C18.8356 29.4585 18.6602 28.8021 18.4526 28.6626C18.2828 28.554 18.2251 28.7254 18.2081 28.8959C18.1963 29.1064 18.3993 29.6515 18.3178 29.7155C18.1849 29.804 17.6996 28.9327 17.765 29.381C17.7991 29.61 18.3353 30.602 18.0284 30.3136C17.7214 30.0252 17.2201 29.0961 17.0811 29.3107L17.3681 29.8222C17.4778 30.0718 17.5531 30.1754 17.6018 30.1411C17.7255 30.3143 17.1772 30.1444 17.1366 30.166C17.0281 30.2374 17.2313 30.7202 17.0828 30.6887C16.9233 30.6601 16.7972 30.4566 16.7073 30.5955C16.6119 30.7358 16.5846 30.7848 16.6263 31.1257C16.6915 31.6362 16.1571 30.8407 16.0428 30.9965C15.9257 31.1636 16.3997 32.1417 16.2908 32.2961C16.2037 32.4238 15.7686 31.7978 15.5984 31.7515C15.3472 31.6861 16.1522 33.0184 16.3292 33.3427C16.0573 33.0757 15.8069 32.8443 15.5112 32.47C14.8149 31.5947 15.3324 32.5401 15.7185 33.2211C15.0901 32.296 15.435 33.1232 14.9487 32.4595C15.1225 32.8778 15.3366 33.3576 15.2978 33.5549C14.9673 33.0969 15.0177 33.3005 14.9442 33.4142C14.8407 33.5671 14.375 33.1049 14.3011 33.2808C14.2792 33.3282 15.3223 35.2271 14.8029 34.6969C14.6091 34.5016 13.6645 32.9383 13.9208 33.6345C14.0811 34.067 14.2691 34.326 13.8943 34.0875C13.9105 34.1037 13.4151 33.6394 13.4552 33.7216C13.6859 34.1347 14.3865 34.6667 14.5096 34.9437C14.5498 35.0259 14.2478 34.8189 14.2317 34.8027C14.0214 34.6742 14.0399 34.7624 13.9933 34.8892C14.029 34.7861 14.2276 35.1045 14.3917 35.2974C14.1255 34.9668 14.2802 35.4215 14.1909 35.4358C14.1209 35.3515 14 35.188 13.9405 35.1837C13.7514 35.153 13.6692 35.383 13.9784 35.7639C14.422 36.3151 14.3414 36.7623 13.9246 36.2659C13.8109 36.2973 13.9676 36.8862 13.5238 36.3766C13.7343 37.0543 14.5076 38.7996 13.4539 38.0023C15.2813 39.8919 12.6735 37.7721 12.955 38.2852C13.1937 38.7064 13.8339 39.4416 13.3586 39.2827C13.2345 39.2341 12.1773 38.5931 12.129 38.5236C12.4675 39.0105 12.9638 39.2673 12.757 39.5524C12.6399 39.7196 12.1861 39.026 12.1335 39.2996C12.3946 39.5489 13.0545 40.1025 13.2154 40.4104C13.3467 40.6541 13.2132 40.8671 12.9089 40.5883C12.6559 40.3473 12.5103 40.8124 12.483 40.8821C12.439 41.0187 12.2778 41.3845 12.6248 41.7757C13.074 42.2839 13.3316 42.7103 12.9772 42.7355C12.8067 42.7516 12.4646 42.4625 12.3774 42.611C12.3037 42.7453 12.4105 43.0475 12.4932 43.2838C12.5092 43.3416 12.7292 44.2861 12.5327 44.0812C11.8089 43.3172 12.2365 44.3807 12.2461 44.6268C12.2533 44.8217 12.2497 45.0196 12.176 45.1539C12.0997 45.2994 12.0756 45.2335 11.9464 45.1033C11.7876 44.9503 11.9637 45.4406 11.9582 45.4628C11.9442 45.5808 11.9166 45.692 11.8433 45.764C11.7671 45.8473 11.3284 45.9891 11.7462 46.278C12.2287 46.6111 12.2621 46.9854 12.1289 47.1154C11.9958 47.2455 11.5735 46.7506 11.5641 47.033C11.8796 47.2257 12.163 47.3444 12.1566 47.5534C12.1468 47.8982 10.8633 46.5217 10.754 46.2099L10.7352 46.184ZM13.2794 58.8408C12.8643 58.6444 12.9133 58.5066 13.4762 58.4548L13.524 58.6281L13.2794 58.8408ZM12.337 63.1948C12.1944 62.9335 12.1554 62.6231 12.1515 62.3339C12.1422 62.0049 12.1751 61.8921 12.4578 61.669C12.7836 61.4132 12.1871 61.153 12.8769 61.0144C12.2246 61.1426 11.9906 60.3782 11.8082 60.076C11.7406 59.9601 11.6204 59.7341 11.4694 59.6515C11.1875 59.6878 10.8641 59.5284 10.8134 59.3248L11.3707 59.2538C11.2993 58.9522 10.848 58.9628 10.9087 58.6351C10.953 58.3741 11.1059 58.0625 11.402 57.9081C11.5344 57.8405 11.6373 57.895 11.5891 57.7632C11.5382 57.6218 11.4659 57.4864 11.3341 57.3673C11.0725 57.1389 10.693 56.8395 10.9106 56.5929C11.1145 56.3396 11.2216 55.968 11.0444 55.6646C10.9671 55.5306 10.2914 55.3648 10.4298 55.2125C10.7507 54.8959 11.4294 55.5169 11.3344 54.9835C11.2501 54.5093 10.2038 55.0676 10.1092 54.4926C10.0564 54.1755 10.55 54.4642 10.6317 54.2758C10.7686 53.9892 10.5326 53.5155 10.4209 53.1939C10.1864 52.471 9.56918 51.4392 9.71317 50.7569C9.75191 50.539 10.0195 50.5997 10.2141 50.5046C10.6641 50.2975 10.05 50.3115 9.88622 50.1599C9.6544 49.9336 9.91317 49.5409 10.1004 49.4996C10.7466 49.5388 10.4572 49.4218 9.956 49.0627C9.88886 49.0086 11.0642 49.2335 11.08 49.312C11.0536 49.1742 10.4407 48.8978 10.309 48.7993C9.97987 48.5587 10.2381 48.3733 10.3388 48.2937C10.3955 48.164 10.8203 47.6114 10.1644 47.4298C9.3618 47.2058 10.2882 46.9086 10.3482 46.7883C10.4959 46.4573 8.84742 45.5549 9.45889 45.5311C10.0954 45.9357 10.9798 47.0492 11.3645 47.4923C11.4021 47.5441 12.08 48.3104 11.8184 48.165C11.5938 48.1752 11.5611 48.2257 11.7034 48.4662C11.8858 48.7682 12.2353 49.2107 11.9671 49.3159C11.7367 49.4105 11.4695 49.3081 11.8571 49.6778C11.8747 49.9736 11.0429 50.2136 12.0341 50.5721C11.2647 50.2975 11.8582 51.1595 11.7762 51.348C11.6886 51.5796 11.3815 51.2705 11.1592 51.3941C10.9666 51.499 11.5523 51.7831 11.728 51.8278C12.6274 52.0665 11.9288 52.2594 11.9032 52.5256C11.8891 52.6434 12.2334 53.616 12.3363 53.5667C12.2171 53.6204 12.3183 53.3955 12.0527 53.4897C11.9123 53.5284 11.9653 53.7003 11.9809 53.7997C12.0046 53.9486 12.0115 54.2058 12.2329 54.3312C12.4484 54.4582 12.6837 54.4658 12.5367 54.6723C12.4333 54.8251 12.0492 54.8068 11.9702 54.9219C11.8367 55.135 12.3704 55.5058 12.5267 55.6906C12.7176 55.9178 12.8379 56.1644 12.8609 56.3965C12.8982 56.6348 12.8427 56.8782 12.706 57.1025C12.6413 57.2033 12.2264 57.4318 12.2524 57.549C12.2445 57.5202 12.7456 57.3921 12.8567 57.4132C13.0561 57.4618 13.0597 57.8961 13.0377 58.0059C12.9935 58.1839 12.6855 58.1031 12.6896 58.3299C12.6914 58.5056 12.7743 58.6797 12.8986 58.832C13.2342 59.2679 13.7458 59.1992 13.4975 59.7341C13.239 59.9816 13.3247 60.186 13.394 60.457C13.4259 60.5726 12.884 60.7222 12.9558 60.9822C13.1476 60.9604 13.7417 60.6615 13.6451 60.9681C13.5849 61.1713 13.2677 61.3522 13.11 61.5407C13.5208 61.0853 13.4896 61.9438 13.5831 62.0734C13.7527 62.3064 14.0948 61.9632 14.1857 62.2698C14.2707 62.5573 12.9299 62.9378 12.8131 62.5348L12.8876 62.8044C12.9731 63.0711 12.5274 63.5465 12.3284 63.1868L12.337 63.1948ZM17.1461 78.9676C16.7405 78.9345 16.7549 78.7543 17.2354 78.4455L17.3099 78.6323L17.1436 78.9787L17.1461 78.9676ZM27.4982 100.247C26.8429 100.428 27.4636 99.5728 27.6083 99.8438L27.4982 100.247ZM14.0293 65.5465C13.9411 65.2704 13.4264 65.4954 13.5039 65.7331C13.7196 65.7979 14.0736 65.8763 14.0293 65.5465ZM15.6448 72.7906C15.9188 72.6425 16.0446 72.3383 15.7582 72.2929C15.366 72.225 14.5834 72.5551 15.0713 72.8661C15.2362 72.893 15.4522 72.8956 15.6396 72.792L15.6448 72.7906ZM20.0264 83.5098L19.3342 84.0638C19.5943 84.0541 20.1688 83.8334 20.0264 83.5098ZM22.5649 88.9239C22.4417 88.6676 22.0176 89.1164 22.1274 89.3451C22.3304 89.3202 22.6579 89.2609 22.5649 88.9239ZM23.8832 90.9332C23.7546 90.6784 23.344 91.1547 23.4565 91.3722C23.6602 91.7721 24.0976 91.3507 23.8832 90.9332ZM42.5716 119.311C42.7117 119.438 42.1589 122.524 41.8753 122.468C41.7779 122.453 41.4137 122.274 41.4368 121.957C41.486 121.29 41.6264 120.743 41.2334 120.945C40.9441 120.932 40.6334 120.841 40.427 120.473C40.2929 120.241 40.4245 119.282 40.2758 119.272C40.0325 119.256 39.6785 120.338 39.3869 120.232C39.2249 120.173 39.5688 119.519 39.6212 119.307C39.5108 119.182 39.1361 120.084 39.1084 119.646C39.0982 119.524 39.6887 117.61 39.2974 118.008C39.1207 118.191 39.0532 118.749 38.8068 118.807C38.7093 118.833 38.5855 118.702 38.543 118.548C38.4368 118.142 38.9641 117.582 38.6386 117.205C38.504 117.626 38.3376 117.952 38.1366 118.131C37.9417 118.185 37.6143 118.203 37.8908 117.495C37.5348 118.422 37.4287 117.995 37.4697 117.321C37.2043 117.985 36.7276 116.406 36.6498 116.293C36.9831 116.719 37.312 115.799 36.8691 115.652C36.5721 115.547 36.3109 115.319 36.0824 115.04C36.4211 114.325 37.0375 114.932 37.2724 115.022C37.1003 114.8 36.9446 114.553 36.7535 114.368C36.627 114.247 36.4195 114.087 36.1882 114.389C35.9732 114.666 35.9958 115.043 35.7387 115.083C35.2164 115.155 35.5672 114.167 35.3257 113.757C35.1139 113.39 34.7751 113.536 34.3738 113.771C34.5839 113.371 34.6903 112.595 34.6757 112.267C34.6511 111.756 34.3715 112.538 34.3151 112.46C34.1996 112.295 34.4884 111.842 34.5974 111.646C34.4801 111.855 34.2007 112.616 34.0707 112.652C33.8649 112.709 33.7074 112.265 33.6245 112.071C33.5282 111.848 33.3652 111.448 33.4862 111.021C33.5605 110.741 33.6288 110.608 33.4914 110.491C33.4106 110.43 33.2915 110.442 33.161 110.582C32.9924 110.773 33.0146 110.664 32.9314 110.531C32.8106 110.347 32.8912 109.879 32.8195 109.598C32.745 109.329 32.6353 109.1 32.4872 108.964C32.3875 108.878 32.0649 109.039 32.0139 108.96C31.9844 108.917 32.1662 108.773 32.1286 108.721L32.0266 108.563L31.5488 107.804C31.3905 107.547 30.9433 107.173 31.3709 106.547C31.0495 107.009 30.7004 106.504 30.5716 106.291C30.3945 105.987 30.6208 105.604 30.4164 105.37C30.3304 105.269 30.12 105.711 29.9713 105.7C29.828 105.688 29.7531 105.522 29.6997 105.371C29.6302 105.183 29.5719 104.95 29.6002 104.673C29.6173 104.502 29.8184 104.302 29.9299 104.157C29.4482 104.798 29.6037 103.926 29.4801 103.773C29.3323 103.576 28.7123 104.856 28.6551 104.374C28.5794 103.783 29.2801 103.175 29.5234 102.621C29.7257 102.171 28.8224 102.742 28.7923 102.802C28.9153 102.53 29.0508 102.472 28.9465 102.242C28.9197 102.187 28.7931 102.066 28.8235 101.944C28.8593 101.799 29.0329 101.689 29.0823 101.53C29.1454 101.337 29.0486 101.218 29.0004 101.128C28.7582 101.454 28.587 101.615 28.5399 101.276C28.4772 100.817 28.5592 100.628 28.1189 101.102C27.972 101.267 27.7361 100.835 27.8262 100.654C27.9437 100.404 28.0867 100.458 28.0311 100.214C27.9675 99.9415 27.8144 99.7247 27.6502 99.5732C27.4724 99.4149 27.2551 99.62 27.0363 99.5665C26.8364 99.518 26.6565 99.2464 26.7609 98.8859C26.8985 98.3919 26.1979 98.4299 26.1786 98.5078C26.3518 97.9107 26.9868 98.0151 27.1446 97.8264C27.1853 97.7841 27.0679 97.4642 26.9265 97.6068C26.682 97.8609 26.6244 97.4415 26.6391 97.199C26.6578 96.6757 26.3441 97.2494 25.9974 97.3659C25.7671 97.4398 26.042 97.0634 26.0641 96.9744C26.2817 96.7278 26.1475 96.5161 26.0831 96.3887C25.9144 96.0519 25.7462 96.1605 25.9413 95.4952C25.9415 95.4536 25.9975 95.0651 25.9244 95.0749C25.7673 95.1183 25.4653 96.0722 25.1824 95.8497C24.9076 95.6355 24.7745 95.1747 24.6003 94.8394C24.6217 94.8748 24.7422 95.1422 24.9163 94.9283C25.0061 94.8102 24.6321 94.4056 24.8605 94.1561C24.749 94.2801 25.2733 94.3634 25.2631 94.2211C25.2323 93.8772 25.4958 93.0582 24.9629 93.6406C24.8511 93.8477 24.7035 94.1787 24.5554 94.0434C24.3427 93.843 24.1092 93.4617 24.0542 93.0935C24.0096 92.8053 24.4783 92.624 24.6443 92.402C24.5693 92.2569 24.073 91.9586 23.8535 92.0711C23.6475 92.1694 23.81 92.6946 23.8367 92.7493C23.7349 92.5495 23.6212 92.0108 23.3262 92.0612C23.0988 92.1033 22.7423 92.5437 22.5388 92.7553C22.8223 92.2417 23.1165 91.7874 23.3056 91.2689C23.4015 91.004 23.1965 90.8948 23.203 90.6649C23.2062 90.55 23.5006 90.075 23.2269 90.1816C22.8991 90.3032 22.723 90.9322 22.3896 91.1175C22.1073 91.2784 22.2019 90.7756 22.2434 90.5879C22.3065 90.3528 22.4343 90.2243 22.3947 90.0176C22.3525 89.8012 22.2587 89.6094 22.1702 89.4369C21.9641 89.0068 21.5337 88.5245 21.6016 87.8839C21.6185 87.7341 21.8523 87.4831 21.7037 87.4515C21.5092 87.4016 21.2459 87.5883 21.049 87.5287C20.6381 87.3934 20.3273 86.8781 20.3974 86.3094C20.4115 86.1914 20.6598 85.7809 20.6136 85.7626C20.4542 85.6926 20.0731 86.2124 19.9613 85.9737C19.9613 85.9737 20.3089 85.5876 20.242 85.3885C20.1945 85.2565 20.1027 85.116 20.2986 84.9168C20.7089 84.503 20.6604 84.4541 20.8575 83.9644C20.733 83.9781 19.9037 84.3522 19.987 84.4018C20.0574 84.4444 20.282 84.4757 20.1424 84.7526C20.047 84.9345 19.9632 84.9058 19.8909 84.8531C19.7448 84.7484 19.9057 83.9785 19.4961 84.1227C19.1849 84.2397 19.1956 83.0345 19.0647 82.7494C19.4558 82.4548 19.5031 82.6491 19.84 82.3902C19.7518 82.1969 19.2532 82.3345 19.2537 82.2101C19.2547 81.9817 19.5679 81.5741 19.6856 81.3239C19.3707 81.473 17.4888 81.5158 18.2808 80.9448C18.3858 81.0299 18.2803 81.1523 18.2717 81.2272C18.2629 81.3643 18.7192 80.8446 18.7687 80.7687C18.8641 80.5869 18.8486 80.4046 18.763 80.3039C18.5394 80.0443 18.0892 80.8215 17.8285 80.5307C17.7103 80.3976 17.5841 80.1526 17.5853 79.945C17.5868 79.6752 17.9793 79.5978 17.8832 79.2927C17.8196 79.0823 17.8036 78.9416 17.5189 79.1342C17.4616 79.2019 17.3114 79.4402 17.217 79.4766C17.0682 79.5281 17.838 77.9683 17.4236 78.0723C17.1018 78.1508 16.8376 78.4206 16.6637 78.106C16.6262 78.0334 16.5522 77.6392 16.58 77.5279C16.5579 77.6169 17.5437 77.8111 17.3584 77.5409C17.211 77.3225 17.014 77.1593 16.9158 76.9067L16.7581 76.5046C16.6772 76.444 16.6963 76.3868 16.8048 76.3155C16.8187 76.1768 16.2861 76.7385 16.213 76.769C15.9504 76.8726 16.1304 76.4498 16.1934 76.3598C16.2774 76.2227 16.547 75.8891 16.3474 75.8198C16.166 75.7559 15.9569 76.0105 15.7729 76.0406C16.0437 75.9866 16.2286 75.2204 16.2295 75.0544C16.2296 74.8885 16.2146 74.6854 16.0823 74.5873C15.967 74.505 15.8389 74.6545 15.7286 74.5501C15.6339 74.4623 15.3527 74.0114 15.602 73.8596C15.8268 73.725 15.917 73.6275 15.8638 73.435C15.8638 73.435 15.7944 73.1432 15.7323 73.1707C15.6347 73.2183 15.2498 74.0398 15.0131 73.7528C14.8136 73.5176 15.3052 73.1227 14.9843 72.9522C14.6146 72.7538 14.8139 72.3982 14.9289 72.0349C15.0198 71.7507 14.9354 71.8464 14.8304 71.7614C14.7496 71.7008 14.8452 71.4568 14.8135 71.3619C15.028 71.1473 15.2794 70.6217 14.7866 70.7371C14.6726 70.7686 13.6653 71.0467 14.1029 70.6254C14.3149 70.4217 14.4961 70.3613 14.3674 70.1274C14.2978 70.0015 14.0645 70.2111 13.9262 70.1974C13.7698 70.1784 13.7322 70.0022 13.6978 69.8977L14.2099 69.663C14.3044 69.7302 14.4556 69.8336 14.6149 69.8C14.8993 69.7525 14.685 69.3143 14.6612 69.2483C14.5514 68.9366 14.3153 69.2193 14.0403 69.0258C13.9888 68.9883 13.5795 68.6867 13.6522 68.6148C13.8268 68.4215 14.0619 68.4706 13.9924 68.1788C13.9552 68.0441 13.8234 67.925 13.9595 67.8045C14.2663 67.5229 13.816 66.7144 13.7191 66.4924C13.6178 66.2716 13.5308 66.3579 13.2681 66.3578C13.0249 66.3628 12.9809 65.9915 12.9378 65.8582C12.7606 65.7206 12.5914 65.4462 12.8974 65.2476C13.0847 65.1233 12.9719 65.0301 12.9182 64.8584C12.8889 64.7525 13.0706 64.6712 13.069 64.5162C13.0621 64.259 12.8921 64.1505 12.8069 63.9253C12.7182 63.67 13.6372 62.7736 13.8957 62.9303C13.8742 62.9155 13.8813 63.1934 13.897 63.2304C13.9693 63.3659 14.0797 63.4909 14.2578 63.5454C14.5539 63.7953 14.7745 64.0868 14.8216 64.4468C14.8499 64.6981 14.161 64.6708 14.1587 65.0238C14.1552 65.263 14.3303 65.3701 14.571 65.4592C14.8039 65.3742 14.8416 65.3845 14.8919 65.5468C14.98 65.8229 14.913 65.6861 14.601 65.8862C14.468 65.9748 14.4235 66.215 14.575 66.2561C14.9077 66.3404 15.2667 65.8267 15.4083 66.2334C15.4592 66.3747 15.3188 66.8177 15.0503 66.9229C15.0289 67.0117 15.123 67.1205 15.1327 67.2214C15.1355 67.3346 14.9577 68.2958 15.0467 68.323C15.2955 68.3787 15.5986 67.6421 15.7506 67.5794C15.5552 67.654 15.7018 68.7122 15.5986 68.8858C15.446 69.1559 15.5699 69.2461 15.8752 69.3172C16.3447 69.4156 15.9605 69.5631 16.0245 69.7321C16.0965 69.9298 16.0853 69.9951 16.3094 70.0472C16.3906 70.0663 16.4311 70.1069 16.4362 70.1884C16.4378 70.3434 16.2149 70.5708 16.0182 70.5318C15.8367 70.5508 15.5146 70.6709 15.703 70.8261C15.8751 70.9651 16.1922 70.8465 16.3591 70.987C16.532 71.1258 16.471 71.4121 16.4153 71.6348C16.4662 71.7761 16.5282 71.9145 16.6707 71.9892C16.7822 71.9688 16.8464 71.9925 16.871 72.0583C16.9587 72.2931 16.7068 72.3523 16.7733 72.5931C16.8185 72.7568 16.9751 72.7965 17.0642 72.9274C17.2732 73.2427 17.366 73.725 17.1855 74.1893C17.0593 74.5144 17.0396 74.5924 17.4415 74.357C17.6133 74.0505 17.7121 74.2823 17.7655 74.4127C17.8459 74.5977 17.9693 74.8124 17.9275 75.0623C17.897 75.247 17.7195 75.4928 17.9384 75.6293C18.3316 75.3861 18.4236 75.9514 18.4226 76.159C18.4216 76.3664 17.9292 76.9689 18.0997 76.9528C18.519 76.9096 18.6734 76.8774 18.8424 77.1727C19.0918 77.6117 19.2869 78.1071 19.3925 78.6376C19.4349 78.8332 19.461 79.0332 19.4655 79.2394C19.4729 79.372 19.3233 79.5688 19.3661 79.6606C19.4196 79.7909 19.8069 79.6737 19.9446 79.7081C20.1256 79.7515 20.2737 79.866 20.3759 80.0036C20.5102 80.1946 20.5389 80.4251 20.2105 80.6711C20.4603 80.4778 20.2455 81.2834 20.2448 81.4286C20.2444 81.5116 20.7448 81.4874 20.8499 81.5725C21.0008 81.6967 21.1458 81.9054 21.1392 82.1558C21.1381 82.3842 20.7939 82.5518 20.6066 82.6968C20.6413 82.7805 20.689 82.9953 20.7617 83.0477C20.8297 82.9772 20.9003 82.937 20.9734 82.9064C21.06 82.9033 21.0969 83.1003 21.1263 83.1648C21.1557 83.2292 21.3592 83.1005 21.4508 83.1788C21.5478 83.2556 21.5932 83.3779 21.6249 83.5141C21.7312 83.9201 21.5647 84.246 21.4759 84.7265C21.3648 85.3376 21.5963 84.9937 21.9493 84.689C21.7429 84.8703 22.0267 84.9268 21.9119 85.1657C21.8901 85.2133 21.6239 85.4526 21.6373 85.4799C21.7096 85.6362 22.0329 85.3085 22.0945 85.447C22.1802 85.6307 21.9458 86.0062 21.9528 86.2427C21.9672 86.6325 22.134 86.2444 22.189 86.0427C22.2743 85.7393 22.695 85.4263 22.7232 85.7397C22.7488 86.0436 22.6249 86.5235 22.2962 86.8319C23.1164 86.0873 23.0408 88.3675 23.6221 87.8131C24.139 87.743 23.7731 88.4865 23.8687 88.854C23.9404 89.1347 24.0745 89.3672 24.1897 89.6153C24.3395 89.947 24.2884 90.4586 24.4466 90.757C24.5699 90.9924 24.8221 90.8295 24.9667 91.1419C25.0229 91.2611 25.1194 91.4416 25.0373 91.651C24.9963 91.7556 24.8036 91.902 24.8652 91.999C25.0049 92.2092 25.4396 91.7782 25.6435 91.5665C25.2195 92.0151 26.4254 93.7654 26.592 94.0096C26.7585 94.2538 27.1068 94.3752 27.2164 94.6456C27.326 94.9158 27.3622 95.2791 27.3469 95.646C27.3409 95.772 27.0178 96.6074 26.9455 96.4719C27.0446 96.6623 27.5976 95.8151 27.5626 96.3429C27.557 96.4067 27.4133 97.0475 27.527 97.0161C27.592 96.9982 27.9447 96.1857 27.9896 96.4117C28.0478 96.6858 28.0829 97.2772 27.7565 97.6575C27.7854 97.8464 28.2248 97.5801 28.3415 97.496C28.3819 97.5159 28.8629 97.6111 28.8219 97.7157C28.7071 97.9755 28.3701 98.3173 28.4662 98.5809C28.5328 98.7801 28.7413 98.733 28.7888 98.9893C28.8336 99.2361 28.73 99.4097 28.8345 99.5985C28.9633 99.8324 29.2457 99.5886 29.4259 99.7773C29.5497 99.9089 29.6482 100.244 29.3789 100.578C29.4547 100.557 30.0204 100.473 29.909 100.577C29.7759 100.707 29.3016 100.931 29.4951 101.168C29.5919 101.286 29.7709 101.174 29.8977 101.233C30.1542 101.338 30.4496 101.775 30.2173 102.284C30.3458 101.99 30.8864 102.048 30.959 102.142C30.7032 102.482 30.8436 102.526 30.9455 102.705C31.0663 102.91 31.0371 102.784 30.9114 103.067C30.7363 103.468 31.3557 103.473 31.4605 103.599C31.5331 103.693 31.3995 103.906 31.4555 104.088C31.5247 104.338 31.6699 104.506 31.7826 104.702C32.0026 105.077 32.0662 105.35 31.7651 106.117C31.8663 105.871 31.9819 105.445 32.1613 105.251C32.3706 105.017 32.2844 105.528 32.2459 105.663C32.0313 106.427 32.2424 106.41 32.7149 105.989C33.0463 105.69 32.275 107.52 32.7353 106.823C33.0404 106.366 33.3943 106.993 33.002 107.62C33.1736 107.355 33.3144 107.316 33.4768 107.292C33.558 107.27 33.5164 107.499 33.5862 107.604C33.6908 107.772 33.8536 107.665 33.9774 107.796C34.1012 107.928 34.0212 108.271 34.1098 108.402C34.2199 108.569 34.3463 108.71 34.4838 108.807C34.6994 108.955 34.9158 108.957 35.0278 109.299C35.081 109.471 34.9215 110.033 34.9591 110.085C35.0102 110.164 35.3314 109.703 35.4478 109.681C35.6102 109.657 35.4457 110.137 35.3744 110.344C35.3058 110.539 34.8801 111.361 35.1756 111.207C35.4169 111.068 35.6592 110.742 35.8753 110.786C36.1563 110.833 35.6255 112.14 36.0979 111.74C36.3857 111.495 36.6339 112.203 36.7275 112.437C36.8211 112.67 36.8574 112.992 37.0356 113.046C37.0815 113.064 37.6017 112.859 37.5472 112.957C37.4408 113.141 37.2728 113.209 37.2741 113.509C37.2787 113.673 37.3431 113.78 37.4023 113.846C37.5261 113.978 37.7881 114.061 37.9876 113.602C37.3778 115.024 38.2633 113.65 38.3726 113.983C38.4685 114.288 38.2056 114.982 38.3555 115.293C38.3984 115.385 38.6697 115.207 38.7562 115.224C39.1183 115.269 38.7368 115.872 39.0905 115.992C39.3174 116.054 39.4769 116.082 39.6433 116.347C39.6943 116.426 39.7488 116.919 39.7649 116.936C40.072 117.182 40.7742 116.242 40.8948 117.038C40.9579 117.435 40.7655 117.52 40.9377 117.7C41.0411 117.568 41.1523 117.485 41.2387 117.524C41.2792 117.544 41.1968 117.815 41.2314 117.94C41.4764 118.743 42.5083 117.857 42.5449 119.257C42.5229 118.755 42.6526 119.351 42.5449 119.257L42.5716 119.311Z" fill="#959EC6"/>
</g>
</svg>
