<?xml version="1.0" encoding="utf-8"?>
<!-- Generator: Adobe Illustrator 21.1.0, SVG Export Plug-In . SVG Version: 6.00 Build 0)  -->
<svg version="1.1" id="Capa_1" xmlns="http://www.w3.org/2000/svg" xmlns:xlink="http://www.w3.org/1999/xlink" x="0px" y="0px"
	 viewBox="0 0 60 62" style="enable-background:new 0 0 60 62;" xml:space="preserve">
<style type="text/css">
	.st0{fill:#C19356;}
</style>
<g>
	<path class="st0" d="M14.2,58.3l-12.3,0C1,58.3,0.1,59,0,59.9C-0.1,61,0.7,62,1.8,62h12.3c0.9,0,1.8-0.7,1.9-1.6
		C16.1,59.3,15.3,58.3,14.2,58.3z"/>
	<path class="st0" d="M14.2,49.9H1.9c-0.9,0-1.8,0.7-1.9,1.6c-0.1,1.1,0.7,2.1,1.8,2.1h12.3c0.9,0,1.8-0.7,1.9-1.6
		C16.1,50.9,15.3,49.9,14.2,49.9z"/>
	<path class="st0" d="M14.2,41.8l-12.3,0c-0.9,0-1.8,0.7-1.9,1.6c-0.1,1.1,0.7,2.1,1.8,2.1l12.3,0c0.9,0,1.8-0.7,1.9-1.6
		C16.1,42.7,15.3,41.8,14.2,41.8z"/>
	<path class="st0" d="M14.2,33.4H1.9C1,33.4,0.1,34,0,35C-0.1,36.1,0.7,37,1.8,37h12.3c0.9,0,1.8-0.7,1.9-1.6
		C16.1,34.3,15.3,33.4,14.2,33.4z"/>
	<path class="st0" d="M14.2,25L1.9,25C1,25,0.1,25.6,0,26.6c-0.1,1.1,0.7,2.1,1.8,2.1l12.3,0c0.9,0,1.8-0.7,1.9-1.6
		C16.1,25.9,15.3,25,14.2,25z"/>
	<path class="st0" d="M14.2,16.6l-12.3,0c-0.9,0-1.8,0.7-1.9,1.6c-0.1,1.1,0.7,2.1,1.8,2.1l12.3,0c0.9,0,1.8-0.7,1.9-1.6
		C16.1,17.5,15.3,16.6,14.2,16.6z"/>
	<path class="st0" d="M14.2,8.4l-12.3,0C1,8.4,0.1,9.1,0,10c-0.1,1.1,0.7,2.1,1.8,2.1l12.3,0c0.9,0,1.8-0.7,1.9-1.6
		C16.1,9.4,15.3,8.4,14.2,8.4z"/>
	<path class="st0" d="M14.2,0L1.9,0C1,0,0.1,0.7,0,1.6c-0.1,1.1,0.7,2.1,1.8,2.1l12.3,0c0.9,0,1.8-0.7,1.9-1.6C16.1,1,15.3,0,14.2,0
		z"/>
	<path class="st0" d="M36.2,58.3l-12.3,0c-0.9,0-1.8,0.7-1.9,1.6C21.9,61,22.7,62,23.8,62h12.3c0.9,0,1.8-0.7,1.9-1.6
		C38.1,59.3,37.3,58.3,36.2,58.3z"/>
	<path class="st0" d="M36.2,49.9H23.9c-0.9,0-1.8,0.7-1.9,1.6c-0.1,1.1,0.7,2.1,1.8,2.1h12.3c0.9,0,1.8-0.7,1.9-1.6
		C38.1,50.9,37.3,49.9,36.2,49.9z"/>
	<path class="st0" d="M36.2,41.8l-12.3,0c-0.9,0-1.8,0.7-1.9,1.6c-0.1,1.1,0.7,2.1,1.8,2.1l12.3,0c0.9,0,1.8-0.7,1.9-1.6
		C38.1,42.7,37.3,41.8,36.2,41.8z"/>
	<path class="st0" d="M36.2,33.4H23.9C23,33.4,22.1,34,22,35c-0.1,1.1,0.7,2.1,1.8,2.1h12.3c0.9,0,1.8-0.7,1.9-1.6
		C38.1,34.3,37.3,33.4,36.2,33.4z"/>
	<path class="st0" d="M36.2,25l-12.3,0c-0.9,0-1.8,0.7-1.9,1.6c-0.1,1.1,0.7,2.1,1.8,2.1l12.3,0c0.9,0,1.8-0.7,1.9-1.6
		C38.1,25.9,37.3,25,36.2,25z"/>
	<path class="st0" d="M58.2,58.3l-12.3,0c-0.9,0-1.8,0.7-1.9,1.6C43.9,61,44.7,62,45.8,62h12.3c0.9,0,1.8-0.7,1.9-1.6
		C60.1,59.3,59.3,58.3,58.2,58.3z"/>
	<path class="st0" d="M58.2,49.9H45.9c-0.9,0-1.8,0.7-1.9,1.6c-0.1,1.1,0.7,2.1,1.8,2.1h12.3c0.9,0,1.8-0.7,1.9-1.6
		C60.1,50.9,59.3,49.9,58.2,49.9z"/>
</g>
</svg>
