<svg xmlns="http://www.w3.org/2000/svg" version="1.1" xmlns:xlink="http://www.w3.org/1999/xlink" xmlns:svgjs="http://svgjs.com/svgjs" width="512" height="512" x="0" y="0" viewBox="0 0 24 24" style="enable-background:new 0 0 512 512" xml:space="preserve" class=""><g><g fill="#000"><path d="M16.4 19.62h-10a3.75 3.75 0 0 1-3.75-3.75v-2.5a.75.75 0 1 1 1.5 0v2.5a2.25 2.25 0 0 0 2.25 2.25h10a2.25 2.25 0 0 0 2.25-2.25v-2.5a.75.75 0 1 1 1.5 0v2.5a3.75 3.75 0 0 1-3.75 3.75z" fill="#2b96d9" data-original="#000000" class=""></path><path d="M11.4 14.88a.75.75 0 0 1-.75-.75v-9a.75.75 0 1 1 1.5 0v9a.76.76 0 0 1-.75.75z" fill="#2b96d9" data-original="#000000" class=""></path><path d="M11.4 16.12a.73.73 0 0 1-.53-.22l-4.24-4.24a.74.74 0 0 1 0-1.06.75.75 0 0 1 1.06 0l3.71 3.71 3.71-3.71a.75.75 0 1 1 1.06 1.06l-4.24 4.24a.74.74 0 0 1-.53.22z" fill="#2b96d9" data-original="#000000" class=""></path></g></g></svg>