<svg width="24" height="24" viewBox="0 0 24 24" fill="none" xmlns="http://www.w3.org/2000/svg">
<path d="M14.4 15.0971C13.5 16.1971 13 17.4971 13 18.9971C13 19.9971 13.3 20.9971 13.7 21.7971C13.2 21.8971 12.6 21.9971 12 21.9971C6.5 21.9971 2 17.4971 2 11.9971C2 6.49707 6.5 1.99707 12 1.99707C17.5 1.99707 22 6.49707 22 11.9971C22 12.4971 21.92 12.9671 21.84 13.4971L21.8 13.6971C21 13.2971 20 12.9971 19 12.9971C17.7 12.9971 16.6 13.3971 15.6 14.0971L12.5 12.1971V6.99707H11V12.9971L14.4 15.0971ZM17.74 17.7471L19 14.9971L20.25 17.7471L23 18.9971L20.25 20.2571L19 22.9971L17.74 20.2571L15 18.9971L17.74 17.7471Z" fill="white"/>
</svg>
