<svg width="24" height="24" viewBox="0 0 24 24" fill="none" xmlns="http://www.w3.org/2000/svg">
<path d="M14.4 15.1029C13.5 16.2029 13 17.5029 13 19.0029C13 20.0029 13.3 21.0029 13.7 21.8029C13.2 21.9029 12.6 22.0029 12 22.0029C6.5 22.0029 2 17.5029 2 12.0029C2 6.50293 6.5 2.00293 12 2.00293C17.5 2.00293 22 6.50293 22 12.0029C22 12.5029 21.92 12.9729 21.84 13.5029L21.8 13.7029C21 13.3029 20 13.0029 19 13.0029C17.7 13.0029 16.6 13.4029 15.6 14.1029L12.5 12.2029V7.00293H11V13.0029L14.4 15.1029ZM17.74 17.7529L19 15.0029L20.25 17.7529L23 19.0029L20.25 20.2629L19 23.0029L17.74 20.2629L15 19.0029L17.74 17.7529Z" fill="black"/>
</svg>
