<svg width="46" height="46" viewBox="0 0 46 46" fill="none" xmlns="http://www.w3.org/2000/svg">
<path d="M22.7266 16.712C19.0178 16.712 16.0278 19.7307 16.0278 23.4107C16.0278 27.0907 19.0466 30.1095 22.7266 30.1095C26.4066 30.1095 29.4253 27.0907 29.4253 23.4107C29.4253 19.7307 26.4066 16.712 22.7266 16.712ZM42.8516 23.4107C42.8516 20.622 42.8516 17.8907 42.7078 15.102C42.5641 11.882 41.8166 9.00696 39.4591 6.67821C37.1016 4.32071 34.2553 3.57321 31.0353 3.42946C28.2466 3.28571 25.5153 3.28571 22.7266 3.28571C19.9378 3.28571 17.2066 3.28571 14.4178 3.42946C11.1978 3.57321 8.32281 4.32071 5.99406 6.67821C3.63656 9.03571 2.88906 11.882 2.74531 15.102C2.60156 17.8907 2.60156 20.622 2.60156 23.4107C2.60156 26.1995 2.60156 28.9307 2.74531 31.7195C2.88906 34.9395 3.63656 37.8145 5.99406 40.1432C8.35156 42.5007 11.1978 43.2482 14.4178 43.392C17.2066 43.5357 19.9378 43.5357 22.7266 43.5357C25.5153 43.5357 28.2466 43.5357 31.0353 43.392C34.2553 43.2482 37.1303 42.5007 39.4591 40.1432C41.8166 37.7857 42.5641 34.9395 42.7078 31.7195C42.8803 28.9595 42.8516 26.1995 42.8516 23.4107ZM22.7266 33.732C17.0053 33.732 12.4053 29.132 12.4053 23.4107C12.4053 17.6895 17.0053 13.0895 22.7266 13.0895C28.4478 13.0895 33.0478 17.6895 33.0478 23.4107C33.0478 29.132 28.4478 33.732 22.7266 33.732ZM33.4791 15.0732C32.1566 15.0732 31.0641 14.0095 31.0641 12.6582C31.0641 11.307 32.1278 10.2432 33.4791 10.2432C34.8303 10.2432 35.8941 11.307 35.8941 12.6582C35.9013 12.9731 35.8438 13.2862 35.7252 13.578C35.6065 13.8697 35.4291 14.134 35.2041 14.3545C34.9836 14.5795 34.7194 14.7569 34.4276 14.8755C34.1358 14.9942 33.8227 15.0517 33.5078 15.0445L33.4791 15.0732Z" fill="white"/>
</svg>
