<svg width="28" height="28" viewBox="0 0 28 28" fill="none" xmlns="http://www.w3.org/2000/svg">
<path d="M9.53135 3.21723C10.9489 2.63384 12.4667 2.33266 13.9997 2.33057C15.528 2.33057 17.0447 2.6339 18.468 3.21723C19.8797 3.80057 21.163 4.6639 22.248 5.7489C23.333 6.8339 24.1963 8.11723 24.7797 9.5289C25.363 10.9522 25.6663 12.4689 25.6663 13.9972C25.6663 17.0889 24.4413 20.0639 22.248 22.2456C21.1659 23.3303 19.8802 24.1907 18.4648 24.7773C17.0493 25.3639 15.5319 25.6652 13.9997 25.6639C12.4667 25.6618 10.9489 25.3606 9.53135 24.7772C8.11706 24.1902 6.83252 23.3299 5.75135 22.2456C4.66657 21.1635 3.80619 19.8778 3.21958 18.4623C2.63297 17.0468 2.33168 15.5294 2.33301 13.9972C2.33301 10.9056 3.55801 7.93057 5.75135 5.7489C6.83635 4.6639 8.11968 3.80057 9.53135 3.21723ZM13.9997 19.8306L15.8197 15.8406L19.833 13.9972L15.8197 12.1772L13.9997 8.1639L12.168 12.1772L8.16635 13.9972L12.168 15.8406L13.9997 19.8306Z" fill="white"/>
</svg>
