<svg width="28" height="28" viewBox="0 0 28 28" fill="none" xmlns="http://www.w3.org/2000/svg">
<path d="M9.53135 3.22309C10.9489 2.6397 12.4667 2.33852 13.9997 2.33643C15.528 2.33643 17.0447 2.63976 18.468 3.22309C19.8797 3.80643 21.163 4.66976 22.248 5.75476C23.333 6.83976 24.1963 8.12309 24.7797 9.53476C25.363 10.9581 25.6663 12.4748 25.6663 14.0031C25.6663 17.0948 24.4413 20.0698 22.248 22.2514C21.1659 23.3362 19.8802 24.1966 18.4648 24.7832C17.0493 25.3698 15.5319 25.6711 13.9997 25.6698C12.4667 25.6677 10.9489 25.3665 9.53135 24.7831C8.11706 24.1961 6.83252 23.3358 5.75135 22.2514C4.66657 21.1693 3.80619 19.8836 3.21958 18.4682C2.63297 17.0527 2.33168 15.5353 2.33301 14.0031C2.33301 10.9114 3.55801 7.93643 5.75135 5.75476C6.83635 4.66976 8.11968 3.80643 9.53135 3.22309ZM13.9997 19.8364L15.8197 15.8464L19.833 14.0031L15.8197 12.1831L13.9997 8.16976L12.168 12.1831L8.16635 14.0031L12.168 15.8464L13.9997 19.8364Z" fill="black"/>
</svg>
