<svg width="28" height="28" viewBox="0 0 28 28" fill="none" xmlns="http://www.w3.org/2000/svg">
<path d="M15.1666 4.66976V2.33643C20.6033 2.91976 24.8849 7.22476 25.4916 12.6614C26.1916 19.0664 21.5833 24.8298 15.1666 25.5298V23.1964C19.4133 22.6714 22.7499 19.3231 23.2866 15.0764C23.4377 13.8598 23.3475 12.6253 23.0211 11.4436C22.6947 10.2619 22.1385 9.15609 21.3843 8.18953C20.6301 7.22296 19.6928 6.41458 18.6259 5.81062C17.559 5.20667 16.3835 4.81899 15.1666 4.66976ZM6.61493 4.90309C8.3833 3.44311 10.5499 2.54881 12.8333 2.33643V4.73976C11.1649 4.97309 9.58993 5.64976 8.28327 6.69976L6.61493 4.90309ZM2.3916 12.8364C2.60825 10.552 3.50656 8.38554 4.96994 6.61809L6.63827 8.28643C5.60458 9.60441 4.94379 11.1758 4.72494 12.8364H2.3916ZM4.9816 21.3881C3.53223 19.6122 2.63575 17.4502 2.40327 15.1698H4.7366C4.9466 16.8264 5.6116 18.4014 6.63827 19.7198L4.9816 21.3881ZM6.61493 23.0331L8.2366 21.4348H8.28327C9.6016 22.4614 11.1766 23.1264 12.8333 23.3364V25.6698C10.5466 25.4248 8.3766 24.5031 6.61493 23.0331ZM13.9999 19.8364L15.8199 15.8464L19.8333 14.0031L15.8199 12.1831L13.9999 8.16976L12.1683 12.1831L8.1666 14.0031L12.1683 15.8464L13.9999 19.8364Z" fill="black"/>
</svg>
