<svg width="28" height="28" viewBox="0 0 28 28" fill="none" xmlns="http://www.w3.org/2000/svg">
<g clip-path="url(#clip0_75_536)">
<path d="M15.1666 2.33626V0.00292969C20.6033 0.586263 24.8849 4.89126 25.4916 10.3279C26.1916 16.7329 21.5833 22.4963 15.1666 23.1963V20.8629C19.4133 20.3379 22.7499 16.9896 23.2866 12.7429C23.4377 11.5263 23.3475 10.2918 23.0211 9.11009C22.6947 7.92836 22.1385 6.82259 21.3843 5.85603C20.6301 4.88947 19.6928 4.08109 18.6259 3.47713C17.559 2.87317 16.3835 2.48549 15.1666 2.33626ZM6.61493 2.5696C8.3833 1.10962 10.5499 0.215318 12.8333 0.00292969V2.40626C11.1649 2.6396 9.58993 3.31626 8.28327 4.36626L6.61493 2.5696ZM2.3916 10.5029C2.60825 8.21855 3.50656 6.05204 4.96994 4.2846L6.63827 5.95293C5.60458 7.27091 4.94379 8.8423 4.72494 10.5029H2.3916ZM4.9816 19.0546C3.53223 17.2788 2.63575 15.1167 2.40327 12.8363H4.7366C4.9466 14.4929 5.6116 16.0679 6.63827 17.3863L4.9816 19.0546ZM6.61493 20.6996L8.2366 19.1013H8.28327C9.6016 20.1279 11.1766 20.7929 12.8333 21.0029V23.3363C10.5466 23.0913 8.3766 22.1696 6.61493 20.6996ZM13.9999 17.5029L15.8199 13.5129L19.8333 11.6696L15.8199 9.8496L13.9999 5.83626L12.1683 9.8496L8.1666 11.6696L12.1683 13.5129L13.9999 17.5029Z" fill="white"/>
</g>
<defs>
<clipPath id="clip0_75_536">
<rect width="28" height="28" fill="white" transform="translate(0 0.00585938)"/>
</clipPath>
</defs>
</svg>
