<svg width="44" height="44" viewBox="0 0 44 44" fill="none" xmlns="http://www.w3.org/2000/svg">
<g clip-path="url(#clip0_75_431)">
<path fill-rule="evenodd" clip-rule="evenodd" d="M35.7341 8.59633C36.1871 8.40565 36.683 8.33989 37.1701 8.40588C37.6572 8.47188 38.1177 8.66723 38.5037 8.97159C38.8897 9.27595 39.187 9.67821 39.3648 10.1365C39.5425 10.5948 39.5942 11.0923 39.5144 11.5773L35.3564 36.7985C34.9531 39.2313 32.2838 40.6265 30.0526 39.4147C28.1863 38.4008 25.4143 36.8388 22.9209 35.209C21.6743 34.3932 17.8554 31.7807 18.3248 29.9217C18.7281 28.3322 25.1448 22.3592 28.8114 18.808C30.2506 17.4128 29.5943 16.608 27.8948 17.8913C23.6726 21.0777 16.8984 25.9232 14.6581 27.2872C12.6818 28.4898 11.6514 28.6952 10.4194 28.4898C8.17175 28.1158 6.08725 27.5365 4.38592 26.8307C2.08692 25.8773 2.19875 22.7167 4.38409 21.7963L35.7341 8.59633Z" fill="white"/>
</g>
<defs>
<clipPath id="clip0_75_431">
<rect width="44" height="44" fill="white" transform="translate(-0.523438)"/>
</clipPath>
</defs>
</svg>
