<svg width="41" height="41" viewBox="0 0 41 41" fill="none" xmlns="http://www.w3.org/2000/svg">
<path d="M26.7997 0H14.2208C2.73265 0 0 2.73265 0 14.2003V26.7791C0 38.2653 2.71215 41 14.2003 41H26.7791C38.2653 41 41 38.2878 41 26.7997V14.2208C41 2.73265 38.2878 0 26.7997 0ZM33.0993 29.2535H30.1084C28.9767 29.2535 28.6364 28.3372 26.6069 26.3076C24.8357 24.6 24.0875 24.3868 23.6385 24.3868C23.0194 24.3868 22.8493 24.5569 22.8493 25.4118V28.1014C22.8493 28.8291 22.6136 29.2555 20.7132 29.2555C18.8689 29.1316 17.0804 28.5713 15.4951 27.6207C13.9098 26.6702 12.573 25.3566 11.5948 23.7882C9.2725 20.8977 7.65663 17.5052 6.8757 13.8805C6.8757 13.4316 7.04585 13.0257 7.9007 13.0257H10.8896C11.6583 13.0257 11.9351 13.368 12.2364 14.1573C13.6878 18.4295 16.1642 22.1441 17.1687 22.1441C17.5541 22.1441 17.7222 21.9739 17.7222 21.0125V16.6132C17.5951 14.6062 16.5291 14.4361 16.5291 13.7104C16.5428 13.519 16.6306 13.3404 16.7737 13.2126C16.9168 13.0848 17.1041 13.0177 17.2959 13.0257H21.9944C22.6361 13.0257 22.8493 13.3455 22.8493 14.1143V20.0511C22.8493 20.6927 23.126 20.9059 23.3188 20.9059C23.7041 20.9059 24.0014 20.6927 24.7066 19.9875C26.2213 18.1403 27.4588 16.0824 28.3802 13.8785C28.4744 13.6138 28.6526 13.3871 28.8876 13.2331C29.1227 13.0792 29.4016 13.0063 29.6819 13.0257H32.6729C33.5687 13.0257 33.7594 13.4747 33.5687 14.1143C32.4812 16.5505 31.1355 18.8632 29.5548 21.0125C29.233 21.5045 29.1038 21.7607 29.5548 22.3368C29.8521 22.7857 30.8996 23.6611 31.6048 24.4934C32.6297 25.5156 33.4807 26.6983 34.1243 27.9948C34.3806 28.8271 33.9521 29.2535 33.0993 29.2535Z" fill="white"/>
</svg>
