<?xml version="1.0" encoding="utf-8"?>
<!-- Generator: Adobe Illustrator 21.1.0, SVG Export Plug-In . SVG Version: 6.00 Build 0)  -->
<svg version="1.1" id="Capa_1" xmlns="http://www.w3.org/2000/svg" xmlns:xlink="http://www.w3.org/1999/xlink" x="0px" y="0px"
	 viewBox="0 0 13 13" style="enable-background:new 0 0 13 13;" xml:space="preserve">
<style type="text/css">
	.st0{fill:#F6C125;}
</style>
<g>
	<path class="st0" d="M2.1,5.4V4.6c0-0.4,0.4-0.8,0.8-0.8h7.2c0.4,0,0.8,0.4,0.8,0.8v0.8l1-1c0,0,0.1-0.1,0.1-0.2
		c0-0.1,0-0.1-0.1-0.2L7,0.2c-0.3-0.2-0.7-0.2-1,0L1.1,4c0,0-0.1,0.1-0.1,0.2c0,0.1,0,0.1,0.1,0.2L2.1,5.4z"/>
	<path class="st0" d="M12.9,5c-0.1,0-0.2,0-0.2,0l-5.4,5.5c-0.2,0.2-0.5,0.3-0.8,0.3c-0.3,0-0.6-0.1-0.8-0.3L0.4,5
		C0.3,5,0.2,5,0.1,5C0.1,5,0,5.1,0,5.2v6.9C0,12.6,0.4,13,0.9,13h11.3c0.5,0,0.9-0.4,0.9-0.9V5.2C13,5.1,12.9,5,12.9,5z"/>
	<path class="st0" d="M8.9,5H4.1C3.9,5,3.7,5.2,3.7,5.5c0,0.2,0.2,0.4,0.4,0.4h4.8c0.2,0,0.4-0.2,0.4-0.4C9.3,5.2,9.1,5,8.9,5z"/>
	<path class="st0" d="M8.9,6.8H4.1C3.9,6.8,3.7,7,3.7,7.2c0,0.2,0.2,0.4,0.4,0.4h4.8c0.2,0,0.4-0.2,0.4-0.4C9.3,7,9.1,6.8,8.9,6.8z"
		/>
</g>
</svg>
