<?xml version="1.0" standalone="no"?>
<!DOCTYPE svg PUBLIC "-//W3C//DTD SVG 1.1//EN" "http://www.w3.org/Graphics/SVG/1.1/DTD/svg11.dtd" >
<svg xmlns="http://www.w3.org/2000/svg" xmlns:xlink="http://www.w3.org/1999/xlink" version="1.1">
<metadata>
Created by FontForge 20170731 at Tue Jul  2 15:57:45 2019
 By Aleksey,,,
Copyright (c) 2019 by Art. Lebedev Studio. All rights reserved.
</metadata>
<defs>
<font id="ALSHauss-Regular" horiz-adv-x="614" >
  <font-face 
    font-family="ALS Hauss"
    font-weight="400"
    font-stretch="normal"
    units-per-em="1000"
    panose-1="2 0 0 0 0 0 0 0 0 0"
    ascent="800"
    descent="-200"
    x-height="504"
    cap-height="704"
    bbox="-174 -262 1219 962"
    underline-thickness="50"
    underline-position="-250"
    unicode-range="U+000D-277E"
  />
<missing-glyph horiz-adv-x="611" 
d="M55 704h501v-704h-501v704zM433 582h-256v-460h256v460z" />
    <glyph glyph-name=".notdef" horiz-adv-x="611" 
d="M55 704h501v-704h-501v704zM433 582h-256v-460h256v460z" />
    <glyph glyph-name="uni0000" horiz-adv-x="0" 
 />
    <glyph glyph-name="uni0000" horiz-adv-x="0" 
 />
    <glyph glyph-name="uni000D" unicode="&#xd;" horiz-adv-x="220" 
 />
    <glyph glyph-name="space" unicode=" " horiz-adv-x="220" 
 />
    <glyph glyph-name="exclam" unicode="!" horiz-adv-x="304" 
d="M111 210l-6 494h93l-6 -494h-81zM152 111q26 0 44 -17.5t18 -43.5t-18 -43.5t-44 -17.5t-44 17.5t-18 43.5t18 43.5t44 17.5z" />
    <glyph glyph-name="quotedbl" unicode="&#x22;" horiz-adv-x="423" 
d="M260 433v271h84l-6 -271h-78zM79 433v271h84l-6 -271h-78z" />
    <glyph glyph-name="numbersign" unicode="#" horiz-adv-x="721" 
d="M671 516v-74h-129l-32 -181h116v-74h-129l-32 -187h-77l32 187h-176l-32 -187h-77l32 187h-117v74h129l32 181h-117v74h129l33 188h78l-33 -188h175l33 188h78l-33 -188h117zM288 442l-31 -181h176l31 181h-176z" />
    <glyph glyph-name="dollar" unicode="$" horiz-adv-x="592" 
d="M49 191h87q29 -86 124 -103v233l-32 6q-80 13 -124.5 60.5t-44.5 116.5q0 81 57 132.5t144 60.5v89h73v-91q78 -10 131 -55t68 -121h-86q-26 81 -113 97v-223l33 -5q177 -31 177 -180q0 -87 -58 -140.5t-152 -60.5v-95h-73v97q-86 10 -142.5 56.5t-68.5 125.5zM349 307
l-16 2v-224q56 6 89.5 37t33.5 81q0 86 -107 104zM146 508q0 -38 25.5 -64.5t72.5 -34.5l16 -3v212q-50 -7 -82 -35.5t-32 -74.5z" />
    <glyph glyph-name="percent" unicode="%" horiz-adv-x="869" 
d="M136 0l505 704h92l-505 -704h-92zM206 644q-40 0 -64 -30.5t-24 -77.5t24 -77.5t64 -30.5t64 30.5t24 77.5t-24 77.5t-64 30.5zM40 536q0 77 46.5 128t119.5 51t119.5 -51t46.5 -128t-46.5 -128t-119.5 -51t-119.5 51t-46.5 128zM663 276q-40 0 -64 -30.5t-24 -77.5
t24 -77.5t64 -30.5t64 30.5t24 77.5t-24 77.5t-64 30.5zM497 168q0 77 46.5 128t119.5 51t119.5 -51t46.5 -128t-46.5 -128t-119.5 -51t-119.5 51t-46.5 128z" />
    <glyph glyph-name="ampersand" unicode="&#x26;" horiz-adv-x="726" 
d="M699 313l-134 -166l136 -147h-109l-82 89l-9 -9q-91 -91 -215 -91q-105 0 -168 59t-63 146q0 136 167 202l-12 13q-36 37 -55 69t-19 73q0 69 52 116.5t132 47.5q78 0 127 -46t49 -117q0 -110 -142 -178l159 -171l85 110h101zM453 138l6 6l-184 200q-129 -51 -129 -147
q0 -58 38 -93.5t107 -35.5q95 0 162 70zM221 554q0 -47 53 -100l28 -28q111 50 111 127q0 40 -27 63.5t-68 23.5q-42 0 -69.5 -24t-27.5 -62z" />
    <glyph glyph-name="quotesingle" unicode="'" horiz-adv-x="242" 
d="M79 433v271h84l-6 -271h-78z" />
    <glyph glyph-name="parenleft" unicode="(" horiz-adv-x="345" 
d="M315 727q-146 -203 -146 -443q0 -239 146 -442h-87q-62 78 -105 193t-43 249t43 249.5t105 193.5h87z" />
    <glyph glyph-name="parenright" unicode=")" horiz-adv-x="345" 
d="M30 727h87q62 -78 105 -193.5t43 -249.5t-43 -249t-105 -193h-87q146 203 146 442q0 240 -146 443z" />
    <glyph glyph-name="asterisk" unicode="*" horiz-adv-x="440" 
d="M255 715l-3 -139l133 45l21 -65l-133 -42l83 -112l-56 -39l-80 113l-81 -113l-55 39l83 112l-133 42l21 65l132 -45l-2 139h70z" />
    <glyph glyph-name="plus" unicode="+" 
d="M265 512h83v-201h194v-82h-194v-202h-83v202h-193v82h193v201z" />
    <glyph glyph-name="comma" unicode="," horiz-adv-x="264" 
d="M194 46q0 -21 -9 -45l-60 -163h-71l56 157q-42 13 -42 55q0 25 17.5 42t43.5 17q27 0 46 -18t19 -45z" />
    <glyph glyph-name="hyphen" unicode="-" horiz-adv-x="421" 
d="M55 229v82h311v-82h-311z" />
    <glyph glyph-name="period" unicode="." horiz-adv-x="264" 
d="M132 111q26 0 44 -17.5t18 -43.5t-18 -43.5t-44 -17.5t-44 17.5t-18 43.5t18 43.5t44 17.5z" />
    <glyph glyph-name="slash" unicode="/" horiz-adv-x="366" 
d="M271 727h85l-261 -885h-85z" />
    <glyph glyph-name="zero" unicode="0" horiz-adv-x="652" 
d="M326 715q124 0 195 -100.5t71 -262.5t-71 -262.5t-195 -100.5t-195 100.5t-71 262.5t71 262.5t195 100.5zM326 71q83 0 129 79t46 202t-46 202t-129 79t-129 -79t-46 -202t46 -202t129 -79z" />
    <glyph glyph-name="one" unicode="1" horiz-adv-x="446" 
d="M321 704v-704h-89v600l-177 -111v93l186 122h80z" />
    <glyph glyph-name="two" unicode="2" horiz-adv-x="610" 
d="M442 508q0 54 -38 89.5t-98 35.5q-62 0 -101.5 -32t-51.5 -88h-88q12 91 77.5 146.5t165.5 55.5q101 0 163 -59.5t62 -147.5q0 -38 -10.5 -71.5t-33.5 -64.5t-42.5 -51.5t-53.5 -51.5l-203 -187h360v-82h-483v77l266 249q59 55 84 92.5t25 89.5z" />
    <glyph glyph-name="three" unicode="3" 
d="M65 524q14 92 81 141.5t159 49.5q103 0 165 -55t62 -140q0 -59 -32 -97t-73 -54q47 -11 88.5 -54t41.5 -116q0 -89 -69 -149.5t-174 -60.5q-103 0 -174 52t-83 145h90q11 -52 55.5 -83.5t111.5 -31.5t109.5 36t42.5 94q0 59 -44.5 90t-113.5 31h-87v81h81q64 0 101.5 33
t37.5 83q0 51 -36 82.5t-100 31.5q-60 0 -99.5 -29t-51.5 -80h-89z" />
    <glyph glyph-name="four" unicode="4" horiz-adv-x="648" 
d="M495 0h-89v165h-356v72l339 467h106v-460h103v-79h-103v-165zM149 244h257v354z" />
    <glyph glyph-name="five" unicode="5" horiz-adv-x="623" 
d="M318 71q70 0 113 43.5t43 114.5q0 68 -44.5 109.5t-108.5 41.5q-98 0 -155 -78h-90l34 402h416v-82h-340l-20 -229q63 68 169 68q93 0 161.5 -63.5t68.5 -167.5q0 -108 -70 -174.5t-176 -66.5q-103 0 -170.5 55.5t-78.5 135.5h91q10 -42 50.5 -75.5t106.5 -33.5z" />
    <glyph glyph-name="six" unicode="6" horiz-adv-x="630" 
d="M345 461q94 0 162 -64t68 -168q0 -106 -69.5 -173t-172.5 -67q-133 0 -203 96t-70 261q0 183 76.5 276t198.5 93q93 0 154.5 -51.5t73.5 -122.5h-91q-11 38 -45.5 65t-91.5 27q-84 0 -134.5 -68t-52.5 -213q28 53 81 81t116 28zM330 71q66 0 110 43.5t44 112.5
q0 68 -44.5 110.5t-109.5 42.5q-66 0 -111 -42.5t-45 -110.5q0 -69 45 -112.5t111 -43.5z" />
    <glyph glyph-name="seven" unicode="7" horiz-adv-x="559" 
d="M509 627l-287 -627h-100l287 622h-369v82h469v-77z" />
    <glyph glyph-name="eight" unicode="8" horiz-adv-x="627" 
d="M60 192q0 71 42.5 117t89.5 58q-43 18 -76.5 56.5t-33.5 101.5q0 82 64 136t168 54q103 0 167 -54t64 -136q0 -63 -33.5 -101.5t-76.5 -56.5q47 -12 89.5 -58t42.5 -117q0 -91 -70.5 -147t-182.5 -56t-183 56t-71 147zM455 518q0 53 -39 85t-102 32q-64 0 -103 -32
t-39 -85q0 -52 41 -84.5t101 -32.5t100.5 32.5t40.5 84.5zM476 196q0 59 -46 94.5t-116 35.5q-71 0 -117 -35.5t-46 -94.5q0 -57 44.5 -92t118.5 -35q73 0 117.5 35t44.5 92z" />
    <glyph glyph-name="nine" unicode="9" horiz-adv-x="630" 
d="M285 243q-94 0 -162 64t-68 168q0 106 69.5 173t172.5 67q133 0 203 -96t70 -261q0 -183 -76.5 -276t-198.5 -93q-93 0 -154.5 51.5t-73.5 122.5h91q11 -38 45.5 -65t91.5 -27q84 0 134.5 68t52.5 212q-29 -53 -81.5 -80.5t-115.5 -27.5zM300 633q-66 0 -110 -43.5
t-44 -112.5q0 -68 44.5 -110.5t109.5 -42.5q66 0 111 42.5t45 110.5q0 69 -45 112.5t-111 43.5z" />
    <glyph glyph-name="colon" unicode=":" horiz-adv-x="264" 
d="M132 111q26 0 44 -17.5t18 -43.5t-18 -43.5t-44 -17.5t-44 17.5t-18 43.5t18 43.5t44 17.5zM132 489q26 0 44 -17.5t18 -43.5t-18 -43.5t-44 -17.5t-44 17.5t-18 43.5t18 43.5t44 17.5z" />
    <glyph glyph-name="semicolon" unicode=";" horiz-adv-x="264" 
d="M194 46q0 -21 -9 -45l-60 -163h-71l56 157q-42 13 -42 55q0 25 17.5 42t43.5 17q27 0 46 -18t19 -45zM131 489q26 0 44 -17.5t18 -43.5t-18 -43.5t-44 -17.5t-44 17.5t-18 43.5t18 43.5t44 17.5z" />
    <glyph glyph-name="less" unicode="&#x3c;" 
d="M540 19l-465 215v71l465 215v-86l-357 -165l357 -164v-86z" />
    <glyph glyph-name="equal" unicode="=" 
d="M83 331v79h447v-79h-447zM83 127v79h447v-79h-447z" />
    <glyph glyph-name="greater" unicode="&#x3e;" 
d="M75 19v86l357 164l-357 165v86l465 -215v-71z" />
    <glyph glyph-name="question" unicode="?" horiz-adv-x="531" 
d="M390 527q0 48 -34.5 78t-90.5 30q-109 0 -141 -105h-87q13 81 73.5 133t155.5 52q97 0 155.5 -52t58.5 -132q0 -30 -7.5 -55.5t-16 -41t-28 -34t-28 -25t-32.5 -23.5q-5 -4 -17.5 -12.5t-17 -12t-14.5 -11.5t-14 -13t-10 -13.5t-8.5 -16.5t-4.5 -19t-2 -23v-21h-84v26
q0 43 15 75t33.5 48.5t56.5 42.5q30 21 45.5 34t29.5 37.5t14 53.5zM241 111q26 0 44 -17.5t18 -43.5t-18 -43.5t-44 -17.5t-44 17.5t-18 43.5t18 43.5t44 17.5z" />
    <glyph glyph-name="at" unicode="@" horiz-adv-x="907" 
d="M473 693q170 0 278.5 -109.5t108.5 -276.5q0 -122 -47.5 -177t-119.5 -55q-86 0 -118 70q-46 -73 -140 -73q-76 0 -129.5 56.5t-53.5 153.5q0 92 54 149.5t132 57.5q84 0 125 -63v53h79v-265q0 -30 16.5 -49t43.5 -19q77 0 77 161q0 139 -83.5 226t-223.5 87
q-142 0 -237.5 -92t-95.5 -253q0 -158 98.5 -245.5t253.5 -87.5q94 0 163 28v-74q-64 -27 -164 -27q-191 0 -311.5 109t-120.5 297q0 191 119 304.5t296 113.5zM448 145q50 0 82.5 35t32.5 97v8q0 59 -32 95t-83 36q-49 0 -80.5 -36t-31.5 -98q0 -63 31 -100t81 -37z" />
    <glyph glyph-name="A" unicode="A" horiz-adv-x="664" 
d="M286 704h92l266 -704h-96l-69 186h-296l-67 -186h-96zM331 591l-118 -323h236z" />
    <glyph glyph-name="B" unicode="B" horiz-adv-x="635" 
d="M88 0v704h261q99 0 155 -51.5t56 -130.5q0 -60 -27 -99.5t-65 -54.5q46 -13 82.5 -56t36.5 -113q0 -89 -63 -144t-169 -55h-267zM354 323h-178v-243h173q67 0 107 32t40 89q0 56 -38.5 89t-103.5 33zM338 624h-162v-222h168q61 0 93.5 31t32.5 80q0 52 -35 81.5t-97 29.5
z" />
    <glyph glyph-name="C" unicode="C" horiz-adv-x="706" 
d="M569 220h90q-6 -40 -26 -79t-54 -74t-89 -56.5t-121 -21.5q-140 0 -228.5 101.5t-88.5 261.5q0 159 88 261t229 102q120 0 195.5 -65t92.5 -165h-90q-19 66 -67.5 106.5t-130.5 40.5q-103 0 -164.5 -78t-61.5 -202q0 -123 61 -201.5t164 -78.5q85 0 137 45.5t64 102.5z
" />
    <glyph glyph-name="D" unicode="D" horiz-adv-x="708" 
d="M307 704q164 0 256.5 -93.5t92.5 -258.5t-92.5 -258.5t-256.5 -93.5h-219v704h219zM296 81q133 0 201 70.5t68 200.5t-68 200.5t-201 70.5h-119v-542h119z" />
    <glyph glyph-name="E" unicode="E" horiz-adv-x="594" 
d="M534 622h-357v-220h338v-81h-338v-239h357v-82h-446v704h446v-82z" />
    <glyph glyph-name="F" unicode="F" horiz-adv-x="587" 
d="M177 0h-89v704h444v-82h-355v-233h331v-81h-331v-308z" />
    <glyph glyph-name="G" unicode="G" horiz-adv-x="723" 
d="M362 362h304v-73q0 -132 -79 -216t-215 -84q-140 0 -230 101t-90 262t89 262t233 101q115 0 190.5 -63.5t95.5 -160.5h-92q-45 141 -194 141q-105 0 -168 -76.5t-63 -203.5q0 -128 64.5 -204.5t166.5 -76.5q93 0 148 56.5t55 149.5v5h-215v80z" />
    <glyph glyph-name="H" unicode="H" horiz-adv-x="730" 
d="M177 0h-89v704h89v-301h376v301h89v-704h-89v320h-376v-320z" />
    <glyph glyph-name="I" unicode="I" horiz-adv-x="265" 
d="M177 704v-704h-89v704h89z" />
    <glyph glyph-name="J" unicode="J" horiz-adv-x="540" 
d="M32 181h88q4 -40 33.5 -74.5t86.5 -34.5q63 0 94.5 42.5t31.5 112.5v477h89v-477q0 -113 -56.5 -175.5t-159.5 -62.5q-96 0 -151 58.5t-56 133.5z" />
    <glyph glyph-name="K" unicode="K" horiz-adv-x="626" 
d="M177 0h-89v704h89v-314l313 314h115l-334 -337l340 -367h-118l-316 336v-336z" />
    <glyph glyph-name="L" unicode="L" horiz-adv-x="572" 
d="M177 704v-622h357v-82h-446v704h89z" />
    <glyph glyph-name="M" unicode="M" horiz-adv-x="893" 
d="M88 704h108l251 -589l251 589h107v-704h-87v541l-230 -541h-82l-231 541v-541h-87v704z" />
    <glyph glyph-name="N" unicode="N" horiz-adv-x="733" 
d="M184 704l374 -558v558h87v-704h-87l-383 570v-570h-87v704h96z" />
    <glyph glyph-name="O" unicode="O" horiz-adv-x="752" 
d="M376 715q146 0 235 -102t89 -261t-89 -261t-235 -102t-235 102t-89 261t89 261t235 102zM376 72q107 0 170 77.5t63 202.5t-63 202.5t-170 77.5t-170 -77.5t-63 -202.5t63 -202.5t170 -77.5z" />
    <glyph glyph-name="P" unicode="P" horiz-adv-x="613" 
d="M333 704q109 0 171.5 -64t62.5 -160q0 -94 -63.5 -159.5t-168.5 -65.5h-158v-255h-89v704h245zM323 623h-146v-287h146q72 0 112.5 39.5t40.5 104.5t-40 104t-113 39z" />
    <glyph glyph-name="Q" unicode="Q" horiz-adv-x="752" 
d="M376 715q146 0 235 -102t89 -261q0 -187 -116 -289l84 -124h-99l-54 79q-66 -29 -139 -29q-146 0 -235 102t-89 261t89 261t235 102zM376 72q50 0 91 18l-82 123h99l51 -77q74 77 74 216q0 125 -63 202.5t-170 77.5t-170 -77.5t-63 -202.5t63 -202.5t170 -77.5z" />
    <glyph glyph-name="R" unicode="R" horiz-adv-x="634" 
d="M572 485q0 -69 -40.5 -127t-110.5 -81l187 -277h-105l-178 264h-148v-264h-89v704h252q110 0 171 -63.5t61 -155.5zM329 623h-152v-278h152q75 0 113.5 40t38.5 100q0 61 -38 99.5t-114 38.5z" />
    <glyph glyph-name="S" unicode="S" horiz-adv-x="616" 
d="M49 183h91q38 -112 180 -112q70 0 113 33.5t43 91.5q0 90 -112 108l-130 21q-84 13 -129.5 60.5t-45.5 119.5q0 95 70 152.5t172 57.5q99 0 168.5 -48.5t86.5 -139.5h-91q-33 106 -164 106q-63 0 -107 -32.5t-44 -88.5q0 -39 26.5 -65t76.5 -34l131 -22q183 -31 183 -189
q0 -99 -69.5 -156t-179.5 -57q-107 0 -180.5 50t-88.5 144z" />
    <glyph glyph-name="T" unicode="T" horiz-adv-x="623" 
d="M35 622v82h553v-82h-232v-622h-89v622h-232z" />
    <glyph glyph-name="U" unicode="U" horiz-adv-x="720" 
d="M83 276v428h89v-425q0 -101 52 -154t136 -53t136 53t52 154v425h89v-428q0 -139 -77 -213t-200 -74t-200 74t-77 213z" />
    <glyph glyph-name="V" unicode="V" horiz-adv-x="660" 
d="M640 704l-264 -704h-92l-264 704h96l214 -587l214 587h96z" />
    <glyph glyph-name="W" unicode="W" horiz-adv-x="980" 
d="M952 704l-218 -704h-84l-161 557l-161 -557h-82l-218 704h94l165 -548l160 548h86l159 -548l166 548h94z" />
    <glyph glyph-name="X" unicode="X" horiz-adv-x="658" 
d="M524 0l-197 287l-194 -287h-105l244 355l-242 349h105l195 -284l194 284h104l-242 -351l244 -353h-106z" />
    <glyph glyph-name="Y" unicode="Y" horiz-adv-x="637" 
d="M363 0h-89v276l-259 428h101l202 -338l203 338h101l-259 -428v-276z" />
    <glyph glyph-name="Z" unicode="Z" horiz-adv-x="618" 
d="M59 75l391 547h-391v82h500v-75l-392 -547h392v-82h-500v75z" />
    <glyph glyph-name="bracketleft" unicode="[" horiz-adv-x="366" 
d="M336 651h-145v-733h145v-76h-231v885h231v-76z" />
    <glyph glyph-name="backslash" unicode="\" horiz-adv-x="366" 
d="M95 727l261 -885h-85l-261 885h85z" />
    <glyph glyph-name="bracketright" unicode="]" horiz-adv-x="366" 
d="M30 -158v76h145v733h-145v76h231v-885h-231z" />
    <glyph glyph-name="asciicircum" unicode="^" horiz-adv-x="450" 
d="M423 376h-85l-113 226l-113 -226h-85l160 316h76z" />
    <glyph glyph-name="underscore" unicode="_" horiz-adv-x="483" 
d="M0 -48h483v-78h-483v78z" />
    <glyph glyph-name="grave" unicode="`" horiz-adv-x="520" 
d="M166 735h93l95 -154h-87z" />
    <glyph glyph-name="a" unicode="a" horiz-adv-x="531" 
d="M376 334q0 51 -31.5 78t-82.5 27q-91 0 -116 -67h-83q13 62 65.5 102.5t135.5 40.5q89 0 143 -48.5t54 -132.5v-334h-81v60q-57 -71 -162 -71q-75 0 -124.5 42.5t-49.5 112.5q0 73 53 114.5t145 41.5h134v34zM229 64q62 0 104.5 35t42.5 91v37h-129q-53 0 -84.5 -21
t-31.5 -61q0 -39 27 -60t71 -21z" />
    <glyph glyph-name="b" unicode="b" horiz-adv-x="595" 
d="M323 515q93 0 160 -69t67 -194q0 -126 -68 -194.5t-162 -68.5q-59 0 -101.5 22.5t-60.5 55.5v-67h-83v727h86v-290q49 78 162 78zM312 67q67 0 108.5 51t41.5 134t-41.5 134t-108.5 51q-70 0 -112 -49.5t-42 -133.5v-4q0 -84 42 -133.5t112 -49.5z" />
    <glyph glyph-name="c" unicode="c" horiz-adv-x="539" 
d="M284 67q57 0 88 28.5t41 67.5h86q-9 -71 -67.5 -122.5t-148.5 -51.5q-107 0 -172.5 73.5t-65.5 189.5q0 115 65.5 189t172.5 74q93 0 149 -52t67 -120h-86q-12 38 -44 66t-86 28q-68 0 -109 -51t-41 -134t41.5 -134t109.5 -51z" />
    <glyph glyph-name="d" unicode="d" horiz-adv-x="595" 
d="M272 -11q-93 0 -160 69t-67 194q0 126 68 194.5t162 68.5q56 0 97.5 -21.5t61.5 -52.5v286h86v-727h-83v72q-21 -36 -63 -59.5t-102 -23.5zM283 437q-67 0 -108.5 -51t-41.5 -134t41.5 -134t108.5 -51q70 0 112 49.5t42 133.5v4q0 84 -42 133.5t-112 49.5z" />
    <glyph glyph-name="e" unicode="e" horiz-adv-x="547" 
d="M502 226h-367v-2q0 -68 43 -113t112 -45q48 0 79.5 20.5t39.5 43.5h87q-12 -53 -65 -97t-142 -44q-110 0 -177 71t-67 192t66 192t171 71q101 0 160.5 -66.5t59.5 -178.5v-44zM280 438q-62 0 -100.5 -38t-43.5 -101h279q-3 65 -38.5 102t-96.5 37z" />
    <glyph glyph-name="f" unicode="f" horiz-adv-x="326" 
d="M189 0h-86v427h-86v77h86v64q0 78 41.5 118.5t118.5 40.5h35v-77h-29q-80 0 -80 -84v-62h109v-77h-109v-427z" />
    <glyph glyph-name="g" unicode="g" horiz-adv-x="595" 
d="M437 504h83v-473q0 -110 -63 -174.5t-172 -64.5q-98 0 -154 45.5t-62 107.5h85q27 -75 132 -75q71 0 109.5 43t38.5 118v46q-51 -78 -162 -78q-92 0 -159.5 68t-67.5 190q0 123 68 190.5t162 67.5q59 0 101 -22.5t61 -55.5v67zM283 77q70 0 112 49t42 129v4q0 80 -42 129
t-112 49q-67 0 -108.5 -50.5t-41.5 -129.5t41.5 -129.5t108.5 -50.5z" />
    <glyph glyph-name="h" unicode="h" horiz-adv-x="569" 
d="M311 515q80 0 134 -50t54 -148v-317h-86v305q0 66 -32 99t-86 33q-55 0 -94.5 -35t-39.5 -105v-297h-86v727h86v-278q52 66 150 66z" />
    <glyph glyph-name="i" unicode="i" horiz-adv-x="236" 
d="M161 504v-504h-86v504h86zM118 715q25 0 42 -16.5t17 -41.5t-17 -41.5t-42 -16.5t-42 16.5t-17 41.5t17 41.5t42 16.5z" />
    <glyph glyph-name="j" unicode="j" horiz-adv-x="236" 
d="M-15 -191v77h22q68 0 68 88v530h86v-534q0 -161 -140 -161h-36zM118 715q25 0 42 -16.5t17 -41.5t-17 -41.5t-42 -16.5t-42 16.5t-17 41.5t17 41.5t42 16.5z" />
    <glyph glyph-name="k" unicode="k" horiz-adv-x="506" 
d="M161 0h-86v727h86v-439l218 216h109l-237 -235l240 -269h-111l-219 243v-243z" />
    <glyph glyph-name="l" unicode="l" horiz-adv-x="236" 
d="M161 727v-727h-86v727h86z" />
    <glyph glyph-name="m" unicode="m" horiz-adv-x="867" 
d="M618 515q74 0 126.5 -48.5t52.5 -143.5v-323h-86v312q0 63 -31 94t-80 31q-50 0 -85.5 -34t-35.5 -94v-309h-86v312q0 63 -31 94t-80 31q-50 0 -85.5 -34t-35.5 -94v-309h-86v504h83v-59q20 30 59 50t84 20q46 0 86.5 -21t64.5 -63q22 35 66.5 59.5t99.5 24.5z" />
    <glyph glyph-name="n" unicode="n" horiz-adv-x="569" 
d="M75 504h83v-59q20 29 60 49.5t93 20.5q80 0 134 -50t54 -148v-317h-86v305q0 66 -32 99t-86 33q-55 0 -94.5 -35t-39.5 -105v-297h-86v504z" />
    <glyph glyph-name="o" unicode="o" horiz-adv-x="574" 
d="M287 515q109 0 175.5 -73.5t66.5 -189.5t-66.5 -189.5t-175.5 -73.5t-175.5 73.5t-66.5 189.5t66.5 189.5t175.5 73.5zM287 67q71 0 112.5 51t41.5 134t-41.5 134t-112.5 51t-112.5 -51t-41.5 -134t41.5 -134t112.5 -51z" />
    <glyph glyph-name="p" unicode="p" horiz-adv-x="595" 
d="M323 515q93 0 160 -69t67 -194q0 -126 -68 -194.5t-162 -68.5q-57 0 -98 21t-61 52v-253h-86v695h83v-72q20 35 62 59t103 24zM312 67q67 0 108.5 51t41.5 134t-41.5 134t-108.5 51q-70 0 -112 -49.5t-42 -133.5v-4q0 -84 42 -133.5t112 -49.5z" />
    <glyph glyph-name="q" unicode="q" horiz-adv-x="595" 
d="M272 -11q-93 0 -160 69t-67 194q0 126 68 194.5t162 68.5q59 0 101 -22.5t61 -55.5v67h83v-695h-86v258q-49 -78 -162 -78zM283 437q-67 0 -108.5 -51t-41.5 -134t41.5 -134t108.5 -51q70 0 112 49.5t42 133.5v4q0 84 -42 133.5t-112 49.5z" />
    <glyph glyph-name="r" unicode="r" horiz-adv-x="371" 
d="M317 506h26v-81h-26q-69 0 -112.5 -38t-43.5 -110v-277h-86v504h83v-77q50 79 159 79z" />
    <glyph glyph-name="s" unicode="s" horiz-adv-x="496" 
d="M130 141q8 -36 41.5 -56t84.5 -20t80.5 19.5t29.5 56.5q0 58 -77 68l-90 12q-143 19 -143 137q0 67 54 112t135 45q80 0 132.5 -38t64.5 -106h-84q-24 68 -113 68q-47 0 -75 -21.5t-28 -53.5q0 -54 72 -63l91 -12q147 -20 147 -143q0 -74 -55 -115.5t-139 -41.5
q-82 0 -143 37t-70 115h85z" />
    <glyph glyph-name="t" unicode="t" horiz-adv-x="336" 
d="M187 157q0 -46 20.5 -63t56.5 -17h34v-77h-48q-149 0 -149 153v274h-84v77h84v134h86v-134h111v-77h-111v-270z" />
    <glyph glyph-name="u" unicode="u" horiz-adv-x="569" 
d="M494 0h-83v59q-21 -29 -60.5 -49.5t-92.5 -20.5q-80 0 -134 50t-54 148v317h86v-305q0 -66 32 -99t86 -33q55 0 94.5 35t39.5 105v297h86v-504z" />
    <glyph glyph-name="v" unicode="v" horiz-adv-x="513" 
d="M498 504l-197 -504h-89l-197 504h93l148 -396l149 396h93z" />
    <glyph glyph-name="w" unicode="w" horiz-adv-x="773" 
d="M753 504l-165 -504h-83l-120 385l-118 -385h-82l-165 504h90l117 -371l116 371h87l116 -371l117 371h90z" />
    <glyph glyph-name="x" unicode="x" horiz-adv-x="517" 
d="M391 0l-135 191l-132 -191h-99l179 252l-177 252h101l133 -193l130 193h99l-177 -255l179 -249h-101z" />
    <glyph glyph-name="y" unicode="y" horiz-adv-x="519" 
d="M411 504h93l-276 -695h-93l78 197l-198 498h93l152 -393z" />
    <glyph glyph-name="z" unicode="z" horiz-adv-x="490" 
d="M50 0v67l280 360h-280v77h390v-68l-281 -359h281v-77h-390z" />
    <glyph glyph-name="braceleft" unicode="{" horiz-adv-x="374" 
d="M223 412q0 -59 -17.5 -88.5t-58.5 -40.5q41 -11 58.5 -41t17.5 -89v-128q0 -60 20.5 -83.5t68.5 -23.5h32v-76h-37q-170 0 -170 174v125q0 53 -17 78.5t-60 25.5h-35v75h35q43 0 60 25.5t17 78.5v129q0 174 170 174h37v-76h-32q-48 0 -68.5 -23.5t-20.5 -83.5v-132z" />
    <glyph glyph-name="bar" unicode="|" horiz-adv-x="270" 
d="M95 727h80v-885h-80v885z" />
    <glyph glyph-name="braceright" unicode="}" horiz-adv-x="374" 
d="M151 412v132q0 60 -20.5 83.5t-68.5 23.5h-32v76h37q170 0 170 -174v-129q0 -53 17 -78.5t60 -25.5h35v-75h-35q-43 0 -60 -25.5t-17 -78.5v-125q0 -174 -170 -174h-37v76h32q48 0 68.5 23.5t20.5 83.5v128q0 59 17.5 89t58.5 41q-41 11 -58.5 40.5t-17.5 88.5z" />
    <glyph glyph-name="asciitilde" unicode="~" 
d="M476 353h78v-30q0 -68 -39 -107.5t-99 -39.5q-36 0 -69.5 16.5t-53.5 36t-45.5 36t-47.5 16.5q-28 0 -45 -19.5t-17 -52.5v-24h-78v30q0 68 39 107.5t99 39.5q36 0 69.5 -16.5t53.5 -36t45.5 -36t47.5 -16.5q28 0 45 19.5t17 52.5v24z" />
    <glyph glyph-name="uni00A0" unicode="&#xa0;" horiz-adv-x="220" 
 />
    <glyph glyph-name="exclamdown" unicode="&#xa1;" horiz-adv-x="304" 
d="M111 294h81l6 -485h-93zM152 515q26 0 44 -17.5t18 -43.5t-18 -43.5t-44 -17.5t-44 17.5t-18 43.5t18 43.5t44 17.5z" />
    <glyph glyph-name="cent" unicode="&#xa2;" horiz-adv-x="565" 
d="M432 448q-9 31 -36.5 57t-70.5 34v-375q46 8 72.5 34.5t34.5 59.5h86q-7 -64 -60.5 -113.5t-132.5 -58.5v-95h-71v95q-92 13 -147 84t-55 182q0 110 54.5 181t147.5 84v96h71v-95q81 -9 132.5 -59.5t60.5 -110.5h-86zM140 352q0 -76 30.5 -124t83.5 -62v371
q-53 -13 -83.5 -61t-30.5 -124z" />
    <glyph glyph-name="sterling" unicode="&#xa3;" horiz-adv-x="584" 
d="M475 304h-237q2 -20 2 -31q0 -106 -85 -191h384v-82h-493v77q107 107 107 197q0 15 -3 30h-104v78h79q-30 76 -30 130q0 90 63 146.5t156 56.5q87 0 147.5 -50t75.5 -131h-91q-27 99 -135 99q-56 0 -91 -32t-35 -91q0 -15 1.5 -28t6.5 -28.5t7 -22t10 -26.5t9 -23h256
v-78z" />
    <glyph glyph-name="currency" unicode="&#xa4;" 
d="M525 352q0 -67 -38 -122l90 -90l-58 -57l-90 90q-54 -37 -122 -37q-70 0 -122 37l-90 -90l-58 57l90 90q-38 55 -38 122t38 122l-90 90l58 57l90 -90q55 37 122 37q66 0 122 -37l90 90l58 -57l-90 -90q38 -55 38 -122zM171 352q0 -60 39.5 -99t96.5 -39t96.5 39t39.5 99
t-39.5 99t-96.5 39t-96.5 -39t-39.5 -99z" />
    <glyph glyph-name="yen" unicode="&#xa5;" horiz-adv-x="603" 
d="M521 129h-175v-129h-89v129h-175v74h175v81h-175v74h134l-201 346h98l188 -335l190 335h97l-202 -346h135v-74h-175v-81h175v-74z" />
    <glyph glyph-name="brokenbar" unicode="&#xa6;" horiz-adv-x="270" 
d="M175 209v-367h-80v367h80zM95 360v367h80v-367h-80z" />
    <glyph glyph-name="section" unicode="&#xa7;" horiz-adv-x="536" 
d="M48 296q0 47 26 82.5t67 54.5q-66 42 -66 118q0 70 54.5 117t137.5 47q78 0 133.5 -40.5t63.5 -107.5h-85q-20 72 -113 72q-47 0 -76 -22.5t-29 -59.5q0 -61 83 -77l98 -19q67 -13 106.5 -53t39.5 -99q0 -45 -23.5 -79t-61.5 -54q59 -45 59 -119q0 -73 -55 -121t-140 -48
q-84 0 -141.5 41t-67.5 117h85q9 -40 42.5 -61t83.5 -21q47 0 77 24t30 62q0 66 -81 81l-105 19q-65 12 -103.5 49t-38.5 97zM329 207l8 -2q65 33 65 91q0 73 -88 90l-103 20h-2q-76 -32 -76 -94q0 -71 83 -85z" />
    <glyph glyph-name="dieresis" unicode="&#xa8;" horiz-adv-x="520" 
d="M157 715q25 0 42 -16.5t17 -41.5t-17 -41.5t-42 -16.5t-42 16.5t-17 41.5t17 41.5t42 16.5zM363 715q25 0 42 -16.5t17 -41.5t-17 -41.5t-42 -16.5t-42 16.5t-17 41.5t17 41.5t42 16.5z" />
    <glyph glyph-name="copyright" unicode="&#xa9;" horiz-adv-x="872" 
d="M436 -30q134 0 222.5 91.5t88.5 232.5t-88.5 232.5t-222.5 91.5t-222.5 -91.5t-88.5 -232.5t88.5 -232.5t222.5 -91.5zM436 -105q-166 0 -277.5 113.5t-111.5 285.5t111.5 285.5t277.5 113.5t277.5 -113.5t111.5 -285.5t-111.5 -285.5t-277.5 -113.5zM433 152
q81 0 100 72h79q-6 -60 -56 -102.5t-123 -42.5q-87 0 -141.5 60.5t-54.5 154.5q0 95 54 156.5t142 61.5q77 0 124.5 -43.5t54.5 -100.5h-79q-22 70 -100 70q-52 0 -83.5 -38.5t-31.5 -105.5t31.5 -104.5t83.5 -37.5z" />
    <glyph glyph-name="ordfeminine" unicode="&#xaa;" horiz-adv-x="383" 
d="M263 590q0 31 -19.5 48t-54.5 17q-61 0 -73 -43h-72q8 45 49.5 74t97.5 29q67 0 106 -34t39 -91v-228h-68v43q-40 -51 -115 -51q-55 0 -89 30t-34 78q0 49 38.5 78t104.5 29h90v21zM173 413q38 0 64 23t26 56v22h-86q-34 0 -53 -13t-19 -36t19 -37.5t49 -14.5z" />
    <glyph glyph-name="guillemotleft" unicode="&#xab;" horiz-adv-x="599" 
d="M153 257l171 -208h-100l-174 208l174 208h100zM378 257l171 -208h-100l-174 208l174 208h100z" />
    <glyph glyph-name="logicalnot" unicode="&#xac;" 
d="M80 387h447v-266h-83v184h-364v82z" />
    <glyph glyph-name="uni00AD" unicode="&#xad;" horiz-adv-x="421" 
d="M55 229v82h311v-82h-311z" />
    <glyph glyph-name="registered" unicode="&#xae;" horiz-adv-x="612" 
d="M306 205q-110 0 -185.5 75.5t-75.5 188.5t75.5 188.5t185.5 75.5t185.5 -75.5t75.5 -188.5t-75.5 -188.5t-185.5 -75.5zM306 264q86 0 143 58t57 147t-57 147t-143 58t-143 -58t-57 -147t57 -147t143 -58zM409 512q0 -46 -41 -73l59 -98h-67l-49 82h-48v-82h-59v258h108
q44 0 70.5 -24t26.5 -63zM308 547h-45v-72h45q18 0 28.5 10t10.5 26t-10.5 26t-28.5 10z" />
    <glyph glyph-name="macron" unicode="&#xaf;" horiz-adv-x="520" 
d="M113 694h294v-74h-294v74z" />
    <glyph glyph-name="degree" unicode="&#xb0;" horiz-adv-x="440" 
d="M395 534q0 -74 -51.5 -123.5t-123.5 -49.5t-123.5 49.5t-51.5 123.5t51.5 123.5t123.5 49.5t123.5 -49.5t51.5 -123.5zM121 534q0 -42 29.5 -70.5t69.5 -28.5t69.5 28.5t29.5 70.5t-29.5 70.5t-69.5 28.5t-69.5 -28.5t-29.5 -70.5z" />
    <glyph glyph-name="plusminus" unicode="&#xb1;" 
d="M532 259h-185v-173h183v-76h-445v76h182v173h-185v76h185v184h80v-184h185v-76z" />
    <glyph glyph-name="twosuperior" unicode="&#xb2;" horiz-adv-x="387" 
d="M146 412h204v-65h-306v61l165 152q2 2 10.5 10t11.5 11t10 11t10 13t7.5 13t6 15.5t1.5 16.5q0 28 -21 45.5t-53 17.5t-53 -17t-26 -44h-72q5 55 47.5 91t107.5 36q64 0 105.5 -36.5t41.5 -90.5q0 -62 -80 -134z" />
    <glyph glyph-name="threesuperior" unicode="&#xb3;" horiz-adv-x="393" 
d="M41 658q7 56 51 88.5t105 32.5q63 0 104 -32.5t41 -82.5q0 -67 -65 -94q31 -8 55.5 -35.5t24.5 -68.5q0 -54 -44.5 -90t-112.5 -36q-66 0 -112.5 34.5t-51.5 90.5h72q8 -28 32.5 -44t59.5 -16t57.5 18.5t22.5 46.5q0 30 -22 46t-60 16h-52v64h44q35 0 55 17t20 42
q0 26 -20 42.5t-52 16.5t-52.5 -16t-26.5 -40h-73z" />
    <glyph glyph-name="acute" unicode="&#xb4;" horiz-adv-x="520" 
d="M354 735l-101 -154h-87l95 154h93z" />
    <glyph glyph-name="mu" unicode="&#xb5;" horiz-adv-x="578" 
d="M417 504h86v-504h-83v59q-21 -29 -61.5 -49.5t-93.5 -20.5q-63 0 -104 30v-210h-86v695h86v-305q0 -66 33 -99t87 -33q55 0 95.5 35t40.5 105v297z" />
    <glyph glyph-name="paragraph" unicode="&#xb6;" horiz-adv-x="592" 
d="M260 704h244v-805h-79v729h-153q-62 0 -100 -33t-38 -94q0 -58 38.5 -91t99.5 -33h70v-478h-79v402h-5q-92 0 -151 56t-59 144q0 91 59 147t153 56z" />
    <glyph glyph-name="periodcentered" unicode="&#xb7;" horiz-adv-x="264" 
d="M132 313q26 0 44 -17.5t18 -43.5t-18 -43.5t-44 -17.5t-44 17.5t-18 43.5t18 43.5t44 17.5z" />
    <glyph glyph-name="cedilla" unicode="&#xb8;" horiz-adv-x="520" 
d="M288 13v-13l-20 -54q32 -3 56.5 -25t24.5 -61q0 -44 -31.5 -71t-91.5 -27h-55v62h53q48 0 48 38q0 35 -46 35h-36v21l36 95h62z" />
    <glyph glyph-name="onesuperior" unicode="&#xb9;" horiz-adv-x="292" 
d="M215 772v-425h-76v343l-105 -64v75l110 71h71z" />
    <glyph glyph-name="ordmasculine" unicode="&#xba;" horiz-adv-x="407" 
d="M203 715q77 0 125.5 -50.5t48.5 -130.5t-48.5 -130t-124.5 -50q-77 0 -125.5 50.5t-48.5 130.5t48.5 130t124.5 50zM203 419q45 0 72 32.5t27 82.5q0 51 -27 83.5t-71 32.5q-45 0 -72 -32.5t-27 -82.5q0 -51 27 -83.5t71 -32.5z" />
    <glyph glyph-name="guillemotright" unicode="&#xbb;" horiz-adv-x="599" 
d="M221 257l-171 208h100l174 -208l-174 -208h-100zM446 257l-171 208h100l174 -208l-174 -208h-100z" />
    <glyph glyph-name="onequarter" unicode="&#xbc;" horiz-adv-x="903" 
d="M215 704v-425h-76v343l-105 -64v75l110 71h71zM122 0l505 704h89l-505 -704h-89zM872 154v-64h-60v-90h-72v90h-213v62l189 274h96v-272h60zM603 154h137v195z" />
    <glyph glyph-name="onehalf" unicode="&#xbd;" horiz-adv-x="933" 
d="M215 704v-425h-76v343l-105 -64v75l110 71h71zM122 0l505 704h89l-505 -704h-89zM692 65h204v-65h-306v61l165 152q2 2 10.5 10t11.5 11t10 11t10 13t7.5 13t6 15.5t1.5 16.5q0 28 -21 45.5t-53 17.5t-53 -17t-26 -44h-72q5 55 47.5 91t107.5 36q64 0 105.5 -36.5
t41.5 -90.5q0 -62 -80 -134z" />
    <glyph glyph-name="threequarters" unicode="&#xbe;" horiz-adv-x="1004" 
d="M41 590q7 56 51 88.5t105 32.5q63 0 104 -32.5t41 -82.5q0 -67 -65 -94q31 -8 55.5 -35.5t24.5 -68.5q0 -54 -44.5 -90t-112.5 -36q-66 0 -112.5 34.5t-51.5 90.5h72q8 -28 32.5 -44t59.5 -16t57.5 18.5t22.5 46.5q0 30 -22 46t-60 16h-52v64h44q35 0 55 17t20 42
q0 26 -20 42.5t-52 16.5t-52.5 -16t-26.5 -40h-73zM223 0l505 704h89l-505 -704h-89zM973 154v-64h-60v-90h-72v90h-213v62l189 274h96v-272h60zM704 154h137v195z" />
    <glyph glyph-name="questiondown" unicode="&#xbf;" horiz-adv-x="531" 
d="M290 515q26 0 44 -17.5t18 -43.5t-18 -43.5t-44 -17.5t-44 17.5t-18 43.5t18 43.5t44 17.5zM141 -23q0 -48 34.5 -78t90.5 -30q109 0 141 105h87q-13 -81 -73.5 -133t-155.5 -52q-97 0 -155.5 52t-58.5 132q0 30 7.5 55.5t16 41t28 34t28 25t32.5 23.5q5 4 17.5 12.5
t17 12t14.5 11.5t14 13t10 13.5t8.5 16.5t4.5 19t2 23v21h84v-26q0 -43 -15 -75t-33.5 -48.5t-56.5 -42.5q-30 -21 -45.5 -34t-29.5 -37.5t-14 -53.5z" />
    <glyph glyph-name="Agrave" unicode="&#xc0;" horiz-adv-x="664" 
d="M286 704h92l266 -704h-96l-69 186h-296l-67 -186h-96zM331 591l-118 -323h236zM187 927h93l95 -154h-87z" />
    <glyph glyph-name="Aacute" unicode="&#xc1;" horiz-adv-x="664" 
d="M286 704h92l266 -704h-96l-69 186h-296l-67 -186h-96zM331 591l-118 -323h236zM481 927l-101 -154h-87l95 154h93z" />
    <glyph glyph-name="Acircumflex" unicode="&#xc2;" horiz-adv-x="664" 
d="M286 704h92l266 -704h-96l-69 186h-296l-67 -186h-96zM331 591l-118 -323h236zM251 773h-91l132 154h84l132 -154h-91l-83 91z" />
    <glyph glyph-name="Atilde" unicode="&#xc3;" horiz-adv-x="664" 
d="M286 704h92l266 -704h-96l-69 186h-296l-67 -186h-96zM331 591l-118 -323h236zM434 911h65v-18q0 -51 -26.5 -81t-70.5 -30q-31 0 -56.5 16t-44.5 32t-33 16q-15 0 -24.5 -11.5t-9.5 -31.5v-15h-65v18q0 51 26.5 81t70.5 30q31 0 56.5 -16t44.5 -32t33 -16
q15 0 24.5 11.5t9.5 31.5v15z" />
    <glyph glyph-name="Adieresis" unicode="&#xc4;" horiz-adv-x="664" 
d="M286 704h92l266 -704h-96l-69 186h-296l-67 -186h-96zM331 591l-118 -323h236zM227 907q25 0 42 -16.5t17 -41.5t-17 -41.5t-42 -16.5t-42 16.5t-17 41.5t17 41.5t42 16.5zM441 907q25 0 42 -16.5t17 -41.5t-17 -41.5t-42 -16.5t-42 16.5t-17 41.5t17 41.5t42 16.5z" />
    <glyph glyph-name="Aring" unicode="&#xc5;" horiz-adv-x="664" 
d="M286 704h92l266 -704h-96l-69 186h-296l-67 -186h-96zM331 591l-118 -323h236zM440 859q0 -44 -30 -73.5t-76 -29.5t-76 29.5t-30 73.5t30 73.5t76 29.5t76 -29.5t30 -73.5zM288 859q0 -20 13.5 -33t32.5 -13t32.5 13t13.5 33t-13.5 33t-32.5 13t-32.5 -13t-13.5 -33z
" />
    <glyph glyph-name="AE" unicode="&#xc6;" horiz-adv-x="993" 
d="M438 704h495v-82h-355v-220h336v-81h-336v-239h355v-82h-443v187h-268l-113 -187h-99zM271 268h219v362z" />
    <glyph glyph-name="Ccedilla" unicode="&#xc7;" horiz-adv-x="706" 
d="M569 220h90q-6 -38 -24 -74.5t-48.5 -70.5t-79 -56.5t-107.5 -27.5l-16 -45q32 -3 56.5 -25t24.5 -61q0 -44 -31.5 -71t-91.5 -27h-55v62h53q48 0 48 38q0 35 -46 35h-36v21l27 73q-126 14 -203.5 113t-77.5 248q0 159 88 261t229 102q120 0 195.5 -65t92.5 -165h-90
q-19 66 -67.5 106.5t-130.5 40.5q-103 0 -164.5 -78t-61.5 -202q0 -123 61 -201.5t164 -78.5q85 0 137 45.5t64 102.5z" />
    <glyph glyph-name="Egrave" unicode="&#xc8;" horiz-adv-x="594" 
d="M534 622h-357v-220h338v-81h-338v-239h357v-82h-446v704h446v-82zM167 927h93l95 -154h-87z" />
    <glyph glyph-name="Eacute" unicode="&#xc9;" horiz-adv-x="594" 
d="M534 622h-357v-220h338v-81h-338v-239h357v-82h-446v704h446v-82zM461 927l-101 -154h-87l95 154h93z" />
    <glyph glyph-name="Ecircumflex" unicode="&#xca;" horiz-adv-x="594" 
d="M534 622h-357v-220h338v-81h-338v-239h357v-82h-446v704h446v-82zM231 773h-91l132 154h84l132 -154h-91l-83 91z" />
    <glyph glyph-name="Edieresis" unicode="&#xcb;" horiz-adv-x="594" 
d="M534 622h-357v-220h338v-81h-338v-239h357v-82h-446v704h446v-82zM207 907q25 0 42 -16.5t17 -41.5t-17 -41.5t-42 -16.5t-42 16.5t-17 41.5t17 41.5t42 16.5zM421 907q25 0 42 -16.5t17 -41.5t-17 -41.5t-42 -16.5t-42 16.5t-17 41.5t17 41.5t42 16.5z" />
    <glyph glyph-name="Igrave" unicode="&#xcc;" horiz-adv-x="265" 
d="M177 704v-704h-89v704h89zM-13 927h93l95 -154h-87z" />
    <glyph glyph-name="Iacute" unicode="&#xcd;" horiz-adv-x="265" 
d="M177 704v-704h-89v704h89zM279 927l-101 -154h-87l95 154h93z" />
    <glyph glyph-name="Icircumflex" unicode="&#xce;" horiz-adv-x="265" 
d="M177 704v-704h-89v704h89zM55 773h-91l127 154h84l128 -154h-91l-79 91z" />
    <glyph glyph-name="Idieresis" unicode="&#xcf;" horiz-adv-x="265" 
d="M177 704v-704h-89v704h89zM30 907q25 0 42 -16.5t17 -41.5t-17 -41.5t-42 -16.5t-42 16.5t-17 41.5t17 41.5t42 16.5zM236 907q25 0 42 -16.5t17 -41.5t-17 -41.5t-42 -16.5t-42 16.5t-17 41.5t17 41.5t42 16.5z" />
    <glyph glyph-name="Eth" unicode="&#xd0;" horiz-adv-x="725" 
d="M324 704q164 0 256.5 -93.5t92.5 -258.5t-92.5 -258.5t-256.5 -93.5h-219v322h-81v79h81v303h219zM367 322h-173v-241h119q133 0 201 70.5t68 200.5t-68 200.5t-201 70.5h-119v-222h173v-79z" />
    <glyph glyph-name="Ntilde" unicode="&#xd1;" horiz-adv-x="733" 
d="M184 704l374 -558v558h87v-704h-87l-383 570v-570h-87v704h96zM470 911h65v-18q0 -51 -26.5 -81t-70.5 -30q-31 0 -56.5 16t-44.5 32t-33 16q-15 0 -24.5 -11.5t-9.5 -31.5v-15h-65v18q0 51 26.5 81t70.5 30q31 0 56.5 -16t44.5 -32t33 -16q15 0 24.5 11.5t9.5 31.5v15z
" />
    <glyph glyph-name="Ograve" unicode="&#xd2;" horiz-adv-x="752" 
d="M376 715q146 0 235 -102t89 -261t-89 -261t-235 -102t-235 102t-89 261t89 261t235 102zM376 72q107 0 170 77.5t63 202.5t-63 202.5t-170 77.5t-170 -77.5t-63 -202.5t63 -202.5t170 -77.5zM229 927h93l95 -154h-87z" />
    <glyph glyph-name="Oacute" unicode="&#xd3;" horiz-adv-x="752" 
d="M376 715q146 0 235 -102t89 -261t-89 -261t-235 -102t-235 102t-89 261t89 261t235 102zM376 72q107 0 170 77.5t63 202.5t-63 202.5t-170 77.5t-170 -77.5t-63 -202.5t63 -202.5t170 -77.5zM523 927l-101 -154h-87l95 154h93z" />
    <glyph glyph-name="Ocircumflex" unicode="&#xd4;" horiz-adv-x="752" 
d="M376 715q146 0 235 -102t89 -261t-89 -261t-235 -102t-235 102t-89 261t89 261t235 102zM376 72q107 0 170 77.5t63 202.5t-63 202.5t-170 77.5t-170 -77.5t-63 -202.5t63 -202.5t170 -77.5zM293 773h-91l132 154h84l132 -154h-91l-83 91z" />
    <glyph glyph-name="Otilde" unicode="&#xd5;" horiz-adv-x="752" 
d="M376 715q146 0 235 -102t89 -261t-89 -261t-235 -102t-235 102t-89 261t89 261t235 102zM376 72q107 0 170 77.5t63 202.5t-63 202.5t-170 77.5t-170 -77.5t-63 -202.5t63 -202.5t170 -77.5zM476 911h65v-18q0 -51 -26.5 -81t-70.5 -30q-31 0 -56.5 16t-44.5 32t-33 16
q-15 0 -24.5 -11.5t-9.5 -31.5v-15h-65v18q0 51 26.5 81t70.5 30q31 0 56.5 -16t44.5 -32t33 -16q15 0 24.5 11.5t9.5 31.5v15z" />
    <glyph glyph-name="Odieresis" unicode="&#xd6;" horiz-adv-x="752" 
d="M376 715q146 0 235 -102t89 -261t-89 -261t-235 -102t-235 102t-89 261t89 261t235 102zM376 72q107 0 170 77.5t63 202.5t-63 202.5t-170 77.5t-170 -77.5t-63 -202.5t63 -202.5t170 -77.5zM269 907q25 0 42 -16.5t17 -41.5t-17 -41.5t-42 -16.5t-42 16.5t-17 41.5
t17 41.5t42 16.5zM483 907q25 0 42 -16.5t17 -41.5t-17 -41.5t-42 -16.5t-42 16.5t-17 41.5t17 41.5t42 16.5z" />
    <glyph glyph-name="multiply" unicode="&#xd7;" 
d="M528 104l-55 -54l-166 166l-166 -166l-55 54l166 166l-165 166l54 55l166 -166l166 166l54 -55l-166 -166z" />
    <glyph glyph-name="Oslash" unicode="&#xd8;" horiz-adv-x="752" 
d="M690 740l-84 -122q94 -102 94 -266q0 -159 -89 -261t-235 -102q-99 0 -173 48l-50 -73h-91l84 121q-94 102 -94 267q0 159 89 261t235 102q95 0 172 -48l51 73h91zM376 71q107 0 170.5 78t63.5 203q0 116 -56 192l-303 -437q55 -36 125 -36zM142 352q0 -118 55 -193
l303 438q-55 36 -124 36q-107 0 -170.5 -78t-63.5 -203z" />
    <glyph glyph-name="Ugrave" unicode="&#xd9;" horiz-adv-x="720" 
d="M83 276v428h89v-425q0 -101 52 -154t136 -53t136 53t52 154v425h89v-428q0 -139 -77 -213t-200 -74t-200 74t-77 213zM213 927h93l95 -154h-87z" />
    <glyph glyph-name="Uacute" unicode="&#xda;" horiz-adv-x="720" 
d="M83 276v428h89v-425q0 -101 52 -154t136 -53t136 53t52 154v425h89v-428q0 -139 -77 -213t-200 -74t-200 74t-77 213zM507 927l-101 -154h-87l95 154h93z" />
    <glyph glyph-name="Ucircumflex" unicode="&#xdb;" horiz-adv-x="720" 
d="M83 276v428h89v-425q0 -101 52 -154t136 -53t136 53t52 154v425h89v-428q0 -139 -77 -213t-200 -74t-200 74t-77 213zM277 773h-91l132 154h84l132 -154h-91l-83 91z" />
    <glyph glyph-name="Udieresis" unicode="&#xdc;" horiz-adv-x="720" 
d="M83 276v428h89v-425q0 -101 52 -154t136 -53t136 53t52 154v425h89v-428q0 -139 -77 -213t-200 -74t-200 74t-77 213zM253 907q25 0 42 -16.5t17 -41.5t-17 -41.5t-42 -16.5t-42 16.5t-17 41.5t17 41.5t42 16.5zM467 907q25 0 42 -16.5t17 -41.5t-17 -41.5t-42 -16.5
t-42 16.5t-17 41.5t17 41.5t42 16.5z" />
    <glyph glyph-name="Yacute" unicode="&#xdd;" horiz-adv-x="637" 
d="M363 0h-89v276l-259 428h101l202 -338l203 338h101l-259 -428v-276zM467 927l-101 -154h-87l95 154h93z" />
    <glyph glyph-name="Thorn" unicode="&#xde;" horiz-adv-x="607" 
d="M177 0h-89v704h89v-131h152q106 0 169 -59.5t63 -152.5q0 -92 -63.5 -152.5t-166.5 -60.5h-154v-148zM319 492h-142v-263h142q70 0 110.5 35t40.5 97t-40.5 96.5t-110.5 34.5z" />
    <glyph glyph-name="germandbls" unicode="&#xdf;" horiz-adv-x="594" 
d="M75 0v496q0 104 62.5 167.5t165.5 63.5q98 0 154 -54.5t56 -132.5q0 -105 -98 -147q50 -13 92 -59.5t42 -123.5q0 -94 -61.5 -152t-167.5 -58h-75v77h69q66 0 106.5 37t40.5 98q0 63 -43 98.5t-110 35.5h-49v77h33q62 0 97.5 31.5t35.5 81.5q0 51 -33.5 82t-89.5 31
q-64 0 -102.5 -42t-38.5 -117v-490h-86z" />
    <glyph glyph-name="agrave" unicode="&#xe0;" horiz-adv-x="531" 
d="M376 334q0 51 -31.5 78t-82.5 27q-91 0 -116 -67h-83q13 62 65.5 102.5t135.5 40.5q89 0 143 -48.5t54 -132.5v-334h-81v60q-57 -71 -162 -71q-75 0 -124.5 42.5t-49.5 112.5q0 73 53 114.5t145 41.5h134v34zM229 64q62 0 104.5 35t42.5 91v37h-129q-53 0 -84.5 -21
t-31.5 -61q0 -39 27 -60t71 -21zM119 735h93l95 -154h-87z" />
    <glyph glyph-name="aacute" unicode="&#xe1;" horiz-adv-x="531" 
d="M376 334q0 51 -31.5 78t-82.5 27q-91 0 -116 -67h-83q13 62 65.5 102.5t135.5 40.5q89 0 143 -48.5t54 -132.5v-334h-81v60q-57 -71 -162 -71q-75 0 -124.5 42.5t-49.5 112.5q0 73 53 114.5t145 41.5h134v34zM229 64q62 0 104.5 35t42.5 91v37h-129q-53 0 -84.5 -21
t-31.5 -61q0 -39 27 -60t71 -21zM413 735l-101 -154h-87l95 154h93z" />
    <glyph glyph-name="acircumflex" unicode="&#xe2;" horiz-adv-x="531" 
d="M376 334q0 51 -31.5 78t-82.5 27q-91 0 -116 -67h-83q13 62 65.5 102.5t135.5 40.5q89 0 143 -48.5t54 -132.5v-334h-81v60q-57 -71 -162 -71q-75 0 -124.5 42.5t-49.5 112.5q0 73 53 114.5t145 41.5h134v34zM229 64q62 0 104.5 35t42.5 91v37h-129q-53 0 -84.5 -21
t-31.5 -61q0 -39 27 -60t71 -21zM188 581h-91l127 154h84l128 -154h-91l-79 91z" />
    <glyph glyph-name="atilde" unicode="&#xe3;" horiz-adv-x="531" 
d="M376 334q0 51 -31.5 78t-82.5 27q-91 0 -116 -67h-83q13 62 65.5 102.5t135.5 40.5q89 0 143 -48.5t54 -132.5v-334h-81v60q-57 -71 -162 -71q-75 0 -124.5 42.5t-49.5 112.5q0 73 53 114.5t145 41.5h134v34zM229 64q62 0 104.5 35t42.5 91v37h-129q-53 0 -84.5 -21
t-31.5 -61q0 -39 27 -60t71 -21zM363 719h65v-16q0 -53 -26 -83t-71 -30q-31 0 -55 16t-41.5 32t-31.5 16t-24 -11t-10 -31v-16h-65v16q0 53 26 83t71 30q31 0 55 -16t41.5 -32t31.5 -16t24 11t10 31v16z" />
    <glyph glyph-name="adieresis" unicode="&#xe4;" horiz-adv-x="531" 
d="M376 334q0 51 -31.5 78t-82.5 27q-91 0 -116 -67h-83q13 62 65.5 102.5t135.5 40.5q89 0 143 -48.5t54 -132.5v-334h-81v60q-57 -71 -162 -71q-75 0 -124.5 42.5t-49.5 112.5q0 73 53 114.5t145 41.5h134v34zM229 64q62 0 104.5 35t42.5 91v37h-129q-53 0 -84.5 -21
t-31.5 -61q0 -39 27 -60t71 -21zM163 715q25 0 42 -16.5t17 -41.5t-17 -41.5t-42 -16.5t-42 16.5t-17 41.5t17 41.5t42 16.5zM369 715q25 0 42 -16.5t17 -41.5t-17 -41.5t-42 -16.5t-42 16.5t-17 41.5t17 41.5t42 16.5z" />
    <glyph glyph-name="aring" unicode="&#xe5;" horiz-adv-x="531" 
d="M376 334q0 51 -31.5 78t-82.5 27q-91 0 -116 -67h-83q13 62 65.5 102.5t135.5 40.5q89 0 143 -48.5t54 -132.5v-334h-81v60q-57 -71 -162 -71q-75 0 -124.5 42.5t-49.5 112.5q0 73 53 114.5t145 41.5h134v34zM229 64q62 0 104.5 35t42.5 91v37h-129q-53 0 -84.5 -21
t-31.5 -61q0 -39 27 -60t71 -21zM372 667q0 -44 -30 -73.5t-76 -29.5t-76 29.5t-30 73.5t30 73.5t76 29.5t76 -29.5t30 -73.5zM220 667q0 -20 13.5 -33t32.5 -13t32.5 13t13.5 33t-13.5 33t-32.5 13t-32.5 -13t-13.5 -33z" />
    <glyph glyph-name="ae" unicode="&#xe6;" horiz-adv-x="873" 
d="M262 515q121 0 168 -88q63 88 179 88q100 0 159.5 -66.5t59.5 -178.5v-44h-367v-2q0 -68 43 -113t112 -45q48 0 79.5 20.5t39.5 43.5h87q-12 -53 -64.5 -97t-141.5 -44q-135 0 -197 103q-29 -47 -80.5 -75t-116.5 -28q-77 0 -127.5 42t-50.5 113q0 73 53 114.5t145 41.5
h134v34q0 51 -31.5 78t-82.5 27q-91 0 -116 -67h-83q13 62 65 102.5t134 40.5zM233 64q61 0 102 36t41 90v37h-129q-53 0 -84.5 -21t-31.5 -61q0 -39 28 -60t74 -21zM606 438q-62 0 -100.5 -38t-43.5 -101h279q-3 65 -38.5 102t-96.5 37z" />
    <glyph glyph-name="ccedilla" unicode="&#xe7;" horiz-adv-x="539" 
d="M284 67q57 0 88 28.5t41 67.5h86q-8 -65 -58 -114t-128 -58l-16 -45q32 -3 56.5 -25t24.5 -61q0 -44 -31.5 -71t-91.5 -27h-55v62h53q48 0 48 38q0 35 -46 35h-36v21l28 74q-92 12 -147 83t-55 177q0 115 65.5 189t172.5 74q93 0 149 -52t67 -120h-86q-12 38 -44 66
t-86 28q-68 0 -109 -51t-41 -134t41.5 -134t109.5 -51z" />
    <glyph glyph-name="egrave" unicode="&#xe8;" horiz-adv-x="547" 
d="M502 226h-367v-2q0 -68 43 -113t112 -45q48 0 79.5 20.5t39.5 43.5h87q-12 -53 -65 -97t-142 -44q-110 0 -177 71t-67 192t66 192t171 71q101 0 160.5 -66.5t59.5 -178.5v-44zM280 438q-62 0 -100.5 -38t-43.5 -101h279q-3 65 -38.5 102t-96.5 37zM135 735h93l95 -154
h-87z" />
    <glyph glyph-name="eacute" unicode="&#xe9;" horiz-adv-x="547" 
d="M502 226h-367v-2q0 -68 43 -113t112 -45q48 0 79.5 20.5t39.5 43.5h87q-12 -53 -65 -97t-142 -44q-110 0 -177 71t-67 192t66 192t171 71q101 0 160.5 -66.5t59.5 -178.5v-44zM280 438q-62 0 -100.5 -38t-43.5 -101h279q-3 65 -38.5 102t-96.5 37zM429 735l-101 -154h-87
l95 154h93z" />
    <glyph glyph-name="ecircumflex" unicode="&#xea;" horiz-adv-x="547" 
d="M502 226h-367v-2q0 -68 43 -113t112 -45q48 0 79.5 20.5t39.5 43.5h87q-12 -53 -65 -97t-142 -44q-110 0 -177 71t-67 192t66 192t171 71q101 0 160.5 -66.5t59.5 -178.5v-44zM280 438q-62 0 -100.5 -38t-43.5 -101h279q-3 65 -38.5 102t-96.5 37zM204 581h-91l127 154
h84l128 -154h-91l-79 91z" />
    <glyph glyph-name="edieresis" unicode="&#xeb;" horiz-adv-x="547" 
d="M502 226h-367v-2q0 -68 43 -113t112 -45q48 0 79.5 20.5t39.5 43.5h87q-12 -53 -65 -97t-142 -44q-110 0 -177 71t-67 192t66 192t171 71q101 0 160.5 -66.5t59.5 -178.5v-44zM280 438q-62 0 -100.5 -38t-43.5 -101h279q-3 65 -38.5 102t-96.5 37zM179 715q25 0 42 -16.5
t17 -41.5t-17 -41.5t-42 -16.5t-42 16.5t-17 41.5t17 41.5t42 16.5zM385 715q25 0 42 -16.5t17 -41.5t-17 -41.5t-42 -16.5t-42 16.5t-17 41.5t17 41.5t42 16.5z" />
    <glyph glyph-name="igrave" unicode="&#xec;" horiz-adv-x="236" 
d="M161 504v-504h-86v504h86zM-28 735h93l95 -154h-87z" />
    <glyph glyph-name="iacute" unicode="&#xed;" horiz-adv-x="236" 
d="M161 504v-504h-86v504h86zM264 735l-101 -154h-87l95 154h93z" />
    <glyph glyph-name="icircumflex" unicode="&#xee;" horiz-adv-x="236" 
d="M161 504v-504h-86v504h86zM46 581h-88l118 154h84l118 -154h-88l-72 90z" />
    <glyph glyph-name="idieresis" unicode="&#xef;" horiz-adv-x="236" 
d="M161 504v-504h-86v504h86zM21 715q25 0 42 -16.5t17 -41.5t-17 -41.5t-42 -16.5t-42 16.5t-17 41.5t17 41.5t42 16.5zM215 715q25 0 42 -16.5t17 -41.5t-17 -41.5t-42 -16.5t-42 16.5t-17 41.5t17 41.5t42 16.5z" />
    <glyph glyph-name="eth" unicode="&#xf0;" horiz-adv-x="583" 
d="M284 727q1 -1 26 -18.5t42 -31.5l124 50v-69l-73 -29q128 -138 128 -336q0 -145 -64.5 -224.5t-180.5 -79.5q-108 0 -174.5 74t-66.5 185q0 118 67 186t168 68q100 0 153 -67q-22 84 -101 165l-132 -52v69l79 31q-34 30 -104 79h109zM286 67q72 0 114.5 50t42.5 135
q0 81 -43.5 127t-112.5 46t-111.5 -49.5t-42.5 -127.5q0 -80 41.5 -130.5t111.5 -50.5z" />
    <glyph glyph-name="ntilde" unicode="&#xf1;" horiz-adv-x="569" 
d="M75 504h83v-59q20 29 60 49.5t93 20.5q80 0 134 -50t54 -148v-317h-86v305q0 66 -32 99t-86 33q-55 0 -94.5 -35t-39.5 -105v-297h-86v504zM389 719h65v-16q0 -53 -26 -83t-71 -30q-31 0 -55 16t-41.5 32t-31.5 16t-24 -11t-10 -31v-16h-65v16q0 53 26 83t71 30
q31 0 55 -16t41.5 -32t31.5 -16t24 11t10 31v16z" />
    <glyph glyph-name="ograve" unicode="&#xf2;" horiz-adv-x="574" 
d="M287 515q109 0 175.5 -73.5t66.5 -189.5t-66.5 -189.5t-175.5 -73.5t-175.5 73.5t-66.5 189.5t66.5 189.5t175.5 73.5zM287 67q71 0 112.5 51t41.5 134t-41.5 134t-112.5 51t-112.5 -51t-41.5 -134t41.5 -134t112.5 -51zM140 735h93l95 -154h-87z" />
    <glyph glyph-name="oacute" unicode="&#xf3;" horiz-adv-x="574" 
d="M287 515q109 0 175.5 -73.5t66.5 -189.5t-66.5 -189.5t-175.5 -73.5t-175.5 73.5t-66.5 189.5t66.5 189.5t175.5 73.5zM287 67q71 0 112.5 51t41.5 134t-41.5 134t-112.5 51t-112.5 -51t-41.5 -134t41.5 -134t112.5 -51zM434 735l-101 -154h-87l95 154h93z" />
    <glyph glyph-name="ocircumflex" unicode="&#xf4;" horiz-adv-x="574" 
d="M287 515q109 0 175.5 -73.5t66.5 -189.5t-66.5 -189.5t-175.5 -73.5t-175.5 73.5t-66.5 189.5t66.5 189.5t175.5 73.5zM287 67q71 0 112.5 51t41.5 134t-41.5 134t-112.5 51t-112.5 -51t-41.5 -134t41.5 -134t112.5 -51zM209 581h-91l127 154h84l128 -154h-91l-79 91z
" />
    <glyph glyph-name="otilde" unicode="&#xf5;" horiz-adv-x="574" 
d="M287 515q109 0 175.5 -73.5t66.5 -189.5t-66.5 -189.5t-175.5 -73.5t-175.5 73.5t-66.5 189.5t66.5 189.5t175.5 73.5zM287 67q71 0 112.5 51t41.5 134t-41.5 134t-112.5 51t-112.5 -51t-41.5 -134t41.5 -134t112.5 -51zM384 719h65v-16q0 -53 -26 -83t-71 -30
q-31 0 -55 16t-41.5 32t-31.5 16t-24 -11t-10 -31v-16h-65v16q0 53 26 83t71 30q31 0 55 -16t41.5 -32t31.5 -16t24 11t10 31v16z" />
    <glyph glyph-name="odieresis" unicode="&#xf6;" horiz-adv-x="574" 
d="M287 515q109 0 175.5 -73.5t66.5 -189.5t-66.5 -189.5t-175.5 -73.5t-175.5 73.5t-66.5 189.5t66.5 189.5t175.5 73.5zM287 67q71 0 112.5 51t41.5 134t-41.5 134t-112.5 51t-112.5 -51t-41.5 -134t41.5 -134t112.5 -51zM184 715q25 0 42 -16.5t17 -41.5t-17 -41.5
t-42 -16.5t-42 16.5t-17 41.5t17 41.5t42 16.5zM390 715q25 0 42 -16.5t17 -41.5t-17 -41.5t-42 -16.5t-42 16.5t-17 41.5t17 41.5t42 16.5z" />
    <glyph glyph-name="divide" unicode="&#xf7;" 
d="M307 519q25 0 42.5 -17t17.5 -42t-17.5 -42t-42.5 -17q-26 0 -43.5 17t-17.5 42t17.5 42t43.5 17zM542 231h-470v78h470v-78zM307 138q25 0 42.5 -17t17.5 -42t-17.5 -42t-42.5 -17q-26 0 -43.5 17t-17.5 42t17.5 42t43.5 17z" />
    <glyph glyph-name="oslash" unicode="&#xf8;" horiz-adv-x="574" 
d="M522 542l-64 -96q71 -74 71 -194q0 -116 -66.5 -189.5t-175.5 -73.5q-63 0 -115 27l-35 -54h-85l64 96q-71 73 -71 194q0 116 66.5 189.5t175.5 73.5q62 0 114 -27l36 54h85zM287 65q71 0 114 51.5t43 135.5q0 73 -34 122l-194 -293q29 -16 71 -16zM130 252
q0 -73 33 -123l194 293q-31 17 -70 17q-71 0 -114 -51.5t-43 -135.5z" />
    <glyph glyph-name="ugrave" unicode="&#xf9;" horiz-adv-x="569" 
d="M494 0h-83v59q-21 -29 -60.5 -49.5t-92.5 -20.5q-80 0 -134 50t-54 148v317h86v-305q0 -66 32 -99t86 -33q55 0 94.5 35t39.5 105v297h86v-504zM135 735h93l95 -154h-87z" />
    <glyph glyph-name="uacute" unicode="&#xfa;" horiz-adv-x="569" 
d="M494 0h-83v59q-21 -29 -60.5 -49.5t-92.5 -20.5q-80 0 -134 50t-54 148v317h86v-305q0 -66 32 -99t86 -33q55 0 94.5 35t39.5 105v297h86v-504zM429 735l-101 -154h-87l95 154h93z" />
    <glyph glyph-name="ucircumflex" unicode="&#xfb;" horiz-adv-x="569" 
d="M494 0h-83v59q-21 -29 -60.5 -49.5t-92.5 -20.5q-80 0 -134 50t-54 148v317h86v-305q0 -66 32 -99t86 -33q55 0 94.5 35t39.5 105v297h86v-504zM204 581h-91l127 154h84l128 -154h-91l-79 91z" />
    <glyph glyph-name="udieresis" unicode="&#xfc;" horiz-adv-x="569" 
d="M494 0h-83v59q-21 -29 -60.5 -49.5t-92.5 -20.5q-80 0 -134 50t-54 148v317h86v-305q0 -66 32 -99t86 -33q55 0 94.5 35t39.5 105v297h86v-504zM179 715q25 0 42 -16.5t17 -41.5t-17 -41.5t-42 -16.5t-42 16.5t-17 41.5t17 41.5t42 16.5zM385 715q25 0 42 -16.5t17 -41.5
t-17 -41.5t-42 -16.5t-42 16.5t-17 41.5t17 41.5t42 16.5z" />
    <glyph glyph-name="yacute" unicode="&#xfd;" horiz-adv-x="519" 
d="M411 504h93l-276 -695h-93l78 197l-198 498h93l152 -393zM406 735l-101 -154h-87l95 154h93z" />
    <glyph glyph-name="thorn" unicode="&#xfe;" horiz-adv-x="595" 
d="M323 515q93 0 160 -69t67 -194q0 -126 -68 -194.5t-162 -68.5q-57 0 -98 21t-61 52v-253h-86v918h86v-290q49 78 162 78zM312 67q67 0 108.5 51t41.5 134t-41.5 134t-108.5 51q-70 0 -112 -49.5t-42 -133.5v-4q0 -84 42 -133.5t112 -49.5z" />
    <glyph glyph-name="ydieresis" unicode="&#xff;" horiz-adv-x="519" 
d="M411 504h93l-276 -695h-93l78 197l-198 498h93l152 -393zM156 715q25 0 42 -16.5t17 -41.5t-17 -41.5t-42 -16.5t-42 16.5t-17 41.5t17 41.5t42 16.5zM362 715q25 0 42 -16.5t17 -41.5t-17 -41.5t-42 -16.5t-42 16.5t-17 41.5t17 41.5t42 16.5z" />
    <glyph glyph-name="Amacron" unicode="&#x100;" horiz-adv-x="664" 
d="M286 704h92l266 -704h-96l-69 186h-296l-67 -186h-96zM331 591l-118 -323h236zM183 886h302v-74h-302v74z" />
    <glyph glyph-name="amacron" unicode="&#x101;" horiz-adv-x="531" 
d="M376 334q0 51 -31.5 78t-82.5 27q-91 0 -116 -67h-83q13 62 65.5 102.5t135.5 40.5q89 0 143 -48.5t54 -132.5v-334h-81v60q-57 -71 -162 -71q-75 0 -124.5 42.5t-49.5 112.5q0 73 53 114.5t145 41.5h134v34zM229 64q62 0 104.5 35t42.5 91v37h-129q-53 0 -84.5 -21
t-31.5 -61q0 -39 27 -60t71 -21zM119 694h294v-74h-294v74z" />
    <glyph glyph-name="Abreve" unicode="&#x102;" horiz-adv-x="664" 
d="M286 704h92l266 -704h-96l-69 186h-296l-67 -186h-96zM331 591l-118 -323h236zM248 927q0 -37 23.5 -62.5t62.5 -25.5t62.5 25.5t23.5 62.5h77q-1 -70 -46.5 -113t-116.5 -43t-116.5 43t-46.5 113h77z" />
    <glyph glyph-name="abreve" unicode="&#x103;" horiz-adv-x="531" 
d="M376 334q0 51 -31.5 78t-82.5 27q-91 0 -116 -67h-83q13 62 65.5 102.5t135.5 40.5q89 0 143 -48.5t54 -132.5v-334h-81v60q-57 -71 -162 -71q-75 0 -124.5 42.5t-49.5 112.5q0 73 53 114.5t145 41.5h134v34zM229 64q62 0 104.5 35t42.5 91v37h-129q-53 0 -84.5 -21
t-31.5 -61q0 -39 27 -60t71 -21zM184 735q0 -38 21.5 -63t60.5 -25t60.5 25t21.5 63h77q-2 -70 -45.5 -113t-113.5 -43t-113.5 43t-45.5 113h77z" />
    <glyph glyph-name="Aogonek" unicode="&#x104;" horiz-adv-x="664" 
d="M286 704h92l266 -704q-36 -22 -60.5 -52t-24.5 -58q0 -51 59 -51h34v-68h-51q-60 0 -91.5 28t-31.5 72q0 75 70 129l-69 186h-296l-67 -186h-96zM331 591l-118 -323h236z" />
    <glyph glyph-name="aogonek" unicode="&#x105;" horiz-adv-x="531" 
d="M376 334q0 51 -31.5 78t-82.5 27q-91 0 -116 -67h-83q13 62 65.5 102.5t135.5 40.5q89 0 143 -48.5t54 -132.5v-334q-36 -22 -60.5 -52t-24.5 -58q0 -51 59 -51h34v-68h-51q-60 0 -91.5 28t-31.5 72q0 41 24.5 79t60.5 60v50q-57 -71 -162 -71q-75 0 -124.5 42.5
t-49.5 112.5q0 73 53 114.5t145 41.5h134v34zM229 64q62 0 104.5 35t42.5 91v37h-129q-53 0 -84.5 -21t-31.5 -61q0 -39 27 -60t71 -21z" />
    <glyph glyph-name="Cacute" unicode="&#x106;" horiz-adv-x="706" 
d="M569 220h90q-6 -40 -26 -79t-54 -74t-89 -56.5t-121 -21.5q-140 0 -228.5 101.5t-88.5 261.5q0 159 88 261t229 102q120 0 195.5 -65t92.5 -165h-90q-19 66 -67.5 106.5t-130.5 40.5q-103 0 -164.5 -78t-61.5 -202q0 -123 61 -201.5t164 -78.5q85 0 137 45.5t64 102.5z
M516 927l-101 -154h-87l95 154h93z" />
    <glyph glyph-name="cacute" unicode="&#x107;" horiz-adv-x="539" 
d="M284 67q57 0 88 28.5t41 67.5h86q-9 -71 -67.5 -122.5t-148.5 -51.5q-107 0 -172.5 73.5t-65.5 189.5q0 115 65.5 189t172.5 74q93 0 149 -52t67 -120h-86q-12 38 -44 66t-86 28q-68 0 -109 -51t-41 -134t41.5 -134t109.5 -51zM430 735l-101 -154h-87l95 154h93z" />
    <glyph glyph-name="Ccircumflex" unicode="&#x108;" horiz-adv-x="706" 
d="M569 220h90q-6 -40 -26 -79t-54 -74t-89 -56.5t-121 -21.5q-140 0 -228.5 101.5t-88.5 261.5q0 159 88 261t229 102q120 0 195.5 -65t92.5 -165h-90q-19 66 -67.5 106.5t-130.5 40.5q-103 0 -164.5 -78t-61.5 -202q0 -123 61 -201.5t164 -78.5q85 0 137 45.5t64 102.5z
M286 773h-91l132 154h84l132 -154h-91l-83 91z" />
    <glyph glyph-name="ccircumflex" unicode="&#x109;" horiz-adv-x="539" 
d="M284 67q57 0 88 28.5t41 67.5h86q-9 -71 -67.5 -122.5t-148.5 -51.5q-107 0 -172.5 73.5t-65.5 189.5q0 115 65.5 189t172.5 74q93 0 149 -52t67 -120h-86q-12 38 -44 66t-86 28q-68 0 -109 -51t-41 -134t41.5 -134t109.5 -51zM205 581h-91l127 154h84l128 -154h-91
l-79 91z" />
    <glyph glyph-name="Cdotaccent" unicode="&#x10a;" horiz-adv-x="706" 
d="M569 220h90q-6 -40 -26 -79t-54 -74t-89 -56.5t-121 -21.5q-140 0 -228.5 101.5t-88.5 261.5q0 159 88 261t229 102q120 0 195.5 -65t92.5 -165h-90q-19 66 -67.5 106.5t-130.5 40.5q-103 0 -164.5 -78t-61.5 -202q0 -123 61 -201.5t164 -78.5q85 0 137 45.5t64 102.5z
M370 907q25 0 42 -16.5t17 -41.5t-17 -41.5t-42 -16.5t-42 16.5t-17 41.5t17 41.5t42 16.5z" />
    <glyph glyph-name="cdotaccent" unicode="&#x10b;" horiz-adv-x="539" 
d="M284 67q57 0 88 28.5t41 67.5h86q-9 -71 -67.5 -122.5t-148.5 -51.5q-107 0 -172.5 73.5t-65.5 189.5q0 115 65.5 189t172.5 74q93 0 149 -52t67 -120h-86q-12 38 -44 66t-86 28q-68 0 -109 -51t-41 -134t41.5 -134t109.5 -51zM284 715q25 0 42 -16.5t17 -41.5t-17 -41.5
t-42 -16.5t-42 16.5t-17 41.5t17 41.5t42 16.5z" />
    <glyph glyph-name="Ccaron" unicode="&#x10c;" horiz-adv-x="706" 
d="M569 220h90q-6 -40 -26 -79t-54 -74t-89 -56.5t-121 -21.5q-140 0 -228.5 101.5t-88.5 261.5q0 159 88 261t229 102q120 0 195.5 -65t92.5 -165h-90q-19 66 -67.5 106.5t-130.5 40.5q-103 0 -164.5 -78t-61.5 -202q0 -123 61 -201.5t164 -78.5q85 0 137 45.5t64 102.5z
M286 927l83 -91l83 91h91l-132 -154h-84l-132 154h91z" />
    <glyph glyph-name="ccaron" unicode="&#x10d;" horiz-adv-x="539" 
d="M284 67q57 0 88 28.5t41 67.5h86q-9 -71 -67.5 -122.5t-148.5 -51.5q-107 0 -172.5 73.5t-65.5 189.5q0 115 65.5 189t172.5 74q93 0 149 -52t67 -120h-86q-12 38 -44 66t-86 28q-68 0 -109 -51t-41 -134t41.5 -134t109.5 -51zM205 735l78 -91l79 91h91l-128 -154h-84
l-127 154h91z" />
    <glyph glyph-name="Dcaron" unicode="&#x10e;" horiz-adv-x="708" 
d="M307 704q164 0 256.5 -93.5t92.5 -258.5t-92.5 -258.5t-256.5 -93.5h-219v704h219zM296 81q133 0 201 70.5t68 200.5t-68 200.5t-201 70.5h-119v-542h119zM234 927l83 -91l83 91h91l-132 -154h-84l-132 154h91z" />
    <glyph glyph-name="dcaron" unicode="&#x10f;" horiz-adv-x="691" 
d="M272 -11q-93 0 -160 69t-67 194q0 126 68 194.5t162 68.5q56 0 97.5 -21.5t61.5 -52.5v286h86v-727h-83v72q-21 -36 -63 -59.5t-102 -23.5zM283 437q-67 0 -108.5 -51t-41.5 -134t41.5 -134t108.5 -51q70 0 112 49.5t42 133.5v4q0 84 -42 133.5t-112 49.5zM699 675
q0 -18 -10 -45l-46 -124h-67l43 120q-16 4 -28 18t-12 34q0 25 16.5 40.5t41.5 15.5q26 0 44 -16.5t18 -42.5z" />
    <glyph glyph-name="Dcroat" unicode="&#x110;" horiz-adv-x="725" 
d="M324 704q164 0 256.5 -93.5t92.5 -258.5t-92.5 -258.5t-256.5 -93.5h-219v322h-81v79h81v303h219zM367 322h-173v-241h119q133 0 201 70.5t68 200.5t-68 200.5t-201 70.5h-119v-222h173v-79z" />
    <glyph glyph-name="dcroat" unicode="&#x111;" horiz-adv-x="598" 
d="M297 662h137v65h86v-65h73v-68h-73v-594h-83v72q-21 -36 -63 -59.5t-102 -23.5q-93 0 -160 69t-67 194q0 126 68 194.5t162 68.5q56 0 97.5 -21.5t61.5 -52.5v153h-137v68zM283 437q-67 0 -108.5 -51t-41.5 -134t41.5 -134t108.5 -51q70 0 112 49.5t42 133.5v4
q0 84 -42 133.5t-112 49.5z" />
    <glyph glyph-name="Emacron" unicode="&#x112;" horiz-adv-x="594" 
d="M534 622h-357v-220h338v-81h-338v-239h357v-82h-446v704h446v-82zM163 886h302v-74h-302v74z" />
    <glyph glyph-name="emacron" unicode="&#x113;" horiz-adv-x="547" 
d="M502 226h-367v-2q0 -68 43 -113t112 -45q48 0 79.5 20.5t39.5 43.5h87q-12 -53 -65 -97t-142 -44q-110 0 -177 71t-67 192t66 192t171 71q101 0 160.5 -66.5t59.5 -178.5v-44zM280 438q-62 0 -100.5 -38t-43.5 -101h279q-3 65 -38.5 102t-96.5 37zM135 694h294v-74h-294
v74z" />
    <glyph glyph-name="Edotaccent" unicode="&#x116;" horiz-adv-x="594" 
d="M534 622h-357v-220h338v-81h-338v-239h357v-82h-446v704h446v-82zM315 907q25 0 42 -16.5t17 -41.5t-17 -41.5t-42 -16.5t-42 16.5t-17 41.5t17 41.5t42 16.5z" />
    <glyph glyph-name="edotaccent" unicode="&#x117;" horiz-adv-x="547" 
d="M502 226h-367v-2q0 -68 43 -113t112 -45q48 0 79.5 20.5t39.5 43.5h87q-12 -53 -65 -97t-142 -44q-110 0 -177 71t-67 192t66 192t171 71q101 0 160.5 -66.5t59.5 -178.5v-44zM280 438q-62 0 -100.5 -38t-43.5 -101h279q-3 65 -38.5 102t-96.5 37zM283 715q25 0 42 -16.5
t17 -41.5t-17 -41.5t-42 -16.5t-42 16.5t-17 41.5t17 41.5t42 16.5z" />
    <glyph glyph-name="Eogonek" unicode="&#x118;" horiz-adv-x="594" 
d="M534 622h-357v-220h338v-81h-338v-239h357v-82q-36 -22 -60.5 -52t-24.5 -58q0 -51 59 -51h34v-68h-51q-60 0 -91.5 28t-31.5 72q0 36 20 70.5t50 58.5h-350v704h446v-82z" />
    <glyph glyph-name="eogonek" unicode="&#x119;" horiz-adv-x="547" 
d="M502 226h-367v-2q0 -68 43 -113t112 -45q48 0 79.5 20.5t39.5 43.5h87q-15 -63 -73 -103q-4 -3 -24 -17.5t-28.5 -21t-25 -21t-24 -25t-14 -24.5t-6.5 -28q0 -51 59 -51h34v-68h-51q-60 0 -91.5 28t-31.5 72q0 61 64 118q-109 2 -174 73t-65 190q0 121 66 192t171 71
q101 0 160.5 -66.5t59.5 -178.5v-44zM280 438q-62 0 -100.5 -38t-43.5 -101h279q-3 65 -38.5 102t-96.5 37z" />
    <glyph glyph-name="Ecaron" unicode="&#x11a;" horiz-adv-x="594" 
d="M534 622h-357v-220h338v-81h-338v-239h357v-82h-446v704h446v-82zM231 927l83 -91l83 91h91l-132 -154h-84l-132 154h91z" />
    <glyph glyph-name="ecaron" unicode="&#x11b;" horiz-adv-x="547" 
d="M502 226h-367v-2q0 -68 43 -113t112 -45q48 0 79.5 20.5t39.5 43.5h87q-12 -53 -65 -97t-142 -44q-110 0 -177 71t-67 192t66 192t171 71q101 0 160.5 -66.5t59.5 -178.5v-44zM280 438q-62 0 -100.5 -38t-43.5 -101h279q-3 65 -38.5 102t-96.5 37zM204 735l78 -91l79 91
h91l-128 -154h-84l-127 154h91z" />
    <glyph glyph-name="Gcircumflex" unicode="&#x11c;" horiz-adv-x="723" 
d="M362 362h304v-73q0 -132 -79 -216t-215 -84q-140 0 -230 101t-90 262t89 262t233 101q115 0 190.5 -63.5t95.5 -160.5h-92q-45 141 -194 141q-105 0 -168 -76.5t-63 -203.5q0 -128 64.5 -204.5t166.5 -76.5q93 0 148 56.5t55 149.5v5h-215v80zM291 773h-91l132 154h84
l132 -154h-91l-83 91z" />
    <glyph glyph-name="gcircumflex" unicode="&#x11d;" horiz-adv-x="595" 
d="M437 504h83v-473q0 -110 -63 -174.5t-172 -64.5q-98 0 -154 45.5t-62 107.5h85q27 -75 132 -75q71 0 109.5 43t38.5 118v46q-51 -78 -162 -78q-92 0 -159.5 68t-67.5 190q0 123 68 190.5t162 67.5q59 0 101 -22.5t61 -55.5v67zM283 77q70 0 112 49t42 129v4q0 80 -42 129
t-112 49q-67 0 -108.5 -50.5t-41.5 -129.5t41.5 -129.5t108.5 -50.5zM211 581h-91l127 154h84l128 -154h-91l-79 91z" />
    <glyph glyph-name="Gbreve" unicode="&#x11e;" horiz-adv-x="723" 
d="M362 362h304v-73q0 -132 -79 -216t-215 -84q-140 0 -230 101t-90 262t89 262t233 101q115 0 190.5 -63.5t95.5 -160.5h-92q-45 141 -194 141q-105 0 -168 -76.5t-63 -203.5q0 -128 64.5 -204.5t166.5 -76.5q93 0 148 56.5t55 149.5v5h-215v80zM288 927q0 -37 23.5 -62.5
t62.5 -25.5t62.5 25.5t23.5 62.5h77q-1 -70 -46.5 -113t-116.5 -43t-116.5 43t-46.5 113h77z" />
    <glyph glyph-name="gbreve" unicode="&#x11f;" horiz-adv-x="595" 
d="M437 504h83v-473q0 -110 -63 -174.5t-172 -64.5q-98 0 -154 45.5t-62 107.5h85q27 -75 132 -75q71 0 109.5 43t38.5 118v46q-51 -78 -162 -78q-92 0 -159.5 68t-67.5 190q0 123 68 190.5t162 67.5q59 0 101 -22.5t61 -55.5v67zM283 77q70 0 112 49t42 129v4q0 80 -42 129
t-112 49q-67 0 -108.5 -50.5t-41.5 -129.5t41.5 -129.5t108.5 -50.5zM207 735q0 -38 21.5 -63t60.5 -25t60.5 25t21.5 63h77q-2 -70 -45.5 -113t-113.5 -43t-113.5 43t-45.5 113h77z" />
    <glyph glyph-name="Gdotaccent" unicode="&#x120;" horiz-adv-x="723" 
d="M362 362h304v-73q0 -132 -79 -216t-215 -84q-140 0 -230 101t-90 262t89 262t233 101q115 0 190.5 -63.5t95.5 -160.5h-92q-45 141 -194 141q-105 0 -168 -76.5t-63 -203.5q0 -128 64.5 -204.5t166.5 -76.5q93 0 148 56.5t55 149.5v5h-215v80zM375 907q25 0 42 -16.5
t17 -41.5t-17 -41.5t-42 -16.5t-42 16.5t-17 41.5t17 41.5t42 16.5z" />
    <glyph glyph-name="gdotaccent" unicode="&#x121;" horiz-adv-x="595" 
d="M437 504h83v-473q0 -110 -63 -174.5t-172 -64.5q-98 0 -154 45.5t-62 107.5h85q27 -75 132 -75q71 0 109.5 43t38.5 118v46q-51 -78 -162 -78q-92 0 -159.5 68t-67.5 190q0 123 68 190.5t162 67.5q59 0 101 -22.5t61 -55.5v67zM283 77q70 0 112 49t42 129v4q0 80 -42 129
t-112 49q-67 0 -108.5 -50.5t-41.5 -129.5t41.5 -129.5t108.5 -50.5zM290 715q25 0 42 -16.5t17 -41.5t-17 -41.5t-42 -16.5t-42 16.5t-17 41.5t17 41.5t42 16.5z" />
    <glyph glyph-name="uni0122" unicode="&#x122;" horiz-adv-x="723" 
d="M362 362h304v-73q0 -132 -79 -216t-215 -84q-140 0 -230 101t-90 262t89 262t233 101q115 0 190.5 -63.5t95.5 -160.5h-92q-45 141 -194 141q-105 0 -168 -76.5t-63 -203.5q0 -128 64.5 -204.5t166.5 -76.5q93 0 148 56.5t55 149.5v5h-215v80zM432 -113q0 -18 -10 -45
l-39 -104h-67l36 100q-16 4 -28 18t-12 34q0 25 16.5 40.5t41.5 15.5q26 0 44 -16.5t18 -42.5z" />
    <glyph glyph-name="uni0123" unicode="&#x123;" horiz-adv-x="595" 
d="M437 504h83v-473q0 -110 -63 -174.5t-172 -64.5q-98 0 -154 45.5t-62 107.5h85q27 -75 132 -75q71 0 109.5 43t38.5 118v46q-51 -78 -162 -78q-92 0 -159.5 68t-67.5 190q0 123 68 190.5t162 67.5q59 0 101 -22.5t61 -55.5v67zM283 77q70 0 112 49t42 129v4q0 80 -42 129
t-112 49q-67 0 -108.5 -50.5t-41.5 -129.5t41.5 -129.5t108.5 -50.5zM229 640q0 18 10 45l39 104h67l-36 -100q16 -4 28 -18t12 -34q0 -25 -16.5 -40.5t-41.5 -15.5q-26 0 -44 16.5t-18 42.5z" />
    <glyph glyph-name="Hcircumflex" unicode="&#x124;" horiz-adv-x="730" 
d="M177 0h-89v704h89v-301h376v301h89v-704h-89v320h-376v-320zM282 773h-91l132 154h84l132 -154h-91l-83 91z" />
    <glyph glyph-name="hcircumflex" unicode="&#x125;" horiz-adv-x="569" 
d="M311 515q80 0 134 -50t54 -148v-317h-86v305q0 66 -32 99t-86 33q-55 0 -94.5 -35t-39.5 -105v-297h-86v727h86v-278q52 66 150 66zM46 793h-88l118 154h84l118 -154h-88l-72 90z" />
    <glyph glyph-name="Hbar" unicode="&#x126;" horiz-adv-x="756" 
d="M189 0h-88v523h-69v77h69v104h88v-104h378v104h88v-104h69v-77h-69v-523h-88v310h-378v-310zM189 523v-131h378v131h-378z" />
    <glyph glyph-name="hbar" unicode="&#x127;" horiz-adv-x="572" 
d="M5 662h73v65h86v-65h137v-68h-137v-145q52 66 150 66q80 0 134 -50t54 -148v-317h-86v305q0 66 -32 99t-86 33q-55 0 -94.5 -35t-39.5 -105v-297h-86v594h-73v68z" />
    <glyph glyph-name="Itilde" unicode="&#x128;" horiz-adv-x="265" 
d="M177 704v-704h-89v704h89zM230 911h65v-16q0 -53 -26 -83t-71 -30q-31 0 -55 16t-41.5 32t-31.5 16t-24 -11t-10 -31v-16h-65v16q0 53 26 83t71 30q31 0 55 -16t41.5 -32t31.5 -16t24 11t10 31v16z" />
    <glyph glyph-name="itilde" unicode="&#x129;" horiz-adv-x="236" 
d="M161 504v-504h-86v504h86zM209 719h65v-16q0 -53 -25.5 -83t-69.5 -30q-31 0 -53 16t-37.5 32t-29.5 16t-23 -11t-9 -31v-16h-65v16q0 53 25.5 83t69.5 30q31 0 53 -16t37.5 -32t29.5 -16t23 11t9 31v16z" />
    <glyph glyph-name="Imacron" unicode="&#x12a;" horiz-adv-x="265" 
d="M177 704v-704h-89v704h89zM-14 886h294v-74h-294v74z" />
    <glyph glyph-name="imacron" unicode="&#x12b;" horiz-adv-x="236" 
d="M161 504v-504h-86v504h86zM-9 694h254v-74h-254v74z" />
    <glyph glyph-name="Ibreve" unicode="&#x12c;" horiz-adv-x="265" 
d="M177 704v-704h-89v704h89zM51 927q0 -38 21.5 -63t60.5 -25t60.5 25t21.5 63h77q-2 -70 -45.5 -113t-113.5 -43t-113.5 43t-45.5 113h77z" />
    <glyph glyph-name="ibreve" unicode="&#x12d;" horiz-adv-x="236" 
d="M161 504v-504h-86v504h86zM41 735q0 -38 19.5 -63t57.5 -25t57.5 25t19.5 63h77q-2 -70 -43.5 -113t-110.5 -43t-110.5 43t-43.5 113h77z" />
    <glyph glyph-name="Iogonek" unicode="&#x12e;" horiz-adv-x="265" 
d="M177 704v-704q-36 -22 -60.5 -52t-24.5 -58q0 -51 59 -51h34v-68h-51q-60 0 -91.5 28t-31.5 72q0 39 21.5 74.5t55.5 59.5v699h89z" />
    <glyph glyph-name="iogonek" unicode="&#x12f;" horiz-adv-x="236" 
d="M161 504v-504q-36 -22 -60.5 -52t-24.5 -58q0 -51 59 -51h34v-68h-51q-60 0 -91.5 28t-31.5 72q0 39 23 76t57 60v497h86zM118 715q25 0 42 -16.5t17 -41.5t-17 -41.5t-42 -16.5t-42 16.5t-17 41.5t17 41.5t42 16.5z" />
    <glyph glyph-name="Idotaccent" unicode="&#x130;" horiz-adv-x="265" 
d="M177 704v-704h-89v704h89zM133 907q25 0 42 -16.5t17 -41.5t-17 -41.5t-42 -16.5t-42 16.5t-17 41.5t17 41.5t42 16.5z" />
    <glyph glyph-name="dotlessi" unicode="&#x131;" horiz-adv-x="236" 
d="M161 504v-504h-86v504h86z" />
    <glyph glyph-name="Jcircumflex" unicode="&#x134;" horiz-adv-x="540" 
d="M32 181h88q4 -40 33.5 -74.5t86.5 -34.5q63 0 94.5 42.5t31.5 112.5v477h89v-477q0 -113 -56.5 -175.5t-159.5 -62.5q-96 0 -151 58.5t-56 133.5zM333 773h-91l127 154h84l128 -154h-91l-79 91z" />
    <glyph glyph-name="jcircumflex" unicode="&#x135;" horiz-adv-x="236" 
d="M-15 -191v77h22q68 0 68 88v530h86v-534q0 -161 -140 -161h-36zM46 581h-88l118 154h84l118 -154h-88l-72 90z" />
    <glyph glyph-name="uni0136" unicode="&#x136;" horiz-adv-x="626" 
d="M177 0h-89v704h89v-314l313 314h115l-334 -337l340 -367h-118l-316 336v-336zM392 -113q0 -18 -10 -45l-39 -104h-67l36 100q-16 4 -28 18t-12 34q0 25 16.5 40.5t41.5 15.5q26 0 44 -16.5t18 -42.5z" />
    <glyph glyph-name="uni0137" unicode="&#x137;" horiz-adv-x="506" 
d="M161 0h-86v727h86v-439l218 216h109l-237 -235l240 -269h-111l-219 243v-243zM327 -113q0 -18 -10 -45l-39 -104h-67l36 100q-16 4 -28 18t-12 34q0 25 16.5 40.5t41.5 15.5q26 0 44 -16.5t18 -42.5z" />
    <glyph glyph-name="Lacute" unicode="&#x139;" horiz-adv-x="572" 
d="M177 704v-622h357v-82h-446v704h89zM280 927l-101 -154h-87l95 154h93z" />
    <glyph glyph-name="lacute" unicode="&#x13a;" horiz-adv-x="236" 
d="M161 727v-727h-86v727h86zM265 947l-101 -154h-87l95 154h93z" />
    <glyph glyph-name="uni013B" unicode="&#x13b;" horiz-adv-x="572" 
d="M177 704v-622h357v-82h-446v704h89zM372 -113q0 -18 -10 -45l-39 -104h-67l36 100q-16 4 -28 18t-12 34q0 25 16.5 40.5t41.5 15.5q26 0 44 -16.5t18 -42.5z" />
    <glyph glyph-name="uni013C" unicode="&#x13c;" horiz-adv-x="236" 
d="M161 727v-727h-86v727h86zM178 -113q0 -18 -10 -45l-39 -104h-67l36 100q-16 4 -28 18t-12 34q0 25 16.5 40.5t41.5 15.5q26 0 44 -16.5t18 -42.5z" />
    <glyph glyph-name="Lcaron" unicode="&#x13d;" horiz-adv-x="572" 
d="M177 704v-622h357v-82h-446v704h89zM385 652q0 -18 -10 -45l-46 -124h-67l43 120q-16 4 -28 18t-12 34q0 25 16.5 40.5t41.5 15.5q26 0 44 -16.5t18 -42.5z" />
    <glyph glyph-name="lcaron" unicode="&#x13e;" horiz-adv-x="332" 
d="M161 727v-727h-86v727h86zM340 675q0 -18 -10 -45l-46 -124h-67l43 120q-16 4 -28 18t-12 34q0 25 16.5 40.5t41.5 15.5q26 0 44 -16.5t18 -42.5z" />
    <glyph glyph-name="Ldot" unicode="&#x13f;" horiz-adv-x="572" 
d="M177 704v-622h357v-82h-446v704h89zM360 436q26 0 44 -17.5t18 -43.5t-18 -43.5t-44 -17.5t-44 17.5t-18 43.5t18 43.5t44 17.5z" />
    <glyph glyph-name="ldot" unicode="&#x140;" horiz-adv-x="353" 
d="M161 727v-727h-86v727h86zM286 413q26 0 44 -17.5t18 -43.5t-18 -43.5t-44 -17.5t-44 17.5t-18 43.5t18 43.5t44 17.5z" />
    <glyph glyph-name="Lslash" unicode="&#x141;" horiz-adv-x="589" 
d="M371 447l-177 -86v-279h357v-82h-446v318l-82 -39v83l82 39v303h89v-260l177 86v-83z" />
    <glyph glyph-name="lslash" unicode="&#x142;" horiz-adv-x="272" 
d="M11 375l82 40v312h86v-270l82 40v-79l-82 -40v-378h-86v336l-82 -40v79z" />
    <glyph glyph-name="Nacute" unicode="&#x143;" horiz-adv-x="733" 
d="M184 704l374 -558v558h87v-704h-87l-383 570v-570h-87v704h96zM517 927l-101 -154h-87l95 154h93z" />
    <glyph glyph-name="nacute" unicode="&#x144;" horiz-adv-x="569" 
d="M75 504h83v-59q20 29 60 49.5t93 20.5q80 0 134 -50t54 -148v-317h-86v305q0 66 -32 99t-86 33q-55 0 -94.5 -35t-39.5 -105v-297h-86v504zM439 735l-101 -154h-87l95 154h93z" />
    <glyph glyph-name="uni0145" unicode="&#x145;" horiz-adv-x="733" 
d="M184 704l374 -558v558h87v-704h-87l-383 570v-570h-87v704h96zM422 -105q0 -18 -10 -45l-39 -104h-67l36 100q-16 4 -28 18t-12 34q0 25 16.5 40.5t41.5 15.5q26 0 44 -16.5t18 -42.5z" />
    <glyph glyph-name="uni0146" unicode="&#x146;" horiz-adv-x="569" 
d="M75 504h83v-59q20 29 60 49.5t93 20.5q80 0 134 -50t54 -148v-317h-86v305q0 66 -32 99t-86 33q-55 0 -94.5 -35t-39.5 -105v-297h-86v504zM347 -113q0 -18 -10 -45l-39 -104h-67l36 100q-16 4 -28 18t-12 34q0 25 16.5 40.5t41.5 15.5q26 0 44 -16.5t18 -42.5z" />
    <glyph glyph-name="Ncaron" unicode="&#x147;" horiz-adv-x="733" 
d="M184 704l374 -558v558h87v-704h-87l-383 570v-570h-87v704h96zM287 927l83 -91l83 91h91l-132 -154h-84l-132 154h91z" />
    <glyph glyph-name="ncaron" unicode="&#x148;" horiz-adv-x="569" 
d="M75 504h83v-59q20 29 60 49.5t93 20.5q80 0 134 -50t54 -148v-317h-86v305q0 66 -32 99t-86 33q-55 0 -94.5 -35t-39.5 -105v-297h-86v504zM214 735l78 -91l79 91h91l-128 -154h-84l-127 154h91z" />
    <glyph glyph-name="Eng" unicode="&#x14a;" horiz-adv-x="733" 
d="M558 704h87v-733q0 -81 -39.5 -121.5t-108.5 -40.5h-36v80h23q74 0 74 86v25l-383 570v-570h-87v704h96l374 -558v558z" />
    <glyph glyph-name="eng" unicode="&#x14b;" horiz-adv-x="569" 
d="M311 515q80 0 134 -50t54 -148v-347q0 -161 -140 -161h-36v77h22q68 0 68 88v331q0 66 -32 99t-86 33q-55 0 -94.5 -35t-39.5 -105v-297h-86v504h83v-59q20 29 60 49.5t93 20.5z" />
    <glyph glyph-name="Omacron" unicode="&#x14c;" horiz-adv-x="752" 
d="M376 715q146 0 235 -102t89 -261t-89 -261t-235 -102t-235 102t-89 261t89 261t235 102zM376 72q107 0 170 77.5t63 202.5t-63 202.5t-170 77.5t-170 -77.5t-63 -202.5t63 -202.5t170 -77.5zM225 886h302v-74h-302v74z" />
    <glyph glyph-name="omacron" unicode="&#x14d;" horiz-adv-x="574" 
d="M287 515q109 0 175.5 -73.5t66.5 -189.5t-66.5 -189.5t-175.5 -73.5t-175.5 73.5t-66.5 189.5t66.5 189.5t175.5 73.5zM287 67q71 0 112.5 51t41.5 134t-41.5 134t-112.5 51t-112.5 -51t-41.5 -134t41.5 -134t112.5 -51zM140 694h294v-74h-294v74z" />
    <glyph glyph-name="Obreve" unicode="&#x14e;" horiz-adv-x="752" 
d="M376 715q146 0 235 -102t89 -261t-89 -261t-235 -102t-235 102t-89 261t89 261t235 102zM376 72q107 0 170 77.5t63 202.5t-63 202.5t-170 77.5t-170 -77.5t-63 -202.5t63 -202.5t170 -77.5zM290 927q0 -37 23.5 -62.5t62.5 -25.5t62.5 25.5t23.5 62.5h77
q-1 -70 -46.5 -113t-116.5 -43t-116.5 43t-46.5 113h77z" />
    <glyph glyph-name="obreve" unicode="&#x14f;" horiz-adv-x="574" 
d="M287 515q109 0 175.5 -73.5t66.5 -189.5t-66.5 -189.5t-175.5 -73.5t-175.5 73.5t-66.5 189.5t66.5 189.5t175.5 73.5zM287 67q71 0 112.5 51t41.5 134t-41.5 134t-112.5 51t-112.5 -51t-41.5 -134t41.5 -134t112.5 -51zM205 735q0 -38 21.5 -63t60.5 -25t60.5 25
t21.5 63h77q-2 -70 -45.5 -113t-113.5 -43t-113.5 43t-45.5 113h77z" />
    <glyph glyph-name="Ohungarumlaut" unicode="&#x150;" horiz-adv-x="752" 
d="M376 715q146 0 235 -102t89 -261t-89 -261t-235 -102t-235 102t-89 261t89 261t235 102zM376 72q107 0 170 77.5t63 202.5t-63 202.5t-170 77.5t-170 -77.5t-63 -202.5t63 -202.5t170 -77.5zM428 927l-95 -154h-84l89 154h90zM598 927l-95 -154h-84l89 154h90z" />
    <glyph glyph-name="ohungarumlaut" unicode="&#x151;" horiz-adv-x="574" 
d="M287 515q109 0 175.5 -73.5t66.5 -189.5t-66.5 -189.5t-175.5 -73.5t-175.5 73.5t-66.5 189.5t66.5 189.5t175.5 73.5zM287 67q71 0 112.5 51t41.5 134t-41.5 134t-112.5 51t-112.5 -51t-41.5 -134t41.5 -134t112.5 -51zM341 735l-95 -154h-84l89 154h90zM507 735
l-95 -154h-84l89 154h90z" />
    <glyph glyph-name="OE" unicode="&#x152;" horiz-adv-x="1019" 
d="M959 704v-82h-354v-220h335v-81h-335v-239h354v-82h-547q-159 0 -259.5 96t-100.5 256t100.5 256t259.5 96h547zM143 352q0 -125 76 -198t204 -73h93v542h-93q-128 0 -204 -73t-76 -198z" />
    <glyph glyph-name="oe" unicode="&#x153;" horiz-adv-x="940" 
d="M287 515q133 0 195 -109q63 109 194 109q100 0 159.5 -66.5t59.5 -178.5v-44h-367v-2q0 -68 43 -113t112 -45q48 0 79.5 20.5t39.5 43.5h87q-12 -53 -64.5 -97t-141.5 -44q-138 0 -201 109q-62 -109 -195 -109q-109 0 -175.5 73.5t-66.5 189.5t66.5 189.5t175.5 73.5z
M287 67q71 0 112.5 51t41.5 134t-41.5 134t-112.5 51t-112.5 -51t-41.5 -134t41.5 -134t112.5 -51zM673 438q-62 0 -100.5 -38t-43.5 -101h279q-3 65 -38.5 102t-96.5 37z" />
    <glyph glyph-name="Racute" unicode="&#x154;" horiz-adv-x="634" 
d="M572 485q0 -69 -40.5 -127t-110.5 -81l187 -277h-105l-178 264h-148v-264h-89v704h252q110 0 171 -63.5t61 -155.5zM329 623h-152v-278h152q75 0 113.5 40t38.5 100q0 61 -38 99.5t-114 38.5zM462 927l-101 -154h-87l95 154h93z" />
    <glyph glyph-name="racute" unicode="&#x155;" horiz-adv-x="371" 
d="M317 506h26v-81h-26q-69 0 -112.5 -38t-43.5 -110v-277h-86v504h83v-77q50 79 159 79zM356 735l-101 -154h-87l95 154h93z" />
    <glyph glyph-name="uni0156" unicode="&#x156;" horiz-adv-x="634" 
d="M572 485q0 -69 -40.5 -127t-110.5 -81l187 -277h-105l-178 264h-148v-264h-89v704h252q110 0 171 -63.5t61 -155.5zM329 623h-152v-278h152q75 0 113.5 40t38.5 100q0 61 -38 99.5t-114 38.5zM398 -113q0 -18 -10 -45l-39 -104h-67l36 100q-16 4 -28 18t-12 34
q0 25 16.5 40.5t41.5 15.5q26 0 44 -16.5t18 -42.5z" />
    <glyph glyph-name="uni0157" unicode="&#x157;" horiz-adv-x="371" 
d="M317 506h26v-81h-26q-69 0 -112.5 -38t-43.5 -110v-277h-86v504h83v-77q50 79 159 79zM178 -113q0 -18 -10 -45l-39 -104h-67l36 100q-16 4 -28 18t-12 34q0 25 16.5 40.5t41.5 15.5q26 0 44 -16.5t18 -42.5z" />
    <glyph glyph-name="Rcaron" unicode="&#x158;" horiz-adv-x="634" 
d="M572 485q0 -69 -40.5 -127t-110.5 -81l187 -277h-105l-178 264h-148v-264h-89v704h252q110 0 171 -63.5t61 -155.5zM329 623h-152v-278h152q75 0 113.5 40t38.5 100q0 61 -38 99.5t-114 38.5zM232 927l83 -91l83 91h91l-132 -154h-84l-132 154h91z" />
    <glyph glyph-name="rcaron" unicode="&#x159;" horiz-adv-x="371" 
d="M317 506h26v-81h-26q-69 0 -112.5 -38t-43.5 -110v-277h-86v504h83v-77q50 79 159 79zM131 735l78 -91l79 91h91l-128 -154h-84l-127 154h91z" />
    <glyph glyph-name="Sacute" unicode="&#x15a;" horiz-adv-x="616" 
d="M49 183h91q38 -112 180 -112q70 0 113 33.5t43 91.5q0 90 -112 108l-130 21q-84 13 -129.5 60.5t-45.5 119.5q0 95 70 152.5t172 57.5q99 0 168.5 -48.5t86.5 -139.5h-91q-33 106 -164 106q-63 0 -107 -32.5t-44 -88.5q0 -39 26.5 -65t76.5 -34l131 -22q183 -31 183 -189
q0 -99 -69.5 -156t-179.5 -57q-107 0 -180.5 50t-88.5 144zM454 927l-101 -154h-87l95 154h93z" />
    <glyph glyph-name="sacute" unicode="&#x15b;" horiz-adv-x="496" 
d="M130 141q8 -36 41.5 -56t84.5 -20t80.5 19.5t29.5 56.5q0 58 -77 68l-90 12q-143 19 -143 137q0 67 54 112t135 45q80 0 132.5 -38t64.5 -106h-84q-24 68 -113 68q-47 0 -75 -21.5t-28 -53.5q0 -54 72 -63l91 -12q147 -20 147 -143q0 -74 -55 -115.5t-139 -41.5
q-82 0 -143 37t-70 115h85zM396 735l-101 -154h-87l95 154h93z" />
    <glyph glyph-name="Scircumflex" unicode="&#x15c;" horiz-adv-x="616" 
d="M49 183h91q38 -112 180 -112q70 0 113 33.5t43 91.5q0 90 -112 108l-130 21q-84 13 -129.5 60.5t-45.5 119.5q0 95 70 152.5t172 57.5q99 0 168.5 -48.5t86.5 -139.5h-91q-33 106 -164 106q-63 0 -107 -32.5t-44 -88.5q0 -39 26.5 -65t76.5 -34l131 -22q183 -31 183 -189
q0 -99 -69.5 -156t-179.5 -57q-107 0 -180.5 50t-88.5 144zM224 773h-91l132 154h84l132 -154h-91l-83 91z" />
    <glyph glyph-name="scircumflex" unicode="&#x15d;" horiz-adv-x="496" 
d="M130 141q8 -36 41.5 -56t84.5 -20t80.5 19.5t29.5 56.5q0 58 -77 68l-90 12q-143 19 -143 137q0 67 54 112t135 45q80 0 132.5 -38t64.5 -106h-84q-24 68 -113 68q-47 0 -75 -21.5t-28 -53.5q0 -54 72 -63l91 -12q147 -20 147 -143q0 -74 -55 -115.5t-139 -41.5
q-82 0 -143 37t-70 115h85zM171 581h-91l127 154h84l128 -154h-91l-79 91z" />
    <glyph glyph-name="Scedilla" unicode="&#x15e;" horiz-adv-x="616" 
d="M49 183h91q38 -112 180 -112q70 0 113 33.5t43 91.5q0 90 -112 108l-130 21q-84 13 -129.5 60.5t-45.5 119.5q0 95 70 152.5t172 57.5q99 0 168.5 -48.5t86.5 -139.5h-91q-33 106 -164 106q-63 0 -107 -32.5t-44 -88.5q0 -39 26.5 -65t76.5 -34l131 -22q183 -31 183 -189
q0 -92 -60.5 -148t-159.5 -63l-16 -45q32 -3 56.5 -25t24.5 -61q0 -44 -31.5 -71t-91.5 -27h-55v62h53q48 0 48 38q0 35 -46 35h-36v21l27 73q-93 8 -155 57t-76 135z" />
    <glyph glyph-name="scedilla" unicode="&#x15f;" horiz-adv-x="496" 
d="M130 141q8 -36 41.5 -56t84.5 -20t80.5 19.5t29.5 56.5q0 58 -77 68l-90 12q-143 19 -143 137q0 67 54 112t135 45q80 0 132.5 -38t64.5 -106h-84q-24 68 -113 68q-47 0 -75 -21.5t-28 -53.5q0 -54 72 -63l91 -12q147 -20 147 -143q0 -67 -46 -107.5t-119 -47.5l-16 -45
q32 -3 56.5 -25t24.5 -61q0 -44 -31.5 -71t-91.5 -27h-55v62h53q48 0 48 38q0 35 -46 35h-36v21l27 73q-70 8 -118.5 44.5t-56.5 105.5h85z" />
    <glyph glyph-name="Scaron" unicode="&#x160;" horiz-adv-x="616" 
d="M49 183h91q38 -112 180 -112q70 0 113 33.5t43 91.5q0 90 -112 108l-130 21q-84 13 -129.5 60.5t-45.5 119.5q0 95 70 152.5t172 57.5q99 0 168.5 -48.5t86.5 -139.5h-91q-33 106 -164 106q-63 0 -107 -32.5t-44 -88.5q0 -39 26.5 -65t76.5 -34l131 -22q183 -31 183 -189
q0 -99 -69.5 -156t-179.5 -57q-107 0 -180.5 50t-88.5 144zM224 927l83 -91l83 91h91l-132 -154h-84l-132 154h91z" />
    <glyph glyph-name="scaron" unicode="&#x161;" horiz-adv-x="496" 
d="M130 141q8 -36 41.5 -56t84.5 -20t80.5 19.5t29.5 56.5q0 58 -77 68l-90 12q-143 19 -143 137q0 67 54 112t135 45q80 0 132.5 -38t64.5 -106h-84q-24 68 -113 68q-47 0 -75 -21.5t-28 -53.5q0 -54 72 -63l91 -12q147 -20 147 -143q0 -74 -55 -115.5t-139 -41.5
q-82 0 -143 37t-70 115h85zM171 735l78 -91l79 91h91l-128 -154h-84l-127 154h91z" />
    <glyph glyph-name="uni0162" unicode="&#x162;" horiz-adv-x="623" 
d="M35 622v82h553v-82h-232v-622h-11l-20 -54q32 -3 56.5 -25t24.5 -61q0 -44 -31.5 -71t-91.5 -27h-55v62h53q48 0 48 38q0 35 -46 35h-36v21l31 82h-11v622h-232z" />
    <glyph glyph-name="uni0163" unicode="&#x163;" horiz-adv-x="336" 
d="M187 157q0 -46 20.5 -63t56.5 -17h34v-77h-48h-10l-20 -54q32 -3 56.5 -25t24.5 -61q0 -44 -31.5 -71t-91.5 -27h-55v62h53q48 0 48 38q0 35 -46 35h-36v21l35 94q-76 30 -76 141v274h-84v77h84v134h86v-134h111v-77h-111v-270z" />
    <glyph glyph-name="Tcaron" unicode="&#x164;" horiz-adv-x="623" 
d="M35 622v82h553v-82h-232v-622h-89v622h-232zM229 927l83 -91l83 91h91l-132 -154h-84l-132 154h91z" />
    <glyph glyph-name="tcaron" unicode="&#x165;" horiz-adv-x="336" 
d="M187 157q0 -46 20.5 -63t56.5 -17h34v-77h-48q-149 0 -149 153v274h-84v77h84v134h86v-134h111v-77h-111v-270zM362 724q0 -18 -10 -45l-39 -104h-67l36 100q-16 4 -28 18t-12 34q0 25 16.5 40.5t41.5 15.5q26 0 44 -16.5t18 -42.5z" />
    <glyph glyph-name="Tbar" unicode="&#x166;" horiz-adv-x="623" 
d="M529 289h-173v-289h-89v289h-173v80h173v253h-232v82h553v-82h-232v-253h173v-80z" />
    <glyph glyph-name="tbar" unicode="&#x167;" horiz-adv-x="336" 
d="M17 310h84v118h-84v76h84v134h85v-134h112v-76h-112v-118h112v-72h-112v-81q0 -46 20.5 -63.5t56.5 -17.5h35v-76h-48q-149 0 -149 153v85h-84v72z" />
    <glyph glyph-name="Utilde" unicode="&#x168;" horiz-adv-x="720" 
d="M83 276v428h89v-425q0 -101 52 -154t136 -53t136 53t52 154v425h89v-428q0 -139 -77 -213t-200 -74t-200 74t-77 213zM460 911h65v-18q0 -51 -26.5 -81t-70.5 -30q-31 0 -56.5 16t-44.5 32t-33 16q-15 0 -24.5 -11.5t-9.5 -31.5v-15h-65v18q0 51 26.5 81t70.5 30
q31 0 56.5 -16t44.5 -32t33 -16q15 0 24.5 11.5t9.5 31.5v15z" />
    <glyph glyph-name="utilde" unicode="&#x169;" horiz-adv-x="569" 
d="M494 0h-83v59q-21 -29 -60.5 -49.5t-92.5 -20.5q-80 0 -134 50t-54 148v317h86v-305q0 -66 32 -99t86 -33q55 0 94.5 35t39.5 105v297h86v-504zM379 719h65v-16q0 -53 -26 -83t-71 -30q-31 0 -55 16t-41.5 32t-31.5 16t-24 -11t-10 -31v-16h-65v16q0 53 26 83t71 30
q31 0 55 -16t41.5 -32t31.5 -16t24 11t10 31v16z" />
    <glyph glyph-name="Umacron" unicode="&#x16a;" horiz-adv-x="720" 
d="M83 276v428h89v-425q0 -101 52 -154t136 -53t136 53t52 154v425h89v-428q0 -139 -77 -213t-200 -74t-200 74t-77 213zM209 886h302v-74h-302v74z" />
    <glyph glyph-name="umacron" unicode="&#x16b;" horiz-adv-x="569" 
d="M494 0h-83v59q-21 -29 -60.5 -49.5t-92.5 -20.5q-80 0 -134 50t-54 148v317h86v-305q0 -66 32 -99t86 -33q55 0 94.5 35t39.5 105v297h86v-504zM135 694h294v-74h-294v74z" />
    <glyph glyph-name="Ubreve" unicode="&#x16c;" horiz-adv-x="720" 
d="M83 276v428h89v-425q0 -101 52 -154t136 -53t136 53t52 154v425h89v-428q0 -139 -77 -213t-200 -74t-200 74t-77 213zM274 927q0 -37 23.5 -62.5t62.5 -25.5t62.5 25.5t23.5 62.5h77q-1 -70 -46.5 -113t-116.5 -43t-116.5 43t-46.5 113h77z" />
    <glyph glyph-name="ubreve" unicode="&#x16d;" horiz-adv-x="569" 
d="M494 0h-83v59q-21 -29 -60.5 -49.5t-92.5 -20.5q-80 0 -134 50t-54 148v317h86v-305q0 -66 32 -99t86 -33q55 0 94.5 35t39.5 105v297h86v-504zM200 735q0 -38 21.5 -63t60.5 -25t60.5 25t21.5 63h77q-2 -70 -45.5 -113t-113.5 -43t-113.5 43t-45.5 113h77z" />
    <glyph glyph-name="Uring" unicode="&#x16e;" horiz-adv-x="720" 
d="M83 276v428h89v-425q0 -101 52 -154t136 -53t136 53t52 154v425h89v-428q0 -139 -77 -213t-200 -74t-200 74t-77 213zM466 859q0 -44 -30 -73.5t-76 -29.5t-76 29.5t-30 73.5t30 73.5t76 29.5t76 -29.5t30 -73.5zM314 859q0 -20 13.5 -33t32.5 -13t32.5 13t13.5 33
t-13.5 33t-32.5 13t-32.5 -13t-13.5 -33z" />
    <glyph glyph-name="uring" unicode="&#x16f;" horiz-adv-x="569" 
d="M494 0h-83v59q-21 -29 -60.5 -49.5t-92.5 -20.5q-80 0 -134 50t-54 148v317h86v-305q0 -66 32 -99t86 -33q55 0 94.5 35t39.5 105v297h86v-504zM388 667q0 -44 -30 -73.5t-76 -29.5t-76 29.5t-30 73.5t30 73.5t76 29.5t76 -29.5t30 -73.5zM236 667q0 -20 13.5 -33
t32.5 -13t32.5 13t13.5 33t-13.5 33t-32.5 13t-32.5 -13t-13.5 -33z" />
    <glyph glyph-name="Uhungarumlaut" unicode="&#x170;" horiz-adv-x="720" 
d="M83 276v428h89v-425q0 -101 52 -154t136 -53t136 53t52 154v425h89v-428q0 -139 -77 -213t-200 -74t-200 74t-77 213zM412 927l-95 -154h-84l89 154h90zM582 927l-95 -154h-84l89 154h90z" />
    <glyph glyph-name="uhungarumlaut" unicode="&#x171;" horiz-adv-x="569" 
d="M494 0h-83v59q-21 -29 -60.5 -49.5t-92.5 -20.5q-80 0 -134 50t-54 148v317h86v-305q0 -66 32 -99t86 -33q55 0 94.5 35t39.5 105v297h86v-504zM336 735l-95 -154h-84l89 154h90zM502 735l-95 -154h-84l89 154h90z" />
    <glyph glyph-name="Uogonek" unicode="&#x172;" horiz-adv-x="720" 
d="M83 276v428h89v-425q0 -101 52 -154t136 -53t136 53t52 154v425h89v-428q0 -170 -116 -244q-6 -5 -37 -28t-45.5 -35.5t-30 -35t-15.5 -43.5q0 -51 59 -51h34v-68h-51q-60 0 -91.5 28t-31.5 72q0 61 64 118h-16q-123 0 -200 74t-77 213z" />
    <glyph glyph-name="uogonek" unicode="&#x173;" horiz-adv-x="569" 
d="M494 0q-36 -22 -60.5 -52t-24.5 -58q0 -51 59 -51h34v-68h-51q-60 0 -91.5 28t-31.5 72q0 41 24 78.5t59 59.5v50q-21 -29 -60.5 -49.5t-92.5 -20.5q-80 0 -134 50t-54 148v317h86v-305q0 -66 32 -99t86 -33q55 0 94.5 35t39.5 105v297h86v-504z" />
    <glyph glyph-name="Wcircumflex" unicode="&#x174;" horiz-adv-x="980" 
d="M952 704l-218 -704h-84l-161 557l-161 -557h-82l-218 704h94l165 -548l160 548h86l159 -548l166 548h94zM406 773h-91l132 154h84l132 -154h-91l-83 91z" />
    <glyph glyph-name="wcircumflex" unicode="&#x175;" horiz-adv-x="773" 
d="M753 504l-165 -504h-83l-120 385l-118 -385h-82l-165 504h90l117 -371l116 371h87l116 -371l117 371h90zM308 581h-91l127 154h84l128 -154h-91l-79 91z" />
    <glyph glyph-name="Ycircumflex" unicode="&#x176;" horiz-adv-x="637" 
d="M363 0h-89v276l-259 428h101l202 -338l203 338h101l-259 -428v-276zM237 773h-91l132 154h84l132 -154h-91l-83 91z" />
    <glyph glyph-name="ycircumflex" unicode="&#x177;" horiz-adv-x="519" 
d="M411 504h93l-276 -695h-93l78 197l-198 498h93l152 -393zM181 581h-91l127 154h84l128 -154h-91l-79 91z" />
    <glyph glyph-name="Ydieresis" unicode="&#x178;" horiz-adv-x="637" 
d="M363 0h-89v276l-259 428h101l202 -338l203 338h101l-259 -428v-276zM213 907q25 0 42 -16.5t17 -41.5t-17 -41.5t-42 -16.5t-42 16.5t-17 41.5t17 41.5t42 16.5zM427 907q25 0 42 -16.5t17 -41.5t-17 -41.5t-42 -16.5t-42 16.5t-17 41.5t17 41.5t42 16.5z" />
    <glyph glyph-name="Zacute" unicode="&#x179;" horiz-adv-x="618" 
d="M59 75l391 547h-391v82h500v-75l-392 -547h392v-82h-500v75zM457 927l-101 -154h-87l95 154h93z" />
    <glyph glyph-name="zacute" unicode="&#x17a;" horiz-adv-x="490" 
d="M50 0v67l280 360h-280v77h390v-68l-281 -359h281v-77h-390zM392 735l-101 -154h-87l95 154h93z" />
    <glyph glyph-name="Zdotaccent" unicode="&#x17b;" horiz-adv-x="618" 
d="M59 75l391 547h-391v82h500v-75l-392 -547h392v-82h-500v75zM311 907q25 0 42 -16.5t17 -41.5t-17 -41.5t-42 -16.5t-42 16.5t-17 41.5t17 41.5t42 16.5z" />
    <glyph glyph-name="zdotaccent" unicode="&#x17c;" horiz-adv-x="490" 
d="M50 0v67l280 360h-280v77h390v-68l-281 -359h281v-77h-390zM246 715q25 0 42 -16.5t17 -41.5t-17 -41.5t-42 -16.5t-42 16.5t-17 41.5t17 41.5t42 16.5z" />
    <glyph glyph-name="Zcaron" unicode="&#x17d;" horiz-adv-x="618" 
d="M59 75l391 547h-391v82h500v-75l-392 -547h392v-82h-500v75zM227 927l83 -91l83 91h91l-132 -154h-84l-132 154h91z" />
    <glyph glyph-name="zcaron" unicode="&#x17e;" horiz-adv-x="490" 
d="M50 0v67l280 360h-280v77h390v-68l-281 -359h281v-77h-390zM167 735l78 -91l79 91h91l-128 -154h-84l-127 154h91z" />
    <glyph glyph-name="uni018F" unicode="&#x18f;" horiz-adv-x="713" 
d="M52 332v53h517q-3 112 -65.5 180t-158.5 68q-134 0 -192 -112h-92q27 87 101.5 140.5t182.5 53.5q144 0 230 -99t86 -264q0 -164 -82.5 -263.5t-221.5 -99.5t-222 96t-83 247zM355 71q95 0 151.5 64t61.5 170h-427q4 -105 63 -169.5t151 -64.5z" />
    <glyph glyph-name="florin" unicode="&#x192;" horiz-adv-x="512" 
d="M140 443h95l15 94q27 167 183 167h39v-77h-36q-84 0 -100 -97l-14 -87h99v-77h-112l-57 -357q-27 -167 -183 -167h-39v77h36q84 0 100 97l56 350h-82v77z" />
    <glyph glyph-name="uni01CD" unicode="&#x1cd;" horiz-adv-x="664" 
d="M286 704h92l266 -704h-96l-69 186h-296l-67 -186h-96zM331 591l-118 -323h236zM251 927l83 -91l83 91h91l-132 -154h-84l-132 154h91z" />
    <glyph glyph-name="uni01CE" unicode="&#x1ce;" horiz-adv-x="531" 
d="M376 334q0 51 -31.5 78t-82.5 27q-91 0 -116 -67h-83q13 62 65.5 102.5t135.5 40.5q89 0 143 -48.5t54 -132.5v-334h-81v60q-57 -71 -162 -71q-75 0 -124.5 42.5t-49.5 112.5q0 73 53 114.5t145 41.5h134v34zM229 64q62 0 104.5 35t42.5 91v37h-129q-53 0 -84.5 -21
t-31.5 -61q0 -39 27 -60t71 -21zM188 735l78 -91l79 91h91l-128 -154h-84l-127 154h91z" />
    <glyph glyph-name="uni01D1" unicode="&#x1d1;" horiz-adv-x="752" 
d="M376 715q146 0 235 -102t89 -261t-89 -261t-235 -102t-235 102t-89 261t89 261t235 102zM376 72q107 0 170 77.5t63 202.5t-63 202.5t-170 77.5t-170 -77.5t-63 -202.5t63 -202.5t170 -77.5zM293 927l83 -91l83 91h91l-132 -154h-84l-132 154h91z" />
    <glyph glyph-name="uni01D2" unicode="&#x1d2;" horiz-adv-x="574" 
d="M287 515q109 0 175.5 -73.5t66.5 -189.5t-66.5 -189.5t-175.5 -73.5t-175.5 73.5t-66.5 189.5t66.5 189.5t175.5 73.5zM287 67q71 0 112.5 51t41.5 134t-41.5 134t-112.5 51t-112.5 -51t-41.5 -134t41.5 -134t112.5 -51zM209 735l78 -91l79 91h91l-128 -154h-84l-127 154
h91z" />
    <glyph glyph-name="uni01D3" unicode="&#x1d3;" horiz-adv-x="720" 
d="M83 276v428h89v-425q0 -101 52 -154t136 -53t136 53t52 154v425h89v-428q0 -139 -77 -213t-200 -74t-200 74t-77 213zM277 927l83 -91l83 91h91l-132 -154h-84l-132 154h91z" />
    <glyph glyph-name="uni01D4" unicode="&#x1d4;" horiz-adv-x="569" 
d="M494 0h-83v59q-21 -29 -60.5 -49.5t-92.5 -20.5q-80 0 -134 50t-54 148v317h86v-305q0 -66 32 -99t86 -33q55 0 94.5 35t39.5 105v297h86v-504zM204 735l78 -91l79 91h91l-128 -154h-84l-127 154h91z" />
    <glyph glyph-name="uni0218" unicode="&#x218;" horiz-adv-x="616" 
d="M49 183h91q38 -112 180 -112q70 0 113 33.5t43 91.5q0 90 -112 108l-130 21q-84 13 -129.5 60.5t-45.5 119.5q0 95 70 152.5t172 57.5q99 0 168.5 -48.5t86.5 -139.5h-91q-33 106 -164 106q-63 0 -107 -32.5t-44 -88.5q0 -39 26.5 -65t76.5 -34l131 -22q183 -31 183 -189
q0 -99 -69.5 -156t-179.5 -57q-107 0 -180.5 50t-88.5 144zM378 -113q0 -18 -10 -45l-39 -104h-67l36 100q-16 4 -28 18t-12 34q0 25 16.5 40.5t41.5 15.5q26 0 44 -16.5t18 -42.5z" />
    <glyph glyph-name="uni0219" unicode="&#x219;" horiz-adv-x="496" 
d="M130 141q8 -36 41.5 -56t84.5 -20t80.5 19.5t29.5 56.5q0 58 -77 68l-90 12q-143 19 -143 137q0 67 54 112t135 45q80 0 132.5 -38t64.5 -106h-84q-24 68 -113 68q-47 0 -75 -21.5t-28 -53.5q0 -54 72 -63l91 -12q147 -20 147 -143q0 -74 -55 -115.5t-139 -41.5
q-82 0 -143 37t-70 115h85zM318 -113q0 -18 -10 -45l-39 -104h-67l36 100q-16 4 -28 18t-12 34q0 25 16.5 40.5t41.5 15.5q26 0 44 -16.5t18 -42.5z" />
    <glyph glyph-name="uni021A" unicode="&#x21a;" horiz-adv-x="623" 
d="M35 622v82h553v-82h-232v-622h-89v622h-232zM372 -113q0 -18 -10 -45l-39 -104h-67l36 100q-16 4 -28 18t-12 34q0 25 16.5 40.5t41.5 15.5q26 0 44 -16.5t18 -42.5z" />
    <glyph glyph-name="uni021B" unicode="&#x21b;" horiz-adv-x="336" 
d="M187 157q0 -46 20.5 -63t56.5 -17h34v-77h-48q-149 0 -149 153v274h-84v77h84v134h86v-134h111v-77h-111v-270zM260 -113q0 -18 -10 -45l-39 -104h-67l36 100q-16 4 -28 18t-12 34q0 25 16.5 40.5t41.5 15.5q26 0 44 -16.5t18 -42.5z" />
    <glyph glyph-name="uni0237" unicode="&#x237;" horiz-adv-x="236" 
d="M-15 -191v77h22q68 0 68 88v530h86v-534q0 -161 -140 -161h-36z" />
    <glyph glyph-name="uni0259" unicode="&#x259;" horiz-adv-x="547" 
d="M45 235v47h367q0 69 -41 112.5t-111 43.5q-48 0 -79.5 -20t-39.5 -43h-87q12 53 65 96.5t142 43.5q111 0 176 -71t65 -192t-64 -192t-169 -71q-101 0 -162.5 66.5t-61.5 179.5zM271 66q62 0 98.5 39t41.5 104h-279q1 -67 39 -105t100 -38z" />
    <glyph glyph-name="circumflex" unicode="&#x2c6;" horiz-adv-x="520" 
d="M181 581h-91l127 154h84l128 -154h-91l-79 91z" />
    <glyph glyph-name="caron" unicode="&#x2c7;" horiz-adv-x="520" 
d="M182 735l78 -91l79 91h91l-128 -154h-84l-127 154h91z" />
    <glyph glyph-name="breve" unicode="&#x2d8;" horiz-adv-x="520" 
d="M178 735q0 -38 21.5 -63t60.5 -25t60.5 25t21.5 63h77q-2 -70 -45.5 -113t-113.5 -43t-113.5 43t-45.5 113h77z" />
    <glyph glyph-name="dotaccent" unicode="&#x2d9;" horiz-adv-x="520" 
d="M260 715q25 0 42 -16.5t17 -41.5t-17 -41.5t-42 -16.5t-42 16.5t-17 41.5t17 41.5t42 16.5z" />
    <glyph glyph-name="ring" unicode="&#x2da;" horiz-adv-x="520" 
d="M366 667q0 -44 -30 -73.5t-76 -29.5t-76 29.5t-30 73.5t30 73.5t76 29.5t76 -29.5t30 -73.5zM214 667q0 -20 13.5 -33t32.5 -13t32.5 13t13.5 33t-13.5 33t-32.5 13t-32.5 -13t-13.5 -33z" />
    <glyph glyph-name="ogonek" unicode="&#x2db;" horiz-adv-x="520" 
d="M339 0q-36 -22 -60.5 -52t-24.5 -58q0 -51 59 -51h34v-68h-51q-60 0 -91.5 28t-31.5 72q0 47 32 89.5t74 61.5z" />
    <glyph glyph-name="tilde" unicode="&#x2dc;" horiz-adv-x="520" 
d="M357 719h65v-16q0 -53 -26 -83t-71 -30q-31 0 -55 16t-41.5 32t-31.5 16t-24 -11t-10 -31v-16h-65v16q0 53 26 83t71 30q31 0 55 -16t41.5 -32t31.5 -16t24 11t10 31v16z" />
    <glyph glyph-name="hungarumlaut" unicode="&#x2dd;" horiz-adv-x="520" 
d="M266 735l-95 -154h-84l89 154h90zM432 735l-95 -154h-84l89 154h90z" />
    <glyph glyph-name="gravecomb" unicode="&#x300;" horiz-adv-x="0" 
d="M-147 735h93l95 -154h-87z" />
    <glyph glyph-name="acutecomb" unicode="&#x301;" horiz-adv-x="0" 
d="M147 735l-101 -154h-87l95 154h93z" />
    <glyph glyph-name="uni0302" unicode="&#x302;" horiz-adv-x="0" 
d="M-78 581h-91l127 154h84l128 -154h-91l-79 91z" />
    <glyph glyph-name="tildecomb" unicode="&#x303;" horiz-adv-x="0" 
d="M97 719h65v-16q0 -53 -26 -83t-71 -30q-31 0 -55 16t-41.5 32t-31.5 16t-24 -11t-10 -31v-16h-65v16q0 53 26 83t71 30q31 0 55 -16t41.5 -32t31.5 -16t24 11t10 31v16z" />
    <glyph glyph-name="uni0304" unicode="&#x304;" horiz-adv-x="0" 
d="M-147 694h294v-74h-294v74z" />
    <glyph glyph-name="uni0306" unicode="&#x306;" horiz-adv-x="0" 
d="M-82 735q0 -38 21.5 -63t60.5 -25t60.5 25t21.5 63h77q-2 -70 -45.5 -113t-113.5 -43t-113.5 43t-45.5 113h77z" />
    <glyph glyph-name="uni0307" unicode="&#x307;" horiz-adv-x="0" 
d="M0 715q25 0 42 -16.5t17 -41.5t-17 -41.5t-42 -16.5t-42 16.5t-17 41.5t17 41.5t42 16.5z" />
    <glyph glyph-name="uni0308" unicode="&#x308;" horiz-adv-x="0" 
d="M-103 715q25 0 42 -16.5t17 -41.5t-17 -41.5t-42 -16.5t-42 16.5t-17 41.5t17 41.5t42 16.5zM103 715q25 0 42 -16.5t17 -41.5t-17 -41.5t-42 -16.5t-42 16.5t-17 41.5t17 41.5t42 16.5z" />
    <glyph glyph-name="uni030A" unicode="&#x30a;" horiz-adv-x="0" 
d="M106 667q0 -44 -30 -73.5t-76 -29.5t-76 29.5t-30 73.5t30 73.5t76 29.5t76 -29.5t30 -73.5zM-46 667q0 -20 13.5 -33t32.5 -13t32.5 13t13.5 33t-13.5 33t-32.5 13t-32.5 -13t-13.5 -33z" />
    <glyph glyph-name="uni030B" unicode="&#x30b;" horiz-adv-x="0" 
d="M54 735l-95 -154h-84l89 154h90zM220 735l-95 -154h-84l89 154h90z" />
    <glyph glyph-name="uni030C" unicode="&#x30c;" horiz-adv-x="0" 
d="M-78 735l78 -91l79 91h91l-128 -154h-84l-127 154h91z" />
    <glyph glyph-name="uni0312" unicode="&#x312;" horiz-adv-x="0" 
d="M-60 640q0 18 10 45l39 104h67l-36 -100q16 -4 28 -18t12 -34q0 -25 -16.5 -40.5t-41.5 -15.5q-26 0 -44 16.5t-18 42.5z" />
    <glyph glyph-name="uni0326" unicode="&#x326;" horiz-adv-x="0" 
d="M60 -113q0 -18 -10 -45l-39 -104h-67l36 100q-16 4 -28 18t-12 34q0 25 16.5 40.5t41.5 15.5q26 0 44 -16.5t18 -42.5z" />
    <glyph glyph-name="uni0327" unicode="&#x327;" horiz-adv-x="0" 
d="M33 13v-13l-20 -54q32 -3 56.5 -25t24.5 -61q0 -44 -31.5 -71t-91.5 -27h-55v62h53q48 0 48 38q0 35 -46 35h-36v21l36 95h62z" />
    <glyph glyph-name="uni0328" unicode="&#x328;" horiz-adv-x="0" 
d="M0 0q-36 -22 -60.5 -52t-24.5 -58q0 -51 59 -51h34v-68h-51q-60 0 -91.5 28t-31.5 72q0 47 32 89.5t74 61.5z" />
    <glyph glyph-name="uni037E" unicode="&#x37e;" horiz-adv-x="264" 
d="M194 46q0 -21 -9 -45l-60 -163h-71l56 157q-42 13 -42 55q0 25 17.5 42t43.5 17q27 0 46 -18t19 -45zM131 489q26 0 44 -17.5t18 -43.5t-18 -43.5t-44 -17.5t-44 17.5t-18 43.5t18 43.5t44 17.5z" />
    <glyph glyph-name="tonos" unicode="&#x384;" horiz-adv-x="520" 
d="M354 735l-101 -154h-87l95 154h93z" />
    <glyph glyph-name="dieresistonos" unicode="&#x385;" horiz-adv-x="520" 
d="M127 708q23 0 39 -16t16 -38t-16 -38t-39 -16t-39 16t-16 38t16 38t39 16zM323 735l-50 -154h-73l44 154h79zM393 708q23 0 39 -16t16 -38t-16 -38t-39 -16t-39 16t-16 38t16 38t39 16z" />
    <glyph glyph-name="Alphatonos" unicode="&#x386;" horiz-adv-x="664" 
d="M286 704h92l266 -704h-96l-69 186h-296l-67 -186h-96zM331 591l-118 -323h236zM232 704l-101 -154h-87l95 154h93z" />
    <glyph glyph-name="anoteleia" unicode="&#x387;" horiz-adv-x="264" 
d="M132 313q26 0 44 -17.5t18 -43.5t-18 -43.5t-44 -17.5t-44 17.5t-18 43.5t18 43.5t44 17.5z" />
    <glyph glyph-name="Epsilontonos" unicode="&#x388;" horiz-adv-x="710" 
d="M650 622h-357v-220h338v-81h-338v-239h357v-82h-446v704h446v-82zM168 704l-101 -154h-87l95 154h93z" />
    <glyph glyph-name="Etatonos" unicode="&#x389;" horiz-adv-x="846" 
d="M293 0h-89v704h89v-301h376v301h89v-704h-89v320h-376v-320zM168 704l-101 -154h-87l95 154h93z" />
    <glyph glyph-name="Iotatonos" unicode="&#x38a;" horiz-adv-x="381" 
d="M293 704v-704h-89v704h89zM168 704l-101 -154h-87l95 154h93z" />
    <glyph glyph-name="Omicrontonos" unicode="&#x38c;" horiz-adv-x="802" 
d="M426 715q146 0 235 -102t89 -261t-89 -261t-235 -102t-235 102t-89 261t89 261t235 102zM426 72q107 0 170 77.5t63 202.5t-63 202.5t-170 77.5t-170 -77.5t-63 -202.5t63 -202.5t170 -77.5zM170 704l-101 -154h-87l95 154h93z" />
    <glyph glyph-name="Upsilontonos" unicode="&#x38e;" horiz-adv-x="808" 
d="M534 0h-89v276l-259 428h101l202 -338l203 338h101l-259 -428v-276zM168 704l-101 -154h-87l95 154h93z" />
    <glyph glyph-name="Omegatonos" unicode="&#x38f;" horiz-adv-x="813" 
d="M756 370q0 -91 -36 -165t-97 -124h133v-81h-254v81q69 42 116 116t47 171q0 117 -63 190.5t-170 73.5t-170 -73.5t-63 -190.5q0 -97 47 -171t116 -116v-81h-254v81h132q-132 111 -132 289q0 150 89.5 247.5t234.5 97.5t234.5 -97.5t89.5 -247.5zM170 704l-101 -154h-87
l95 154h93z" />
    <glyph glyph-name="iotadieresistonos" unicode="&#x390;" horiz-adv-x="292" 
d="M161 157q0 -46 20.5 -63t56.5 -17h24v-77h-38q-149 0 -149 153v351h86v-347zM1 708q23 0 39 -16t16 -38t-16 -38t-39 -16t-39 16t-16 38t16 38t39 16zM197 735l-50 -154h-73l44 154h79zM267 708q23 0 39 -16t16 -38t-16 -38t-39 -16t-39 16t-16 38t16 38t39 16z" />
    <glyph glyph-name="Alpha" unicode="&#x391;" horiz-adv-x="664" 
d="M286 704h92l266 -704h-96l-69 186h-296l-67 -186h-96zM331 591l-118 -323h236z" />
    <glyph glyph-name="Beta" unicode="&#x392;" horiz-adv-x="635" 
d="M88 0v704h261q99 0 155 -51.5t56 -130.5q0 -60 -27 -99.5t-65 -54.5q46 -13 82.5 -56t36.5 -113q0 -89 -63 -144t-169 -55h-267zM354 323h-178v-243h173q67 0 107 32t40 89q0 56 -38.5 89t-103.5 33zM338 624h-162v-222h168q61 0 93.5 31t32.5 80q0 52 -35 81.5t-97 29.5
z" />
    <glyph glyph-name="Gamma" unicode="&#x393;" horiz-adv-x="562" 
d="M524 622h-347v-622h-89v704h436v-82z" />
    <glyph glyph-name="uni0394" unicode="&#x394;" horiz-adv-x="680" 
d="M386 704l275 -704h-642l275 704h92zM340 591l-195 -508h389z" />
    <glyph glyph-name="Epsilon" unicode="&#x395;" horiz-adv-x="594" 
d="M534 622h-357v-220h338v-81h-338v-239h357v-82h-446v704h446v-82z" />
    <glyph glyph-name="Zeta" unicode="&#x396;" horiz-adv-x="618" 
d="M59 75l391 547h-391v82h500v-75l-392 -547h392v-82h-500v75z" />
    <glyph glyph-name="Eta" unicode="&#x397;" horiz-adv-x="730" 
d="M177 0h-89v704h89v-301h376v301h89v-704h-89v320h-376v-320z" />
    <glyph glyph-name="Theta" unicode="&#x398;" horiz-adv-x="752" 
d="M376 715q146 0 235 -102t89 -261t-89 -261t-235 -102t-235 102t-89 261t89 261t235 102zM376 72q107 0 170.5 77.5t63.5 202.5q0 124 -63.5 202t-170.5 78t-170.5 -78t-63.5 -202q0 -125 63.5 -202.5t170.5 -77.5zM529 321h-306v81h306v-81z" />
    <glyph glyph-name="Iota" unicode="&#x399;" horiz-adv-x="265" 
d="M177 704v-704h-89v704h89z" />
    <glyph glyph-name="Kappa" unicode="&#x39a;" horiz-adv-x="626" 
d="M177 0h-89v704h89v-314l313 314h115l-334 -337l340 -367h-118l-316 336v-336z" />
    <glyph glyph-name="Lambda" unicode="&#x39b;" horiz-adv-x="654" 
d="M23 0l258 704h92l258 -704h-96l-208 584l-208 -584h-96z" />
    <glyph glyph-name="Mu" unicode="&#x39c;" horiz-adv-x="893" 
d="M88 704h108l251 -589l251 589h107v-704h-87v541l-230 -541h-82l-231 541v-541h-87v704z" />
    <glyph glyph-name="Nu" unicode="&#x39d;" horiz-adv-x="733" 
d="M184 704l374 -558v558h87v-704h-87l-383 570v-570h-87v704h96z" />
    <glyph glyph-name="Xi" unicode="&#x39e;" horiz-adv-x="628" 
d="M60 84h508v-84h-508v84zM106 402h416v-82h-416v82zM60 704h508v-84h-508v84z" />
    <glyph glyph-name="Omicron" unicode="&#x39f;" horiz-adv-x="752" 
d="M376 715q146 0 235 -102t89 -261t-89 -261t-235 -102t-235 102t-89 261t89 261t235 102zM376 72q107 0 170 77.5t63 202.5t-63 202.5t-170 77.5t-170 -77.5t-63 -202.5t63 -202.5t170 -77.5z" />
    <glyph glyph-name="Pi" unicode="&#x3a0;" horiz-adv-x="727" 
d="M88 704h551v-704h-89v622h-373v-622h-89v704z" />
    <glyph glyph-name="Rho" unicode="&#x3a1;" horiz-adv-x="613" 
d="M333 704q109 0 171.5 -64t62.5 -160q0 -94 -63.5 -159.5t-168.5 -65.5h-158v-255h-89v704h245zM323 623h-146v-287h146q72 0 112.5 39.5t40.5 104.5t-40 104t-113 39z" />
    <glyph glyph-name="Sigma" unicode="&#x3a3;" horiz-adv-x="611" 
d="M551 704v-81h-380l221 -270l-223 -272h383v-81h-493v74l228 278l-227 278v74h491z" />
    <glyph glyph-name="Tau" unicode="&#x3a4;" horiz-adv-x="623" 
d="M35 622v82h553v-82h-232v-622h-89v622h-232z" />
    <glyph glyph-name="Upsilon" unicode="&#x3a5;" horiz-adv-x="637" 
d="M363 0h-89v276l-259 428h101l202 -338l203 338h101l-259 -428v-276z" />
    <glyph glyph-name="Phi" unicode="&#x3a6;" horiz-adv-x="825" 
d="M456 652q138 -2 230 -81t92 -215t-92 -214.5t-230 -80.5v-72h-87v72q-138 2 -230 80.5t-92 214.5t92 215t230 81v72h87v-72zM369 142v429q-105 -2 -168.5 -59.5t-63.5 -155.5q0 -97 63.5 -154.5t168.5 -59.5zM456 142q105 2 168.5 59.5t63.5 154.5q0 98 -63.5 155.5
t-168.5 59.5v-429z" />
    <glyph glyph-name="Chi" unicode="&#x3a7;" horiz-adv-x="658" 
d="M524 0l-197 287l-194 -287h-105l244 355l-242 349h105l195 -284l194 284h104l-242 -351l244 -353h-106z" />
    <glyph glyph-name="Psi" unicode="&#x3a8;" horiz-adv-x="827" 
d="M167 451q0 -95 51 -147.5t151 -58.5v459h89v-459q100 6 151 58.5t51 147.5v253h89v-257q0 -133 -78.5 -206t-212.5 -79v-162h-89v162q-134 6 -212.5 79t-78.5 206v257h89v-253z" />
    <glyph glyph-name="uni03A9" unicode="&#x3a9;" horiz-adv-x="762" 
d="M705 370q0 -91 -36 -165t-97 -124h133v-81h-254v81q69 42 116 116t47 171q0 117 -63 190.5t-170 73.5t-170 -73.5t-63 -190.5q0 -97 47 -171t116 -116v-81h-254v81h132q-132 111 -132 289q0 150 89.5 247.5t234.5 97.5t234.5 -97.5t89.5 -247.5z" />
    <glyph glyph-name="Iotadieresis" unicode="&#x3aa;" horiz-adv-x="265" 
d="M177 704v-704h-89v704h89zM30 907q25 0 42 -16.5t17 -41.5t-17 -41.5t-42 -16.5t-42 16.5t-17 41.5t17 41.5t42 16.5zM236 907q25 0 42 -16.5t17 -41.5t-17 -41.5t-42 -16.5t-42 16.5t-17 41.5t17 41.5t42 16.5z" />
    <glyph glyph-name="Upsilondieresis" unicode="&#x3ab;" horiz-adv-x="637" 
d="M363 0h-89v276l-259 428h101l202 -338l203 338h101l-259 -428v-276zM213 907q25 0 42 -16.5t17 -41.5t-17 -41.5t-42 -16.5t-42 16.5t-17 41.5t17 41.5t42 16.5zM427 907q25 0 42 -16.5t17 -41.5t-17 -41.5t-42 -16.5t-42 16.5t-17 41.5t17 41.5t42 16.5z" />
    <glyph glyph-name="alphatonos" unicode="&#x3ac;" horiz-adv-x="595" 
d="M272 -11q-93 0 -160 69t-67 194q0 126 68 194.5t162 68.5q59 0 101 -22.5t61 -55.5v67h83v-504h-83v72q-21 -36 -63 -59.5t-102 -23.5zM283 437q-67 0 -108.5 -51t-41.5 -134t41.5 -134t108.5 -51q70 0 112 49.5t42 133.5v4q0 84 -42 133.5t-112 49.5zM436 735l-101 -154
h-87l95 154h93z" />
    <glyph glyph-name="epsilontonos" unicode="&#x3ad;" horiz-adv-x="505" 
d="M460 365h-84q-15 74 -121 74q-52 0 -80.5 -20.5t-28.5 -54.5q0 -33 27.5 -50.5t76.5 -17.5h81v-74h-80q-56 0 -85.5 -21.5t-29.5 -58.5t31.5 -57t85.5 -20q121 0 132 81h85q-6 -79 -67 -118t-150 -39q-90 0 -146.5 40t-56.5 110q0 52 29 82t64 39q-32 10 -57 37t-25 70
q0 66 54.5 107t139.5 41q87 0 142.5 -39t62.5 -111zM405 735l-101 -154h-87l95 154h93z" />
    <glyph glyph-name="etatonos" unicode="&#x3ae;" horiz-adv-x="569" 
d="M75 504h83v-59q20 29 60 49.5t93 20.5q80 0 134 -50t54 -148v-508h-86v496q0 66 -32 99t-86 33q-55 0 -94.5 -35t-39.5 -105v-297h-86v504zM439 735l-101 -154h-87l95 154h93z" />
    <glyph glyph-name="iotatonos" unicode="&#x3af;" horiz-adv-x="292" 
d="M161 157q0 -46 20.5 -63t56.5 -17h24v-77h-38q-149 0 -149 153v351h86v-347zM265 735l-101 -154h-87l95 154h93z" />
    <glyph glyph-name="upsilondieresistonos" unicode="&#x3b0;" horiz-adv-x="564" 
d="M408 504h86v-307q0 -100 -59.5 -154t-152.5 -54t-152.5 54t-59.5 154v307h86v-303q0 -66 35 -100t91 -34t91 34t35 100v303zM150 708q23 0 39 -16t16 -38t-16 -38t-39 -16t-39 16t-16 38t16 38t39 16zM346 735l-50 -154h-73l44 154h79zM416 708q23 0 39 -16t16 -38
t-16 -38t-39 -16t-39 16t-16 38t16 38t39 16z" />
    <glyph glyph-name="alpha" unicode="&#x3b1;" horiz-adv-x="595" 
d="M272 -11q-93 0 -160 69t-67 194q0 126 68 194.5t162 68.5q59 0 101 -22.5t61 -55.5v67h83v-504h-83v72q-21 -36 -63 -59.5t-102 -23.5zM283 437q-67 0 -108.5 -51t-41.5 -134t41.5 -134t108.5 -51q70 0 112 49.5t42 133.5v4q0 84 -42 133.5t-112 49.5z" />
    <glyph glyph-name="beta" unicode="&#x3b2;" horiz-adv-x="600" 
d="M421 395q50 -15 90.5 -61.5t40.5 -124.5q0 -95 -62.5 -157.5t-160.5 -62.5q-111 0 -168 76v-256h-86v711q0 97 63.5 157.5t162.5 60.5q97 0 154.5 -55.5t57.5 -132.5q0 -60 -27.5 -99t-64.5 -56zM319 67q65 0 105 40.5t40 103.5q0 65 -42.5 101.5t-115.5 36.5h-32v77h28
q60 0 91.5 34t31.5 86q0 51 -34 82.5t-91 31.5q-61 0 -100 -38.5t-39 -103.5v-306q0 -61 46.5 -103t111.5 -42z" />
    <glyph glyph-name="gamma" unicode="&#x3b3;" horiz-adv-x="519" 
d="M504 504l-202 -506v-189h-86v191l-201 504h93l151 -394l152 394h93z" />
    <glyph glyph-name="delta" unicode="&#x3b4;" horiz-adv-x="580" 
d="M259 649q-33 0 -52 -15.5t-19 -40.5q0 -53 87 -74q87 -20 121 -36q139 -66 139 -235q0 -112 -67 -185.5t-178 -73.5t-178 72.5t-67 184.5q0 89 41 146t109 79q-95 38 -95 127q0 56 42 92.5t114 36.5h224v-78h-221zM290 67q71 0 114 50.5t43 130.5q0 84 -44.5 131.5
t-112.5 47.5t-112.5 -47.5t-44.5 -131.5q0 -80 43 -130.5t114 -50.5z" />
    <glyph glyph-name="epsilon" unicode="&#x3b5;" horiz-adv-x="505" 
d="M460 365h-84q-15 74 -121 74q-52 0 -80.5 -20.5t-28.5 -54.5q0 -33 27.5 -50.5t76.5 -17.5h81v-74h-80q-56 0 -85.5 -21.5t-29.5 -58.5t31.5 -57t85.5 -20q121 0 132 81h85q-6 -79 -67 -118t-150 -39q-90 0 -146.5 40t-56.5 110q0 52 29 82t64 39q-32 10 -57 37t-25 70
q0 66 54.5 107t139.5 41q87 0 142.5 -39t62.5 -111z" />
    <glyph glyph-name="zeta" unicode="&#x3b6;" horiz-adv-x="465" 
d="M306 509q-90 -90 -131.5 -157t-41.5 -128q0 -62 31.5 -96t96.5 -45l38 -6q83 -13 117 -44t34 -103v-55h-82v41q0 36 -14 54.5t-60 24.5l-37 5q-103 14 -157.5 71.5t-54.5 152.5q0 85 53.5 165.5t153.5 179.5l81 80h-261v78h378v-75z" />
    <glyph glyph-name="eta" unicode="&#x3b7;" horiz-adv-x="569" 
d="M75 504h83v-59q20 29 60 49.5t93 20.5q80 0 134 -50t54 -148v-508h-86v496q0 66 -32 99t-86 33q-55 0 -94.5 -35t-39.5 -105v-297h-86v504z" />
    <glyph glyph-name="theta" unicode="&#x3b8;" 
d="M307 738q125 0 186 -102.5t61 -271.5t-61 -272t-186 -103t-186 103t-61 272t61 271.5t186 102.5zM307 67q154 0 159 269h-318q7 -269 159 -269zM307 660q-145 0 -158 -247h316q-14 247 -158 247z" />
    <glyph glyph-name="iota" unicode="&#x3b9;" horiz-adv-x="292" 
d="M161 157q0 -46 20.5 -63t56.5 -17h24v-77h-38q-149 0 -149 153v351h86v-347z" />
    <glyph glyph-name="kappa" unicode="&#x3ba;" horiz-adv-x="506" 
d="M161 0h-86v504h86v-216l218 216h109l-237 -235l240 -269h-111l-219 243v-243z" />
    <glyph glyph-name="lambda" unicode="&#x3bb;" horiz-adv-x="519" 
d="M102 727q71 0 106 -33.5t67 -114.5l229 -579h-93l-151 392l-152 -392h-93l199 498l-21 54q-20 51 -42 74t-58 23h-20v78h29z" />
    <glyph glyph-name="uni03BC" unicode="&#x3bc;" horiz-adv-x="578" 
d="M417 504h86v-504h-83v59q-21 -29 -61.5 -49.5t-93.5 -20.5q-63 0 -104 30v-210h-86v695h86v-305q0 -66 33 -99t87 -33q55 0 95.5 35t40.5 105v297z" />
    <glyph glyph-name="nu" unicode="&#x3bd;" horiz-adv-x="513" 
d="M498 504l-197 -504h-89l-197 504h93l148 -396l149 396h93z" />
    <glyph glyph-name="xi" unicode="&#x3be;" horiz-adv-x="488" 
d="M65 727h393v-78h-144q-65 0 -102 -33t-37 -83q0 -49 34.5 -78t97.5 -29h115v-78h-134q-71 0 -113 -37.5t-42 -97.5q0 -54 37.5 -87.5t103.5 -42.5l43 -6q82 -12 116.5 -43.5t34.5 -103.5v-55h-82v41q0 36 -14 54.5t-60 24.5l-45 6q-103 14 -162.5 70t-59.5 142
q0 72 41.5 118t90.5 61q-90 44 -90 135q0 38 19.5 70.5t49.5 51.5h-91v78z" />
    <glyph glyph-name="omicron" unicode="&#x3bf;" horiz-adv-x="574" 
d="M287 515q109 0 175.5 -73.5t66.5 -189.5t-66.5 -189.5t-175.5 -73.5t-175.5 73.5t-66.5 189.5t66.5 189.5t175.5 73.5zM287 67q71 0 112.5 51t41.5 134t-41.5 134t-112.5 51t-112.5 -51t-41.5 -134t41.5 -134t112.5 -51z" />
    <glyph glyph-name="pi" unicode="&#x3c0;" horiz-adv-x="607" 
d="M194 0h-86v427h-80v77h551v-77h-80v-427h-86v427h-219v-427z" />
    <glyph glyph-name="rho" unicode="&#x3c1;" horiz-adv-x="584" 
d="M301 515q99 0 168.5 -68.5t69.5 -194.5q0 -124 -69 -193.5t-161 -69.5q-56 0 -97 21t-62 52v-253h-86v445q0 125 68.5 193t168.5 68zM301 67q67 0 108.5 51t41.5 134t-41.5 134t-108.5 51q-70 0 -112 -49.5t-42 -133.5v-4q0 -84 42 -133.5t112 -49.5z" />
    <glyph glyph-name="sigmafinal" unicode="&#x3c2;" horiz-adv-x="539" 
d="M322 77q83 -13 117.5 -44.5t34.5 -102.5v-55h-82v41q0 36 -14 54.5t-60 24.5l-35 5q-111 16 -174.5 79t-63.5 175q0 114 65.5 187.5t172.5 73.5q93 0 149 -52.5t67 -120.5h-86q-12 38 -44 66.5t-86 28.5q-68 0 -109 -50.5t-41 -132.5q0 -146 152 -171z" />
    <glyph glyph-name="sigma" unicode="&#x3c3;" horiz-adv-x="600" 
d="M564 504v-77h-117q81 -70 81 -181q0 -112 -66.5 -184.5t-175.5 -72.5t-175 73.5t-66 186.5q0 111 66 183t178 72h275zM441 249q0 80 -41 129t-111 49q-71 0 -113.5 -49.5t-42.5 -128.5q0 -80 41.5 -131t111.5 -51t112.5 51t42.5 131z" />
    <glyph glyph-name="tau" unicode="&#x3c4;" horiz-adv-x="489" 
d="M28 427v77h425v-77h-175v-270q0 -46 20.5 -63t56.5 -17h27v-77h-41q-149 0 -149 153v274h-164z" />
    <glyph glyph-name="upsilon" unicode="&#x3c5;" horiz-adv-x="564" 
d="M408 504h86v-307q0 -100 -59.5 -154t-152.5 -54t-152.5 54t-59.5 154v307h86v-303q0 -66 35 -100t91 -34t91 34t35 100v303z" />
    <glyph glyph-name="phi" unicode="&#x3c6;" horiz-adv-x="716" 
d="M400 514q121 -4 196 -75.5t75 -186.5t-75 -186.5t-196 -75.5v-181h-84v181q-121 4 -196 75.5t-75 186.5t75 186.5t196 75.5v190h84v-190zM316 68v368q-81 -2 -132.5 -50.5t-51.5 -133.5t51.5 -133.5t132.5 -50.5zM584 252q0 85 -51.5 133.5t-132.5 50.5v-368
q81 2 132.5 50.5t51.5 133.5z" />
    <glyph glyph-name="chi" unicode="&#x3c7;" horiz-adv-x="519" 
d="M408 -191l-150 278l-149 -278h-94l194 352l-192 343h96l148 -268l147 268h94l-192 -344l194 -351h-96z" />
    <glyph glyph-name="psi" unicode="&#x3c8;" horiz-adv-x="698" 
d="M545 504h86v-264q0 -112 -61.5 -176t-178.5 -73v-182h-84v182q-117 9 -178.5 73t-61.5 176v264h86v-260q0 -160 154 -174v594h84v-594q154 14 154 174v260z" />
    <glyph glyph-name="omega" unicode="&#x3c9;" horiz-adv-x="759" 
d="M482 515q101 0 164.5 -74.5t63.5 -188.5q0 -118 -51.5 -190.5t-142.5 -72.5q-96 0 -137 91q-39 -91 -136 -91q-91 0 -142.5 72.5t-51.5 190.5q0 114 63.5 188.5t164.5 74.5v-78q-62 0 -101 -51.5t-39 -133.5q0 -84 28.5 -134.5t80.5 -50.5q50 0 70.5 39.5t20.5 96.5v143
h85v-143q0 -57 20.5 -96.5t70.5 -39.5q52 0 80.5 50.5t28.5 134.5q0 82 -39 133.5t-101 51.5v78z" />
    <glyph glyph-name="iotadieresis" unicode="&#x3ca;" horiz-adv-x="292" 
d="M161 157q0 -46 20.5 -63t56.5 -17h24v-77h-38q-149 0 -149 153v351h86v-347zM22 715q25 0 42 -16.5t17 -41.5t-17 -41.5t-42 -16.5t-42 16.5t-17 41.5t17 41.5t42 16.5zM216 715q25 0 42 -16.5t17 -41.5t-17 -41.5t-42 -16.5t-42 16.5t-17 41.5t17 41.5t42 16.5z" />
    <glyph glyph-name="upsilondieresis" unicode="&#x3cb;" horiz-adv-x="564" 
d="M408 504h86v-307q0 -100 -59.5 -154t-152.5 -54t-152.5 54t-59.5 154v307h86v-303q0 -66 35 -100t91 -34t91 34t35 100v303zM179 715q25 0 42 -16.5t17 -41.5t-17 -41.5t-42 -16.5t-42 16.5t-17 41.5t17 41.5t42 16.5zM385 715q25 0 42 -16.5t17 -41.5t-17 -41.5
t-42 -16.5t-42 16.5t-17 41.5t17 41.5t42 16.5z" />
    <glyph glyph-name="omicrontonos" unicode="&#x3cc;" horiz-adv-x="574" 
d="M287 515q109 0 175.5 -73.5t66.5 -189.5t-66.5 -189.5t-175.5 -73.5t-175.5 73.5t-66.5 189.5t66.5 189.5t175.5 73.5zM287 67q71 0 112.5 51t41.5 134t-41.5 134t-112.5 51t-112.5 -51t-41.5 -134t41.5 -134t112.5 -51zM434 735l-101 -154h-87l95 154h93z" />
    <glyph glyph-name="upsilontonos" unicode="&#x3cd;" horiz-adv-x="564" 
d="M408 504h86v-307q0 -100 -59.5 -154t-152.5 -54t-152.5 54t-59.5 154v307h86v-303q0 -66 35 -100t91 -34t91 34t35 100v303zM429 735l-101 -154h-87l95 154h93z" />
    <glyph glyph-name="omegatonos" unicode="&#x3ce;" horiz-adv-x="759" 
d="M482 515q101 0 164.5 -74.5t63.5 -188.5q0 -118 -51.5 -190.5t-142.5 -72.5q-96 0 -137 91q-39 -91 -136 -91q-91 0 -142.5 72.5t-51.5 190.5q0 114 63.5 188.5t164.5 74.5v-78q-62 0 -101 -51.5t-39 -133.5q0 -84 28.5 -134.5t80.5 -50.5q50 0 70.5 39.5t20.5 96.5v143
h85v-143q0 -57 20.5 -96.5t70.5 -39.5q52 0 80.5 50.5t28.5 134.5q0 82 -39 133.5t-101 51.5v78zM526 735l-101 -154h-87l95 154h93z" />
    <glyph glyph-name="uni0400" unicode="&#x400;" horiz-adv-x="594" 
d="M534 622h-357v-220h338v-81h-338v-239h357v-82h-446v704h446v-82zM167 927h93l95 -154h-87z" />
    <glyph glyph-name="uni0401" unicode="&#x401;" horiz-adv-x="594" 
d="M534 622h-357v-220h338v-81h-338v-239h357v-82h-446v704h446v-82zM207 907q25 0 42 -16.5t17 -41.5t-17 -41.5t-42 -16.5t-42 16.5t-17 41.5t17 41.5t42 16.5zM421 907q25 0 42 -16.5t17 -41.5t-17 -41.5t-42 -16.5t-42 16.5t-17 41.5t17 41.5t42 16.5z" />
    <glyph glyph-name="uni0402" unicode="&#x402;" horiz-adv-x="814" 
d="M531 436q105 0 170.5 -60.5t65.5 -162.5q0 -96 -59.5 -155t-159.5 -59h-28v82h21q59 0 97 34t38 98q0 66 -43 103t-115 37q-96 0 -164 -57v-296h-89v622h-227v82h543v-82h-227v-238q70 52 177 52z" />
    <glyph glyph-name="uni0403" unicode="&#x403;" horiz-adv-x="562" 
d="M524 622h-347v-622h-89v704h436v-82zM466 927l-101 -154h-87l95 154h93z" />
    <glyph glyph-name="uni0404" unicode="&#x404;" horiz-adv-x="706" 
d="M569 210h90q-8 -38 -28 -74.5t-53.5 -70.5t-87.5 -55t-121 -21q-140 0 -228.5 99t-88.5 264q0 164 88 263.5t229 99.5q118 0 194 -63.5t94 -156.5h-89q-20 59 -70 98t-129 39q-92 0 -153 -62.5t-71 -169.5h306v-80h-307q7 -113 67.5 -180.5t156.5 -67.5q84 0 134 42.5
t67 95.5z" />
    <glyph glyph-name="uni0405" unicode="&#x405;" horiz-adv-x="616" 
d="M49 183h91q38 -112 180 -112q70 0 113 33.5t43 91.5q0 90 -112 108l-130 21q-84 13 -129.5 60.5t-45.5 119.5q0 95 70 152.5t172 57.5q99 0 168.5 -48.5t86.5 -139.5h-91q-33 106 -164 106q-63 0 -107 -32.5t-44 -88.5q0 -39 26.5 -65t76.5 -34l131 -22q183 -31 183 -189
q0 -99 -69.5 -156t-179.5 -57q-107 0 -180.5 50t-88.5 144z" />
    <glyph glyph-name="uni0406" unicode="&#x406;" horiz-adv-x="265" 
d="M177 704v-704h-89v704h89z" />
    <glyph glyph-name="uni0407" unicode="&#x407;" horiz-adv-x="265" 
d="M177 704v-704h-89v704h89zM30 907q25 0 42 -16.5t17 -41.5t-17 -41.5t-42 -16.5t-42 16.5t-17 41.5t17 41.5t42 16.5zM236 907q25 0 42 -16.5t17 -41.5t-17 -41.5t-42 -16.5t-42 16.5t-17 41.5t17 41.5t42 16.5z" />
    <glyph glyph-name="uni0408" unicode="&#x408;" horiz-adv-x="540" 
d="M32 181h88q4 -40 33.5 -74.5t86.5 -34.5q63 0 94.5 42.5t31.5 112.5v477h89v-477q0 -113 -56.5 -175.5t-159.5 -62.5q-96 0 -151 58.5t-56 133.5z" />
    <glyph glyph-name="uni0409" unicode="&#x409;" horiz-adv-x="1043" 
d="M763 445q108 0 171 -63.5t63 -158.5q0 -93 -63.5 -158t-168.5 -65h-247v622h-263l-26 -389q-7 -114 -49.5 -174.5t-143.5 -60.5h-26v83h15q61 0 86.5 36t31.5 122l32 465h432v-259h156zM753 364h-146v-283h146q71 0 112 39t41 103t-40.5 102.5t-112.5 38.5z" />
    <glyph glyph-name="uni040A" unicode="&#x40a;" horiz-adv-x="1072" 
d="M177 0h-89v704h89v-282h373v282h89v-279h155q106 0 169 -59.5t63 -152.5q0 -92 -63.5 -152.5t-166.5 -60.5h-246v341h-373v-341zM784 344h-145v-263h145q70 0 110.5 35t40.5 97t-40.5 96.5t-110.5 34.5z" />
    <glyph glyph-name="uni040B" unicode="&#x40b;" horiz-adv-x="827" 
d="M38 622v82h543v-82h-227v-238q70 52 174 52q107 0 169 -61.5t62 -189.5v-185h-89v185q0 168 -155 168q-93 0 -161 -57v-296h-89v622h-227z" />
    <glyph glyph-name="uni040C" unicode="&#x40c;" horiz-adv-x="626" 
d="M177 0h-89v704h89v-314l313 314h115l-334 -337l340 -367h-118l-316 336v-336zM469 927l-101 -154h-87l95 154h93z" />
    <glyph glyph-name="uni040D" unicode="&#x40d;" horiz-adv-x="733" 
d="M645 704v-704h-88v562l-381 -562h-88v704h88v-562l381 562h88zM220 927h93l95 -154h-87z" />
    <glyph glyph-name="uni040E" unicode="&#x40e;" horiz-adv-x="647" 
d="M20 704h100l211 -413l199 413h97l-343 -704h-98l97 198zM241 927q0 -37 23.5 -62.5t62.5 -25.5t62.5 25.5t23.5 62.5h77q-1 -70 -46.5 -113t-116.5 -43t-116.5 43t-46.5 113h77z" />
    <glyph glyph-name="uni040F" unicode="&#x40f;" horiz-adv-x="727" 
d="M88 0v704h89v-621h373v621h89v-704h-232v-153h-87v153h-232z" />
    <glyph glyph-name="uni0410" unicode="&#x410;" horiz-adv-x="664" 
d="M286 704h92l266 -704h-96l-69 186h-296l-67 -186h-96zM331 591l-118 -323h236z" />
    <glyph glyph-name="uni0411" unicode="&#x411;" 
d="M518 622h-341v-196h164q104 0 165 -58.5t61 -153.5q0 -94 -61.5 -154t-162.5 -60h-255v704h430v-82zM330 345h-153v-264h153q68 0 107 36t39 97t-39 96t-107 35z" />
    <glyph glyph-name="uni0412" unicode="&#x412;" horiz-adv-x="635" 
d="M88 0v704h261q99 0 155 -51.5t56 -130.5q0 -60 -27 -99.5t-65 -54.5q46 -13 82.5 -56t36.5 -113q0 -89 -63 -144t-169 -55h-267zM354 323h-178v-243h173q67 0 107 32t40 89q0 56 -38.5 89t-103.5 33zM338 624h-162v-222h168q61 0 93.5 31t32.5 80q0 52 -35 81.5t-97 29.5
z" />
    <glyph glyph-name="uni0413" unicode="&#x413;" horiz-adv-x="562" 
d="M524 622h-347v-622h-89v704h436v-82z" />
    <glyph glyph-name="uni0414" unicode="&#x414;" horiz-adv-x="733" 
d="M703 83v-217h-86v134h-521v-134h-86v217h54q39 27 57.5 87t26.5 173l24 361h445v-621h86zM234 343q-8 -115 -21.5 -172t-43.5 -88h359v539h-276z" />
    <glyph glyph-name="uni0415" unicode="&#x415;" horiz-adv-x="594" 
d="M534 622h-357v-220h338v-81h-338v-239h357v-82h-446v704h446v-82z" />
    <glyph glyph-name="uni0416" unicode="&#x416;" horiz-adv-x="933" 
d="M422 0v344l-294 -344h-111l311 366l-304 338h111l287 -317v317h89v-317l287 317h111l-304 -336l311 -368h-111l-294 344v-344h-89z" />
    <glyph glyph-name="uni0417" unicode="&#x417;" horiz-adv-x="600" 
d="M50 524q11 92 80.5 141.5t164.5 49.5q104 0 167.5 -54.5t63.5 -140.5q0 -56 -29.5 -96.5t-70.5 -55.5q45 -11 85.5 -53.5t40.5 -114.5q0 -91 -68.5 -151t-178.5 -60t-180.5 52.5t-81.5 144.5h89q11 -51 55.5 -82.5t117.5 -31.5q72 0 114 35t42 94q0 60 -42.5 90
t-113.5 30h-107v81h101q67 0 101.5 32t34.5 83q0 53 -38.5 84t-101.5 31t-105 -28.5t-52 -79.5h-88z" />
    <glyph glyph-name="uni0418" unicode="&#x418;" horiz-adv-x="733" 
d="M645 704v-704h-88v562l-381 -562h-88v704h88v-562l381 562h88z" />
    <glyph glyph-name="uni0419" unicode="&#x419;" horiz-adv-x="733" 
d="M645 704v-704h-88v562l-381 -562h-88v704h88v-562l381 562h88zM281 927q0 -37 23.5 -62.5t62.5 -25.5t62.5 25.5t23.5 62.5h77q-1 -70 -46.5 -113t-116.5 -43t-116.5 43t-46.5 113h77z" />
    <glyph glyph-name="uni041A" unicode="&#x41a;" horiz-adv-x="626" 
d="M177 0h-89v704h89v-314l313 314h115l-334 -337l340 -367h-118l-316 336v-336z" />
    <glyph glyph-name="uni041B" unicode="&#x41b;" horiz-adv-x="695" 
d="M10 -2v83h15q61 0 86.5 36t31.5 122l32 465h432v-704h-89v622h-263l-26 -389q-7 -114 -49.5 -174.5t-143.5 -60.5h-26z" />
    <glyph glyph-name="uni041C" unicode="&#x41c;" horiz-adv-x="893" 
d="M88 704h108l251 -589l251 589h107v-704h-87v541l-230 -541h-82l-231 541v-541h-87v704z" />
    <glyph glyph-name="uni041D" unicode="&#x41d;" horiz-adv-x="730" 
d="M177 0h-89v704h89v-301h376v301h89v-704h-89v320h-376v-320z" />
    <glyph glyph-name="uni041E" unicode="&#x41e;" horiz-adv-x="752" 
d="M376 715q146 0 235 -102t89 -261t-89 -261t-235 -102t-235 102t-89 261t89 261t235 102zM376 72q107 0 170 77.5t63 202.5t-63 202.5t-170 77.5t-170 -77.5t-63 -202.5t63 -202.5t170 -77.5z" />
    <glyph glyph-name="uni041F" unicode="&#x41f;" horiz-adv-x="727" 
d="M88 704h551v-704h-89v622h-373v-622h-89v704z" />
    <glyph glyph-name="uni0420" unicode="&#x420;" horiz-adv-x="613" 
d="M333 704q109 0 171.5 -64t62.5 -160q0 -94 -63.5 -159.5t-168.5 -65.5h-158v-255h-89v704h245zM323 623h-146v-287h146q72 0 112.5 39.5t40.5 104.5t-40 104t-113 39z" />
    <glyph glyph-name="uni0421" unicode="&#x421;" horiz-adv-x="706" 
d="M569 220h90q-6 -40 -26 -79t-54 -74t-89 -56.5t-121 -21.5q-140 0 -228.5 101.5t-88.5 261.5q0 159 88 261t229 102q120 0 195.5 -65t92.5 -165h-90q-19 66 -67.5 106.5t-130.5 40.5q-103 0 -164.5 -78t-61.5 -202q0 -123 61 -201.5t164 -78.5q85 0 137 45.5t64 102.5z
" />
    <glyph glyph-name="uni0422" unicode="&#x422;" horiz-adv-x="623" 
d="M35 622v82h553v-82h-232v-622h-89v622h-232z" />
    <glyph glyph-name="uni0423" unicode="&#x423;" horiz-adv-x="647" 
d="M20 704h100l211 -413l199 413h97l-343 -704h-98l97 198z" />
    <glyph glyph-name="uni0424" unicode="&#x424;" horiz-adv-x="825" 
d="M456 652q138 -2 230 -81t92 -215t-92 -214.5t-230 -80.5v-72h-87v72q-138 2 -230 80.5t-92 214.5t92 215t230 81v72h87v-72zM369 142v429q-105 -2 -168.5 -59.5t-63.5 -155.5q0 -97 63.5 -154.5t168.5 -59.5zM456 142q105 2 168.5 59.5t63.5 154.5q0 98 -63.5 155.5
t-168.5 59.5v-429z" />
    <glyph glyph-name="uni0425" unicode="&#x425;" horiz-adv-x="658" 
d="M524 0l-197 287l-194 -287h-105l244 355l-242 349h105l195 -284l194 284h104l-242 -351l244 -353h-106z" />
    <glyph glyph-name="uni0426" unicode="&#x426;" horiz-adv-x="752" 
d="M722 83v-217h-86v134h-548v704h89v-621h370v621h89v-621h86z" />
    <glyph glyph-name="uni0427" unicode="&#x427;" horiz-adv-x="666" 
d="M489 704h89v-704h-89v301q-63 -39 -164 -39q-115 0 -190 67.5t-75 196.5v178h89v-177q0 -90 51 -136t134 -46q91 0 155 43v316z" />
    <glyph glyph-name="uni0428" unicode="&#x428;" horiz-adv-x="979" 
d="M534 704v-621h268v621h89v-704h-803v704h89v-621h268v621h89z" />
    <glyph glyph-name="uni0429" unicode="&#x429;" horiz-adv-x="1007" 
d="M977 83v-217h-86v134h-803v704h89v-621h268v621h89v-621h268v621h89v-621h86z" />
    <glyph glyph-name="uni042A" unicode="&#x42a;" horiz-adv-x="715" 
d="M435 445q108 0 171 -63.5t63 -158.5q0 -93 -63.5 -158t-168.5 -65h-247v622h-155v82h244v-259h156zM425 364h-146v-283h146q71 0 112 39t41 103t-40.5 102.5t-112.5 38.5z" />
    <glyph glyph-name="uni042B" unicode="&#x42b;" horiz-adv-x="826" 
d="M333 445q108 0 171 -63.5t63 -158.5q0 -93 -63.5 -158t-168.5 -65h-247v704h89v-259h156zM323 364h-146v-283h146q71 0 112 39t41 103t-40.5 102.5t-112.5 38.5zM738 704v-704h-89v704h89z" />
    <glyph glyph-name="uni042C" unicode="&#x42c;" horiz-adv-x="613" 
d="M333 445q108 0 171 -63.5t63 -158.5q0 -93 -63.5 -158t-168.5 -65h-247v704h89v-259h156zM323 364h-146v-283h146q71 0 112 39t41 103t-40.5 102.5t-112.5 38.5z" />
    <glyph glyph-name="uni042D" unicode="&#x42d;" horiz-adv-x="706" 
d="M255 320v80h306q-11 108 -71 170t-152 62q-79 0 -129 -39t-70 -98h-89q19 93 95 156.5t193 63.5q141 0 228.5 -99.5t87.5 -263.5q0 -165 -88.5 -264t-228.5 -99q-67 0 -121 21t-87.5 55t-53.5 70.5t-28 74.5h90q17 -53 67 -95.5t134 -42.5q95 0 155.5 67.5t68.5 180.5
h-307z" />
    <glyph glyph-name="uni042E" unicode="&#x42e;" horiz-adv-x="978" 
d="M177 0h-89v704h89v-301h113q15 139 99.5 225.5t217.5 86.5q145 0 232 -102t87 -261t-87 -261t-232 -102q-137 0 -223 92t-95 239h-112v-320zM607 72q106 0 167 77.5t61 202.5t-61 202.5t-167 77.5t-167 -77.5t-61 -202.5t61 -202.5t167 -77.5z" />
    <glyph glyph-name="uni042F" unicode="&#x42f;" horiz-adv-x="636" 
d="M131 0h-105l185 274q-66 23 -105 79t-39 129q0 97 63.5 159.5t170.5 62.5h247v-704h-89v260h-154zM158 482q0 -63 40.5 -102.5t114.5 -39.5h146v283h-147q-73 0 -113.5 -39.5t-40.5 -101.5z" />
    <glyph glyph-name="uni0430" unicode="&#x430;" horiz-adv-x="531" 
d="M376 334q0 51 -31.5 78t-82.5 27q-91 0 -116 -67h-83q13 62 65.5 102.5t135.5 40.5q89 0 143 -48.5t54 -132.5v-334h-81v60q-57 -71 -162 -71q-75 0 -124.5 42.5t-49.5 112.5q0 73 53 114.5t145 41.5h134v34zM229 64q62 0 104.5 35t42.5 91v37h-129q-53 0 -84.5 -21
t-31.5 -61q0 -39 27 -60t71 -21z" />
    <glyph glyph-name="uni0431" unicode="&#x431;" horiz-adv-x="590" 
d="M314 504q101 0 166 -68t65 -188q0 -111 -65.5 -185t-173.5 -74q-117 0 -185.5 80.5t-68.5 225.5q0 188 56.5 280t184.5 118l202 41v-83l-184 -34q-84 -15 -124 -63t-48 -135q58 85 175 85zM302 67q70 0 112.5 50.5t42.5 130.5q0 79 -42.5 129t-111.5 50t-114.5 -46.5
t-45.5 -128.5q0 -85 43.5 -135t115.5 -50z" />
    <glyph glyph-name="uni0432" unicode="&#x432;" horiz-adv-x="514" 
d="M75 0v504h214q77 0 117.5 -36.5t40.5 -93.5q0 -41 -19 -69t-47 -39q37 -10 62.5 -42t25.5 -81q0 -63 -44.5 -103t-123.5 -40h-226zM291 222h-131v-148h131q92 0 92 76q0 72 -92 72zM281 430h-121v-135h121q39 0 60 18.5t21 50.5q0 66 -81 66z" />
    <glyph glyph-name="uni0433" unicode="&#x433;" horiz-adv-x="444" 
d="M409 427h-248v-427h-86v504h334v-77z" />
    <glyph glyph-name="uni0434" unicode="&#x434;" horiz-adv-x="604" 
d="M574 78v-206h-83v128h-393v-128h-83v206h42q49 28 61 173l20 253h362v-426h74zM201 249q-4 -45 -7 -69t-13 -54.5t-25 -47.5h258v349h-199z" />
    <glyph glyph-name="uni0435" unicode="&#x435;" horiz-adv-x="547" 
d="M502 226h-367v-2q0 -68 43 -113t112 -45q48 0 79.5 20.5t39.5 43.5h87q-12 -53 -65 -97t-142 -44q-110 0 -177 71t-67 192t66 192t171 71q101 0 160.5 -66.5t59.5 -178.5v-44zM280 438q-62 0 -100.5 -38t-43.5 -101h279q-3 65 -38.5 102t-96.5 37z" />
    <glyph glyph-name="uni0436" unicode="&#x436;" horiz-adv-x="727" 
d="M405 504v-219l199 219h104l-215 -236l218 -268h-106l-200 246v-246h-84v246l-200 -246h-105l217 266l-215 238h104l199 -219v219h84z" />
    <glyph glyph-name="uni0437" unicode="&#x437;" horiz-adv-x="491" 
d="M50 369q8 69 64.5 107.5t133.5 38.5t127 -39.5t50 -104.5q0 -79 -72 -108q36 -9 64.5 -37.5t28.5 -80.5q0 -71 -56.5 -113.5t-142.5 -42.5q-83 0 -140.5 40t-66.5 115h85q9 -38 42 -58.5t82 -20.5q51 0 81 21.5t30 59.5q0 74 -110 74h-79v74h74q46 0 70.5 19.5t24.5 54.5
q0 33 -25.5 52t-69.5 19q-46 0 -74.5 -19.5t-36.5 -50.5h-84z" />
    <glyph glyph-name="uni0438" unicode="&#x438;" horiz-adv-x="577" 
d="M502 504v-504h-85v371l-257 -371h-85v504h85v-372l257 372h85z" />
    <glyph glyph-name="uni0439" unicode="&#x439;" horiz-adv-x="577" 
d="M502 504v-504h-85v371l-257 -371h-85v504h85v-372l257 372h85zM207 735q0 -38 21.5 -63t60.5 -25t60.5 25t21.5 63h77q-2 -70 -45.5 -113t-113.5 -43t-113.5 43t-45.5 113h77z" />
    <glyph glyph-name="uni043A" unicode="&#x43a;" horiz-adv-x="506" 
d="M161 0h-86v504h86v-216l218 216h109l-237 -235l240 -269h-111l-219 243v-243z" />
    <glyph glyph-name="uni043B" unicode="&#x43b;" horiz-adv-x="566" 
d="M15 -2v78h14q46 0 64.5 26t23.5 93l26 309h348v-504h-86v427h-185l-20 -238q-8 -102 -45.5 -146.5t-115.5 -44.5h-24z" />
    <glyph glyph-name="uni043C" unicode="&#x43c;" horiz-adv-x="725" 
d="M75 504h105l183 -402l183 402h104v-504h-84v366l-167 -366h-72l-168 366v-366h-84v504z" />
    <glyph glyph-name="uni043D" unicode="&#x43d;" horiz-adv-x="571" 
d="M161 0h-86v504h86v-203h249v203h86v-504h-86v223h-249v-223z" />
    <glyph glyph-name="uni043E" unicode="&#x43e;" horiz-adv-x="574" 
d="M287 515q109 0 175.5 -73.5t66.5 -189.5t-66.5 -189.5t-175.5 -73.5t-175.5 73.5t-66.5 189.5t66.5 189.5t175.5 73.5zM287 67q71 0 112.5 51t41.5 134t-41.5 134t-112.5 51t-112.5 -51t-41.5 -134t41.5 -134t112.5 -51z" />
    <glyph glyph-name="uni043F" unicode="&#x43f;" horiz-adv-x="568" 
d="M75 504h418v-504h-86v427h-246v-427h-86v504z" />
    <glyph glyph-name="uni0440" unicode="&#x440;" horiz-adv-x="595" 
d="M323 515q93 0 160 -69t67 -194q0 -126 -68 -194.5t-162 -68.5q-57 0 -98 21t-61 52v-253h-86v695h83v-72q20 35 62 59t103 24zM312 67q67 0 108.5 51t41.5 134t-41.5 134t-108.5 51q-70 0 -112 -49.5t-42 -133.5v-4q0 -84 42 -133.5t112 -49.5z" />
    <glyph glyph-name="uni0441" unicode="&#x441;" horiz-adv-x="539" 
d="M284 67q57 0 88 28.5t41 67.5h86q-9 -71 -67.5 -122.5t-148.5 -51.5q-107 0 -172.5 73.5t-65.5 189.5q0 115 65.5 189t172.5 74q93 0 149 -52t67 -120h-86q-12 38 -44 66t-86 28q-68 0 -109 -51t-41 -134t41.5 -134t109.5 -51z" />
    <glyph glyph-name="uni0442" unicode="&#x442;" horiz-adv-x="489" 
d="M32 427v77h425v-77h-170v-427h-86v427h-169z" />
    <glyph glyph-name="uni0443" unicode="&#x443;" horiz-adv-x="519" 
d="M411 504h93l-276 -695h-93l78 197l-198 498h93l152 -393z" />
    <glyph glyph-name="uni0444" unicode="&#x444;" horiz-adv-x="696" 
d="M390 514q114 -4 187.5 -75.5t73.5 -186.5t-73.5 -186.5t-187.5 -75.5v-181h-84v181q-114 4 -187.5 75.5t-73.5 186.5t73.5 186.5t187.5 75.5v190h84v-190zM306 68v368q-74 -2 -124 -51t-50 -133t50 -133t124 -51zM564 252q0 84 -50 133t-124 51v-368q74 2 124 51t50 133z
" />
    <glyph glyph-name="uni0445" unicode="&#x445;" horiz-adv-x="517" 
d="M391 0l-135 191l-132 -191h-99l179 252l-177 252h101l133 -193l130 193h99l-177 -255l179 -249h-101z" />
    <glyph glyph-name="uni0446" unicode="&#x446;" horiz-adv-x="594" 
d="M564 78v-206h-83v128h-406v504h86v-426h243v426h86v-426h74z" />
    <glyph glyph-name="uni0447" unicode="&#x447;" horiz-adv-x="528" 
d="M367 504h86v-504h-86v204q-45 -25 -111 -25q-92 0 -146.5 51.5t-54.5 151.5v122h86v-120q0 -63 32.5 -95t92.5 -32t101 26v221z" />
    <glyph glyph-name="uni0448" unicode="&#x448;" horiz-adv-x="796" 
d="M441 504v-426h194v426h86v-504h-646v504h86v-426h194v426h86z" />
    <glyph glyph-name="uni0449" unicode="&#x449;" horiz-adv-x="825" 
d="M795 78v-206h-83v128h-637v504h86v-426h194v426h86v-426h194v426h86v-426h74z" />
    <glyph glyph-name="uni044A" unicode="&#x44a;" horiz-adv-x="586" 
d="M256 504v-163h113q79 0 128 -47.5t49 -121.5q0 -75 -49 -123.5t-129 -48.5h-198v427h-138v77h224zM358 265h-102v-189h102q48 0 75 27t27 69t-27 67.5t-75 25.5z" />
    <glyph glyph-name="uni044B" unicode="&#x44b;" horiz-adv-x="685" 
d="M161 504v-163h113q79 0 128 -47.5t49 -121.5q0 -75 -49 -123.5t-129 -48.5h-198v504h86zM610 504v-504h-86v504h86zM263 265h-102v-189h102q48 0 75 27t27 69t-27 67.5t-75 25.5z" />
    <glyph glyph-name="uni044C" unicode="&#x44c;" horiz-adv-x="491" 
d="M161 504v-163h113q79 0 128 -47.5t49 -121.5q0 -75 -49 -123.5t-129 -48.5h-198v504h86zM263 265h-102v-189h102q48 0 75 27t27 69t-27 67.5t-75 25.5z" />
    <glyph glyph-name="uni044D" unicode="&#x44d;" horiz-adv-x="538" 
d="M182 297h221q-9 67 -47.5 104t-98.5 37q-56 0 -87.5 -25.5t-41.5 -59.5h-85q10 66 65 114t149 48q107 0 171.5 -72t64.5 -191q0 -118 -65.5 -190.5t-171.5 -72.5q-92 0 -150 48.5t-66 119.5h83q9 -37 40.5 -64t91.5 -27q63 0 103.5 42t46.5 115h-223v74z" />
    <glyph glyph-name="uni044E" unicode="&#x44e;" horiz-adv-x="775" 
d="M161 0h-86v504h86v-203h96q14 96 77.5 155t157.5 59q108 0 173 -73.5t65 -189.5t-65 -189.5t-173 -73.5q-98 0 -163.5 65t-73.5 169h-94v-223zM492 67q69 0 109.5 51t40.5 134t-40.5 134t-109.5 51t-109.5 -51t-40.5 -134t40.5 -134t109.5 -51z" />
    <glyph glyph-name="uni044F" unicode="&#x44f;" horiz-adv-x="506" 
d="M431 0h-86v171h-90l-130 -171h-100l138 181q-51 18 -80.5 60.5t-29.5 96.5q0 72 47.5 119t130.5 47h200v-504zM139 338q0 -41 27.5 -66.5t74.5 -25.5h104v183h-104q-47 0 -74.5 -25.5t-27.5 -65.5z" />
    <glyph glyph-name="uni0450" unicode="&#x450;" horiz-adv-x="547" 
d="M502 226h-367v-2q0 -68 43 -113t112 -45q48 0 79.5 20.5t39.5 43.5h87q-12 -53 -65 -97t-142 -44q-110 0 -177 71t-67 192t66 192t171 71q101 0 160.5 -66.5t59.5 -178.5v-44zM280 438q-62 0 -100.5 -38t-43.5 -101h279q-3 65 -38.5 102t-96.5 37zM135 735h93l95 -154
h-87z" />
    <glyph glyph-name="uni0451" unicode="&#x451;" horiz-adv-x="547" 
d="M502 226h-367v-2q0 -68 43 -113t112 -45q48 0 79.5 20.5t39.5 43.5h87q-12 -53 -65 -97t-142 -44q-110 0 -177 71t-67 192t66 192t171 71q101 0 160.5 -66.5t59.5 -178.5v-44zM280 438q-62 0 -100.5 -38t-43.5 -101h279q-3 65 -38.5 102t-96.5 37zM179 715q25 0 42 -16.5
t17 -41.5t-17 -41.5t-42 -16.5t-42 16.5t-17 41.5t17 41.5t42 16.5zM385 715q25 0 42 -16.5t17 -41.5t-17 -41.5t-42 -16.5t-42 16.5t-17 41.5t17 41.5t42 16.5z" />
    <glyph glyph-name="uni0452" unicode="&#x452;" horiz-adv-x="572" 
d="M314 515q80 0 134 -50t54 -148v-347q0 -161 -140 -161h-36v77h22q68 0 68 88v331q0 66 -32 99t-86 33q-55 0 -94.5 -35t-39.5 -105v-297h-86v593h-73v69h73v65h86v-65h137v-69h-137v-144q52 66 150 66z" />
    <glyph glyph-name="uni0453" unicode="&#x453;" horiz-adv-x="444" 
d="M409 427h-248v-427h-86v504h334v-77zM398 735l-101 -154h-87l95 154h93z" />
    <glyph glyph-name="uni0454" unicode="&#x454;" horiz-adv-x="538" 
d="M356 297v-74h-223q6 -73 46 -115t104 -42q106 0 132 91h83q-8 -71 -66 -119.5t-150 -48.5q-106 0 -171.5 72.5t-65.5 190.5q0 119 65 191t172 72q95 0 151 -48.5t65 -113.5h-86q-11 34 -42.5 59.5t-87.5 25.5q-60 0 -99 -37t-49 -104h222z" />
    <glyph glyph-name="uni0455" unicode="&#x455;" horiz-adv-x="496" 
d="M130 141q8 -36 41.5 -56t84.5 -20t80.5 19.5t29.5 56.5q0 58 -77 68l-90 12q-143 19 -143 137q0 67 54 112t135 45q80 0 132.5 -38t64.5 -106h-84q-24 68 -113 68q-47 0 -75 -21.5t-28 -53.5q0 -54 72 -63l91 -12q147 -20 147 -143q0 -74 -55 -115.5t-139 -41.5
q-82 0 -143 37t-70 115h85z" />
    <glyph glyph-name="uni0456" unicode="&#x456;" horiz-adv-x="236" 
d="M161 504v-504h-86v504h86zM118 715q25 0 42 -16.5t17 -41.5t-17 -41.5t-42 -16.5t-42 16.5t-17 41.5t17 41.5t42 16.5z" />
    <glyph glyph-name="uni0457" unicode="&#x457;" horiz-adv-x="236" 
d="M161 504v-504h-86v504h86zM44 711q22 0 38 -16t16 -38t-16 -38t-38 -16q-24 0 -39.5 16t-15.5 38t15.5 38t39.5 16zM192 711q24 0 39.5 -16t15.5 -38t-15.5 -38t-39.5 -16q-22 0 -38 16t-16 38t16 38t38 16z" />
    <glyph glyph-name="uni0458" unicode="&#x458;" horiz-adv-x="236" 
d="M-15 -191v77h22q68 0 68 88v530h86v-534q0 -161 -140 -161h-36zM118 715q25 0 42 -16.5t17 -41.5t-17 -41.5t-42 -16.5t-42 16.5t-17 41.5t17 41.5t42 16.5z" />
    <glyph glyph-name="uni0459" unicode="&#x459;" horiz-adv-x="821" 
d="M604 341q79 0 128 -47.5t49 -121.5q0 -75 -49 -123.5t-129 -48.5h-198v427h-185l-20 -238q-8 -102 -45.5 -146.5t-115.5 -44.5h-24v78h14q46 0 64.5 26t23.5 93l26 309h348v-163h113zM593 265h-102v-189h102q48 0 75 27t27 69t-27 67.5t-75 25.5z" />
    <glyph glyph-name="uni045A" unicode="&#x45a;" horiz-adv-x="820" 
d="M161 0h-86v504h86v-188h246v188h86v-185h118q78 0 123.5 -45t45.5 -115q0 -69 -46 -114t-124 -45h-203v240h-246v-240zM600 244h-107v-169h107q46 0 70 24t24 61t-24 60.5t-70 23.5z" />
    <glyph glyph-name="uni045B" unicode="&#x45b;" horiz-adv-x="572" 
d="M5 662h73v65h86v-65h137v-68h-137v-145q52 66 150 66q80 0 134 -50t54 -148v-317h-86v305q0 66 -32 99t-86 33q-55 0 -94.5 -35t-39.5 -105v-297h-86v594h-73v68z" />
    <glyph glyph-name="uni045C" unicode="&#x45c;" horiz-adv-x="506" 
d="M161 0h-86v504h86v-216l218 216h109l-237 -235l240 -269h-111l-219 243v-243zM412 735l-101 -154h-87l95 154h93z" />
    <glyph glyph-name="uni045D" unicode="&#x45d;" horiz-adv-x="577" 
d="M502 504v-504h-85v371l-257 -371h-85v504h85v-372l257 372h85zM142 735h93l95 -154h-87z" />
    <glyph glyph-name="uni045E" unicode="&#x45e;" horiz-adv-x="519" 
d="M411 504h93l-276 -695h-93l78 197l-198 498h93l152 -393zM177 735q0 -38 21.5 -63t60.5 -25t60.5 25t21.5 63h77q-2 -70 -45.5 -113t-113.5 -43t-113.5 43t-45.5 113h77z" />
    <glyph glyph-name="uni045F" unicode="&#x45f;" horiz-adv-x="569" 
d="M75 0v504h86v-426h247v426h86v-504h-168v-147h-83v147h-168z" />
    <glyph glyph-name="uni0462" unicode="&#x462;" horiz-adv-x="738" 
d="M35 528v79h178v108h88v-108h206v-79h-206v-104h164q104 0 165 -58t61 -153q0 -94 -61.5 -153.5t-162.5 -59.5h-254v528h-178zM454 344h-153v-264h153q68 0 107 36t39 97t-39 96t-107 35z" />
    <glyph glyph-name="uni0463" unicode="&#x463;" horiz-adv-x="604" 
d="M32 429v75h160v200h85v-200h180v-75h-180v-108h118q78 0 123.5 -45.5t45.5 -115.5q0 -69 -46 -114.5t-124 -45.5h-202v429h-160zM384 246h-107v-171h107q46 0 70 24.5t24 61.5t-24 61t-70 24z" />
    <glyph glyph-name="uni0472" unicode="&#x472;" horiz-adv-x="752" 
d="M376 715q146 0 235 -102t89 -261t-89 -261t-235 -102t-235 102t-89 261t89 261t235 102zM376 72q101 0 164 70.5t69 186.5q-46 -34 -114 -34q-57 0 -129 27t-110 27q-61 0 -113 -29q8 -112 70.5 -180t162.5 -68zM376 632q-97 0 -159 -64.5t-73 -171.5q46 34 114 34
q56 0 128 -27t110 -27q61 0 111 27q-13 104 -74.5 166.5t-156.5 62.5z" />
    <glyph glyph-name="uni0473" unicode="&#x473;" horiz-adv-x="574" 
d="M287 515q109 0 175.5 -73.5t66.5 -189.5t-66.5 -189.5t-175.5 -73.5t-175.5 73.5t-66.5 189.5t66.5 189.5t175.5 73.5zM287 67q65 0 106 43.5t47 116.5q-30 -22 -74 -22q-38 0 -86 18t-73 18q-37 0 -73 -18q8 -72 48.5 -114t104.5 -42zM287 437q-61 0 -101 -39t-50 -105
q29 22 72 22q38 0 86 -18t73 -18q40 0 70 16q-10 65 -49.5 103.5t-100.5 38.5z" />
    <glyph glyph-name="uni0474" unicode="&#x474;" horiz-adv-x="730" 
d="M681 706h26v-82h-15q-57 0 -81 -30t-56 -116l-179 -478h-92l-264 704h96l214 -587l141 387q20 54 34 84t38 61t57.5 44t80.5 13z" />
    <glyph glyph-name="uni0475" unicode="&#x475;" horiz-adv-x="562" 
d="M521 506h26v-77h-18q-35 0 -56.5 -22.5t-41.5 -72.5l-130 -334h-89l-197 504h93l148 -396l95 253q30 80 65 112.5t105 32.5z" />
    <glyph glyph-name="uni0490" unicode="&#x490;" horiz-adv-x="562" 
d="M524 836v-214h-347v-622h-89v704h351v132h85z" />
    <glyph glyph-name="uni0491" unicode="&#x491;" horiz-adv-x="444" 
d="M409 630v-203h-248v-427h-86v504h252v126h82z" />
    <glyph glyph-name="uni0492" unicode="&#x492;" horiz-adv-x="579" 
d="M447 295h-253v-295h-89v295h-81v80h81v329h436v-82h-347v-247h253v-80z" />
    <glyph glyph-name="uni0493" unicode="&#x493;" horiz-adv-x="457" 
d="M15 278h73v226h334v-77h-248v-149h172v-71h-172v-207h-86v207h-73v71z" />
    <glyph glyph-name="uni0496" unicode="&#x496;" horiz-adv-x="964" 
d="M934 83v-217h-86v134h-43l-294 344v-344h-89v344l-294 -344h-111l311 366l-304 338h111l287 -317v317h89v-317l287 317h111l-304 -336l241 -285h88z" />
    <glyph glyph-name="uni0497" unicode="&#x497;" horiz-adv-x="748" 
d="M718 78v-206h-83v128h-30l-200 246v-246h-84v246l-200 -246h-105l217 266l-215 238h104l199 -219v219h84v-219l199 219h104l-215 -236l154 -190h71z" />
    <glyph glyph-name="uni0498" unicode="&#x498;" horiz-adv-x="600" 
d="M50 524q11 92 80.5 141.5t164.5 49.5q104 0 167.5 -54.5t63.5 -140.5q0 -56 -29.5 -96.5t-70.5 -55.5q45 -11 85.5 -53.5t40.5 -114.5q0 -82 -56 -139.5t-148 -68.5v-152h-86v151q-93 10 -151 61t-68 134h89q11 -51 55.5 -82.5t117.5 -31.5q72 0 114 35t42 94
q0 60 -42.5 90t-113.5 30h-107v81h101q67 0 101.5 32t34.5 83q0 53 -38.5 84t-101.5 31t-105 -28.5t-52 -79.5h-88z" />
    <glyph glyph-name="uni0499" unicode="&#x499;" horiz-adv-x="491" 
d="M50 369q8 69 64.5 107.5t133.5 38.5t127 -39.5t50 -104.5q0 -79 -72 -108q36 -9 64.5 -37.5t28.5 -80.5q0 -62 -43 -102.5t-113 -50.5v-146h-83v146q-69 9 -114 48t-53 104h85q9 -38 42 -58.5t82 -20.5q51 0 81 21.5t30 59.5q0 74 -110 74h-79v74h74q46 0 70.5 19.5
t24.5 54.5q0 33 -25.5 52t-69.5 19q-46 0 -74.5 -19.5t-36.5 -50.5h-84z" />
    <glyph glyph-name="uni049A" unicode="&#x49a;" horiz-adv-x="652" 
d="M622 83v-217h-86v134h-43l-316 336v-336h-89v704h89v-314l313 314h115l-334 -337l263 -284h88z" />
    <glyph glyph-name="uni049B" unicode="&#x49b;" horiz-adv-x="523" 
d="M493 78v-206h-83v128h-30l-219 243v-243h-86v504h86v-216l218 216h109l-237 -235l170 -191h72z" />
    <glyph glyph-name="uni049C" unicode="&#x49c;" horiz-adv-x="709" 
d="M177 0h-89v704h89v-302h86v172h78v-167l226 297h108l-260 -337l266 -367h-111l-229 318v-168h-78v171h-86v-321z" />
    <glyph glyph-name="uni049D" unicode="&#x49d;" horiz-adv-x="582" 
d="M160 0h-85v504h85v-204h69v124h71v-117l162 197h102l-197 -235l200 -269h-104l-163 222v-122h-71v124h-69v-224z" />
    <glyph glyph-name="uni04A0" unicode="&#x4a0;" horiz-adv-x="728" 
d="M279 704v-314l313 314h115l-334 -337l340 -367h-118l-316 336v-336h-89v622h-155v82h244z" />
    <glyph glyph-name="uni04A1" unicode="&#x4a1;" horiz-adv-x="601" 
d="M170 0v426h-138v78h224v-216l218 216h109l-237 -235l240 -269h-111l-219 243v-243h-86z" />
    <glyph glyph-name="uni04A2" unicode="&#x4a2;" horiz-adv-x="758" 
d="M728 83v-217h-86v134h-89v320h-376v-320h-89v704h89v-301h376v301h89v-621h86z" />
    <glyph glyph-name="uni04A3" unicode="&#x4a3;" horiz-adv-x="600" 
d="M570 78v-206h-83v128h-77v223h-249v-223h-86v504h86v-203h249v203h86v-426h74z" />
    <glyph glyph-name="uni04A4" unicode="&#x4a4;" horiz-adv-x="1027" 
d="M177 0h-89v704h89v-301h376v301h436v-82h-347v-622h-89v320h-376v-320z" />
    <glyph glyph-name="uni04A5" unicode="&#x4a5;" horiz-adv-x="779" 
d="M161 0h-86v504h86v-203h249v203h334v-77h-248v-427h-86v223h-249v-223z" />
    <glyph glyph-name="uni04AA" unicode="&#x4aa;" horiz-adv-x="706" 
d="M569 220h90q-8 -50 -35 -96.5t-82.5 -85t-129.5 -46.5v-152h-86v152q-123 16 -198.5 114.5t-75.5 245.5q0 159 88 261t229 102q120 0 195.5 -65t92.5 -165h-90q-19 66 -67.5 106.5t-130.5 40.5q-103 0 -164.5 -78t-61.5 -202q0 -123 61 -201.5t164 -78.5q85 0 137 45.5
t64 102.5z" />
    <glyph glyph-name="uni04AB" unicode="&#x4ab;" horiz-adv-x="539" 
d="M284 67q57 0 88 28.5t41 67.5h86q-8 -62 -54.5 -110t-118.5 -60v-147h-83v146q-90 13 -144 84t-54 176q0 115 65.5 189t172.5 74q93 0 149 -52t67 -120h-86q-12 38 -44 66t-86 28q-68 0 -109 -51t-41 -134t41.5 -134t109.5 -51z" />
    <glyph glyph-name="uni04AC" unicode="&#x4ac;" horiz-adv-x="623" 
d="M442 83v-217h-86v134h-89v622h-232v82h553v-82h-232v-539h86z" />
    <glyph glyph-name="uni04AD" unicode="&#x4ad;" horiz-adv-x="489" 
d="M361 78v-206h-83v128h-77v427h-169v77h425v-77h-170v-349h74z" />
    <glyph glyph-name="uni04AE" unicode="&#x4ae;" horiz-adv-x="637" 
d="M363 0h-89v276l-259 428h101l202 -338l203 338h101l-259 -428v-276z" />
    <glyph glyph-name="uni04AF" unicode="&#x4af;" horiz-adv-x="519" 
d="M504 504l-202 -506v-189h-86v191l-201 504h93l151 -394l152 394h93z" />
    <glyph glyph-name="uni04B0" unicode="&#x4b0;" horiz-adv-x="635" 
d="M547 266h-185v-266h-89v266h-185v78h145l-218 360h100l202 -341l203 341h100l-218 -360h145v-78z" />
    <glyph glyph-name="uni04B1" unicode="&#x4b1;" horiz-adv-x="519" 
d="M101 5h113l-199 499h93l151 -394l152 394h93l-199 -499h113v-71h-116v-125h-86v125h-115v71z" />
    <glyph glyph-name="uni04B2" unicode="&#x4b2;" horiz-adv-x="683" 
d="M653 83v-217h-86v134h-43l-197 287l-194 -287h-105l244 355l-242 349h105l195 -284l194 284h104l-242 -351l186 -270h81z" />
    <glyph glyph-name="uni04B3" unicode="&#x4b3;" horiz-adv-x="534" 
d="M504 78v-206h-83v128h-30l-135 191l-132 -191h-99l179 252l-177 252h101l133 -193l130 193h99l-177 -255l123 -171h68z" />
    <glyph glyph-name="uni04B4" unicode="&#x4b4;" horiz-adv-x="917" 
d="M35 622v82h523v-82h-222v-539h376v621h89v-621h86v-217h-86v134h-554v622h-212z" />
    <glyph glyph-name="uni04B5" unicode="&#x4b5;" horiz-adv-x="716" 
d="M32 427v77h404v-77h-159v-349h249v426h86v-426h74v-206h-83v128h-412v427h-159z" />
    <glyph glyph-name="uni04B6" unicode="&#x4b6;" horiz-adv-x="694" 
d="M664 83v-217h-86v134h-89v301q-63 -39 -164 -39q-115 0 -190 67.5t-75 196.5v178h89v-177q0 -90 51 -136t134 -46q91 0 155 43v316h89v-621h86z" />
    <glyph glyph-name="uni04B7" unicode="&#x4b7;" horiz-adv-x="557" 
d="M527 78v-206h-83v128h-77v204q-45 -25 -111 -25q-92 0 -146.5 51.5t-54.5 151.5v122h86v-120q0 -63 32.5 -95t92.5 -32t101 26v221h86v-426h74z" />
    <glyph glyph-name="uni04B8" unicode="&#x4b8;" horiz-adv-x="668" 
d="M359 103h-78v162q-99 13 -160 79t-61 182v178h89v-177q0 -75 35.5 -119.5t96.5 -57.5v177h78v-181q79 6 132 42v316h89v-704h-89v302q-52 -33 -132 -39v-160z" />
    <glyph glyph-name="uni04B9" unicode="&#x4b9;" horiz-adv-x="534" 
d="M297 66h-71v115q-80 9 -125.5 59.5t-45.5 141.5v122h86v-120q0 -103 85 -123v129h71v-132q43 5 76 25v221h86v-504h-86v204q-31 -17 -76 -23v-115z" />
    <glyph glyph-name="uni04BA" unicode="&#x4ba;" horiz-adv-x="674" 
d="M177 0h-89v704h89v-281q62 40 164 40q115 0 190 -67.5t75 -196.5v-199h-89v198q0 90 -51 136t-134 46q-92 0 -155 -44v-336z" />
    <glyph glyph-name="uni04BB" unicode="&#x4bb;" horiz-adv-x="569" 
d="M311 515q80 0 134 -50t54 -148v-317h-86v305q0 66 -32 99t-86 33q-55 0 -94.5 -35t-39.5 -105v-297h-86v727h86v-278q52 66 150 66z" />
    <glyph glyph-name="uni04C0" unicode="&#x4c0;" horiz-adv-x="265" 
d="M177 704v-704h-89v704h89z" />
    <glyph glyph-name="uni04C1" unicode="&#x4c1;" horiz-adv-x="933" 
d="M422 0v344l-294 -344h-111l311 366l-304 338h111l287 -317v317h89v-317l287 317h111l-304 -336l311 -368h-111l-294 344v-344h-89zM381 927q0 -37 23.5 -62.5t62.5 -25.5t62.5 25.5t23.5 62.5h77q-1 -70 -46.5 -113t-116.5 -43t-116.5 43t-46.5 113h77z" />
    <glyph glyph-name="uni04C2" unicode="&#x4c2;" horiz-adv-x="727" 
d="M405 504v-219l199 219h104l-215 -236l218 -268h-106l-200 246v-246h-84v246l-200 -246h-105l217 266l-215 238h104l199 -219v219h84zM281 735q0 -38 21.5 -63t60.5 -25t60.5 25t21.5 63h77q-2 -70 -45.5 -113t-113.5 -43t-113.5 43t-45.5 113h77z" />
    <glyph glyph-name="uni04CF" unicode="&#x4cf;" horiz-adv-x="236" 
d="M161 727v-727h-86v727h86z" />
    <glyph glyph-name="uni04D0" unicode="&#x4d0;" horiz-adv-x="664" 
d="M286 704h92l266 -704h-96l-69 186h-296l-67 -186h-96zM331 591l-118 -323h236zM248 927q0 -37 23.5 -62.5t62.5 -25.5t62.5 25.5t23.5 62.5h77q-1 -70 -46.5 -113t-116.5 -43t-116.5 43t-46.5 113h77z" />
    <glyph glyph-name="uni04D1" unicode="&#x4d1;" horiz-adv-x="531" 
d="M376 334q0 51 -31.5 78t-82.5 27q-91 0 -116 -67h-83q13 62 65.5 102.5t135.5 40.5q89 0 143 -48.5t54 -132.5v-334h-81v60q-57 -71 -162 -71q-75 0 -124.5 42.5t-49.5 112.5q0 73 53 114.5t145 41.5h134v34zM229 64q62 0 104.5 35t42.5 91v37h-129q-53 0 -84.5 -21
t-31.5 -61q0 -39 27 -60t71 -21zM184 735q0 -38 21.5 -63t60.5 -25t60.5 25t21.5 63h77q-2 -70 -45.5 -113t-113.5 -43t-113.5 43t-45.5 113h77z" />
    <glyph glyph-name="uni04D2" unicode="&#x4d2;" horiz-adv-x="664" 
d="M286 704h92l266 -704h-96l-69 186h-296l-67 -186h-96zM331 591l-118 -323h236zM227 907q25 0 42 -16.5t17 -41.5t-17 -41.5t-42 -16.5t-42 16.5t-17 41.5t17 41.5t42 16.5zM441 907q25 0 42 -16.5t17 -41.5t-17 -41.5t-42 -16.5t-42 16.5t-17 41.5t17 41.5t42 16.5z" />
    <glyph glyph-name="uni04D3" unicode="&#x4d3;" horiz-adv-x="531" 
d="M376 334q0 51 -31.5 78t-82.5 27q-91 0 -116 -67h-83q13 62 65.5 102.5t135.5 40.5q89 0 143 -48.5t54 -132.5v-334h-81v60q-57 -71 -162 -71q-75 0 -124.5 42.5t-49.5 112.5q0 73 53 114.5t145 41.5h134v34zM229 64q62 0 104.5 35t42.5 91v37h-129q-53 0 -84.5 -21
t-31.5 -61q0 -39 27 -60t71 -21zM163 715q25 0 42 -16.5t17 -41.5t-17 -41.5t-42 -16.5t-42 16.5t-17 41.5t17 41.5t42 16.5zM369 715q25 0 42 -16.5t17 -41.5t-17 -41.5t-42 -16.5t-42 16.5t-17 41.5t17 41.5t42 16.5z" />
    <glyph glyph-name="uni04D4" unicode="&#x4d4;" horiz-adv-x="993" 
d="M438 704h495v-82h-355v-220h336v-81h-336v-239h355v-82h-443v187h-268l-113 -187h-99zM271 268h219v362z" />
    <glyph glyph-name="uni04D5" unicode="&#x4d5;" horiz-adv-x="873" 
d="M262 515q121 0 168 -88q63 88 179 88q100 0 159.5 -66.5t59.5 -178.5v-44h-367v-2q0 -68 43 -113t112 -45q48 0 79.5 20.5t39.5 43.5h87q-12 -53 -64.5 -97t-141.5 -44q-135 0 -197 103q-29 -47 -80.5 -75t-116.5 -28q-77 0 -127.5 42t-50.5 113q0 73 53 114.5t145 41.5
h134v34q0 51 -31.5 78t-82.5 27q-91 0 -116 -67h-83q13 62 65 102.5t134 40.5zM233 64q61 0 102 36t41 90v37h-129q-53 0 -84.5 -21t-31.5 -61q0 -39 28 -60t74 -21zM606 438q-62 0 -100.5 -38t-43.5 -101h279q-3 65 -38.5 102t-96.5 37z" />
    <glyph glyph-name="uni04D6" unicode="&#x4d6;" horiz-adv-x="594" 
d="M534 622h-357v-220h338v-81h-338v-239h357v-82h-446v704h446v-82zM228 927q0 -37 23.5 -62.5t62.5 -25.5t62.5 25.5t23.5 62.5h77q-1 -70 -46.5 -113t-116.5 -43t-116.5 43t-46.5 113h77z" />
    <glyph glyph-name="uni04D7" unicode="&#x4d7;" horiz-adv-x="547" 
d="M502 226h-367v-2q0 -68 43 -113t112 -45q48 0 79.5 20.5t39.5 43.5h87q-12 -53 -65 -97t-142 -44q-110 0 -177 71t-67 192t66 192t171 71q101 0 160.5 -66.5t59.5 -178.5v-44zM280 438q-62 0 -100.5 -38t-43.5 -101h279q-3 65 -38.5 102t-96.5 37zM200 735
q0 -38 21.5 -63t60.5 -25t60.5 25t21.5 63h77q-2 -70 -45.5 -113t-113.5 -43t-113.5 43t-45.5 113h77z" />
    <glyph glyph-name="uni04D8" unicode="&#x4d8;" horiz-adv-x="713" 
d="M52 332v53h517q-3 112 -65.5 180t-158.5 68q-134 0 -192 -112h-92q27 87 101.5 140.5t182.5 53.5q144 0 230 -99t86 -264q0 -164 -82.5 -263.5t-221.5 -99.5t-222 96t-83 247zM355 71q95 0 151.5 64t61.5 170h-427q4 -105 63 -169.5t151 -64.5z" />
    <glyph glyph-name="uni04D9" unicode="&#x4d9;" horiz-adv-x="547" 
d="M45 235v47h367q0 69 -41 112.5t-111 43.5q-48 0 -79.5 -20t-39.5 -43h-87q12 53 65 96.5t142 43.5q111 0 176 -71t65 -192t-64 -192t-169 -71q-101 0 -162.5 66.5t-61.5 179.5zM271 66q62 0 98.5 39t41.5 104h-279q1 -67 39 -105t100 -38z" />
    <glyph glyph-name="uni04DA" unicode="&#x4da;" horiz-adv-x="713" 
d="M52 332v53h517q-3 112 -65.5 180t-158.5 68q-134 0 -192 -112h-92q27 87 101.5 140.5t182.5 53.5q144 0 230 -99t86 -264q0 -164 -82.5 -263.5t-221.5 -99.5t-222 96t-83 247zM355 71q95 0 151.5 64t61.5 170h-427q4 -105 63 -169.5t151 -64.5zM249 907q25 0 42 -16.5
t17 -41.5t-17 -41.5t-42 -16.5t-42 16.5t-17 41.5t17 41.5t42 16.5zM463 907q25 0 42 -16.5t17 -41.5t-17 -41.5t-42 -16.5t-42 16.5t-17 41.5t17 41.5t42 16.5z" />
    <glyph glyph-name="uni04DB" unicode="&#x4db;" horiz-adv-x="547" 
d="M45 235v47h367q0 69 -41 112.5t-111 43.5q-48 0 -79.5 -20t-39.5 -43h-87q12 53 65 96.5t142 43.5q111 0 176 -71t65 -192t-64 -192t-169 -71q-101 0 -162.5 66.5t-61.5 179.5zM271 66q62 0 98.5 39t41.5 104h-279q1 -67 39 -105t100 -38zM168 715q25 0 42 -16.5
t17 -41.5t-17 -41.5t-42 -16.5t-42 16.5t-17 41.5t17 41.5t42 16.5zM374 715q25 0 42 -16.5t17 -41.5t-17 -41.5t-42 -16.5t-42 16.5t-17 41.5t17 41.5t42 16.5z" />
    <glyph glyph-name="uni04DC" unicode="&#x4dc;" horiz-adv-x="933" 
d="M422 0v344l-294 -344h-111l311 366l-304 338h111l287 -317v317h89v-317l287 317h111l-304 -336l311 -368h-111l-294 344v-344h-89zM360 907q25 0 42 -16.5t17 -41.5t-17 -41.5t-42 -16.5t-42 16.5t-17 41.5t17 41.5t42 16.5zM574 907q25 0 42 -16.5t17 -41.5t-17 -41.5
t-42 -16.5t-42 16.5t-17 41.5t17 41.5t42 16.5z" />
    <glyph glyph-name="uni04DD" unicode="&#x4dd;" horiz-adv-x="727" 
d="M405 504v-219l199 219h104l-215 -236l218 -268h-106l-200 246v-246h-84v246l-200 -246h-105l217 266l-215 238h104l199 -219v219h84zM260 715q25 0 42 -16.5t17 -41.5t-17 -41.5t-42 -16.5t-42 16.5t-17 41.5t17 41.5t42 16.5zM466 715q25 0 42 -16.5t17 -41.5t-17 -41.5
t-42 -16.5t-42 16.5t-17 41.5t17 41.5t42 16.5z" />
    <glyph glyph-name="uni04DE" unicode="&#x4de;" horiz-adv-x="600" 
d="M50 524q11 92 80.5 141.5t164.5 49.5q104 0 167.5 -54.5t63.5 -140.5q0 -56 -29.5 -96.5t-70.5 -55.5q45 -11 85.5 -53.5t40.5 -114.5q0 -91 -68.5 -151t-178.5 -60t-180.5 52.5t-81.5 144.5h89q11 -51 55.5 -82.5t117.5 -31.5q72 0 114 35t42 94q0 60 -42.5 90
t-113.5 30h-107v81h101q67 0 101.5 32t34.5 83q0 53 -38.5 84t-101.5 31t-105 -28.5t-52 -79.5h-88zM187 907q25 0 42 -16.5t17 -41.5t-17 -41.5t-42 -16.5t-42 16.5t-17 41.5t17 41.5t42 16.5zM401 907q25 0 42 -16.5t17 -41.5t-17 -41.5t-42 -16.5t-42 16.5t-17 41.5
t17 41.5t42 16.5z" />
    <glyph glyph-name="uni04DF" unicode="&#x4df;" horiz-adv-x="491" 
d="M50 369q8 69 64.5 107.5t133.5 38.5t127 -39.5t50 -104.5q0 -79 -72 -108q36 -9 64.5 -37.5t28.5 -80.5q0 -71 -56.5 -113.5t-142.5 -42.5q-83 0 -140.5 40t-66.5 115h85q9 -38 42 -58.5t82 -20.5q51 0 81 21.5t30 59.5q0 74 -110 74h-79v74h74q46 0 70.5 19.5t24.5 54.5
q0 33 -25.5 52t-69.5 19q-46 0 -74.5 -19.5t-36.5 -50.5h-84zM141 715q25 0 42 -16.5t17 -41.5t-17 -41.5t-42 -16.5t-42 16.5t-17 41.5t17 41.5t42 16.5zM347 715q25 0 42 -16.5t17 -41.5t-17 -41.5t-42 -16.5t-42 16.5t-17 41.5t17 41.5t42 16.5z" />
    <glyph glyph-name="uni04E2" unicode="&#x4e2;" horiz-adv-x="733" 
d="M645 704v-704h-88v562l-381 -562h-88v704h88v-562l381 562h88zM216 886h302v-74h-302v74z" />
    <glyph glyph-name="uni04E3" unicode="&#x4e3;" horiz-adv-x="577" 
d="M502 504v-504h-85v371l-257 -371h-85v504h85v-372l257 372h85zM142 694h294v-74h-294v74z" />
    <glyph glyph-name="uni04E4" unicode="&#x4e4;" horiz-adv-x="733" 
d="M645 704v-704h-88v562l-381 -562h-88v704h88v-562l381 562h88zM260 907q25 0 42 -16.5t17 -41.5t-17 -41.5t-42 -16.5t-42 16.5t-17 41.5t17 41.5t42 16.5zM474 907q25 0 42 -16.5t17 -41.5t-17 -41.5t-42 -16.5t-42 16.5t-17 41.5t17 41.5t42 16.5z" />
    <glyph glyph-name="uni04E5" unicode="&#x4e5;" horiz-adv-x="577" 
d="M502 504v-504h-85v371l-257 -371h-85v504h85v-372l257 372h85zM186 715q25 0 42 -16.5t17 -41.5t-17 -41.5t-42 -16.5t-42 16.5t-17 41.5t17 41.5t42 16.5zM392 715q25 0 42 -16.5t17 -41.5t-17 -41.5t-42 -16.5t-42 16.5t-17 41.5t17 41.5t42 16.5z" />
    <glyph glyph-name="uni04E6" unicode="&#x4e6;" horiz-adv-x="752" 
d="M376 715q146 0 235 -102t89 -261t-89 -261t-235 -102t-235 102t-89 261t89 261t235 102zM376 72q107 0 170 77.5t63 202.5t-63 202.5t-170 77.5t-170 -77.5t-63 -202.5t63 -202.5t170 -77.5zM269 907q25 0 42 -16.5t17 -41.5t-17 -41.5t-42 -16.5t-42 16.5t-17 41.5
t17 41.5t42 16.5zM483 907q25 0 42 -16.5t17 -41.5t-17 -41.5t-42 -16.5t-42 16.5t-17 41.5t17 41.5t42 16.5z" />
    <glyph glyph-name="uni04E7" unicode="&#x4e7;" horiz-adv-x="574" 
d="M287 515q109 0 175.5 -73.5t66.5 -189.5t-66.5 -189.5t-175.5 -73.5t-175.5 73.5t-66.5 189.5t66.5 189.5t175.5 73.5zM287 67q71 0 112.5 51t41.5 134t-41.5 134t-112.5 51t-112.5 -51t-41.5 -134t41.5 -134t112.5 -51zM184 715q25 0 42 -16.5t17 -41.5t-17 -41.5
t-42 -16.5t-42 16.5t-17 41.5t17 41.5t42 16.5zM390 715q25 0 42 -16.5t17 -41.5t-17 -41.5t-42 -16.5t-42 16.5t-17 41.5t17 41.5t42 16.5z" />
    <glyph glyph-name="uni04E8" unicode="&#x4e8;" horiz-adv-x="752" 
d="M376 715q146 0 235 -102t89 -261t-89 -261t-235 -102t-235 102t-89 261t89 261t235 102zM376 72q100 0 162.5 68t70.5 181h-466q8 -112 70.5 -180.5t162.5 -68.5zM376 632q-95 0 -156.5 -62.5t-74.5 -167.5h462q-12 102 -73.5 166t-157.5 64z" />
    <glyph glyph-name="uni04E9" unicode="&#x4e9;" horiz-adv-x="574" 
d="M287 515q109 0 175.5 -73.5t66.5 -189.5t-66.5 -189.5t-175.5 -73.5t-175.5 73.5t-66.5 189.5t66.5 189.5t175.5 73.5zM287 67q65 0 104 42.5t48 110.5h-305q8 -71 48.5 -112t104.5 -41zM287 437q-61 0 -101 -38.5t-50 -104.5h302q-11 66 -50.5 104.5t-100.5 38.5z" />
    <glyph glyph-name="uni04EA" unicode="&#x4ea;" horiz-adv-x="752" 
d="M376 715q146 0 235 -102t89 -261t-89 -261t-235 -102t-235 102t-89 261t89 261t235 102zM376 72q100 0 162.5 68t70.5 181h-466q8 -112 70.5 -180.5t162.5 -68.5zM376 632q-95 0 -156.5 -62.5t-74.5 -167.5h462q-12 102 -73.5 166t-157.5 64zM269 907q25 0 42 -16.5
t17 -41.5t-17 -41.5t-42 -16.5t-42 16.5t-17 41.5t17 41.5t42 16.5zM483 907q25 0 42 -16.5t17 -41.5t-17 -41.5t-42 -16.5t-42 16.5t-17 41.5t17 41.5t42 16.5z" />
    <glyph glyph-name="uni04EB" unicode="&#x4eb;" horiz-adv-x="574" 
d="M287 515q109 0 175.5 -73.5t66.5 -189.5t-66.5 -189.5t-175.5 -73.5t-175.5 73.5t-66.5 189.5t66.5 189.5t175.5 73.5zM287 67q65 0 104 42.5t48 110.5h-305q8 -71 48.5 -112t104.5 -41zM287 437q-61 0 -101 -38.5t-50 -104.5h302q-11 66 -50.5 104.5t-100.5 38.5z
M184 715q25 0 42 -16.5t17 -41.5t-17 -41.5t-42 -16.5t-42 16.5t-17 41.5t17 41.5t42 16.5zM390 715q25 0 42 -16.5t17 -41.5t-17 -41.5t-42 -16.5t-42 16.5t-17 41.5t17 41.5t42 16.5z" />
    <glyph glyph-name="uni04EC" unicode="&#x4ec;" horiz-adv-x="706" 
d="M255 320v80h306q-11 108 -71 170t-152 62q-79 0 -129 -39t-70 -98h-89q19 93 95 156.5t193 63.5q141 0 228.5 -99.5t87.5 -263.5q0 -165 -88.5 -264t-228.5 -99q-67 0 -121 21t-87.5 55t-53.5 70.5t-28 74.5h90q17 -53 67 -95.5t134 -42.5q95 0 155.5 67.5t68.5 180.5
h-307zM231 907q25 0 42 -16.5t17 -41.5t-17 -41.5t-42 -16.5t-42 16.5t-17 41.5t17 41.5t42 16.5zM445 907q25 0 42 -16.5t17 -41.5t-17 -41.5t-42 -16.5t-42 16.5t-17 41.5t17 41.5t42 16.5z" />
    <glyph glyph-name="uni04ED" unicode="&#x4ed;" horiz-adv-x="538" 
d="M182 297h221q-9 67 -47.5 104t-98.5 37q-56 0 -87.5 -25.5t-41.5 -59.5h-85q10 66 65 114t149 48q107 0 171.5 -72t64.5 -191q0 -118 -65.5 -190.5t-171.5 -72.5q-92 0 -150 48.5t-66 119.5h83q9 -37 40.5 -64t91.5 -27q63 0 103.5 42t46.5 115h-223v74zM154 715
q25 0 42 -16.5t17 -41.5t-17 -41.5t-42 -16.5t-42 16.5t-17 41.5t17 41.5t42 16.5zM360 715q25 0 42 -16.5t17 -41.5t-17 -41.5t-42 -16.5t-42 16.5t-17 41.5t17 41.5t42 16.5z" />
    <glyph glyph-name="uni04EE" unicode="&#x4ee;" horiz-adv-x="647" 
d="M20 704h100l211 -413l199 413h97l-343 -704h-98l97 198zM176 886h302v-74h-302v74z" />
    <glyph glyph-name="uni04EF" unicode="&#x4ef;" horiz-adv-x="519" 
d="M411 504h93l-276 -695h-93l78 197l-198 498h93l152 -393zM112 694h294v-74h-294v74z" />
    <glyph glyph-name="uni04F0" unicode="&#x4f0;" horiz-adv-x="647" 
d="M20 704h100l211 -413l199 413h97l-343 -704h-98l97 198zM220 907q25 0 42 -16.5t17 -41.5t-17 -41.5t-42 -16.5t-42 16.5t-17 41.5t17 41.5t42 16.5zM434 907q25 0 42 -16.5t17 -41.5t-17 -41.5t-42 -16.5t-42 16.5t-17 41.5t17 41.5t42 16.5z" />
    <glyph glyph-name="uni04F1" unicode="&#x4f1;" horiz-adv-x="519" 
d="M411 504h93l-276 -695h-93l78 197l-198 498h93l152 -393zM156 715q25 0 42 -16.5t17 -41.5t-17 -41.5t-42 -16.5t-42 16.5t-17 41.5t17 41.5t42 16.5zM362 715q25 0 42 -16.5t17 -41.5t-17 -41.5t-42 -16.5t-42 16.5t-17 41.5t17 41.5t42 16.5z" />
    <glyph glyph-name="uni04F2" unicode="&#x4f2;" horiz-adv-x="647" 
d="M20 704h100l211 -413l199 413h97l-343 -704h-98l97 198zM379 927l-95 -154h-84l89 154h90zM549 927l-95 -154h-84l89 154h90z" />
    <glyph glyph-name="uni04F3" unicode="&#x4f3;" horiz-adv-x="519" 
d="M411 504h93l-276 -695h-93l78 197l-198 498h93l152 -393zM313 735l-95 -154h-84l89 154h90zM479 735l-95 -154h-84l89 154h90z" />
    <glyph glyph-name="uni04F4" unicode="&#x4f4;" horiz-adv-x="666" 
d="M489 704h89v-704h-89v301q-63 -39 -164 -39q-115 0 -190 67.5t-75 196.5v178h89v-177q0 -90 51 -136t134 -46q91 0 155 43v316zM213 907q25 0 42 -16.5t17 -41.5t-17 -41.5t-42 -16.5t-42 16.5t-17 41.5t17 41.5t42 16.5zM427 907q25 0 42 -16.5t17 -41.5t-17 -41.5
t-42 -16.5t-42 16.5t-17 41.5t17 41.5t42 16.5z" />
    <glyph glyph-name="uni04F5" unicode="&#x4f5;" horiz-adv-x="528" 
d="M367 504h86v-504h-86v204q-45 -25 -111 -25q-92 0 -146.5 51.5t-54.5 151.5v122h86v-120q0 -63 32.5 -95t92.5 -32t101 26v221zM151 715q25 0 42 -16.5t17 -41.5t-17 -41.5t-42 -16.5t-42 16.5t-17 41.5t17 41.5t42 16.5zM357 715q25 0 42 -16.5t17 -41.5t-17 -41.5
t-42 -16.5t-42 16.5t-17 41.5t17 41.5t42 16.5z" />
    <glyph glyph-name="uni04F6" unicode="&#x4f6;" horiz-adv-x="562" 
d="M263 83v-217h-86v134h-89v704h436v-82h-347v-539h86z" />
    <glyph glyph-name="uni04F7" unicode="&#x4f7;" horiz-adv-x="444" 
d="M235 78v-206h-83v128h-77v504h334v-77h-248v-349h74z" />
    <glyph glyph-name="uni04F8" unicode="&#x4f8;" horiz-adv-x="826" 
d="M333 445q108 0 171 -63.5t63 -158.5q0 -93 -63.5 -158t-168.5 -65h-247v704h89v-259h156zM323 364h-146v-283h146q71 0 112 39t41 103t-40.5 102.5t-112.5 38.5zM738 704v-704h-89v704h89zM306 907q25 0 42 -16.5t17 -41.5t-17 -41.5t-42 -16.5t-42 16.5t-17 41.5
t17 41.5t42 16.5zM520 907q25 0 42 -16.5t17 -41.5t-17 -41.5t-42 -16.5t-42 16.5t-17 41.5t17 41.5t42 16.5z" />
    <glyph glyph-name="uni04F9" unicode="&#x4f9;" horiz-adv-x="685" 
d="M161 504v-163h113q79 0 128 -47.5t49 -121.5q0 -75 -49 -123.5t-129 -48.5h-198v504h86zM610 504v-504h-86v504h86zM263 265h-102v-189h102q48 0 75 27t27 69t-27 67.5t-75 25.5zM239 715q25 0 42 -16.5t17 -41.5t-17 -41.5t-42 -16.5t-42 16.5t-17 41.5t17 41.5t42 16.5
zM445 715q25 0 42 -16.5t17 -41.5t-17 -41.5t-42 -16.5t-42 16.5t-17 41.5t17 41.5t42 16.5z" />
    <glyph glyph-name="uni0512" unicode="&#x512;" horiz-adv-x="695" 
d="M175 704h432v-733q0 -81 -39.5 -121.5t-108.5 -40.5h-38v80h23q74 0 74 86v647h-263l-26 -389q-7 -114 -49.5 -174.5t-143.5 -60.5h-26v83h15q61 0 86.5 36t31.5 122z" />
    <glyph glyph-name="uni0513" unicode="&#x513;" horiz-adv-x="566" 
d="M143 504h348v-534q0 -161 -140 -161h-36v77h22q68 0 68 88v453h-185l-20 -238q-8 -102 -45.5 -146.5t-115.5 -44.5h-24v78h14q46 0 64.5 26t23.5 93z" />
    <glyph glyph-name="uni051C" unicode="&#x51c;" horiz-adv-x="980" 
d="M952 704l-218 -704h-84l-161 557l-161 -557h-82l-218 704h94l165 -548l160 548h86l159 -548l166 548h94z" />
    <glyph glyph-name="uni051D" unicode="&#x51d;" horiz-adv-x="773" 
d="M753 504l-165 -504h-83l-120 385l-118 -385h-82l-165 504h90l117 -371l116 371h87l116 -371l117 371h90z" />
    <glyph glyph-name="uni0524" unicode="&#x524;" horiz-adv-x="755" 
d="M725 83v-217h-86v134h-89v622h-373v-622h-89v704h551v-621h86z" />
    <glyph glyph-name="uni0525" unicode="&#x525;" horiz-adv-x="597" 
d="M567 78v-206h-83v128h-77v427h-246v-427h-86v504h418v-426h74z" />
    <glyph glyph-name="Wgrave" unicode="&#x1e80;" horiz-adv-x="980" 
d="M952 704l-218 -704h-84l-161 557l-161 -557h-82l-218 704h94l165 -548l160 548h86l159 -548l166 548h94zM342 927h93l95 -154h-87z" />
    <glyph glyph-name="wgrave" unicode="&#x1e81;" horiz-adv-x="773" 
d="M753 504l-165 -504h-83l-120 385l-118 -385h-82l-165 504h90l117 -371l116 371h87l116 -371l117 371h90zM239 735h93l95 -154h-87z" />
    <glyph glyph-name="Wacute" unicode="&#x1e82;" horiz-adv-x="980" 
d="M952 704l-218 -704h-84l-161 557l-161 -557h-82l-218 704h94l165 -548l160 548h86l159 -548l166 548h94zM636 927l-101 -154h-87l95 154h93z" />
    <glyph glyph-name="wacute" unicode="&#x1e83;" horiz-adv-x="773" 
d="M753 504l-165 -504h-83l-120 385l-118 -385h-82l-165 504h90l117 -371l116 371h87l116 -371l117 371h90zM533 735l-101 -154h-87l95 154h93z" />
    <glyph glyph-name="Wdieresis" unicode="&#x1e84;" horiz-adv-x="980" 
d="M952 704l-218 -704h-84l-161 557l-161 -557h-82l-218 704h94l165 -548l160 548h86l159 -548l166 548h94zM382 907q25 0 42 -16.5t17 -41.5t-17 -41.5t-42 -16.5t-42 16.5t-17 41.5t17 41.5t42 16.5zM596 907q25 0 42 -16.5t17 -41.5t-17 -41.5t-42 -16.5t-42 16.5
t-17 41.5t17 41.5t42 16.5z" />
    <glyph glyph-name="wdieresis" unicode="&#x1e85;" horiz-adv-x="773" 
d="M753 504l-165 -504h-83l-120 385l-118 -385h-82l-165 504h90l117 -371l116 371h87l116 -371l117 371h90zM283 715q25 0 42 -16.5t17 -41.5t-17 -41.5t-42 -16.5t-42 16.5t-17 41.5t17 41.5t42 16.5zM489 715q25 0 42 -16.5t17 -41.5t-17 -41.5t-42 -16.5t-42 16.5
t-17 41.5t17 41.5t42 16.5z" />
    <glyph glyph-name="Ygrave" unicode="&#x1ef2;" horiz-adv-x="637" 
d="M363 0h-89v276l-259 428h101l202 -338l203 338h101l-259 -428v-276zM173 927h93l95 -154h-87z" />
    <glyph glyph-name="ygrave" unicode="&#x1ef3;" horiz-adv-x="519" 
d="M411 504h93l-276 -695h-93l78 197l-198 498h93l152 -393zM112 735h93l95 -154h-87z" />
    <glyph glyph-name="uni2000" unicode="&#x2000;" horiz-adv-x="500" 
 />
    <glyph glyph-name="uni2001" unicode="&#x2001;" horiz-adv-x="1000" 
 />
    <glyph glyph-name="uni2002" unicode="&#x2002;" horiz-adv-x="520" 
 />
    <glyph glyph-name="uni2003" unicode="&#x2003;" horiz-adv-x="1000" 
 />
    <glyph glyph-name="uni2004" unicode="&#x2004;" horiz-adv-x="320" 
 />
    <glyph glyph-name="uni2005" unicode="&#x2005;" horiz-adv-x="250" 
 />
    <glyph glyph-name="uni2006" unicode="&#x2006;" horiz-adv-x="150" 
 />
    <glyph glyph-name="uni2007" unicode="&#x2007;" horiz-adv-x="600" 
 />
    <glyph glyph-name="uni2008" unicode="&#x2008;" horiz-adv-x="264" 
 />
    <glyph glyph-name="uni2009" unicode="&#x2009;" horiz-adv-x="190" 
 />
    <glyph glyph-name="uni200A" unicode="&#x200a;" horiz-adv-x="50" 
 />
    <glyph glyph-name="uni200B" unicode="&#x200b;" horiz-adv-x="0" 
 />
    <glyph glyph-name="endash" unicode="&#x2013;" horiz-adv-x="500" 
d="M0 229v82h500v-82h-500z" />
    <glyph glyph-name="emdash" unicode="&#x2014;" horiz-adv-x="1000" 
d="M0 229v82h1000v-82h-1000z" />
    <glyph glyph-name="quoteleft" unicode="&#x2018;" horiz-adv-x="266" 
d="M69 496q0 21 9 45l60 163h71l-56 -157q42 -13 42 -55q0 -25 -17.5 -42t-43.5 -17q-27 0 -46 18t-19 45z" />
    <glyph glyph-name="quoteright" unicode="&#x2019;" horiz-adv-x="266" 
d="M197 641q0 -21 -9 -45l-60 -163h-71l56 157q-42 13 -42 55q0 25 17.5 42t43.5 17q27 0 46 -18t19 -45z" />
    <glyph glyph-name="quotesinglbase" unicode="&#x201a;" horiz-adv-x="266" 
d="M197 46q0 -21 -9 -45l-60 -163h-71l56 157q-42 13 -42 55q0 25 17.5 42t43.5 17q27 0 46 -18t19 -45z" />
    <glyph glyph-name="quotedblleft" unicode="&#x201c;" horiz-adv-x="448" 
d="M251 496q0 21 9 45l60 163h71l-56 -157q42 -13 42 -55q0 -25 -17.5 -42t-43.5 -17q-27 0 -46 18t-19 45zM69 496q0 21 9 45l60 163h71l-56 -157q42 -13 42 -55q0 -25 -17.5 -42t-43.5 -17q-27 0 -46 18t-19 45z" />
    <glyph glyph-name="quotedblright" unicode="&#x201d;" horiz-adv-x="448" 
d="M197 641q0 -21 -9 -45l-60 -163h-71l56 157q-42 13 -42 55q0 25 17.5 42t43.5 17q27 0 46 -18t19 -45zM379 641q0 -21 -9 -45l-60 -163h-71l56 157q-42 13 -42 55q0 25 17.5 42t43.5 17q27 0 46 -18t19 -45z" />
    <glyph glyph-name="quotedblbase" unicode="&#x201e;" horiz-adv-x="448" 
d="M197 46q0 -21 -9 -45l-60 -163h-71l56 157q-42 13 -42 55q0 25 17.5 42t43.5 17q27 0 46 -18t19 -45zM379 46q0 -21 -9 -45l-60 -163h-71l56 157q-42 13 -42 55q0 25 17.5 42t43.5 17q27 0 46 -18t19 -45z" />
    <glyph glyph-name="dagger" unicode="&#x2020;" horiz-adv-x="450" 
d="M410 504h-146v-292h-78v292h-146v77h146v170h78v-170h146v-77z" />
    <glyph glyph-name="daggerdbl" unicode="&#x2021;" horiz-adv-x="450" 
d="M410 214h-146v-170h-78v170h-146v77h146v213h-146v77h146v170h78v-170h146v-77h-146v-213h146v-77z" />
    <glyph glyph-name="bullet" unicode="&#x2022;" horiz-adv-x="410" 
d="M205 407q61 0 103 -42t42 -104t-42 -104t-103 -42t-103 42t-42 104t42 104t103 42z" />
    <glyph glyph-name="ellipsis" unicode="&#x2026;" horiz-adv-x="746" 
d="M373 111q26 0 44 -17.5t18 -43.5t-18 -43.5t-44 -17.5t-44 17.5t-18 43.5t18 43.5t44 17.5zM132 111q26 0 44 -17.5t18 -43.5t-18 -43.5t-44 -17.5t-44 17.5t-18 43.5t18 43.5t44 17.5zM614 111q26 0 44 -17.5t18 -43.5t-18 -43.5t-44 -17.5t-44 17.5t-18 43.5t18 43.5
t44 17.5z" />
    <glyph glyph-name="perthousand" unicode="&#x2030;" horiz-adv-x="1259" 
d="M136 0l505 704h92l-505 -704h-92zM206 644q-40 0 -64 -30.5t-24 -77.5t24 -77.5t64 -30.5t64 30.5t24 77.5t-24 77.5t-64 30.5zM40 536q0 77 46.5 128t119.5 51t119.5 -51t46.5 -128t-46.5 -128t-119.5 -51t-119.5 51t-46.5 128zM663 276q-40 0 -64 -30.5t-24 -77.5
t24 -77.5t64 -30.5t64 30.5t24 77.5t-24 77.5t-64 30.5zM497 168q0 77 46.5 128t119.5 51t119.5 -51t46.5 -128t-46.5 -128t-119.5 -51t-119.5 51t-46.5 128zM1053 276q-40 0 -64 -30.5t-24 -77.5t24 -77.5t64 -30.5t64 30.5t24 77.5t-24 77.5t-64 30.5zM887 168
q0 77 46.5 128t119.5 51t119.5 -51t46.5 -128t-46.5 -128t-119.5 -51t-119.5 51t-46.5 128z" />
    <glyph glyph-name="guilsinglleft" unicode="&#x2039;" horiz-adv-x="374" 
d="M153 257l171 -208h-100l-174 208l174 208h100z" />
    <glyph glyph-name="guilsinglright" unicode="&#x203a;" horiz-adv-x="374" 
d="M221 257l-171 208h100l174 -208l-174 -208h-100z" />
    <glyph glyph-name="fraction" unicode="&#x2044;" horiz-adv-x="254" 
d="M-170 0l505 704h89l-505 -704h-89z" />
    <glyph glyph-name="zerosuperior" unicode="&#x2070;" horiz-adv-x="418" 
d="M209 779q78 0 124.5 -60.5t46.5 -158.5t-46.5 -159t-124.5 -61t-124.5 61t-46.5 159t46.5 158.5t124.5 60.5zM209 406q45 0 69.5 42.5t24.5 111.5q0 68 -24.5 110.5t-69.5 42.5t-69.5 -42.5t-24.5 -110.5q0 -69 24.5 -111.5t69.5 -42.5z" />
    <glyph glyph-name="foursuperior" unicode="&#x2074;" horiz-adv-x="407" 
d="M376 501v-64h-60v-90h-72v90h-213v62l189 274h96v-272h60zM107 501h137v195z" />
    <glyph glyph-name="fivesuperior" unicode="&#x2075;" horiz-adv-x="400" 
d="M221 627q59 0 100.5 -37.5t41.5 -102.5q0 -66 -46 -106.5t-112 -40.5q-65 0 -109.5 34t-51.5 85h75q7 -20 28 -37t57 -17q35 0 58.5 22.5t23.5 58.5t-24 57.5t-58 21.5q-55 0 -82 -43h-74l20 250h271v-65h-209l-10 -119q37 39 101 39z" />
    <glyph glyph-name="sixsuperior" unicode="&#x2076;" horiz-adv-x="405" 
d="M228 626q59 0 101 -38t42 -100q0 -63 -44.5 -105.5t-111.5 -42.5q-83 0 -130 57t-47 154q0 111 48.5 169.5t127.5 58.5q60 0 100.5 -32t47.5 -80h-74q-6 19 -26 33t-48 14q-95 0 -102 -142q39 54 116 54zM212 405q35 0 58.5 23t23.5 58t-24 57t-59 22t-60 -22.5
t-25 -56.5t25 -57.5t61 -23.5z" />
    <glyph glyph-name="sevensuperior" unicode="&#x2077;" horiz-adv-x="354" 
d="M25 772h298v-59l-168 -366h-82l168 360h-216v65z" />
    <glyph glyph-name="eightsuperior" unicode="&#x2078;" horiz-adv-x="403" 
d="M38 464q0 40 24.5 68t56.5 37q-28 11 -48 34.5t-20 59.5q0 49 42 82.5t109 33.5t108.5 -33.5t41.5 -82.5q0 -36 -20 -59.5t-48 -34.5q32 -9 56.5 -37t24.5 -68q0 -53 -45.5 -88.5t-117.5 -35.5t-118 35.5t-46 88.5zM278 656q0 27 -21 44t-55 17t-55.5 -17t-21.5 -44
t22 -44t55 -17q32 0 54 17t22 44zM289 469q0 30 -24 49t-63 19t-63.5 -19t-24.5 -49q0 -29 24.5 -48t63.5 -19q38 0 62.5 19t24.5 48z" />
    <glyph glyph-name="ninesuperior" unicode="&#x2079;" horiz-adv-x="405" 
d="M177 493q-59 0 -101 38t-42 100q0 63 44.5 105.5t111.5 42.5q83 0 130 -57t47 -154q0 -111 -48.5 -169.5t-127.5 -58.5q-60 0 -100.5 32t-47.5 80h74q6 -19 26 -33t48 -14q95 0 102 142q-39 -54 -116 -54zM193 714q-35 0 -58.5 -23t-23.5 -58t24 -57t59 -22t60 22.5
t25 56.5t-25 57.5t-61 23.5z" />
    <glyph glyph-name="uni207A" unicode="&#x207a;" horiz-adv-x="392" 
d="M163 709h65v-119h114v-62h-114v-119h-65v119h-114v62h114v119z" />
    <glyph glyph-name="uni207B" unicode="&#x207b;" horiz-adv-x="392" 
d="M338 528h-285v62h285v-62z" />
    <glyph glyph-name="uni207C" unicode="&#x207c;" horiz-adv-x="392" 
d="M52 596v62h288v-62h-288zM52 460v63h288v-63h-288z" />
    <glyph glyph-name="parenleftsuperior" unicode="&#x207d;" horiz-adv-x="231" 
d="M211 824q-88 -117 -88 -265t88 -266h-70q-92 112 -92 266q0 80 26.5 149t65.5 116h70z" />
    <glyph glyph-name="parenrightsuperior" unicode="&#x207e;" horiz-adv-x="231" 
d="M20 824h71q91 -111 91 -265q0 -153 -91 -266h-71q89 120 89 266q0 147 -89 265z" />
    <glyph glyph-name="zeroinferior" unicode="&#x2080;" horiz-adv-x="418" 
d="M209 309q78 0 124.5 -60.5t46.5 -158.5t-46.5 -159t-124.5 -61t-124.5 61t-46.5 159t46.5 158.5t124.5 60.5zM209 -64q45 0 69.5 42.5t24.5 111.5q0 68 -24.5 110.5t-69.5 42.5t-69.5 -42.5t-24.5 -110.5q0 -69 24.5 -111.5t69.5 -42.5z" />
    <glyph glyph-name="oneinferior" unicode="&#x2081;" horiz-adv-x="292" 
d="M215 302v-425h-76v343l-105 -64v75l110 71h71z" />
    <glyph glyph-name="twoinferior" unicode="&#x2082;" horiz-adv-x="387" 
d="M146 -58h204v-65h-306v61l165 152q2 2 10.5 10t11.5 11t10 11t10 13t7.5 13t6 15.5t1.5 16.5q0 28 -21 45.5t-53 17.5t-53 -17t-26 -44h-72q5 55 47.5 91t107.5 36q64 0 105.5 -36.5t41.5 -90.5q0 -62 -80 -134z" />
    <glyph glyph-name="threeinferior" unicode="&#x2083;" horiz-adv-x="393" 
d="M41 188q7 56 51 88.5t105 32.5q63 0 104 -32.5t41 -82.5q0 -67 -65 -94q31 -8 55.5 -35.5t24.5 -68.5q0 -54 -44.5 -90t-112.5 -36q-66 0 -112.5 34.5t-51.5 90.5h72q8 -28 32.5 -44t59.5 -16t57.5 18.5t22.5 46.5q0 30 -22 46t-60 16h-52v64h44q35 0 55 17t20 42
q0 26 -20 42.5t-52 16.5t-52.5 -16t-26.5 -40h-73z" />
    <glyph glyph-name="fourinferior" unicode="&#x2084;" horiz-adv-x="407" 
d="M376 31v-64h-60v-90h-72v90h-213v62l189 274h96v-272h60zM107 31h137v195z" />
    <glyph glyph-name="fiveinferior" unicode="&#x2085;" horiz-adv-x="400" 
d="M221 157q59 0 100.5 -37.5t41.5 -102.5q0 -66 -46 -106.5t-112 -40.5q-65 0 -109.5 34t-51.5 85h75q7 -20 28 -37t57 -17q35 0 58.5 22.5t23.5 58.5t-24 57.5t-58 21.5q-55 0 -82 -43h-74l20 250h271v-65h-209l-10 -119q37 39 101 39z" />
    <glyph glyph-name="sixinferior" unicode="&#x2086;" horiz-adv-x="405" 
d="M228 156q59 0 101 -38t42 -100q0 -63 -44.5 -105.5t-111.5 -42.5q-83 0 -130 57t-47 154q0 111 48.5 169.5t127.5 58.5q60 0 100.5 -32t47.5 -80h-74q-6 19 -26 33t-48 14q-95 0 -102 -142q39 54 116 54zM212 -65q35 0 58.5 23t23.5 58t-24 57t-59 22t-60 -22.5
t-25 -56.5t25 -57.5t61 -23.5z" />
    <glyph glyph-name="seveninferior" unicode="&#x2087;" horiz-adv-x="354" 
d="M25 302h298v-59l-168 -366h-82l168 360h-216v65z" />
    <glyph glyph-name="eightinferior" unicode="&#x2088;" horiz-adv-x="403" 
d="M38 -6q0 40 24.5 68t56.5 37q-28 11 -48 34.5t-20 59.5q0 49 42 82.5t109 33.5t108.5 -33.5t41.5 -82.5q0 -36 -20 -59.5t-48 -34.5q32 -9 56.5 -37t24.5 -68q0 -53 -45.5 -88.5t-117.5 -35.5t-118 35.5t-46 88.5zM278 186q0 27 -21 44t-55 17t-55.5 -17t-21.5 -44
t22 -44t55 -17q32 0 54 17t22 44zM289 -1q0 30 -24 49t-63 19t-63.5 -19t-24.5 -49q0 -29 24.5 -48t63.5 -19q38 0 62.5 19t24.5 48z" />
    <glyph glyph-name="nineinferior" unicode="&#x2089;" horiz-adv-x="405" 
d="M177 23q-59 0 -101 38t-42 100q0 63 44.5 105.5t111.5 42.5q83 0 130 -57t47 -154q0 -111 -48.5 -169.5t-127.5 -58.5q-60 0 -100.5 32t-47.5 80h74q6 -19 26 -33t48 -14q95 0 102 142q-39 -54 -116 -54zM193 244q-35 0 -58.5 -23t-23.5 -58t24 -57t59 -22t60 22.5
t25 56.5t-25 57.5t-61 23.5z" />
    <glyph glyph-name="uni208A" unicode="&#x208a;" horiz-adv-x="392" 
d="M163 239h65v-119h114v-62h-114v-119h-65v119h-114v62h114v119z" />
    <glyph glyph-name="uni208B" unicode="&#x208b;" horiz-adv-x="392" 
d="M338 58h-285v62h285v-62z" />
    <glyph glyph-name="uni208C" unicode="&#x208c;" horiz-adv-x="392" 
d="M52 126v62h288v-62h-288zM52 -10v63h288v-63h-288z" />
    <glyph glyph-name="parenleftinferior" unicode="&#x208d;" horiz-adv-x="231" 
d="M211 354q-88 -117 -88 -265t88 -266h-70q-92 112 -92 266q0 80 26.5 149t65.5 116h70z" />
    <glyph glyph-name="parenrightinferior" unicode="&#x208e;" horiz-adv-x="231" 
d="M20 354h71q91 -111 91 -265q0 -153 -91 -266h-71q89 120 89 266q0 147 -89 265z" />
    <glyph glyph-name="Euro" unicode="&#x20ac;" horiz-adv-x="663" 
d="M539 175h87q-13 -73 -74.5 -129.5t-156.5 -56.5q-99 0 -167.5 65t-90.5 184h-102v73h93q-1 13 -1 41q0 25 1 37h-93v73h101q22 118 89.5 185.5t169.5 67.5q91 0 152.5 -53t76.5 -132h-86q-37 104 -143 104q-68 0 -110.5 -45t-58.5 -127h231l-10 -73h-229q-1 -12 -1 -37
q0 -28 1 -41h219l-10 -73h-199q17 -81 59.5 -124.5t106.5 -43.5q55 0 95 32.5t50 72.5z" />
    <glyph glyph-name="uni20B4" unicode="&#x20b4;" horiz-adv-x="657" 
d="M45 238v75h567v-75h-392q-31 -25 -31 -69q0 -46 38.5 -73t98.5 -27q62 0 102 28t57 75h87q-16 -87 -84 -135t-162 -48q-96 0 -160 48t-64 125q0 46 23 76h-80zM45 387v75h390q34 28 34 75q0 46 -36.5 72t-91.5 26q-115 0 -147 -97h-86q18 83 82 130t152 47
q91 0 152.5 -48.5t61.5 -123.5q0 -48 -28 -81h84v-75h-567z" />
    <glyph glyph-name="uni20B8" unicode="&#x20b8;" horiz-adv-x="593" 
d="M45 462v81h503v-81h-207v-462h-89v462h-207zM45 627v77h503v-77h-503z" />
    <glyph glyph-name="uni20BD" unicode="&#x20bd;" horiz-adv-x="637" 
d="M35 114v73h99v85h-99v76h99v356h223q108 0 171 -60.5t63 -154.5q0 -95 -62.5 -156t-169.5 -61h-137v-85h229v-73h-229v-114h-88v114h-99zM347 624h-125v-273h125q73 0 113 36.5t40 100.5q0 62 -40 99t-113 37z" />
    <glyph glyph-name="uni20BF" unicode="&#x20bf;" horiz-adv-x="608" 
d="M88 17v670h84v99h73v-99h87v99h73v-108q62 -16 95.5 -60.5t33.5 -103.5q0 -57 -25.5 -95t-61.5 -52q43 -12 78 -53t35 -108q0 -70 -41 -118t-114 -64v-112h-73v105h-87v-105h-73v105h-84zM338 324h-166v-231h162q63 0 101.5 30.5t38.5 84.5t-36.5 85t-99.5 31zM323 611
h-151v-211h157q59 0 89.5 29t30.5 76q0 50 -33.5 78t-92.5 28z" />
    <glyph glyph-name="uni2116" unicode="&#x2116;" horiz-adv-x="1140" 
d="M184 704l374 -558v558h87v-704h-87l-383 570v-570h-87v704h96zM726 532q0 80 51 131.5t131 51.5t131 -51.5t51 -131.5t-51 -131.5t-131 -51.5t-131 51.5t-51 131.5zM908 642q-44 0 -71.5 -30.5t-27.5 -79.5t27.5 -79.5t71.5 -30.5t71.5 30.5t27.5 79.5t-27.5 79.5
t-71.5 30.5zM737 217v80h342v-80h-342z" />
    <glyph glyph-name="trademark" unicode="&#x2122;" horiz-adv-x="983" 
d="M460 704h95l134 -322l135 322h94v-425h-72v309l-130 -309h-55l-129 308v-308h-72v425zM30 635v69h354v-69h-139v-356h-76v356h-139z" />
    <glyph glyph-name="oneeighth" unicode="&#x215b;" horiz-adv-x="949" 
d="M215 704v-425h-76v343l-105 -64v75l110 71h71zM122 0l505 704h89l-505 -704h-89zM584 117q0 40 24.5 68t56.5 37q-28 11 -48 34.5t-20 59.5q0 49 42 82.5t109 33.5t108.5 -33.5t41.5 -82.5q0 -36 -20 -59.5t-48 -34.5q32 -9 56.5 -37t24.5 -68q0 -53 -45.5 -88.5
t-117.5 -35.5t-118 35.5t-46 88.5zM824 309q0 27 -21 44t-55 17t-55.5 -17t-21.5 -44t22 -44t55 -17q32 0 54 17t22 44zM835 122q0 30 -24 49t-63 19t-63.5 -19t-24.5 -49q0 -29 24.5 -48t63.5 -19q38 0 62.5 19t24.5 48z" />
    <glyph glyph-name="threeeighths" unicode="&#x215c;" horiz-adv-x="1050" 
d="M41 590q7 56 51 88.5t105 32.5q63 0 104 -32.5t41 -82.5q0 -67 -65 -94q31 -8 55.5 -35.5t24.5 -68.5q0 -54 -44.5 -90t-112.5 -36q-66 0 -112.5 34.5t-51.5 90.5h72q8 -28 32.5 -44t59.5 -16t57.5 18.5t22.5 46.5q0 30 -22 46t-60 16h-52v64h44q35 0 55 17t20 42
q0 26 -20 42.5t-52 16.5t-52.5 -16t-26.5 -40h-73zM223 0l505 704h89l-505 -704h-89zM685 117q0 40 24.5 68t56.5 37q-28 11 -48 34.5t-20 59.5q0 49 42 82.5t109 33.5t108.5 -33.5t41.5 -82.5q0 -36 -20 -59.5t-48 -34.5q32 -9 56.5 -37t24.5 -68q0 -53 -45.5 -88.5
t-117.5 -35.5t-118 35.5t-46 88.5zM925 309q0 27 -21 44t-55 17t-55.5 -17t-21.5 -44t22 -44t55 -17q32 0 54 17t22 44zM936 122q0 30 -24 49t-63 19t-63.5 -19t-24.5 -49q0 -29 24.5 -48t63.5 -19q38 0 62.5 19t24.5 48z" />
    <glyph glyph-name="fiveeighths" unicode="&#x215d;" horiz-adv-x="1057" 
d="M221 559q59 0 100.5 -37.5t41.5 -102.5q0 -66 -46 -106.5t-112 -40.5q-65 0 -109.5 34t-51.5 85h75q7 -20 28 -37t57 -17q35 0 58.5 22.5t23.5 58.5t-24 57.5t-58 21.5q-55 0 -82 -43h-74l20 250h271v-65h-209l-10 -119q37 39 101 39zM230 0l505 704h89l-505 -704h-89z
M692 117q0 40 24.5 68t56.5 37q-28 11 -48 34.5t-20 59.5q0 49 42 82.5t109 33.5t108.5 -33.5t41.5 -82.5q0 -36 -20 -59.5t-48 -34.5q32 -9 56.5 -37t24.5 -68q0 -53 -45.5 -88.5t-117.5 -35.5t-118 35.5t-46 88.5zM932 309q0 27 -21 44t-55 17t-55.5 -17t-21.5 -44t22 -44
t55 -17q32 0 54 17t22 44zM943 122q0 30 -24 49t-63 19t-63.5 -19t-24.5 -49q0 -29 24.5 -48t63.5 -19q38 0 62.5 19t24.5 48z" />
    <glyph glyph-name="seveneighths" unicode="&#x215e;" horiz-adv-x="951" 
d="M25 704h298v-59l-168 -366h-82l168 360h-216v65zM124 0l505 704h89l-505 -704h-89zM586 117q0 40 24.5 68t56.5 37q-28 11 -48 34.5t-20 59.5q0 49 42 82.5t109 33.5t108.5 -33.5t41.5 -82.5q0 -36 -20 -59.5t-48 -34.5q32 -9 56.5 -37t24.5 -68q0 -53 -45.5 -88.5
t-117.5 -35.5t-118 35.5t-46 88.5zM826 309q0 27 -21 44t-55 17t-55.5 -17t-21.5 -44t22 -44t55 -17q32 0 54 17t22 44zM837 122q0 30 -24 49t-63 19t-63.5 -19t-24.5 -49q0 -29 24.5 -48t63.5 -19q38 0 62.5 19t24.5 48z" />
    <glyph glyph-name="leftArrow" unicode="&#x2190;" horiz-adv-x="870" 
d="M292 134l-218 218l218 218h105l-178 -179h572v-78h-572l178 -179h-105z" />
    <glyph glyph-name="upArrow" unicode="&#x2191;" horiz-adv-x="573" 
d="M504 499v-106l-178 179v-572h-79v571l-178 -178v106l218 218z" />
    <glyph glyph-name="rightArrow" unicode="&#x2192;" horiz-adv-x="870" 
d="M578 134h-106l179 179h-572v78h572l-179 179h106l218 -218z" />
    <glyph glyph-name="downArrow" unicode="&#x2193;" horiz-adv-x="573" 
d="M504 205l-217 -218l-218 218v106l178 -178v571h79v-572l178 179v-106z" />
    <glyph glyph-name="leftRightArrow" unicode="&#x2194;" horiz-adv-x="943" 
d="M281 145l-207 207l207 207h101l-170 -170h519l-170 170h101l207 -207l-207 -207h-101l170 170h-519l170 -170h-101z" />
    <glyph glyph-name="uni2196" unicode="&#x2196;" horiz-adv-x="684" 
d="M82 397v307h307l73 -73h-253l406 -406l-54 -54l-406 406v-253z" />
    <glyph glyph-name="uni2197" unicode="&#x2197;" horiz-adv-x="685" 
d="M603 396l-75 -75v252l-403 -403l-56 55l404 404h-253l75 75h308v-308z" />
    <glyph glyph-name="uni2198" unicode="&#x2198;" horiz-adv-x="685" 
d="M603 308v-308h-308l-75 75h253l-404 404l56 55l403 -403v252z" />
    <glyph glyph-name="uni2199" unicode="&#x2199;" horiz-adv-x="685" 
d="M82 308l75 75v-252l404 403l55 -55l-403 -404h252l-75 -75h-308v308z" />
    <glyph glyph-name="partialdiff" unicode="&#x2202;" horiz-adv-x="583" 
d="M284 727q69 -48 101 -79q146 -142 146 -355q0 -145 -64.5 -224.5t-180.5 -79.5q-108 0 -174.5 74t-66.5 185q0 118 67 186t168 68q85 0 139 -52q-15 46 -44 89t-69 79.5t-69.5 58.5t-70.5 50h118zM286 67q72 0 114.5 50t42.5 135q-6 83 -47.5 128t-108.5 45
q-69 0 -111.5 -49.5t-42.5 -127.5q0 -80 41.5 -130.5t111.5 -50.5z" />
    <glyph glyph-name="product" unicode="&#x220f;" horiz-adv-x="667" 
d="M88 704h491v-844h-89v762h-313v-762h-89v844z" />
    <glyph glyph-name="summation" unicode="&#x2211;" horiz-adv-x="563" 
d="M503 704v-80h-339l226 -341l-227 -343h340v-80h-443v75l229 347l-229 347v75h443z" />
    <glyph glyph-name="minus" unicode="&#x2212;" 
d="M530 229h-447v82h447v-82z" />
    <glyph glyph-name="radical" unicode="&#x221a;" horiz-adv-x="718" 
d="M569 727h84l-252 -842h-87l-142 346h-117v77h179l122 -299z" />
    <glyph glyph-name="infinity" unicode="&#x221e;" horiz-adv-x="907" 
d="M666 479q90 0 145.5 -57.5t55.5 -140.5t-55.5 -140.5t-145.5 -57.5q-113 0 -213 129q-100 -129 -212 -129q-90 0 -145.5 57.5t-55.5 140.5t55.5 140.5t145.5 57.5q112 0 213 -130q101 130 212 130zM243 163q47 0 83 30t80 87q-44 58 -80 88.5t-83 30.5q-52 0 -85 -33.5
t-33 -84.5t33 -84.5t85 -33.5zM664 163q52 0 85 33.5t33 84.5t-33 84.5t-85 33.5q-47 0 -83 -30t-80 -88q43 -58 79.5 -88t83.5 -30z" />
    <glyph glyph-name="integral" unicode="&#x222b;" horiz-adv-x="522" 
d="M482 704v-77h-36q-84 0 -100 -97l-84 -521q-27 -167 -183 -167h-39v77h36q84 0 100 97l84 521q27 167 183 167h39z" />
    <glyph glyph-name="approxequal" unicode="&#x2248;" 
d="M465 445h75v-16q0 -65 -38 -102.5t-95 -37.5q-34 0 -64.5 13.5t-49 29.5t-41.5 29.5t-44 13.5q-27 0 -43 -18t-16 -49v-10h-75v16q0 65 38 102.5t95 37.5q34 0 64.5 -13.5t49 -29.5t41.5 -29.5t44 -13.5q27 0 43 18t16 49v10zM465 238h75v-16q0 -64 -38 -102t-95 -38
q-34 0 -64.5 13.5t-49 29.5t-41.5 29.5t-44 13.5q-27 0 -43 -18t-16 -49v-10h-75v16q0 65 38 102.5t95 37.5q34 0 64.5 -13.5t49 -29.5t41.5 -29.5t44 -13.5q27 0 43 18t16 49v10z" />
    <glyph glyph-name="notequal" unicode="&#x2260;" 
d="M375 512h79l-46 -103h122v-76h-155l-57 -129h212v-76h-246l-45 -103h-79l45 103h-122v76h156l57 129h-213v76h246z" />
    <glyph glyph-name="lessequal" unicode="&#x2264;" 
d="M539 528v-82l-359 -150l359 -164v-121h-465v75h390l-390 176v71z" />
    <glyph glyph-name="greaterequal" unicode="&#x2265;" 
d="M540 333v-71l-390 -176h390v-75h-465v121l359 164l-359 150v82z" />
    <glyph glyph-name="uni2460" unicode="&#x2460;" horiz-adv-x="944" 
d="M472 -6q145 0 244.5 99.5t99.5 250.5t-99.5 250.5t-244.5 99.5t-244.5 -99.5t-99.5 -250.5t99.5 -250.5t244.5 -99.5zM472 -80q-176 0 -298 121.5t-122 302.5t122 302.5t298 121.5t298 -121.5t122 -302.5t-122 -302.5t-298 -121.5zM528 556v-425h-76v343l-105 -64v75
l110 71h71z" />
    <glyph glyph-name="uni2461" unicode="&#x2461;" horiz-adv-x="944" 
d="M472 -6q145 0 244.5 99.5t99.5 250.5t-99.5 250.5t-244.5 99.5t-244.5 -99.5t-99.5 -250.5t99.5 -250.5t244.5 -99.5zM472 -80q-176 0 -298 121.5t-122 302.5t122 302.5t298 121.5t298 -121.5t122 -302.5t-122 -302.5t-298 -121.5zM422 196h204v-65h-306v61l165 152
q2 2 10.5 10t11.5 11t10 11t10 13t7.5 13t6 15.5t1.5 16.5q0 28 -21 45.5t-53 17.5t-53 -17t-26 -44h-72q5 55 47.5 91t107.5 36q64 0 105.5 -36.5t41.5 -90.5q0 -62 -80 -134z" />
    <glyph glyph-name="uni2462" unicode="&#x2462;" horiz-adv-x="944" 
d="M472 -6q145 0 244.5 99.5t99.5 250.5t-99.5 250.5t-244.5 99.5t-244.5 -99.5t-99.5 -250.5t99.5 -250.5t244.5 -99.5zM472 -80q-176 0 -298 121.5t-122 302.5t122 302.5t298 121.5t298 -121.5t122 -302.5t-122 -302.5t-298 -121.5zM316 442q7 56 51 88.5t105 32.5
q63 0 104 -32.5t41 -82.5q0 -67 -65 -94q31 -8 55.5 -35.5t24.5 -68.5q0 -54 -44.5 -90t-112.5 -36q-66 0 -112.5 34.5t-51.5 90.5h72q8 -28 32.5 -44t59.5 -16t57.5 18.5t22.5 46.5q0 30 -22 46t-60 16h-52v64h44q35 0 55 17t20 42q0 26 -20 42.5t-52 16.5t-52.5 -16
t-26.5 -40h-73z" />
    <glyph glyph-name="uni2463" unicode="&#x2463;" horiz-adv-x="944" 
d="M472 -6q145 0 244.5 99.5t99.5 250.5t-99.5 250.5t-244.5 99.5t-244.5 -99.5t-99.5 -250.5t99.5 -250.5t244.5 -99.5zM472 -80q-176 0 -298 121.5t-122 302.5t122 302.5t298 121.5t298 -121.5t122 -302.5t-122 -302.5t-298 -121.5zM633 285v-64h-60v-90h-72v90h-213v62
l189 274h96v-272h60zM364 285h137v195z" />
    <glyph glyph-name="uni2464" unicode="&#x2464;" horiz-adv-x="944" 
d="M472 -6q145 0 244.5 99.5t99.5 250.5t-99.5 250.5t-244.5 99.5t-244.5 -99.5t-99.5 -250.5t99.5 -250.5t244.5 -99.5zM472 -80q-176 0 -298 121.5t-122 302.5t122 302.5t298 121.5t298 -121.5t122 -302.5t-122 -302.5t-298 -121.5zM489 411q59 0 100.5 -37.5t41.5 -102.5
q0 -66 -46 -106.5t-112 -40.5q-65 0 -109.5 34t-51.5 85h75q7 -20 28 -37t57 -17q35 0 58.5 22.5t23.5 58.5t-24 57.5t-58 21.5q-55 0 -82 -43h-74l20 250h271v-65h-209l-10 -119q37 39 101 39z" />
    <glyph glyph-name="uni2465" unicode="&#x2465;" horiz-adv-x="944" 
d="M472 -6q145 0 244.5 99.5t99.5 250.5t-99.5 250.5t-244.5 99.5t-244.5 -99.5t-99.5 -250.5t99.5 -250.5t244.5 -99.5zM472 -80q-176 0 -298 121.5t-122 302.5t122 302.5t298 121.5t298 -121.5t122 -302.5t-122 -302.5t-298 -121.5zM487 410q59 0 101 -38t42 -100
q0 -63 -44.5 -105.5t-111.5 -42.5q-83 0 -130 57t-47 154q0 111 48.5 169.5t127.5 58.5q60 0 100.5 -32t47.5 -80h-74q-6 19 -26 33t-48 14q-95 0 -102 -142q39 54 116 54zM471 189q35 0 58.5 23t23.5 58t-24 57t-59 22t-60 -22.5t-25 -56.5t25 -57.5t61 -23.5z" />
    <glyph glyph-name="uni2466" unicode="&#x2466;" horiz-adv-x="944" 
d="M472 -6q145 0 244.5 99.5t99.5 250.5t-99.5 250.5t-244.5 99.5t-244.5 -99.5t-99.5 -250.5t99.5 -250.5t244.5 -99.5zM472 -80q-176 0 -298 121.5t-122 302.5t122 302.5t298 121.5t298 -121.5t122 -302.5t-122 -302.5t-298 -121.5zM323 557h298v-59l-168 -366h-82
l168 360h-216v65z" />
    <glyph glyph-name="uni2467" unicode="&#x2467;" horiz-adv-x="944" 
d="M472 -6q145 0 244.5 99.5t99.5 250.5t-99.5 250.5t-244.5 99.5t-244.5 -99.5t-99.5 -250.5t99.5 -250.5t244.5 -99.5zM472 -80q-176 0 -298 121.5t-122 302.5t122 302.5t298 121.5t298 -121.5t122 -302.5t-122 -302.5t-298 -121.5zM308 248q0 40 24.5 68t56.5 37
q-28 11 -48 34.5t-20 59.5q0 49 42 82.5t109 33.5t108.5 -33.5t41.5 -82.5q0 -36 -20 -59.5t-48 -34.5q32 -9 56.5 -37t24.5 -68q0 -53 -45.5 -88.5t-117.5 -35.5t-118 35.5t-46 88.5zM548 440q0 27 -21 44t-55 17t-55.5 -17t-21.5 -44t22 -44t55 -17q32 0 54 17t22 44z
M559 253q0 30 -24 49t-63 19t-63.5 -19t-24.5 -49q0 -29 24.5 -48t63.5 -19q38 0 62.5 19t24.5 48z" />
    <glyph glyph-name="uni2468" unicode="&#x2468;" horiz-adv-x="944" 
d="M472 -6q145 0 244.5 99.5t99.5 250.5t-99.5 250.5t-244.5 99.5t-244.5 -99.5t-99.5 -250.5t99.5 -250.5t244.5 -99.5zM472 -80q-176 0 -298 121.5t-122 302.5t122 302.5t298 121.5t298 -121.5t122 -302.5t-122 -302.5t-298 -121.5zM457 278q-59 0 -101 38t-42 100
q0 63 44.5 105.5t111.5 42.5q83 0 130 -57t47 -154q0 -111 -48.5 -169.5t-127.5 -58.5q-60 0 -100.5 32t-47.5 80h74q6 -19 26 -33t48 -14q95 0 102 142q-39 -54 -116 -54zM473 499q-35 0 -58.5 -23t-23.5 -58t24 -57t59 -22t60 22.5t25 56.5t-25 57.5t-61 23.5z" />
    <glyph glyph-name="uni24EA" unicode="&#x24ea;" horiz-adv-x="944" 
d="M472 -6q145 0 244.5 99.5t99.5 250.5t-99.5 250.5t-244.5 99.5t-244.5 -99.5t-99.5 -250.5t99.5 -250.5t244.5 -99.5zM472 -80q-176 0 -298 121.5t-122 302.5t122 302.5t298 121.5t298 -121.5t122 -302.5t-122 -302.5t-298 -121.5zM472 563q78 0 124.5 -60.5t46.5 -158.5
t-46.5 -159t-124.5 -61t-124.5 61t-46.5 159t46.5 158.5t124.5 60.5zM472 190q45 0 69.5 42.5t24.5 111.5q0 68 -24.5 110.5t-69.5 42.5t-69.5 -42.5t-24.5 -110.5q0 -69 24.5 -111.5t69.5 -42.5z" />
    <glyph glyph-name="uni24FF" unicode="&#x24ff;" horiz-adv-x="944" 
d="M472 -80q-176 0 -298 121.5t-122 302.5t122 302.5t298 121.5t298 -121.5t122 -302.5t-122 -302.5t-298 -121.5zM472 563q-78 0 -124.5 -60.5t-46.5 -158.5t46.5 -159t124.5 -61t124.5 61t46.5 159t-46.5 158.5t-124.5 60.5zM472 190q-45 0 -69.5 42.5t-24.5 111.5
q0 68 24.5 110.5t69.5 42.5t69.5 -42.5t24.5 -110.5q0 -69 -24.5 -111.5t-69.5 -42.5z" />
    <glyph glyph-name="lozenge" unicode="&#x25ca;" horiz-adv-x="567" 
d="M328 704l187 -352l-187 -352h-89l-187 352l187 352h89zM424 352l-141 267l-140 -267l140 -267z" />
    <glyph glyph-name="circle" unicode="&#x25cb;" horiz-adv-x="944" 
d="M472 -6q145 0 244.5 99.5t99.5 250.5t-99.5 250.5t-244.5 99.5t-244.5 -99.5t-99.5 -250.5t99.5 -250.5t244.5 -99.5zM472 -80q-176 0 -298 121.5t-122 302.5t122 302.5t298 121.5t298 -121.5t122 -302.5t-122 -302.5t-298 -121.5z" />
    <glyph glyph-name="blackcircle" unicode="&#x25cf;" horiz-adv-x="944" 
d="M472 -80q-176 0 -298 121.5t-122 302.5t122 302.5t298 121.5t298 -121.5t122 -302.5t-122 -302.5t-298 -121.5z" />
    <glyph glyph-name="uni2776" unicode="&#x2776;" horiz-adv-x="944" 
d="M472 -80q-176 0 -298 121.5t-122 302.5t122 302.5t298 121.5t298 -121.5t122 -302.5t-122 -302.5t-298 -121.5zM528 131v425h-71l-110 -71v-75l105 64v-343h76z" />
    <glyph glyph-name="uni2777" unicode="&#x2777;" horiz-adv-x="944" 
d="M472 -80q-176 0 -298 121.5t-122 302.5t122 302.5t298 121.5t298 -121.5t122 -302.5t-122 -302.5t-298 -121.5zM626 196h-204l117 106q80 72 80 134q0 54 -41.5 90.5t-105.5 36.5q-65 0 -107.5 -36t-47.5 -91h72q5 27 26 44t53 17t53 -17.5t21 -45.5q0 -9 -1.5 -16.5
t-6 -15.5t-7.5 -13t-10 -13t-10 -11t-11.5 -11t-10.5 -10l-165 -152v-61h306v65z" />
    <glyph glyph-name="uni2778" unicode="&#x2778;" horiz-adv-x="944" 
d="M472 -80q-176 0 -298 121.5t-122 302.5t122 302.5t298 121.5t298 -121.5t122 -302.5t-122 -302.5t-298 -121.5zM316 442h73q6 24 26.5 40t52.5 16t52 -16.5t20 -42.5q0 -25 -20 -42t-55 -17h-44v-64h52q38 0 60 -16t22 -46q0 -28 -22.5 -46.5t-57.5 -18.5t-59.5 16
t-32.5 44h-72q5 -56 51.5 -90.5t112.5 -34.5q68 0 112.5 36t44.5 90q0 41 -24.5 68.5t-55.5 35.5q65 27 65 94q0 50 -41 82.5t-104 32.5q-61 0 -105 -32.5t-51 -88.5z" />
    <glyph glyph-name="uni2779" unicode="&#x2779;" horiz-adv-x="944" 
d="M472 -80q-176 0 -298 121.5t-122 302.5t122 302.5t298 121.5t298 -121.5t122 -302.5t-122 -302.5t-298 -121.5zM633 221v64h-60v272h-96l-189 -274v-62h213v-90h72v90h60zM501 285h-137l137 195v-195z" />
    <glyph glyph-name="uni277A" unicode="&#x277a;" horiz-adv-x="944" 
d="M472 -80q-176 0 -298 121.5t-122 302.5t122 302.5t298 121.5t298 -121.5t122 -302.5t-122 -302.5t-298 -121.5zM489 411q-64 0 -101 -39l10 119h209v65h-271l-20 -250h74q27 43 82 43q34 0 58 -21.5t24 -57.5t-23.5 -58.5t-58.5 -22.5q-36 0 -57 17t-28 37h-75
q7 -51 51.5 -85t109.5 -34q66 0 112 40.5t46 106.5q0 65 -41.5 102.5t-100.5 37.5z" />
    <glyph glyph-name="uni277B" unicode="&#x277b;" horiz-adv-x="944" 
d="M472 -80q-176 0 -298 121.5t-122 302.5t122 302.5t298 121.5t298 -121.5t122 -302.5t-122 -302.5t-298 -121.5zM487 410q-77 0 -116 -54q7 142 102 142q28 0 48 -14t26 -33h74q-7 48 -47.5 80t-100.5 32q-79 0 -127.5 -58.5t-48.5 -169.5q0 -97 47 -154t130 -57
q67 0 111.5 42.5t44.5 105.5q0 62 -42 100t-101 38zM471 189q-36 0 -61 23.5t-25 57.5t25 56.5t60 22.5t59 -22t24 -57t-23.5 -58t-58.5 -23z" />
    <glyph glyph-name="uni277C" unicode="&#x277c;" horiz-adv-x="944" 
d="M472 -80q-176 0 -298 121.5t-122 302.5t122 302.5t298 121.5t298 -121.5t122 -302.5t-122 -302.5t-298 -121.5zM621 557h-298v-65h216l-168 -360h82l168 366v59z" />
    <glyph glyph-name="uni277D" unicode="&#x277d;" horiz-adv-x="944" 
d="M472 -80q-176 0 -298 121.5t-122 302.5t122 302.5t298 121.5t298 -121.5t122 -302.5t-122 -302.5t-298 -121.5zM308 248q0 -53 46 -88.5t118 -35.5t117.5 35.5t45.5 88.5q0 40 -24.5 68t-56.5 37q28 11 48 34.5t20 59.5q0 49 -41.5 82.5t-108.5 33.5t-109 -33.5
t-42 -82.5q0 -36 20 -59.5t48 -34.5q-32 -9 -56.5 -37t-24.5 -68zM548 440q0 -27 -22 -44t-54 -17q-33 0 -55 17t-22 44t21.5 44t55.5 17t55 -17t21 -44zM559 253q0 -29 -24.5 -48t-62.5 -19q-39 0 -63.5 19t-24.5 48q0 30 24.5 49t63.5 19t63 -19t24 -49z" />
    <glyph glyph-name="uni277E" unicode="&#x277e;" horiz-adv-x="944" 
d="M472 -80q-176 0 -298 121.5t-122 302.5t122 302.5t298 121.5t298 -121.5t122 -302.5t-122 -302.5t-298 -121.5zM457 278q77 0 116 54q-7 -142 -102 -142q-28 0 -48 14t-26 33h-74q7 -48 47.5 -80t100.5 -32q79 0 127.5 58.5t48.5 169.5q0 97 -47 154t-130 57
q-67 0 -111.5 -42.5t-44.5 -105.5q0 -62 42 -100t101 -38zM473 499q36 0 61 -23.5t25 -57.5t-25 -56.5t-60 -22.5t-59 22t-24 57t23.5 58t58.5 23z" />
    <glyph glyph-name="numbersign.case" 
d="M568 500v-73h-109v-164h109v-73h-109v-116h-75v116h-154v-116h-75v116h-109v73h109v164h-109v73h109v120h75v-120h154v120h75v-120h109zM230 427v-164h154v164h-154z" />
    <glyph glyph-name="parenleft.case" horiz-adv-x="345" 
d="M315 794q-146 -203 -146 -443q0 -239 146 -442h-87q-62 78 -105 193t-43 249t43 249.5t105 193.5h87z" />
    <glyph glyph-name="parenleft.dnom" horiz-adv-x="231" 
d="M211 478q-88 -117 -88 -265t88 -266h-70q-92 112 -92 266q0 80 26.5 149t65.5 116h70z" />
    <glyph glyph-name="parenleft.numr" horiz-adv-x="231" 
d="M211 756q-88 -117 -88 -265t88 -266h-70q-92 112 -92 266q0 80 26.5 149t65.5 116h70z" />
    <glyph glyph-name="parenright.case" horiz-adv-x="345" 
d="M30 794h87q62 -78 105 -193.5t43 -249.5t-43 -249t-105 -193h-87q146 203 146 442q0 240 -146 443z" />
    <glyph glyph-name="parenright.dnom" horiz-adv-x="231" 
d="M20 478h71q91 -111 91 -265q0 -153 -91 -266h-71q89 120 89 266q0 147 -89 265z" />
    <glyph glyph-name="parenright.numr" horiz-adv-x="231" 
d="M20 756h71q91 -111 91 -265q0 -153 -91 -266h-71q89 120 89 266q0 147 -89 265z" />
    <glyph glyph-name="asterisk.case" 
d="M345 604l-1 -220l208 68l23 -70l-207 -68l129 -177l-60 -45l-130 178l-129 -178l-60 45l128 177l-207 68l23 70l208 -68l-1 220h76z" />
    <glyph glyph-name="plus.case" 
d="M265 595h83v-201h194v-82h-194v-202h-83v202h-193v82h193v201z" />
    <glyph glyph-name="plus.dnom" horiz-adv-x="392" 
d="M163 363h65v-119h114v-62h-114v-119h-65v119h-114v62h114v119z" />
    <glyph glyph-name="plus.numr" horiz-adv-x="392" 
d="M163 641h65v-119h114v-62h-114v-119h-65v119h-114v62h114v119z" />
    <glyph glyph-name="hyphen.case" horiz-adv-x="421" 
d="M55 312v82h311v-82h-311z" />
    <glyph glyph-name="slash.case" horiz-adv-x="366" 
d="M271 794h85l-261 -885h-85z" />
    <glyph glyph-name="zero.dnom" horiz-adv-x="418" 
d="M209 432q78 0 124.5 -60.5t46.5 -158.5t-46.5 -159t-124.5 -61t-124.5 61t-46.5 159t46.5 158.5t124.5 60.5zM209 59q45 0 69.5 42.5t24.5 111.5q0 68 -24.5 110.5t-69.5 42.5t-69.5 -42.5t-24.5 -110.5q0 -69 24.5 -111.5t69.5 -42.5z" />
    <glyph glyph-name="zero.numr" horiz-adv-x="418" 
d="M209 711q78 0 124.5 -60.5t46.5 -158.5t-46.5 -159t-124.5 -61t-124.5 61t-46.5 159t46.5 158.5t124.5 60.5zM209 338q45 0 69.5 42.5t24.5 111.5q0 68 -24.5 110.5t-69.5 42.5t-69.5 -42.5t-24.5 -110.5q0 -69 24.5 -111.5t69.5 -42.5z" />
    <glyph glyph-name="zero.tf" 
d="M307 716q123 0 193.5 -101t70.5 -263q0 -161 -70.5 -262t-193.5 -101t-193.5 100.5t-70.5 262.5t70.5 263t193.5 101zM307 71q82 0 127.5 79t45.5 202q0 124 -45 203t-128 79t-128 -79t-45 -203q0 -123 45.5 -202t127.5 -79z" />
    <glyph glyph-name="one.dnom" horiz-adv-x="292" 
d="M215 425v-425h-76v343l-105 -64v75l110 71h71z" />
    <glyph glyph-name="one.numr" horiz-adv-x="292" 
d="M215 704v-425h-76v343l-105 -64v75l110 71h71z" />
    <glyph glyph-name="one.tf" 
d="M411 705v-705h-90v601l-193 -111v93l202 122h81z" />
    <glyph glyph-name="two.dnom" horiz-adv-x="387" 
d="M146 65h204v-65h-306v61l165 152q2 2 10.5 10t11.5 11t10 11t10 13t7.5 13t6 15.5t1.5 16.5q0 28 -21 45.5t-53 17.5t-53 -17t-26 -44h-72q5 55 47.5 91t107.5 36q64 0 105.5 -36.5t41.5 -90.5q0 -62 -80 -134z" />
    <glyph glyph-name="two.numr" horiz-adv-x="387" 
d="M146 344h204v-65h-306v61l165 152q2 2 10.5 10t11.5 11t10 11t10 13t7.5 13t6 15.5t1.5 16.5q0 28 -21 45.5t-53 17.5t-53 -17t-26 -44h-72q5 55 47.5 91t107.5 36q64 0 105.5 -36.5t41.5 -90.5q0 -62 -80 -134z" />
    <glyph glyph-name="two.tf" 
d="M444 509q0 54 -38 89.5t-98 35.5q-62 0 -101.5 -32.5t-51.5 -87.5h-88q12 91 77.5 146.5t165.5 55.5q101 0 163 -59.5t62 -147.5q0 -39 -11.5 -74t-36 -67t-42 -50t-50.5 -49l-203 -187h360v-82h-483v77l266 250q59 55 84 92.5t25 89.5z" />
    <glyph glyph-name="three.dnom" horiz-adv-x="393" 
d="M41 311q7 56 51 88.5t105 32.5q63 0 104 -32.5t41 -82.5q0 -67 -65 -94q31 -8 55.5 -35.5t24.5 -68.5q0 -54 -44.5 -90t-112.5 -36q-66 0 -112.5 34.5t-51.5 90.5h72q8 -28 32.5 -44t59.5 -16t57.5 18.5t22.5 46.5q0 30 -22 46t-60 16h-52v64h44q35 0 55 17t20 42
q0 26 -20 42.5t-52 16.5t-52.5 -16t-26.5 -40h-73z" />
    <glyph glyph-name="three.numr" horiz-adv-x="393" 
d="M41 590q7 56 51 88.5t105 32.5q63 0 104 -32.5t41 -82.5q0 -67 -65 -94q31 -8 55.5 -35.5t24.5 -68.5q0 -54 -44.5 -90t-112.5 -36q-66 0 -112.5 34.5t-51.5 90.5h72q8 -28 32.5 -44t59.5 -16t57.5 18.5t22.5 46.5q0 30 -22 46t-60 16h-52v64h44q35 0 55 17t20 42
q0 26 -20 42.5t-52 16.5t-52.5 -16t-26.5 -40h-73z" />
    <glyph glyph-name="three.tf" 
d="M65 525q14 92 81 141.5t159 49.5q103 0 165 -55.5t62 -139.5q0 -59 -32 -97t-73 -54q46 -12 88 -54t42 -117q0 -89 -69 -149.5t-174 -60.5q-103 0 -174 52t-83 145h90q11 -52 56 -83.5t111 -31.5t109 36.5t43 93.5q0 60 -44.5 91t-113.5 31h-87v81h81q64 0 101.5 33
t37.5 83q0 51 -36.5 82.5t-99.5 31.5q-60 0 -99.5 -29t-51.5 -80h-89z" />
    <glyph glyph-name="four.dnom" horiz-adv-x="407" 
d="M376 154v-64h-60v-90h-72v90h-213v62l189 274h96v-272h60zM107 154h137v195z" />
    <glyph glyph-name="four.numr" horiz-adv-x="407" 
d="M376 433v-64h-60v-90h-72v90h-213v62l189 274h96v-272h60zM107 433h137v195z" />
    <glyph glyph-name="four.tf" 
d="M477 0h-89v165h-353v72l336 468h106v-461h103v-79h-103v-165zM134 244h254v354z" />
    <glyph glyph-name="five.dnom" horiz-adv-x="400" 
d="M221 280q59 0 100.5 -37.5t41.5 -102.5q0 -66 -46 -106.5t-112 -40.5q-65 0 -109.5 34t-51.5 85h75q7 -20 28 -37t57 -17q35 0 58.5 22.5t23.5 58.5t-24 57.5t-58 21.5q-55 0 -82 -43h-74l20 250h271v-65h-209l-10 -119q37 39 101 39z" />
    <glyph glyph-name="five.numr" horiz-adv-x="400" 
d="M221 559q59 0 100.5 -37.5t41.5 -102.5q0 -66 -46 -106.5t-112 -40.5q-65 0 -109.5 34t-51.5 85h75q7 -20 28 -37t57 -17q35 0 58.5 22.5t23.5 58.5t-24 57.5t-58 21.5q-55 0 -82 -43h-74l20 250h271v-65h-209l-10 -119q37 39 101 39z" />
    <glyph glyph-name="five.tf" 
d="M314 71q70 0 112.5 43.5t42.5 114.5q0 68 -44.5 110t-107.5 42q-99 0 -155 -79h-90l34 403h415v-82h-339l-20 -230q63 69 169 69q93 0 161 -64t68 -168q0 -108 -70 -174.5t-175 -66.5q-103 0 -170.5 55.5t-78.5 135.5h91q10 -42 50.5 -75.5t106.5 -33.5z" />
    <glyph glyph-name="six.dnom" horiz-adv-x="405" 
d="M228 279q59 0 101 -38t42 -100q0 -63 -44.5 -105.5t-111.5 -42.5q-83 0 -130 57t-47 154q0 111 48.5 169.5t127.5 58.5q60 0 100.5 -32t47.5 -80h-74q-6 19 -26 33t-48 14q-95 0 -102 -142q39 54 116 54zM212 58q35 0 58.5 23t23.5 58t-24 57t-59 22t-60 -22.5t-25 -56.5
t25 -57.5t61 -23.5z" />
    <glyph glyph-name="six.numr" horiz-adv-x="405" 
d="M228 558q59 0 101 -38t42 -100q0 -63 -44.5 -105.5t-111.5 -42.5q-83 0 -130 57t-47 154q0 111 48.5 169.5t127.5 58.5q60 0 100.5 -32t47.5 -80h-74q-6 19 -26 33t-48 14q-95 0 -102 -142q39 54 116 54zM212 337q35 0 58.5 23t23.5 58t-24 57t-59 22t-60 -22.5
t-25 -56.5t25 -57.5t61 -23.5z" />
    <glyph glyph-name="six.tf" 
d="M337 462q94 0 161.5 -64.5t67.5 -168.5q0 -106 -69 -173t-172 -67q-132 0 -202 96t-70 261q0 183 76 276.5t198 93.5q92 0 153.5 -51t73.5 -123h-90q-11 38 -45.5 65t-91.5 27q-83 0 -133.5 -68t-52.5 -213q28 53 81 81t115 28zM322 71q65 0 109 43.5t44 112.5
q0 68 -44 111t-109 43t-110 -43t-45 -111q0 -69 45 -112.5t110 -43.5z" />
    <glyph glyph-name="seven.dnom" horiz-adv-x="354" 
d="M25 425h298v-59l-168 -366h-82l168 360h-216v65z" />
    <glyph glyph-name="seven.numr" horiz-adv-x="354" 
d="M25 704h298v-59l-168 -366h-82l168 360h-216v65z" />
    <glyph glyph-name="seven.tf" 
d="M539 628l-290 -628h-101l291 623h-374v82h474v-77z" />
    <glyph glyph-name="eight.dnom" horiz-adv-x="403" 
d="M38 117q0 40 24.5 68t56.5 37q-28 11 -48 34.5t-20 59.5q0 49 42 82.5t109 33.5t108.5 -33.5t41.5 -82.5q0 -36 -20 -59.5t-48 -34.5q32 -9 56.5 -37t24.5 -68q0 -53 -45.5 -88.5t-117.5 -35.5t-118 35.5t-46 88.5zM278 309q0 27 -21 44t-55 17t-55.5 -17t-21.5 -44
t22 -44t55 -17q32 0 54 17t22 44zM289 122q0 30 -24 49t-63 19t-63.5 -19t-24.5 -49q0 -29 24.5 -48t63.5 -19q38 0 62.5 19t24.5 48z" />
    <glyph glyph-name="eight.numr" horiz-adv-x="403" 
d="M38 396q0 40 24.5 68t56.5 37q-28 11 -48 34.5t-20 59.5q0 49 42 82.5t109 33.5t108.5 -33.5t41.5 -82.5q0 -36 -20 -59.5t-48 -34.5q32 -9 56.5 -37t24.5 -68q0 -53 -45.5 -88.5t-117.5 -35.5t-118 35.5t-46 88.5zM278 588q0 27 -21 44t-55 17t-55.5 -17t-21.5 -44
t22 -44t55 -17q32 0 54 17t22 44zM289 401q0 30 -24 49t-63 19t-63.5 -19t-24.5 -49q0 -29 24.5 -48t63.5 -19q38 0 62.5 19t24.5 48z" />
    <glyph glyph-name="eight.tf" 
d="M54 192q0 71 42 117t90 59q-44 18 -77 56t-33 102q0 82 64 136t167 54t167 -54t64 -136q0 -64 -33.5 -102.5t-76.5 -55.5q47 -13 89.5 -58.5t42.5 -117.5q0 -91 -71 -147t-182 -56q-112 0 -182.5 56t-70.5 147zM448 519q0 53 -39 85t-102 32t-102 -32t-39 -85
q0 -52 40.5 -84.5t100.5 -32.5t100.5 32.5t40.5 84.5zM469 196q0 59 -46 95t-116 36t-116 -36t-46 -95q0 -57 44.5 -92t117.5 -35t117.5 35.5t44.5 91.5z" />
    <glyph glyph-name="nine.dnom" horiz-adv-x="405" 
d="M177 146q-59 0 -101 38t-42 100q0 63 44.5 105.5t111.5 42.5q83 0 130 -57t47 -154q0 -111 -48.5 -169.5t-127.5 -58.5q-60 0 -100.5 32t-47.5 80h74q6 -19 26 -33t48 -14q95 0 102 142q-39 -54 -116 -54zM193 367q-35 0 -58.5 -23t-23.5 -58t24 -57t59 -22t60 22.5
t25 56.5t-25 57.5t-61 23.5z" />
    <glyph glyph-name="nine.numr" horiz-adv-x="405" 
d="M177 425q-59 0 -101 38t-42 100q0 63 44.5 105.5t111.5 42.5q83 0 130 -57t47 -154q0 -111 -48.5 -169.5t-127.5 -58.5q-60 0 -100.5 32t-47.5 80h74q6 -19 26 -33t48 -14q95 0 102 142q-39 -54 -116 -54zM193 646q-35 0 -58.5 -23t-23.5 -58t24 -57t59 -22t60 22.5
t25 56.5t-25 57.5t-61 23.5z" />
    <glyph glyph-name="nine.tf" 
d="M277 243q-93 0 -161 64.5t-68 168.5q0 106 69 173t172 67q132 0 202 -96t70 -261q0 -183 -76 -276.5t-198 -93.5q-92 0 -153.5 51.5t-73.5 122.5h91q11 -38 45 -65t91 -27q83 0 133 67.5t53 212.5q-29 -53 -82 -80.5t-114 -27.5zM292 634q-65 0 -109 -43.5t-44 -112.5
q0 -68 44 -111t109 -43q66 0 111 43t45 111q0 69 -45 112.5t-111 43.5z" />
    <glyph glyph-name="colon.case" horiz-adv-x="264" 
d="M132 224q26 0 44 -17.5t18 -43.5t-18 -43.5t-44 -17.5t-44 17.5t-18 43.5t18 43.5t44 17.5zM132 602q26 0 44 -17.5t18 -43.5t-18 -43.5t-44 -17.5t-44 17.5t-18 43.5t18 43.5t44 17.5z" />
    <glyph glyph-name="less.case" 
d="M540 102l-465 215v71l465 215v-86l-357 -165l357 -164v-86z" />
    <glyph glyph-name="equal.case" 
d="M83 415v79h447v-79h-447zM83 211v79h447v-79h-447z" />
    <glyph glyph-name="equal.dnom" horiz-adv-x="392" 
d="M52 250v62h288v-62h-288zM52 114v63h288v-63h-288z" />
    <glyph glyph-name="equal.numr" horiz-adv-x="392" 
d="M52 528v62h288v-62h-288zM52 392v63h288v-63h-288z" />
    <glyph glyph-name="greater.case" 
d="M75 102v86l357 164l-357 165v86l465 -215v-71z" />
    <glyph glyph-name="at.case" horiz-adv-x="907" 
d="M473 764q170 0 278.5 -109.5t108.5 -276.5q0 -122 -47.5 -177t-119.5 -55q-86 0 -118 70q-46 -73 -140 -73q-76 0 -129.5 56.5t-53.5 153.5q0 92 54 149.5t132 57.5q84 0 125 -63v53h79v-265q0 -30 16.5 -49t43.5 -19q77 0 77 161q0 139 -83.5 226t-223.5 87
q-142 0 -237.5 -92t-95.5 -253q0 -158 98.5 -245.5t253.5 -87.5q94 0 163 28v-74q-64 -27 -164 -27q-191 0 -311.5 109t-120.5 297q0 191 119 304.5t296 113.5zM448 216q50 0 82.5 35t32.5 97v8q0 59 -32 95t-83 36q-49 0 -80.5 -36t-31.5 -98q0 -63 31 -100t81 -37z" />
    <glyph glyph-name="bracketleft.case" horiz-adv-x="366" 
d="M336 718h-145v-733h145v-76h-231v885h231v-76z" />
    <glyph glyph-name="backslash.case" horiz-adv-x="366" 
d="M95 794l261 -885h-85l-261 885h85z" />
    <glyph glyph-name="bracketright.case" horiz-adv-x="366" 
d="M30 -91v76h145v733h-145v76h231v-885h-231z" />
    <glyph glyph-name="a.salt" horiz-adv-x="595" 
d="M272 -11q-93 0 -160 69t-67 194q0 126 68 194.5t162 68.5q59 0 101 -22.5t61 -55.5v67h83v-504h-83v72q-21 -36 -63 -59.5t-102 -23.5zM283 437q-67 0 -108.5 -51t-41.5 -134t41.5 -134t108.5 -51q70 0 112 49.5t42 133.5v4q0 84 -42 133.5t-112 49.5z" />
    <glyph glyph-name="braceleft.case" horiz-adv-x="374" 
d="M223 479q0 -59 -17.5 -88.5t-58.5 -40.5q41 -11 58.5 -41t17.5 -89v-128q0 -60 20.5 -83.5t68.5 -23.5h32v-76h-37q-170 0 -170 174v125q0 53 -17 78.5t-60 25.5h-35v75h35q43 0 60 25.5t17 78.5v129q0 174 170 174h37v-76h-32q-48 0 -68.5 -23.5t-20.5 -83.5v-132z" />
    <glyph glyph-name="bar.case" horiz-adv-x="270" 
d="M95 794h80v-885h-80v885z" />
    <glyph glyph-name="braceright.case" horiz-adv-x="374" 
d="M151 479v132q0 60 -20.5 83.5t-68.5 23.5h-32v76h37q170 0 170 -174v-129q0 -53 17 -78.5t60 -25.5h35v-75h-35q-43 0 -60 -25.5t-17 -78.5v-125q0 -174 -170 -174h-37v76h32q48 0 68.5 23.5t20.5 83.5v128q0 59 17.5 89t58.5 41q-41 11 -58.5 40.5t-17.5 88.5z" />
    <glyph glyph-name="asciitilde.case" 
d="M476 436h78v-30q0 -68 -39 -107.5t-99 -39.5q-36 0 -69.5 16.5t-53.5 36t-45.5 36t-47.5 16.5q-28 0 -45 -19.5t-17 -52.5v-24h-78v30q0 68 39 107.5t99 39.5q36 0 69.5 -16.5t53.5 -36t45.5 -36t47.5 -16.5q28 0 45 19.5t17 52.5v24z" />
    <glyph glyph-name="brokenbar.case" horiz-adv-x="270" 
d="M175 276v-367h-80v367h80zM95 427v367h80v-367h-80z" />
    <glyph glyph-name="copyright.case" horiz-adv-x="882" 
d="M441 28q134 0 222.5 91.5t88.5 232.5t-88.5 232.5t-222.5 91.5t-222.5 -91.5t-88.5 -232.5t88.5 -232.5t222.5 -91.5zM441 -47q-166 0 -277.5 113.5t-111.5 285.5t111.5 285.5t277.5 113.5t277.5 -113.5t111.5 -285.5t-111.5 -285.5t-277.5 -113.5zM438 210q81 0 100 72
h79q-6 -60 -56 -102.5t-123 -42.5q-87 0 -141.5 60.5t-54.5 154.5q0 95 54 156.5t142 61.5q77 0 124.5 -43.5t54.5 -100.5h-79q-22 70 -100 70q-52 0 -83.5 -38.5t-31.5 -105.5t31.5 -104.5t83.5 -37.5z" />
    <glyph glyph-name="logicalnot.case" 
d="M80 470h447v-266h-83v184h-364v82z" />
    <glyph glyph-name="registered.case" horiz-adv-x="884" 
d="M442 -48q-166 0 -278 114t-112 286t112 286t278 114t278 -114t112 -286t-112 -286t-278 -114zM442 28q134 0 222.5 91.5t88.5 232.5t-88.5 232.5t-222.5 91.5t-222.5 -91.5t-88.5 -232.5t88.5 -232.5t222.5 -91.5zM595 420q0 -75 -67 -114l93 -150h-87l-82 131h-75v-131
h-77v394h156q63 0 101 -36.5t38 -93.5zM447 483h-70v-130h70q31 0 50 18t19 48t-18.5 47t-50.5 17z" />
    <glyph glyph-name="plusminus.case" 
d="M532 343h-185v-173h183v-76h-445v76h182v173h-185v76h185v184h80v-184h185v-76z" />
    <glyph glyph-name="periodcentered.case" horiz-adv-x="264" 
d="M132 413q26 0 44 -17.5t18 -43.5t-18 -43.5t-44 -17.5t-44 17.5t-18 43.5t18 43.5t44 17.5z" />
    <glyph glyph-name="multiply.case" 
d="M528 186l-55 -54l-166 166l-166 -166l-55 54l166 166l-165 166l54 55l166 -166l166 166l54 -55l-166 -166z" />
    <glyph glyph-name="agrave.salt" horiz-adv-x="595" 
d="M272 -11q-93 0 -160 69t-67 194q0 126 68 194.5t162 68.5q59 0 101 -22.5t61 -55.5v67h83v-504h-83v72q-21 -36 -63 -59.5t-102 -23.5zM283 437q-67 0 -108.5 -51t-41.5 -134t41.5 -134t108.5 -51q70 0 112 49.5t42 133.5v4q0 84 -42 133.5t-112 49.5zM142 735h93
l95 -154h-87z" />
    <glyph glyph-name="aacute.salt" horiz-adv-x="595" 
d="M272 -11q-93 0 -160 69t-67 194q0 126 68 194.5t162 68.5q59 0 101 -22.5t61 -55.5v67h83v-504h-83v72q-21 -36 -63 -59.5t-102 -23.5zM283 437q-67 0 -108.5 -51t-41.5 -134t41.5 -134t108.5 -51q70 0 112 49.5t42 133.5v4q0 84 -42 133.5t-112 49.5zM436 735l-101 -154
h-87l95 154h93z" />
    <glyph glyph-name="acircumflex.salt" horiz-adv-x="595" 
d="M272 -11q-93 0 -160 69t-67 194q0 126 68 194.5t162 68.5q59 0 101 -22.5t61 -55.5v67h83v-504h-83v72q-21 -36 -63 -59.5t-102 -23.5zM283 437q-67 0 -108.5 -51t-41.5 -134t41.5 -134t108.5 -51q70 0 112 49.5t42 133.5v4q0 84 -42 133.5t-112 49.5zM211 581h-91
l127 154h84l128 -154h-91l-79 91z" />
    </font>
</defs>
</svg>
