<?xml version="1.0" standalone="no"?>
<!DOCTYPE svg PUBLIC "-//W3C//DTD SVG 1.1//EN" "http://www.w3.org/Graphics/SVG/1.1/DTD/svg11.dtd" >
<svg xmlns="http://www.w3.org/2000/svg" xmlns:xlink="http://www.w3.org/1999/xlink" version="1.1">
<metadata>
Created by FontForge 20170731 at Thu Feb  9 17:42:49 2017
 By Aleksey,,,
</metadata>
<defs>
<font id="Navigo-Bold" horiz-adv-x="603" >
  <font-face 
    font-family="Navigo"
    font-weight="700"
    font-stretch="normal"
    units-per-em="1000"
    panose-1="2 7 5 3 7 7 6 4 3 3"
    ascent="750"
    descent="-250"
    x-height="505"
    cap-height="750"
    bbox="-135 -260 1073 1149"
    underline-thickness="50"
    underline-position="-225"
    unicode-range="U+0020-2013"
  />
<missing-glyph horiz-adv-x="607" 
 />
    <glyph glyph-name=".notdef" horiz-adv-x="607" 
 />
    <glyph glyph-name=".null" horiz-adv-x="0" 
 />
    <glyph glyph-name="nonmarkingreturn" horiz-adv-x="333" 
 />
    <glyph glyph-name="space" unicode=" " horiz-adv-x="232" 
 />
    <glyph glyph-name="exclam" unicode="!" horiz-adv-x="312" 
d="M229 241h-146l-10 509h166zM237 0h-161v161h161v-161z" />
    <glyph glyph-name="comma" unicode="," horiz-adv-x="279" 
d="M159 -140h-100v301h161v-151z" />
    <glyph glyph-name="hyphen" unicode="-" horiz-adv-x="403" 
d="M344 247h-285v123h285v-123z" />
    <glyph glyph-name="period" unicode="." horiz-adv-x="279" 
d="M220 0h-161v161h161v-161z" />
    <glyph glyph-name="zero" unicode="0" horiz-adv-x="672" 
d="M336 -15q-130 0 -206 79.5t-76 199.5v222q0 120 76.5 199.5t205.5 79.5q131 0 206.5 -79t75.5 -200v-222q0 -119 -77 -199t-205 -80zM336 126q56 0 89 39.5t33 98.5v222q0 60 -32 99t-90 39q-56 0 -88.5 -39.5t-32.5 -98.5v-222q0 -60 31.5 -99t89.5 -39z" />
    <glyph glyph-name="one" unicode="1" horiz-adv-x="426" 
d="M341 0h-166v577l-44 -37h-116v75l190 135h136v-750z" />
    <glyph glyph-name="two" unicode="2" horiz-adv-x="587" 
d="M542 151v-151h-492v136l220 224q92 92 92 177q0 41 -24 64t-61 23q-27 0 -47 -12t-30.5 -29.5t-16 -32t-6.5 -26.5h-131v75q4 22 19 47.5t41.5 53.5t74.5 46.5t107 18.5q105 0 172 -56.5t67 -150.5q0 -79 -31.5 -136t-112.5 -142l-120 -129h279z" />
    <glyph glyph-name="three" unicode="3" horiz-adv-x="616" 
d="M304 -13q-59 0 -109.5 19t-81 47t-48.5 56t-23 52v75h131q36 -107 129 -107q49 0 77 27.5t28 70.5q0 93 -117 93h-82v126h70q49 0 75.5 25.5t26.5 66.5q0 39 -25 62.5t-65 23.5q-27 0 -48.5 -11t-32.5 -28t-17 -31t-7 -25h-128v75q5 22 20 47t42 52t74 44.5t105 17.5
q110 0 179 -55.5t69 -146.5q0 -58 -29.5 -103t-81.5 -65q64 -15 101 -61.5t37 -114.5q0 -103 -73 -167q-74 -65 -196 -65z" />
    <glyph glyph-name="four" unicode="4" horiz-adv-x="650" 
d="M615 279v-129h-96v-160h-156v160h-343v117l353 483h146v-471h96zM186 279h177v247z" />
    <glyph glyph-name="five" unicode="5" horiz-adv-x="590" 
d="M281 -13q-56 0 -103 17.5t-76 44.5t-46.5 54.5t-21.5 52.5v75h131q2 -12 7.5 -26.5t17 -33t35.5 -30.5t55 -12q50 0 79.5 35t29.5 83q0 51 -30.5 84t-82.5 33q-30 0 -53.5 -8t-32.5 -16l-9 -8l-110 42l37 376h399v-141h-269l-15 -128q2 0 15 4t31.5 7t36.5 3
q111 0 180 -66.5t69 -181.5q0 -116 -74.5 -188t-199.5 -72z" />
    <glyph glyph-name="six" unicode="6" horiz-adv-x="619" 
d="M316 -13q-128 0 -202.5 74t-74.5 183q0 90 38 167t137 199l123 150h137v-68l-75 -89q-24 -28 -61.5 -70.5t-41.5 -47.5q24 10 46 10q117 -4 184.5 -72t67.5 -175q0 -112 -76 -186.5t-202 -74.5zM317 128q53 0 84.5 33.5t31.5 83.5q0 51 -31 84.5t-86 33.5
q-54 0 -85 -33.5t-31 -84.5t31 -84t86 -33z" />
    <glyph glyph-name="seven" unicode="7" horiz-adv-x="513" 
d="M240 -10h-141v75q99 253 221 539h-295v146h464v-136q-93 -217 -249 -624z" />
    <glyph glyph-name="eight" unicode="8" horiz-adv-x="639" 
d="M319 -15q-127 0 -201.5 67t-74.5 166q0 56 28.5 107t84.5 77q-85 56 -85 158q0 88 66.5 147t181.5 59q114 0 180.5 -59.5t66.5 -146.5q0 -103 -84 -158q61 -27 88 -80q26 -54 26 -104q0 -100 -74.5 -166.5t-202.5 -66.5zM319 460q42 0 65.5 25.5t23.5 64.5
q0 36 -23.5 60.5t-65.5 24.5t-65.5 -24.5t-23.5 -60.5q0 -39 23.5 -64.5t65.5 -25.5zM319 121q52 0 80 29t28 74t-28.5 75t-79.5 30q-50 0 -78.5 -30t-28.5 -75q0 -44 28.5 -73.5t78.5 -29.5z" />
    <glyph glyph-name="nine" unicode="9" horiz-adv-x="618" 
d="M284 -10h-138v68q5 6 49 57.5t55 66.5q59 68 69 82q-16 -7 -35 -7q-124 5 -190 74q-69 71 -69 177q0 110 75.5 183.5t201.5 73.5q128 0 202.5 -74t74.5 -183q0 -88 -34 -160q-36 -76 -109 -170q-8 -12 -38.5 -49t-66.5 -81t-47 -58zM302 389q54 0 85 33t31 84
q0 52 -31 85t-86 33q-53 0 -84.5 -33.5t-31.5 -83.5q0 -51 31 -84.5t86 -33.5z" />
    <glyph glyph-name="colon" unicode=":" horiz-adv-x="279" 
d="M220 344h-161v161h161v-161zM220 0h-161v161h161v-161z" />
    <glyph glyph-name="semicolon" unicode=";" horiz-adv-x="279" 
d="M220 344h-161v161h161v-161zM159 -161h-100v322h161v-151z" />
    <glyph glyph-name="question" unicode="?" horiz-adv-x="537" 
d="M332 241h-154q-9 27 -9 45q0 30 14.5 56.5t28 39.5t41.5 35q29 22 42 34t27.5 38t14.5 55q0 35 -22.5 57.5t-59.5 22.5q-48 0 -70 -35t-22 -65h-131v75q4 22 18.5 47.5t40.5 53.5t72 46.5t104 18.5q103 0 169.5 -56t66.5 -148q0 -104 -89 -177q-8 -7 -26 -20.5t-26 -20.5
t-18.5 -18.5t-15 -22.5t-4.5 -24q0 -16 8 -37zM338 0h-161v161h161v-161z" />
    <glyph glyph-name="A" unicode="A" horiz-adv-x="706" 
d="M203 159l-57 -159h-133v70l255 680h169l254 -670v-80h-144l-58 159h-286zM249 295h196l-98 276z" />
    <glyph glyph-name="B" unicode="B" horiz-adv-x="687" 
d="M385 0h-303v750h299q108 0 172.5 -55t64.5 -146q0 -54 -27 -96t-73 -60q60 -19 94 -64t34 -105q0 -103 -70 -163.5t-191 -60.5zM241 618v-170h114q47 0 74 22.5t27 61.5t-26 62.5t-71 23.5h-118zM241 322v-190h127q54 0 84.5 28t30.5 70q0 41 -29.5 66.5t-84.5 25.5h-128
z" />
    <glyph glyph-name="C" unicode="C" horiz-adv-x="729" 
d="M409 -15q-170 0 -268.5 107.5t-98.5 282.5q0 176 100.5 283t266.5 107q70 0 126.5 -17t88 -43t48.5 -50.5t22 -45.5v-76h-131q-5 31 -43 61t-109 30q-93 0 -148 -67t-55 -181t55 -181q56 -68 148 -68q70 0 109 31.5t48 63.5h131v-76q-15 -57 -90.5 -109t-199.5 -52z" />
    <glyph glyph-name="D" unicode="D" horiz-adv-x="760" 
d="M345 0h-263v750h263q168 0 271 -107t103 -265q0 -160 -103 -269t-271 -109zM248 609v-468h94q95 0 150.5 67.5t55.5 169.5q0 99 -55.5 165t-150.5 66h-94z" />
    <glyph glyph-name="E" unicode="E" 
d="M553 0h-471v750h471v-141h-305v-159h270v-130h-270v-179h305v-141z" />
    <glyph glyph-name="F" unicode="F" horiz-adv-x="582" 
d="M248 0h-166v750h461v-141h-295v-169h265v-130h-265v-310z" />
    <glyph glyph-name="G" unicode="G" horiz-adv-x="770" 
d="M428 -15q-179 0 -283 108t-104 282q0 171 104.5 280.5t278.5 109.5q127 0 202 -50t84 -104v-75h-130q-10 29 -48 58.5t-107 29.5q-101 0 -159.5 -69.5t-58.5 -178.5t60 -179t163 -70q69 0 129 25v130h-155v128h310v-324q-22 -33 -100.5 -67t-185.5 -34z" />
    <glyph glyph-name="H" unicode="H" horiz-adv-x="790" 
d="M248 0h-166v750h166v-295h294v295h166v-750h-166v315h-294v-315z" />
    <glyph glyph-name="I" unicode="I" horiz-adv-x="330" 
d="M248 0h-166v750h166v-750z" />
    <glyph glyph-name="J" unicode="J" horiz-adv-x="519" 
d="M224 -15q-97 0 -146 41.5t-57 86.5v75h130q0 -23 15 -42.5t47 -19.5q33 0 49 21t16 76v527h165v-521q0 -244 -219 -244z" />
    <glyph glyph-name="K" unicode="K" horiz-adv-x="694" 
d="M532 0l-284 326v-326h-166v750h166v-322l271 322h131v-75l-245 -285l273 -312v-78h-146z" />
    <glyph glyph-name="L" unicode="L" horiz-adv-x="569" 
d="M548 0h-466v750h166v-609h300v-141z" />
    <glyph glyph-name="M" unicode="M" horiz-adv-x="931" 
d="M516 159h-111l-167 353v-512h-156v750h204l182 -382l178 382h203v-750h-165v512z" />
    <glyph glyph-name="N" unicode="N" horiz-adv-x="795" 
d="M238 0h-156v750h156l319 -477v477h156v-750h-156l-319 469v-469z" />
    <glyph glyph-name="O" unicode="O" horiz-adv-x="826" 
d="M413 -15q-166 0 -269 110t-103 283q0 172 102.5 279.5t269.5 107.5t269.5 -107.5t102.5 -279.5q0 -173 -103 -283t-269 -110zM413 126q95 0 150 70q56 71 56 182q0 108 -56 178q-56 68 -150 68t-150 -68q-56 -70 -56 -178q0 -111 56 -182q55 -70 150 -70z" />
    <glyph glyph-name="P" unicode="P" horiz-adv-x="643" 
d="M248 0h-166v750h241q132 0 211 -67q78 -67 78 -180q0 -106 -76 -182t-213 -76h-75v-245zM245 612v-229h77q57 0 90.5 32.5t33.5 86.5q0 49 -33 79.5t-91 30.5h-77z" />
    <glyph glyph-name="Q" unicode="Q" horiz-adv-x="826" 
d="M667 80l81 -106v-78h-121l-84 110q-63 -21 -130 -21q-166 0 -269 110t-103 283q0 172 102.5 279.5t269.5 107.5t269.5 -107.5t102.5 -279.5q0 -189 -118 -298zM207 378q0 -111 56 -182q55 -70 150 -70q1 0 37 3l-72 94v78h121l72 -95q48 68 48 172q0 108 -56 178
q-56 68 -150 68t-150 -68q-56 -70 -56 -178z" />
    <glyph glyph-name="R" unicode="R" horiz-adv-x="682" 
d="M248 264v-264h-166v750h246q130 0 207 -65t77 -174q0 -68 -35.5 -122t-99.5 -84l173 -227v-78h-143l-192 264h-67zM245 609v-211h82q55 0 87 30.5t32 80.5q0 44 -31.5 72t-87.5 28h-82z" />
    <glyph glyph-name="S" unicode="S" horiz-adv-x="646" 
d="M324 -15q-117 0 -184 45q-68 45 -92 107v75h131q33 -91 148 -91q53 0 85 23.5t32 64.5q0 37 -26.5 59t-83.5 35l-69 13q-103 21 -158 76.5t-55 144.5q0 107 75 168q75 60 198 60q103 0 170.5 -40t83.5 -109v-76h-130q-23 89 -128 89q-51 0 -79.5 -23t-28.5 -60
q0 -62 100 -84l72 -16q105 -22 162.5 -79.5t57.5 -148.5q0 -106 -78 -169.5t-203 -63.5z" />
    <glyph glyph-name="T" unicode="T" horiz-adv-x="635" 
d="M400 0h-166v609h-214v141h595v-141h-215v-609z" />
    <glyph glyph-name="U" unicode="U" horiz-adv-x="759" 
d="M383 -15q-138 0 -223.5 83.5t-85.5 206.5v475h166v-476q0 -63 38.5 -105.5t103.5 -42.5q68 0 107.5 42.5t39.5 105.5v476h156v-475q0 -123 -84 -206.5t-218 -83.5z" />
    <glyph glyph-name="V" unicode="V" horiz-adv-x="709" 
d="M445 0h-181l-248 670v80h153l188 -546l193 546h146v-70z" />
    <glyph glyph-name="W" unicode="W" horiz-adv-x="1000" 
d="M797 0h-169l-129 458l-127 -458h-169l-179 670v80h154l119 -515l137 515h141l133 -515l124 515h146v-70z" />
    <glyph glyph-name="X" unicode="X" horiz-adv-x="690" 
d="M158 0h-131v75l220 305l-209 292v78h146l173 -250l162 250h131v-75l-205 -290l219 -307v-78h-146l-181 264z" />
    <glyph glyph-name="Y" unicode="Y" horiz-adv-x="662" 
d="M415 0h-166v300l-242 372v78h146l190 -304l178 304h130v-75l-236 -376v-299z" />
    <glyph glyph-name="Z" unicode="Z" horiz-adv-x="643" 
d="M603 141v-141h-562v131l356 478h-346v141h541v-131l-355 -478h366z" />
    <glyph glyph-name="a" unicode="a" horiz-adv-x="551" 
d="M197 -15q-83 0 -124 47q-42 46 -42 110q0 74 54.5 115.5t162.5 41.5q23 0 46.5 -2.5t35.5 -4.5l12 -3v22q0 84 -83 84q-18 0 -33.5 -4.5t-24.5 -11.5t-16 -14t-9 -11l-3 -5h-114v67l1 1q29 60 105 87q43 16 97 16q114 0 172.5 -54.5t58.5 -159.5v-306h-136l-10 64
q-48 -79 -150 -79zM246 101q49 0 73 28q23 28 23 54v22q-35 8 -84 8q-78 0 -78 -57q0 -55 66 -55z" />
    <glyph glyph-name="b" unicode="b" horiz-adv-x="642" 
d="M378 -15q-111 0 -165 87l-8 -72h-141v750h151v-313q53 83 165 83q102 0 163.5 -75t61.5 -188q0 -116 -61 -194t-166 -78zM334 121q56 0 88 37.5t32 93.5q0 57 -32 94.5t-89 37.5q-52 0 -85 -37.5t-33 -93.5q0 -57 33 -94.5t86 -37.5z" />
    <glyph glyph-name="c" unicode="c" horiz-adv-x="545" 
d="M300 -15q-127 0 -195.5 75t-68.5 191q0 115 72 192.5t192 77.5q27 0 52 -4t43 -11t34 -15.5t27.5 -18.5t20 -20t14.5 -18.5t9.5 -15.5l5.5 -11l1 -4v-67h-113q1 0 -1.5 5.5t-9 13.5t-16.5 16t-27.5 13.5t-39.5 5.5q-55 0 -84 -39.5t-29 -99.5q0 -59 29 -97t84 -38
q37 0 60.5 13.5t29.5 26.5l5 14h113v-67q-2 -5 -5.5 -13t-19.5 -28t-37 -35.5t-60 -28.5t-86 -13z" />
    <glyph glyph-name="d" unicode="d" horiz-adv-x="642" 
d="M262 -15q-104 0 -164.5 76t-60.5 191q0 116 62.5 192t165.5 76q106 0 163 -83v313h150v-750h-140l-9 72q-25 -40 -69 -63.5t-98 -23.5zM308 121q53 0 86.5 37.5t33.5 94.5q0 56 -33.5 93.5t-86.5 37.5q-56 0 -88 -37.5t-32 -94.5q0 -56 32 -93.5t88 -37.5z" />
    <glyph glyph-name="e" unicode="e" horiz-adv-x="583" 
d="M308 -15q-131 0 -201.5 74t-70.5 192q0 115 71.5 192t194.5 77t184 -65.5t61 -172.5q0 -16 -1.5 -32t-3.5 -24l-2 -8h-352q7 -52 38.5 -82t84.5 -30q25 0 45.5 4.5t31.5 11.5t18.5 14t9.5 12l3 4h118v-67q-2 -4 -6.5 -11t-22.5 -24t-41.5 -30t-66 -24t-92.5 -11zM191 309
h211q0 39 -26 65t-75 26q-89 0 -110 -91z" />
    <glyph glyph-name="f" unicode="f" horiz-adv-x="438" 
d="M262 0h-151v382h-85v123h85v56q0 91 54.5 145t149.5 54q126 0 159 -91v-68h-112q0 10 -11 20.5t-35 10.5q-54 0 -54 -70v-57h161v-123h-161v-382z" />
    <glyph glyph-name="g" unicode="g" horiz-adv-x="642" 
d="M305 -260q-54 0 -98.5 14t-69.5 33t-42.5 39.5t-23.5 32.5t-6 14v67h121l2 -4q1 -3 4.5 -9t9.5 -13.5t15 -14.5t20.5 -13t28 -9.5t35.5 -3.5q63 0 95 39.5t32 106.5v54q-53 -78 -166 -78q-102 0 -163.5 74.5t-61.5 184.5q0 114 63 190.5t166 76.5q53 0 96 -23.5t68 -63.5
l8 71h141v-482q0 -129 -75.5 -206t-198.5 -77zM309 125q52 0 85.5 37.5t33.5 93.5q0 55 -33.5 92t-86.5 37q-55 0 -87.5 -36.5t-32.5 -92.5t32.5 -93.5t88.5 -37.5z" />
    <glyph glyph-name="h" unicode="h" 
d="M215 0h-151v750h151v-307q20 32 58 54.5t90 22.5q93 0 137 -58t44 -148v-314h-150v286q0 99 -83 99q-54 0 -75 -32q-21 -31 -21 -69v-284z" />
    <glyph glyph-name="i" unicode="i" horiz-adv-x="278" 
d="M216 600h-156v140h156v-140zM214 0h-150v505h150v-505z" />
    <glyph glyph-name="j" unicode="j" horiz-adv-x="276" 
d="M216 600h-156v140h156v-140zM22 -260q-63 0 -103.5 25.5t-53.5 66.5v72h113q0 -11 9.5 -23.5t31.5 -12.5q24 0 34 16t10 53v568h150v-569q0 -91 -49 -143.5t-142 -52.5z" />
    <glyph glyph-name="k" unicode="k" horiz-adv-x="555" 
d="M215 0h-151v750h151v-450l170 205h129v-67l-147 -174l167 -194v-70h-141l-178 218v-218z" />
    <glyph glyph-name="l" unicode="l" horiz-adv-x="279" 
d="M215 0h-151v750h151v-750z" />
    <glyph glyph-name="m" unicode="m" horiz-adv-x="868" 
d="M214 0h-150v505h140l7 -64q19 33 52.5 56t80.5 23q52 0 88 -24t53 -63q53 87 150 87q89 0 131.5 -57.5t42.5 -148.5v-314h-150v295q0 90 -72 90q-39 0 -58.5 -26.5t-19.5 -61.5v-297h-145v299q0 86 -72 86q-40 0 -59 -28t-19 -68v-289z" />
    <glyph glyph-name="n" unicode="n" 
d="M215 0h-151v505h141l7 -67q19 33 58 57.5t93 24.5q93 0 137 -58t44 -148v-314h-150v286q0 99 -83 99q-54 0 -75 -32q-21 -31 -21 -69v-284z" />
    <glyph glyph-name="o" unicode="o" horiz-adv-x="606" 
d="M303 -15q-122 0 -194.5 77t-72.5 192q0 114 72.5 190t194.5 76t194.5 -76t72.5 -190q0 -115 -72.5 -192t-194.5 -77zM303 116q57 0 86.5 39t29.5 99q0 58 -30 96.5t-86 38.5t-86 -38.5t-30 -96.5q0 -60 29.5 -99t86.5 -39z" />
    <glyph glyph-name="p" unicode="p" horiz-adv-x="642" 
d="M215 -250h-151v755h141l7 -72q25 40 69.5 63.5t98.5 23.5q103 0 164 -76t61 -190q0 -115 -62 -192t-163 -77q-109 0 -165 83v-318zM334 121q57 0 88.5 37t31.5 96q0 57 -31.5 93.5t-88.5 36.5q-53 0 -86 -37t-33 -93q0 -57 33 -95t86 -38z" />
    <glyph glyph-name="q" unicode="q" horiz-adv-x="641" 
d="M578 -250h-150v318q-57 -83 -166 -83q-102 0 -163.5 76.5t-61.5 190.5q0 115 62.5 191.5t165.5 76.5q53 0 96 -23t68 -64l9 72h140v-755zM308 121q53 0 86.5 38t33.5 95q0 56 -33.5 93t-86.5 37q-56 0 -88 -37t-32 -93q0 -58 32 -95.5t88 -37.5z" />
    <glyph glyph-name="r" unicode="r" horiz-adv-x="481" 
d="M215 0h-151v505h141l7 -66q18 34 52.5 57.5t82.5 23.5q56 0 88.5 -29t38.5 -78v-72h-115l-1 5q-2 5 -6 12.5t-10.5 14.5t-19 12t-29.5 5q-38 0 -58 -30t-20 -78v-282z" />
    <glyph glyph-name="s" unicode="s" horiz-adv-x="508" 
d="M258 -15q-91 0 -149.5 33.5t-69.5 66.5v68h113q3 -16 33 -37t75 -21q78 0 78 48q0 23 -19 34t-58 18l-64 8q-151 20 -151 151q0 73 56 119.5t150 46.5q82 0 132 -27t67 -69v-68h-114q-4 16 -26 35t-62 19q-68 0 -68 -48q0 -38 64 -49l64 -9q164 -22 164 -148
q0 -76 -57.5 -123.5t-157.5 -47.5z" />
    <glyph glyph-name="t" unicode="t" horiz-adv-x="475" 
d="M292 -15q-92 0 -143.5 51.5t-51.5 142.5v203h-75v123h77l8 128h141v-128h200v-123h-200v-198q0 -74 56 -74q26 0 37 13t11 26h108v-68q-38 -96 -168 -96z" />
    <glyph glyph-name="u" unicode="u" horiz-adv-x="599" 
d="M241 -15q-94 0 -138 58t-44 148v314h151v-286q0 -99 80 -99q53 0 74 32q20 32 20 69v284h151v-505h-141l-7 67q-19 -33 -56.5 -57.5t-89.5 -24.5z" />
    <glyph glyph-name="v" unicode="v" horiz-adv-x="550" 
d="M533 438l-190 -438h-136l-188 435v70h136l126 -307l124 307h128v-67z" />
    <glyph glyph-name="w" unicode="w" horiz-adv-x="800" 
d="M624 0h-136l-92 291l-86 -291h-136l-151 435v70h136l93 -301l91 301h124l94 -300l90 300h128v-67z" />
    <glyph glyph-name="x" unicode="x" horiz-adv-x="559" 
d="M157 0h-126v68l158 189l-155 178v70h138l114 -146l113 146h126v-67l-156 -183l159 -185v-70h-138l-118 151z" />
    <glyph glyph-name="y" unicode="y" horiz-adv-x="556" 
d="M544 438l-340 -688h-128v70l126 226l-182 389v70h136l129 -296l134 296h125v-67z" />
    <glyph glyph-name="z" unicode="z" horiz-adv-x="503" 
d="M462 123v-123h-421v113l236 269h-231v123h411v-113l-236 -269h241z" />
    <glyph glyph-name="uni00A0" unicode="&#xa0;" horiz-adv-x="232" 
 />
    <glyph glyph-name="Agrave" unicode="&#xc0;" horiz-adv-x="706" 
d="M426 805h-136l-92 80v60h156l72 -80v-60zM203 159l-57 -159h-133v70l255 680h169l254 -670v-80h-144l-58 159h-286zM249 295h196l-98 276z" />
    <glyph glyph-name="Aacute" unicode="&#xc1;" horiz-adv-x="706" 
d="M415 805h-136v60l72 80h156v-60zM203 159l-57 -159h-133v70l255 680h169l254 -670v-80h-144l-58 159h-286zM249 295h196l-98 276z" />
    <glyph glyph-name="Acircumflex" unicode="&#xc2;" horiz-adv-x="706" 
d="M523 800h-116l-56 58l-56 -58h-116v60l92 80h160l92 -80v-60zM203 159l-57 -159h-133v70l255 680h169l254 -670v-80h-144l-58 159h-286zM249 295h196l-98 276z" />
    <glyph glyph-name="Atilde" unicode="&#xc3;" horiz-adv-x="706" 
d="M425 792q-41 0 -65 15q-26 15 -53 15q-29 0 -35 -25h-100q-4 61 24.5 99t81.5 38q42 0 64 -15q21 -15 49 -15q29 0 34 25h100q4 -63 -21 -100t-79 -37zM203 159l-57 -159h-133v70l255 680h169l254 -670v-80h-144l-58 159h-286zM249 295h196l-98 276z" />
    <glyph glyph-name="Adieresis" unicode="&#xc4;" horiz-adv-x="706" 
d="M325 800h-150v135h150v-135zM531 800h-151v135h151v-135zM203 159l-57 -159h-133v70l255 680h169l254 -670v-80h-144l-58 159h-286zM249 295h196l-98 276z" />
    <glyph glyph-name="Aring" unicode="&#xc5;" horiz-adv-x="706" 
d="M350 785q-67 0 -102.5 25.5t-35.5 67.5t35.5 67.5t102.5 25.5q68 0 103.5 -25.5t35.5 -67.5t-35.5 -67.5t-103.5 -25.5zM350 851q17 0 28.5 7.5t11.5 19.5t-11.5 19.5t-28.5 7.5t-28.5 -7.5t-11.5 -19.5t11.5 -19.5t28.5 -7.5zM203 159l-57 -159h-133v70l255 680h169
l254 -670v-80h-144l-58 159h-286zM249 295h196l-98 276z" />
    <glyph glyph-name="AE" unicode="&#xc6;" horiz-adv-x="978" 
d="M7 0v75l381 675h540v-141h-305v-159h270v-130h-270v-179h305v-141h-471v154h-238l-86 -154h-126zM457 586l-163 -296h163v296z" />
    <glyph glyph-name="Ccedilla" unicode="&#xc7;" horiz-adv-x="729" 
d="M549 -123q0 -90 -124 -101h-85v80q68 0 68 36q0 35 -64 35v63q-141 20 -221.5 124t-80.5 261q0 176 100.5 283t266.5 107q70 0 126.5 -17t88 -43t48.5 -50.5t22 -45.5v-76h-131q-5 31 -43 61t-109 30q-93 0 -148 -67t-55 -181t55 -181q56 -68 148 -68q70 0 109 31.5
t48 63.5h131v-76q-13 -50 -73 -97.5t-161 -60.5v-28q38 -6 61 -28t23 -55z" />
    <glyph glyph-name="Egrave" unicode="&#xc8;" 
d="M408 805h-136l-92 80v60h156l72 -80v-60zM553 0h-471v750h471v-141h-305v-159h270v-130h-270v-179h305v-141z" />
    <glyph glyph-name="Eacute" unicode="&#xc9;" 
d="M390 805h-136v60l72 80h156v-60zM553 0h-471v750h471v-141h-305v-159h270v-130h-270v-179h305v-141z" />
    <glyph glyph-name="Ecircumflex" unicode="&#xca;" 
d="M490 800h-116l-56 58l-56 -58h-116v60l92 80h160l92 -80v-60zM553 0h-471v750h471v-141h-305v-159h270v-130h-270v-179h305v-141z" />
    <glyph glyph-name="Edieresis" unicode="&#xcb;" 
d="M291 800h-150v135h150v-135zM497 800h-151v135h151v-135zM553 0h-471v750h471v-141h-305v-159h270v-130h-270v-179h305v-141z" />
    <glyph glyph-name="Igrave" unicode="&#xcc;" horiz-adv-x="330" 
d="M236 805h-136l-92 80v60h156l72 -80v-60zM248 0h-166v750h166v-750z" />
    <glyph glyph-name="Iacute" unicode="&#xcd;" horiz-adv-x="330" 
d="M232 805h-136v60l72 80h156v-60zM248 0h-166v750h166v-750z" />
    <glyph glyph-name="Icircumflex" unicode="&#xce;" horiz-adv-x="330" 
d="M336 800h-116l-56 58l-56 -58h-116v60l92 80h160l92 -80v-60zM248 0h-166v750h166v-750z" />
    <glyph glyph-name="Idieresis" unicode="&#xcf;" horiz-adv-x="330" 
d="M137 800h-150v135h150v-135zM343 800h-151v135h151v-135zM248 0h-166v750h166v-750z" />
    <glyph glyph-name="Ntilde" unicode="&#xd1;" horiz-adv-x="795" 
d="M490 792q-41 0 -65 15q-25 15 -53 15q-29 0 -35 -25h-100q-4 61 24.5 99t81.5 38q41 0 64 -15q21 -15 49 -15q29 0 34 25h100q4 -63 -21 -100t-79 -37zM238 0h-156v750h156l319 -477v477h156v-750h-156l-319 469v-469z" />
    <glyph glyph-name="Ograve" unicode="&#xd2;" horiz-adv-x="826" 
d="M477 805h-136l-92 80v60h156l72 -80v-60zM413 -15q-166 0 -269 110t-103 283q0 172 102.5 279.5t269.5 107.5t269.5 -107.5t102.5 -279.5q0 -173 -103 -283t-269 -110zM413 126q95 0 150 70q56 71 56 182q0 108 -56 178q-56 68 -150 68t-150 -68q-56 -70 -56 -178
q0 -111 56 -182q55 -70 150 -70z" />
    <glyph glyph-name="Oacute" unicode="&#xd3;" horiz-adv-x="826" 
d="M485 805h-136v60l72 80h156v-60zM413 -15q-166 0 -269 110t-103 283q0 172 102.5 279.5t269.5 107.5t269.5 -107.5t102.5 -279.5q0 -173 -103 -283t-269 -110zM413 126q95 0 150 70q56 71 56 182q0 108 -56 178q-56 68 -150 68t-150 -68q-56 -70 -56 -178q0 -111 56 -182
q55 -70 150 -70z" />
    <glyph glyph-name="Ocircumflex" unicode="&#xd4;" horiz-adv-x="826" 
d="M585 800h-116l-56 58l-56 -58h-116v60l92 80h160l92 -80v-60zM413 -15q-166 0 -269 110t-103 283q0 172 102.5 279.5t269.5 107.5t269.5 -107.5t102.5 -279.5q0 -173 -103 -283t-269 -110zM413 126q95 0 150 70q56 71 56 182q0 108 -56 178q-56 68 -150 68t-150 -68
q-56 -70 -56 -178q0 -111 56 -182q55 -70 150 -70z" />
    <glyph glyph-name="Otilde" unicode="&#xd5;" horiz-adv-x="826" 
d="M486 792q-41 0 -65 15q-25 15 -53 15q-29 0 -35 -25h-100q-4 61 24.5 99t81.5 38q41 0 64 -15q21 -15 49 -15q29 0 34 25h100q4 -63 -21 -100t-79 -37zM413 -15q-166 0 -269 110t-103 283q0 172 102.5 279.5t269.5 107.5t269.5 -107.5t102.5 -279.5q0 -173 -103 -283
t-269 -110zM413 126q95 0 150 70q56 71 56 182q0 108 -56 178q-56 68 -150 68t-150 -68q-56 -70 -56 -178q0 -111 56 -182q55 -70 150 -70z" />
    <glyph glyph-name="Odieresis" unicode="&#xd6;" horiz-adv-x="826" 
d="M383 800h-150v135h150v-135zM589 800h-151v135h151v-135zM413 -15q-166 0 -269 110t-103 283q0 172 102.5 279.5t269.5 107.5t269.5 -107.5t102.5 -279.5q0 -173 -103 -283t-269 -110zM413 126q95 0 150 70q56 71 56 182q0 108 -56 178q-56 68 -150 68t-150 -68
q-56 -70 -56 -178q0 -111 56 -182q55 -70 150 -70z" />
    <glyph glyph-name="Ugrave" unicode="&#xd9;" horiz-adv-x="759" 
d="M455 805h-136l-92 80v60h156l72 -80v-60zM383 -15q-138 0 -223.5 83.5t-85.5 206.5v475h166v-476q0 -63 38.5 -105.5t103.5 -42.5q68 0 107.5 42.5t39.5 105.5v476h156v-475q0 -123 -84 -206.5t-218 -83.5z" />
    <glyph glyph-name="Uacute" unicode="&#xda;" horiz-adv-x="759" 
d="M448 805h-136v60l72 80h156v-60zM383 -15q-138 0 -223.5 83.5t-85.5 206.5v475h166v-476q0 -63 38.5 -105.5t103.5 -42.5q68 0 107.5 42.5t39.5 105.5v476h156v-475q0 -123 -84 -206.5t-218 -83.5z" />
    <glyph glyph-name="Ucircumflex" unicode="&#xdb;" horiz-adv-x="759" 
d="M554 800h-116l-56 58l-56 -58h-116v60l92 80h160l92 -80v-60zM383 -15q-138 0 -223.5 83.5t-85.5 206.5v475h166v-476q0 -63 38.5 -105.5t103.5 -42.5q68 0 107.5 42.5t39.5 105.5v476h156v-475q0 -123 -84 -206.5t-218 -83.5z" />
    <glyph glyph-name="Udieresis" unicode="&#xdc;" horiz-adv-x="759" 
d="M355 800h-150v135h150v-135zM561 800h-151v135h151v-135zM383 -15q-138 0 -223.5 83.5t-85.5 206.5v475h166v-476q0 -63 38.5 -105.5t103.5 -42.5q68 0 107.5 42.5t39.5 105.5v476h156v-475q0 -123 -84 -206.5t-218 -83.5z" />
    <glyph glyph-name="Yacute" unicode="&#xdd;" horiz-adv-x="662" 
d="M399 805h-136v60l72 80h156v-60zM415 0h-166v300l-242 372v78h146l190 -304l178 304h130v-75l-236 -376v-299z" />
    <glyph glyph-name="germandbls" unicode="&#xdf;" horiz-adv-x="617" 
d="M366 -15q-22 0 -42.5 3.5t-34.5 7.5t-17 4v123q48 -12 68 -12q44 0 65.5 24.5t21.5 65.5q0 105 -147 112v120q50 7 78 39t28 78q0 38 -21 61t-65 23q-42 0 -63.5 -28t-21.5 -77v-529h-151v528q0 108 64 170t176 62q105 0 172 -52q66 -52 66 -151q0 -53 -29.5 -98.5
t-78.5 -70.5q68 -18 108 -68.5t40 -119.5q0 -42 -12 -79t-36.5 -68.5t-67.5 -49.5t-100 -18z" />
    <glyph glyph-name="agrave" unicode="&#xe0;" horiz-adv-x="551" 
d="M354 600h-123l-97 90v60h143l77 -90v-60zM197 -15q-83 0 -124 47q-42 46 -42 110q0 74 54.5 115.5t162.5 41.5q23 0 46.5 -2.5t35.5 -4.5l12 -3v22q0 84 -83 84q-18 0 -33.5 -4.5t-24.5 -11.5t-16 -14t-9 -11l-3 -5h-114v67l1 1q29 60 105 87q43 16 97 16
q114 0 172.5 -54.5t58.5 -159.5v-306h-136l-10 64q-48 -79 -150 -79zM246 101q49 0 73 28q23 28 23 54v22q-35 8 -84 8q-78 0 -78 -57q0 -55 66 -55z" />
    <glyph glyph-name="aacute" unicode="&#xe1;" horiz-adv-x="551" 
d="M339 600h-123v60l77 90h144v-60zM197 -15q-83 0 -124 47q-42 46 -42 110q0 74 54.5 115.5t162.5 41.5q23 0 46.5 -2.5t35.5 -4.5l12 -3v22q0 84 -83 84q-18 0 -33.5 -4.5t-24.5 -11.5t-16 -14t-9 -11l-3 -5h-114v67l1 1q29 60 105 87q43 16 97 16q114 0 172.5 -54.5
t58.5 -159.5v-306h-136l-10 64q-48 -79 -150 -79zM246 101q49 0 73 28q23 28 23 54v22q-35 8 -84 8q-78 0 -78 -57q0 -55 66 -55z" />
    <glyph glyph-name="acircumflex" unicode="&#xe2;" horiz-adv-x="551" 
d="M447 600h-106l-61 73l-61 -73h-106v60l92 90h150l92 -90v-60zM197 -15q-83 0 -124 47q-42 46 -42 110q0 74 54.5 115.5t162.5 41.5q23 0 46.5 -2.5t35.5 -4.5l12 -3v22q0 84 -83 84q-18 0 -33.5 -4.5t-24.5 -11.5t-16 -14t-9 -11l-3 -5h-114v67l1 1q29 60 105 87
q43 16 97 16q114 0 172.5 -54.5t58.5 -159.5v-306h-136l-10 64q-48 -79 -150 -79zM246 101q49 0 73 28q23 28 23 54v22q-35 8 -84 8q-78 0 -78 -57q0 -55 66 -55z" />
    <glyph glyph-name="atilde" unicode="&#xe3;" horiz-adv-x="551" 
d="M361 599q-35 0 -69.5 17.5t-53.5 17.5q-27 0 -35 -30h-95q-4 61 24.5 99t81.5 38q35 0 67 -17t51 -17q29 0 34 29h95q4 -63 -21 -100t-79 -37zM197 -15q-83 0 -124 47q-42 46 -42 110q0 74 54.5 115.5t162.5 41.5q23 0 46.5 -2.5t35.5 -4.5l12 -3v22q0 84 -83 84
q-18 0 -33.5 -4.5t-24.5 -11.5t-16 -14t-9 -11l-3 -5h-114v67l1 1q29 60 105 87q43 16 97 16q114 0 172.5 -54.5t58.5 -159.5v-306h-136l-10 64q-48 -79 -150 -79zM246 101q49 0 73 28q23 28 23 54v22q-35 8 -84 8q-78 0 -78 -57q0 -55 66 -55z" />
    <glyph glyph-name="adieresis" unicode="&#xe4;" horiz-adv-x="551" 
d="M250 600h-145v140h145v-140zM456 600h-146v140h146v-140zM197 -15q-83 0 -124 47q-42 46 -42 110q0 74 54.5 115.5t162.5 41.5q23 0 46.5 -2.5t35.5 -4.5l12 -3v22q0 84 -83 84q-18 0 -33.5 -4.5t-24.5 -11.5t-16 -14t-9 -11l-3 -5h-114v67l1 1q29 60 105 87q43 16 97 16
q114 0 172.5 -54.5t58.5 -159.5v-306h-136l-10 64q-48 -79 -150 -79zM246 101q49 0 73 28q23 28 23 54v22q-35 8 -84 8q-78 0 -78 -57q0 -55 66 -55z" />
    <glyph glyph-name="aring" unicode="&#xe5;" horiz-adv-x="551" 
d="M283 568q-65 0 -99 27t-34 69t34 69t99 27t99.5 -27t34.5 -69t-34.5 -69t-99.5 -27zM283 634q15 0 25 8t10 22t-10 22t-25 8q-14 0 -24.5 -8t-10.5 -22t10.5 -22t24.5 -8zM197 -15q-83 0 -124 47q-42 46 -42 110q0 74 54.5 115.5t162.5 41.5q23 0 46.5 -2.5t35.5 -4.5
l12 -3v22q0 84 -83 84q-18 0 -33.5 -4.5t-24.5 -11.5t-16 -14t-9 -11l-3 -5h-114v67l1 1q29 60 105 87q43 16 97 16q114 0 172.5 -54.5t58.5 -159.5v-306h-136l-10 64q-48 -79 -150 -79zM246 101q49 0 73 28q23 28 23 54v22q-35 8 -84 8q-78 0 -78 -57q0 -55 66 -55z" />
    <glyph glyph-name="ae" unicode="&#xe6;" horiz-adv-x="897" 
d="M622 -15q-130 0 -196 85q-63 -85 -200 -85q-91 0 -143.5 44t-52.5 113q0 75 56 117.5t169 42.5q24 0 48 -2.5t36 -5.5l12 -2v19q0 41 -24.5 62.5t-67.5 21.5q-18 0 -34 -4.5t-25 -11.5t-15.5 -14t-9.5 -11l-3 -5h-113v67l1 1q30 61 106 88q42 15 95 15q125 0 182 -73
q68 73 176 73q121 0 181.5 -65.5t60.5 -172.5q0 -16 -1.5 -32t-3.5 -24l-2 -8h-352q6 -52 37.5 -82t84.5 -30q25 0 45.5 4.5t32 11.5t19 14t9.5 12l3 4h118v-67q-2 -4 -6.5 -11t-22.5 -24t-41.5 -30t-66 -24t-92.5 -11zM504 309h212q0 38 -26.5 64.5t-75.5 26.5
q-88 0 -110 -91zM250 96q46 0 73.5 26t27.5 61v14q-35 8 -86 8q-86 0 -86 -55q0 -54 71 -54z" />
    <glyph glyph-name="ccedilla" unicode="&#xe7;" horiz-adv-x="545" 
d="M441 -123q0 -90 -124 -101h-85v80q68 0 68 36q0 35 -64 35v64q-96 17 -148 89t-52 171q0 115 72 192.5t192 77.5q27 0 52 -4t43 -11t34 -15.5t27.5 -18.5t20 -20t14.5 -18.5t9.5 -15.5l5.5 -11l1 -4v-67h-113q1 0 -1.5 5.5t-9 13.5t-16.5 16t-27.5 13.5t-39.5 5.5
q-55 0 -84 -39.5t-29 -99.5q0 -59 29 -97t84 -38q37 0 60.5 13.5t29.5 26.5l5 14h113v-67q-1 -4 -4 -10t-14.5 -23t-27 -31t-43.5 -28.5t-62 -20.5v-30q38 -6 61 -28t23 -55z" />
    <glyph glyph-name="egrave" unicode="&#xe8;" horiz-adv-x="583" 
d="M353 600h-123l-97 90v60h143l77 -90v-60zM308 -15q-131 0 -201.5 74t-70.5 192q0 115 71.5 192t194.5 77t184 -65.5t61 -172.5q0 -16 -1.5 -32t-3.5 -24l-2 -8h-352q7 -52 38.5 -82t84.5 -30q25 0 45.5 4.5t31.5 11.5t18.5 14t9.5 12l3 4h118v-67q-2 -4 -6.5 -11
t-22.5 -24t-41.5 -30t-66 -24t-92.5 -11zM191 309h211q0 39 -26 65t-75 26q-89 0 -110 -91z" />
    <glyph glyph-name="eacute" unicode="&#xe9;" horiz-adv-x="583" 
d="M356 600h-123v60l77 90h144v-60zM308 -15q-131 0 -201.5 74t-70.5 192q0 115 71.5 192t194.5 77t184 -65.5t61 -172.5q0 -16 -1.5 -32t-3.5 -24l-2 -8h-352q7 -52 38.5 -82t84.5 -30q25 0 45.5 4.5t31.5 11.5t18.5 14t9.5 12l3 4h118v-67q-2 -4 -6.5 -11t-22.5 -24
t-41.5 -30t-66 -24t-92.5 -11zM191 309h211q0 39 -26 65t-75 26q-89 0 -110 -91z" />
    <glyph glyph-name="ecircumflex" unicode="&#xea;" horiz-adv-x="583" 
d="M469 600h-106l-61 73l-61 -73h-106v60l92 90h150l92 -90v-60zM308 -15q-131 0 -201.5 74t-70.5 192q0 115 71.5 192t194.5 77t184 -65.5t61 -172.5q0 -16 -1.5 -32t-3.5 -24l-2 -8h-352q7 -52 38.5 -82t84.5 -30q25 0 45.5 4.5t31.5 11.5t18.5 14t9.5 12l3 4h118v-67
q-2 -4 -6.5 -11t-22.5 -24t-41.5 -30t-66 -24t-92.5 -11zM191 309h211q0 39 -26 65t-75 26q-89 0 -110 -91z" />
    <glyph glyph-name="edieresis" unicode="&#xeb;" horiz-adv-x="583" 
d="M271 600h-145v140h145v-140zM477 600h-146v140h146v-140zM308 -15q-131 0 -201.5 74t-70.5 192q0 115 71.5 192t194.5 77t184 -65.5t61 -172.5q0 -16 -1.5 -32t-3.5 -24l-2 -8h-352q7 -52 38.5 -82t84.5 -30q25 0 45.5 4.5t31.5 11.5t18.5 14t9.5 12l3 4h118v-67
q-2 -4 -6.5 -11t-22.5 -24t-41.5 -30t-66 -24t-92.5 -11zM191 309h211q0 39 -26 65t-75 26q-89 0 -110 -91z" />
    <glyph glyph-name="igrave" unicode="&#xec;" horiz-adv-x="277" 
d="M212 600h-123l-97 90v60h143l77 -90v-60zM213 0h-150v505h150v-505z" />
    <glyph glyph-name="iacute" unicode="&#xed;" horiz-adv-x="277" 
d="M187 600h-123v60l77 90h144v-60zM214 0h-150v505h150v-505z" />
    <glyph glyph-name="icircumflex" unicode="&#xee;" horiz-adv-x="276" 
d="M305 600h-106l-61 73l-61 -73h-106v60l92 90h150l92 -90v-60zM213 0h-150v505h150v-505z" />
    <glyph glyph-name="idieresis" unicode="&#xef;" horiz-adv-x="276" 
d="M107 600h-145v140h145v-140zM313 600h-146v140h146v-140zM213 0h-150v505h150v-505z" />
    <glyph glyph-name="ntilde" unicode="&#xf1;" 
d="M374 599q-35 0 -69.5 17.5t-53.5 17.5q-27 0 -35 -30h-95q-4 61 24.5 99t81.5 38q35 0 67 -17t51 -17q29 0 34 29h95q4 -63 -21 -100t-79 -37zM215 0h-151v505h141l7 -67q19 33 58 57.5t93 24.5q93 0 137 -58t44 -148v-314h-150v286q0 99 -83 99q-54 0 -75 -32
q-21 -31 -21 -69v-284z" />
    <glyph glyph-name="ograve" unicode="&#xf2;" horiz-adv-x="606" 
d="M365 600h-123l-97 90v60h143l77 -90v-60zM303 -15q-122 0 -194.5 77t-72.5 192q0 114 72.5 190t194.5 76t194.5 -76t72.5 -190q0 -115 -72.5 -192t-194.5 -77zM303 116q57 0 86.5 39t29.5 99q0 58 -30 96.5t-86 38.5t-86 -38.5t-30 -96.5q0 -60 29.5 -99t86.5 -39z" />
    <glyph glyph-name="oacute" unicode="&#xf3;" horiz-adv-x="606" 
d="M354 600h-123v60l77 90h144v-60zM303 -15q-122 0 -194.5 77t-72.5 192q0 114 72.5 190t194.5 76t194.5 -76t72.5 -190q0 -115 -72.5 -192t-194.5 -77zM303 116q57 0 86.5 39t29.5 99q0 58 -30 96.5t-86 38.5t-86 -38.5t-30 -96.5q0 -60 29.5 -99t86.5 -39z" />
    <glyph glyph-name="ocircumflex" unicode="&#xf4;" horiz-adv-x="606" 
d="M464 600h-106l-61 73l-61 -73h-106v60l92 90h150l92 -90v-60zM303 -15q-122 0 -194.5 77t-72.5 192q0 114 72.5 190t194.5 76t194.5 -76t72.5 -190q0 -115 -72.5 -192t-194.5 -77zM303 116q57 0 86.5 39t29.5 99q0 58 -30 96.5t-86 38.5t-86 -38.5t-30 -96.5
q0 -60 29.5 -99t86.5 -39z" />
    <glyph glyph-name="otilde" unicode="&#xf5;" horiz-adv-x="606" 
d="M379 599q-35 0 -69.5 17.5t-53.5 17.5q-27 0 -35 -30h-95q-4 61 24.5 99t81.5 38q35 0 67 -17t51 -17q29 0 34 29h95q4 -63 -21 -100t-79 -37zM303 -15q-122 0 -194.5 77t-72.5 192q0 114 72.5 190t194.5 76t194.5 -76t72.5 -190q0 -115 -72.5 -192t-194.5 -77zM303 116
q57 0 86.5 39t29.5 99q0 58 -30 96.5t-86 38.5t-86 -38.5t-30 -96.5q0 -60 29.5 -99t86.5 -39z" />
    <glyph glyph-name="odieresis" unicode="&#xf6;" horiz-adv-x="606" 
d="M274 600h-145v140h145v-140zM480 600h-146v140h146v-140zM303 -15q-122 0 -194.5 77t-72.5 192q0 114 72.5 190t194.5 76t194.5 -76t72.5 -190q0 -115 -72.5 -192t-194.5 -77zM303 116q57 0 86.5 39t29.5 99q0 58 -30 96.5t-86 38.5t-86 -38.5t-30 -96.5q0 -60 29.5 -99
t86.5 -39z" />
    <glyph glyph-name="ugrave" unicode="&#xf9;" horiz-adv-x="599" 
d="M356 600h-123l-97 90v60h143l77 -90v-60zM241 -15q-94 0 -138 58t-44 148v314h151v-286q0 -99 80 -99q53 0 74 32q20 32 20 69v284h151v-505h-141l-7 67q-19 -33 -56.5 -57.5t-89.5 -24.5z" />
    <glyph glyph-name="uacute" unicode="&#xfa;" horiz-adv-x="599" 
d="M355 600h-123v60l77 90h144v-60zM241 -15q-94 0 -138 58t-44 148v314h151v-286q0 -99 80 -99q53 0 74 32q20 32 20 69v284h151v-505h-141l-7 67q-19 -33 -56.5 -57.5t-89.5 -24.5z" />
    <glyph glyph-name="ucircumflex" unicode="&#xfb;" horiz-adv-x="599" 
d="M462 600h-106l-61 73l-61 -73h-106v60l92 90h150l92 -90v-60zM241 -15q-94 0 -138 58t-44 148v314h151v-286q0 -99 80 -99q53 0 74 32q20 32 20 69v284h151v-505h-141l-7 67q-19 -33 -56.5 -57.5t-89.5 -24.5z" />
    <glyph glyph-name="udieresis" unicode="&#xfc;" horiz-adv-x="599" 
d="M266 600h-145v140h145v-140zM472 600h-146v140h146v-140zM241 -15q-94 0 -138 58t-44 148v314h151v-286q0 -99 80 -99q53 0 74 32q20 32 20 69v284h151v-505h-141l-7 67q-19 -33 -56.5 -57.5t-89.5 -24.5z" />
    <glyph glyph-name="yacute" unicode="&#xfd;" horiz-adv-x="556" 
d="M349 600h-123v60l77 90h144v-60zM544 438l-340 -688h-128v70l126 226l-182 389v70h136l129 -296l134 296h125v-67z" />
    <glyph glyph-name="ydieresis" unicode="&#xff;" horiz-adv-x="556" 
d="M255 600h-145v140h145v-140zM461 600h-146v140h146v-140zM544 438l-340 -688h-128v70l126 226l-182 389v70h136l129 -296l134 296h125v-67z" />
    <glyph glyph-name="Amacron" unicode="&#x100;" horiz-adv-x="706" 
d="M505 805h-306v110h306v-110zM203 159l-57 -159h-133v70l255 680h169l254 -670v-80h-144l-58 159h-286zM249 295h196l-98 276z" />
    <glyph glyph-name="amacron" unicode="&#x101;" horiz-adv-x="551" 
d="M428 610h-286v116h286v-116zM197 -15q-83 0 -124 47q-42 46 -42 110q0 74 54.5 115.5t162.5 41.5q23 0 46.5 -2.5t35.5 -4.5l12 -3v22q0 84 -83 84q-18 0 -33.5 -4.5t-24.5 -11.5t-16 -14t-9 -11l-3 -5h-114v67l1 1q29 60 105 87q43 16 97 16q114 0 172.5 -54.5
t58.5 -159.5v-306h-136l-10 64q-48 -79 -150 -79zM246 101q49 0 73 28q23 28 23 54v22q-35 8 -84 8q-78 0 -78 -57q0 -55 66 -55z" />
    <glyph glyph-name="Abreve" unicode="&#x102;" horiz-adv-x="706" 
d="M351 790q-36 0 -65 7t-44.5 17t-26 20t-13.5 17l-4 7v75h80q0 -2 1.5 -4.5t7 -10t12.5 -13t21 -10t31 -4.5q28 0 45 10.5t20 20.5l4 11h80v-75q-1 -3 -3.5 -7.5t-13 -16t-25.5 -20.5t-43.5 -16.5t-63.5 -7.5zM203 159l-57 -159h-133v70l255 680h169l254 -670v-80h-144
l-58 159h-286zM249 295h196l-98 276z" />
    <glyph glyph-name="abreve" unicode="&#x103;" horiz-adv-x="551" 
d="M271 588q-35 0 -63.5 7.5t-44.5 18t-27 21.5t-14.5 17.5t-3.5 7.5v75h80q2 -5 6.5 -12t23 -18.5t43.5 -11.5t42 10.5t22 20.5l5 11h80v-75q0 -1 -3.5 -7.5t-14.5 -17.5t-26.5 -21.5t-43 -18t-61.5 -7.5zM197 -15q-83 0 -124 47q-42 46 -42 110q0 74 54.5 115.5
t162.5 41.5q23 0 46.5 -2.5t35.5 -4.5l12 -3v22q0 84 -83 84q-18 0 -33.5 -4.5t-24.5 -11.5t-16 -14t-9 -11l-3 -5h-114v67l1 1q29 60 105 87q43 16 97 16q114 0 172.5 -54.5t58.5 -159.5v-306h-136l-10 64q-48 -79 -150 -79zM246 101q49 0 73 28q23 28 23 54v22
q-35 8 -84 8q-78 0 -78 -57q0 -55 66 -55z" />
    <glyph glyph-name="Aogonek" unicode="&#x104;" horiz-adv-x="706" 
d="M501 -91q0 35 23 60t61 31h-38l-58 159h-286l-57 -159h-133v70l255 680h169l254 -670v-80q-57 -11 -57 -54q0 -53 73 -53v-85h-80q-31 2 -56.5 10t-47.5 31.5t-22 59.5zM249 295h196l-98 276z" />
    <glyph glyph-name="aogonek" unicode="&#x105;" horiz-adv-x="551" 
d="M303 -91q0 35 23 60t61 31h-30l-10 64q-48 -79 -150 -79q-83 0 -124 47q-42 46 -42 110q0 74 54.5 115.5t162.5 41.5q23 0 46.5 -2.5t35.5 -4.5l12 -3v22q0 84 -83 84q-18 0 -33.5 -4.5t-24.5 -11.5t-16 -14t-9 -11l-3 -5h-114v67l1 1q29 60 105 87q43 16 97 16
q114 0 172.5 -54.5t58.5 -159.5v-306q-57 -11 -57 -54q0 -53 73 -53v-85h-80q-31 2 -56.5 10t-47.5 31.5t-22 59.5zM246 101q49 0 73 28q23 28 23 54v22q-35 8 -84 8q-78 0 -78 -57q0 -55 66 -55z" />
    <glyph glyph-name="Cacute" unicode="&#x106;" horiz-adv-x="729" 
d="M477 805h-136v60l72 80h156v-60zM409 -15q-170 0 -268.5 107.5t-98.5 282.5q0 176 100.5 283t266.5 107q70 0 126.5 -17t88 -43t48.5 -50.5t22 -45.5v-76h-131q-5 31 -43 61t-109 30q-93 0 -148 -67t-55 -181t55 -181q56 -68 148 -68q70 0 109 31.5t48 63.5h131v-76
q-15 -57 -90.5 -109t-199.5 -52z" />
    <glyph glyph-name="cacute" unicode="&#x107;" horiz-adv-x="545" 
d="M348 600h-123v60l77 90h144v-60zM300 -15q-127 0 -195.5 75t-68.5 191q0 115 72 192.5t192 77.5q27 0 52 -4t43 -11t34 -15.5t27.5 -18.5t20 -20t14.5 -18.5t9.5 -15.5l5.5 -11l1 -4v-67h-113q1 0 -1.5 5.5t-9 13.5t-16.5 16t-27.5 13.5t-39.5 5.5q-55 0 -84 -39.5
t-29 -99.5q0 -59 29 -97t84 -38q37 0 60.5 13.5t29.5 26.5l5 14h113v-67q-2 -5 -5.5 -13t-19.5 -28t-37 -35.5t-60 -28.5t-86 -13z" />
    <glyph glyph-name="Ccircumflex" unicode="&#x108;" horiz-adv-x="729" 
d="M577 800h-116l-56 58l-56 -58h-116v60l92 80h160l92 -80v-60zM409 -15q-170 0 -268.5 107.5t-98.5 282.5q0 176 100.5 283t266.5 107q70 0 126.5 -17t88 -43t48.5 -50.5t22 -45.5v-76h-131q-5 31 -43 61t-109 30q-93 0 -148 -67t-55 -181t55 -181q56 -68 148 -68
q70 0 109 31.5t48 63.5h131v-76q-15 -57 -90.5 -109t-199.5 -52z" />
    <glyph glyph-name="ccircumflex" unicode="&#x109;" horiz-adv-x="545" 
d="M461 600h-106l-61 73l-61 -73h-106v60l92 90h150l92 -90v-60zM300 -15q-127 0 -195.5 75t-68.5 191q0 115 72 192.5t192 77.5q27 0 52 -4t43 -11t34 -15.5t27.5 -18.5t20 -20t14.5 -18.5t9.5 -15.5l5.5 -11l1 -4v-67h-113q1 0 -1.5 5.5t-9 13.5t-16.5 16t-27.5 13.5
t-39.5 5.5q-55 0 -84 -39.5t-29 -99.5q0 -59 29 -97t84 -38q37 0 60.5 13.5t29.5 26.5l5 14h113v-67q-2 -5 -5.5 -13t-19.5 -28t-37 -35.5t-60 -28.5t-86 -13z" />
    <glyph glyph-name="Cdotaccent" unicode="&#x10a;" horiz-adv-x="729" 
d="M490 810h-166v135h166v-135zM409 -15q-170 0 -268.5 107.5t-98.5 282.5q0 176 100.5 283t266.5 107q70 0 126.5 -17t88 -43t48.5 -50.5t22 -45.5v-76h-131q-5 31 -43 61t-109 30q-93 0 -148 -67t-55 -181t55 -181q56 -68 148 -68q70 0 109 31.5t48 63.5h131v-76
q-15 -57 -90.5 -109t-199.5 -52z" />
    <glyph glyph-name="cdotaccent" unicode="&#x10b;" horiz-adv-x="545" 
d="M370 600h-156v140h156v-140zM300 -15q-127 0 -195.5 75t-68.5 191q0 115 72 192.5t192 77.5q27 0 52 -4t43 -11t34 -15.5t27.5 -18.5t20 -20t14.5 -18.5t9.5 -15.5l5.5 -11l1 -4v-67h-113q1 0 -1.5 5.5t-9 13.5t-16.5 16t-27.5 13.5t-39.5 5.5q-55 0 -84 -39.5t-29 -99.5
q0 -59 29 -97t84 -38q37 0 60.5 13.5t29.5 26.5l5 14h113v-67q-2 -5 -5.5 -13t-19.5 -28t-37 -35.5t-60 -28.5t-86 -13z" />
    <glyph glyph-name="Ccaron" unicode="&#x10c;" horiz-adv-x="729" 
d="M574 880l-90 -80h-160l-94 80v60h116l58 -58l54 58h116v-60zM409 -15q-170 0 -268.5 107.5t-98.5 282.5q0 176 100.5 283t266.5 107q70 0 126.5 -17t88 -43t48.5 -50.5t22 -45.5v-76h-131q-5 31 -43 61t-109 30q-93 0 -148 -67t-55 -181t55 -181q56 -68 148 -68
q70 0 109 31.5t48 63.5h131v-76q-15 -57 -90.5 -109t-199.5 -52z" />
    <glyph glyph-name="ccaron" unicode="&#x10d;" horiz-adv-x="545" 
d="M457 690l-90 -90h-150l-94 90v60h106l63 -73l59 73h106v-60zM300 -15q-127 0 -195.5 75t-68.5 191q0 115 72 192.5t192 77.5q27 0 52 -4t43 -11t34 -15.5t27.5 -18.5t20 -20t14.5 -18.5t9.5 -15.5l5.5 -11l1 -4v-67h-113q1 0 -1.5 5.5t-9 13.5t-16.5 16t-27.5 13.5
t-39.5 5.5q-55 0 -84 -39.5t-29 -99.5q0 -59 29 -97t84 -38q37 0 60.5 13.5t29.5 26.5l5 14h113v-67q-2 -5 -5.5 -13t-19.5 -28t-37 -35.5t-60 -28.5t-86 -13z" />
    <glyph glyph-name="Emacron" unicode="&#x112;" 
d="M474 805h-306v110h306v-110zM553 0h-471v750h471v-141h-305v-159h270v-130h-270v-179h305v-141z" />
    <glyph glyph-name="emacron" unicode="&#x113;" horiz-adv-x="583" 
d="M443 610h-286v116h286v-116zM308 -15q-131 0 -201.5 74t-70.5 192q0 115 71.5 192t194.5 77t184 -65.5t61 -172.5q0 -16 -1.5 -32t-3.5 -24l-2 -8h-352q7 -52 38.5 -82t84.5 -30q25 0 45.5 4.5t31.5 11.5t18.5 14t9.5 12l3 4h118v-67q-2 -4 -6.5 -11t-22.5 -24t-41.5 -30
t-66 -24t-92.5 -11zM191 309h211q0 39 -26 65t-75 26q-89 0 -110 -91z" />
    <glyph glyph-name="Ebreve" unicode="&#x114;" 
d="M319 790q-36 0 -65 7t-44.5 17t-26 20t-13.5 17l-4 7v75h80q0 -2 1.5 -4.5t7 -10t12.5 -13t21 -10t31 -4.5q28 0 45 10.5t20 20.5l4 11h80v-75q-1 -3 -3.5 -7.5t-13 -16t-25.5 -20.5t-43.5 -16.5t-63.5 -7.5zM553 0h-471v750h471v-141h-305v-159h270v-130h-270v-179h305
v-141z" />
    <glyph glyph-name="ebreve" unicode="&#x115;" horiz-adv-x="583" 
d="M302 588q-35 0 -63.5 7.5t-44.5 18t-27 21.5t-14.5 17.5t-3.5 7.5v75h80q2 -5 6.5 -12t23 -18.5t43.5 -11.5t42 10.5t22 20.5l5 11h80v-75q0 -1 -3.5 -7.5t-14.5 -17.5t-26.5 -21.5t-43 -18t-61.5 -7.5zM308 -15q-131 0 -201.5 74t-70.5 192q0 115 71.5 192t194.5 77
t184 -65.5t61 -172.5q0 -16 -1.5 -32t-3.5 -24l-2 -8h-352q7 -52 38.5 -82t84.5 -30q25 0 45.5 4.5t31.5 11.5t18.5 14t9.5 12l3 4h118v-67q-2 -4 -6.5 -11t-22.5 -24t-41.5 -30t-66 -24t-92.5 -11zM191 309h211q0 39 -26 65t-75 26q-89 0 -110 -91z" />
    <glyph glyph-name="Edotaccent" unicode="&#x116;" 
d="M406 800h-166v135h166v-135zM553 0h-471v750h471v-141h-305v-159h270v-130h-270v-179h305v-141z" />
    <glyph glyph-name="edotaccent" unicode="&#x117;" horiz-adv-x="583" 
d="M379 600h-156v140h156v-140zM308 -15q-131 0 -201.5 74t-70.5 192q0 115 71.5 192t194.5 77t184 -65.5t61 -172.5q0 -16 -1.5 -32t-3.5 -24l-2 -8h-352q7 -52 38.5 -82t84.5 -30q25 0 45.5 4.5t31.5 11.5t18.5 14t9.5 12l3 4h118v-67q-2 -4 -6.5 -11t-22.5 -24t-41.5 -30
t-66 -24t-92.5 -11zM191 309h211q0 39 -26 65t-75 26q-89 0 -110 -91z" />
    <glyph glyph-name="Eogonek" unicode="&#x118;" 
d="M364 -91q0 35 23 60t61 31h-366v750h471v-141h-305v-159h270v-130h-270v-179h305v-141h1q-57 -11 -57 -54q0 -53 73 -53v-85h-80q-31 2 -56.5 10t-47.5 31.5t-22 59.5z" />
    <glyph glyph-name="eogonek" unicode="&#x119;" horiz-adv-x="583" 
d="M518 -117v-75h-80q-31 2 -56.5 10t-47.5 31.5t-22 59.5q0 50 50 79q-51 -3 -54 -3q-131 0 -201.5 74t-70.5 192q0 115 71.5 192t194.5 77t184 -65.5t61 -172.5q0 -16 -1.5 -32t-3.5 -24l-2 -8h-352q7 -52 38.5 -82t84.5 -30q25 0 45.5 4.5t31.5 11.5t18.5 14t9.5 12l3 4
h118v-67q-12 -22 -41 -45q-51 -51 -51 -102q0 -29 24 -42t49 -13zM191 309h211q0 39 -26 65t-75 26q-89 0 -110 -91z" />
    <glyph glyph-name="Ecaron" unicode="&#x11a;" 
d="M496 880l-90 -80h-160l-94 80v60h116l58 -58l54 58h116v-60zM553 0h-471v750h471v-141h-305v-159h270v-130h-270v-179h305v-141z" />
    <glyph glyph-name="ecaron" unicode="&#x11b;" horiz-adv-x="583" 
d="M466 690l-90 -90h-150l-94 90v60h106l63 -73l59 73h106v-60zM308 -15q-131 0 -201.5 74t-70.5 192q0 115 71.5 192t194.5 77t184 -65.5t61 -172.5q0 -16 -1.5 -32t-3.5 -24l-2 -8h-352q7 -52 38.5 -82t84.5 -30q25 0 45.5 4.5t31.5 11.5t18.5 14t9.5 12l3 4h118v-67
q-2 -4 -6.5 -11t-22.5 -24t-41.5 -30t-66 -24t-92.5 -11zM191 309h211q0 39 -26 65t-75 26q-89 0 -110 -91z" />
    <glyph glyph-name="Gcircumflex" unicode="&#x11c;" horiz-adv-x="770" 
d="M584 800h-116l-56 58l-56 -58h-116v60l92 80h160l92 -80v-60zM428 -15q-179 0 -283 108t-104 282q0 171 104.5 280.5t278.5 109.5q127 0 202 -50t84 -104v-75h-130q-10 29 -48 58.5t-107 29.5q-101 0 -159.5 -69.5t-58.5 -178.5t60 -179t163 -70q69 0 129 25v130h-155
v128h310v-324q-22 -33 -100.5 -67t-185.5 -34z" />
    <glyph glyph-name="gcircumflex" unicode="&#x11d;" horiz-adv-x="642" 
d="M497 600h-106l-61 73l-61 -73h-106v60l92 90h150l92 -90v-60zM305 -260q-54 0 -98.5 14t-69.5 33t-42.5 39.5t-23.5 32.5t-6 14v67h121l2 -4q1 -3 4.5 -9t9.5 -13.5t15 -14.5t20.5 -13t28 -9.5t35.5 -3.5q63 0 95 39.5t32 106.5v54q-53 -78 -166 -78q-102 0 -163.5 74.5
t-61.5 184.5q0 114 63 190.5t166 76.5q53 0 96 -23.5t68 -63.5l8 71h141v-482q0 -129 -75.5 -206t-198.5 -77zM309 125q52 0 85.5 37.5t33.5 93.5q0 55 -33.5 92t-86.5 37q-55 0 -87.5 -36.5t-32.5 -92.5t32.5 -93.5t88.5 -37.5z" />
    <glyph glyph-name="Gbreve" unicode="&#x11e;" horiz-adv-x="770" 
d="M419 790q-36 0 -65 7t-44.5 17t-26 20t-13.5 17l-4 7v75h80q0 -2 1.5 -4.5t7 -10t12.5 -13t21 -10t31 -4.5q28 0 45 10.5t20 20.5l4 11h80v-75q-1 -3 -3.5 -7.5t-13 -16t-25.5 -20.5t-43.5 -16.5t-63.5 -7.5zM428 -15q-179 0 -283 108t-104 282q0 171 104.5 280.5
t278.5 109.5q127 0 202 -50t84 -104v-75h-130q-10 29 -48 58.5t-107 29.5q-101 0 -159.5 -69.5t-58.5 -178.5t60 -179t163 -70q69 0 129 25v130h-155v128h310v-324q-22 -33 -100.5 -67t-185.5 -34z" />
    <glyph glyph-name="gbreve" unicode="&#x11f;" horiz-adv-x="642" 
d="M326 588q-35 0 -63.5 7.5t-44.5 18t-27 21.5t-14.5 17.5t-3.5 7.5v75h80q2 -5 6.5 -12t23 -18.5t43.5 -11.5t42 10.5t22 20.5l5 11h80v-75q0 -1 -3.5 -7.5t-14.5 -17.5t-26.5 -21.5t-43 -18t-61.5 -7.5zM305 -260q-54 0 -98.5 14t-69.5 33t-42.5 39.5t-23.5 32.5t-6 14
v67h121l2 -4q1 -3 4.5 -9t9.5 -13.5t15 -14.5t20.5 -13t28 -9.5t35.5 -3.5q63 0 95 39.5t32 106.5v54q-53 -78 -166 -78q-102 0 -163.5 74.5t-61.5 184.5q0 114 63 190.5t166 76.5q53 0 96 -23.5t68 -63.5l8 71h141v-482q0 -129 -75.5 -206t-198.5 -77zM309 125
q52 0 85.5 37.5t33.5 93.5q0 55 -33.5 92t-86.5 37q-55 0 -87.5 -36.5t-32.5 -92.5t32.5 -93.5t88.5 -37.5z" />
    <glyph glyph-name="Gdotaccent" unicode="&#x120;" horiz-adv-x="770" 
d="M501 800h-166v135h166v-135zM428 -15q-179 0 -283 108t-104 282q0 171 104.5 280.5t278.5 109.5q127 0 202 -50t84 -104v-75h-130q-10 29 -48 58.5t-107 29.5q-101 0 -159.5 -69.5t-58.5 -178.5t60 -179t163 -70q69 0 129 25v130h-155v128h310v-324q-22 -33 -100.5 -67
t-185.5 -34z" />
    <glyph glyph-name="gdotaccent" unicode="&#x121;" horiz-adv-x="642" 
d="M411 600h-156v140h156v-140zM305 -260q-54 0 -98.5 14t-69.5 33t-42.5 39.5t-23.5 32.5t-6 14v67h121l2 -4q1 -3 4.5 -9t9.5 -13.5t15 -14.5t20.5 -13t28 -9.5t35.5 -3.5q63 0 95 39.5t32 106.5v54q-53 -78 -166 -78q-102 0 -163.5 74.5t-61.5 184.5q0 114 63 190.5
t166 76.5q53 0 96 -23.5t68 -63.5l8 71h141v-482q0 -129 -75.5 -206t-198.5 -77zM309 125q52 0 85.5 37.5t33.5 93.5q0 55 -33.5 92t-86.5 37q-55 0 -87.5 -36.5t-32.5 -92.5t32.5 -93.5t88.5 -37.5z" />
    <glyph glyph-name="uni0122" unicode="&#x122;" horiz-adv-x="770" 
d="M428 -15q-179 0 -283 108t-104 282q0 171 104.5 280.5t278.5 109.5q127 0 202 -50t84 -104v-75h-130q-10 29 -48 58.5t-107 29.5q-101 0 -159.5 -69.5t-58.5 -178.5t60 -179t163 -70q69 0 129 25v130h-155v128h310v-324q-22 -33 -100.5 -67t-185.5 -34zM457 -205h-96
l-5 153h156v-72z" />
    <glyph glyph-name="uni0123" unicode="&#x123;" horiz-adv-x="642" 
d="M303 763h96l5 -153h-156v72zM305 -260q-54 0 -98.5 14t-69.5 33t-42.5 39.5t-23.5 32.5t-6 14v67h121l2 -4q1 -3 4.5 -9t9.5 -13.5t15 -14.5t20.5 -13t28 -9.5t35.5 -3.5q63 0 95 39.5t32 106.5v54q-53 -78 -166 -78q-102 0 -163.5 74.5t-61.5 184.5q0 114 63 190.5
t166 76.5q53 0 96 -23.5t68 -63.5l8 71h141v-482q0 -129 -75.5 -206t-198.5 -77zM309 125q52 0 85.5 37.5t33.5 93.5q0 55 -33.5 92t-86.5 37q-55 0 -87.5 -36.5t-32.5 -92.5t32.5 -93.5t88.5 -37.5z" />
    <glyph glyph-name="Hcircumflex" unicode="&#x124;" horiz-adv-x="790" 
d="M567 800h-116l-56 58l-56 -58h-116v60l92 80h160l92 -80v-60zM248 0h-166v750h166v-295h294v295h166v-750h-166v315h-294v-315z" />
    <glyph glyph-name="hcircumflex" unicode="&#x125;" 
d="M476 800h-116l-56 58l-56 -58h-116v60l92 80h160l92 -80v-60zM215 0h-151v750h151v-307q20 32 58 54.5t90 22.5q93 0 137 -58t44 -148v-314h-150v286q0 99 -83 99q-54 0 -75 -32q-21 -31 -21 -69v-284z" />
    <glyph glyph-name="Itilde" unicode="&#x128;" horiz-adv-x="330" 
d="M242 792q-41 0 -65 15q-25 15 -53 15q-29 0 -35 -25h-100q-4 61 24.5 99t81.5 38q41 0 64 -15q21 -15 49 -15q29 0 34 25h100q4 -63 -21 -100t-79 -37zM249 0h-166v750h166v-750z" />
    <glyph glyph-name="itilde" unicode="&#x129;" horiz-adv-x="276" 
d="M216 599q-35 0 -69.5 17.5t-53.5 17.5q-27 0 -35 -30h-95q-4 61 24.5 99t81.5 38q35 0 67 -17t51 -17q29 0 34 29h95q4 -63 -21 -100t-79 -37zM214 0h-150v505h150v-505z" />
    <glyph glyph-name="Imacron" unicode="&#x12a;" horiz-adv-x="330" 
d="M318 805h-306v110h306v-110zM248 0h-166v750h166v-750z" />
    <glyph glyph-name="imacron" unicode="&#x12b;" horiz-adv-x="276" 
d="M281 610h-286v116h286v-116zM213 0h-150v505h150v-505z" />
    <glyph glyph-name="Ibreve" unicode="&#x12c;" horiz-adv-x="330" 
d="M166 790q-36 0 -65 7t-44.5 17t-26 20t-14.5 17l-3 7v75h80q0 -2 1.5 -4.5t7 -10t12.5 -13t21 -10t31 -4.5q28 0 45 10.5t21 20.5l3 11h80v-75q-1 -3 -3.5 -7.5t-13 -16t-25.5 -20.5t-43.5 -16.5t-63.5 -7.5zM248 0h-166v750h166v-750z" />
    <glyph glyph-name="ibreve" unicode="&#x12d;" horiz-adv-x="276" 
d="M140 588q-35 0 -63.5 7.5t-44.5 18t-27 21.5t-14.5 17.5t-3.5 7.5v75h80q2 -5 6.5 -12t23 -18.5t43.5 -11.5t42 10.5t22 20.5l5 11h80v-75q0 -1 -3.5 -7.5t-14.5 -17.5t-26.5 -21.5t-43 -18t-61.5 -7.5zM213 0h-150v505h150v-505z" />
    <glyph glyph-name="Iogonek" unicode="&#x12e;" horiz-adv-x="330" 
d="M58 -91q0 35 23 60t61 31h-60v750h166v-750q-57 -11 -57 -54q0 -53 73 -53v-85h-80q-31 2 -56.5 10t-47.5 31.5t-22 59.5z" />
    <glyph glyph-name="iogonek" unicode="&#x12f;" horiz-adv-x="278" 
d="M216 600h-156v140h156v-140zM19 -91q0 35 23 60t61 31h-39v505h150v-505h-5q-57 -11 -57 -54q0 -53 73 -53v-85h-80q-31 2 -56.5 10t-47.5 31.5t-22 59.5z" />
    <glyph glyph-name="Idotaccent" unicode="&#x130;" horiz-adv-x="330" 
d="M248 800h-166v135h166v-135zM248 0h-166v750h166v-750z" />
    <glyph glyph-name="dotlessi" unicode="&#x131;" horiz-adv-x="278" 
d="M214 0h-150v505h150v-505z" />
    <glyph glyph-name="uni0136" unicode="&#x136;" horiz-adv-x="694" 
d="M532 0l-284 326v-326h-166v750h166v-322l271 322h131v-75l-245 -285l273 -312v-78h-146zM403 -205h-96l-5 153h156v-72z" />
    <glyph glyph-name="uni0137" unicode="&#x137;" horiz-adv-x="555" 
d="M215 0h-151v750h151v-450l170 205h129v-67l-147 -174l167 -194v-70h-141l-178 218v-218zM321 -205h-96l-5 153h156v-72z" />
    <glyph glyph-name="Lacute" unicode="&#x139;" horiz-adv-x="569" 
d="M222 805h-136v60l72 80h156v-60zM548 0h-466v750h166v-609h300v-141z" />
    <glyph glyph-name="lacute" unicode="&#x13a;" horiz-adv-x="279" 
d="M191 805h-130v60l68 80h149v-60zM215 0h-151v750h151v-750z" />
    <glyph glyph-name="uni013B" unicode="&#x13b;" horiz-adv-x="569" 
d="M548 0h-466v750h166v-609h300v-141zM356 -205h-96l-5 153h156v-72z" />
    <glyph glyph-name="uni013C" unicode="&#x13c;" horiz-adv-x="279" 
d="M215 0h-151v750h151v-750zM158 -205h-92l-5 153h150v-72z" />
    <glyph glyph-name="Nacute" unicode="&#x143;" horiz-adv-x="795" 
d="M461 805h-136v60l72 80h156v-60zM238 0h-156v750h156l319 -477v477h156v-750h-156l-319 469v-469z" />
    <glyph glyph-name="nacute" unicode="&#x144;" 
d="M339 600h-123v60l77 90h144v-60zM215 0h-151v505h141l7 -67q19 33 58 57.5t93 24.5q93 0 137 -58t44 -148v-314h-150v286q0 99 -83 99q-54 0 -75 -32q-21 -31 -21 -69v-284z" />
    <glyph glyph-name="uni0145" unicode="&#x145;" horiz-adv-x="795" 
d="M238 0h-156v750h156l319 -477v477h156v-750h-156l-319 469v-469zM413 -205h-96l-5 153h156v-72z" />
    <glyph glyph-name="uni0146" unicode="&#x146;" 
d="M215 0h-151v505h141l7 -67q19 33 58 57.5t93 24.5q93 0 137 -58t44 -148v-314h-150v286q0 99 -83 99q-54 0 -75 -32q-21 -31 -21 -69v-284zM325 -205h-96l-5 153h156v-72z" />
    <glyph glyph-name="Ncaron" unicode="&#x147;" horiz-adv-x="795" 
d="M565 880l-90 -80h-160l-94 80v60h116l58 -58l54 58h116v-60zM238 0h-156v750h156l319 -477v477h156v-750h-156l-319 469v-469z" />
    <glyph glyph-name="ncaron" unicode="&#x148;" 
d="M452 690l-90 -90h-150l-94 90v60h106l63 -73l59 73h106v-60zM215 0h-151v505h141l7 -67q19 33 58 57.5t93 24.5q93 0 137 -58t44 -148v-314h-150v286q0 99 -83 99q-54 0 -75 -32q-21 -31 -21 -69v-284z" />
    <glyph glyph-name="Omacron" unicode="&#x14c;" horiz-adv-x="826" 
d="M563 805h-306v110h306v-110zM413 -15q-166 0 -269 110t-103 283q0 172 102.5 279.5t269.5 107.5t269.5 -107.5t102.5 -279.5q0 -173 -103 -283t-269 -110zM413 126q95 0 150 70q56 71 56 182q0 108 -56 178q-56 68 -150 68t-150 -68q-56 -70 -56 -178q0 -111 56 -182
q55 -70 150 -70z" />
    <glyph glyph-name="omacron" unicode="&#x14d;" horiz-adv-x="606" 
d="M449 610h-286v116h286v-116zM303 -15q-122 0 -194.5 77t-72.5 192q0 114 72.5 190t194.5 76t194.5 -76t72.5 -190q0 -115 -72.5 -192t-194.5 -77zM303 116q57 0 86.5 39t29.5 99q0 58 -30 96.5t-86 38.5t-86 -38.5t-30 -96.5q0 -60 29.5 -99t86.5 -39z" />
    <glyph glyph-name="Obreve" unicode="&#x14e;" horiz-adv-x="826" 
d="M411 790q-36 0 -65 7t-44.5 17t-26 20t-13.5 17l-4 7v75h80q0 -2 1.5 -4.5t7 -10t12.5 -13t21 -10t31 -4.5q28 0 45 10.5t20 20.5l4 11h80v-75q-1 -3 -3.5 -7.5t-13 -16t-25.5 -20.5t-43.5 -16.5t-63.5 -7.5zM413 -15q-166 0 -269 110t-103 283q0 172 102.5 279.5
t269.5 107.5t269.5 -107.5t102.5 -279.5q0 -173 -103 -283t-269 -110zM413 126q95 0 150 70q56 71 56 182q0 108 -56 178q-56 68 -150 68t-150 -68q-56 -70 -56 -178q0 -111 56 -182q55 -70 150 -70z" />
    <glyph glyph-name="obreve" unicode="&#x14f;" horiz-adv-x="606" 
d="M301 588q-35 0 -63.5 7.5t-44.5 18t-27 21.5t-14.5 17.5t-3.5 7.5v75h80q2 -5 6.5 -12t23 -18.5t43.5 -11.5t42 10.5t22 20.5l5 11h80v-75q0 -1 -3.5 -7.5t-14.5 -17.5t-26.5 -21.5t-43 -18t-61.5 -7.5zM303 -15q-122 0 -194.5 77t-72.5 192q0 114 72.5 190t194.5 76
t194.5 -76t72.5 -190q0 -115 -72.5 -192t-194.5 -77zM303 116q57 0 86.5 39t29.5 99q0 58 -30 96.5t-86 38.5t-86 -38.5t-30 -96.5q0 -60 29.5 -99t86.5 -39z" />
    <glyph glyph-name="Ohungarumlaut" unicode="&#x150;" horiz-adv-x="826" 
d="M367 803h-120v60l55 80h141l-14 -60zM565 803h-121v60l72 80h141v-60zM413 -15q-166 0 -269 110t-103 283q0 172 102.5 279.5t269.5 107.5t269.5 -107.5t102.5 -279.5q0 -173 -103 -283t-269 -110zM413 126q95 0 150 70q56 71 56 182q0 108 -56 178q-56 68 -150 68
t-150 -68q-56 -70 -56 -178q0 -111 56 -182q55 -70 150 -70z" />
    <glyph glyph-name="ohungarumlaut" unicode="&#x151;" horiz-adv-x="606" 
d="M265 600h-115v60l55 90h136l-13 -65zM453 600h-111v60l72 90h131v-60zM303 -15q-122 0 -194.5 77t-72.5 192q0 114 72.5 190t194.5 76t194.5 -76t72.5 -190q0 -115 -72.5 -192t-194.5 -77zM303 116q57 0 86.5 39t29.5 99q0 58 -30 96.5t-86 38.5t-86 -38.5t-30 -96.5
q0 -60 29.5 -99t86.5 -39z" />
    <glyph glyph-name="Racute" unicode="&#x154;" horiz-adv-x="682" 
d="M374 805h-136v60l72 80h156v-60zM248 264v-264h-166v750h246q130 0 207 -65t77 -174q0 -68 -35.5 -122t-99.5 -84l173 -227v-78h-143l-192 264h-67zM245 609v-211h82q55 0 87 30.5t32 80.5q0 44 -31.5 72t-87.5 28h-82z" />
    <glyph glyph-name="racute" unicode="&#x155;" horiz-adv-x="481" 
d="M329 600h-123v60l77 90h144v-60zM215 0h-151v505h141l7 -66q18 34 52.5 57.5t82.5 23.5q56 0 88.5 -29t38.5 -78v-72h-115l-1 5q-2 5 -6 12.5t-10.5 14.5t-19 12t-29.5 5q-38 0 -58 -30t-20 -78v-282z" />
    <glyph glyph-name="uni0156" unicode="&#x156;" horiz-adv-x="682" 
d="M248 264v-264h-166v750h246q130 0 207 -65t77 -174q0 -68 -35.5 -122t-99.5 -84l173 -227v-78h-143l-192 264h-67zM245 609v-211h82q55 0 87 30.5t32 80.5q0 44 -31.5 72t-87.5 28h-82zM399 -205h-96l-5 153h156v-72z" />
    <glyph glyph-name="uni0157" unicode="&#x157;" horiz-adv-x="481" 
d="M215 0h-151v505h141l7 -66q18 34 52.5 57.5t82.5 23.5q56 0 88.5 -29t38.5 -78v-72h-115l-1 5q-2 5 -6 12.5t-10.5 14.5t-19 12t-29.5 5q-38 0 -58 -30t-20 -78v-282zM163 -205h-92l-5 153h150v-72z" />
    <glyph glyph-name="Rcaron" unicode="&#x158;" horiz-adv-x="682" 
d="M493 880l-90 -80h-160l-94 80v60h116l58 -58l54 58h116v-60zM248 264v-264h-166v750h246q130 0 207 -65t77 -174q0 -68 -35.5 -122t-99.5 -84l173 -227v-78h-143l-192 264h-67zM245 609v-211h82q55 0 87 30.5t32 80.5q0 44 -31.5 72t-87.5 28h-82z" />
    <glyph glyph-name="rcaron" unicode="&#x159;" horiz-adv-x="481" 
d="M424 690l-90 -90h-150l-94 90v60h106l63 -73l59 73h106v-60zM215 0h-151v505h141l7 -66q18 34 52.5 57.5t82.5 23.5q56 0 88.5 -29t38.5 -78v-72h-115l-1 5q-2 5 -6 12.5t-10.5 14.5t-19 12t-29.5 5q-38 0 -58 -30t-20 -78v-282z" />
    <glyph glyph-name="Sacute" unicode="&#x15a;" horiz-adv-x="646" 
d="M387 805h-136v60l72 80h156v-60zM324 -15q-117 0 -184 45q-68 45 -92 107v75h131q33 -91 148 -91q53 0 85 23.5t32 64.5q0 37 -26.5 59t-83.5 35l-69 13q-103 21 -158 76.5t-55 144.5q0 107 75 168q75 60 198 60q103 0 170.5 -40t83.5 -109v-76h-130q-23 89 -128 89
q-51 0 -79.5 -23t-28.5 -60q0 -62 100 -84l72 -16q105 -22 162.5 -79.5t57.5 -148.5q0 -106 -78 -169.5t-203 -63.5z" />
    <glyph glyph-name="sacute" unicode="&#x15b;" horiz-adv-x="508" 
d="M305 600h-123v60l77 90h144v-60zM258 -15q-91 0 -149.5 33.5t-69.5 66.5v68h113q3 -16 33 -37t75 -21q78 0 78 48q0 23 -19 34t-58 18l-64 8q-151 20 -151 151q0 73 56 119.5t150 46.5q82 0 132 -27t67 -69v-68h-114q-4 16 -26 35t-62 19q-68 0 -68 -48q0 -38 64 -49
l64 -9q164 -22 164 -148q0 -76 -57.5 -123.5t-157.5 -47.5z" />
    <glyph glyph-name="Scircumflex" unicode="&#x15c;" horiz-adv-x="646" 
d="M495 800h-116l-56 58l-56 -58h-116v60l92 80h160l92 -80v-60zM324 -15q-117 0 -184 45q-68 45 -92 107v75h131q33 -91 148 -91q53 0 85 23.5t32 64.5q0 37 -26.5 59t-83.5 35l-69 13q-103 21 -158 76.5t-55 144.5q0 107 75 168q75 60 198 60q103 0 170.5 -40t83.5 -109
v-76h-130q-23 89 -128 89q-51 0 -79.5 -23t-28.5 -60q0 -62 100 -84l72 -16q105 -22 162.5 -79.5t57.5 -148.5q0 -106 -78 -169.5t-203 -63.5z" />
    <glyph glyph-name="scircumflex" unicode="&#x15d;" horiz-adv-x="508" 
d="M425 600h-106l-61 73l-61 -73h-106v60l92 90h150l92 -90v-60zM258 -15q-91 0 -149.5 33.5t-69.5 66.5v68h113q3 -16 33 -37t75 -21q78 0 78 48q0 23 -19 34t-58 18l-64 8q-151 20 -151 151q0 73 56 119.5t150 46.5q82 0 132 -27t67 -69v-68h-114q-4 16 -26 35t-62 19
q-68 0 -68 -48q0 -38 64 -49l64 -9q164 -22 164 -148q0 -76 -57.5 -123.5t-157.5 -47.5z" />
    <glyph glyph-name="Scedilla" unicode="&#x15e;" horiz-adv-x="646" 
d="M462 -123q0 -90 -124 -101h-85v80q68 0 68 36q0 35 -64 35v63q-81 12 -134 52t-75 95v75h131q33 -91 148 -91q53 0 85 23.5t32 64.5q0 37 -26.5 59t-83.5 35l-69 13q-103 21 -158 76.5t-55 144.5q0 107 75 168q75 60 198 60q103 0 170.5 -40t83.5 -109v-76h-130
q-23 89 -128 89q-51 0 -79.5 -23t-28.5 -60q0 -62 100 -84l72 -16q105 -22 162.5 -79.5t57.5 -148.5q0 -94 -62 -155.5t-165 -74.5v-28q38 -6 61 -28t23 -55z" />
    <glyph glyph-name="scedilla" unicode="&#x15f;" horiz-adv-x="508" 
d="M398 -122q0 -90 -124 -101h-85v80q68 0 68 36q0 35 -64 35v62q-73 14 -109 44q-38 32 -45 51v68h113q3 -16 33 -37t75 -21q78 0 78 48q0 23 -19 34t-58 18l-64 8q-151 20 -151 151q0 73 56 119.5t150 46.5q82 0 132 -27t67 -69v-68h-114q-4 16 -26 35t-62 19
q-68 0 -68 -48q0 -38 64 -49l64 -9q164 -22 164 -148q0 -64 -42.5 -109t-116.5 -58v-28q38 -6 61 -28t23 -55z" />
    <glyph glyph-name="Scaron" unicode="&#x160;" horiz-adv-x="646" 
d="M498 880l-90 -80h-160l-94 80v60h116l58 -58l54 58h116v-60zM324 -15q-117 0 -184 45q-68 45 -92 107v75h131q33 -91 148 -91q53 0 85 23.5t32 64.5q0 37 -26.5 59t-83.5 35l-69 13q-103 21 -158 76.5t-55 144.5q0 107 75 168q75 60 198 60q103 0 170.5 -40t83.5 -109
v-76h-130q-23 89 -128 89q-51 0 -79.5 -23t-28.5 -60q0 -62 100 -84l72 -16q105 -22 162.5 -79.5t57.5 -148.5q0 -106 -78 -169.5t-203 -63.5z" />
    <glyph glyph-name="scaron" unicode="&#x161;" horiz-adv-x="508" 
d="M420 690l-90 -90h-150l-94 90v60h106l63 -73l59 73h106v-60zM258 -15q-91 0 -149.5 33.5t-69.5 66.5v68h113q3 -16 33 -37t75 -21q78 0 78 48q0 23 -19 34t-58 18l-64 8q-151 20 -151 151q0 73 56 119.5t150 46.5q82 0 132 -27t67 -69v-68h-114q-4 16 -26 35t-62 19
q-68 0 -68 -48q0 -38 64 -49l64 -9q164 -22 164 -148q0 -76 -57.5 -123.5t-157.5 -47.5z" />
    <glyph glyph-name="uni0162" unicode="&#x162;" horiz-adv-x="635" 
d="M400 0h-166v609h-214v141h595v-141h-215v-609zM342 -205h-96l-5 153h156v-72z" />
    <glyph glyph-name="uni0163" unicode="&#x163;" horiz-adv-x="475" 
d="M292 -15q-92 0 -143.5 51.5t-51.5 142.5v203h-75v123h77l8 128h141v-128h200v-123h-200v-198q0 -74 56 -74q26 0 37 13t11 26h108v-68q-38 -96 -168 -96zM315 -205h-96l-5 153h156v-72z" />
    <glyph glyph-name="Utilde" unicode="&#x168;" horiz-adv-x="759" 
d="M460 792q-41 0 -65 15q-25 15 -53 15q-29 0 -35 -25h-100q-4 61 24.5 99t81.5 38q41 0 64 -15q21 -15 49 -15q29 0 34 25h100q4 -63 -21 -100t-79 -37zM383 -15q-138 0 -223.5 83.5t-85.5 206.5v475h166v-476q0 -63 38.5 -105.5t103.5 -42.5q68 0 107.5 42.5t39.5 105.5
v476h156v-475q0 -123 -84 -206.5t-218 -83.5z" />
    <glyph glyph-name="utilde" unicode="&#x169;" horiz-adv-x="599" 
d="M377 599q-35 0 -69.5 17.5t-53.5 17.5q-27 0 -35 -30h-95q-4 61 24.5 99t81.5 38q35 0 67 -17t51 -17q29 0 34 29h95q4 -63 -21 -100t-79 -37zM241 -15q-94 0 -138 58t-44 148v314h151v-286q0 -99 80 -99q53 0 74 32q20 32 20 69v284h151v-505h-141l-7 67
q-19 -33 -56.5 -57.5t-89.5 -24.5z" />
    <glyph glyph-name="Umacron" unicode="&#x16a;" horiz-adv-x="759" 
d="M538 805h-306v110h306v-110zM383 -15q-138 0 -223.5 83.5t-85.5 206.5v475h166v-476q0 -63 38.5 -105.5t103.5 -42.5q68 0 107.5 42.5t39.5 105.5v476h156v-475q0 -123 -84 -206.5t-218 -83.5z" />
    <glyph glyph-name="umacron" unicode="&#x16b;" horiz-adv-x="599" 
d="M440 610h-286v116h286v-116zM241 -15q-94 0 -138 58t-44 148v314h151v-286q0 -99 80 -99q53 0 74 32q20 32 20 69v284h151v-505h-141l-7 67q-19 -33 -56.5 -57.5t-89.5 -24.5z" />
    <glyph glyph-name="Ubreve" unicode="&#x16c;" horiz-adv-x="759" 
d="M384 790q-36 0 -65 7t-44.5 17t-26 20t-14.5 17l-3 7v75h80q0 -2 1.5 -4.5t7 -10t12.5 -13t21 -10t31 -4.5q28 0 45 10.5t21 20.5l3 11h80v-75q-1 -3 -3.5 -7.5t-13 -16t-25.5 -20.5t-43.5 -16.5t-63.5 -7.5zM383 -15q-138 0 -223.5 83.5t-85.5 206.5v475h166v-476
q0 -63 38.5 -105.5t103.5 -42.5q68 0 107.5 42.5t39.5 105.5v476h156v-475q0 -123 -84 -206.5t-218 -83.5z" />
    <glyph glyph-name="ubreve" unicode="&#x16d;" horiz-adv-x="599" 
d="M296 588q-35 0 -63.5 7.5t-44.5 18t-27 21.5t-14.5 17.5t-3.5 7.5v75h80q2 -5 6.5 -12t23 -18.5t43.5 -11.5t42 10.5t22 20.5l5 11h80v-75q0 -1 -3.5 -7.5t-14.5 -17.5t-26.5 -21.5t-43 -18t-61.5 -7.5zM241 -15q-94 0 -138 58t-44 148v314h151v-286q0 -99 80 -99
q53 0 74 32q20 32 20 69v284h151v-505h-141l-7 67q-19 -33 -56.5 -57.5t-89.5 -24.5z" />
    <glyph glyph-name="Uring" unicode="&#x16e;" horiz-adv-x="759" 
d="M382 783q-67 0 -102.5 25.5t-35.5 67.5t35.5 67.5t102.5 25.5q68 0 103.5 -25.5t35.5 -67.5t-35.5 -67.5t-103.5 -25.5zM382 849q17 0 28.5 7.5t11.5 19.5t-11.5 19.5t-28.5 7.5t-28.5 -7.5t-11.5 -19.5t11.5 -19.5t28.5 -7.5zM383 -15q-138 0 -223.5 83.5t-85.5 206.5
v475h166v-476q0 -63 38.5 -105.5t103.5 -42.5q68 0 107.5 42.5t39.5 105.5v476h156v-475q0 -123 -84 -206.5t-218 -83.5z" />
    <glyph glyph-name="uring" unicode="&#x16f;" horiz-adv-x="599" 
d="M295 567q-65 0 -99 27t-34 69t34 69t99 27t99.5 -27t34.5 -69t-34.5 -69t-99.5 -27zM295 633q15 0 25 8t10 22t-10 22t-25 8q-14 0 -24.5 -8t-10.5 -22t10.5 -22t24.5 -8zM241 -15q-94 0 -138 58t-44 148v314h151v-286q0 -99 80 -99q53 0 74 32q20 32 20 69v284h151v-505
h-141l-7 67q-19 -33 -56.5 -57.5t-89.5 -24.5z" />
    <glyph glyph-name="Uhungarumlaut" unicode="&#x170;" horiz-adv-x="759" 
d="M335 805h-120v60l55 80h141l-14 -60zM533 805h-121v60l72 80h141v-60zM383 -15q-138 0 -223.5 83.5t-85.5 206.5v475h166v-476q0 -63 38.5 -105.5t103.5 -42.5q68 0 107.5 42.5t39.5 105.5v476h156v-475q0 -123 -84 -206.5t-218 -83.5z" />
    <glyph glyph-name="uhungarumlaut" unicode="&#x171;" horiz-adv-x="599" 
d="M262 600h-115v60l55 90h136l-13 -65zM450 600h-111v60l72 90h131v-60zM241 -15q-94 0 -138 58t-44 148v314h151v-286q0 -99 80 -99q53 0 74 32q20 32 20 69v284h151v-505h-141l-7 67q-19 -33 -56.5 -57.5t-89.5 -24.5z" />
    <glyph glyph-name="Uogonek" unicode="&#x172;" horiz-adv-x="759" 
d="M489 -107v-85h-80q-31 2 -56.5 10t-47.5 31.5t-22 59.5q0 57 56 78q-120 14 -192.5 95t-72.5 193v475h166v-476q0 -63 38.5 -105.5t103.5 -42.5q68 0 107.5 42.5t39.5 105.5v476h156v-475q0 -102 -60.5 -179.5t-161.5 -101.5q-25 -9 -36 -20.5t-11 -31.5q0 -49 73 -49z
" />
    <glyph glyph-name="uogonek" unicode="&#x173;" horiz-adv-x="599" 
d="M345 -91q0 35 23 60t61 31h-35l-7 67q-19 -33 -56.5 -57.5t-89.5 -24.5q-94 0 -138 58t-44 148v314h151v-286q0 -99 80 -99q53 0 74 32q20 32 20 69v284h151v-505q-57 -11 -57 -54q0 -53 73 -53v-85h-80q-31 2 -56.5 10t-47.5 31.5t-22 59.5z" />
    <glyph glyph-name="Wcircumflex" unicode="&#x174;" horiz-adv-x="1000" 
d="M676 800h-116l-56 58l-56 -58h-116v60l92 80h160l92 -80v-60zM797 0h-169l-129 458l-127 -458h-169l-179 670v80h154l119 -515l137 515h141l133 -515l124 515h146v-70z" />
    <glyph glyph-name="wcircumflex" unicode="&#x175;" horiz-adv-x="800" 
d="M575 600h-106l-61 73l-61 -73h-106v60l92 90h150l92 -90v-60zM624 0h-136l-92 291l-86 -291h-136l-151 435v70h136l93 -301l91 301h124l94 -300l90 300h128v-67z" />
    <glyph glyph-name="Ycircumflex" unicode="&#x176;" horiz-adv-x="662" 
d="M504 800h-116l-56 58l-56 -58h-116v60l92 80h160l92 -80v-60zM415 0h-166v300l-242 372v78h146l190 -304l178 304h130v-75l-236 -376v-299z" />
    <glyph glyph-name="ycircumflex" unicode="&#x177;" horiz-adv-x="556" 
d="M455 600h-106l-61 73l-61 -73h-106v60l92 90h150l92 -90v-60zM544 438l-340 -688h-128v70l126 226l-182 389v70h136l129 -296l134 296h125v-67z" />
    <glyph glyph-name="Ydieresis" unicode="&#x178;" horiz-adv-x="662" 
d="M307 800h-150v135h150v-135zM513 800h-151v135h151v-135zM415 0h-166v300l-242 372v78h146l190 -304l178 304h130v-75l-236 -376v-299z" />
    <glyph glyph-name="Zacute" unicode="&#x179;" horiz-adv-x="643" 
d="M383 805h-136v60l72 80h156v-60zM603 141v-141h-562v131l356 478h-346v141h541v-131l-355 -478h366z" />
    <glyph glyph-name="zacute" unicode="&#x17a;" horiz-adv-x="503" 
d="M309 600h-123v60l77 90h144v-60zM462 123v-123h-421v113l236 269h-231v123h411v-113l-236 -269h241z" />
    <glyph glyph-name="Zdotaccent" unicode="&#x17b;" horiz-adv-x="643" 
d="M403 800h-166v135h166v-135zM603 141v-141h-562v131l356 478h-346v141h541v-131l-355 -478h366z" />
    <glyph glyph-name="zdotaccent" unicode="&#x17c;" horiz-adv-x="503" 
d="M336 600h-156v140h156v-140zM462 123v-123h-421v113l236 269h-231v123h411v-113l-236 -269h241z" />
    <glyph glyph-name="Zcaron" unicode="&#x17d;" horiz-adv-x="643" 
d="M500 880l-90 -80h-160l-94 80v60h116l58 -58l54 58h116v-60zM603 141v-141h-562v131l356 478h-346v141h541v-131l-355 -478h366z" />
    <glyph glyph-name="zcaron" unicode="&#x17e;" horiz-adv-x="503" 
d="M422 690l-90 -90h-150l-94 90v60h106l63 -73l59 73h106v-60zM462 123v-123h-421v113l236 269h-231v123h411v-113l-236 -269h241z" />
    <glyph glyph-name="Aringacute" unicode="&#x1fa;" horiz-adv-x="706" 
d="M420 1009h-136v60l72 80h156v-60zM350 785q-67 0 -102.5 25.5t-35.5 67.5t35.5 67.5t102.5 25.5q68 0 103.5 -25.5t35.5 -67.5t-35.5 -67.5t-103.5 -25.5zM350 851q17 0 28.5 7.5t11.5 19.5t-11.5 19.5t-28.5 7.5t-28.5 -7.5t-11.5 -19.5t11.5 -19.5t28.5 -7.5zM203 159
l-57 -159h-133v70l255 680h169l254 -670v-80h-144l-58 159h-286zM249 295h196l-98 276z" />
    <glyph glyph-name="aringacute" unicode="&#x1fb;" horiz-adv-x="551" 
d="M351 809h-136v60l72 80h156v-60zM283 568q-65 0 -99 27t-34 69t34 69t99 27t99.5 -27t34.5 -69t-34.5 -69t-99.5 -27zM283 634q15 0 25 8t10 22t-10 22t-25 8q-14 0 -24.5 -8t-10.5 -22t10.5 -22t24.5 -8zM197 -15q-83 0 -124 47q-42 46 -42 110q0 74 54.5 115.5
t162.5 41.5q23 0 46.5 -2.5t35.5 -4.5l12 -3v22q0 84 -83 84q-18 0 -33.5 -4.5t-24.5 -11.5t-16 -14t-9 -11l-3 -5h-114v67l1 1q29 60 105 87q43 16 97 16q114 0 172.5 -54.5t58.5 -159.5v-306h-136l-10 64q-48 -79 -150 -79zM246 101q49 0 73 28q23 28 23 54v22
q-35 8 -84 8q-78 0 -78 -57q0 -55 66 -55z" />
    <glyph glyph-name="uni0218" unicode="&#x218;" horiz-adv-x="646" 
d="M324 -15q-117 0 -184 45q-68 45 -92 107v75h131q33 -91 148 -91q53 0 85 23.5t32 64.5q0 37 -26.5 59t-83.5 35l-69 13q-103 21 -158 76.5t-55 144.5q0 107 75 168q75 60 198 60q103 0 170.5 -40t83.5 -109v-76h-130q-23 89 -128 89q-51 0 -79.5 -23t-28.5 -60
q0 -62 100 -84l72 -16q105 -22 162.5 -79.5t57.5 -148.5q0 -106 -78 -169.5t-203 -63.5zM356 -205h-96l-5 153h156v-72z" />
    <glyph glyph-name="uni0219" unicode="&#x219;" horiz-adv-x="508" 
d="M258 -15q-91 0 -149.5 33.5t-69.5 66.5v68h113q3 -16 33 -37t75 -21q78 0 78 48q0 23 -19 34t-58 18l-64 8q-151 20 -151 151q0 73 56 119.5t150 46.5q82 0 132 -27t67 -69v-68h-114q-4 16 -26 35t-62 19q-68 0 -68 -48q0 -38 64 -49l64 -9q164 -22 164 -148
q0 -76 -57.5 -123.5t-157.5 -47.5zM286 -205h-96l-5 153h156v-72z" />
    <glyph glyph-name="uni0401" unicode="&#x401;" 
d="M291 800h-150v135h150v-135zM497 800h-151v135h151v-135zM553 0h-471v750h471v-141h-305v-159h270v-130h-270v-179h305v-141z" />
    <glyph glyph-name="uni0403" unicode="&#x403;" horiz-adv-x="559" 
d="M388 805h-136v60l72 80h156v-60zM248 0h-166v750h456v-141h-290v-609z" />
    <glyph glyph-name="uni040E" unicode="&#x40e;" horiz-adv-x="656" 
d="M343 804q-73 0 -116.5 26t-56.5 52v66h116q0 -16 14 -37t43 -21q26 0 41.5 21.5t15.5 36.5h116v-66q-13 -26 -56 -52t-117 -26zM649 675l-355 -675h-131v75l88 154l-239 443v78h146l185 -350l175 350h131v-75z" />
    <glyph glyph-name="uni0410" unicode="&#x410;" horiz-adv-x="706" 
d="M203 159l-57 -159h-133v70l255 680h169l254 -670v-80h-144l-58 159h-286zM249 295h196l-98 276z" />
    <glyph glyph-name="uni0411" unicode="&#x411;" horiz-adv-x="662" 
d="M348 0h-266v750h490v-141h-324v-139h100q132 0 208 -63.5t76 -163.5q0 -105 -75.5 -174t-208.5 -69zM245 342v-204h102q55 0 87 27.5t32 77.5q0 44 -32 71.5t-87 27.5h-102z" />
    <glyph glyph-name="uni0412" unicode="&#x412;" horiz-adv-x="687" 
d="M385 0h-303v750h299q108 0 172.5 -55t64.5 -146q0 -54 -27 -96t-73 -60q60 -19 94 -64t34 -105q0 -103 -70 -163.5t-191 -60.5zM241 618v-170h114q47 0 74 22.5t27 61.5t-26 62.5t-71 23.5h-118zM241 322v-190h127q54 0 84.5 28t30.5 70q0 41 -29.5 66.5t-84.5 25.5h-128
z" />
    <glyph glyph-name="uni0413" unicode="&#x413;" horiz-adv-x="559" 
d="M248 0h-166v750h456v-141h-290v-609z" />
    <glyph glyph-name="uni0414" unicode="&#x414;" horiz-adv-x="816" 
d="M162 -150h-151v291h61q13 11 29.5 40t34.5 97t20 151l9 321h522v-609h105v-291h-151v150h-479v-150zM239 141h282v468h-209l-6 -188q-4 -82 -18 -147t-26 -91.5t-23 -41.5z" />
    <glyph glyph-name="uni0415" unicode="&#x415;" 
d="M553 0h-471v750h471v-141h-305v-159h270v-130h-270v-179h305v-141z" />
    <glyph glyph-name="uni0416" unicode="&#x416;" horiz-adv-x="1011" 
d="M425 0v326l-259 -326h-143v78l245 307l-228 288v77h135l250 -321v321h161v-321l251 321h131v-75l-226 -283l249 -314v-78h-146l-259 326v-326h-161z" />
    <glyph glyph-name="uni0417" unicode="&#x417;" horiz-adv-x="626" 
d="M311 -15q-52 0 -96.5 11t-74.5 28t-53 38.5t-34 41.5t-15 38v75h131q3 -31 37.5 -63t99.5 -32q56 0 86.5 27.5t30.5 73.5q0 45 -30.5 71t-91.5 26h-90v126h78q51 0 79 27t28 69q0 39 -29 63t-72 24q-56 0 -83.5 -27.5t-30.5 -58.5h-131v75q5 22 20.5 45t44 47t78 39.5
t110.5 15.5q114 0 183.5 -55t69.5 -152q0 -54 -28.5 -97t-78.5 -64q63 -16 99 -63.5t36 -113.5q0 -104 -71 -169q-72 -66 -202 -66z" />
    <glyph glyph-name="uni0418" unicode="&#x418;" horiz-adv-x="804" 
d="M248 0h-166v750h166v-498l309 498h165v-750h-165v494z" />
    <glyph glyph-name="uni0419" unicode="&#x419;" horiz-adv-x="804" 
d="M406 804q-73 0 -116.5 26t-56.5 52v66h116q0 -16 14 -37t43 -21q26 0 41.5 21.5t15.5 36.5h116v-66q-13 -26 -56 -52t-117 -26zM248 0h-166v750h166v-498l309 498h165v-750h-165v494z" />
    <glyph glyph-name="uni041A" unicode="&#x41a;" horiz-adv-x="694" 
d="M532 0l-284 326v-326h-166v750h166v-322l271 322h131v-75l-245 -285l273 -312v-78h-146z" />
    <glyph glyph-name="uni041B" unicode="&#x41b;" horiz-adv-x="736" 
d="M70 0h-51v152h26q47 0 69.5 59t25.5 185l7 354h507v-750h-166v609h-193l-4 -218q-4 -183 -51 -287q-48 -104 -170 -104z" />
    <glyph glyph-name="uni041C" unicode="&#x41c;" horiz-adv-x="931" 
d="M516 159h-111l-167 353v-512h-156v750h204l182 -382l178 382h203v-750h-165v512z" />
    <glyph glyph-name="uni041D" unicode="&#x41d;" horiz-adv-x="790" 
d="M248 0h-166v750h166v-295h294v295h166v-750h-166v315h-294v-315z" />
    <glyph glyph-name="uni041E" unicode="&#x41e;" horiz-adv-x="826" 
d="M413 -15q-166 0 -269 110t-103 283q0 172 102.5 279.5t269.5 107.5t269.5 -107.5t102.5 -279.5q0 -173 -103 -283t-269 -110zM413 126q95 0 150 70q56 71 56 182q0 108 -56 178q-56 68 -150 68t-150 -68q-56 -70 -56 -178q0 -111 56 -182q55 -70 150 -70z" />
    <glyph glyph-name="uni041F" unicode="&#x41f;" horiz-adv-x="780" 
d="M248 0h-166v750h616v-750h-166v609h-284v-609z" />
    <glyph glyph-name="uni0420" unicode="&#x420;" horiz-adv-x="643" 
d="M248 0h-166v750h241q132 0 211 -67q78 -67 78 -180q0 -106 -76 -182t-213 -76h-75v-245zM245 612v-229h77q57 0 90.5 32.5t33.5 86.5q0 49 -33 79.5t-91 30.5h-77z" />
    <glyph glyph-name="uni0421" unicode="&#x421;" horiz-adv-x="729" 
d="M409 -15q-170 0 -268.5 107.5t-98.5 282.5q0 176 100.5 283t266.5 107q70 0 126.5 -17t88 -43t48.5 -50.5t22 -45.5v-76h-131q-5 31 -43 61t-109 30q-93 0 -148 -67t-55 -181t55 -181q56 -68 148 -68q70 0 109 31.5t48 63.5h131v-76q-15 -57 -90.5 -109t-199.5 -52z" />
    <glyph glyph-name="uni0422" unicode="&#x422;" horiz-adv-x="635" 
d="M400 0h-166v609h-214v141h595v-141h-215v-609z" />
    <glyph glyph-name="uni0423" unicode="&#x423;" horiz-adv-x="656" 
d="M649 675l-355 -675h-131v75l88 154l-239 443v78h146l185 -350l175 350h131v-75z" />
    <glyph glyph-name="uni0424" unicode="&#x424;" horiz-adv-x="892" 
d="M529 -10h-166v79q-146 2 -238 91.5t-92 217.5q0 127 92 216t238 91v75h166v-75q146 -2 238 -91.5t92 -217.5q0 -127 -92 -216t-238 -91v-79zM363 203v349q-80 -3 -124 -54q-43 -50 -43 -120q0 -71 43 -121q44 -51 124 -54zM529 551v-349q80 3 124 54q43 50 43 120
q0 71 -43 121q-44 51 -124 54z" />
    <glyph glyph-name="uni0425" unicode="&#x425;" horiz-adv-x="690" 
d="M158 0h-131v75l220 305l-209 292v78h146l173 -250l162 250h131v-75l-205 -290l219 -307v-78h-146l-181 264z" />
    <glyph glyph-name="uni0426" unicode="&#x426;" horiz-adv-x="829" 
d="M803 -150h-151v150h-570v750h166v-609h284v609h166v-609h105v-291z" />
    <glyph glyph-name="uni0427" unicode="&#x427;" horiz-adv-x="715" 
d="M633 0h-166v274h-117q-154 0 -231 69.5t-77 219.5v187h166v-187q0 -78 34.5 -114.5t109.5 -36.5h115v338h166v-750z" />
    <glyph glyph-name="uni0428" unicode="&#x428;" horiz-adv-x="1050" 
d="M968 0h-886v750h166v-609h194v609h166v-609h194v609h166v-750z" />
    <glyph glyph-name="uni0429" unicode="&#x429;" horiz-adv-x="1099" 
d="M1073 -150h-151v150h-840v750h166v-609h194v609h166v-609h194v609h166v-609h105v-291z" />
    <glyph glyph-name="uni042A" unicode="&#x42a;" horiz-adv-x="746" 
d="M432 0h-252v609h-160v141h326v-245h86q134 0 211 -70t77 -177q0 -111 -76.5 -184.5t-211.5 -73.5zM343 367v-229h88q57 0 90 32t33 86q0 47 -33.5 79t-89.5 32h-88z" />
    <glyph glyph-name="uni042B" unicode="&#x42b;" horiz-adv-x="939" 
d="M333 0h-251v750h166v-245h85q134 0 211.5 -70t77.5 -177q0 -111 -76.5 -184.5t-212.5 -73.5zM857 0h-166v750h166v-750zM245 367v-229h87q57 0 90.5 32t33.5 86q0 48 -33.5 79.5t-90.5 31.5h-87z" />
    <glyph glyph-name="uni042C" unicode="&#x42c;" horiz-adv-x="648" 
d="M333 0h-251v750h166v-245h85q134 0 211.5 -70t77.5 -177q0 -111 -76.5 -184.5t-212.5 -73.5zM245 367v-229h87q57 0 90.5 32t33.5 86q0 48 -33.5 79.5t-90.5 31.5h-87z" />
    <glyph glyph-name="uni042D" unicode="&#x42d;" horiz-adv-x="737" 
d="M338 -15q-124 0 -203 50.5t-96 110.5v76h130q10 -30 51.5 -62.5t116.5 -32.5q84 0 131.5 50t56.5 138h-293v131h293q-9 83 -56 130.5t-129 47.5q-73 0 -115 -31.5t-48 -59.5h-131v76q5 20 24 44t52 50.5t91 44t127 17.5q165 0 260 -107t95 -281q0 -177 -94.5 -284.5
t-262.5 -107.5z" />
    <glyph glyph-name="uni042E" unicode="&#x42e;" horiz-adv-x="1083" 
d="M684 -15q-145 0 -240 91.5t-113 238.5h-83v-315h-166v750h166v-295h86q21 138 115.5 224t234.5 86q161 0 259 -108.5t98 -278.5q0 -171 -98 -282t-259 -111zM684 126q89 0 140.5 70.5t51.5 181.5q0 108 -52 177t-140 69t-139.5 -69t-51.5 -177q0 -111 51.5 -181.5
t139.5 -70.5z" />
    <glyph glyph-name="uni042F" unicode="&#x42f;" horiz-adv-x="685" 
d="M437 0v270h-77l-187 -270h-138v78l167 230q-62 22 -100.5 76.5t-38.5 125.5q0 110 77 175t204 65h259v-750h-166zM345 403h95v209h-95q-54 0 -85 -28.5t-31 -74.5q0 -47 31.5 -76.5t84.5 -29.5z" />
    <glyph glyph-name="uni0430" unicode="&#x430;" horiz-adv-x="551" 
d="M197 -15q-83 0 -124 47q-42 46 -42 110q0 74 54.5 115.5t162.5 41.5q23 0 46.5 -2.5t35.5 -4.5l12 -3v22q0 84 -83 84q-18 0 -33.5 -4.5t-24.5 -11.5t-16 -14t-9 -11l-3 -5h-114v67l1 1q29 60 105 87q43 16 97 16q114 0 172.5 -54.5t58.5 -159.5v-306h-136l-10 64
q-48 -79 -150 -79zM246 101q49 0 73 28q23 28 23 54v22q-35 8 -84 8q-78 0 -78 -57q0 -55 66 -55z" />
    <glyph glyph-name="uni0431" unicode="&#x431;" horiz-adv-x="627" 
d="M321 -15q-127 0 -198.5 81t-71.5 222v82q0 167 62 260.5t218 108.5l55 5q25 2 42 9t22 13l4 5h108v-67q-16 -41 -52 -61.5t-111 -28.5l-67 -7q-84 -9 -114 -50t-35 -135q23 43 68.5 68t101.5 25q110 0 174 -73.5t64 -190.5q0 -113 -74 -189.5t-196 -76.5zM321 116
q58 0 89 38t31 97q0 57 -31.5 95t-88.5 38q-58 0 -88.5 -37.5t-30.5 -95.5q0 -59 30.5 -97t88.5 -38z" />
    <glyph glyph-name="uni0432" unicode="&#x432;" horiz-adv-x="556" 
d="M331 0h-267v510h256q81 0 130 -34.5t49 -98.5q0 -37 -20 -65.5t-55 -42.5q45 -13 70 -44t25 -73q0 -75 -51 -113.5t-137 -38.5zM209 405v-90h81q59 0 59 46q0 44 -59 44h-81zM209 209v-104h90q70 0 70 52t-70 52h-90z" />
    <glyph glyph-name="uni0433" unicode="&#x433;" horiz-adv-x="443" 
d="M215 0h-151v505h360v-123h-209v-382z" />
    <glyph glyph-name="uni0434" unicode="&#x434;" horiz-adv-x="637" 
d="M150 -140h-136v261h49q38 29 45 159l15 225h412v-384h75v-261h-136v140h-324v-140zM204 121h183v265h-141l-9 -122q-6 -94 -33 -143z" />
    <glyph glyph-name="uni0435" unicode="&#x435;" horiz-adv-x="583" 
d="M308 -15q-131 0 -201.5 74t-70.5 192q0 115 71.5 192t194.5 77t184 -65.5t61 -172.5q0 -16 -1.5 -32t-3.5 -24l-2 -8h-352q7 -52 38.5 -82t84.5 -30q25 0 45.5 4.5t31.5 11.5t18.5 14t9.5 12l3 4h118v-67q-2 -4 -6.5 -11t-22.5 -24t-41.5 -30t-66 -24t-92.5 -11zM191 309
h211q0 39 -26 65t-75 26q-89 0 -110 -91z" />
    <glyph glyph-name="uni0436" unicode="&#x436;" horiz-adv-x="818" 
d="M169 0h-137v70l152 192l-151 177v66h131l169 -206v206h151v-206l167 206h129v-67l-146 -175l156 -193v-70h-139l-167 219v-219h-151v218z" />
    <glyph glyph-name="uni0437" unicode="&#x437;" horiz-adv-x="507" 
d="M248 -15q-142 0 -212 100v67h119q7 -15 28 -36q20 -21 65 -21q39 0 59 16t20 42q0 53 -81 53h-75v96h70q68 0 68 55q0 24 -17 38t-50 14q-60 0 -85 -56h-116v68q67 99 212 99q94 0 146 -37t52 -105q0 -82 -78 -110q97 -29 97 -124q0 -76 -57.5 -117.5t-164.5 -41.5z" />
    <glyph glyph-name="uni0438" unicode="&#x438;" horiz-adv-x="618" 
d="M210 0h-146v505h151v-300l193 300h146v-505h-151v300z" />
    <glyph glyph-name="uni0439" unicode="&#x439;" horiz-adv-x="618" 
d="M310 583q-73 0 -112.5 30t-49.5 59v64h108q0 -13 3 -25t16.5 -24t34.5 -12q28 0 41.5 20.5t13.5 40.5h108v-64q-10 -29 -50 -59t-113 -30zM210 0h-146v505h151v-300l193 300h146v-505h-151v300z" />
    <glyph glyph-name="uni043A" unicode="&#x43a;" horiz-adv-x="559" 
d="M215 0h-151v505h151v-205l173 205h128v-67l-149 -174l167 -194v-70h-141l-178 218v-218z" />
    <glyph glyph-name="uni043B" unicode="&#x43b;" horiz-adv-x="577" 
d="M70 0h-47v129h10q41 1 58.5 30t18.5 93l5 253h398v-505h-150v384h-119l-3 -150q-3 -111 -41 -172.5t-130 -61.5z" />
    <glyph glyph-name="uni043C" unicode="&#x43c;" horiz-adv-x="752" 
d="M426 88h-109l-115 223v-311h-138v505h186l128 -248l125 248h185v-505h-146v313z" />
    <glyph glyph-name="uni043D" unicode="&#x43d;" horiz-adv-x="608" 
d="M215 0h-151v505h151v-187h178v187h151v-505h-151v195h-178v-195z" />
    <glyph glyph-name="uni043E" unicode="&#x43e;" horiz-adv-x="606" 
d="M303 -15q-122 0 -194.5 77t-72.5 192q0 114 72.5 190t194.5 76t194.5 -76t72.5 -190q0 -115 -72.5 -192t-194.5 -77zM303 116q57 0 86.5 39t29.5 99q0 58 -30 96.5t-86 38.5t-86 -38.5t-30 -96.5q0 -60 29.5 -99t86.5 -39z" />
    <glyph glyph-name="uni043F" unicode="&#x43f;" horiz-adv-x="598" 
d="M215 0h-151v505h470v-505h-151v382h-168v-382z" />
    <glyph glyph-name="uni0440" unicode="&#x440;" horiz-adv-x="642" 
d="M215 -250h-151v755h141l7 -72q25 40 69.5 63.5t98.5 23.5q103 0 164 -76t61 -190q0 -115 -62 -192t-163 -77q-109 0 -165 83v-318zM334 121q57 0 88.5 37t31.5 96q0 57 -31.5 93.5t-88.5 36.5q-53 0 -86 -37t-33 -93q0 -57 33 -95t86 -38z" />
    <glyph glyph-name="uni0441" unicode="&#x441;" horiz-adv-x="547" 
d="M300 -15q-127 0 -195.5 75t-68.5 191q0 115 72 192.5t192 77.5q27 0 52 -4t43 -11t34 -15.5t27.5 -18.5t20 -20t14.5 -18.5t9.5 -15.5l5.5 -11l1 -4v-67h-113q1 0 -1.5 5.5t-9 13.5t-16.5 16t-27.5 13.5t-39.5 5.5q-55 0 -84 -39.5t-29 -99.5q0 -59 29 -97t84 -38
q37 0 60.5 13.5t29.5 26.5l5 14h113v-67q-2 -5 -5.5 -13t-19.5 -28t-37 -35.5t-60 -28.5t-86 -13z" />
    <glyph glyph-name="uni0442" unicode="&#x442;" horiz-adv-x="480" 
d="M315 0h-151v382h-144v123h440v-123h-145v-382z" />
    <glyph glyph-name="uni0443" unicode="&#x443;" horiz-adv-x="556" 
d="M544 438l-340 -688h-128v70l126 226l-182 389v70h136l129 -296l134 296h125v-67z" />
    <glyph glyph-name="uni0444" unicode="&#x444;" horiz-adv-x="764" 
d="M457 -250h-150v237q-122 4 -197 79.5t-75 187.5q0 111 75 186t197 79v181h150v-181q122 -4 197 -79.5t75 -187.5t-74.5 -186.5t-197.5 -78.5v-237zM307 118v270q-56 -1 -88.5 -39t-32.5 -95q0 -58 32.5 -96.5t88.5 -39.5zM457 388v-270q55 1 88 39t33 95q0 58 -32.5 96.5
t-88.5 39.5z" />
    <glyph glyph-name="uni0445" unicode="&#x445;" horiz-adv-x="559" 
d="M157 0h-126v68l158 189l-155 178v70h138l114 -146l113 146h126v-67l-156 -183l159 -185v-70h-138l-118 151z" />
    <glyph glyph-name="uni0446" unicode="&#x446;" horiz-adv-x="636" 
d="M609 -140h-136v140h-409v505h151v-384h168v384h151v-384h75v-261z" />
    <glyph glyph-name="uni0447" unicode="&#x447;" horiz-adv-x="563" 
d="M499 0h-151v163h-82q-117 0 -173.5 49.5t-56.5 153.5v139h151v-139q0 -43 20.5 -62.5t62.5 -19.5h78v221h151v-505z" />
    <glyph glyph-name="uni0448" unicode="&#x448;" horiz-adv-x="819" 
d="M755 0h-691v505h151v-384h119v384h151v-384h119v384h151v-505z" />
    <glyph glyph-name="uni0449" unicode="&#x449;" horiz-adv-x="857" 
d="M830 -140h-136v140h-630v505h151v-384h119v384h151v-384h119v384h151v-384h75v-261z" />
    <glyph glyph-name="uni044A" unicode="&#x44a;" horiz-adv-x="619" 
d="M376 0h-226v384h-130v121h281v-152h77q106 0 161.5 -47t55.5 -125q0 -75 -53 -128t-166 -53zM301 240v-127h63q77 0 77 66q0 61 -76 61h-64z" />
    <glyph glyph-name="uni044B" unicode="&#x44b;" horiz-adv-x="771" 
d="M290 0h-226v505h151v-152h77q106 0 161.5 -47t55.5 -125q0 -75 -53 -128t-166 -53zM707 0h-151v505h151v-505zM215 240v-127h63q77 0 77 66q0 61 -76 61h-64z" />
    <glyph glyph-name="uni044C" unicode="&#x44c;" horiz-adv-x="533" 
d="M290 0h-226v505h151v-152h77q106 0 161.5 -47t55.5 -125q0 -75 -53 -128t-166 -53zM215 243v-134h63q80 0 80 70q0 31 -21 47.5t-58 16.5h-64z" />
    <glyph glyph-name="uni044D" unicode="&#x44d;" horiz-adv-x="546" 
d="M247 -15q-26 0 -49 3.5t-41.5 10.5t-34.5 15.5t-28 18t-21.5 18.5t-16 18t-10.5 15t-6 10l-2 4v67h114l3 -6t9.5 -14t17 -17.5t27 -13.5t38.5 -6q48 0 75 26.5t31 73.5h-168v92h167q-4 45 -31 70.5t-74 25.5q-33 0 -56.5 -14t-30.5 -28l-7 -13h-114v67l3 6q3 6 10.5 16.5
t18 22t27.5 24t37.5 22.5t49.5 16t62 6q122 0 192.5 -77t70.5 -193t-68 -191t-195 -75z" />
    <glyph glyph-name="uni044E" unicode="&#x44e;" horiz-adv-x="824" 
d="M526 -15q-102 0 -169 59t-83 153h-59v-197h-151v505h151v-187h60q18 86 83 145q64 57 168 57q120 0 191 -76t71 -190q0 -115 -71 -192t-191 -77zM526 118q54 0 82.5 38t28.5 98q0 58 -28.5 95.5t-82.5 37.5t-83 -38t-29 -95q0 -60 28.5 -98t83.5 -38z" />
    <glyph glyph-name="uni044F" unicode="&#x44f;" horiz-adv-x="556" 
d="M341 0v169h-45l-134 -169h-121v68l109 123q-106 39 -106 142q0 75 55 123.5t161 48.5h232v-505h-151zM272 269h69v129h-69q-77 0 -77 -66q0 -63 77 -63z" />
    <glyph glyph-name="uni0451" unicode="&#x451;" horiz-adv-x="583" 
d="M271 600h-145v140h145v-140zM477 600h-146v140h146v-140zM308 -15q-131 0 -201.5 74t-70.5 192q0 115 71.5 192t194.5 77t184 -65.5t61 -172.5q0 -16 -1.5 -32t-3.5 -24l-2 -8h-352q7 -52 38.5 -82t84.5 -30q25 0 45.5 4.5t31.5 11.5t18.5 14t9.5 12l3 4h118v-67
q-2 -4 -6.5 -11t-22.5 -24t-41.5 -30t-66 -24t-92.5 -11zM191 309h211q0 39 -26 65t-75 26q-89 0 -110 -91z" />
    <glyph glyph-name="uni0453" unicode="&#x453;" horiz-adv-x="443" 
d="M299 593h-123v60l77 90h144v-60zM215 0h-151v505h360v-123h-209v-382z" />
    <glyph glyph-name="uni045E" unicode="&#x45e;" horiz-adv-x="556" 
d="M287 583q-73 0 -112.5 30t-49.5 59v64h108q0 -13 3 -25t16.5 -24t34.5 -12q28 0 41.5 20.5t13.5 40.5h108v-64q-10 -29 -50 -59t-113 -30zM544 438l-340 -688h-128v70l126 226l-182 389v70h136l129 -296l134 296h125v-67z" />
    <glyph glyph-name="uni0490" unicode="&#x490;" horiz-adv-x="559" 
d="M387 750v150h151v-291h-290v-609h-166v750h305z" />
    <glyph glyph-name="Wgrave" unicode="&#x1e80;" horiz-adv-x="1000" 
d="M576 805h-136l-92 80v60h156l72 -80v-60zM797 0h-169l-129 458l-127 -458h-169l-179 670v80h154l119 -515l137 515h141l133 -515l124 515h146v-70z" />
    <glyph glyph-name="wgrave" unicode="&#x1e81;" horiz-adv-x="800" 
d="M470 600h-123l-97 90v60h143l77 -90v-60zM624 0h-136l-92 291l-86 -291h-136l-151 435v70h136l93 -301l91 301h124l94 -300l90 300h128v-67z" />
    <glyph glyph-name="Wacute" unicode="&#x1e82;" horiz-adv-x="1000" 
d="M569 805h-136v60l72 80h156v-60zM797 0h-169l-129 458l-127 -458h-169l-179 670v80h154l119 -515l137 515h141l133 -515l124 515h146v-70z" />
    <glyph glyph-name="wacute" unicode="&#x1e83;" horiz-adv-x="800" 
d="M472 600h-123v60l77 90h144v-60zM624 0h-136l-92 291l-86 -291h-136l-151 435v70h136l93 -301l91 301h124l94 -300l90 300h128v-67z" />
    <glyph glyph-name="Wdieresis" unicode="&#x1e84;" horiz-adv-x="1000" 
d="M473 800h-150v135h150v-135zM679 800h-151v135h151v-135zM797 0h-169l-129 458l-127 -458h-169l-179 670v80h154l119 -515l137 515h141l133 -515l124 515h146v-70z" />
    <glyph glyph-name="wdieresis" unicode="&#x1e85;" horiz-adv-x="800" 
d="M376 600h-145v140h145v-140zM582 600h-146v140h146v-140zM624 0h-136l-92 291l-86 -291h-136l-151 435v70h136l93 -301l91 301h124l94 -300l90 300h128v-67z" />
    <glyph glyph-name="Ygrave" unicode="&#x1ef2;" horiz-adv-x="662" 
d="M402 805h-136l-92 80v60h156l72 -80v-60zM415 0h-166v300l-242 372v78h146l190 -304l178 304h130v-75l-236 -376v-299z" />
    <glyph glyph-name="ygrave" unicode="&#x1ef3;" horiz-adv-x="556" 
d="M347 600h-123l-97 90v60h143l77 -90v-60zM544 438l-340 -688h-128v70l126 226l-182 389v70h136l129 -296l134 296h125v-67z" />
    <glyph glyph-name="endash" unicode="&#x2013;" horiz-adv-x="583" 
d="M524 247h-465v123h465v-123z" />
    </font>
</defs>
</svg>
