<svg width="88" height="62" viewBox="0 0 88 62" fill="none" xmlns="http://www.w3.org/2000/svg">
<path d="M85.9243 9.58032C85.4262 7.72523 84.4496 6.03349 83.0923 4.67442C81.7349 3.31535 80.0444 2.33662 78.1899 1.83618C71.3638 0.000244513 44.0005 0.000244141 44.0005 0.000244141C44.0005 0.000244141 16.6372 0.000243768 9.81103 1.82642C7.95577 2.32523 6.2644 3.30342 4.9068 4.66274C3.54919 6.02206 2.57314 7.71466 2.07666 9.57056C0.250488 16.4065 0.250488 30.6643 0.250488 30.6643C0.250488 30.6643 0.250488 44.9221 2.07666 51.7483C3.08252 55.5178 6.05127 58.4866 9.81103 59.4924C16.6372 61.3284 44.0005 61.3284 44.0005 61.3284C44.0005 61.3284 71.3638 61.3284 78.1899 59.4924C81.9595 58.4866 84.9185 55.5178 85.9243 51.7483C87.7505 44.9221 87.7505 30.6643 87.7505 30.6643C87.7505 30.6643 87.7505 16.4065 85.9243 9.58032ZM35.3091 43.7502V17.5784L57.9653 30.5667L35.3091 43.7502Z" fill="#FF8D81"/>
</svg>
