<svg width="80" height="80" viewBox="0 0 80 80" fill="none" xmlns="http://www.w3.org/2000/svg">
<path d="M74.6033 55.877L47.4868 62.7288C47.254 61.9278 46.8245 61.171 46.1977 60.5417L37.5586 51.8696C36.4869 50.7945 35.0628 50.2027 33.5476 50.2027H16.3153C15.9902 47.2208 13.4669 44.8921 10.4097 44.8921H5.94104C2.66504 44.8921 0 47.5667 0 50.8558V62.8582C0 63.5101 0.527264 64.0388 1.17611 64.0388C1.82557 64.0388 2.35283 63.5101 2.35283 62.8582V50.8558C2.35283 48.8687 3.96334 47.2539 5.94104 47.2539H10.4097C12.165 47.2539 13.6313 48.5271 13.9386 50.2027C14.026 50.6743 13.9985 49.2619 13.9985 71.8057C13.9985 73.7928 12.388 75.4082 10.4097 75.4082H5.94104C3.96334 75.4082 2.35283 73.7928 2.35283 71.8057V67.5812C2.35283 66.9299 1.82557 66.4006 1.17611 66.4006C0.527264 66.4006 0 66.9299 0 67.5812V71.8057C0 75.0948 2.66504 77.77 5.94104 77.77H10.4097C13.6863 77.77 16.3513 75.0948 16.3513 71.8057V69.7155C25.0148 71.2175 23.1508 70.6704 36.0629 77.012C38.161 78.0429 40.1845 80 44.4656 80C46.7481 80 48.9727 79.3554 50.9045 78.1349L73.2794 66.7465C73.8592 66.4515 74.0907 65.7407 73.7969 65.1593C73.503 64.5779 72.7949 64.3454 72.2157 64.6398C72.135 64.6809 49.7669 76.062 49.6912 76.1104C48.1259 77.1101 46.3192 77.6382 44.4656 77.6382C40.8969 77.6382 39.3469 75.9963 37.0967 74.8906C23.9676 68.4429 25.8335 68.963 16.3513 67.3193V52.5639H33.5482C34.4359 52.5639 35.2687 52.9104 35.8961 53.5403L44.5334 62.2105C46.2349 63.9186 45.0906 66.7845 42.7347 66.7845C42.0315 66.7845 41.3698 66.5092 40.8712 66.0099L33.09 58.1959C32.6305 57.7346 31.8851 57.7346 31.4257 58.1959C30.9662 58.6571 30.9662 59.4053 31.4257 59.8665L39.2082 67.6806C42.0137 70.4877 46.8434 69.055 47.5992 65.136C76.6696 57.7898 75.0646 58.1713 75.3567 58.1713C77.7351 58.1713 78.5404 61.4206 76.413 62.5037C75.8332 62.7987 75.6017 63.5095 75.8955 64.0909C76.1888 64.6729 76.8969 64.9054 77.4767 64.6104C79.2094 63.7285 80 62.0278 80 60.478C80 57.2747 76.8773 55.3023 74.6033 55.877Z" fill="#FF8D81"/>
<path d="M4 68.9464C4 71.2331 5.92261 73.0935 8.28571 73.0935C10.6488 73.0935 12.5714 71.2331 12.5714 68.9464C12.5714 67.2871 11.5534 65.7908 9.97824 65.1355C9.3378 64.8691 8.59577 65.1552 8.32046 65.7749C8.04449 66.3946 8.34078 67.1127 8.98055 67.3797C10.7288 68.1072 10.1952 70.6508 8.28571 70.6508C7.09728 70.6508 6.24643 69.5287 6.6063 68.4301C7.15037 66.7714 4 65.6677 4 68.9464Z" fill="#FF8D81"/>
<path d="M78.4268 29.304L72.7676 27.2121C72.8054 26.5268 72.8054 25.8501 72.7676 25.1617L78.4262 23.0698C79.6678 22.6116 80.3067 21.2199 79.855 19.9588L77.933 14.5956C77.4826 13.3383 76.108 12.687 74.87 13.1445L69.2114 15.2364C68.8085 14.6897 68.3744 14.1654 67.913 13.6664L70.9242 8.36942C71.5832 7.21048 71.1906 5.72281 70.0495 5.05357L65.1828 2.20017C64.6299 1.87577 63.9862 1.78909 63.3693 1.95749C62.753 2.12526 62.2373 2.52705 61.9185 3.08857L58.9085 8.38243C58.2545 8.22703 57.5894 8.10879 56.9189 8.02892L55.8735 2.00577C55.6443 0.687727 54.4026 -0.195099 53.1049 0.0370609L47.5706 1.02761C46.2729 1.26039 45.403 2.52148 45.6322 3.83953L46.6776 9.8602C46.0772 10.1691 45.4926 10.5121 44.9288 10.8879L40.3162 6.95666C39.3025 6.0924 37.7969 6.22984 36.9496 7.2563L33.3373 11.6283C32.4882 12.6554 32.6198 14.1852 33.6317 15.0476L38.2425 18.977C37.9767 19.606 37.7457 20.251 37.5512 20.906H31.5324C30.2145 20.906 29.1429 21.995 29.1429 23.3335V29.0403C29.1429 30.3788 30.2145 31.4678 31.5324 31.4678H37.5512C37.7457 32.1234 37.9767 32.7679 38.2425 33.3969L33.6317 37.3256C32.6223 38.1862 32.49 39.7203 33.3373 40.7461L36.9496 45.1181C37.7963 46.1427 39.3068 46.2771 40.3162 45.4171L44.9288 41.4859C45.4926 41.8617 46.0772 42.2047 46.6776 42.5136L45.6322 48.5343C45.403 49.8554 46.2698 51.1128 47.5706 51.3462L53.1049 52.3367C54.3959 52.5695 55.6437 51.6917 55.8735 50.368L56.9189 44.3449C57.5894 44.265 58.2545 44.1468 58.9091 43.9914L61.9185 49.2852C62.5775 50.4448 64.0417 50.8435 65.1834 50.1743L70.0501 47.3202C71.1912 46.651 71.5832 45.1639 70.9242 44.005L67.913 38.7074C68.3744 38.2091 68.8085 37.6841 69.2114 37.1374L74.87 39.2293C76.1092 39.6868 77.4801 39.0417 77.933 37.7782L79.855 32.4156C80.3067 31.1545 79.6684 29.7628 78.4268 29.304ZM77.6496 31.5996L75.7276 36.9628C75.7252 36.9684 75.7215 36.9795 75.7051 36.987C75.6892 36.995 75.6782 36.9907 75.6728 36.9888L69.1742 34.5861C68.667 34.3992 68.0995 34.5868 67.7984 35.0418C67.1736 35.9865 66.4464 36.8662 65.6363 37.6562C65.2468 38.0363 65.1626 38.6369 65.4327 39.1117L68.8914 45.1961C68.9035 45.2172 68.8962 45.2438 68.8761 45.2556L64.0094 48.109C63.9892 48.1213 63.963 48.1139 63.9508 48.0935L60.494 42.0128C60.2246 41.5379 59.6705 41.3113 59.1517 41.4636C58.0789 41.7787 56.9652 41.9769 55.8412 42.0524C55.3023 42.0883 54.8567 42.4938 54.7629 43.0349L53.562 49.9539C53.5578 49.9774 53.5358 49.9929 53.512 49.9891C53.4474 49.9774 47.9321 49.0141 47.9437 48.9478L49.1445 42.0326C49.2378 41.4927 48.9568 40.9572 48.4636 40.7356C47.4396 40.275 46.4606 39.6998 45.5542 39.0263C45.1171 38.7012 44.5198 38.7223 44.1065 39.0746L38.8075 43.5902C38.7898 43.6057 38.763 43.6032 38.7478 43.5853L35.1355 39.2132C35.1203 39.1947 35.1227 39.1674 35.1404 39.1519L40.4369 34.6381C40.8514 34.2853 40.9745 33.6909 40.7356 33.1987C40.2406 32.1766 39.8535 31.0975 39.5865 29.9912C39.4579 29.4582 38.9873 29.0836 38.4467 29.0836H31.5324C31.5086 29.0836 31.4897 29.0644 31.4897 29.0403V23.3329C31.4897 23.3094 31.5086 23.2896 31.5324 23.2896H38.4467C38.9873 23.2896 39.4573 22.915 39.5865 22.382C39.8535 21.2763 40.2406 20.1972 40.7356 19.1751C40.9745 18.6823 40.8514 18.0879 40.4369 17.7351L35.1404 13.2213C35.1361 13.2182 35.127 13.2101 35.1251 13.1922C35.1239 13.1742 35.1312 13.1649 35.1355 13.1606L38.7472 8.78855C38.7514 8.78422 38.7588 8.77493 38.7764 8.77307C38.7941 8.77184 38.8033 8.77926 38.8075 8.78298L44.1065 13.2986C44.5204 13.6521 45.1183 13.672 45.5542 13.3475C46.4606 12.6734 47.4396 12.0982 48.4636 11.6382C48.9568 11.4166 49.2378 10.8811 49.1445 10.3412L47.9437 3.42597C47.9394 3.40245 47.9553 3.37954 47.9784 3.37583L53.5127 2.38466C53.5181 2.38404 53.5297 2.38156 53.5444 2.39209C53.559 2.40199 53.5608 2.41438 53.562 2.41995L54.7629 9.33892C54.8567 9.87939 55.3023 10.2855 55.8412 10.3214C56.9658 10.397 58.0795 10.5951 59.1517 10.9102C59.6705 11.0625 60.2246 10.8359 60.4946 10.3617L63.9508 4.28032C63.9539 4.27537 63.96 4.26484 63.977 4.26051C63.9941 4.25556 64.0045 4.26175 64.0094 4.26484L68.8761 7.11824C68.8962 7.13 68.9035 7.15662 68.892 7.17767L65.4327 13.2621C65.1626 13.737 65.2468 14.3375 65.6363 14.7176C66.4464 15.5082 67.1742 16.3879 67.7984 17.332C68.0995 17.7871 68.667 17.974 69.1742 17.7871L75.6728 15.385C75.6947 15.3776 75.7191 15.3887 75.7276 15.411L77.6496 20.7742C77.6514 20.7798 77.6557 20.7909 77.6477 20.807C77.6404 20.8237 77.6295 20.8274 77.624 20.8299L71.1242 23.232C70.6176 23.4196 70.3019 23.934 70.3592 24.4788C70.4744 25.5752 70.4835 26.7113 70.3592 27.895C70.3019 28.4398 70.6176 28.9542 71.1242 29.1418L77.624 31.5439C77.6295 31.5464 77.6404 31.5501 77.6477 31.5668C77.6557 31.5829 77.6514 31.5941 77.6496 31.5996Z" fill="#FF8D81"/>
<path d="M64.2233 18.1887L50.6426 31.5093L44.9191 25.8954C44.4473 25.4333 43.6826 25.4333 43.2108 25.8954C42.739 26.3582 42.739 27.1083 43.2108 27.571L49.0692 33.3172C49.9387 34.1701 51.3465 34.1701 52.2161 33.3172L65.9317 19.8643C66.4035 19.4016 66.4035 18.6515 65.9317 18.1887C65.4599 17.726 64.6951 17.726 64.2233 18.1887Z" fill="#FF8D81"/>
</svg>
