<svg width="80" height="85" viewBox="0 0 80 85" fill="none" xmlns="http://www.w3.org/2000/svg">
<path d="M67.5 1.32776H50C47.9325 1.32776 46.25 3.11495 46.25 5.31109V7.96665C43.4925 7.96665 41.25 10.3487 41.25 13.2778C41.25 16.2068 43.4925 18.5889 46.25 18.5889V25.2278H56.25V22.5722C56.25 21.1077 57.3713 19.9166 58.75 19.9166C60.1287 19.9166 61.25 21.1077 61.25 22.5722V25.2278H67.5C69.5675 25.2278 71.25 23.4406 71.25 21.2444V5.31109C71.25 3.11495 69.5675 1.32776 67.5 1.32776ZM68.75 21.2444C68.75 21.976 68.19 22.5722 67.5 22.5722H63.75C63.75 19.6431 61.5075 17.2611 58.75 17.2611C55.9925 17.2611 53.75 19.6431 53.75 22.5722H48.75V15.9333H46.25C44.8712 15.9333 43.75 14.7423 43.75 13.2778C43.75 11.8132 44.8712 10.6222 46.25 10.6222H48.75V5.31109C48.75 4.57949 49.31 3.98331 50 3.98331H67.5C68.19 3.98331 68.75 4.57949 68.75 5.31109V21.2444Z" fill="#FF8D81"/>
<path d="M46.25 27.8833C43.4925 27.8833 41.25 30.2654 41.25 33.1944H36.25V26.5555H33.75C32.3713 26.5555 31.25 25.3645 31.25 23.9C31.25 22.4355 32.3713 21.2444 33.75 21.2444H36.25V9.29443H32.8988C19.5837 9.29443 8.75 20.8023 8.75 34.9458C8.75 42.6708 11.9788 49.9072 17.6075 54.7987L22.5 59.0516V62.6512C21.0487 63.2009 20 64.6614 20 66.3902C20 68.2265 21.1812 69.7614 22.775 70.2195C22.6012 70.6776 22.5 71.1755 22.5 71.7C22.5 73.4553 23.5813 74.9318 25.0675 75.4616C25.585 80.0663 29.2787 83.65 33.75 83.65C38.2213 83.65 41.915 80.0663 42.4325 75.4616C43.9188 74.9318 45 73.4553 45 71.7C45 71.1755 44.8988 70.6776 44.725 70.2182C46.3187 69.7588 47.5 68.2252 47.5 66.3889C47.5 64.6601 46.4512 63.1996 45 62.6499V59.0503L49.8925 54.7974C55.5213 49.9072 58.75 42.6708 58.75 34.9458V33.1944H51.25C51.25 30.2654 49.0075 27.8833 46.25 27.8833ZM32.8988 11.95H33.75V18.5889C30.9925 18.5889 28.75 20.9709 28.75 23.9C28.75 26.8291 30.9925 29.2111 33.75 29.2111V33.1944H28.75C28.75 30.2654 26.5075 27.8833 23.75 27.8833C20.9925 27.8833 18.75 30.2654 18.75 33.1944H11.3125C12.1575 21.3294 21.5163 11.95 32.8988 11.95ZM19.19 52.7433C14.3638 48.5489 11.5062 42.4331 11.2675 35.85H21.25V33.1944C21.25 31.7299 22.3713 30.5389 23.75 30.5389C25.1287 30.5389 26.25 31.7299 26.25 33.1944V35.85H33.75V41.1611C30.9925 41.1611 28.75 43.5431 28.75 46.4722C28.75 49.4013 30.9925 51.7833 33.75 51.7833V62.4055H25V57.7929L19.19 52.7433ZM33.75 80.9944C30.7325 80.9944 28.2075 78.7093 27.6262 75.6833H39.8738C39.2925 78.7093 36.7675 80.9944 33.75 80.9944ZM41.25 73.0278H26.25C25.56 73.0278 25 72.4316 25 71.7C25 70.9684 25.56 70.3722 26.25 70.3722H41.25C41.94 70.3722 42.5 70.9684 42.5 71.7C42.5 72.4316 41.94 73.0278 41.25 73.0278ZM43.75 67.7167H41.25H26.25H23.75C23.06 67.7167 22.5 67.1205 22.5 66.3889C22.5 65.6573 23.06 65.0611 23.75 65.0611H43.75C44.44 65.0611 45 65.6573 45 66.3889C45 67.1205 44.44 67.7167 43.75 67.7167ZM48.31 52.7433L42.5 57.7929V62.4055H36.25V49.1278H33.75C32.3713 49.1278 31.25 47.9368 31.25 46.4722C31.25 45.0077 32.3713 43.8167 33.75 43.8167H36.25V35.85H43.75V33.1944C43.75 31.7299 44.8713 30.5389 46.25 30.5389C47.6287 30.5389 48.75 31.7299 48.75 33.1944V35.85H56.2325C55.9938 42.4331 53.1362 48.5489 48.31 52.7433Z" fill="#FF8D81"/>
</svg>
