<svg width="85" height="66" viewBox="0 0 85 66" fill="none" xmlns="http://www.w3.org/2000/svg">
<path d="M82.4268 53.953H80.0195V16.3945C80.0195 13.073 77.2268 10.371 73.7939 10.371H51.8395L47.2899 2.68615C46.2941 1.00423 44.5035 0 42.5 0C40.4965 0 38.7059 1.00407 37.71 2.68615L33.1605 10.371H11.2061C7.77318 10.371 4.98047 13.073 4.98047 16.3945V53.953H2.57324C1.15431 53.953 0 55.0699 0 56.4427V59.9765C0 63.2979 2.79271 66 6.22559 66H78.7744C82.2073 66 85 63.2979 85 59.9765V56.4427C85 55.0699 83.8457 53.953 82.4268 53.953ZM39.8708 3.88378C40.9818 1.95594 43.991 1.919 45.1292 3.88378L60.6988 30.1828C61.8365 32.0664 60.3493 34.5913 58.0698 34.5714H26.9302C24.6304 34.5907 23.1564 32.0778 24.3012 30.1826L26.8678 25.8472C27.2096 25.2699 27.0029 24.5337 26.4063 24.2031C25.8098 23.8723 25.0488 24.0722 24.7071 24.6497L22.1405 28.9851C21.1504 30.6573 21.1557 32.651 22.1545 34.3183C23.1534 35.9856 24.9387 36.981 26.9304 36.981H58.0699C60.0616 36.981 61.847 35.9856 62.8459 34.3183C63.8446 32.651 63.8499 30.6573 62.8598 28.9851L56.1189 17.5992H72.5488V43.721C72.5488 44.3863 73.1061 44.9257 73.7939 44.9257C74.4818 44.9257 75.0391 44.3863 75.0391 43.721V16.3945C75.0391 15.7292 74.4818 15.1898 73.7939 15.1898H54.6924L53.2659 12.7804H73.7939C75.8535 12.7804 77.5293 14.4016 77.5293 16.3945V53.953H75.0391V48.5398C75.0391 47.8745 74.4818 47.3351 73.7939 47.3351C73.1061 47.3351 72.5488 47.8745 72.5488 48.5398V53.953H12.4512V17.5992H28.8812L26.8876 20.9667C26.5457 21.544 26.7524 22.2801 27.3491 22.6107C27.9456 22.9414 28.7066 22.7416 29.0483 22.1642L39.8708 3.88378ZM49.9015 56.3624L48.9087 58.2835C48.753 58.5847 48.4402 58.7718 48.0921 58.7718H36.9078C36.5596 58.7718 36.2469 58.5847 36.0911 58.2835L35.0984 56.3624H49.9015ZM7.4707 16.3945C7.4707 14.4016 9.14646 12.7804 11.2061 12.7804H31.7341L30.3076 15.1898H11.2061C10.5183 15.1898 9.96094 15.7292 9.96094 16.3945V53.953H7.4707V16.3945ZM82.5098 59.9765C82.5098 61.9694 80.834 63.5906 78.7744 63.5906H6.22559C4.166 63.5906 2.49023 61.9694 2.49023 59.9765V56.4427C2.49023 56.3984 2.52759 56.3624 2.57324 56.3624H32.3143L33.8639 59.361C34.4441 60.4838 35.6105 61.1812 36.9078 61.1812H48.0921C49.3893 61.1812 50.5557 60.4838 51.136 59.361L52.6856 56.3624H82.4268C82.4724 56.3624 82.5098 56.3984 82.5098 56.4427V59.9765ZM42.5 24.283C43.1878 24.283 43.7451 23.7436 43.7451 23.0783V11.8574C43.7451 11.1921 43.1878 10.6527 42.5 10.6527C41.8122 10.6527 41.2549 11.1921 41.2549 11.8574V23.0783C41.2549 23.7438 41.8122 24.283 42.5 24.283ZM42.5 30.2027C43.2964 30.2027 43.9418 29.5782 43.9418 28.8077C43.9418 28.0371 43.2964 27.4126 42.5 27.4126C41.7036 27.4126 41.0582 28.0371 41.0582 28.8077C41.0582 29.5782 41.7036 30.2027 42.5 30.2027Z" fill="#FF8D81"/>
</svg>
