<svg width="35" height="35" viewBox="0 0 35 35" fill="none" xmlns="http://www.w3.org/2000/svg">
<path d="M33.068 3.90047e-08H1.9303C0.864105 0.000631429 -0.000213583 0.852584 3.95904e-08 1.90342V32.5804C0.000640911 33.6309 0.865387 34.4824 1.93201 34.4822H18.6963V21.1473H14.1504V15.9278H18.6963V12.0867C18.6963 7.63221 21.4565 5.20768 25.4897 5.20768C27.4215 5.20768 29.0816 5.34954 29.5654 5.41289V10.0685H26.7843C24.5899 10.0685 24.165 11.0958 24.165 12.6035V15.9278H29.4116L28.728 21.1473H24.165V34.4822H33.068C34.1348 34.4824 34.9998 33.6306 35 32.5796C35 32.5794 35 32.5792 35 32.5788V1.90174C34.9996 0.851321 34.1346 -0.000210424 33.068 3.90047e-08Z" fill="white"/>
</svg>
