<svg width="135" height="18" viewBox="0 0 135 18" fill="none" xmlns="http://www.w3.org/2000/svg">
<path d="M123.518 7.94449L135 17.8262H128.257L119.912 10.4321L114.089 14.4229V17.8262H109.214V0.0476074H114.089V9.27298L127.603 0.0476074H134.994L123.518 7.94449Z" fill="white"/>
<path d="M29.092 17.8313H24.217V0.0476074H29.092V17.8313Z" fill="white"/>
<path d="M82.3165 13.9996H70.9697L68.9384 17.7839H63.5781L73.3508 0H79.9354L89.7419 17.7839H84.3534L82.3165 13.9996ZM80.5053 10.5963L76.6572 3.38212L72.7865 10.5963H80.5053Z" fill="white"/>
<path d="M10.4215 0H0V3.83731H8.57644C12.2609 3.83731 14.7492 4.57301 14.7492 8.89197C14.7492 13.2109 12.2553 13.9466 8.57644 13.9466H0V17.7839H10.4215C15.3247 17.7839 19.6299 14.9364 19.6299 8.89197C19.6299 2.84755 15.3247 0 10.4215 0Z" fill="white"/>
<path d="M59.2847 17.6093L64.1597 8.80728V0H57.5807L49.6418 12.5493L41.7087 0H35.124V17.7839H39.999V5.58924L47.8814 17.7839H51.4023L59.2847 5.58924V17.6093Z" fill="white"/>
<path d="M104.063 6.5313C104.063 2.567 101.112 0 96.8065 0H84.1958L86.3286 3.83727H95.4524C96.9137 3.83727 99.1876 3.83727 99.1876 6.5313C99.1876 9.19887 96.9137 9.19887 95.4524 9.19887H89.3134L91.4463 13.0361H94.6398L97.698 17.7891H103.442L99.9493 12.5016C102.494 11.5595 104.063 9.42646 104.063 6.5313Z" fill="white"/>
</svg>
