<svg width="135" height="18" viewBox="0 0 135 18" fill="none" xmlns="http://www.w3.org/2000/svg">
<path d="M123.518 8.11307L135 17.9947H128.257L119.912 10.6007L114.089 14.5914V17.9947H109.214V0.216232H114.089V9.44156L127.603 0.216232H134.994L123.518 8.11307Z" fill="black"/>
<path d="M29.0918 18H24.2168V0.216232H29.0918V18Z" fill="black"/>
<path d="M82.3165 14.168H70.9697L68.9384 17.9524H63.5781L73.3507 0.168594H79.9354L89.7419 17.9524H84.3534L82.3165 14.168ZM80.5053 10.7648L76.6572 3.55069L72.7865 10.7648H80.5053Z" fill="black"/>
<path d="M10.4215 0.168594H0V4.00587H8.57644C12.2609 4.00587 14.7492 4.74156 14.7492 9.06048C14.7492 13.3794 12.2553 14.1151 8.57644 14.1151H0V17.9524H10.4215C15.3247 17.9524 19.6299 15.1048 19.6299 9.06048C19.6299 3.01611 15.3247 0.168594 10.4215 0.168594Z" fill="black"/>
<path d="M59.2847 17.7777L64.1598 8.97579V0.168594H57.5807L49.6419 12.7178L41.7087 0.168594H35.124V17.9524H39.999V5.75778L47.8815 17.9524H51.4023L59.2847 5.75778V17.7777Z" fill="black"/>
<path d="M104.063 6.69989C104.063 2.7356 101.112 0.168594 96.8066 0.168594H84.1958L86.3286 4.00587H95.4524C96.9138 4.00587 99.1877 4.00587 99.1877 6.69989C99.1877 9.36746 96.9138 9.36746 95.4524 9.36746H89.3135L91.4463 13.2047H94.6399L97.6981 17.9577H103.442L99.9494 12.6702C102.494 11.728 104.063 9.59505 104.063 6.69989Z" fill="black"/>
</svg>
