<svg width="91" height="80" viewBox="0 0 91 80" fill="none" xmlns="http://www.w3.org/2000/svg">
<g id="Group 25">
<g id="Group 24">
<path id="Vector" d="M18.2213 79.3537C18.2213 79.3537 18.2213 78.4982 18.6475 77.8565C18.8606 77.5357 19.1803 77.5357 19.2868 77.3218C19.5 77.0009 19.6065 76.787 19.7131 76.4662L20.0327 75.5037C20.0327 75.5037 20.2459 74.969 20.9918 74.4342C21.418 74.1134 21.6311 73.8995 21.7377 73.5787L22.377 72.2953C22.377 72.2953 22.5901 71.8675 22.9098 71.5467C24.5081 70.0495 25.3606 68.6592 25.9999 67.4828C25.9999 67.3758 26.2131 67.1619 26.3196 66.948C27.1721 65.8786 27.4917 65.2369 27.918 64.4883C28.2376 64.0605 28.5573 63.5258 28.877 62.991C29.0901 62.6702 29.5163 62.2424 29.6229 62.0285C30.1557 60.8521 31.4344 59.4618 32.2868 58.1785C32.8196 57.3229 33.3524 56.4674 34.0983 55.6118C35.377 54.1145 35.9098 53.0451 36.9753 51.6548C37.295 51.227 37.1885 51.227 36.7622 51.4409L36.4426 51.6548C35.2704 52.4034 34.9507 52.7243 33.9917 54.0076L33.9917 54.2215C33.9917 54.2215 33.3524 54.7562 33.1393 54.8632C32.9262 54.9701 32.9262 54.8632 32.9262 54.8632C33.1393 54.3284 33.5655 53.6868 34.2049 52.9381C34.9507 52.0826 35.8032 51.1201 36.5491 50.2645C36.4426 50.2645 36.336 50.0506 36.1229 50.0506C35.8032 49.8367 35.4835 49.6228 35.1639 49.4089C35.1639 49.302 34.9508 48.9811 34.418 48.6603C33.8852 48.3395 33.4589 48.1256 33.1393 48.0186L34.8442 49.195C34.0983 48.8742 33.4589 48.6603 32.2868 47.8047C31.8606 47.8047 30.9016 46.9492 30.1557 46.5214C29.7294 46.2006 29.3032 46.0936 28.9835 45.8797C28.877 45.9867 28.6639 46.0936 28.5573 46.3075C28.0245 46.9492 27.4917 47.5909 26.6393 48.1256C25.6803 48.7673 24.9344 49.302 24.295 50.0506C24.0819 50.2645 23.7622 50.5853 23.5491 50.6923C23.2295 50.9062 23.2295 50.6923 23.2295 50.5853C23.6557 49.5159 23.8688 48.7673 25.3606 47.0561C25.7868 46.6283 25.8934 46.3075 26.2131 45.8797C26.5327 45.5589 26.7458 45.1311 27.0655 44.8103C26.3196 44.3825 25.6803 43.9547 25.0409 43.6339C24.7213 43.42 24.4016 43.313 23.8688 42.8852C23.1229 42.2436 22.8032 42.1366 22.377 41.9227C22.1639 41.9227 21.9508 41.8158 21.5245 41.4949C20.5655 40.6394 20.3524 40.6394 19.9262 40.4255C19.3934 40.2116 18.7541 39.8908 18.1147 39.356L13.959 36.6824C13.959 36.6824 13.4262 36.3615 13.2131 36.1477C11.9344 35.0782 11.1885 34.6504 10.5492 34.4365C10.4426 34.4365 10.336 34.4365 10.1229 34.1157C9.37703 33.3671 8.84425 33.0462 8.2049 32.6185C7.03277 31.7629 5.86065 30.9073 4.68852 30.1587C3.7295 29.517 2.9836 28.7684 2.34426 28.0198L2.02459 27.592C0.959017 25.7739 0.426231 24.5975 2.79093e-06 23.4211C2.79093e-06 23.4211 2.79093e-06 23.4211 2.7956e-06 23.3142C2.7956e-06 23.3142 0.319674 23.3142 0.745903 23.742L2.77049 25.4531C3.62295 26.2017 4.36885 26.7364 5.00819 27.1642C6.39343 28.0198 8.31146 29.517 9.37703 29.8379C9.48359 29.8379 9.90982 30.1587 10.2295 30.3726C10.7623 30.6934 11.1885 30.9073 11.5082 31.1212C11.9344 31.3351 12.2541 31.549 12.7869 31.8698C14.4918 33.0462 15.6639 33.581 17.2623 34.5435C17.5819 34.7574 17.795 34.8643 17.795 34.7574C17.795 34.2226 18.6475 34.4365 18.4344 33.6879C18.3278 33.2601 18.7541 33.3671 19.5 33.6879L21.2049 34.5435C21.7377 34.8643 22.2704 35.0782 22.5901 35.0782C23.2295 35.0782 24.4016 35.6129 25.4672 36.0407L26.5327 36.4685C26.5327 36.4685 26.7458 36.4685 26.5327 36.3616C26.4262 36.2546 26.1065 36.0407 25.9999 35.8268L24.9344 35.0782L20.9918 32.2976C19.7131 31.3351 18.5409 30.4795 17.2623 29.517C16.1967 28.7684 15.3442 27.9128 14.4918 27.0573C13.7459 26.3087 14.0655 26.4156 14.0655 26.2017C14.0655 26.2017 14.0655 25.9878 14.0655 25.8809C14.0655 25.667 14.0655 25.667 14.5983 25.8809C15.2377 26.2017 15.3442 26.0948 15.1311 25.8809C14.918 25.56 15.1311 25.4531 15.3442 25.4531C15.877 25.4531 16.4098 25.4531 16.6229 25.4531C16.9426 25.2392 17.795 25.56 19.0737 26.3087C20.0327 26.8434 20.8852 27.2712 21.2049 27.1642C21.2049 27.1642 21.5245 27.1642 21.9508 27.592C22.5901 28.1267 22.9098 28.3406 23.0164 28.2337C23.0164 28.2337 23.336 28.2337 23.7622 28.4476C24.5081 28.8754 25.0409 29.1962 25.6803 29.517C26 29.7309 26.4262 29.9448 26.8524 30.1587C27.1721 30.3726 27.3852 30.5865 27.4917 30.8004C27.4917 30.8004 27.4917 30.9073 27.4917 31.0143C27.5983 31.3351 27.918 31.6559 28.6639 32.1907C29.5163 32.8323 29.9426 32.9393 30.3688 33.1532C30.0491 32.8323 29.7294 32.6185 29.6229 32.4046L28.9835 31.549C28.9835 31.549 28.3442 30.8004 27.7049 30.4795C26.5327 29.7309 25.3606 29.0892 24.1885 28.3406C23.5491 27.9128 22.8032 27.4851 21.9508 26.7364C22.377 26.9503 22.9098 27.1642 23.336 27.3781C24.0819 27.6989 24.5081 27.8059 24.6147 27.4851C24.5081 27.4851 24.295 27.2712 24.1885 27.1642C23.9754 27.0573 23.7622 26.9503 23.6557 26.9503C23.2295 26.8434 22.8032 26.4156 22.377 25.9878C22.1639 25.7739 21.7377 25.56 21.7377 25.3461C22.0573 25.3461 23.1229 25.9878 23.5491 26.0948C22.0573 25.2392 20.5655 24.1697 19.7131 24.0628C19.7131 24.0628 19.5 24.0628 19.3934 23.8489C19.2868 23.8489 19.0737 23.635 18.9672 23.5281C18.3278 22.7794 18.1147 22.8864 18.0082 22.8864C18.0082 22.8864 17.9016 22.8864 17.9016 23.1003C17.9016 23.4211 17.4754 23.1003 16.0901 22.0308L14.918 20.9614C14.918 20.9614 14.3852 20.4266 14.4918 20.5336C14.918 20.5336 14.5983 20.2127 14.0655 19.5711C13.4262 18.8224 13.2131 18.3947 14.0655 18.8224C14.5983 19.0363 14.4918 18.8224 14.1721 18.3947L13.7459 17.8599C13.3196 17.2183 13.3196 17.2183 14.1721 17.646C14.5983 17.8599 15.0246 18.0738 15.4508 18.3947C16.6229 19.1433 17.3688 19.5711 17.9016 19.678L18.6475 19.8919C19.3934 20.1058 19.5 20.2127 18.4344 19.1433C17.795 18.5016 17.3688 17.9669 17.2623 17.646C17.1557 17.0044 17.4754 16.6835 19.8196 18.1808C21.5245 19.2502 22.377 19.4641 23.336 19.785C23.8688 19.9989 23.8688 19.785 23.1229 19.1433C21.6311 17.8599 21.3114 17.1113 19.9262 15.9349C19.9262 15.9349 19.8196 15.828 19.9262 15.721C19.9262 15.721 20.1393 15.721 20.459 15.9349L20.6721 16.1488C20.6721 16.1488 21.418 16.6835 21.6311 16.7905C21.8442 16.7905 21.6311 16.4696 21.2049 16.1488C20.8852 15.828 20.459 15.5071 20.1393 15.1863C19.1803 14.3307 18.9672 13.9029 19.5 13.9029C19.9262 13.9029 20.7786 14.5446 21.6311 15.1863L24.7213 17.3252C25.6803 17.9669 26.4262 18.3947 26.959 18.5016C27.1721 18.5016 27.3852 18.5016 27.4917 18.6086C27.918 18.6086 28.3442 18.7155 29.5163 19.4641C29.836 19.678 30.0491 19.785 30.3688 19.8919C30.9016 20.1058 31.2213 20.2127 31.0081 19.8919C31.0081 19.785 31.0081 19.678 31.0081 19.678C31.2213 19.678 31.5409 19.678 32.3934 20.2127C33.8852 21.0683 35.5901 22.2447 36.9753 22.8864C37.4016 23.1003 37.9344 23.5281 38.4671 23.8489C38.8934 24.1697 39.213 24.3836 39.3196 24.3836C39.3196 24.3836 38.9999 23.9558 38.6803 23.742C38.1475 23.3142 37.7212 22.9933 37.1885 22.7794L36.0163 22.1378C36.0163 22.1378 35.2704 21.71 34.8442 21.2822C34.5245 20.9614 34.3114 20.7475 34.5245 20.7475C34.7376 20.7475 35.1639 21.0683 35.6967 21.3891C36.5491 21.9239 37.295 22.4586 38.0409 22.8864C38.6803 23.2072 39.4262 23.635 40.0655 23.9558C40.7048 24.2767 41.2376 24.5975 41.877 25.2392C42.0901 25.4531 42.3032 25.56 42.5163 25.667C42.6229 25.56 42.7294 25.4531 42.9425 25.2392C42.9425 25.2392 42.9425 25.2392 42.9425 25.0253C42.9425 24.8114 42.1966 24.1697 41.5573 23.742C40.5983 23.1003 39.7458 22.6725 39.1065 22.4586C39.1065 22.4586 39.3196 22.6725 39.4262 22.6725L40.0655 23.1003C40.0655 23.1003 41.0245 23.635 41.2376 23.9558C41.2376 24.1697 40.918 23.9558 40.5983 23.742C40.3852 23.742 40.1721 23.5281 40.0655 23.4211C39.5327 23.2072 38.8934 22.7794 38.254 22.2447C37.4016 21.4961 36.6557 21.0683 35.8032 20.5336C34.7376 19.9989 32.9262 18.6086 32.0737 17.8599C31.8606 17.646 31.754 17.5391 31.6475 17.3252C31.4344 17.0044 31.6475 17.0044 31.1147 16.5766C30.3688 16.0419 30.2622 16.2558 29.7294 15.9349L29.5163 15.9349C29.5163 15.9349 28.7704 15.2932 28.5573 15.0793C28.5573 15.0793 28.5573 15.0793 28.5573 14.8655C28.2377 14.4377 28.1311 14.3307 27.3852 13.796C26.5327 13.1543 25.9999 13.0474 25.0409 12.4057C25.0409 12.4057 24.8278 12.2988 24.8278 12.4057C24.8278 12.6196 24.8278 12.7265 25.0409 12.9404C25.0409 13.0474 25.3606 13.3682 25.7868 13.5821L26.4262 14.0099L27.0655 14.5446C27.0655 14.5446 27.7049 15.1863 27.4918 15.1863C26.8524 15.1863 25.0409 14.0099 24.0819 13.6891C23.8688 13.6891 23.2295 13.1543 22.8032 12.8335C22.1639 12.4057 21.8442 12.2988 21.418 12.1918C20.7786 11.9779 20.2459 11.5501 19.3934 10.9085C17.9016 9.62512 17.5819 8.8765 17.3688 8.34177C17.3688 8.02093 17.795 8.34177 18.5409 8.66261C19.0737 8.98344 19.6065 9.30428 20.2459 9.62512C20.7786 9.94595 21.3114 10.2668 21.8442 10.5876C22.9098 11.2293 23.6557 11.5501 23.6557 11.2293C23.6557 11.2293 23.6557 11.1224 23.336 10.9085C23.1229 10.8015 22.9098 10.5876 22.6967 10.5876C22.5901 10.5876 22.4836 10.5876 22.377 10.5876C22.0573 10.5876 21.8442 10.4807 21.2049 9.94595C20.7786 9.62512 20.459 9.30428 20.1393 8.98344C19.6065 8.55566 19.1803 8.12788 19.6065 8.23482C19.8196 8.23482 19.5 8.02093 19.1803 7.70009C17.9016 6.52369 16.6229 5.34729 16.4098 4.70561C16.1967 4.17088 16.3032 4.06394 17.9016 5.02645C18.6475 5.45423 19.3934 5.88202 20.2459 6.41674C20.6721 6.73758 21.0983 6.95147 21.6311 7.27231C22.4836 7.70009 22.5901 7.70009 22.377 7.37926C22.377 7.27231 22.377 7.16536 22.2704 6.95147C22.2704 6.73758 22.4836 6.95147 23.2295 7.37926C23.8688 7.91399 24.5081 8.34177 25.1475 8.55566C25.254 8.55566 25.4672 8.66261 25.4672 8.55566C25.4672 8.55566 25.254 8.34177 25.0409 8.12788L23.4426 7.05842C23.4426 7.05842 23.0164 6.63064 23.1229 6.73758C23.8688 7.05842 24.5081 7.27231 24.9344 7.27231C25.1475 7.27231 25.5737 7.59315 25.8934 7.91399L29.4098 10.3737C29.4098 10.3737 30.1557 10.8015 30.1557 10.6946C30.1557 10.6946 30.1557 10.5876 30.0491 10.4807C29.836 10.0529 30.0491 10.0529 30.9016 10.4807C31.754 10.9085 32.4999 11.4432 33.2458 12.0849C33.4589 12.2988 33.7786 12.5127 33.9917 12.6196C34.2049 12.6196 34.0983 12.6196 33.9917 12.5127L33.1393 11.6571C33.1393 11.6571 33.1393 11.4432 33.459 11.6571C33.8852 11.871 34.418 12.0849 34.9508 12.5127L35.8032 13.1543C35.8032 13.1543 36.5491 13.5821 36.7622 13.5821C36.8688 13.5821 36.9753 13.5821 37.0819 13.5821C37.4016 13.5821 37.7212 13.6891 38.7868 14.4377C40.0655 15.2932 40.0655 15.2932 40.5983 15.4002C40.918 15.4002 41.0245 15.4002 41.2376 15.4002C41.5573 15.4002 41.9835 15.6141 42.7294 16.1488C43.0491 16.3627 43.3688 16.5766 43.5819 16.6835C44.6475 16.8974 46.4589 18.0738 47.7376 18.6086C48.0573 18.6086 48.4835 18.9294 48.8032 19.1433C48.9097 19.1433 49.0163 19.3572 49.2294 19.4641C49.4425 19.2502 49.7622 18.9294 49.9753 18.7155C50.295 18.3947 50.5081 18.1808 51.0409 17.753C51.8933 17.2183 52.1065 16.8974 52.3196 16.5766C52.5327 16.3627 52.5327 16.1488 52.9589 15.9349C54.0245 15.2932 54.131 15.0794 54.4507 14.6516C54.8769 14.2238 55.3032 13.796 55.9425 13.2613L59.7786 10.0529C59.7786 10.0529 60.2048 9.73206 60.5245 9.51817C61.9097 8.55566 62.5491 8.02093 62.9753 7.59315C62.9753 7.59315 63.1884 7.37926 63.4015 7.27231C64.3605 6.73758 64.7868 6.3098 65.3195 5.88202C66.4917 5.02645 67.6638 4.17089 68.7294 3.31532C69.6884 2.67365 70.5408 2.13892 71.3933 1.71113L71.9261 1.49724C73.9507 0.641678 75.1228 0.213895 76.1884 3.3303e-06C76.1884 3.3303e-06 75.9753 0.213895 75.549 0.534732L73.3113 2.03197C72.3523 2.67365 71.6064 3.20838 71.0736 3.7431C69.9015 4.81256 67.8769 6.20286 67.2376 7.05842C67.2376 7.16537 66.7048 7.4862 66.4917 7.7001C66.0654 8.12788 65.6392 8.44872 65.3195 8.66261C64.9999 8.98344 64.6802 9.30428 64.254 9.62512C62.6556 11.0154 61.8032 11.871 60.4179 13.1543C60.0982 13.3682 59.9917 13.5821 60.0982 13.5821C60.5245 13.6891 60.0982 14.4377 60.8441 14.2238C61.2704 14.2238 61.0573 14.5446 60.5245 15.1863L59.2458 16.5766C59.2458 16.5766 58.3933 17.4322 58.2868 17.753C58.0737 18.2877 57.3278 19.2502 56.5819 20.2127L55.9425 21.0683C55.9425 21.0683 55.836 21.2822 56.0491 21.0683C56.2622 20.9614 56.4753 20.7475 56.6884 20.6405L57.6474 19.785L61.2704 16.5766C62.4425 15.6141 63.6146 14.5446 64.8933 13.5821C65.9589 12.7265 66.9179 12.0849 67.8769 11.4432C68.7294 10.9085 68.6228 11.1224 68.7294 11.1224C68.7294 11.1224 68.8359 11.1224 68.9425 11.1224C69.1556 11.1224 69.1556 11.1224 68.7294 11.5501C68.1966 11.9779 68.3031 12.0849 68.6228 11.9779C68.9425 11.871 69.049 11.9779 68.9425 12.1918C68.7294 12.6196 68.5163 13.0474 68.6228 13.2613C68.6228 13.5821 68.1966 14.2238 67.131 15.2932C66.3851 16.1488 65.7458 16.7905 65.7458 17.1113C65.7458 17.1113 65.5327 17.4322 65.1064 17.753C64.4671 18.2877 64.254 18.6086 64.254 18.6086C64.254 18.6086 64.254 18.8225 63.8277 19.2502C63.1884 19.8919 62.8687 20.3197 62.4425 20.8544C62.1228 21.1753 61.8032 21.4961 61.4835 21.8169C61.2704 22.0308 60.9507 22.3517 60.7376 22.3517C60.631 22.3517 60.631 22.3517 60.5245 22.3517C60.2048 22.3517 59.8851 22.7794 59.2458 23.3142C58.4999 23.9558 58.1802 24.3836 57.9671 24.8114C58.2868 24.4906 58.6064 24.2767 58.8196 24.1697L59.7786 23.635C59.7786 23.635 60.5245 23.1003 61.0573 22.5656C62.0163 21.603 62.9753 20.6405 63.8277 19.5711C64.3605 19.0363 64.8933 18.3947 65.8523 17.646C65.5327 18.0738 65.213 18.3947 64.8933 18.8225C64.4671 19.4641 64.1474 19.8919 64.3605 19.8919C64.4671 19.785 64.6802 19.678 64.6802 19.5711L65.1064 19.0363C65.1064 19.0363 65.7458 18.2877 66.2786 17.9669C66.4917 17.753 66.8113 17.4322 66.9179 17.4322C66.9179 17.646 65.9589 18.6086 65.8523 18.9294C67.0245 17.646 68.3031 16.3627 68.7294 15.721C68.7294 15.721 68.8359 15.5071 68.9425 15.4002C69.049 15.4002 69.2622 15.0794 69.2622 15.0794C70.1146 14.5446 70.1146 14.4377 70.0081 14.3307C70.0081 14.3307 70.0081 14.2238 69.9015 14.2238C69.5818 14.2238 69.9015 13.796 71.2867 12.6196L72.5654 11.5501C72.5654 11.5501 73.0982 11.1224 73.0982 11.2293C72.8851 11.5501 73.3113 11.2293 73.9507 10.9085C74.8031 10.3737 75.2294 10.1598 74.59 10.9085C74.2703 11.3363 74.59 11.2293 74.9097 10.9085L75.4425 10.5876C76.0818 10.1598 76.0818 10.2668 75.4425 11.0154C75.1228 11.3363 74.8031 11.764 74.3769 12.0849C73.4179 13.0474 72.8851 13.6891 72.672 14.1168L72.2458 14.7585C71.8195 15.4002 71.8195 15.5071 72.9917 14.5446C73.7376 14.0099 74.2703 13.5821 74.59 13.5821C75.1228 13.4752 75.2294 13.6891 73.4179 15.721C72.1392 17.2183 71.713 17.9669 71.1802 18.7155C70.8605 19.1433 71.0736 19.1433 71.8195 18.5016C73.3113 17.2183 73.9507 16.8974 75.3359 15.6141L75.4425 15.6141C75.4425 15.6141 75.3359 15.828 75.1228 16.0419L74.9097 16.2558C74.9097 16.2558 74.2703 16.8974 74.1638 17.1113C74.0572 17.3252 74.3769 17.1113 74.8031 16.6835C75.1228 16.3627 75.549 16.0419 75.8687 15.721C76.8277 14.8655 77.2539 14.6516 77.0408 15.0794C76.9343 15.4002 76.1884 16.2558 75.4425 16.8974L72.8851 19.678C72.0326 20.5336 71.6064 21.1753 71.3933 21.603L71.1802 22.1378C71.1802 22.1378 70.8605 22.8864 70.0081 23.9558C69.7949 24.2767 69.5818 24.4906 69.4753 24.7045C69.1556 25.1322 68.9425 25.4531 69.3687 25.2392C69.4753 25.2392 69.4753 25.2392 69.4753 25.2392C69.4753 25.4531 69.2622 25.7739 68.6228 26.5225C67.5572 27.9128 66.172 29.4101 65.3195 30.6934C64.9999 31.1212 64.5736 31.6559 64.1474 32.0837C63.9343 32.2976 63.8277 32.5115 63.6146 32.6185C63.6146 32.6185 63.6146 32.6185 63.7212 32.6185C63.8277 32.5115 64.0409 32.4046 64.1474 32.1907C64.5736 31.7629 64.9999 31.2282 65.3195 30.8004L66.0654 29.7309C66.0654 29.7309 66.5982 28.9823 67.0245 28.6615C67.3441 28.3406 67.5572 28.2337 67.5572 28.3406C67.5572 28.5545 67.131 28.9823 66.8113 29.4101C66.172 30.1587 65.5327 30.9073 65.1064 31.549C64.7868 31.9768 64.5736 32.2976 64.254 32.7254L64.4671 32.7254C64.4671 32.7254 65.1064 31.9768 65.5327 31.549C66.3851 30.8004 66.9179 30.0518 67.4507 29.3031C68.09 28.3406 69.6884 26.6295 70.5408 25.8809C70.754 25.667 70.9671 25.56 71.0736 25.4531C71.3933 25.2392 71.2867 25.4531 71.8195 25.0253C72.4589 24.3836 72.3523 24.2767 72.672 23.742L72.672 23.5281C72.672 23.5281 73.4179 22.7794 73.631 22.6725L73.8441 22.6725C73.8441 22.6725 74.3769 22.1378 75.0162 21.4961C75.6556 20.7475 75.9753 20.2127 76.7212 19.3572L76.8277 19.1433C76.7212 19.1433 76.508 19.1433 76.2949 19.3572C76.1884 19.3572 75.8687 19.678 75.549 20.1058L75.0162 20.7475L74.4835 21.3892C74.4835 21.3892 73.8441 22.0308 73.8441 21.8169C73.9507 21.2822 75.4425 19.5711 75.8687 18.7155C75.9753 18.5016 76.508 17.9669 76.8277 17.5391C77.3605 16.8974 77.4671 16.6835 77.6802 16.3627C78.1064 15.721 78.5326 15.2932 79.2785 14.5446C80.7703 13.1543 81.3031 12.8335 81.8359 12.6196C82.049 12.6196 81.8359 12.9404 81.3031 13.6891C80.8769 14.1168 80.4507 14.6516 80.131 15.1863C79.7048 15.6141 79.2785 16.1488 78.9589 16.5766C78.1064 17.646 77.7867 18.1808 77.9998 18.1808C77.9998 18.1808 78.1064 18.1808 78.3195 17.8599C78.4261 17.646 78.6392 17.4322 78.7457 17.3252C78.7457 17.2183 78.7457 17.1113 78.8523 17.1113C78.9589 16.7905 79.0654 16.6835 79.7048 16.0419C80.0244 15.721 80.3441 15.2932 80.7703 14.9724C81.3031 14.4377 81.7293 14.0099 81.5162 14.4377C81.5162 14.6516 81.7293 14.3307 81.9425 14.0099C83.2211 12.8335 84.3933 11.5501 84.9261 11.3363C85.4588 11.1224 85.4588 11.1224 84.2867 12.6196C83.7539 13.3682 83.2211 14.0099 82.5818 14.8655C82.2621 15.2932 81.9425 15.721 81.6228 16.1488C81.09 16.8974 80.9834 17.0044 81.3031 16.8974C81.4097 16.8974 81.5162 16.8974 81.6228 16.7905C81.7293 16.7905 81.6228 17.0044 81.09 17.646C80.5572 18.2877 80.0244 18.9294 79.7048 19.4641C79.7048 19.5711 79.4916 19.785 79.5982 19.785C79.5982 19.785 79.8113 19.5711 80.0244 19.3572L81.1966 17.8599C81.1966 17.8599 81.6228 17.4322 81.5162 17.5391C81.09 18.1808 80.8769 18.7155 80.6638 19.1433C80.6638 19.2502 80.3441 19.678 79.9179 20.1058L77.2539 23.4211C77.2539 23.4211 76.7212 24.1697 76.8277 24.0628C76.8277 24.0628 76.9343 24.0628 77.0408 23.9558C77.4671 23.742 77.3605 23.9558 76.8277 24.7045C76.2949 25.4531 75.7621 26.2017 75.1228 26.9503C74.9097 27.1642 74.6966 27.4851 74.59 27.6989C74.59 27.8059 74.59 27.8059 74.6966 27.6989L75.549 26.8434C75.549 26.8434 75.7621 26.8434 75.549 27.0573C75.3359 27.4851 75.0162 27.9128 74.59 28.4476L73.9507 29.3031C73.9507 29.3031 73.4179 30.0518 73.4179 30.1587C73.4179 30.2656 73.4179 30.2656 73.4179 30.3726C73.4179 30.6934 73.2048 31.0143 72.4589 31.9768C71.4999 33.1532 71.4999 33.2601 71.2867 33.6879C71.2867 33.9018 71.2867 34.1157 71.0736 34.3296C70.9671 34.6504 70.754 35.0782 70.1146 35.7199C69.9015 36.0407 69.6884 36.3616 69.5818 36.4685C69.5818 36.5754 69.3687 36.7893 69.3687 37.0032C70.6474 37.8588 71.713 38.8213 72.7785 39.6769C73.3113 40.1047 73.8441 40.5324 74.4835 40.8533L76.7212 42.2436C77.8933 42.9922 78.8523 43.8478 78.6392 44.0616C78.6392 44.2755 78.3195 44.2755 77.3605 43.5269C76.0818 42.6714 75.0162 42.0297 73.7376 41.2811C72.0326 40.3185 70.3277 39.2491 68.6228 37.9657C68.1966 38.7144 67.6638 39.5699 67.3441 40.2116C67.5572 40.2116 67.6638 40.4255 67.8769 40.5324C68.1966 40.7463 68.6228 40.9602 68.9425 41.1741L68.9425 41.2811C68.9425 41.2811 68.7294 41.1741 68.7294 41.2811C68.7294 41.388 69.049 41.6019 69.2622 41.6019L69.9015 41.9227C69.9015 41.9227 70.3277 42.2436 70.4343 42.3505C70.2212 42.3505 70.0081 42.1366 69.7949 42.0297C68.8359 41.6019 67.9835 41.2811 67.0245 40.7463C67.0245 40.7463 67.0245 40.8533 66.9179 40.9602L67.9835 41.6019L71.713 43.6339C71.713 43.6339 72.1392 43.9547 72.3523 44.0616C72.5654 44.2755 72.3523 44.2755 72.1392 44.0616C70.6474 43.2061 69.6884 42.9922 68.5163 42.5644C67.8769 42.3505 67.4507 42.1366 66.4917 41.4949C66.2786 41.7088 66.172 42.0297 65.9589 42.1366C66.2786 42.3505 66.4917 42.5644 66.4917 42.7783C66.4917 42.9922 66.3851 42.9922 66.8113 43.5269C67.6638 44.1686 68.6228 44.5964 69.4753 45.345C69.6884 45.5589 69.9015 45.7728 69.6884 45.6658C69.6884 45.6658 69.4753 45.6658 69.3687 45.5589C67.7704 44.8103 66.5982 44.2755 65.9589 44.3825C65.7458 44.3825 65.4261 44.3825 64.9999 44.0616C64.8933 44.1686 64.9999 44.0616 64.9999 43.9547C64.7868 43.9547 64.6802 43.8478 64.5736 43.7408C64.3605 43.7408 64.254 43.5269 64.1474 43.5269C63.9343 43.7408 63.7212 44.0616 63.5081 44.3825C63.0818 44.9172 63.0818 45.0242 63.1884 45.0242C63.1884 45.0242 63.1884 45.2381 63.0818 45.5589C63.0818 45.7728 62.7622 45.9867 62.6556 46.2006C62.8687 46.2006 62.9753 46.4145 63.1884 46.5214C66.0654 48.2325 68.4097 49.4089 70.9671 50.6923C71.3933 50.9062 71.713 51.0131 71.8195 51.0131C72.0326 51.0131 71.713 50.6923 71.713 50.5853C71.713 50.3714 71.2867 49.8367 70.5408 49.195C70.1146 48.7673 70.1146 48.6603 70.2212 48.5534C70.2212 48.4464 71.1802 48.9812 70.6474 48.3395C69.3687 47.4839 68.09 46.4145 66.9179 45.4519C66.5982 45.1311 66.5982 45.0242 66.9179 45.238C67.6638 45.6658 68.4097 46.0936 69.2622 46.6283C70.0081 47.27 70.754 47.6978 71.2867 47.8047C71.2867 47.8047 71.4999 47.8047 71.6064 47.9117C71.9261 48.1256 72.3523 48.3395 72.672 48.6603C72.8851 48.8742 72.8851 48.9812 72.672 48.9812L72.1392 48.9812C72.1392 48.9812 72.2458 49.302 72.672 49.5159C73.0982 49.7298 73.4179 49.9437 73.5244 49.9437C73.631 49.9437 73.631 49.7298 73.8441 49.7298C73.9507 49.7298 74.4835 49.9437 74.6966 50.2645C75.6556 51.334 76.7212 52.0826 77.9998 52.6173C78.213 52.6173 78.6392 52.9381 78.8523 53.0451C79.7048 53.7937 80.3441 54.0076 81.09 54.4354C81.5162 54.6493 81.9425 54.8632 82.3687 55.184C85.0326 57.0021 87.6965 58.9271 90.3605 60.8521C90.7867 61.173 90.9998 61.3869 90.9998 61.6008C90.9998 61.7077 90.9998 61.9216 90.9998 61.9216C90.7867 62.0285 90.2539 61.9216 89.6146 61.6008C89.2949 61.4938 89.1883 61.173 88.9752 61.066C88.6556 60.8521 88.4424 60.8521 88.1228 60.7452L87.1638 60.4243C87.1638 60.4243 86.631 60.2105 85.9916 59.5688C85.672 59.2479 85.3523 59.034 85.0326 58.9271L83.7539 58.4993C83.7539 58.4993 83.2211 58.2854 82.9015 58.0715C81.1966 56.6812 79.8113 55.9326 78.5326 55.5048C78.3195 55.5048 78.213 55.3979 77.9998 55.184C76.8277 54.4354 76.1884 54.2215 75.3359 53.9007C74.8031 53.6868 74.2703 53.3659 73.7376 53.152C73.4179 52.9381 72.9917 52.6173 72.672 52.6173C71.4999 52.1895 69.9015 51.227 68.5163 50.4784C67.5572 50.0506 66.7048 49.6228 65.6392 48.9812C64.0408 48.0186 62.9753 47.5909 61.59 46.8422C61.59 46.9492 61.4835 47.0561 61.3769 47.1631C62.3359 48.1256 62.7622 48.4464 64.1474 49.195L64.3605 49.195C64.3605 49.195 64.8933 49.7298 65.1064 49.9437C65.213 50.1576 65.213 50.1576 65.1064 50.1576C64.5736 50.0506 63.9343 49.7298 62.9753 49.195C62.2294 48.7673 61.59 48.2325 60.8441 47.8047C60.631 48.1256 60.4179 48.4464 60.3114 48.6603C60.3114 48.6603 60.3114 48.7673 60.2048 48.7673C60.2048 48.6603 60.4179 48.2325 60.5245 48.0186L60.7376 47.5909C60.7376 47.5909 60.5245 47.4839 60.4179 47.377C60.2048 47.6978 60.0982 48.0186 59.8851 48.3395C59.3523 49.4089 58.6064 50.6923 57.9671 51.7617C57.754 52.0826 57.4343 52.5104 57.2212 52.6173C56.9015 52.7242 56.9015 52.4034 57.2212 51.7617C57.3278 51.4409 57.6474 50.7992 57.5409 50.7992C57.3278 51.0131 57.3278 51.227 57.2212 51.334L57.0081 51.6548C57.0081 51.6548 56.6884 52.1895 56.5819 52.1895C56.1556 52.4034 55.836 52.9381 55.5163 53.4729C56.2622 54.3284 57.1146 54.9701 57.9671 55.3979C58.713 55.7187 59.3523 56.2535 60.0982 56.8951C60.8441 57.6438 61.59 58.2854 62.5491 58.8202C62.8687 59.034 63.1884 59.2479 63.295 59.4618C63.5081 59.7827 63.4015 59.7827 63.295 59.7827C62.2294 59.5688 61.3769 59.5688 59.4589 58.3924C58.9261 58.0715 58.6064 57.9646 58.1802 57.7507C57.754 57.5368 57.3278 57.3229 56.9015 57.109C55.7294 56.4674 54.5573 55.6118 53.5983 55.184C53.3851 55.0771 52.9589 54.8632 52.6392 54.6493C52.6392 54.6493 52.4261 54.8632 52.4261 54.9701L51.9999 56.2535C51.9999 56.2535 51.9999 56.5743 51.8933 56.6812C52.5327 57.3229 53.172 57.8576 53.8114 58.4993C54.5573 59.141 54.7704 59.5688 54.5573 59.6757C54.3442 59.6757 53.8114 59.5688 53.0655 58.9271C52.5327 58.4993 51.8933 58.0715 51.3606 57.6438C51.3606 57.7507 51.1474 57.8576 51.0409 57.8576C50.9343 57.8576 50.8278 57.8576 50.6147 57.7507C50.6147 57.7507 50.6146 57.6438 50.295 57.9646C49.7622 58.6063 49.6556 58.6063 49.5491 58.4993C49.4425 58.4993 49.2294 58.4993 49.1229 58.4993C48.9097 58.4993 48.4835 58.8202 47.9507 59.5688C46.8852 60.8521 45.8196 62.0285 44.8606 62.991C44.3278 63.5258 43.9016 63.9536 43.4753 64.5952L41.877 66.7341C41.0245 67.8036 40.1721 68.6592 39.8524 68.5522C39.6393 68.4453 39.6393 68.2314 40.3852 67.2689C41.3442 66.0925 42.0901 65.023 42.836 63.8466C44.1147 61.9216 45.4999 59.9966 47.2048 58.1785C47.5245 57.8576 47.8442 57.4299 47.8442 57.3229C47.8442 57.109 48.2704 56.3604 47.7376 56.5743C47.7376 56.5743 47.7376 56.5743 47.7376 56.4674C47.7376 56.2535 47.9507 55.8257 48.377 55.3979C48.377 55.3979 48.377 55.3979 48.4835 55.2909C48.377 55.2909 48.2704 55.0771 48.1638 54.9701C47.6311 54.6493 47.2048 54.3284 46.672 53.9007C45.8196 55.184 44.9671 56.4674 44.1147 57.7507C43.9015 58.0715 43.5819 58.3924 43.3688 58.8202L43.3688 58.9271L43.3688 58.6063C43.2622 58.6063 43.0491 58.9271 42.9425 59.141L42.6229 59.6757C42.6229 59.6757 42.3032 60.1035 42.1966 60.2105C42.1966 59.9966 42.4097 59.7827 42.5163 59.5688C43.1557 58.3924 43.6884 57.3229 44.5409 56.0396C44.6475 55.8257 44.6475 55.7187 44.5409 55.9326C44.5409 55.9326 44.3278 56.1465 44.2212 56.2535L43.1557 57.8576L40.8114 61.3869C40.8114 61.3869 40.3852 61.8146 40.2786 61.9216C39.9589 62.1355 40.0655 61.9216 40.2786 61.7077C41.2376 60.3174 41.5573 59.3549 42.1966 58.2854C42.5163 57.7507 42.7294 57.216 43.4753 56.4674C43.9016 56.0396 44.0081 55.7187 44.1147 55.3979C44.2212 55.0771 44.3278 54.7562 44.6475 54.3284C45.0737 53.5798 45.1802 53.259 45.2868 52.9381C45.2868 52.9381 45.2868 52.9381 45.1802 52.9381C45.1802 52.9381 44.9671 52.8312 44.8606 52.7243C44.754 52.8312 44.5409 53.0451 44.4343 53.152C44.2212 53.3659 44.1147 53.5798 44.1147 53.6868C44.3278 53.7937 44.4343 54.0076 44.5409 54.1145C44.5409 54.2215 44.3278 54.1145 44.1147 53.9007C44.1147 54.1145 44.0081 54.3284 43.795 54.6493C43.4753 55.184 42.5163 56.1465 42.1966 56.2535C41.9835 56.2535 41.9835 56.1465 41.4507 56.4674C40.7048 57.216 40.1721 58.0715 39.3196 58.8202C39.1065 59.034 38.7868 59.141 38.8934 58.9271C38.8934 58.9271 38.8934 58.7132 38.9999 58.6063C39.9589 57.109 40.5983 55.9326 40.4917 55.3979C40.4917 55.184 40.7048 54.6493 41.2376 53.9007C41.877 53.0451 42.4097 52.4034 42.836 51.6548C42.5163 51.6548 41.9835 51.334 41.4507 50.7992C41.0245 50.4784 40.7048 50.2645 40.3852 50.0506C40.1721 50.2645 39.9589 50.5853 39.6393 50.7992C39.213 51.227 38.8934 51.5478 38.5737 51.9756C36.4425 54.5423 34.9507 56.7882 33.3524 59.141C33.1393 59.5688 32.9262 59.7827 32.9262 59.9966C32.9262 60.2105 33.2458 59.9966 33.3524 59.9966C33.5655 60.1035 34.2049 59.6757 34.8442 59.0341C35.2704 58.6063 35.377 58.7132 35.4835 58.8202C35.5901 58.8202 34.9507 59.6757 35.5901 59.2479C36.6557 58.0715 37.8278 56.8951 38.8934 55.9326C39.213 55.6118 39.3196 55.7187 39.1065 56.0396C38.5737 56.7882 38.1475 57.4299 37.4016 58.1785C36.7622 58.9271 36.2294 59.4618 35.9098 60.1035C35.9098 60.1035 35.8032 60.3174 35.6966 60.4243C35.4835 60.7452 35.1639 61.066 34.8442 61.3869C34.5245 61.6007 34.5245 61.4938 34.5245 61.3869L34.5245 60.8521C34.5245 60.8521 34.3114 60.9591 33.9917 61.2799C33.6721 61.6007 33.459 61.9216 33.459 62.1355C33.459 62.2424 33.6721 62.3494 33.6721 62.4563C33.6721 62.5633 33.3524 63.098 33.0327 63.3119C31.8606 64.1674 31.0081 65.13 30.2622 66.3064C30.1557 66.5202 29.836 66.948 29.7294 67.055C28.877 67.8036 28.5573 68.4453 28.1311 69.0869C27.8114 69.5147 27.5983 69.8356 27.2786 70.2634C25.1475 72.7231 23.0163 75.1829 20.6721 77.5357C20.3524 77.8565 20.0327 78.0704 19.9262 78.0704C19.8196 78.0704 19.6065 78.0704 19.6065 77.8565L18.2213 79.3537ZM36.336 15.1863C36.336 15.1863 36.1229 14.7585 35.8032 14.5446C35.2704 14.2238 35.0573 14.2238 34.9508 14.3307C34.9508 14.4377 35.0573 14.7585 35.5901 15.1863C35.5901 15.1863 35.6967 15.1863 35.9098 15.4002C36.0163 15.4002 36.336 15.6141 36.336 15.6141C36.336 15.6141 36.336 15.4002 36.336 15.1863ZM39.3196 16.3627C39.3196 16.3627 39.213 16.3627 39.1065 16.2558C38.6803 16.0419 38.254 16.0419 38.3606 16.2558C38.3606 16.2558 38.4671 16.2558 38.5737 16.3627L38.7868 16.3627C39.5327 16.8974 39.8524 16.7905 39.3196 16.3627ZM46.672 19.1433C46.672 19.1433 46.3524 18.8225 46.1393 18.7155C45.4999 18.3947 45.0737 18.2877 45.0737 18.3947C45.0737 18.3947 45.2868 18.7155 45.6065 18.9294C45.9261 19.1433 46.2458 19.3572 46.4589 19.3572C46.5655 19.3572 46.672 19.3572 46.8852 19.3572C46.8852 19.3572 46.8852 19.3572 46.8852 19.1433L46.672 19.1433ZM72.2458 30.3726C72.2458 30.3726 72.672 29.624 72.5654 29.624C72.5654 29.624 72.1392 29.7309 71.713 30.1587C71.713 30.1587 71.6064 30.2656 71.4999 30.3726C71.4999 30.4795 71.2867 30.8004 71.2867 30.8004C71.2867 30.8004 71.4999 30.8004 71.6064 30.8004C71.713 30.8004 72.0326 30.5865 72.2458 30.2656L72.2458 30.3726ZM73.4179 52.9381C73.4179 52.9381 73.8441 53.152 73.7376 52.9381C73.7376 52.9381 73.5244 52.7243 73.4179 52.7243C73.3113 52.7243 73.2048 52.7243 73.0982 52.7243L73.3113 52.9381L73.4179 52.9381ZM55.4097 48.2325L55.1966 48.5534C55.1966 48.5534 55.1966 48.7673 55.1966 48.6603C55.1966 48.6603 55.4097 48.4464 55.4097 48.3395C55.4097 48.3395 55.4097 48.2325 55.4097 48.1256L55.4097 48.2325ZM62.2294 44.2755C62.2294 44.2755 62.1228 44.2755 62.0163 44.1686C62.0163 44.2755 62.0163 44.3825 62.0163 44.3825C62.0163 44.3825 62.1228 44.3825 62.3359 44.2755L62.2294 44.2755ZM59.1392 28.5545L58.9261 28.5545C58.9261 28.5545 58.9261 28.5545 59.0327 28.5545L59.1392 28.5545ZM56.5819 25.7739C56.5819 25.7739 56.6884 25.7739 56.6884 25.8809C56.6884 25.8809 56.5819 25.8809 56.4753 25.8809C56.4753 25.9878 56.2622 26.2017 56.1556 26.3087C56.1556 26.3087 56.1556 26.3087 56.2622 26.3087C56.3687 26.3087 56.5819 26.4156 56.6884 26.5225C56.9015 26.2017 57.1146 25.9878 57.1146 25.7739C57.1146 25.56 56.9015 25.4531 56.795 25.3461C56.6884 25.56 56.5819 25.56 56.4753 25.7739L56.5819 25.7739ZM55.9425 25.7739L53.4917 24.7045C53.4917 24.7045 53.2786 24.8114 53.2786 24.9184C53.5983 25.1322 53.8114 25.2392 54.131 25.4531C54.6638 25.667 55.1966 25.8809 55.6228 26.0948C55.7294 25.9878 55.836 25.8809 55.9425 25.7739ZM55.4097 22.3517C55.4097 22.3517 55.6228 22.1378 55.7294 22.1378C55.836 22.0308 56.0491 21.8169 56.0491 21.8169C56.0491 21.8169 55.9425 21.8169 55.836 21.9239L55.5163 22.2447L55.5163 22.3517L55.4097 22.3517ZM32.9262 28.3406C32.9262 28.3406 32.0737 27.9128 32.1803 28.1267C32.1803 28.3406 32.713 28.6615 33.0327 29.0892C33.2458 29.1962 33.5655 29.4101 33.5655 29.3031C33.5655 29.0892 33.2458 28.6615 33.3524 28.6615C33.3524 28.6615 33.0327 28.4476 32.9262 28.3406ZM41.7704 47.5909C41.7704 47.5909 42.0901 47.8047 42.1966 47.9117C42.6229 48.2325 43.0491 48.3395 43.1557 48.3395C43.1557 48.3395 43.2622 48.3395 43.1557 48.1256C42.9425 47.9117 42.6229 47.6978 42.4097 47.4839C42.1966 47.377 42.0901 47.27 41.877 47.27C41.877 47.27 41.7704 47.4839 41.6639 47.4839L41.7704 47.5909ZM45.4999 46.6283C44.8606 46.3075 44.754 46.3075 45.0737 46.8422C45.0737 46.8422 45.0737 46.9492 45.1802 47.0561C45.1802 46.9492 45.3934 46.7353 45.4999 46.6283ZM56.5819 42.3505C56.5819 42.3505 56.9015 42.0297 57.1146 41.9227C56.795 41.8158 56.4753 41.6019 56.1556 41.4949C56.0491 41.6019 55.9425 41.8158 55.7294 41.9227C55.7294 41.9227 55.5163 42.4575 55.3032 42.8852C55.1966 43.0991 54.9835 43.42 54.7704 43.6339C54.8769 43.6339 54.9835 43.7408 55.0901 43.8478C55.5163 43.2061 55.7294 42.9922 56.4753 42.3505L56.5819 42.3505ZM56.795 41.388C56.795 41.388 57.2212 41.7088 57.3278 41.7088C57.3278 41.7088 57.2212 41.4949 57.0081 41.388C56.795 41.1741 56.5819 41.0672 56.4753 41.0672C56.4753 41.0672 56.5819 41.2811 56.795 41.388ZM38.254 38.7144C37.6147 39.1421 36.9753 39.6769 36.336 40.1047C37.1885 40.5324 37.8278 40.7463 38.254 40.6394C38.5737 40.6394 38.9999 40.6394 40.0655 41.388C40.5983 41.7088 40.8114 41.8158 41.2376 41.9227C41.4507 41.9227 41.877 42.2436 42.3032 42.5644C42.7294 42.0297 43.1557 41.4949 43.3688 41.0672C43.3688 41.0672 43.4753 40.9602 43.5819 40.8533C43.5819 40.8533 43.795 40.7463 43.795 40.8533C43.795 40.8533 43.795 40.9602 43.795 41.0672C43.6884 41.388 43.1556 41.9227 43.4753 41.9227C43.9016 41.9227 44.4343 41.0672 44.9671 40.6394C44.9671 40.6394 44.6475 40.3185 44.6475 40.2116C44.6475 40.2116 44.6475 40.1047 44.6475 39.9977C44.6475 39.9977 44.6475 39.8908 44.3278 39.6769C44.3278 39.6769 44.1147 39.5699 44.0081 39.5699C43.9016 39.5699 44.0081 39.8908 43.5819 39.5699C42.7294 39.0352 42.3032 38.8213 42.0901 38.9283C42.0901 38.9283 41.877 38.8213 41.7704 38.7144C41.6639 38.8213 41.4507 39.0352 41.3442 39.1421C41.3442 39.1421 41.3442 39.1421 41.4507 39.1421C41.4507 39.1421 41.3442 39.1421 41.2376 39.1421C41.2376 39.1421 41.1311 39.2491 41.0245 39.356C40.918 39.356 40.7048 39.5699 40.7048 39.5699C40.8114 39.463 40.918 39.2491 41.0245 39.1421C40.8114 39.1421 40.4917 39.0352 40.3852 39.0352C40.3852 39.0352 40.3852 39.0352 40.2786 39.0352C40.2786 39.0352 39.8524 39.463 39.7458 39.463C39.7458 39.463 39.7458 39.463 39.7458 39.2491L39.9589 38.9283C39.9589 38.9283 39.5327 38.7144 39.213 38.5005C39.213 38.5005 39.1065 38.5005 38.9999 38.3935C38.7868 38.5005 38.5737 38.6074 38.3606 38.8213L38.254 38.7144ZM34.6311 42.8852C34.6311 42.8852 34.3114 42.5644 34.2049 42.5644C34.2049 42.5644 34.2049 42.5644 34.418 42.8852C34.6311 43.0991 34.7376 43.0991 34.8442 43.0991C34.8442 43.0991 34.8442 42.9922 34.7376 42.8852L34.6311 42.8852ZM49.8687 40.4255C49.8687 40.4255 49.6556 40.3185 49.5491 40.2116C49.336 39.9977 49.1229 39.8908 49.2294 39.8908C49.2294 39.8908 49.5491 39.9977 49.7622 40.2116C49.7622 40.2116 49.9753 40.3185 49.9753 40.4255C50.295 39.9977 50.6147 39.5699 50.9343 39.1421C50.9343 39.1421 51.0409 39.0352 51.1474 38.9283C50.9343 38.7144 50.7212 38.6074 50.7212 38.5005C50.7212 38.5005 50.6146 38.5005 50.5081 38.6074C50.295 38.8213 49.9753 39.0352 49.7622 39.2491C49.1229 39.7838 48.6966 40.1047 48.377 40.3185C48.4835 40.3185 48.5901 40.4255 48.6966 40.5324L49.5491 41.0672C49.5491 41.0672 49.7622 40.8533 49.7622 40.7463L49.8687 40.4255ZM52.9589 39.5699C52.9589 39.5699 52.9589 39.5699 52.9589 39.356C52.9589 39.356 52.9589 39.356 52.8524 39.356C52.8524 39.356 52.9589 39.356 53.0655 39.356L52.9589 39.5699ZM55.6228 34.0087C55.6228 34.0087 56.1556 33.3671 56.1556 33.2601L55.5163 33.7949C55.5163 33.7949 54.9835 34.2226 54.7704 34.4365C54.4507 34.6504 54.4507 34.6504 54.5573 34.4365C54.5573 34.3296 54.8769 34.1157 54.9835 33.9018C54.7704 33.9018 54.6638 33.9018 54.7704 34.1157C54.7704 34.1157 54.7704 34.1157 54.6638 34.2226C54.6638 34.2226 54.5573 34.2226 54.4507 34.2226C54.3442 34.2226 54.131 34.0087 54.0245 33.9018L53.7048 34.1157L53.9179 33.9018L53.5983 33.581C53.5983 33.581 53.5983 33.581 53.4917 33.6879L53.0655 34.1157C53.0655 34.1157 53.2786 34.2226 53.2786 34.3296C53.2786 34.3296 53.2786 34.2226 53.3851 34.1157L53.3851 34.3296C53.3851 34.3296 53.3851 34.6504 53.3851 34.7574C53.3851 34.8643 53.7048 35.0782 54.0245 35.2921C54.0245 35.2921 54.0245 35.2921 54.131 35.2921C54.5573 34.8643 54.9835 34.4365 55.3032 34.0087L55.6228 34.0087ZM48.5901 30.5865C48.5901 30.5865 49.0163 30.6934 49.2294 30.8004C49.7622 31.0143 50.295 31.3351 50.5081 31.549C50.8278 31.8698 50.4015 31.6559 50.1884 31.6559C50.4015 31.7629 50.5081 31.8698 50.6147 31.9768C50.8278 31.7629 51.0409 31.549 51.254 31.3351C51.254 31.3351 51.1474 31.3351 51.0409 31.3351C50.8278 31.2282 50.5081 31.1212 50.295 31.0143C49.7622 30.6934 49.4425 30.4795 49.0163 30.1587C48.9097 30.3726 48.6966 30.5865 48.5901 30.8004L48.5901 30.5865ZM50.6147 30.3726L51.254 30.8004C51.3606 30.6934 51.4671 30.5865 51.4671 30.5865C51.0409 30.2656 50.6147 29.9448 50.1884 29.7309C49.9753 29.624 49.7622 29.517 49.6556 29.517C49.4425 29.517 50.0819 30.1587 50.5081 30.4795L50.6147 30.3726ZM52.9589 29.8379C52.9589 29.8379 53.3851 29.9448 53.7048 30.1587C53.7048 30.1587 53.7048 30.0518 53.5983 30.0518C53.3851 29.9448 53.2786 29.8379 53.172 29.7309C53.172 29.7309 53.0655 29.9448 52.9589 29.9448L52.9589 29.8379ZM52.5327 31.3351C52.5327 31.3351 52.4261 31.3351 52.3196 31.2282C52.213 31.442 51.9999 31.549 51.7868 31.7629C51.4671 31.9768 51.3606 31.9768 51.3606 31.9768L51.8933 31.442C51.8933 31.442 52.213 31.2282 52.3196 31.1212C52.3196 31.1212 52.1065 31.0143 51.9999 30.9073C51.9999 31.0143 51.7868 31.1212 51.6802 31.2282C51.8933 31.442 51.9999 31.549 51.6802 31.549L51.5737 31.549C51.3606 31.8698 51.1474 32.0837 51.3606 32.0837C51.254 32.1907 51.1474 32.2976 51.0409 32.4046C51.254 32.6185 51.254 32.6185 51.0409 32.6185L50.8278 32.6185L50.6147 32.8323C50.8278 32.8323 50.9343 33.0462 51.1474 33.0462L51.1474 32.9393C51.1474 32.9393 51.9999 31.9768 52.6392 31.3351L52.5327 31.3351ZM39.9589 34.7574C39.9589 34.7574 39.9589 34.7574 40.0655 34.7574C40.1721 34.7574 40.2786 34.5435 40.3852 34.4365C40.3852 34.4365 40.2786 34.4365 40.1721 34.3296L40.3852 34.3296C40.3852 34.3296 40.5983 34.3296 40.7048 34.1157C41.2376 33.581 41.2376 33.3671 41.1311 33.2601C41.1311 33.2601 40.918 33.3671 40.8114 33.474C40.7048 33.581 40.5983 33.6879 40.4917 33.7949C40.3852 33.9018 40.2786 34.1157 40.1721 34.2226C40.0655 34.4365 39.9589 34.5435 39.9589 34.6504L39.9589 34.7574ZM39.3196 37.9657C39.3196 37.9657 39.7458 38.2866 40.0655 38.5005L40.7048 37.7518C40.7048 37.7518 40.2786 37.538 40.1721 37.538L39.9589 37.538C39.9589 37.538 39.5327 37.7518 39.3196 37.9657ZM40.2786 38.6074C40.2786 38.6074 40.7048 38.9283 40.918 39.0352C40.918 39.0352 40.918 39.0352 41.0245 38.9283L41.3442 38.5005C41.3442 38.3935 41.3442 38.1796 41.0245 38.0727C41.0245 38.0727 41.0245 38.0727 40.918 38.0727L40.2786 38.8213L40.2786 38.6074ZM48.4835 40.4255C48.4835 40.4255 48.4835 40.4255 48.377 40.4255C48.2704 40.4255 48.1638 40.3185 48.1638 40.4255C48.1638 40.4255 48.2704 40.5324 48.377 40.6394C48.377 40.6394 48.377 40.6394 48.4835 40.6394L48.4835 40.4255ZM52.5327 38.0727L51.8933 37.431C51.8933 37.431 51.1474 36.8963 50.9343 36.8963C50.9343 36.8963 51.0409 37.0032 51.254 37.1102L51.254 37.2171C51.254 37.2171 51.7868 37.0032 51.6802 37.2171C51.6802 37.2171 51.6802 37.2171 51.5737 37.3241L51.9999 37.6449C51.9999 37.6449 52.4261 37.9657 52.6392 38.0727C52.6392 38.0727 52.7458 38.0727 52.8524 37.9657C52.8524 37.9657 52.8524 37.9657 52.8524 37.8588L52.5327 38.0727ZM42.836 36.2546C42.836 36.2546 43.0491 36.2546 43.1557 36.4685L43.4753 36.1477C43.4753 36.1477 43.6884 35.8268 42.9425 36.2546L42.836 36.2546ZM44.3278 36.0407C44.3278 36.0407 44.8606 36.4685 45.1802 36.6824C45.3934 36.8963 45.6065 37.1102 45.9261 37.3241C46.2458 37.6449 46.4589 37.8588 46.672 38.0727C46.672 38.0727 46.8851 37.8588 46.9917 37.7518C47.0983 37.538 47.4179 37.431 47.5245 37.3241C47.5245 37.3241 47.6311 37.3241 47.7376 37.3241C47.7376 37.3241 47.8442 37.3241 47.9507 37.2171C47.6311 37.1102 47.4179 36.8963 47.0983 36.7893L46.8852 37.0032C46.8852 37.0032 46.8851 37.0032 46.9917 36.8963C46.5655 36.6824 46.2458 36.4685 45.8196 36.2546C45.4999 36.0407 45.1802 35.7199 45.0737 35.6129C44.8606 35.8268 44.6475 36.0407 44.4343 36.1477L44.3278 36.0407ZM48.2704 36.4685C48.2704 36.4685 48.4835 36.2546 48.5901 36.1477C48.377 36.0407 48.2704 35.9338 48.0573 35.9338C48.0573 36.0407 47.8442 36.1477 47.7376 36.2546C47.9507 36.3616 48.0573 36.4685 48.2704 36.5754L48.2704 36.4685ZM47.4179 35.8268C47.4179 35.8268 46.9917 35.8268 47.4179 36.1477C47.4179 36.1477 47.5245 35.9338 47.631 35.8268C47.5245 35.8268 47.4179 35.8268 47.3114 35.8268L47.4179 35.8268ZM46.2458 34.3296C46.2458 34.3296 47.4179 34.9713 47.5245 34.9713C47.5245 34.9713 47.5245 34.7574 47.3114 34.6504C47.0983 34.4365 46.7786 34.3296 46.5655 34.1157C46.5655 34.1157 46.4589 34.3296 46.3524 34.3296L46.2458 34.3296ZM50.5081 38.0727C50.5081 38.0727 50.295 38.0727 50.295 37.9657C49.9753 38.2866 49.6556 38.6074 49.336 38.9283C49.0163 39.1421 48.9097 39.463 48.9097 39.463C48.9097 39.463 49.2294 39.356 49.6556 38.9283C49.9753 38.6074 50.295 38.2866 50.6147 38.0727L50.5081 38.0727ZM46.4589 38.3935C46.4589 38.3935 46.2458 38.0727 45.8196 37.7518C45.1802 37.2171 44.5409 36.7893 44.1147 36.2546C43.9015 36.3616 43.795 36.5754 43.6884 36.6824C44.3278 37.1102 45.0737 37.431 45.8196 38.0727C46.1393 38.2866 46.3524 38.3935 46.3524 38.3935L46.4589 38.3935ZM42.836 36.2546C42.836 36.2546 43.1557 35.9338 42.836 36.0407L42.836 36.1477L42.836 36.2546ZM48.8032 31.6559C48.8032 31.6559 49.4425 32.1907 49.8688 32.4046C49.9753 32.4046 50.0819 32.5115 50.295 32.6185C50.295 32.6185 50.295 32.6185 50.295 32.5115C50.295 32.5115 50.295 32.5115 50.4015 32.4046C50.295 32.4046 50.1884 32.4046 49.9753 32.1907C49.5491 31.8698 49.4425 31.6559 49.5491 31.6559C49.5491 31.6559 49.6556 31.6559 49.7622 31.6559L48.5901 31.0143C48.5901 31.0143 48.377 31.3351 48.377 31.549C48.4835 31.6559 48.6966 31.7629 48.6966 31.8698L48.8032 31.6559ZM47.631 27.4851C47.631 27.4851 47.6311 27.4851 47.5245 27.4851L47.631 27.4851ZM50.295 28.6615C50.295 28.6615 50.7212 28.8754 51.0409 29.0892C51.7868 29.624 52.1065 29.7309 52.4261 29.8379C52.4261 29.7309 52.7458 29.4101 52.9589 29.3031C52.8524 29.3031 52.6392 29.0892 52.5327 28.9823C52.3196 28.7684 51.9999 28.5545 51.7868 28.5545C51.5737 28.5545 51.4671 28.5545 51.254 28.5545C51.0409 28.5545 50.8278 28.5545 50.6147 28.3406C50.6147 28.4476 50.4015 28.5545 50.295 28.6615ZM55.5163 32.5115C55.5163 32.5115 55.3032 32.2976 55.1966 32.1907C54.9835 32.4046 54.6638 32.7254 54.5573 32.9393C54.5573 32.9393 54.3442 33.1532 54.2376 33.1532C54.2376 33.1532 54.2376 33.1532 54.131 33.1532C54.2376 33.1532 54.3442 33.2601 54.5573 33.3671C54.6638 33.2601 54.8769 33.1532 54.9835 33.0462C54.9835 33.1532 54.7704 33.2601 54.6638 33.3671C54.6638 33.3671 54.6638 33.3671 54.7704 33.3671C54.8769 33.3671 55.0901 33.581 55.1966 33.6879C55.4097 33.474 55.6228 33.1532 55.836 32.9393C55.5163 32.7254 55.6228 32.6185 55.5163 32.5115ZM56.4753 34.0087C56.4753 34.0087 56.4753 34.3296 56.5819 34.2226C56.795 34.2226 57.0081 33.9018 57.3278 33.581C57.3278 33.581 57.4343 33.474 57.5409 33.3671C57.4343 33.3671 57.3278 33.3671 57.2212 33.2601C57.0081 33.474 56.6884 33.7949 56.5819 34.0087L56.4753 34.0087ZM56.4753 34.9713C56.4753 34.9713 56.1556 35.1851 56.0491 35.399C56.0491 35.399 56.0491 35.399 55.9425 35.506C55.9425 35.506 56.0491 35.506 56.1556 35.6129C56.3687 35.2921 56.6884 34.9713 56.5819 34.9713L56.4753 34.9713ZM52.7458 39.7838C52.7458 39.7838 52.7458 39.7838 52.6392 39.7838C52.213 40.2116 51.7868 40.8533 51.8933 40.9602C51.8933 40.9602 52.1065 40.9602 52.213 40.7463C52.5327 40.5324 52.7458 40.2116 52.9589 39.9977C52.9589 39.9977 52.8524 39.9977 52.7458 39.9977L52.7458 39.7838ZM51.0409 40.7463C51.0409 40.7463 51.254 40.3185 50.7212 40.7463C50.6147 40.8533 50.5081 41.0672 50.295 41.1741L50.7212 41.388C50.7212 41.388 50.9343 41.1741 50.9343 41.0672C50.9343 40.9602 50.9343 40.8533 50.9343 40.7463L51.0409 40.7463ZM47.9507 43.7408C47.9507 43.7408 48.1638 43.6339 48.377 43.42C48.4835 43.2061 48.6966 42.9922 48.8032 42.7783C48.8032 42.7783 48.5901 42.6714 48.5901 42.5644C48.377 42.5644 48.4835 42.5644 48.5901 42.3505C48.5901 42.3505 48.377 42.2436 48.2704 42.1366L48.2704 42.0297C48.2704 42.0297 47.9507 41.7088 47.5245 41.4949C47.0983 41.2811 47.0983 41.2811 47.0983 41.4949C47.0983 41.6019 47.4179 41.9227 47.0983 41.9227C46.9917 41.9227 46.8851 41.9227 46.5655 41.7088L44.4343 44.2755C44.6475 44.3825 44.8606 44.4894 45.0737 44.7033C45.4999 45.0242 46.0327 45.2381 46.4589 45.5589C46.672 45.2381 46.9917 44.8103 47.3114 44.4894C47.7376 43.9547 47.9507 43.7408 48.1638 43.8478L47.9507 43.7408ZM29.9426 39.1421C29.9426 39.1421 29.9426 39.1421 29.9426 38.9283C29.9426 38.9283 29.9426 38.9283 29.836 38.9283C29.9426 38.9283 30.0491 39.0352 30.1557 39.1421L29.9426 39.1421ZM31.6475 37.431C31.6475 37.431 32.0737 37.6449 32.2868 37.7518C32.4999 37.8588 32.713 37.9657 32.8196 38.0727C33.0327 37.8588 33.2458 37.6449 33.459 37.431C33.7786 37.1102 34.2049 36.7893 34.3114 36.4685C34.418 36.2546 34.7376 36.0407 34.8442 35.8268C34.6311 35.6129 34.418 35.506 34.3114 35.399C33.6721 35.9338 32.9262 36.4685 32.2868 36.8963L31.6475 37.3241L31.6475 37.431ZM34.5245 35.1851C34.5245 35.1851 34.9508 35.399 35.1639 35.6129C35.1639 35.6129 35.2704 35.399 35.377 35.2921C35.2704 35.2921 35.0573 35.1851 34.7376 34.8643C34.6311 34.8643 34.5245 35.0782 34.418 35.1851L34.5245 35.1851ZM37.5081 32.9393L37.5081 32.8323C37.5081 32.8323 37.5081 32.7254 37.295 32.8323C37.295 32.8323 37.4016 32.8323 37.5081 32.9393ZM36.9753 30.5865C36.9753 30.5865 36.9753 30.4795 36.7622 30.3726C36.5491 30.3726 36.4426 30.1587 36.336 30.1587C36.0163 30.1587 36.5491 30.5865 36.5491 30.8004C36.5491 30.8004 36.5491 30.8004 36.5491 30.9073C36.6557 30.8004 36.7622 30.6934 36.9753 30.5865ZM57.3278 32.8323C57.3278 32.8323 57.3278 32.8323 57.5409 32.9393C57.5409 32.9393 57.5409 32.9393 57.6474 32.8323L57.4343 32.7254L57.3278 32.8323ZM59.672 35.399L59.4589 35.8268C59.8851 35.6129 59.9917 35.8268 60.0982 35.9338C60.0982 35.9338 60.4179 35.7199 60.7376 35.399C60.5245 35.2921 60.3114 35.0782 59.9917 34.9713C59.8851 35.1851 59.7786 35.2921 59.672 35.506L59.672 35.399ZM62.4425 35.9338C62.4425 35.9338 62.0163 35.9338 61.6966 35.8268C61.6966 35.8268 61.6966 35.8268 61.59 35.9338C61.2704 36.2546 60.8441 36.7893 60.9507 36.7893C61.1638 36.7893 61.2704 36.8963 61.4835 36.8963C61.59 36.8963 62.1228 36.3616 62.5491 35.9338L62.4425 35.9338ZM57.9671 42.2436C57.5409 42.7783 57.3278 43.2061 57.4343 43.42C57.5409 43.5269 57.6474 43.6339 57.8605 43.7408C57.8605 43.7408 57.8605 43.7408 57.8605 43.5269C58.1802 43.0991 58.2868 42.7783 58.4999 42.4575C58.2868 42.4575 58.0737 42.2436 57.9671 42.1366L57.9671 42.2436ZM57.6474 43.9547C57.6474 43.9547 57.4343 43.8478 57.3278 43.7408C57.3278 43.9547 57.1146 44.1686 56.6884 44.5964C56.9015 44.7033 57.1146 44.8103 57.2212 44.9172C57.2212 44.7033 57.4343 44.3825 57.6474 43.9547ZM60.4179 46.8422C60.4179 46.8422 60.4179 46.8422 60.631 46.9492L60.631 46.6283C60.631 46.6283 60.8441 46.4145 60.7376 46.5214C60.7376 46.5214 60.5245 46.7353 60.4179 46.8422ZM55.5163 47.377C55.5163 47.377 55.7294 47.1631 55.836 47.0561L55.6228 47.0561C55.6228 47.0561 55.5163 47.27 55.3032 47.4839C55.3032 47.4839 55.3032 47.4839 55.3032 47.5909C55.3032 47.5909 55.5163 47.377 55.6228 47.377L55.5163 47.377ZM56.1556 43.9547C56.1556 43.9547 56.3687 43.5269 56.4753 43.5269C56.4753 43.313 56.0491 43.7408 55.7294 44.0616C55.7294 44.0616 55.836 44.0616 55.9425 44.1686C55.9425 44.1686 56.0491 43.9547 56.1556 43.9547ZM54.9835 43.9547C54.9835 43.9547 54.8769 43.8478 54.7704 43.8478L54.5573 43.8478C54.5573 43.8478 54.5573 43.8478 54.4507 43.8478C54.5573 43.8478 54.7704 44.0616 54.8769 44.0616L54.9835 43.9547ZM53.9179 43.5269C53.9179 43.5269 54.0245 43.5269 54.131 43.42L54.131 43.313C54.131 43.313 54.131 43.313 54.2376 43.313C54.4507 43.2061 54.5573 43.0991 54.5573 43.0991C54.5573 43.0991 54.5573 43.2061 54.5573 43.313L55.6228 41.9227C55.6228 41.9227 55.7294 41.6019 55.9425 41.2811C55.9425 41.2811 55.836 41.2811 55.7294 41.2811C55.3032 41.7088 54.9835 42.1366 54.5573 42.3505C54.5573 42.3505 54.5573 42.3505 54.4507 42.4575C54.6638 42.6714 54.6638 42.7783 54.4507 42.7783C54.4507 42.7783 54.2376 42.7783 54.0245 42.7783C53.9179 42.8852 53.8114 43.0991 53.7048 43.2061C53.7048 43.2061 53.9179 43.313 53.9179 43.42L53.9179 43.5269ZM49.2294 43.9547C49.2294 43.9547 49.2294 43.9547 48.8032 44.1686L48.0573 44.8103C48.0573 44.8103 47.4179 45.4519 47.4179 45.6658C47.4179 45.8797 47.631 45.6658 47.8442 45.4519L48.5901 44.9172C48.5901 44.9172 49.2294 44.1686 49.336 43.9547L49.2294 43.9547ZM46.7786 45.5589C46.7786 45.5589 47.0983 45.238 47.0983 45.0242C47.0983 45.0242 47.0983 45.0242 46.672 45.238C46.4589 45.4519 46.4589 45.4519 46.4589 45.5589C46.4589 45.5589 46.4589 45.5589 46.5655 45.5589C46.5655 45.5589 46.672 45.5589 46.7786 45.345L46.7786 45.5589ZM46.0327 45.7728L43.9016 44.5964C43.9016 44.5964 43.9016 44.5964 43.795 44.7033C43.795 44.7033 43.795 44.8103 44.0081 45.0242C44.2212 45.238 44.2212 45.238 44.0081 45.238C43.9016 45.238 43.4753 44.9172 43.795 45.238L44.0081 45.238C44.2212 45.238 44.3278 45.238 44.4343 45.4519C44.4343 45.4519 44.4343 45.4519 44.3278 45.6658L45.4999 46.4145C45.4999 46.4145 45.713 45.9867 45.9261 45.8797L46.0327 45.7728ZM27.2786 35.6129L27.5983 35.8268C27.5983 35.8268 27.5983 35.6129 27.4917 35.6129C27.2786 35.506 27.0655 35.2921 27.0655 35.399C27.0655 35.399 27.0655 35.399 27.2786 35.506L27.2786 35.6129ZM24.7213 33.6879C24.7213 33.6879 24.7213 33.6879 24.7213 33.581C24.0819 33.0462 23.7622 32.8323 23.4426 32.8323C23.9754 33.2601 24.5081 33.6879 24.8278 33.7949L24.7213 33.6879ZM25.6803 33.6879C25.6803 33.6879 25.4672 33.474 25.3606 33.3671C25.0409 33.1532 24.8278 32.9393 24.8278 33.0462C24.8278 33.0462 25.0409 33.2601 25.1475 33.3671C25.4672 33.581 25.6803 33.7949 25.6803 33.6879ZM21.3114 31.3351C21.3114 31.3351 21.418 31.549 21.7377 31.7629C22.377 32.2976 22.9098 32.6185 23.336 32.7254C22.9098 32.2976 22.4836 31.9768 21.9508 31.549C21.5245 31.2282 21.2049 31.1212 21.3114 31.3351ZM25.6803 29.8379L25.4672 29.7309C25.0409 29.517 24.5081 29.3031 24.0819 29.0892C23.6557 28.8754 23.8688 29.0892 24.295 29.624C24.7213 30.0518 24.295 29.8379 23.8688 29.624C23.336 29.3031 22.9098 28.8754 22.377 28.5545C21.418 27.9128 20.9918 27.592 20.7786 27.6989C20.7786 27.6989 21.0983 28.2337 21.5245 28.5545C21.7377 28.6615 21.9508 28.8754 22.1639 28.9823C23.4426 29.624 24.7213 30.3726 25.9999 31.0143C26.3196 31.1212 26.4262 31.2282 26.6393 31.2282C26.8524 31.2282 26.2131 30.3726 25.6803 29.9448L25.6803 29.8379ZM28.2377 32.8323L27.7049 32.4046C27.4917 32.5115 26.3196 31.6559 26.1065 31.7629C25.7868 31.7629 25.0409 31.3351 24.295 31.0143C23.4426 30.5865 22.6967 30.2656 21.9508 29.9448C21.5245 29.7309 21.3114 29.7309 21.0983 29.7309C20.9918 29.7309 21.0983 30.0518 21.7377 30.4795C22.1639 30.8004 22.5901 31.1212 23.0164 31.442L28.6639 35.399C28.6639 35.399 29.1967 35.7199 29.4098 36.0407C29.4098 36.2546 28.7704 35.7199 28.5573 35.7199C28.5573 35.7199 28.5573 35.9338 28.7704 36.0407L30.0491 37.0032C30.0491 37.0032 30.0491 37.0032 30.1557 37.0032C30.3688 36.7893 30.6885 36.5754 30.9016 36.3616C31.3278 35.9338 31.8606 35.506 32.2868 35.0782L31.6475 34.5435C31.0081 34.0087 30.5819 33.7949 30.3688 33.7949C30.3688 33.7949 30.2622 33.7949 30.1557 33.7949C29.9426 34.0087 29.0901 33.474 28.0245 32.8323L28.2377 32.8323ZM30.9016 33.3671C31.9672 34.0087 32.4999 34.0087 32.9262 34.0087C32.9262 34.0087 33.2458 34.1157 33.459 34.3296C33.459 34.3296 33.6721 34.1157 33.7786 34.1157C32.6065 33.2601 31.754 32.8323 31.4344 32.9393C31.2213 32.9393 31.1147 33.2601 31.0081 33.3671L30.9016 33.3671ZM30.9016 29.3031C30.9016 29.3031 31.4344 29.624 31.754 29.8379C32.713 30.3726 33.6721 31.0143 34.5245 31.442C34.8442 31.6559 35.2704 31.8698 35.6967 32.0837C35.6967 31.8698 36.0163 31.6559 36.336 31.3351C36.1229 31.3351 35.9098 31.2282 35.377 30.9073C34.2049 30.2656 33.1393 29.7309 31.9672 29.0892C31.1147 28.6615 30.2622 28.3406 29.5163 27.9128C28.9835 27.6989 28.9835 27.8059 29.5163 28.2337C29.836 28.6615 30.2622 28.9823 30.795 29.3031L30.9016 29.3031ZM27.2786 27.3781C27.2786 27.3781 27.7049 27.6989 27.918 27.8059C28.3442 28.1267 28.6639 28.2337 28.5573 28.0198C28.5573 27.9128 28.5573 27.8059 28.5573 27.592C27.918 27.3781 27.5983 27.2712 27.2786 27.1642C27.1721 27.1642 27.0655 27.1642 27.2786 27.3781ZM33.0327 26.9503C33.0327 26.9503 33.8852 27.6989 34.5245 28.1267C34.7376 28.1267 34.9508 28.3406 35.0573 28.3406C35.1639 28.3406 35.377 28.3406 35.2704 28.3406C35.2704 28.2337 34.9508 28.0198 34.7376 27.9128C34.6311 27.9128 34.5245 27.6989 34.418 27.592C33.9917 27.0573 33.9917 27.0573 33.5655 26.9503C33.1393 26.7364 32.713 26.5225 33.0327 26.9503ZM23.4426 25.9878C24.1885 26.5225 24.7213 26.8434 24.8278 26.7364C24.8278 26.7364 24.8278 26.6295 24.6147 26.5225C24.6147 26.5225 24.295 26.3087 24.1885 26.2017C23.5491 25.7739 23.6557 26.0948 23.336 25.9878L23.4426 25.9878ZM25.7868 25.7739C25.7868 25.7739 25.8934 25.9878 25.9999 25.9878C26.1065 25.9878 26.2131 26.2017 26.3196 26.2017C26.7459 26.4156 26.5327 26.2017 26.6393 26.2017C26.6393 26.2017 27.0655 26.2017 26.6393 25.8809C26.3196 25.56 25.7868 25.3461 25.7868 25.4531C25.7868 25.4531 25.7868 25.667 25.7868 25.7739ZM35.377 23.2072C35.377 23.2072 34.8442 22.8864 34.7376 22.8864C34.7376 22.8864 34.7376 23.1003 35.0573 23.2072C35.2704 23.3142 35.377 23.4211 35.4835 23.4211C35.4835 23.4211 35.4835 23.4211 35.377 23.2072ZM28.4508 23.9558C28.4508 23.9558 28.9835 23.8489 29.1967 23.742C29.1967 23.742 29.1967 23.635 28.9836 23.4211C28.7704 23.2072 28.4508 22.9933 28.2377 22.8864L27.0655 22.2447C27.0655 22.2447 26.7458 22.2447 26.959 22.2447C27.4917 22.7794 27.7049 23.2072 28.1311 23.742C28.1311 23.742 28.2377 23.8489 28.3442 23.8489C28.3442 23.8489 28.4508 23.8489 28.5573 23.9558C28.7704 23.9558 28.5573 23.8489 28.5573 23.8489L28.4508 23.9558ZM26.8524 24.4906C26.8524 24.4906 26.8524 24.5975 26.959 24.7045C27.1721 24.9184 27.3852 25.0253 27.4917 25.0253C27.5983 25.0253 27.4917 25.0253 27.2786 24.8114C27.0655 24.5975 26.8524 24.4906 26.8524 24.4906ZM39.4262 25.8809C39.4262 25.8809 39.6393 26.2017 39.7458 26.4156C39.7458 26.7364 39.3196 26.6295 38.4671 26.0948C37.9344 25.7739 37.295 25.4531 36.7622 25.0253C36.7622 25.0253 36.7622 25.2392 36.6557 25.2392C36.6557 25.2392 36.2294 25.1322 36.4426 25.2392C36.8688 25.56 37.1885 25.7739 37.4016 25.7739C38.3606 26.0948 39.5327 26.6295 40.918 27.3781C41.0245 27.2712 41.1311 27.1642 41.2376 27.0573C41.2376 27.0573 41.4507 27.0573 41.6639 26.8434C41.6639 26.8434 41.6639 26.8434 41.6639 26.7364C41.5573 26.7364 41.3442 26.5225 41.2376 26.4156L40.1721 25.7739C39.5327 25.4531 39.4262 25.4531 39.6393 25.7739L39.4262 25.8809ZM46.3524 20.2127C46.3524 20.2127 46.7786 20.6405 47.0983 20.7475C47.0983 20.7475 47.4179 20.6405 47.5245 20.5336C47.5245 20.5336 47.4179 20.5336 47.3114 20.5336C46.9917 20.4266 46.7786 20.3197 46.4589 20.1058C46.2458 20.1058 46.1393 20.1058 46.2458 20.1058L46.3524 20.2127ZM47.5245 20.2127C47.5245 20.2127 47.5245 20.3197 47.7376 20.4266C47.7376 20.4266 47.7376 20.4266 47.8442 20.3197C47.631 20.3197 47.5245 20.2127 47.5245 20.3197L47.5245 20.2127ZM58.0737 20.4266C58.0737 20.4266 57.5409 20.8544 57.6474 20.8544C57.6474 20.8544 57.8605 20.7475 57.9671 20.6405C58.2868 20.4266 58.4999 20.2127 58.3933 20.2127C58.3933 20.2127 58.1802 20.3197 58.0737 20.4266ZM57.9671 19.9989C57.9671 19.9989 57.9671 19.9989 58.0737 19.9989C58.713 19.4641 59.0327 19.2502 59.1392 18.9294C58.6064 19.3572 58.0737 19.785 57.9671 19.9989ZM60.5245 17.5391C59.8851 18.0738 59.3523 18.5016 59.2458 18.8225C59.672 18.5016 60.2048 18.1808 60.631 17.753C61.0573 17.4322 61.2704 17.1113 61.0573 17.2183C61.0573 17.2183 60.8441 17.2183 60.5245 17.5391ZM61.0573 21.1753C61.0573 21.1753 61.1638 21.0683 61.2704 20.9614C61.59 20.5336 61.9097 20.2127 62.2294 19.785C62.5491 19.4641 62.2294 19.5711 61.6966 19.785C61.2704 20.1058 61.4835 19.785 61.8032 19.4641C62.2294 19.0363 62.7622 18.6086 63.1884 18.2877C64.0409 17.5391 64.3605 17.1113 64.3605 16.8974C64.3605 16.8974 63.8277 17.2183 63.4015 17.5391C63.1884 17.753 63.0818 17.8599 62.8687 18.0738C61.9097 19.1433 60.9507 20.2127 59.9917 21.2822C59.7786 21.4961 59.672 21.71 59.672 21.8169C59.672 22.0308 60.5245 21.4961 60.9507 21.0683L61.0573 21.1753ZM56.2622 25.0253C56.2622 25.0253 56.795 24.0628 57.754 23.2072C57.9671 22.9933 58.2868 22.6725 58.2868 22.6725C58.2868 22.4586 59.2458 21.4961 59.3523 21.2822C59.3523 20.9614 59.9917 20.3197 60.5245 19.785C61.1638 19.0363 61.59 18.5016 62.1228 17.8599C62.4425 17.5391 62.5491 17.3252 62.5491 17.2183C62.5491 17.1113 62.2294 17.2183 61.8032 17.646C61.3769 17.9669 60.9507 18.3947 60.631 18.7155L55.5163 23.3142C55.5163 23.3142 55.0901 23.742 54.7704 23.9558C54.6638 23.9558 55.1966 23.4211 55.3032 23.2072C55.3032 23.2072 55.0901 23.2072 54.8769 23.4211L54.131 24.0628C54.131 24.0628 54.2376 24.2767 54.0245 24.1697L53.8114 24.3836C53.8114 24.3836 53.8114 24.3836 53.7048 24.4906C54.131 24.4906 55.1966 25.1323 56.0491 25.56C56.2622 25.3461 56.4753 25.1322 56.4753 25.0253L56.4753 24.9184L56.2622 25.0253ZM62.7622 22.7794C62.7622 22.7794 62.4425 23.1003 62.2294 23.3142C61.9097 23.635 61.59 23.9558 61.8032 23.9558C61.9097 23.9558 62.0163 23.9558 62.2294 23.9558C62.5491 23.4211 62.7622 23.1003 62.8687 22.7794C62.8687 22.7794 62.8687 22.6725 62.6556 22.7794L62.7622 22.7794ZM65.3195 22.7794C65.3195 22.7794 64.9999 23.1003 64.8933 23.2072C64.8933 23.3142 64.8933 23.2072 65.1064 23.1003C65.3195 22.8864 65.4261 22.7794 65.4261 22.6725C65.4261 22.6725 65.3195 22.6725 65.213 22.6725L65.3195 22.7794ZM64.3605 20.6405C64.3605 20.6405 64.5736 20.4266 64.6802 20.3197C65.213 19.785 64.9999 19.785 65.1064 19.5711C64.3605 20.2127 64.0409 20.6405 64.1474 20.7475C64.1474 20.7475 64.254 20.7475 64.3605 20.6405ZM64.3605 22.4586C64.3605 22.4586 65.1064 21.71 64.9999 21.71C64.9999 21.71 64.7868 21.71 64.6802 21.71C64.6802 21.71 64.4671 21.71 64.4671 21.8169L64.1474 22.1378C64.1474 22.1378 64.1474 22.3517 64.1474 22.4586C64.1474 22.4586 63.9343 22.7794 64.3605 22.4586ZM65.8523 24.5975C65.8523 24.5975 66.3851 24.1697 66.4917 23.8489L67.2376 22.7794C67.2376 22.7794 67.4507 22.4586 67.2376 22.6725C66.5982 23.2072 66.2786 23.3142 65.7458 23.742C65.7458 23.742 65.6392 23.8489 65.5327 23.9558C65.5327 23.9558 65.5327 24.0628 65.4261 24.1697C65.3195 24.3836 65.5327 24.1697 65.5327 24.1697C65.5327 24.4906 65.5327 24.5975 65.5327 24.8114C65.5327 24.8114 65.6392 24.8114 65.8523 24.7045L65.8523 24.5975ZM61.8032 25.0253C61.8032 25.0253 62.1228 24.4906 61.4835 25.0253C61.0573 25.3461 60.631 25.667 60.2048 26.2017C59.9917 26.4156 59.7786 26.7364 59.5655 26.9503C59.2458 27.2712 58.9261 27.6989 58.6064 28.0198C58.8196 28.1267 59.1392 28.2337 59.3523 28.3406C59.672 28.0198 59.8851 27.6989 60.2048 27.2712C60.7376 26.5225 61.2704 25.7739 61.9097 25.1322L61.8032 25.0253ZM60.8441 27.2712C60.8441 27.2712 60.2048 27.6989 59.7786 28.0198C59.7786 28.1267 59.5655 28.3406 59.4589 28.3406C59.672 28.3406 59.8851 28.1267 59.9917 28.2337C59.9917 28.2337 60.2048 28.0198 60.3114 27.9128C60.7376 27.4851 60.8441 27.1642 60.7376 27.1642L60.8441 27.2712ZM60.8441 29.3031C61.3769 28.8754 61.3769 28.8754 61.59 28.5545C61.8032 28.2337 62.1228 27.8059 61.6966 28.1267C61.3769 28.3406 60.8441 28.8754 60.3114 29.4101C60.3114 29.517 60.0982 29.624 60.0982 29.7309C60.0982 29.7309 60.0982 29.7309 60.2048 29.7309C60.2048 29.7309 60.4179 29.517 60.4179 29.4101C60.5245 29.3031 60.631 29.1962 60.7376 29.0892L60.8441 29.3031ZM64.5736 30.4795C64.5736 30.4795 64.9999 30.0518 64.9999 29.9448C64.9999 29.9448 64.8933 29.9448 64.6802 30.1587C64.5736 30.2656 64.4671 30.4795 64.3605 30.5865C64.3605 30.5865 64.3605 30.5865 64.5736 30.4795ZM62.5491 31.549C62.5491 31.549 62.7622 31.1212 62.5491 31.3351C62.1228 31.7629 61.9097 31.9768 61.8032 32.1907C61.6966 32.4046 61.59 32.6184 61.4835 32.8323C61.4835 32.8323 61.6966 32.9393 61.8032 33.0462C62.1228 32.6184 62.4425 32.1907 62.8687 31.7629C62.8687 31.7629 62.7622 31.7629 62.6556 31.6559L62.5491 31.549ZM63.9343 33.9018L63.9343 34.0087C63.9343 33.9018 64.1474 33.6879 64.1474 33.581C64.1474 33.581 63.9343 33.6879 63.8277 33.7949L63.9343 33.9018ZM69.6884 33.9018C69.6884 33.9018 69.6884 33.7949 69.7949 33.6879C70.1146 33.2601 70.1146 32.8323 69.9015 33.0462C69.9015 33.0462 69.9015 33.0462 69.7949 33.1532L69.7949 33.3671C69.1556 34.0087 69.1556 34.3296 69.6884 33.7949L69.6884 33.9018ZM66.172 40.9602C66.172 40.9602 66.4917 40.6394 66.5982 40.4255C67.0245 39.7838 67.131 39.463 67.0245 39.356C67.0245 39.356 66.7048 39.5699 66.4917 39.8908C66.2786 40.2116 66.0654 40.5324 65.9589 40.6394C65.9589 40.7463 65.9589 40.8533 65.9589 41.0672C65.9589 41.0672 65.9589 41.0672 66.172 41.0672L66.172 40.9602ZM65.3195 40.9602C65.3195 40.7463 65.3195 40.8533 65.3195 40.9602V40.9602ZM64.8933 41.8158L64.6802 41.8158C64.6802 41.8158 64.6802 41.8158 64.6802 41.9227L64.8933 41.8158ZM64.5736 42.6714C64.5736 42.6714 64.5736 42.6714 64.4671 42.7783C64.4671 42.7783 64.4671 42.8852 64.7868 42.6714C64.7868 42.6714 64.6802 42.6714 64.5736 42.6714ZM64.4671 42.7783C64.4671 42.7783 64.4671 42.6714 64.4671 42.5644C64.4671 42.5644 64.254 42.5644 64.1474 42.5644L63.8277 43.2061C63.8277 43.2061 63.9343 43.2061 64.0409 43.313C64.1474 43.0991 64.254 42.9922 64.3605 42.7783L64.4671 42.7783ZM62.0163 45.238C62.0163 45.238 62.2294 45.0242 62.3359 44.9172C62.3359 44.9172 62.3359 44.9172 62.2294 44.9172C62.1228 45.1311 61.9097 45.345 61.9097 45.4519C61.9097 45.4519 61.9097 45.4519 62.1228 45.4519L62.0163 45.238ZM61.2704 46.4145C61.2704 46.5214 61.0573 46.6283 60.9507 46.7353C60.8441 46.9492 60.7376 47.1631 60.631 47.27C60.7376 47.27 60.8441 47.4839 61.0573 47.4839C61.2704 47.0561 61.0573 46.9492 61.3769 46.3075L61.2704 46.4145ZM59.7786 48.4464C59.7786 48.4464 59.4589 48.4464 59.672 48.6603L59.672 48.4464L59.7786 48.4464ZM51.9999 51.334C51.9999 51.334 52.3196 50.7992 52.213 50.7992C52.213 50.7992 51.9999 50.9062 51.8933 51.0131C51.6802 51.334 51.5737 51.5478 51.6802 51.5478C51.6802 51.5478 51.8933 51.334 51.9999 51.334ZM51.8933 50.2645C51.8933 50.2645 51.6802 50.2645 51.9999 49.7298C52.5327 49.0881 52.5327 49.302 52.7458 49.0881C52.9589 48.8742 53.2786 48.6603 53.4917 48.5534C53.7048 48.3395 54.0245 48.0186 54.131 47.8047C54.131 47.6978 54.2376 47.4839 54.131 47.4839C53.4917 47.9117 53.5983 47.5909 53.4917 47.4839C53.4917 47.27 53.4917 47.1631 54.0245 46.6283C53.5983 46.4145 53.172 46.0936 52.7458 45.7728C52.9589 45.7728 53.0655 45.6658 52.5327 45.1311C52.5327 45.2381 52.4261 45.345 52.3196 45.4519C52.1065 45.7728 51.9999 46.0936 51.8933 46.3075C51.8933 46.5214 51.5737 46.7353 51.254 46.9492C50.9343 47.1631 50.8278 47.1631 50.7212 47.1631C50.6147 47.1631 50.295 47.4839 50.0819 47.6978C49.4425 48.5534 49.4425 48.6603 49.8687 48.5534L50.0819 48.5534C49.8687 48.8742 49.6556 49.302 49.4425 49.6228C49.1229 50.0506 48.9097 50.2645 48.6966 50.3714C48.6966 50.3714 48.6966 50.3714 48.6966 50.4784C49.336 51.1201 49.9753 51.7617 50.7212 52.2965C50.7212 52.2965 50.8278 52.0826 50.9343 51.9756C51.5737 51.1201 52.213 50.1576 51.8933 50.0506L51.8933 50.2645ZM54.2376 54.2215C54.2376 54.2215 54.2376 53.7937 53.8114 54.2215C53.8114 54.0076 54.0245 53.6868 54.0245 53.4729C54.0245 53.152 53.9179 53.259 53.3851 53.7937L53.7048 53.0451C53.7048 52.8312 53.7048 52.8312 53.5983 53.0451C53.4917 53.152 53.2786 53.4729 53.172 53.6868C53.0655 53.9007 52.9589 54.1145 52.8524 54.2215C52.8524 54.2215 52.8523 54.4354 52.7458 54.4354C52.7458 54.4354 52.9589 54.6493 53.0655 54.7562C53.0655 54.6493 53.172 54.4354 53.4917 53.9007L53.7048 54.4354C53.7048 54.4354 53.172 54.7562 53.0655 54.7562C53.2786 54.9701 53.4917 55.184 53.5983 55.3979C53.8114 55.0771 53.9179 54.6493 54.131 54.3284L54.2376 54.2215ZM46.8852 55.7187L48.0573 56.6812C48.0573 56.6812 48.1638 56.6812 48.2704 56.4674C48.4835 56.1465 48.6966 55.9326 48.5901 55.8257C48.5901 55.8257 48.5901 55.5048 48.6966 55.184C48.2704 54.9701 47.7376 54.6493 47.0983 54.3284C46.8852 54.1145 46.672 54.0076 46.3524 53.9007C46.1392 54.2215 46.0327 54.4354 45.8196 54.7562C46.1393 55.0771 46.4589 55.2909 46.7786 55.6118L46.8852 55.7187ZM42.1966 51.6548L41.6639 51.334C41.6639 51.334 41.6639 51.5478 41.9835 51.8687C41.9835 51.8687 42.0901 51.6548 42.1966 51.5478L42.1966 51.6548ZM30.5819 64.4883C30.5819 64.4883 30.5819 64.2744 30.5819 64.1674C30.5819 64.1674 30.3688 64.2744 30.2622 64.3813C30.0491 64.7022 30.0491 64.8091 30.2622 64.7022C30.2622 64.7022 30.4753 64.4883 30.5819 64.3813L30.5819 64.4883Z" fill="url(#paint0_linear_1_119)"/>
<g id="Union">
<path d="M34.2053 75.6315C34.951 74.8831 35.4837 74.1347 36.0164 73.3862L36.0168 73.3857C36.3365 72.9579 36.6561 72.5301 36.9758 72.2092C37.5085 71.7815 37.7217 71.6745 37.8283 71.8884C37.6357 72.159 37.4292 72.4295 37.2189 72.7051C36.8472 73.1921 36.4636 73.6949 36.1233 74.2412C35.9102 74.4551 35.6971 74.7759 35.484 75.0968L33.6725 76.9149C33.6725 76.9149 33.3528 77.1288 33.4594 76.9149C33.5659 76.594 33.7791 76.1662 34.2053 75.7385L34.2053 75.6315Z" fill="url(#paint1_linear_1_119)"/>
<path d="M51.5741 47.8256L51.5741 47.6117C51.5741 47.5048 51.7872 47.2909 51.8938 47.2909L52.5331 46.8631C52.5331 46.8631 52.9594 46.7561 52.6397 47.1839C52.6 47.2635 52.5456 47.3431 52.4874 47.4282C52.3893 47.5718 52.2804 47.7311 52.2134 47.9326C52.2134 48.0395 52.0003 48.2534 51.8938 48.3603C51.8938 48.3603 51.6807 48.5742 51.6807 48.4673C51.6807 48.4531 51.6862 48.4315 51.6952 48.4051C51.7068 48.3711 51.7239 48.3291 51.7419 48.2851C51.8156 48.1052 51.9035 47.8904 51.6807 48.0395L51.5741 47.8256Z" fill="url(#paint2_linear_1_119)"/>
<path d="M34.6315 58.5202C34.6315 58.5202 34.7381 58.0925 35.1643 57.5577C35.484 57.2369 35.8037 57.13 35.8037 57.3439C35.8037 57.3439 35.8037 57.6437 35.7074 57.7603L36.8692 56.4882C36.8692 56.4882 37.2954 56.0605 37.2954 56.1674C37.2954 56.1674 37.2954 56.3813 37.0823 56.5952L37.0823 56.4882C36.5495 57.1299 36.3364 57.3438 35.6971 57.7716L35.3774 58.1994C35.3774 58.1994 34.7381 58.7341 34.7381 58.5202L34.6315 58.5202Z" fill="url(#paint3_linear_1_119)"/>
<path d="M34.2053 58.0923L34.4184 57.9854L34.738 57.6646C34.7627 57.5653 34.7817 57.4718 34.8003 57.38L34.801 57.3765C34.8623 57.0742 34.9197 56.7903 35.1643 56.3812C35.2709 56.2743 35.1643 56.2743 35.0577 56.3812L34.738 56.702C34.3118 57.3437 33.8856 58.0923 34.2053 58.0923Z" fill="url(#paint4_linear_1_119)"/>
<path d="M50.9347 49.5367L50.6151 49.8576C50.3154 50.1584 50.0157 50.6472 49.9794 50.7952C50.0076 50.6971 50.1888 50.6062 50.1888 50.6062C50.2954 50.4992 50.5085 50.2853 50.5085 50.1784C50.7216 49.9645 51.1479 49.5367 50.9347 49.5367Z" fill="url(#paint5_linear_1_119)"/>
<path d="M35.484 52.9591L35.484 53.0083C35.5285 52.9769 35.5654 52.9591 35.5905 52.9591L35.484 52.9591Z" fill="url(#paint6_linear_1_119)"/>
<path d="M35.484 53.0083C35.3393 53.1102 35.1141 53.3555 34.9512 53.6008C34.9076 53.7322 34.8104 53.8814 34.7254 54.0119C34.6028 54.2002 34.5056 54.3494 34.6315 54.3494C35.0577 53.9216 35.2709 53.6008 35.484 53.28L35.484 53.0083Z" fill="url(#paint7_linear_1_119)"/>
<path d="M40.9184 62.2632L41.2381 61.9424L41.2381 61.8354C41.5412 61.3791 41.7365 60.8147 41.824 60.5266C41.5989 60.8753 41.4344 61.1928 41.2768 61.4972L41.275 61.5004L41.274 61.5026L41.2736 61.5032L41.2731 61.5043C41.1582 61.7263 41.0469 61.9413 40.9184 62.1563L40.9184 62.2632Z" fill="url(#paint8_linear_1_119)"/>
<path d="M41.824 60.5266C41.8415 60.4996 41.8592 60.4725 41.8774 60.4451L41.8774 60.3382L41.8743 60.3504L41.8699 60.3668L41.8612 60.3989L41.8545 60.4228C41.8464 60.4513 41.8363 60.4862 41.824 60.5266Z" fill="url(#paint9_linear_1_119)"/>
<path d="M36.7627 57.6647C36.7627 57.6647 36.5496 57.7717 36.443 57.8786C36.443 57.7491 36.5993 57.5804 36.7699 57.3962C36.8809 57.2763 36.9983 57.1495 37.0823 57.0231L37.402 56.8092L37.402 56.9161L36.8692 57.6647L36.7627 57.6647Z" fill="url(#paint10_linear_1_119)"/>
<path d="M38.1479 54.4564C38.361 54.2425 38.5741 53.9216 38.5741 53.9216C38.5741 53.8147 38.4675 53.9216 38.2544 54.1355C38.0926 54.2167 37.9922 54.4212 37.9533 54.515C38.0052 54.4564 38.1479 54.4564 38.1479 54.4564Z" fill="url(#paint11_linear_1_119)"/>
<path d="M37.9348 54.5633C37.9348 54.5439 37.9418 54.528 37.9533 54.515C37.941 54.5447 37.9348 54.5633 37.9348 54.5633Z" fill="url(#paint12_linear_1_119)"/>
<path d="M46.9921 41.8368C46.9921 41.8368 46.8855 42.1576 46.6724 42.2646C46.589 42.3065 46.5056 42.3811 46.4286 42.45C46.3088 42.5572 46.2045 42.6505 46.1397 42.5854C46.1397 42.5854 46.3528 42.2646 46.5659 42.0507C46.779 41.8368 46.9921 41.7299 46.9921 41.8368Z" fill="url(#paint13_linear_1_119)"/>
<path d="M50.6151 51.3549C50.8282 51.141 51.0413 50.8202 51.0413 50.8202C51.0413 50.6063 50.9347 50.7132 50.7216 50.9271C50.4019 51.141 50.4019 51.3549 50.4019 51.3549L50.6151 51.3549Z" fill="url(#paint14_linear_1_119)"/>
<path d="M80.238 46.3285C80.5576 46.6493 81.5167 47.184 81.5167 47.184L81.5167 47.291C82.3691 47.7188 83.1151 48.2535 83.9675 48.8952C84.3523 49.2814 84.7371 49.4061 85.0435 49.5054C85.0765 49.516 85.1085 49.5264 85.1396 49.5368C85.3528 49.6438 85.1396 49.3229 85.1396 49.3229L83.1151 47.7188C82.9019 47.5049 82.5822 47.184 82.2626 47.0771C81.4101 46.6493 80.5576 46.1146 79.8118 45.5798C79.5987 45.5798 79.7052 45.9007 80.238 46.3285Z" fill="url(#paint15_linear_1_119)"/>
<path d="M44.3282 40.6602C43.5823 40.3394 42.5167 39.6977 41.5577 39.056C41.9839 39.056 42.943 39.5908 44.1151 40.3394C44.1151 40.3394 44.4347 40.5533 44.4347 40.6602L44.3282 40.6602Z" fill="url(#paint16_linear_1_119)"/>
<path d="M66.5986 49.002C67.1315 49.4298 67.5577 49.4298 67.5577 49.4298C67.6642 49.4298 67.6642 49.2159 67.1315 48.7881L66.7053 48.4673L66.279 48.4673C66.0659 48.4673 66.279 48.7881 66.5986 49.002Z" fill="url(#paint17_linear_1_119)"/>
<path d="M67.238 49.8576C67.238 49.8576 66.4921 49.8576 65.7462 49.4299C65.6397 49.3764 65.5864 49.3229 65.5464 49.2828C65.5064 49.2427 65.4798 49.216 65.4265 49.216C65.32 49.109 65.2134 49.0021 65.4265 49.109C65.7817 49.2516 66.0422 49.2991 66.3028 49.3467C66.433 49.3704 66.5632 49.3942 66.7053 49.4299C66.7053 49.4299 67.0249 49.5368 67.1315 49.6437C67.1315 49.6437 67.3446 49.8576 67.238 49.8576Z" fill="url(#paint18_linear_1_119)"/>
<path d="M65.0848 47.2087C64.9738 47.1841 64.8938 47.1841 64.8938 47.1841L65.0003 47.0771C65.0003 47.1077 65.0351 47.1557 65.0848 47.2087Z" fill="url(#paint19_linear_1_119)"/>
<path d="M65.32 47.291C65.2374 47.2496 65.155 47.2242 65.0848 47.2087C65.2091 47.3412 65.4265 47.5049 65.4265 47.5049L66.8118 48.4674C66.3019 47.8532 66.0848 47.7289 65.413 47.3443L65.32 47.291Z" fill="url(#paint20_linear_1_119)"/>
<path d="M62.4429 49.3228L62.2298 49.3228C62.1233 49.4297 62.5495 49.7506 62.8691 49.8575C62.9757 49.8932 63.0941 49.9526 63.2046 50.0081C63.4256 50.119 63.6151 50.214 63.6151 50.0714C63.3309 49.7862 63.0468 49.6436 62.7942 49.5169C62.6679 49.4535 62.5495 49.3941 62.4429 49.3228Z" fill="url(#paint21_linear_1_119)"/>
<path d="M70.0085 42.7991C70.0085 42.7991 70.2216 43.013 70.4347 43.1199C69.9019 42.9061 69.3691 42.6922 68.7298 42.2644L68.7298 42.1574L70.2216 42.7991L70.0085 42.7991Z" fill="url(#paint22_linear_1_119)"/>
<path d="M66.4921 47.3979L65.6397 46.9701L65.8528 47.184C65.8772 47.2004 65.9023 47.2174 65.9278 47.2348L66.0154 47.2947C66.3051 47.4936 66.6333 47.7188 66.8118 47.7188L66.4921 47.3979Z" fill="url(#paint23_linear_1_119)"/>
<path d="M65.6397 46.9701L65.6397 46.8632L65.5331 46.8632L65.6397 46.9701Z" fill="url(#paint24_linear_1_119)"/>
<path d="M62.5495 46.1145C62.5495 46.1145 62.8691 46.2215 63.0822 46.4354L63.2953 46.6493C63.2953 46.6493 62.9757 46.6493 62.7626 46.4354C62.5495 46.2215 62.4429 46.1145 62.5495 46.1145Z" fill="url(#paint25_linear_1_119)"/>
</g>
</g>
<path id="Union_2" d="M22.2856 24.3884L42.7141 44.8169H46.6537L67.0821 24.3884L63.1426 20.4489L44.6839 38.9075L26.2252 20.4489L22.2856 24.3884Z" fill="#0D0D0D"/>
</g>
<defs>
<linearGradient id="paint0_linear_1_119" x1="3.8147e-06" y1="0" x2="5.3889" y2="84.7945" gradientUnits="userSpaceOnUse">
<stop stop-color="#5CFF41"/>
<stop offset="1" stop-color="#F0FF41"/>
</linearGradient>
<linearGradient id="paint1_linear_1_119" x1="33.4376" y1="39.056" x2="35.606" y2="79.6602" gradientUnits="userSpaceOnUse">
<stop stop-color="#5CFF41"/>
<stop offset="1" stop-color="#F0FF41"/>
</linearGradient>
<linearGradient id="paint2_linear_1_119" x1="33.4376" y1="39.056" x2="35.606" y2="79.6602" gradientUnits="userSpaceOnUse">
<stop stop-color="#5CFF41"/>
<stop offset="1" stop-color="#F0FF41"/>
</linearGradient>
<linearGradient id="paint3_linear_1_119" x1="33.4376" y1="39.056" x2="35.606" y2="79.6602" gradientUnits="userSpaceOnUse">
<stop stop-color="#5CFF41"/>
<stop offset="1" stop-color="#F0FF41"/>
</linearGradient>
<linearGradient id="paint4_linear_1_119" x1="33.4376" y1="39.056" x2="35.606" y2="79.6602" gradientUnits="userSpaceOnUse">
<stop stop-color="#5CFF41"/>
<stop offset="1" stop-color="#F0FF41"/>
</linearGradient>
<linearGradient id="paint5_linear_1_119" x1="33.4376" y1="39.056" x2="35.606" y2="79.6602" gradientUnits="userSpaceOnUse">
<stop stop-color="#5CFF41"/>
<stop offset="1" stop-color="#F0FF41"/>
</linearGradient>
<linearGradient id="paint6_linear_1_119" x1="33.4376" y1="39.056" x2="35.606" y2="79.6602" gradientUnits="userSpaceOnUse">
<stop stop-color="#5CFF41"/>
<stop offset="1" stop-color="#F0FF41"/>
</linearGradient>
<linearGradient id="paint7_linear_1_119" x1="33.4376" y1="39.056" x2="35.606" y2="79.6602" gradientUnits="userSpaceOnUse">
<stop stop-color="#5CFF41"/>
<stop offset="1" stop-color="#F0FF41"/>
</linearGradient>
<linearGradient id="paint8_linear_1_119" x1="33.4376" y1="39.056" x2="35.606" y2="79.6602" gradientUnits="userSpaceOnUse">
<stop stop-color="#5CFF41"/>
<stop offset="1" stop-color="#F0FF41"/>
</linearGradient>
<linearGradient id="paint9_linear_1_119" x1="33.4376" y1="39.056" x2="35.606" y2="79.6602" gradientUnits="userSpaceOnUse">
<stop stop-color="#5CFF41"/>
<stop offset="1" stop-color="#F0FF41"/>
</linearGradient>
<linearGradient id="paint10_linear_1_119" x1="33.4376" y1="39.056" x2="35.606" y2="79.6602" gradientUnits="userSpaceOnUse">
<stop stop-color="#5CFF41"/>
<stop offset="1" stop-color="#F0FF41"/>
</linearGradient>
<linearGradient id="paint11_linear_1_119" x1="33.4376" y1="39.056" x2="35.606" y2="79.6602" gradientUnits="userSpaceOnUse">
<stop stop-color="#5CFF41"/>
<stop offset="1" stop-color="#F0FF41"/>
</linearGradient>
<linearGradient id="paint12_linear_1_119" x1="33.4376" y1="39.056" x2="35.606" y2="79.6602" gradientUnits="userSpaceOnUse">
<stop stop-color="#5CFF41"/>
<stop offset="1" stop-color="#F0FF41"/>
</linearGradient>
<linearGradient id="paint13_linear_1_119" x1="33.4376" y1="39.056" x2="35.606" y2="79.6602" gradientUnits="userSpaceOnUse">
<stop stop-color="#5CFF41"/>
<stop offset="1" stop-color="#F0FF41"/>
</linearGradient>
<linearGradient id="paint14_linear_1_119" x1="33.4376" y1="39.056" x2="35.606" y2="79.6602" gradientUnits="userSpaceOnUse">
<stop stop-color="#5CFF41"/>
<stop offset="1" stop-color="#F0FF41"/>
</linearGradient>
<linearGradient id="paint15_linear_1_119" x1="33.4376" y1="39.056" x2="35.606" y2="79.6602" gradientUnits="userSpaceOnUse">
<stop stop-color="#5CFF41"/>
<stop offset="1" stop-color="#F0FF41"/>
</linearGradient>
<linearGradient id="paint16_linear_1_119" x1="33.4376" y1="39.056" x2="35.606" y2="79.6602" gradientUnits="userSpaceOnUse">
<stop stop-color="#5CFF41"/>
<stop offset="1" stop-color="#F0FF41"/>
</linearGradient>
<linearGradient id="paint17_linear_1_119" x1="33.4376" y1="39.056" x2="35.606" y2="79.6602" gradientUnits="userSpaceOnUse">
<stop stop-color="#5CFF41"/>
<stop offset="1" stop-color="#F0FF41"/>
</linearGradient>
<linearGradient id="paint18_linear_1_119" x1="33.4376" y1="39.056" x2="35.606" y2="79.6602" gradientUnits="userSpaceOnUse">
<stop stop-color="#5CFF41"/>
<stop offset="1" stop-color="#F0FF41"/>
</linearGradient>
<linearGradient id="paint19_linear_1_119" x1="33.4376" y1="39.056" x2="35.606" y2="79.6602" gradientUnits="userSpaceOnUse">
<stop stop-color="#5CFF41"/>
<stop offset="1" stop-color="#F0FF41"/>
</linearGradient>
<linearGradient id="paint20_linear_1_119" x1="33.4376" y1="39.056" x2="35.606" y2="79.6602" gradientUnits="userSpaceOnUse">
<stop stop-color="#5CFF41"/>
<stop offset="1" stop-color="#F0FF41"/>
</linearGradient>
<linearGradient id="paint21_linear_1_119" x1="33.4376" y1="39.056" x2="35.606" y2="79.6602" gradientUnits="userSpaceOnUse">
<stop stop-color="#5CFF41"/>
<stop offset="1" stop-color="#F0FF41"/>
</linearGradient>
<linearGradient id="paint22_linear_1_119" x1="33.4376" y1="39.056" x2="35.606" y2="79.6602" gradientUnits="userSpaceOnUse">
<stop stop-color="#5CFF41"/>
<stop offset="1" stop-color="#F0FF41"/>
</linearGradient>
<linearGradient id="paint23_linear_1_119" x1="33.4376" y1="39.056" x2="35.606" y2="79.6602" gradientUnits="userSpaceOnUse">
<stop stop-color="#5CFF41"/>
<stop offset="1" stop-color="#F0FF41"/>
</linearGradient>
<linearGradient id="paint24_linear_1_119" x1="33.4376" y1="39.056" x2="35.606" y2="79.6602" gradientUnits="userSpaceOnUse">
<stop stop-color="#5CFF41"/>
<stop offset="1" stop-color="#F0FF41"/>
</linearGradient>
<linearGradient id="paint25_linear_1_119" x1="33.4376" y1="39.056" x2="35.606" y2="79.6602" gradientUnits="userSpaceOnUse">
<stop stop-color="#5CFF41"/>
<stop offset="1" stop-color="#F0FF41"/>
</linearGradient>
</defs>
</svg>
