<svg width="419" height="202" viewBox="0 0 419 202" fill="none" xmlns="http://www.w3.org/2000/svg">
<path d="M3.08417 199.758C7.93063 198.212 12.3365 195.783 16.9627 193.575C20.2671 192.029 23.5715 190.925 26.4354 188.497C27.0962 187.834 27.7571 186.951 29.0789 186.73C31.0615 186.73 32.3833 185.405 33.9254 184.301C36.7892 182.314 39.653 180.547 42.5168 178.56C45.8213 176.131 49.346 174.806 52.6504 172.598C55.2939 170.832 58.378 169.507 60.8013 167.078C61.4622 166.195 62.5636 164.649 64.326 165.311C64.5463 165.311 65.2072 164.87 65.4275 164.428C68.2913 160.454 72.0363 158.025 76.2219 155.817C76.8828 155.375 77.5437 154.933 77.9843 154.271C78.6451 153.167 79.5263 152.504 80.8481 152.063C83.051 151.4 84.5931 149.634 85.254 147.647C85.6945 146.101 86.796 145.439 87.6772 144.335C88.1178 144.555 87.8975 144.997 87.6772 145.218C87.2366 146.101 87.4569 146.763 88.1178 147.426C88.7787 147.867 89.4395 147.426 90.1004 147.426C91.2019 146.763 92.3034 146.101 92.9643 144.997C93.8454 143.672 95.1672 142.347 96.9296 142.126C99.5731 141.464 101.556 139.918 103.538 137.931C104.64 136.827 104.86 134.619 107.283 135.502C108.165 135.723 109.266 134.177 110.368 133.294C111.028 132.632 111.689 131.528 112.791 131.748C114.113 131.969 114.333 131.307 114.553 130.203C114.773 128.657 115.655 127.995 116.976 126.891C118.739 125.345 121.162 124.462 122.704 122.254C123.145 121.812 123.365 122.033 123.805 122.254C124.466 122.474 124.246 122.916 124.026 123.358C123.585 124.682 121.823 125.124 121.603 127.111C123.805 126.228 125.348 124.682 126.89 123.358C128.652 122.254 129.974 120.487 131.956 119.604C134.82 118.279 136.583 116.071 138.785 113.863C140.548 112.096 141.87 110.109 143.632 108.343C144.293 107.68 144.733 107.018 145.615 107.238C147.157 107.459 147.597 106.576 148.038 105.472C148.258 104.147 149.139 103.706 150.241 103.264C152.003 102.601 153.545 101.277 155.087 100.173C157.07 98.6269 159.053 97.302 161.035 95.7564C162.137 94.8731 163.458 95.3147 164.56 94.8731C165.882 94.2107 165.001 92.4442 166.322 91.7818C167.644 91.1194 168.746 89.7945 169.847 88.6904C170.728 89.3529 169.186 90.8986 170.948 90.8986C172.27 90.8986 172.27 89.5737 172.27 88.9113C172.27 87.3656 172.931 85.8199 173.812 84.9367C175.575 83.391 176.456 81.1829 178.218 79.8581C178.879 79.4164 179.32 78.5332 180.201 78.5332C181.082 79.4164 181.302 80.7413 182.184 81.6245C183.946 79.6372 184.607 79.1956 186.369 79.4164C185.929 79.8581 185.488 80.2997 185.047 80.5205C184.827 80.9621 184.386 81.4037 184.607 81.8453C184.827 82.287 185.268 82.287 185.708 82.287C187.471 82.287 188.352 81.8453 188.572 79.8581C188.572 78.9748 189.233 78.3124 189.894 78.0916C190.555 77.6499 191.436 78.0916 192.317 77.2083C191.656 75.6627 192.537 73.8962 192.317 72.1297C192.317 71.4673 192.317 71.0257 192.978 70.8048C194.961 70.3632 196.282 69.0384 197.824 67.7135C198.265 67.2719 199.146 66.8303 199.587 67.7135C199.807 68.1551 199.366 70.8049 198.926 70.584C197.604 70.1424 197.164 70.584 197.824 71.9089C198.265 72.7921 197.824 73.2338 197.384 73.8962C196.723 74.5586 196.062 75.221 195.621 75.8835C194.52 77.65 194.3 78.9748 195.181 79.4164C195.842 79.8581 197.824 78.754 198.485 77.6499C198.485 77.6499 198.485 77.2083 198.706 76.9875C199.366 74.3378 201.129 72.5713 203.111 71.0257C204.213 70.1424 204.654 69.2592 203.993 67.9343C203.772 67.0511 203.332 65.947 203.772 65.2846C205.535 62.6349 206.416 58.8811 210.822 59.1019C209.72 60.4268 207.958 61.31 208.619 63.5181C208.619 63.9597 207.958 64.843 207.077 65.2846C205.094 65.947 205.535 67.7135 205.535 69.2592C205.535 70.1424 206.196 70.1424 206.856 70.1424C207.517 70.1424 207.958 69.7008 208.399 69.0384C210.381 66.1678 212.804 63.5181 213.906 60.206C215.228 60.8684 215.228 61.0892 216.109 60.4268C216.549 59.9852 216.99 59.5435 217.651 59.5435C219.634 59.7644 220.515 58.6603 221.837 57.5563C222.718 56.8938 223.599 56.2314 224.48 55.3482C224.186 56.8202 224.553 57.4827 225.582 57.3354H226.022C225.361 59.3227 225.141 61.5308 222.718 62.8557C221.396 63.5181 220.515 64.843 219.413 65.947C218.092 67.4927 217.431 69.48 215.448 70.584C214.567 71.0257 214.787 72.1297 215.007 73.013C215.889 75.0002 215.668 75.0002 213.906 76.1043C212.364 77.2083 210.381 77.65 209.059 79.1956C205.755 83.6118 200.909 86.924 198.045 91.561C197.164 92.8858 196.282 94.8731 193.859 94.6523C193.198 96.4188 190.775 96.6396 190.555 98.8477C190.555 99.7309 190.114 100.614 189.013 101.056C188.352 101.277 187.911 101.939 187.471 102.601C186.369 105.693 184.386 108.122 182.624 110.771C180.641 113.863 178.879 117.396 177.778 120.929C177.557 122.033 177.117 122.695 176.236 123.358C175.575 123.799 173.812 124.903 175.795 126.007C176.236 126.228 176.236 126.67 175.795 127.111C174.253 129.099 175.795 131.528 174.253 133.515C175.134 134.84 174.693 136.165 174.253 137.489C174.253 137.931 174.693 138.373 174.914 138.814C176.015 139.698 177.117 140.581 178.438 141.022C182.624 142.568 186.369 144.776 190.995 144.776C192.537 144.776 193.639 144.776 194.74 143.451C196.723 141.022 200.468 141.243 202.01 138.373C202.01 138.373 202.451 138.373 202.671 138.373C203.111 136.827 205.314 137.048 205.755 135.061C206.196 133.736 208.178 132.411 209.941 132.632C210.822 132.632 211.262 132.632 211.703 131.969C213.245 129.54 215.448 127.995 217.651 126.228C218.312 125.566 219.413 125.124 218.532 123.799C218.092 123.358 218.752 122.916 219.193 122.695C221.837 122.474 222.938 120.708 224.26 118.5C225.141 116.733 226.683 115.408 229.106 114.967C231.97 114.746 234.834 112.538 235.935 110.109C237.477 106.576 240.782 105.914 242.985 103.485C243.646 102.822 244.307 102.381 244.747 101.497C245.628 99.7309 246.95 98.4061 248.712 97.7437C250.915 96.8604 251.356 96.8604 252.237 95.0939C252.898 93.5483 253.999 92.4442 255.762 92.0026C257.304 91.561 258.405 90.6777 259.287 89.3529C259.727 88.9113 259.947 88.2488 260.388 88.028C263.692 86.2615 265.675 83.391 268.098 80.9621C269.42 79.4164 270.962 78.0916 272.725 76.7667C274.487 75.6627 276.249 74.3378 277.571 72.7921C278.893 71.2465 279.994 69.48 281.096 67.9343C281.536 68.5968 281.316 69.48 282.197 69.48C282.858 69.48 283.078 68.8176 283.078 68.3759C283.519 66.1678 284.62 64.4014 286.162 63.2973C287.484 62.4141 288.586 61.9725 289.687 60.8684C291.009 59.5435 292.551 58.4395 293.652 56.8938C294.313 56.2314 294.974 53.8025 296.076 56.4522C296.076 56.8938 296.737 56.4522 297.177 56.4522C297.618 55.7898 298.279 55.1273 298.279 54.2441C298.279 52.4776 299.38 51.5944 300.482 50.4903C301.583 49.3863 303.125 48.9447 304.006 47.6198C304.887 46.5158 305.108 44.7493 307.09 45.1909C309.734 45.6325 307.09 42.5412 309.073 42.3204C309.514 42.3204 309.954 41.6579 310.395 41.8788C310.835 41.8788 311.276 41.8788 311.496 41.658C312.598 40.7747 317.444 35.2545 318.546 33.7088C318.546 33.7088 318.766 33.488 318.986 33.2672C320.088 33.2672 320.528 32.1631 321.189 31.2799C321.41 30.8383 321.85 30.1758 322.291 30.3967C324.714 30.3967 325.595 28.6302 326.697 27.3053C328.679 25.318 328.459 25.0972 331.103 27.0845C331.543 27.3053 332.204 27.3053 332.424 27.7469C333.305 28.4094 332.424 29.0718 332.424 29.7342C332.424 30.1758 331.763 30.3967 331.543 30.1758C329.781 27.5261 329.56 30.1758 328.9 31.0591C328.018 32.3839 327.358 33.9296 327.798 35.6961C328.459 37.6834 328.459 37.4626 326.476 38.125C325.815 38.125 325.375 38.7874 325.815 39.4498C326.476 40.3331 326.697 40.7747 325.375 40.9955C324.273 40.9955 323.613 41.8788 323.172 42.9828C322.731 44.0869 322.291 45.4117 321.85 46.5158C322.291 46.5158 322.511 46.5158 322.511 46.5158C323.172 46.295 323.833 45.1909 324.714 46.0741C324.714 46.0741 324.714 46.5158 324.714 46.7366C324.273 47.6198 323.613 47.399 322.952 47.399C322.291 47.399 320.969 47.399 321.189 48.5031C321.189 49.6071 320.528 50.7112 321.41 51.8152C321.63 52.036 322.07 52.4776 321.41 52.9193C320.969 53.3609 320.528 53.5817 320.088 52.9193C319.207 51.8152 318.546 52.4776 318.105 53.3609C317.885 54.2441 317.444 55.1273 317.004 55.7898C316.563 56.4522 316.563 57.1146 317.004 57.7771C317.444 58.2187 317.885 58.6603 317.665 59.3227C317.004 59.3227 316.123 57.9979 315.902 59.7644C315.902 60.4268 315.902 61.5308 315.682 61.7516C313.479 62.6349 314.58 64.4014 313.92 65.947C313.699 66.6095 313.92 67.7135 313.259 68.3759C312.378 69.7008 311.056 70.8048 311.937 72.5713C311.937 73.0129 311.496 74.117 310.835 74.3378C309.073 75.2211 308.853 76.9875 308.632 78.5332C308.632 79.4164 308.632 80.0789 307.531 80.5205C306.43 81.1829 305.548 82.287 305.989 83.1702C306.87 84.9367 305.548 86.0407 304.667 86.924C303.566 87.8072 303.345 88.6905 303.125 90.0153C302.685 92.8858 301.583 95.5356 300.702 98.1853C299.6 101.277 298.719 104.589 297.177 107.459C296.516 108.563 296.516 110.109 295.635 111.213C295.415 111.655 295.195 112.096 295.635 112.538C296.737 113.863 295.635 114.746 295.195 115.629C294.974 116.733 293.652 116.954 293.432 118.058C293.873 118.721 294.534 117.837 295.195 118.721C293.652 119.825 294.093 120.929 294.974 122.254C295.635 123.358 295.855 124.241 294.534 125.124C293.652 125.566 293.432 126.449 294.093 127.111C295.195 128.436 294.974 129.761 294.313 131.086C293.873 132.19 293.652 133.956 294.313 134.177C295.855 135.061 295.855 137.269 297.838 137.489C299.16 137.489 300.482 138.373 301.583 137.269C302.905 135.944 304.667 135.723 306.209 135.723C307.531 135.723 308.853 135.723 309.734 134.398C309.954 133.956 310.615 133.956 311.056 133.736C313.92 132.19 316.563 130.424 318.325 127.553C318.546 127.111 318.986 126.67 319.427 126.449C321.41 125.566 322.952 124.462 324.273 122.474C324.714 123.137 324.273 123.578 324.273 123.799C324.273 124.02 324.273 124.462 324.273 124.682C324.494 125.124 324.934 124.682 325.375 124.682C325.815 124.462 326.036 124.02 326.476 123.578C328.679 121.37 330.442 118.941 332.865 116.954C334.407 115.85 335.288 114.084 337.271 113.421C338.152 113.2 338.152 112.096 338.372 111.434C338.593 110.33 339.474 110.109 340.575 110.33C342.338 110.551 343.439 109.888 343.88 108.343C343.88 107.68 343.88 107.018 344.32 106.576C346.303 105.472 347.404 103.485 348.946 101.939C349.167 101.718 349.387 101.277 349.828 101.497C351.59 102.601 352.251 100.835 353.132 99.9518C353.793 98.8477 355.776 98.4061 354.894 96.4188C354.454 95.0939 354.454 93.7691 355.775 92.8858C356.436 92.4442 356.877 92.0026 357.538 92.8858C357.978 93.5483 357.978 94.2107 357.318 94.6523C356.657 95.0939 355.775 95.7564 355.996 96.8604C357.538 96.4188 359.08 95.5355 359.3 94.2107C359.741 91.7818 361.503 91.3402 362.825 90.0153C363.486 89.3529 364.147 88.6904 364.808 88.2488C366.35 86.924 366.79 84.4951 369.213 84.2743C369.874 84.2743 370.095 83.391 370.315 82.9494C370.535 82.5078 370.756 81.4037 371.196 81.4037C373.399 80.9621 373.84 79.1956 374.721 77.6499C375.161 76.9875 375.602 76.5459 376.263 76.3251C379.347 75.221 381.33 73.0129 382.431 69.9216C382.431 69.48 382.651 69.2592 383.092 69.2592C385.295 68.5968 386.617 66.8303 388.379 65.2846C389.481 64.4014 388.82 63.0765 389.481 62.1933C390.141 61.31 391.463 61.9725 392.344 60.8684C396.53 56.4522 400.495 52.036 404.461 47.399C405.121 46.5158 406.003 45.6325 406.884 45.1909C408.646 44.5285 410.188 43.2036 411.73 42.0996C413.272 40.7747 414.594 39.6707 417.017 40.3331C418.339 40.7747 419 39.8915 419 38.5666C419 38.125 418.119 32.6048 417.899 32.1631C417.678 31.5007 417.678 31.0591 417.678 30.3967C417.899 26.8637 416.356 23.7724 414.154 21.5643C410.849 18.0313 406.223 18.2521 402.037 18.9146C397.852 19.577 393.886 20.681 390.582 23.5516C387.498 26.2013 384.414 28.6302 381.991 31.5007C380.228 33.7088 378.246 35.6961 376.483 37.6834C374.06 40.5539 370.535 42.5412 369.213 46.5158C369.213 46.9574 368.773 47.1782 368.332 47.1782C366.79 47.1782 366.79 48.2822 366.57 49.3863C366.129 52.6984 364.808 55.3482 361.723 56.8938C360.842 57.3354 360.622 58.2187 360.181 59.1019C359.741 60.206 359.521 61.31 358.419 61.9725C357.538 62.6349 356.877 62.1933 357.097 61.31C357.097 59.9852 357.538 58.8811 357.758 57.1146C356.436 58.4395 355.115 59.1019 355.775 61.0892C355.996 61.9725 355.335 62.6349 354.674 63.0765C350.709 66.8303 347.404 71.2465 346.523 76.7667C346.523 76.9875 346.523 78.0916 345.642 77.4291C344.54 76.3251 344.1 77.4291 343.88 77.8708C343.659 79.4164 342.558 80.7413 342.338 82.5078C341.897 85.8199 341.236 86.2615 338.152 86.0407C338.152 86.0407 338.152 86.0407 337.932 86.0407C337.932 86.2615 337.932 86.7032 337.932 86.924C338.372 87.3656 338.813 87.8072 338.593 88.4696C338.152 89.3529 337.711 90.2361 336.83 90.4569C336.169 90.6777 335.508 90.2361 335.729 89.5737C337.05 87.1448 334.848 86.924 333.085 85.8199C333.746 87.8072 333.085 89.3529 333.526 90.4569C334.848 92.8858 333.526 93.9899 331.984 95.3147C331.543 95.5356 331.103 95.9772 330.882 96.4188C330.221 97.0812 329.56 97.5228 330.882 98.4061C331.984 99.2893 330.442 100.173 330.001 101.277C329.56 102.381 328.9 101.277 328.679 101.277C327.798 100.835 327.358 101.277 326.697 101.718C325.595 102.601 325.155 103.706 324.934 104.81C324.934 105.914 324.934 106.797 323.833 107.68C322.952 107.68 322.511 106.134 321.189 106.355C321.189 107.238 321.189 108.784 320.308 108.563C318.105 108.343 317.444 109.005 317.665 110.992C317.665 110.992 317.224 111.213 317.004 111.655C316.343 112.538 315.462 113.2 315.241 114.304C315.021 115.629 314.14 116.292 313.038 116.954C311.056 117.837 310.835 119.162 311.717 121.37C311.937 122.254 312.157 123.358 312.378 124.462C311.937 124.462 311.496 124.682 311.276 124.903C310.835 124.903 310.615 125.124 310.175 125.345C308.192 126.449 307.972 126.67 308.632 129.099C308.632 129.54 308.632 129.982 308.412 130.203C307.972 130.424 307.751 130.203 307.311 129.761C305.695 128.878 304.227 128.804 302.905 129.54C302.905 129.54 302.244 128.215 302.024 127.553C300.482 127.774 300.702 129.099 300.482 130.644C299.38 129.099 298.94 127.774 299.38 126.449C300.482 122.916 300.261 119.162 302.685 116.071C303.125 115.629 303.125 114.967 303.125 114.304C303.125 111.213 304.447 108.343 305.548 105.693C306.87 102.601 307.751 99.0685 310.395 96.6396C310.395 96.6396 310.615 95.9772 310.615 95.7564C310.835 93.9899 311.937 92.665 312.598 90.8986C314.36 86.4824 317.665 82.7286 318.986 78.0916C318.986 77.4291 319.868 76.7667 320.308 76.1043C321.41 74.5586 322.511 73.0129 322.291 70.8048C322.291 69.9216 322.511 69.2592 323.172 68.8176C326.256 66.1678 326.697 61.5308 329.781 58.8811C330.221 58.6603 329.781 58.2187 329.781 57.7771C329.34 56.8938 329.781 56.2314 330.662 55.7898C331.103 55.569 331.984 55.3482 331.984 54.6857C330.221 53.8025 330.221 53.5817 331.323 52.2568C331.984 51.5944 332.645 51.1528 333.085 50.7112C333.966 49.8279 334.848 49.1655 335.288 47.8406C336.83 41.8788 339.914 36.3585 341.677 30.3967C342.558 27.7469 343.439 25.318 343.439 22.4475C343.439 19.7978 344.761 16.9272 342.558 14.4983C342.338 14.0567 342.558 13.3943 342.558 12.7319C342.338 7.87404 339.914 4.34108 337.05 0.808121C336.61 0.366501 335.949 -0.295914 335.508 0.145706C334.187 1.24976 331.984 1.02895 330.882 2.79543C330.882 2.35381 330.662 2.133 330.442 1.91219C330.442 1.69138 330.442 1.24976 330.442 1.02895C330.001 0.145706 328.679 0.145706 328.679 1.02895C328.679 2.57462 327.578 2.57462 326.697 3.23705C325.375 4.5619 323.392 5.66595 322.731 7.65324C322.511 8.75729 322.07 8.75729 320.969 8.53648C319.207 8.53648 318.766 9.41971 319.868 10.9654C320.308 11.6278 319.868 11.6278 319.427 11.8486C318.986 12.0694 318.325 12.2902 318.105 11.8486C317.665 11.1862 317.224 11.1862 317.004 11.8486C316.123 13.3943 314.14 14.0567 313.038 15.6024C312.598 16.2648 312.157 16.9273 312.598 17.8105C313.699 20.2394 313.479 20.4602 310.615 20.681C309.514 20.681 308.412 20.681 309.073 22.4475C309.734 23.9932 308.853 24.6556 307.531 25.0972C307.531 24.8764 307.531 24.6556 307.531 24.6556C307.531 23.9932 307.972 23.1099 307.09 22.8891C306.43 22.6683 305.989 23.3307 305.769 23.7724C305.328 24.6556 304.887 25.0972 304.006 25.318C302.464 25.7597 302.244 26.8637 302.244 28.4094C302.244 31.0591 301.363 33.488 298.499 34.8129C296.296 35.6961 295.415 37.9042 294.313 39.8915C293.432 41.2163 294.093 42.5412 294.754 43.6452C294.754 43.6452 294.754 44.0869 294.754 44.3077C294.754 45.1909 293.652 45.6325 292.992 45.1909C292.11 44.0869 290.789 43.6452 289.467 43.2036C289.467 41.8788 291.67 41.4371 290.568 39.6707C288.806 41.2163 286.383 42.3204 285.281 44.3077C283.96 46.5158 281.977 47.1782 279.994 48.2822C278.672 52.036 276.029 54.9065 274.487 58.2187C274.267 58.6603 273.826 59.1019 273.385 58.6603C272.725 57.5563 271.403 59.3227 270.962 58.2187C270.742 57.5563 270.962 56.673 271.843 56.673C272.504 56.673 273.165 56.673 273.826 56.8938C273.826 56.0106 273.826 55.569 272.945 55.3482C272.064 55.1273 271.843 54.4649 272.064 53.5817C272.064 52.9193 272.504 52.2568 273.385 52.036C275.368 51.3736 277.571 49.8279 278.672 48.2822C276.91 47.6198 279.113 46.5158 278.012 45.6325C276.47 46.0741 275.368 47.399 274.267 48.9447C273.826 49.6071 273.385 50.2695 272.504 50.4903C271.403 50.932 270.742 52.036 269.861 52.9193C268.539 54.0233 268.759 55.7898 267.878 56.8938C266.556 55.7898 265.455 56.8938 265.014 57.7771C264.353 59.1019 263.913 60.4268 265.455 61.5308C263.472 63.9597 262.811 60.4268 261.269 60.8684C261.049 61.31 260.608 61.7516 260.168 62.1933C259.066 63.5181 258.185 65.2846 255.982 64.6222C254.881 64.4014 254.44 65.0638 254.44 66.3887C254.44 68.5968 253.559 69.2592 251.576 69.2592C250.475 69.2592 250.034 69.7008 250.254 70.584C250.254 71.6881 250.254 71.9089 249.153 71.2465C248.933 71.2465 248.712 71.2465 248.272 71.2465C246.289 71.9089 244.747 73.013 243.425 74.3378C241.883 76.1043 240.341 78.0916 237.477 78.3124C238.359 76.1043 241.443 71.4673 242.764 70.1424C244.747 68.1551 244.967 67.4927 243.425 64.843C245.408 65.2846 246.509 64.4014 247.17 62.8557C248.492 59.9852 249.373 56.673 251.356 54.2441C251.576 53.8025 251.797 53.3609 251.797 52.6984C251.797 50.4903 252.457 48.5031 253.118 46.5158C253.559 44.9701 254.22 42.9828 253.118 41.8788C251.136 40.1123 251.797 38.125 252.457 36.1377C252.898 34.592 252.678 33.488 251.576 32.3839C251.136 31.9423 250.475 31.7215 250.915 30.8383C251.576 29.7342 250.915 28.851 250.034 28.1886C249.153 27.5261 248.492 26.8637 248.272 25.7596C248.272 24.4348 247.831 23.5515 246.73 23.1099C246.069 22.8891 245.849 22.0059 245.628 21.3434C244.307 18.2521 240.341 16.044 237.037 16.2648C232.631 16.2648 228.225 17.1481 223.819 17.8105C220.294 18.2521 216.99 19.1354 214.126 21.5643C211.483 23.7724 208.839 25.5388 205.535 26.6429C204.213 27.3053 202.671 27.5261 201.349 28.4094C196.503 31.2799 191.436 33.9296 186.81 37.2417C183.065 39.8915 178.879 41.6579 175.575 44.9701C174.914 45.6325 174.473 46.295 173.592 46.295C170.728 46.7366 168.966 48.7239 167.203 50.7112C165.882 52.036 164.56 53.3609 162.798 54.2441C159.493 56.2314 156.409 58.2187 153.325 60.4268C152.003 61.31 150.902 63.0765 149.8 63.5181C146.276 65.0638 143.632 67.9343 140.107 69.7008C139.226 70.1424 138.565 70.584 138.125 71.4673C137.464 73.013 136.362 74.3378 135.261 75.4419C133.058 78.0916 131.075 81.1829 127.771 82.7286C127.33 82.287 127.33 81.8453 127.551 81.6245C127.551 80.9621 127.55 80.2997 126.89 80.2997C126.229 80.2997 125.348 80.0789 125.127 80.9621C124.687 82.7286 123.145 84.2743 123.805 86.2615C118.959 84.9367 119.84 84.0534 116.976 89.1321C116.315 90.2361 116.095 91.561 114.113 90.8986C113.011 90.6777 112.13 91.7818 111.689 92.8858C111.469 93.9899 110.588 95.3147 111.249 96.6396C111.689 97.5228 111.249 98.4061 110.368 98.6269C109.266 98.6269 109.927 97.7437 109.927 97.302C109.927 97.0812 109.486 96.8604 109.266 96.8604C108.165 96.8604 107.063 96.8604 106.402 97.9645C105.962 98.6269 105.962 99.5101 105.08 99.7309C104.64 99.2893 105.301 98.6269 104.64 98.4061C103.979 98.1853 103.759 98.6269 103.318 99.0685C102.657 99.7309 102.657 101.277 101.776 101.277C100.014 101.277 99.5731 102.601 98.9122 103.485C97.8107 105.472 96.2687 106.797 94.5063 108.122C93.4048 109.005 91.6425 109.447 92.5237 111.655C92.5237 111.875 92.0831 112.538 91.8628 112.98C91.1285 114.304 91.5691 115.261 93.1846 115.85C90.9816 117.837 89.2192 120.045 86.5757 121.591C85.254 122.254 82.8307 122.254 82.6104 124.682C82.6104 124.903 82.1699 124.903 81.7292 124.682C80.1872 124.241 79.7466 125.124 79.5263 126.449C79.5263 126.67 79.306 127.332 79.0857 126.891C77.9842 125.124 76.8828 127.332 75.7813 126.891C75.3407 126.007 75.7813 124.903 75.1204 124.02C75.1204 124.02 76.4422 123.578 76.4422 124.02C76.8828 126.228 77.9843 125.345 78.4248 124.241C79.306 122.695 80.4075 122.033 81.7292 121.37C82.3901 121.37 82.6104 120.708 82.3901 120.266C82.1698 119.604 81.7292 119.604 81.0684 119.825C80.1872 119.825 79.5263 121.149 78.6451 120.929C77.7639 120.045 78.8654 118.941 77.9843 118.058C76.2219 118.279 76.4422 119.825 76.4422 120.929C76.4422 122.254 75.7813 122.916 74.6798 123.578C74.019 123.799 74.019 124.241 74.019 124.903C74.019 125.345 73.5784 126.228 73.1378 125.787C71.5957 124.903 71.5957 126.228 71.1551 126.891C70.7145 127.774 69.1725 127.995 69.8334 129.761C70.9348 129.319 71.816 128.436 72.6972 127.774C73.1378 127.553 73.5784 127.332 74.019 127.774C74.4595 128.436 74.0189 128.878 73.5783 129.099C72.0363 129.761 70.9348 130.865 69.8334 131.969C67.8507 133.736 66.0883 136.385 63.0042 135.944C62.3434 135.944 62.3433 136.606 62.123 137.048C61.6824 138.152 61.0216 139.035 59.6998 139.035C59.0389 139.035 58.8186 139.698 58.5983 140.139C57.7171 141.685 57.2766 143.01 57.9375 144.776C56.6157 144.776 57.0563 143.01 55.7345 143.23C54.633 144.114 56.1751 145.88 54.8533 146.543C53.7518 146.984 53.5316 147.867 53.3112 148.972C53.091 150.076 52.2098 150.959 51.1083 151.18C49.5663 151.621 48.9054 152.504 48.2445 153.829C47.3633 156.037 45.1604 157.142 44.2792 159.57C44.2792 159.791 43.8386 160.012 43.6183 160.012C41.856 159.57 41.4154 160.674 40.9748 162.22C40.9748 162.662 40.0936 163.324 39.653 163.324C38.111 163.766 37.4501 165.091 36.7892 166.195C35.4674 168.624 33.2645 170.39 31.0615 171.273C27.5368 172.377 26.4353 175.469 24.2324 177.677C23.5715 178.339 24.2324 178.781 25.1136 178.56C25.3339 179.222 25.1136 179.885 25.1136 180.547C25.1136 180.768 25.1136 180.989 25.1136 181.431C25.9948 182.314 25.7745 182.314 25.1136 182.976C24.0121 184.08 21.5889 183.859 22.2498 186.288C22.2498 186.73 21.3686 187.172 20.928 187.392C18.9453 188.497 16.9627 190.042 15.4206 191.367C11.8959 194.458 7.9306 196.887 3.74503 198.875C2.42325 199.537 0.660889 200.199 0 201.745C0.660889 202.187 1.10147 201.966 1.54205 201.745L3.08417 199.758ZM313.479 22.0059C314.58 24.4348 313.038 26.2013 312.818 28.1886C312.818 28.4094 312.378 28.1886 311.937 28.1886C311.496 27.9677 311.056 27.5261 311.056 27.0845C311.056 25.318 311.056 23.1099 313.259 22.0059H313.479ZM261.93 63.5181C261.93 63.5181 263.032 63.2973 263.252 63.5181C263.692 63.9597 263.252 64.6222 262.811 64.843C260.608 66.3887 258.626 68.3759 256.863 70.8048C256.643 70.1424 256.202 69.7008 256.423 69.7008C258.185 67.4927 259.287 64.843 261.93 63.2973V63.5181ZM226.683 52.9193C226.683 52.9193 227.344 52.036 227.564 51.3736C228.225 49.6071 229.327 49.1655 231.309 49.8279C229.767 50.932 229.547 53.1401 227.344 53.3609C226.683 53.3609 226.683 54.0233 226.683 54.4649C226.683 55.3482 226.463 56.0106 225.582 56.2314C225.141 54.9065 224.921 53.5817 226.463 52.6984L226.683 52.9193ZM99.3528 106.134C99.3528 109.888 99.3528 110.33 96.2687 111.875C96.7093 109.667 97.7373 107.754 99.3528 106.134ZM91.8628 139.035C91.8628 139.035 92.5237 138.373 93.1846 138.593C93.8454 139.035 93.8455 139.698 93.4048 140.139C92.5237 141.022 92.3034 143.01 90.1004 142.347C90.7613 141.243 91.2019 140.139 91.8628 139.035ZM26.4354 176.131C26.4354 176.131 28.1977 173.923 29.2992 172.819C31.0615 171.273 32.3833 171.715 33.0442 174.144C33.0442 174.806 34.3659 175.469 33.4848 176.352C32.6036 177.235 31.5021 176.573 31.0615 176.352C29.7397 175.248 28.8586 175.469 27.7571 176.352C27.5368 176.352 27.0963 176.352 26.6556 176.352L26.4354 176.131Z" fill="url(#paint0_linear_1_202)"/>
<path d="M311.937 119.825C311.937 118.721 311.056 118.279 310.175 118.058C309.073 118.058 306.43 119.825 306.65 120.708C307.09 122.474 305.769 122.916 304.667 123.578C303.786 124.02 303.125 124.462 303.786 125.566C305.989 124.682 308.192 123.799 310.395 122.916C311.937 122.254 312.157 121.149 311.937 119.604V119.825Z" fill="url(#paint1_linear_1_202)"/>
<path d="M88.1178 110.992C84.8134 111.655 83.4916 113.2 84.3728 115.629C85.9883 114.746 87.2366 113.2 88.1178 110.992Z" fill="url(#paint2_linear_1_202)"/>
<defs>
<linearGradient id="paint0_linear_1_202" x1="419" y1="202" x2="-20.4929" y2="135.562" gradientUnits="userSpaceOnUse">
<stop stop-color="#5CFF41"/>
<stop offset="1" stop-color="#F0FF41"/>
</linearGradient>
<linearGradient id="paint1_linear_1_202" x1="419" y1="202" x2="-20.4929" y2="135.562" gradientUnits="userSpaceOnUse">
<stop stop-color="#5CFF41"/>
<stop offset="1" stop-color="#F0FF41"/>
</linearGradient>
<linearGradient id="paint2_linear_1_202" x1="419" y1="202" x2="-20.4929" y2="135.562" gradientUnits="userSpaceOnUse">
<stop stop-color="#5CFF41"/>
<stop offset="1" stop-color="#F0FF41"/>
</linearGradient>
</defs>
</svg>
