<svg width="14" height="14" viewBox="0 0 14 14" fill="none" xmlns="http://www.w3.org/2000/svg">
<path d="M13.8895 10.4186C13.7678 11.3438 13.3134 12.193 12.6113 12.8076C11.9092 13.4223 11.0074 13.7604 10.0742 13.7587C4.65301 13.7587 0.242316 9.34802 0.242316 3.92686C0.240643 2.99372 0.578708 2.09188 1.19337 1.38977C1.80803 0.687666 2.65725 0.233312 3.58243 0.111571C3.81638 0.0830044 4.0533 0.130867 4.25782 0.248013C4.46233 0.36516 4.62348 0.545307 4.71719 0.761563L6.1592 3.9808V3.98899C6.23095 4.15453 6.26059 4.33527 6.24546 4.51505C6.23032 4.69483 6.1709 4.86807 6.07249 5.01929C6.0602 5.03772 6.04723 5.05479 6.03357 5.07186L4.61205 6.75692C5.12344 7.79609 6.21041 8.8735 7.26324 9.38625L8.92511 7.97225C8.94143 7.95853 8.95852 7.94576 8.97631 7.93401C9.12741 7.83324 9.30124 7.77172 9.48209 7.75503C9.66294 7.73834 9.84509 7.767 10.0121 7.83842L10.021 7.84252L13.2375 9.28384C13.4541 9.37722 13.6347 9.53822 13.7522 9.74277C13.8698 9.94731 13.9179 10.1844 13.8895 10.4186Z" fill="white"/>
</svg>
