<svg width="154" height="48" viewBox="0 0 154 48" fill="none" xmlns="http://www.w3.org/2000/svg">
<g id="Vector">
<path d="M153.201 16.0896C153.201 16.0896 152.756 15.9904 152.473 16.0288C152.12 16.0768 151.767 16.1248 151.414 16.1728C150.489 16.2453 149.557 16.2656 148.625 16.2858C148.413 16.3146 148.271 16.3338 148.25 16.1769C148.25 16.1769 148.165 16.0819 148.102 16.1438C147.918 16.3818 147.551 16.3252 147.198 16.3732C146.986 16.402 146.774 16.4308 146.626 16.3977C146.478 16.3646 146.605 16.2408 146.598 16.1885C146.583 16.0839 146.435 16.0508 146.35 15.9558C146.35 15.9558 146.35 15.9558 146.209 15.975C146.153 16.0892 146.174 16.2461 145.969 16.3273C145.962 16.275 145.948 16.1704 145.736 16.1992C145.524 16.228 145.609 16.323 145.623 16.4276C145.623 16.4276 145.63 16.4799 145.637 16.5322C145.637 16.5322 145.637 16.5322 145.567 16.5418C145.56 16.4895 145.553 16.4372 145.475 16.3945C145.468 16.3422 145.454 16.2376 145.312 16.2568C145.171 16.276 145.101 16.2856 145.044 16.3998C145.044 16.3998 144.988 16.514 144.924 16.5759C144.797 16.6997 144.592 16.7808 144.501 16.6335C144.324 16.3912 143.893 16.3965 143.392 16.4114C143.039 16.4594 142.749 16.4455 142.403 16.5459C142.262 16.5651 142.121 16.5843 141.979 16.6035C141.69 16.5896 141.485 16.6707 141.21 16.7614C140.398 17.1381 139.663 17.0249 138.865 16.9737C138.576 16.9598 138.547 16.7506 138.815 16.6076C139.02 16.5265 139.225 16.4453 139.451 16.5211C139.67 16.5446 139.875 16.4635 140.157 16.4251C140.369 16.3963 140.581 16.3675 140.793 16.3387C141.301 16.3761 141.647 16.2758 141.901 16.0282C141.894 15.9759 142.113 15.9994 142.184 15.9898C142.184 15.9898 142.184 15.9898 142.261 16.0325C142.593 15.8275 142.84 16.0602 143.186 15.9599C143.539 15.9119 143.963 15.8543 144.316 15.8063C144.528 15.7775 144.662 15.706 144.81 15.7391C145.107 15.8053 145.305 15.6719 145.587 15.6335C145.87 15.5951 146.096 15.6708 146.364 15.5278C146.576 15.499 146.717 15.4798 146.872 15.5652C147.091 15.5887 147.211 15.4126 147.437 15.4884L147.579 15.4692C147.727 15.5023 147.868 15.4831 148.002 15.4116C148.207 15.3305 148.426 15.354 148.701 15.2633C149.125 15.2057 149.549 15.148 149.972 15.0904L150.113 15.0712C150.113 15.0712 150.106 15.0189 150.036 15.0285C149.668 14.9719 149.245 15.0295 148.814 15.0349C148.108 15.1309 147.388 15.1223 146.667 15.1137C145.947 15.1051 145.234 15.1489 144.52 15.1926C143.602 15.3174 142.741 15.328 141.823 15.4529C141.258 15.5297 140.693 15.6065 140.128 15.6833C139.563 15.7601 139.069 15.8273 138.504 15.9042C137.939 15.981 137.473 16.2574 136.901 16.2819L136.76 16.3011C136.57 16.4868 136.217 16.5348 135.863 16.5828C135.722 16.6021 135.581 16.6213 135.44 16.6405C135.037 16.855 134.614 16.9126 134.183 16.9179C133.971 16.9467 133.759 16.9755 133.703 17.0897C133.703 17.0897 133.569 17.1612 133.491 17.1185C133.35 17.1377 133.265 17.0427 133.138 17.1665C132.997 17.1857 133.082 17.2807 133.096 17.3853C133.096 17.3853 133.103 17.4376 133.11 17.4899C132.969 17.5091 132.842 17.6329 132.63 17.6617C132.489 17.681 132.348 17.7002 132.263 17.6052C132.241 17.4483 132.51 17.3052 132.707 17.1718C132.425 17.2102 132.206 17.1868 131.987 17.1633C131.846 17.1825 131.775 17.1921 131.634 17.2113C131.422 17.2401 131.281 17.2593 131.132 17.2262C131.062 17.2358 130.914 17.2027 130.836 17.16C130.624 17.1888 130.553 17.1984 130.426 17.3222C130.433 17.3745 130.441 17.4268 130.306 17.4983C130.172 17.5698 130.024 17.5367 129.883 17.5559C129.742 17.5751 129.798 17.4609 129.861 17.399C129.932 17.3894 130.066 17.3179 129.981 17.2229C129.551 17.2282 129.141 17.3904 128.71 17.3958C128.569 17.415 128.498 17.4246 128.513 17.5292C128.52 17.5815 128.598 17.6242 128.605 17.6765L128.612 17.7288C128.471 17.748 128.259 17.7768 128.117 17.796C127.906 17.8248 127.962 17.7106 128.026 17.6487C128.075 17.4822 127.983 17.3349 127.559 17.3925C127.277 17.4309 127.121 17.3455 127.036 17.2505C126.881 17.1651 127.001 16.989 127.213 16.9602C127.566 16.9122 127.919 16.8642 128.272 16.8162C128.554 16.7778 128.837 16.7393 128.943 16.9912C128.95 17.0435 129.169 17.067 129.296 16.9432C129.43 16.8717 129.628 16.7383 129.684 16.6241C129.797 16.3957 130.15 16.3477 130.348 16.2143L130.559 16.1855C130.708 16.2186 130.856 16.2517 131.054 16.1183C131.322 15.9753 131.682 15.9796 131.972 15.9934C131.972 15.9934 131.972 15.9934 132.049 16.0361C132.318 15.8931 132.586 15.7501 133.024 15.7971C133.165 15.7779 133.306 15.7587 133.447 15.7395C133.589 15.7203 133.723 15.6488 133.857 15.5773C134.619 15.3671 135.403 15.3137 136.081 15.0085C136.081 15.0085 136.081 15.0085 136.152 14.9989C136.582 14.9936 137.069 14.8741 137.493 14.8165C138.058 14.7397 138.058 14.7397 138.227 14.3971C138.538 14.5678 138.616 14.6105 138.962 14.5102C139.724 14.3 139.866 14.2808 140.162 13.8144C140.303 13.7952 140.169 13.8667 140.247 13.9094C140.261 14.014 140.409 14.0471 140.614 13.966C140.826 13.9372 140.882 13.823 140.727 13.7376C140.649 13.6949 140.712 13.633 140.846 13.5615C141.2 13.5135 141.482 13.4751 141.835 13.427C142.188 13.379 142.534 13.2787 142.795 13.0834C143.063 12.9404 143.332 12.7974 143.6 12.6544C143.861 12.4591 144.129 12.3161 144.242 12.0877C144.362 11.9116 144.341 11.7547 144.75 11.5924L144.806 11.4782C144.771 11.2167 145.159 10.8976 144.912 10.6649C144.912 10.6649 144.897 10.5603 145.039 10.5411C145.321 10.5027 145.441 10.3266 145.349 10.1793C145.328 10.0224 145.306 9.8655 145.433 9.74169C145.419 9.63709 145.412 9.58479 145.398 9.48019C145.376 9.32329 145.348 9.11409 145.256 8.96679C145.242 8.86219 145.093 8.8291 144.945 8.796C144.295 8.77782 144.295 8.77782 144.683 8.4587C144.754 8.4491 144.81 8.3349 144.662 8.3018C144.662 8.3018 144.514 8.2687 144.443 8.27831C144.09 8.32632 143.808 8.36473 143.455 8.41274C143.455 8.41274 143.44 8.30813 143.433 8.25583C143.405 8.04663 143.334 8.05624 143.045 8.04234C142.55 8.10956 142.056 8.17677 141.491 8.25359C141.209 8.292 141.075 8.3635 141.096 8.5204C141.117 8.67731 140.997 8.85341 140.729 8.99642C140.588 9.01562 140.673 9.11062 140.609 9.17253C140.652 9.48633 140.384 9.62934 139.812 9.65385C139.388 9.71147 138.894 9.77868 138.47 9.83629C138.526 9.72209 138.59 9.66019 138.435 9.57479C138.435 9.57479 138.364 9.58439 138.293 9.594C138.293 9.594 138.223 9.6036 138.3 9.6463C138.307 9.6986 138.456 9.73169 138.541 9.82669C138.329 9.8555 138.117 9.8843 137.905 9.91311C137.552 9.96112 137.34 9.98993 137.171 9.79993C137.163 9.74763 136.945 9.72413 136.803 9.74334C136.012 9.74436 135.228 9.79768 134.388 9.96521C134.176 9.99402 133.901 10.0847 133.682 10.0612C133.612 10.0708 133.463 10.0377 133.456 9.98544C133.449 9.93314 133.442 9.88084 133.647 9.79973C133.788 9.78053 134 9.75172 133.837 9.61402C133.837 9.61402 133.625 9.64283 133.484 9.66203C133.272 9.69084 132.99 9.72925 132.778 9.75805C132.425 9.80606 131.994 9.81138 131.627 9.75479L131.62 9.70248C131.62 9.70248 131.613 9.65019 131.683 9.64058C131.888 9.55948 132.107 9.58297 132.319 9.55416C132.686 9.61076 133.11 9.55314 133.533 9.49553C133.816 9.45712 133.816 9.45712 133.858 9.23832C133.929 9.22871 134.07 9.20951 134.07 9.20951C134.254 9.50411 134.677 9.44649 135.164 9.32698C135.376 9.29817 135.518 9.27897 135.729 9.25016C136.153 9.19255 136.563 9.03034 137 9.07733C137.212 9.04852 137.276 8.98662 137.332 8.87242C137.332 8.87242 137.191 8.89162 137.106 8.79662C136.795 8.62583 136.795 8.62583 136.386 8.78804C136.047 8.94065 135.687 8.93636 135.341 9.03667C135.2 9.05588 135.115 8.96088 135.037 8.91818L134.896 8.93739C134.691 9.01849 134.543 8.9854 134.458 8.8904C134.444 8.78579 134.288 8.7004 134.493 8.61929C134.761 8.47628 134.973 8.44748 135.326 8.39947C135.608 8.36106 135.891 8.32265 136.096 8.24154C135.926 8.05154 135.658 8.19455 135.375 8.23296C134.952 8.29057 134.782 8.10058 134.492 8.08669C134.471 7.92978 134.471 7.92978 134.189 7.96819C133.836 8.0162 133.836 8.0162 133.729 7.7643C133.722 7.712 133.645 7.6693 133.503 7.68851C133.362 7.70771 133.15 7.73652 133.009 7.75573C132.868 7.77493 132.783 7.67993 132.839 7.56573C132.839 7.56573 132.973 7.49422 133.037 7.43232L133.03 7.38002L132.818 7.40883C132.437 7.78024 131.794 7.81436 131.152 7.84848C131.011 7.86768 130.869 7.88689 130.728 7.90609C130.516 7.9349 130.375 7.9541 130.424 7.7876L130.417 7.7353C130.205 7.7641 129.902 7.64561 129.711 7.83132C129.429 7.86973 129.146 7.90813 128.934 7.93694C128.652 7.97535 128.532 8.15146 128.25 8.18986C128.038 8.21867 127.826 8.24748 127.614 8.27628C127.402 8.30509 127.402 8.30509 127.381 8.14819C127.374 8.09589 127.367 8.04359 127.225 8.06279C126.724 8.0777 126.293 8.08302 125.806 8.20253C125.171 8.28895 124.535 8.37537 123.9 8.46179C122.953 8.37742 121.993 8.72105 121.047 8.63667C121.047 8.63667 120.905 8.65588 120.764 8.67508C120.482 8.71349 120.199 8.7519 119.995 8.833C119.853 8.85221 119.712 8.87141 119.571 8.89062C118.914 8.82014 118.208 8.91616 117.509 9.06448C117.226 9.10289 117.015 9.13169 116.732 9.1701C116.294 9.12311 115.856 9.07612 115.299 9.20524C114.875 9.26285 114.522 9.31086 114.169 9.35887C113.957 9.38768 113.886 9.39728 113.83 9.51149C113.654 9.80179 113.442 9.8306 112.94 9.84551C112.799 9.86472 112.658 9.88392 112.51 9.85083C112.368 9.87003 112.291 9.82733 112.284 9.77503C112.284 9.77503 112.347 9.71313 112.411 9.65123C112.891 9.47941 113.371 9.3076 113.773 9.09308C114.239 8.81667 114.726 8.69715 115.284 8.56803C115.99 8.47201 116.526 8.18599 116.999 7.96188C117.465 7.68546 118.016 7.50404 118.637 7.31302C119.054 7.20311 119.463 7.0409 119.88 6.93098C119.95 6.92138 120.014 6.85948 120.007 6.80718C120 6.75488 119.992 6.70258 119.774 6.67909C119.632 6.69829 119.491 6.71749 119.35 6.7367C118.856 6.80391 118.361 6.87113 117.938 6.92874C117.938 6.92874 117.867 6.93834 117.86 6.88604C117.86 6.88604 117.853 6.83374 117.994 6.81454C118.276 6.77613 118.559 6.73772 118.771 6.70892C118.983 6.68011 119.194 6.6513 119.032 6.5136C119.032 6.5136 119.025 6.4613 119.095 6.4517C119.787 6.25108 120.465 5.94586 121.319 5.88293C121.531 5.85413 121.672 5.83492 121.884 5.80612C122.167 5.76771 122.379 5.7389 122.491 5.5105C122.484 5.4582 122.703 5.48169 122.703 5.48169C122.717 5.58629 122.725 5.63859 123.007 5.60018C123.219 5.57138 123.431 5.54257 123.642 5.51376C124.059 5.40385 124.49 5.39854 124.914 5.34092C125.196 5.30252 125.549 5.25451 125.831 5.2161C125.125 5.31212 124.525 5.12743 123.875 5.10925C123.875 5.10925 123.805 5.11885 123.727 5.07615C123.727 5.07615 123.72 5.02385 123.713 4.97155C123.713 4.97155 123.769 4.85735 123.84 4.84775C124.193 4.79974 124.546 4.75173 124.899 4.70372L125.04 4.68451C125.04 4.68451 125.033 4.63221 124.962 4.64182C124.75 4.67062 124.468 4.70903 124.256 4.73784C124.256 4.73784 124.186 4.74744 124.178 4.69514C124.171 4.64284 124.171 4.64284 124.242 4.63324C124.383 4.61403 124.524 4.59483 124.666 4.57562C125.372 4.4796 126.021 4.49778 126.621 4.14986C126.621 4.14986 126.621 4.14986 126.692 4.14026C126.904 4.11145 127.186 4.07305 127.165 3.91614C127.151 3.81154 126.868 3.84995 126.72 3.81686C126.649 3.82646 126.501 3.79336 126.353 3.76027C126.692 3.60765 126.981 3.62155 127.264 3.58314C127.475 3.55433 127.617 3.53513 127.673 3.42092C127.652 3.26402 127.856 3.18292 128.054 3.04951C128.252 2.9161 128.548 2.98229 128.831 2.94389C129.043 2.91508 129.184 2.89588 129.24 2.78167C129.233 2.72937 129.226 2.67707 129.36 2.60557C129.558 2.47216 129.48 2.42946 129.332 2.39636C129.19 2.41557 129.049 2.43478 128.908 2.45398C128.696 2.48279 128.611 2.38779 128.604 2.33549C128.879 2.24478 129.155 2.15407 129.444 2.16796C129.868 2.11035 130.292 2.05274 130.715 1.99512C130.857 1.97592 130.927 1.96632 130.984 1.85211L130.969 1.74751C130.969 1.74751 130.828 1.76672 130.758 1.77632C130.623 1.84782 130.496 1.97163 130.348 1.93853C130.122 1.86274 129.903 1.83924 129.621 1.87765C129.387 1.74956 129.034 1.79757 128.745 1.78368C128.392 1.83169 127.961 1.837 127.601 1.83271C127.022 1.80493 127.022 1.80492 127.269 1.50501C126.986 1.54342 126.704 1.58183 126.492 1.61064C126.209 1.64905 126.068 1.66825 125.941 1.79206C125.814 1.91586 125.744 1.92546 125.588 1.84007C125.588 1.84007 125.503 1.74507 125.362 1.76427C125.08 1.80268 124.797 1.84109 124.444 1.8891C124.374 1.8987 124.31 1.9606 124.247 2.02251C124.035 2.05131 123.886 2.01822 123.738 1.98512C123.667 1.99472 123.526 2.01393 123.526 2.01393C123.54 2.11853 123.406 2.19003 123.194 2.21884C122.488 2.31486 121.853 2.40128 121.161 2.6019C121.02 2.6211 120.935 2.52611 120.73 2.60721L120.674 2.72141C120.575 3.05442 120.159 3.16433 119.594 3.24115C119.382 3.26996 119.17 3.29876 118.958 3.32757C118.344 3.57089 117.709 3.65731 117.059 3.63913C116.776 3.67754 116.557 3.65404 116.275 3.69245C115.781 3.75966 115.35 3.76498 114.841 3.72759C114.552 3.7137 114.34 3.7425 114.065 3.83321C113.655 3.99543 113.231 4.05304 112.723 4.01565C111.579 4.06469 110.442 4.16602 109.319 4.37195C109.319 4.37195 109.178 4.39116 109.108 4.40076L108.966 4.41996C108.945 4.26306 108.733 4.29187 108.521 4.32068C108.027 4.38789 107.533 4.4551 107.038 4.52232C106.544 4.58953 106.043 4.60445 105.626 4.71436C104.715 4.89149 103.72 4.97362 102.816 5.20305C102.745 5.21265 102.675 5.22225 102.533 5.24146C101.813 5.23288 101.036 5.3385 100.323 5.38222C99.3346 5.51665 98.346 5.65108 97.3503 5.73321C97.0679 5.77162 96.7854 5.81002 96.5594 5.73423C96.411 5.70113 96.3475 5.76304 96.1357 5.79184C95.585 5.97326 95.0343 6.15468 94.4268 5.91769L94.2149 5.9465C93.8832 6.15141 93.5936 6.13752 93.297 6.07133C93.2263 6.08093 93.0145 6.10973 92.8733 6.12894C92.4496 6.18655 91.9482 6.20147 91.5317 6.31138C91.0374 6.37859 90.5995 6.3316 90.1052 6.39882C89.8933 6.42763 89.6109 6.46603 89.3991 6.49484C89.1872 6.52365 88.9754 6.55245 88.7636 6.58126C88.3399 6.63887 87.9162 6.69648 87.4925 6.7541C87.0689 6.81171 86.7158 6.85972 86.2921 6.91733C85.8684 6.97495 85.3035 7.05176 84.8799 7.10938C83.3122 7.21602 81.7023 7.54147 80.1488 7.75272C80.0076 7.77192 79.8664 7.79113 79.7252 7.81033C79.2238 7.82524 78.7366 7.94476 78.3058 7.95007C77.5291 8.05569 76.8301 8.20402 76.0462 8.25734C75.2695 8.36296 74.4927 8.46858 73.716 8.57421C72.798 8.69904 71.873 8.77156 70.9621 8.94869C70.8209 8.96789 70.6797 8.9871 70.5385 9.0063C70.3972 9.02551 70.256 9.04471 70.1148 9.06391C69.1333 9.25064 68.1305 9.28047 67.2197 9.4576C66.7254 9.52482 66.1605 9.60163 65.6733 9.72115C65.3909 9.75956 65.1155 9.85026 64.8966 9.82677C64.7482 9.79368 64.5435 9.87478 64.4023 9.89399C63.7175 10.1469 62.9408 10.2525 62.2204 10.244C61.938 10.2824 61.5143 10.34 61.366 10.3069C60.9844 10.1457 60.8859 10.4787 60.5963 10.4648L60.4551 10.484C60.1727 10.5224 59.8902 10.5608 59.622 10.7038C59.4101 10.7326 59.495 10.8276 59.6433 10.8607C59.7917 10.8938 59.6575 10.9653 59.5163 10.9845C59.2339 11.0229 59.0291 11.1041 58.7538 11.1948C58.3865 11.1382 58.2737 11.3666 57.9913 11.405C57.9065 11.31 58.1112 11.2289 58.0263 11.1339C57.9415 11.0389 58.0756 10.9674 58.2875 10.9386C58.3581 10.929 58.4287 10.9194 58.351 10.8767C58.2803 10.8863 58.2097 10.8959 58.132 10.8532C57.6306 10.8681 57.5671 10.93 57.5249 11.1488C57.5321 11.2011 57.4686 11.263 57.3273 11.2822C57.0449 11.3206 56.833 11.3494 56.5435 11.3355C56.607 11.2736 56.7553 11.3067 56.8894 11.2352C57.0307 11.216 57.0942 11.1541 57.087 11.1018C57.0728 10.9972 56.9951 10.9545 56.7833 10.9833C56.7126 10.9929 56.5714 11.0121 56.5008 11.0217C55.9501 11.2031 55.371 11.1754 54.8203 11.3568C54.3047 11.2671 53.8389 11.5435 53.3375 11.5584C53.3375 11.5584 53.2669 11.568 53.274 11.6203C53.274 11.6203 53.274 11.6203 53.4152 11.6011C53.9095 11.5339 54.4038 11.4667 54.8274 11.4091C55.1099 11.3707 55.463 11.3227 55.7454 11.2842C55.8866 11.265 55.8937 11.3173 55.7596 11.3888C55.689 11.3984 55.7032 11.5031 55.7739 11.4934C55.9151 11.4742 56.0563 11.455 56.1975 11.4358C56.1975 11.4358 56.3388 11.4166 56.3459 11.4689C56.3459 11.4689 56.353 11.5212 56.2118 11.5404C55.654 11.6696 55.1597 11.7368 54.6583 11.7517C54.3687 11.7378 54.2062 11.6001 54.0934 11.8285C54.0934 11.8285 53.9522 11.8477 53.8815 11.8573C53.3873 11.9245 52.893 11.9917 52.3281 12.0686C52.1162 12.0974 51.975 12.1166 51.8831 11.9693C51.8688 11.8647 51.5864 11.9031 51.4523 11.9746C51.3817 11.9842 51.2547 12.108 51.1912 12.1699C50.9301 12.3652 50.5699 12.3609 50.3296 12.1805C50.3296 12.1805 50.3154 12.0759 50.1741 12.0951C49.8917 12.1335 49.6021 12.1196 49.3055 12.0534C49.3055 12.0534 49.0936 12.0822 48.9595 12.1537C48.9595 12.1537 48.8889 12.1634 48.8254 12.2253C48.8254 12.2253 48.8325 12.2776 48.9808 12.3106C49.2633 12.2722 49.6164 12.2242 49.7789 12.3619C49.5107 12.5049 49.1576 12.5529 48.8681 12.5391C48.6562 12.5679 48.4373 12.5444 48.2326 12.6255C48.0913 12.6447 48.0207 12.6543 47.8795 12.6735C47.6534 12.5977 47.3781 12.6884 47.1734 12.7695C46.7568 12.8794 46.326 12.8847 45.973 12.9327C45.8317 12.9519 45.6905 12.9711 45.5351 12.8858C45.3161 12.8623 45.3375 13.0192 45.1256 13.048C44.7654 13.0437 44.4195 13.144 44.0664 13.192C43.5086 13.3211 42.9437 13.3979 42.4281 13.3082C42.2798 13.2752 42.1457 13.3467 42.0044 13.3659C41.7926 13.3947 41.6514 13.4139 41.5737 13.3712C41.4888 13.2762 41.3405 13.2431 41.1286 13.2719C40.9168 13.3007 40.7756 13.3199 40.6486 13.4437C40.578 13.4533 40.5287 13.6198 40.3875 13.639C40.1756 13.6678 40.232 13.5536 40.0837 13.5205C40.0837 13.5205 40.0131 13.5301 39.9425 13.5397C39.8719 13.5493 39.7306 13.5685 39.66 13.5781C39.5894 13.5877 39.6671 13.6304 39.6742 13.6827C39.6742 13.6827 39.8226 13.7158 39.6885 13.7873L39.5472 13.8065C39.1165 13.8118 38.7563 13.8076 38.3397 13.9175C37.7819 14.0466 37.2099 14.0711 36.645 14.1479C36.0801 14.2247 35.501 14.197 34.8797 14.388C33.8063 14.4274 32.7756 14.7806 31.6315 14.8297C31.4197 14.8585 31.2079 14.8873 30.996 14.9161C30.8548 14.9353 30.7136 14.9545 30.7278 15.0591C30.742 15.1637 30.8833 15.1445 31.0951 15.1157C31.3775 15.0773 31.66 15.0389 31.8718 15.0101C31.8718 15.0101 31.9424 15.0005 31.9496 15.0528C31.9496 15.0528 31.9567 15.1051 31.8861 15.1147C31.533 15.1627 31.1799 15.2107 30.8269 15.2587C30.5444 15.2971 30.2477 15.2309 29.9795 15.3739C29.9795 15.3739 29.8383 15.3931 29.6971 15.4123C29.5558 15.4315 29.4781 15.3888 29.3298 15.3557C29.1886 15.3749 29.0402 15.3418 28.9061 15.4134C28.7791 15.5372 28.9274 15.5703 28.9417 15.6749C29.0971 15.7603 29.1748 15.8029 29.3303 15.8883C29.1891 15.9076 29.1042 15.8126 28.9772 15.9364C28.9066 15.946 28.9915 16.041 28.9986 16.0933C28.8573 16.1125 28.6455 16.1413 28.4972 16.1082C27.9323 16.185 27.7204 16.2138 27.4735 16.5137C27.4172 16.6279 27.3608 16.7421 27.3044 16.8563C27.3186 16.9609 27.3399 17.1178 27.2129 17.2416C27.1708 17.4604 27.2627 17.6077 27.4959 17.7358C27.4888 17.6835 27.5523 17.6216 27.6935 17.6024C28.2584 17.5256 28.8304 17.5011 29.3389 17.5385C29.3389 17.5385 29.4095 17.5289 29.4167 17.5812C29.4167 17.5812 29.346 17.5908 29.2754 17.6004C28.9224 17.6484 28.4845 17.6014 28.1385 17.7017C28.1456 17.754 28.1527 17.8063 28.1599 17.8586C28.1177 18.0774 28.266 18.1105 28.6897 18.0529C29.1134 17.9953 29.4664 17.9473 29.8266 17.9516C30.1797 17.9035 30.1797 17.9035 30.2152 18.165C30.2223 18.2173 30.2295 18.2696 30.0882 18.2889C29.947 18.3081 29.8764 18.3177 29.8622 18.2131C29.8408 18.0562 29.6219 18.0327 29.4949 18.1565C29.2338 18.3518 28.8807 18.3998 28.5205 18.3955C28.3793 18.4147 28.231 18.3816 28.0826 18.3485C27.9414 18.3677 27.7225 18.3442 27.5741 18.3111C27.4329 18.3303 27.3623 18.3399 27.2988 18.4018C27.3059 18.4541 27.313 18.5064 27.3201 18.5587C27.631 18.7295 27.9912 18.7338 28.4078 18.6239C28.6196 18.5951 28.7608 18.5759 28.7044 18.6901C28.7115 18.7424 28.7258 18.847 28.5917 18.9185C28.4718 19.0946 28.6343 19.2323 28.8533 19.2558C29.0722 19.2793 29.2983 19.3551 29.503 19.274C29.9267 19.2164 30.2797 19.1684 30.6328 19.1203C30.9859 19.0723 31.2119 19.1481 31.1484 19.21C31.1555 19.2623 30.739 19.3722 30.5271 19.4011C30.4565 19.4107 30.3859 19.4203 30.2447 19.4395C30.0329 19.4683 29.7504 19.5067 29.5315 19.4832C29.3196 19.512 29.0301 19.4981 28.8253 19.5792C28.5571 19.7222 28.5215 19.4607 28.2462 19.5514C27.8225 19.609 27.7519 19.6186 27.6529 19.419C27.6458 19.3667 27.6315 19.2621 27.5538 19.2194C27.2714 19.2578 27.1444 19.3816 27.1657 19.5385C27.1941 19.7478 27.4273 19.8758 27.3851 20.0946C27.343 20.3135 27.4349 20.4608 27.7387 20.5792C27.9648 20.655 28.0567 20.8023 28.1487 20.9496C28.1842 21.2111 28.4245 21.3915 28.806 21.5527C28.9615 21.6381 29.0392 21.6808 29.1946 21.7662C29.4278 21.8943 29.3714 22.0085 29.0961 22.0992C28.3478 22.414 27.5924 22.6766 26.6744 22.8014C25.4034 22.9742 24.1395 23.1994 22.7979 23.3818C20.044 23.7563 17.3043 24.2354 14.6637 24.9141C14.2401 24.9717 13.8306 25.1339 13.4212 25.2961C13.2093 25.3249 13.0117 25.4583 12.8847 25.5821C12.7791 25.8628 12.3625 25.9727 11.9317 25.9781C11.2891 26.0122 10.8019 26.1317 10.329 26.3558C9.51006 26.6802 8.59921 26.8574 7.78742 27.2341C7.71681 27.2437 7.64619 27.2533 7.50497 27.2725C6.79885 27.3685 6.10695 27.5691 5.4501 27.4987C5.23826 27.5275 5.02642 27.5563 4.89231 27.6278C4.43358 27.9565 3.8123 28.1475 3.03556 28.2531C2.75311 28.2915 2.47066 28.3299 2.1176 28.378C1.90576 28.4068 1.69393 28.4356 1.56693 28.5594C1.43281 28.6309 1.44704 28.7355 1.60249 28.8209C1.68021 28.8636 1.82855 28.8967 1.95555 28.7729C2.16027 28.6918 2.3015 28.6726 2.45695 28.758C2.45695 28.758 2.60528 28.791 2.68301 28.8337C2.83134 28.8668 2.70434 28.9906 2.56312 29.0099C1.93472 29.1486 1.46888 29.425 0.833369 29.5114C0.762757 29.521 0.692145 29.5306 0.628644 29.5925C0.628644 29.5925 0.635756 29.6448 0.706369 29.6352C0.847593 29.616 0.918206 29.6064 1.05943 29.5872C1.69494 29.5008 2.24562 29.3194 2.87402 29.1806C4.13081 28.9032 5.32411 28.6877 6.58802 28.4625C6.65864 28.4529 6.79986 28.4337 6.87047 28.4241C7.0117 28.4049 7.08231 28.3953 7.16715 28.4903C7.16715 28.4903 7.18137 28.5949 7.18848 28.6472C7.28043 28.7945 7.56999 28.8084 7.69699 28.6846C7.88749 28.4989 8.09933 28.4701 8.396 28.5363C8.69268 28.6025 9.03151 28.4499 9.38458 28.4019C9.5258 28.3826 9.73053 28.3015 9.87886 28.3346C9.94948 28.325 10.0201 28.3154 10.0978 28.3581C10.0978 28.3581 10.112 28.4627 10.0414 28.4723C10.0414 28.4723 9.82959 28.5011 9.91442 28.5961C10.3381 28.5385 10.6769 28.3859 10.9309 28.1383C11.1285 28.0049 11.2698 27.9857 11.4958 28.0615C11.4958 28.0615 11.5029 28.1138 11.5736 28.1042C11.6442 28.0946 11.7148 28.085 11.7854 28.0754C11.8489 28.0135 11.9053 27.8993 12.0465 27.8801C12.329 27.8417 12.2091 28.0178 12.3574 28.0509C12.5835 28.1267 12.8659 28.0883 13.1484 28.0498C13.4308 28.0114 13.3318 27.8118 13.5436 27.783C13.7554 27.7542 13.918 27.8919 14.1933 27.8012C14.3346 27.782 14.3981 27.7201 14.4616 27.6582C14.5886 27.5344 14.7156 27.4106 14.998 27.3722C15.3511 27.3242 15.4359 27.4192 15.7326 27.4854C15.8738 27.4662 16.0293 27.5516 16.2411 27.5227C16.4529 27.4939 16.5093 27.3797 16.5728 27.3178C16.5728 27.3178 16.7069 27.2463 16.7704 27.1844C16.9045 27.1129 16.9823 27.1556 17.1306 27.1887L17.2083 27.2314C17.4837 27.1407 17.9287 27.24 18.1827 26.9924C18.3803 26.859 18.5921 26.8302 18.8817 26.8441C19.2419 26.8484 19.5172 26.7576 19.8703 26.7096C20.1527 26.6712 20.0679 26.5762 19.983 26.4812C19.983 26.4812 19.9759 26.4289 19.9688 26.3766L20.11 26.3574C20.2513 26.3382 20.329 26.3809 20.4067 26.4236C20.7034 26.4898 20.6541 26.6563 20.3082 26.7566C20.1669 26.7758 19.9551 26.8046 19.9058 26.9711C20.1883 26.9327 20.4214 27.0608 20.7674 26.9605C21.1768 26.7983 21.6147 26.8453 22.0526 26.8923C21.9962 27.0065 21.629 26.9499 21.5868 27.1687C22.2787 26.9681 22.9284 26.9863 23.6346 26.8902C24.1288 26.823 24.6231 26.7558 25.1174 26.6886C25.1174 26.6886 25.2586 26.6694 25.2658 26.7217C25.2658 26.7217 25.2658 26.7217 25.2023 26.7836L25.061 26.8028C24.2843 26.9084 23.4369 27.0236 22.6602 27.1293C21.8835 27.2349 21.1067 27.3405 20.3513 27.603C20.2807 27.6126 20.1395 27.6318 19.9983 27.651C19.5675 27.6564 19.2215 27.7567 18.8756 27.857C18.6638 27.8858 18.4519 27.9146 18.2401 27.9434C17.4633 28.049 16.7572 28.145 15.9805 28.2507C15.698 28.2891 15.345 28.3371 15.0625 28.3755C14.7095 28.4235 14.3564 28.4715 14.0033 28.5195C12.7465 28.797 11.412 29.0317 10.1552 29.3091C9.94338 29.3379 9.73154 29.3668 9.5197 29.3956C9.10314 29.5055 8.97614 29.6293 8.93398 29.8481C8.9482 29.9527 8.96243 30.0573 9.04726 30.1523C9.28755 30.3327 9.46433 30.575 9.42217 30.7938C9.4435 30.9507 9.60606 31.0884 9.76862 31.2261C9.93118 31.3638 10.1501 31.3873 10.4326 31.3489C10.5738 31.3297 10.6444 31.3201 10.7856 31.3008C10.9975 31.272 11.0681 31.2624 11.0823 31.367C11.0894 31.4193 11.2378 31.4524 11.3648 31.3286C11.633 31.1856 11.8306 31.0522 12.1837 31.0042C12.1766 30.9519 12.2401 30.89 12.3813 30.8708C13.0168 30.7844 13.6381 30.5934 14.2878 30.6115C14.2314 30.7257 14.175 30.8399 14.0409 30.9115C13.7727 31.0545 14.0765 31.173 14.0907 31.2776C14.1049 31.3822 14.239 31.3106 14.3803 31.2914C14.5215 31.2722 14.5921 31.2626 14.5073 31.1676C14.3518 31.0822 14.4859 31.0107 14.4717 30.9061C14.5987 30.7823 14.4433 30.6969 14.2878 30.6115C15.2058 30.4867 16.0531 30.3715 16.9711 30.2467C17.2535 30.2083 17.5431 30.2221 17.7478 30.141C18.4468 29.9927 19.1601 29.949 19.8662 29.853C20.0074 29.8338 20.1486 29.8146 20.0638 29.7196C20.0354 29.5104 20.1695 29.4389 20.5154 29.3385C20.6566 29.3193 20.8685 29.2905 21.0026 29.219C21.3557 29.171 21.4969 29.1518 21.9419 29.2511C21.5888 29.2991 21.3135 29.3898 21.0239 29.3759C20.8827 29.3951 20.7415 29.4143 20.6003 29.4335C20.459 29.4528 20.4026 29.567 20.4875 29.662C20.4946 29.7143 20.6429 29.7474 20.7842 29.7281C21.4054 29.5371 22.0552 29.5553 22.7613 29.4593C22.9731 29.4305 23.2556 29.3921 23.4816 29.4679C22.931 29.6493 22.4367 29.7165 21.9495 29.836C21.5964 29.884 21.314 29.9224 21.0458 30.0654L20.8339 30.0942C20.6785 30.0089 20.5373 30.0281 20.3254 30.0569C19.7605 30.1337 19.2662 30.2009 18.7085 30.33C18.8568 30.3631 18.9345 30.4058 19.0122 30.4485C19.0122 30.4485 19.0829 30.4389 19.1535 30.4293C19.2947 30.4101 19.3653 30.4005 19.5065 30.3813C19.7184 30.3525 19.8596 30.3333 20.0714 30.3045L20.2126 30.2853L20.2269 30.3899C19.7539 30.614 19.4293 30.8712 19.3236 31.1519C19.3379 31.2565 19.345 31.3088 19.4933 31.3419C19.79 31.4081 20.0089 31.4316 20.1715 31.5693C20.2492 31.612 20.2563 31.6643 20.1928 31.7262C20.1222 31.7358 19.9175 31.8169 19.9246 31.8692C19.9388 31.9738 20.2071 31.8308 20.2919 31.9258C20.2919 31.9258 20.3767 32.0208 20.4545 32.0635C20.5957 32.0443 20.7369 32.0251 20.8217 32.1201C20.8289 32.1724 20.8431 32.277 20.8502 32.3293C20.7232 32.4531 20.5114 32.4819 20.236 32.5726C20.3137 32.6153 20.3915 32.658 20.4763 32.753C20.6389 32.8907 20.9213 32.8523 21.1331 32.8235C21.345 32.7947 21.4791 32.7232 21.6132 32.6517C21.6132 32.6517 21.6203 32.704 21.6274 32.7563C21.6417 32.8609 21.6559 32.9655 21.9454 32.9794C22.1573 32.9505 22.2208 32.8886 22.2772 32.7744C22.2772 32.7744 22.2772 32.7744 22.3407 32.7125C22.6937 32.6645 22.9904 32.7307 23.4141 32.6731C23.6965 32.6347 23.7671 32.6251 23.7179 32.7916C23.6122 33.0723 23.6122 33.0723 23.1179 33.1395C22.9767 33.1587 22.8355 33.1779 22.7649 33.1875C22.6307 33.259 22.5743 33.3732 22.4402 33.4447C22.3767 33.5066 22.0872 33.4928 22.1085 33.6497C22.3275 33.6731 22.6734 33.5728 22.7582 33.6678C22.8573 33.8674 23.1326 33.7767 23.4222 33.7906C23.5634 33.7714 23.7118 33.8045 23.7895 33.8472C23.7895 33.8472 23.9378 33.8803 23.9449 33.9326C23.9521 33.9849 23.8179 34.0564 23.7473 34.066C23.3943 34.114 22.9706 34.1716 22.6246 34.2719C22.1304 34.3392 21.728 34.5537 21.6224 34.8344C21.5167 35.1151 21.6935 35.3574 22.0679 35.4663C22.5129 35.5656 22.8309 35.7887 23.1418 35.9595C23.2195 36.0022 23.375 36.0875 23.5868 36.0587C23.6574 36.0491 23.7986 36.0299 23.7986 36.0299C23.8692 36.0203 23.8621 35.968 23.7844 35.9253C23.6996 35.8303 23.5512 35.7972 23.3323 35.7737C22.8167 35.6841 22.4987 35.461 22.1171 35.2998C21.9617 35.2144 22.0887 35.0906 22.0745 34.986C22.1309 34.8718 22.3569 34.9476 22.4981 34.9284C23.1337 34.8419 23.7905 34.9124 24.4402 34.9306C24.9488 34.968 24.9488 34.968 24.6241 35.2252C24.6241 35.2252 24.49 35.2967 24.4971 35.349C24.7796 35.3106 25.0691 35.3245 25.3587 35.3384C25.4999 35.3192 25.6412 35.3 25.726 35.395C25.8886 35.5327 26.2487 35.537 26.5383 35.5509C27.188 35.569 27.6473 35.7729 27.9724 36.0483C27.9795 36.1006 28.0572 36.1433 28.1984 36.1241C28.3397 36.1049 28.4103 36.0953 28.5515 36.0761C28.9823 36.0708 29.406 36.0132 29.7804 36.1221C30.2254 36.2214 30.7974 36.1968 31.3623 36.12C31.6447 36.0816 31.9414 36.1478 31.8286 36.3762C31.8357 36.4285 31.7016 36.5 31.7794 36.5427C31.9419 36.6804 32.1751 36.8085 32.1258 36.975C32.0273 37.308 32.6485 37.117 32.8111 37.2547C32.8111 37.2547 32.8111 37.2547 32.8888 37.2974C33.0514 37.4351 33.3338 37.3967 33.6092 37.306C34.0186 37.1438 34.4494 37.1384 34.8167 37.195C34.8167 37.195 34.8309 37.2996 34.7603 37.3092C34.0897 37.6668 32.9528 37.7681 32.423 37.5738C32.423 37.5738 32.4159 37.5215 32.4088 37.4692C32.4017 37.4169 32.5358 37.3454 32.3874 37.3123C32.3168 37.3219 32.0344 37.3603 31.978 37.4745C31.9851 37.5268 31.8581 37.6506 31.8652 37.7029C31.8865 37.8598 31.7524 37.9313 31.4771 38.022C31.0676 38.1843 30.6653 38.3988 30.3265 38.5514C30.1852 38.5706 30.0582 38.6944 30.136 38.7371C30.3199 39.0317 30.4331 39.3359 30.8289 39.6017C30.9914 39.7394 30.9985 39.7917 30.8715 39.9155C30.3493 40.3061 30.6181 40.6957 30.5266 41.081C30.5266 41.081 30.5337 41.1333 30.5408 41.1856C30.8731 41.5133 31.1276 41.7983 31.7986 41.9734C32.0247 42.0492 32.0318 42.1015 31.8342 42.2349C31.7001 42.3064 31.6366 42.3683 31.8555 42.3918C31.8555 42.3918 31.9262 42.3822 32.0039 42.4249C32.0887 42.5199 32.0323 42.6341 31.8134 42.6106C31.5309 42.649 31.3191 42.6778 31.1073 42.7066C30.7542 42.7546 30.4154 42.9072 30.0694 43.0075C29.2363 43.2274 28.3325 43.4568 27.4994 43.6766C27.217 43.715 26.9559 43.9103 26.6028 43.9583C26.1085 44.0256 25.6991 44.1878 25.3744 44.445C25.2403 44.5165 24.965 44.6072 24.7674 44.7406C24.5627 44.8217 24.4357 44.9455 24.584 44.9786C24.7323 45.0117 24.8736 44.9925 25.0077 44.921C25.0783 44.9114 25.1489 44.9018 25.2901 44.8826L25.5726 44.8442C25.5868 44.9488 25.6081 45.1057 25.6224 45.2103C25.6224 45.2103 25.4176 45.2914 25.3541 45.3533C25.2342 45.5294 25.0437 45.7151 24.5495 45.7823C24.1964 45.8303 23.8647 46.0352 23.5258 46.1879C23.4552 46.1975 23.314 46.2167 23.4059 46.364C24.1685 46.1537 24.931 45.9435 25.6935 45.7333C26.1735 45.5615 26.4702 45.6277 26.774 45.7462C26.5764 45.8796 26.2939 45.918 26.0892 45.9991C25.7361 46.0471 25.4679 46.1901 25.2068 46.3854C25.5883 46.5466 25.92 46.3417 26.266 46.2414C26.4778 46.2126 26.7532 46.1219 27.1133 46.1262C26.5627 46.3076 26.1532 46.4698 25.7438 46.632C25.7438 46.632 25.6025 46.6512 25.6097 46.7035L25.6168 46.7558C25.758 46.7366 25.8992 46.7174 26.0404 46.6982C26.7323 46.4976 27.4242 46.297 28.0455 46.1059C28.2574 46.0771 28.4692 46.0483 28.681 46.0195C28.7516 46.0099 28.9071 46.0953 28.8436 46.1572C28.8436 46.1572 28.7095 46.2287 28.6389 46.2383C28.427 46.2671 28.3706 46.3813 28.4555 46.4763C28.4697 46.5809 28.6887 46.6044 28.8934 46.5233C29.2464 46.4753 29.5995 46.4273 29.9526 46.3793C29.9668 46.4839 29.9739 46.5362 29.9881 46.6408C30.2 46.612 30.4331 46.7401 30.6236 46.5544C30.6942 46.5448 30.8355 46.5256 30.8355 46.5256C30.8497 46.6302 30.9274 46.6729 31.1464 46.6963C31.217 46.6867 31.2876 46.6771 31.3018 46.7817C31.3018 46.7817 31.1677 46.8533 31.1042 46.9152C30.963 46.9344 30.8924 46.944 30.7511 46.9632C30.6099 46.9824 30.4687 47.0016 30.49 47.1585C31.1042 46.9152 31.8317 46.976 32.4458 46.7327C32.5871 46.7135 32.7283 46.6943 32.7425 46.7989C32.771 47.0081 33.0956 46.7509 33.251 46.8363C33.4629 46.8075 33.3145 46.7744 33.3074 46.7221C33.3003 46.6698 33.2932 46.6175 33.4273 46.546C33.7097 46.5076 33.9074 46.3742 34.1969 46.3881C34.4088 46.3593 34.55 46.3401 34.6419 46.4873C34.6633 46.6442 34.8751 46.6154 35.0869 46.5866C35.2988 46.5578 35.5812 46.5194 35.7931 46.4906C35.7931 46.4906 35.9414 46.5237 35.9485 46.576C35.9485 46.576 35.9556 46.6283 35.9627 46.6806C35.8215 46.6998 35.6945 46.8236 35.4898 46.9047C35.4192 46.9143 35.3557 46.9762 35.4334 47.0189C35.4334 47.0189 35.5817 47.052 35.6524 47.0424C35.8642 47.0136 36.076 46.9848 36.2879 46.956C36.994 46.86 37.7001 46.764 38.4768 46.6583C39.183 46.5623 39.8891 46.4663 40.6658 46.3607C41.0189 46.3127 41.3013 46.2743 41.6544 46.2262C42.1487 46.159 42.643 46.0918 43.0666 46.0342C43.4903 45.9766 43.7306 46.157 43.4766 46.4046C43.4837 46.4569 43.2084 46.5476 43.3638 46.633C43.6463 46.5946 43.943 46.6608 44.2254 46.6224C44.4372 46.5936 44.6562 46.6171 44.7126 46.5029L44.8538 46.4837C45.1505 46.5499 45.4258 46.4591 45.7012 46.3684C46.04 46.2158 46.393 46.1678 46.7532 46.1721L46.8944 46.1529C46.8944 46.1529 46.8944 46.1529 46.8309 46.2148L46.6897 46.234C46.6897 46.234 46.6191 46.2436 46.6262 46.2959C46.6262 46.2959 46.6968 46.2863 46.7674 46.2767C46.9793 46.2479 47.1911 46.2191 47.3887 46.0857C47.7347 45.9854 48.0949 45.9897 48.4479 45.9417C48.5185 45.932 48.5963 45.9747 48.4621 46.0463C48.4621 46.0463 48.328 46.1178 48.2645 46.1797C48.1233 46.1989 48.1375 46.3035 48.2859 46.3366C48.4271 46.3174 48.5683 46.2982 48.6603 46.4455C48.6603 46.4455 48.8157 46.5308 48.8721 46.4166C49.0626 46.2309 49.3593 46.2971 49.5782 46.3206C49.7195 46.3014 49.8043 46.3964 49.9455 46.3772C50.4962 46.1958 51.0047 46.2332 51.5061 46.2183C51.6473 46.1991 51.7322 46.2941 51.8734 46.2749C52.0852 46.2461 52.071 46.1415 52.2051 46.0699C52.3463 46.0507 52.5582 46.0219 52.6994 46.0027C53.4761 45.8971 54.3235 45.7819 55.0931 45.624C55.4462 45.576 55.7144 45.4329 56.0888 45.5418C56.3148 45.6176 56.7314 45.5077 57.0774 45.4074C57.2892 45.3786 57.5574 45.2356 57.7129 45.321C58.1294 45.2111 58.5602 45.2058 58.9133 45.1577C59.0545 45.1385 59.1957 45.1193 59.3227 44.9955C59.5838 44.8002 59.8592 44.7095 60.29 44.7042C60.5724 44.6658 60.643 44.6562 60.6146 44.447C60.6146 44.447 60.6075 44.3947 60.6004 44.3424C60.5648 44.0809 60.833 43.9379 61.3202 43.8184C61.6733 43.7704 62.0827 43.6081 62.45 43.6647C62.6618 43.6359 62.8031 43.6167 62.9372 43.5452C63.4807 43.3115 64.1091 43.1728 64.7025 43.3052C64.8437 43.286 64.9849 43.2668 65.1262 43.2475C65.2674 43.2283 65.4086 43.2091 65.4792 43.1995C65.5498 43.1899 65.7053 43.2753 65.7053 43.2753C65.7124 43.3276 65.6489 43.3895 65.5148 43.461C65.0276 43.5806 64.6253 43.7951 64.0604 43.8719C63.7779 43.9103 63.4955 43.9487 63.2272 44.0917C63.2272 44.0917 63.0931 44.1632 63.1002 44.2155C63.1073 44.2678 63.2557 44.3009 63.3263 44.2913C63.8135 44.1718 64.3149 44.1569 64.8092 44.0897C65.2186 43.9275 65.6565 43.9744 66.0096 43.9264C66.0802 43.9168 66.2214 43.8976 66.2285 43.9499C66.2285 43.9499 66.2356 44.0022 66.0944 44.0214C65.8191 44.1121 65.5366 44.1505 65.2613 44.2413C64.4845 44.3469 63.7926 44.5475 63.0159 44.6531C62.8747 44.6723 62.7335 44.6915 62.8183 44.7865C62.8254 44.8388 63.0372 44.81 63.1714 44.7385C63.5244 44.6905 63.8633 44.5379 64.2163 44.4899C64.7106 44.4227 65.2049 44.3555 65.6286 44.2978C66.1229 44.2306 66.5394 44.1207 67.0337 44.0535C67.4574 43.9959 67.528 43.9863 67.8526 43.7291C67.7114 43.7483 67.5702 43.7675 67.4995 43.7771C67.2877 43.8059 67.0759 43.8347 66.864 43.8635C66.7934 43.8731 66.6522 43.8923 66.7086 43.7781C66.7086 43.7781 66.765 43.6639 66.8356 43.6543C67.0474 43.6255 67.1744 43.5017 67.464 43.5156C67.817 43.4676 68.2407 43.41 68.5938 43.362C68.8056 43.3331 69.0175 43.3043 69.1445 43.1805C69.2151 43.1709 69.2786 43.109 69.2008 43.0663C69.2008 43.0663 69.0454 42.9809 69.1866 42.9617C69.6103 42.9041 69.9491 42.7515 70.4434 42.6843C70.9377 42.6171 71.432 42.5499 71.8557 42.4922C72.6888 42.2724 73.5925 42.043 74.4399 41.9278C74.6517 41.899 74.9342 41.8606 75.146 41.8317C75.4284 41.7933 75.2517 41.551 75.6118 41.5553C75.6047 41.503 75.5905 41.3984 75.5834 41.3461C75.5763 41.2938 75.4208 41.2084 75.4137 41.1561C75.4066 41.1038 75.463 40.9896 75.6113 41.0227C75.9715 41.027 76.3103 40.8744 76.6634 40.8264C76.7482 40.9214 76.5364 40.9502 76.5435 41.0025C76.5649 41.1594 76.4379 41.2832 76.0848 41.3312C76.0142 41.3408 75.9507 41.4027 76.0284 41.4454C76.1767 41.4785 76.1275 41.645 76.4099 41.6066C76.4805 41.597 76.5369 41.4828 76.6004 41.4209C76.671 41.4113 76.8686 41.2779 76.8829 41.3825C76.8971 41.4871 77.0383 41.4679 77.1866 41.501C77.5046 41.7241 77.3848 41.9002 76.8976 42.0197C76.2621 42.1061 75.5631 42.2544 74.9347 42.3932C74.6522 42.4316 74.5674 42.3366 74.4825 42.2416C74.0446 42.1946 73.6281 42.3045 73.1409 42.424C73.0703 42.4336 72.9997 42.4432 72.9433 42.5574C72.9433 42.5574 72.9575 42.662 73.0987 42.6428C73.1694 42.6332 73.24 42.6236 73.3177 42.6663C73.3177 42.6663 73.3954 42.709 73.3248 42.7186C72.9931 42.9235 73.2755 42.8851 73.4874 42.8563C73.9817 42.7891 74.4759 42.7219 74.8996 42.6643C75.2527 42.6163 75.5351 42.5778 75.8033 42.4348C76.0716 42.2918 76.4246 42.2438 76.7071 42.2054C77.1308 42.1478 77.4838 42.0998 77.8298 41.9995C78.1757 41.8992 78.5217 41.7989 78.8255 41.9173C78.8961 41.9077 79.0373 41.8885 79.1785 41.8693C79.5031 41.6121 79.8633 41.6164 80.2941 41.6111C80.5552 41.4158 80.9083 41.3678 81.2542 41.2675C81.4661 41.2387 81.6073 41.2195 81.7698 41.3572C81.7698 41.3572 82.1016 41.1522 82.4054 41.2707C82.6314 41.3465 82.7655 41.275 82.9703 41.1939C83.0973 41.0701 83.2171 40.894 83.3939 41.1363L83.6058 41.1075C83.5844 40.9506 83.9304 40.8503 84.2128 40.8119C85.1308 40.6871 86.0345 40.4576 86.9809 40.542C86.9738 40.4897 87.1079 40.4182 87.1714 40.3563C87.2349 40.2944 87.3619 40.1706 87.5103 40.2037C87.9339 40.1461 88.3505 40.0362 88.7813 40.0308C89.2898 40.0682 89.6286 39.9156 89.9604 39.7107C90.0945 39.6392 90.2992 39.5581 90.3627 39.4962C90.5319 39.1536 91.0333 39.1387 91.4641 39.1334C91.6053 39.1142 91.6759 39.1046 91.8171 39.0853C92.5375 39.0939 93.3142 38.9883 94.0417 39.0492C94.1829 39.03 94.3947 39.0012 94.4653 38.9916C94.7971 38.7867 95.1008 38.9052 95.3833 38.8667C95.7364 38.8187 96.0188 38.7803 96.3719 38.7323C96.5131 38.7131 96.7249 38.6843 96.8169 38.8316C96.605 38.8604 96.3932 38.8892 96.1814 38.918C95.7577 38.9756 95.4752 39.014 95.2919 39.2521C95.172 39.4282 95.0379 39.4997 94.8402 39.6331C94.7061 39.7046 94.7204 39.8092 94.8758 39.8946C94.9535 39.9373 95.0313 39.98 95.1161 40.075C95.1938 40.1177 95.3985 40.0366 95.3985 40.0366C95.3843 39.932 95.363 39.7751 95.7374 39.8839C95.808 39.8743 95.9492 39.8551 96.0904 39.8359C96.288 39.7025 96.507 39.726 96.7259 39.7495C96.9449 39.773 97.1496 39.6919 97.1989 39.5254C97.1989 39.5254 97.1847 39.4208 97.1776 39.3685C97.1776 39.3685 97.1705 39.3162 97.3117 39.297C97.5235 39.2682 97.8979 39.3771 97.7709 39.5009C97.5804 39.6866 97.7922 39.6578 97.9335 39.6386C98.3571 39.581 98.4278 39.5714 98.5476 39.3953C98.5476 39.3953 98.5334 39.2907 98.5263 39.2384C98.5121 39.1338 98.6533 39.1146 98.8652 39.0857C99.5713 38.9897 100.348 38.8841 101.075 38.945C101.365 38.9589 101.647 38.9205 101.852 38.8394C102.12 38.6963 102.431 38.8671 102.692 38.6718L102.834 38.6526C103.342 38.69 103.836 38.6228 104.338 38.6079C104.408 38.5983 104.55 38.5791 104.564 38.6837C104.211 38.7317 103.872 38.8843 103.441 38.8896C103.088 38.9376 102.664 38.9952 102.311 39.0433C101.888 39.1009 101.464 39.1585 101.04 39.2161C100.687 39.2641 100.32 39.2075 99.9106 39.3697C100.214 39.4882 100.56 39.3879 100.921 39.3922C100.991 39.3826 101.132 39.3634 101.139 39.4157C101.154 39.5203 101.012 39.5395 100.942 39.5491C100.589 39.5971 100.306 39.6355 100.116 39.8212C99.9253 40.0069 99.5723 40.0549 99.297 40.1456C99.1557 40.1649 99.0851 40.1745 99.0709 40.0699C99.0638 40.0176 99.1979 39.946 99.0496 39.913C99.0496 39.913 98.9083 39.9322 98.8448 39.9941C98.7249 40.1702 98.5202 40.2513 98.1743 40.3516C97.5459 40.4903 97.08 40.7667 96.3668 40.8104C96.2256 40.8296 96.0843 40.8488 95.9431 40.8681C95.8019 40.8873 95.6607 40.9065 95.5194 40.9257C94.8768 40.9598 94.1778 41.1081 93.5494 41.2468C92.921 41.3855 92.2784 41.4197 91.7277 41.6011L91.5865 41.6203C91.304 41.6587 91.0851 41.6352 90.8097 41.7259C90.4709 41.8785 90.2377 41.7504 89.9482 41.7365C89.9482 41.7365 89.9482 41.7365 89.8776 41.7461C89.1786 41.8945 88.4089 42.0524 87.7948 42.2957C87.6535 42.3149 87.5123 42.3341 87.3711 42.3533C86.8062 42.4301 86.2413 42.5069 85.6764 42.5838C84.9703 42.6798 84.2641 42.7758 83.558 42.8718C83.3462 42.9006 83.1272 42.8771 82.8519 42.9678C82.6543 43.1013 82.4353 43.0778 82.2164 43.0543C81.7785 43.0073 81.3477 43.0126 80.9311 43.1225C80.5852 43.2228 80.3662 43.1993 80.1473 43.1758C79.9989 43.1427 79.7871 43.1715 79.6459 43.1907C79.0175 43.3295 78.3114 43.4255 77.6901 43.6165C77.4076 43.6549 77.1252 43.6933 76.9205 43.7744C76.7792 43.7936 76.638 43.8128 76.5039 43.8843C76.5039 43.8843 76.7299 43.9601 76.9418 43.9313C77.083 43.9121 77.2242 43.8929 77.3655 43.8737C78.354 43.7393 79.3426 43.6049 80.289 43.6892C80.6563 43.7458 81.0942 43.7928 81.4473 43.7448C82.2946 43.6296 83.142 43.5143 83.9893 43.3991C84.9779 43.2647 85.8816 43.0353 86.8138 43.015C87.0256 42.9862 87.2375 42.9574 87.4493 42.9286C88.3673 42.8038 89.2146 42.6886 90.1326 42.5637C90.5562 42.5061 90.9093 42.4581 91.2624 42.4101C91.7567 42.3429 92.2509 42.2757 92.8158 42.1989C94.1575 42.0164 95.4849 41.7294 96.8194 41.4946C97.2431 41.437 97.6668 41.3794 98.0904 41.3218C98.8743 41.2685 99.5733 41.1202 100.343 40.9622C101.176 40.7424 101.946 40.5845 102.779 40.3647C103.683 40.1352 104.593 39.9581 105.504 39.781C106.415 39.6038 107.382 39.3125 108.293 39.1354C110.383 38.6381 112.402 38.1505 114.407 37.5582C114.619 37.5294 114.817 37.396 115.029 37.3672C116.151 37.1612 117.112 36.8176 118.234 36.6117C118.375 36.5925 118.517 36.5733 118.658 36.5541C119.286 36.4153 119.837 36.2339 120.473 36.1475C120.614 36.1283 120.826 36.0995 120.967 36.0803C121.313 35.98 121.659 35.8797 121.998 35.7271C122.343 35.6267 122.845 35.6118 123.269 35.5542C123.48 35.5254 123.622 35.5062 123.678 35.392C123.861 35.154 124.13 35.011 124.709 35.0388C124.998 35.0527 125.274 34.962 125.549 34.8712C125.831 34.8328 126.029 34.6994 126.326 34.7656C126.615 34.7795 126.891 34.6888 127.166 34.5981C127.434 34.4551 127.851 34.3452 128.274 34.2876C128.839 34.2107 129.404 34.1339 129.962 34.0048C130.174 33.976 130.456 33.9376 130.668 33.9088C131.233 33.832 131.897 33.9548 132.433 33.6687C132.433 33.6687 132.575 33.6495 132.716 33.6303C133.916 33.4671 135.095 33.147 136.352 32.8695C136.755 32.655 137.319 32.5782 137.807 32.4587C138.781 32.2196 139.748 31.9283 140.482 31.5089C140.885 31.2944 141.287 31.0799 141.689 30.8653C142.36 30.5078 143.03 30.1503 143.249 29.6412C143.249 29.6412 143.312 29.5793 143.376 29.5174C143.813 29.0318 143.968 28.5846 143.841 28.1758C143.819 28.0189 143.798 27.862 143.777 27.7051C143.748 27.4958 143.586 27.3582 143.282 27.2397C143.133 27.2066 142.985 27.1735 142.9 27.0785C142.575 26.8031 142.045 26.6088 141.586 26.4049C141.516 26.4145 141.36 26.3291 141.353 26.2768C141.332 26.1199 141.106 26.0441 140.95 25.9587C140.547 25.6406 140.039 25.6032 139.34 25.7516C139.128 25.7804 139.057 25.79 139.107 25.6235C139.092 25.5189 139.29 25.3854 139.071 25.362C138.845 25.2862 138.555 25.2723 138.287 25.4153C138.146 25.4345 138.09 25.5487 137.948 25.5679L137.736 25.5967C137.595 25.6159 137.652 25.5017 137.715 25.4398C137.772 25.3256 138.054 25.2872 138.181 25.1634C138.026 25.078 137.828 25.2114 137.672 25.126C137.531 25.1452 137.517 25.0406 137.651 24.9691C137.99 24.8165 138.173 24.5785 138.675 24.5636C138.957 24.5252 139.077 24.349 139.204 24.2252C139.268 24.1633 139.183 24.0683 139.105 24.0256C138.879 23.9498 139.006 23.826 139.133 23.7022C139.394 23.5069 139.733 23.3543 140.15 23.2444C140.432 23.206 140.637 23.1249 140.912 23.0342C141.124 23.0054 141.258 22.9339 141.166 22.7866C141.081 22.6916 141.138 22.5774 141.342 22.4963C141.752 22.334 142.175 22.2764 142.677 22.2615C142.889 22.2327 143.115 22.3085 143.383 22.1655C143.524 22.1463 143.588 22.0844 143.651 22.0225C143.644 21.9702 143.566 21.9275 143.425 21.9467C143.072 21.9947 142.79 22.0331 142.422 21.9765C142.352 21.9861 142.21 22.0053 142.196 21.9007C142.182 21.7961 142.161 21.6392 142.146 21.5346C142.139 21.4823 142.203 21.4204 142.337 21.3489C142.958 21.1579 143.516 21.0288 144.152 20.9424C144.222 20.9328 144.448 21.0086 144.448 21.0086C144.709 20.8132 145.14 20.8079 145.415 20.7172C145.557 20.698 145.542 20.5934 145.387 20.508C145.387 20.508 145.246 20.5272 145.168 20.4845C145.027 20.5037 145.083 20.3895 145.147 20.3276C145.422 20.2369 145.712 20.2508 145.923 20.222C146.206 20.1836 146.411 20.1025 146.389 19.9456C146.375 19.841 146.509 19.7695 146.792 19.7311C147.145 19.6831 147.42 19.5924 147.695 19.5016C148.041 19.4013 148.31 19.2583 148.684 19.3672C148.903 19.3907 149.178 19.3 149.39 19.2712C149.665 19.1805 149.948 19.1421 150.237 19.156C150.379 19.1368 150.52 19.1176 150.513 19.0653C150.513 19.0653 150.499 18.9607 150.428 18.9703C150.145 19.0087 150.061 18.9137 149.969 18.7664C149.954 18.6618 149.827 18.7856 149.686 18.8048C149.355 19.0097 149.355 19.0097 149.192 18.872C149.107 18.777 148.818 18.7631 148.796 18.6062C148.987 18.4205 149.326 18.2679 149.671 18.1676C150.222 17.9862 150.632 17.8239 151.197 17.7471C151.338 17.7279 151.479 17.7087 151.613 17.6372C151.874 17.4419 152.206 17.237 152.17 16.9755C152.135 16.714 152.34 16.6329 152.834 16.5657C152.975 16.5465 153.046 16.5369 153.187 16.5177C153.321 16.4462 153.166 16.3608 153.158 16.3085L153.201 16.0896ZM140.744 9.63363C140.744 9.63363 140.885 9.61442 140.956 9.60482L140.963 9.65712C140.892 9.66672 140.822 9.67633 140.751 9.68593C140.751 9.68593 140.737 9.58133 140.807 9.57173L140.744 9.63363ZM139.516 10.1203C139.516 10.1203 139.516 10.1203 139.523 10.1726C139.53 10.2249 139.537 10.2772 139.396 10.2964C139.325 10.306 139.254 10.3156 139.24 10.211C139.233 10.1587 139.297 10.0968 139.438 10.0776L139.516 10.1203ZM138.968 14.0299C138.968 14.0299 139.166 13.8965 139.314 13.9296C139.456 13.9104 139.54 14.0054 139.477 14.0673C139.484 14.1196 139.35 14.1911 139.286 14.253C139.286 14.253 139.152 14.3245 139.075 14.2818C139.075 14.2818 138.997 14.2391 138.919 14.1964C138.919 14.1964 138.919 14.1964 138.912 14.1441C138.912 14.1441 138.898 14.0395 138.961 13.9776L138.968 14.0299ZM135.97 9.96317C135.97 9.96317 136.041 9.95356 136.111 9.94396C136.111 9.94396 136.126 10.0486 135.984 10.0678C135.984 10.0678 135.914 10.0774 135.843 10.087C135.843 10.087 135.829 9.98237 135.97 9.96317ZM134.982 10.0976C134.982 10.0976 135.123 10.0784 135.193 10.0688L135.335 10.0496C135.342 10.1019 135.342 10.1019 135.208 10.1734C135.208 10.1734 135.208 10.1734 135.137 10.183C135.066 10.1926 135.003 10.2545 134.925 10.2118C134.925 10.2118 134.855 10.2214 134.847 10.1691C134.84 10.1168 134.911 10.1072 135.052 10.088L134.982 10.0976ZM134.824 15.286C134.824 15.286 134.965 15.2668 135.036 15.2572L135.043 15.3095C134.972 15.3191 134.831 15.3383 134.831 15.3383C134.761 15.3479 134.817 15.2337 134.817 15.2337L134.824 15.286ZM133.667 8.89142C133.667 8.89142 133.667 8.89142 133.738 8.88182C133.886 8.91491 133.822 8.97681 133.766 9.09102C133.766 9.09102 133.766 9.09102 133.773 9.14332C133.773 9.14332 133.773 9.14332 133.695 9.10062C133.688 9.04832 133.533 8.96292 133.667 8.89142ZM132.925 8.72594C132.925 8.72594 133.137 8.69713 133.278 8.67793C133.349 8.66832 133.3 8.83483 133.088 8.86363C132.947 8.88284 132.735 8.91164 132.452 8.95005C132.452 8.95005 132.382 8.95966 132.311 8.96926L132.304 8.91696C132.431 8.79315 132.713 8.75474 132.925 8.72594ZM132.948 9.94805C132.948 9.94805 132.948 9.94805 132.955 10.0004C132.955 10.0004 132.962 10.0526 132.891 10.0623C132.679 10.0911 132.397 10.1295 132.185 10.1583C131.754 10.1636 131.323 10.1689 130.907 10.2788C130.766 10.298 130.695 10.3076 130.681 10.203C130.681 10.203 130.744 10.1411 130.878 10.0696C130.949 10.06 131.02 10.0504 131.302 10.012C131.726 9.95439 132.376 9.97257 132.948 9.94805ZM131.308 8.99909C131.308 8.99909 131.753 9.09837 131.902 9.13147C131.902 9.13147 132.057 9.21687 131.986 9.22647C131.994 9.27877 131.775 9.25528 131.704 9.26488C131.344 9.26059 131.047 9.1944 130.694 9.24241C130.553 9.26161 130.546 9.20931 130.468 9.16661C130.659 8.9809 131.012 8.93289 131.301 8.94679L131.308 8.99909ZM130.475 9.21891C130.475 9.21891 130.355 9.39502 130.221 9.46652C130.158 9.52842 130.009 9.49533 129.939 9.50493C129.868 9.51453 129.783 9.41953 129.917 9.34803C130.115 9.21462 130.256 9.19542 130.482 9.27121L130.475 9.21891ZM129.344 7.77473C129.344 7.77473 129.563 7.79822 129.64 7.84092C129.711 7.83132 129.789 7.87402 129.655 7.94552C129.584 7.95512 129.443 7.97433 129.372 7.98393C129.224 7.95083 129.351 7.82703 129.344 7.77473ZM127.834 9.36499C128.258 9.30738 128.681 9.24976 129.183 9.23485C129.056 9.35865 128.992 9.42056 128.929 9.48246C128.795 9.55396 128.661 9.62547 128.505 9.54007C128.35 9.45467 128.208 9.47388 128.081 9.59768C127.94 9.61689 127.87 9.62649 127.792 9.58379C127.792 9.58379 127.785 9.53149 127.778 9.47919C127.778 9.47919 127.848 9.46959 127.919 9.45999L127.834 9.36499ZM126.464 1.93404C126.888 1.87643 127.318 1.87112 127.679 1.87541C127.749 1.86581 127.827 1.9085 127.975 1.9416C127.763 1.97041 127.559 2.05151 127.34 2.02802C126.916 2.08563 126.485 2.09094 126.125 2.08665C126.323 1.95325 126.386 1.89135 126.527 1.87214L126.464 1.93404ZM123.822 1.54751C123.822 1.54751 123.822 1.54751 123.829 1.59981C123.829 1.59981 123.829 1.59981 123.759 1.60941C123.759 1.60941 123.745 1.50481 123.667 1.46212C123.737 1.45251 123.879 1.43331 123.893 1.53791L123.822 1.54751ZM122.533 4.75908C122.533 4.75908 122.815 4.72068 122.9 4.81568C122.915 4.92028 123.204 4.93417 123.148 5.04837C122.802 5.14868 122.71 5.00138 122.42 4.98749C122.208 5.0163 121.982 4.9405 121.855 5.06431C121.728 5.18811 121.658 5.19771 121.432 5.12192C121.276 5.03652 121.142 5.10803 120.923 5.08454C120.782 5.10374 120.57 5.13255 120.344 5.05675C121.114 4.89883 121.749 4.81241 122.462 4.76869L122.533 4.75908ZM116.631 6.84008C116.631 6.84008 116.504 6.96388 116.433 6.97348C116.363 6.98309 116.222 7.00229 116.285 6.94039C116.285 6.94039 116.419 6.86888 116.49 6.85928C116.56 6.84968 116.702 6.83047 116.702 6.83047L116.631 6.84008ZM116.031 6.65539C116.031 6.65539 116.172 6.63619 116.242 6.62658C116.313 6.61698 116.384 6.60738 116.454 6.59778L116.461 6.65008C116.327 6.72158 116.115 6.75039 115.967 6.71729L115.96 6.66499L116.031 6.65539ZM114.88 7.18473C114.88 7.18473 115.162 7.14632 115.233 7.13672C115.304 7.12712 115.374 7.11751 115.374 7.11751C115.374 7.11751 115.445 7.10791 115.515 7.09831C115.381 7.16981 115.177 7.25092 114.965 7.27973C114.965 7.27973 114.824 7.29893 114.816 7.24663C114.816 7.24663 114.809 7.19433 114.88 7.18473ZM29.5492 15.9118C29.5492 15.9118 29.3374 15.9406 29.3232 15.836C29.3232 15.836 29.3232 15.836 29.3161 15.7837C29.3867 15.7741 29.4644 15.8168 29.5421 15.8595C29.5421 15.8595 29.5421 15.8595 29.4786 15.9214L29.5492 15.9118ZM18.4387 28.8752C18.4387 28.8752 18.3681 28.8848 18.4316 28.8229C18.4245 28.7706 18.5586 28.6991 18.6998 28.6799C18.7704 28.6703 18.841 28.6607 18.8553 28.7653C18.8553 28.7653 18.6505 28.8464 18.5022 28.8133L18.4387 28.8752ZM19.7585 28.0033L19.6879 28.0129C19.6173 28.0225 19.6737 27.9083 19.6737 27.9083C19.7443 27.8987 19.8007 27.7845 19.9561 27.8698C19.9561 27.8698 20.0409 27.9648 19.9703 27.9744C19.9703 27.9744 19.8291 27.9937 19.7585 28.0033ZM23.0646 29.0452C23.0646 29.0452 22.9234 29.0644 22.7821 29.0836C22.7821 29.0836 22.6409 29.1028 22.6338 29.0505C22.6267 28.9982 22.6973 28.9886 22.7608 28.9267C22.902 28.9075 22.9726 28.8979 23.0504 28.9406C23.0504 28.9406 23.0575 28.9929 22.9869 29.0025L23.0646 29.0452ZM22.3264 32.6079C22.3264 32.6079 22.171 32.5225 22.1639 32.4702C22.1639 32.4702 22.1497 32.3656 22.2203 32.356L22.3615 32.3368C22.4321 32.3272 22.4392 32.3795 22.3757 32.4414C22.3757 32.4414 22.2487 32.5652 22.2558 32.6175L22.3264 32.6079ZM24.6211 32.0296C24.6211 32.0296 24.0562 32.1064 23.7737 32.1448C23.7737 32.1448 23.7737 32.1448 23.7666 32.0925C24.0491 32.0541 24.395 31.9538 24.6775 31.9154L24.8187 31.8962C24.8258 31.9485 24.7552 31.9581 24.6846 31.9677L24.6211 32.0296ZM25.8708 24.2956C25.8708 24.2956 26.3366 24.0192 26.7039 24.0758C26.7181 24.1804 26.2452 24.4045 25.8921 24.4525C25.8921 24.4525 25.8921 24.4525 25.7509 24.4717C25.7509 24.4717 25.6097 24.4909 25.4613 24.4579L25.4542 24.4056C25.5954 24.3863 25.7296 24.3148 25.8708 24.2956ZM23.3496 24.2656C23.3496 24.2656 23.4908 24.2464 23.5685 24.2891C23.5685 24.2891 23.5121 24.4033 23.4415 24.4129C23.3709 24.4225 23.2297 24.4417 23.2226 24.3894C23.2226 24.3894 23.279 24.2752 23.4202 24.256L23.3496 24.2656ZM16.3595 25.7488C16.3595 25.7488 16.3595 25.7488 16.2888 25.7584C16.2888 25.7584 16.2111 25.7157 16.1334 25.673C16.1334 25.673 16.1263 25.6207 16.1192 25.5684C16.2604 25.5492 16.2604 25.5492 16.2675 25.6015C16.2675 25.6015 16.2746 25.6538 16.2817 25.7061L16.3595 25.7488ZM18.965 25.3412C18.4001 25.4181 17.7788 25.6091 17.2139 25.6859C16.9315 25.7243 16.776 25.6389 16.8959 25.4628C16.8888 25.4105 17.0229 25.339 17.0158 25.2867C17.0087 25.2344 16.9238 25.1394 16.7826 25.1586C16.6414 25.1778 16.5002 25.197 16.3589 25.2162C15.9353 25.2738 15.5822 25.3218 15.0666 25.2322C15.695 25.0934 16.1044 24.9312 16.6129 24.9686C16.8248 24.9398 17.0366 24.911 17.2485 24.8822C17.5309 24.8438 17.6721 24.8246 17.792 24.6485C17.8555 24.5866 18.0674 24.5578 18.2157 24.5909C18.364 24.624 18.3711 24.6763 18.2441 24.8001C18.2441 24.8001 18.0394 24.8812 18.0465 24.9335C18.0608 25.0381 18.075 25.1427 18.1598 25.2377C18.3082 25.2708 18.5271 25.2943 18.7247 25.1609C18.8659 25.1416 18.9223 25.0274 19.0636 25.0082L19.1342 24.9986C19.1342 24.9986 19.2119 25.0413 19.1413 25.0509C19.0849 25.1651 19.0285 25.2793 18.8238 25.3605L18.965 25.3412ZM19.0006 25.6027C19.0006 25.6027 18.9863 25.4981 19.1276 25.4789C19.1982 25.4693 19.3394 25.4501 19.41 25.4405C19.3394 25.4501 19.2053 25.5216 19.1347 25.5312L18.9934 25.5504L19.0006 25.6027ZM21.8469 25.9082C21.8469 25.9082 21.7763 25.9178 21.7057 25.9274C21.6351 25.937 21.5644 25.9466 21.4232 25.9658L21.282 25.985L21.2749 25.9327C21.4161 25.9135 21.5573 25.8943 21.6986 25.8751C21.6986 25.8751 21.7692 25.8655 21.8398 25.8559C21.8398 25.8559 21.8398 25.8559 21.7763 25.9178L21.8469 25.9082ZM22.1502 25.4941C22.1502 25.4941 22.0089 25.5133 21.8677 25.5325L21.7265 25.5517C21.7194 25.4994 21.7194 25.4994 21.8606 25.4802C21.9312 25.4706 22.0724 25.4514 22.1431 25.4418C22.1431 25.4418 22.1431 25.4418 22.2137 25.4322C22.2137 25.4322 22.2137 25.4322 22.2208 25.4845L22.1502 25.4941ZM23.5137 26.0011C23.5137 26.0011 23.5137 26.0011 23.4359 25.9584C23.5065 25.9488 23.5772 25.9392 23.6478 25.9296L23.789 25.9104C23.7961 25.9627 23.6549 25.9819 23.5137 26.0011ZM23.8098 25.5347C23.8098 25.5347 23.598 25.5635 23.5203 25.5208C23.5203 25.5208 23.5131 25.4685 23.5838 25.4589C23.6544 25.4493 23.725 25.4397 23.7956 25.4301L23.8098 25.5347ZM21.472 25.2667C21.472 25.2667 20.8365 25.3531 20.6739 25.2154C20.5114 25.0777 20.3066 25.1588 20.0242 25.1972C20.0242 25.1972 19.883 25.2164 19.8901 25.2687C19.8901 25.2687 19.8972 25.321 19.9678 25.3114L20.109 25.2922C20.1796 25.2826 20.2574 25.3253 20.2645 25.3776C20.2645 25.3776 20.1304 25.4491 20.0669 25.511C19.9962 25.5206 19.855 25.5398 19.7844 25.5494C19.6432 25.5686 19.502 25.5878 19.3536 25.5547C19.3394 25.4501 19.3252 25.3455 19.4593 25.274C19.6569 25.1406 19.791 25.0691 20.0735 25.0307C20.709 24.9443 21.3374 24.8056 21.8952 24.6765C22.107 24.6477 22.107 24.6477 22.2061 24.8473C22.2767 24.8376 22.3473 24.828 22.4179 24.8184C22.9828 24.7416 23.5477 24.6648 24.0984 24.4834C24.2396 24.4642 24.3102 24.4546 24.3808 24.445C24.4585 24.4877 24.4093 24.6542 24.4164 24.7065C24.2188 24.8399 23.9927 24.7641 23.7951 24.8975C22.9477 25.0127 22.1004 25.128 21.3237 25.2336L21.472 25.2667ZM26.9305 24.6842C26.9305 24.6842 26.7186 24.713 26.5774 24.7322C26.3656 24.761 26.1537 24.7898 25.9419 24.8186C25.8007 24.8378 25.6595 24.8571 25.6737 24.9617C25.6879 25.0663 25.822 24.9947 25.9632 24.9755C26.2457 24.9371 26.5281 24.8987 26.74 24.8699C26.74 24.8699 26.8106 24.8603 26.8883 24.903C26.8883 24.903 26.8954 24.9553 26.8248 24.9649C26.4011 25.0225 25.9069 25.0897 25.4903 25.1997C25.3491 25.2189 25.1372 25.2477 25.123 25.1431C25.1017 24.9862 24.8827 24.9627 24.6074 25.0534C24.6074 25.0534 24.4662 25.0726 24.3955 25.0822C23.9719 25.1398 23.9719 25.1398 23.9363 24.8783C24.233 24.9445 24.5154 24.9061 24.8685 24.8581C25.504 24.7717 26.203 24.6233 26.8314 24.4846L26.9726 24.4654C26.9726 24.4654 26.9869 24.57 26.9163 24.5796L26.9305 24.6842ZM27.6513 25.2254C27.6513 25.2254 27.376 25.3161 27.157 25.2926C27.157 25.2926 27.0864 25.3022 27.0793 25.2499C27.0793 25.2499 27.0722 25.1976 27.1428 25.188C27.284 25.1688 27.4959 25.14 27.6371 25.1208L27.6513 25.2254ZM30.8147 24.6887C30.8147 24.6887 30.6171 24.8221 30.4829 24.8936L30.2711 24.9224C29.6849 24.8423 29.1342 25.0238 28.4987 25.1102C28.2868 25.139 28.1456 25.1582 28.1243 25.0013C28.1029 24.8444 27.9546 24.8113 27.6722 24.8497C27.6722 24.8497 27.6016 24.8593 27.5238 24.8166C27.5238 24.8166 27.5096 24.712 27.6508 24.6928C27.9262 24.6021 28.0745 24.6352 28.23 24.7206C28.3077 24.7633 28.3854 24.806 28.5266 24.7868C28.5124 24.6822 28.4982 24.5776 28.7735 24.4869C28.9853 24.4581 29.3313 24.3577 29.4796 24.3908C29.7905 24.5616 30.1436 24.5136 30.5673 24.456C30.6379 24.4464 30.7791 24.4272 30.7862 24.4795L30.8147 24.6887ZM30.5317 46.4071C30.5317 46.4071 30.2492 46.4455 30.0374 46.4743C30.1786 46.4551 30.3905 46.4263 30.5246 46.3548C30.5246 46.3548 30.5952 46.3452 30.6658 46.3356C30.6658 46.3356 30.5952 46.3452 30.5246 46.3548L30.5317 46.4071ZM40.5632 12.8161C40.5632 12.8161 40.5632 12.8161 40.641 12.8588C40.641 12.8588 40.5704 12.8684 40.4997 12.878L40.3585 12.8972C40.3514 12.8449 40.422 12.8353 40.4926 12.8257L40.5632 12.8161ZM39.2165 15.0767C39.2165 15.0767 38.9696 15.3766 38.4754 15.4438C38.4047 15.4534 38.2635 15.4726 38.1223 15.4918C37.6986 15.5494 37.2749 15.607 36.929 15.7073C36.5902 15.8599 36.23 15.8557 35.9968 15.7276C35.9191 15.6849 35.7707 15.6518 35.6224 15.6187C35.6224 15.6187 35.5376 15.5237 35.6082 15.5141C35.6082 15.5141 35.6788 15.5045 35.7494 15.4949C35.82 15.4853 35.9612 15.4661 36.0319 15.4565C36.1731 15.4372 36.265 15.5845 36.3991 15.513C36.5333 15.4415 36.6039 15.4319 36.7451 15.4127C36.8863 15.3935 37.0275 15.3743 37.1688 15.3551C37.6631 15.2879 38.0867 15.2303 38.5739 15.1108C38.7857 15.082 38.927 15.0628 39.1388 15.034C39.28 15.0148 39.3578 15.0575 39.2943 15.1194L39.2165 15.0767ZM38.6029 15.8526C38.391 15.8814 38.038 15.9294 37.8825 15.844C37.7271 15.7586 38.3626 15.6722 38.6592 15.7384L38.6029 15.8526ZM37.3318 16.0254C36.9788 16.0734 36.7669 16.1022 36.4916 16.1929C36.3504 16.2122 36.2798 16.2218 36.1949 16.1268C36.4703 16.036 36.8162 15.9357 37.2541 15.9827L37.3318 16.0254ZM37.2307 13.6954C37.2307 13.6954 37.5838 13.6474 37.6051 13.8043C37.6123 13.8566 37.6194 13.9089 37.4075 13.9377C37.2663 13.9569 36.9696 13.8907 36.9554 13.7861C36.9483 13.7338 37.0824 13.6623 37.153 13.6527L37.2307 13.6954ZM35.6778 14.4393C36.6664 14.3048 37.6549 14.1704 38.6506 14.0883C38.2412 14.2505 37.7469 14.3177 37.2526 14.3849C36.6877 14.4617 36.0522 14.5481 35.4873 14.625C35.2754 14.6538 34.993 14.6922 34.8304 14.5545C35.1129 14.5161 35.3882 14.4254 35.6707 14.3869L35.6778 14.4393ZM34.2666 15.6965C34.2666 15.6965 34.7608 15.6293 34.9092 15.6624C34.9092 15.6624 35.0575 15.6955 34.9234 15.767C34.9234 15.767 34.8528 15.7766 34.7822 15.7862C34.7822 15.7862 34.7822 15.7862 34.7116 15.7958C34.3585 15.8438 34.1395 15.8203 34.1253 15.7157C34.1253 15.7157 34.1182 15.6634 34.1888 15.6538L34.2666 15.6965ZM34.3448 16.2718C34.9803 16.1854 35.6158 16.099 36.1949 16.1268C35.9125 16.1652 35.5594 16.2132 35.2841 16.3039C34.931 16.3519 34.6486 16.3903 34.359 16.3764C34.359 16.3764 34.2884 16.386 34.2813 16.3337C34.2813 16.3337 34.2742 16.2814 34.3448 16.2718ZM33.213 14.295L33.4248 14.2662C33.4319 14.3185 33.3684 14.3804 33.2272 14.3996L33.086 14.4188C33.086 14.4188 33.0717 14.3142 33.213 14.295ZM32.705 14.7902C32.705 14.7902 32.9168 14.7614 32.9874 14.7518C33.3405 14.7038 33.6158 14.6131 33.9054 14.627C33.9054 14.627 33.976 14.6174 34.0537 14.6601L34.0608 14.7124C33.5807 14.8842 33.1428 14.8372 32.705 14.7902C32.705 14.7902 32.6978 14.7379 32.8462 14.771L32.705 14.7902ZM33.7794 15.816C33.7794 15.816 33.7865 15.8683 33.6524 15.9398C33.6524 15.9398 33.5112 15.959 33.504 15.9067C33.504 15.9067 33.4969 15.8544 33.631 15.7829C33.7017 15.7733 33.7723 15.7637 33.85 15.8064L33.7794 15.816ZM32.0771 15.4616C32.0771 15.4616 32.3595 15.4232 32.5007 15.404L32.642 15.3847C32.6491 15.437 32.5785 15.4466 32.5078 15.4563C32.3666 15.4755 32.2254 15.4947 32.0842 15.5139C32.0842 15.5139 32.0842 15.5139 32.0771 15.4616ZM32.9401 24.4529L32.7989 24.4721C32.7283 24.4817 32.5871 24.501 32.6506 24.4391C32.6506 24.4391 32.7141 24.3771 32.7776 24.3152C32.8482 24.3056 32.9894 24.2864 32.9894 24.2864L33.0036 24.391L32.9401 24.4529ZM33.8464 19.4824C33.8464 19.4824 33.917 19.4728 33.9242 19.5251C33.9242 19.5251 33.9242 19.5251 33.79 19.5966C33.3806 19.7588 33.0133 19.7022 32.4342 19.6744C33.0626 19.5357 33.4085 19.4354 33.8464 19.4824ZM36.1578 36.48C36.1578 36.48 36.1721 36.5846 36.0308 36.6038L35.8896 36.623C35.8896 36.623 35.8754 36.5184 36.0166 36.4992L36.1578 36.48ZM35.0991 37.1566C35.0991 37.1566 35.2896 36.9709 35.4238 36.8994C35.4238 36.8994 35.565 36.8802 35.6356 36.8706C35.6356 36.8706 35.7204 36.9656 35.6498 36.9752C35.6498 36.9752 35.5157 37.0467 35.4451 37.0563C35.3039 37.0755 35.1626 37.0947 35.0214 37.1139L35.0991 37.1566ZM36.8807 46.5558C36.8807 46.5558 36.8101 46.5654 36.7324 46.5227C36.7324 46.5227 36.7959 46.4608 36.8665 46.4512C37.1489 46.4128 37.4314 46.3744 37.7209 46.3883C37.4385 46.4267 37.156 46.4651 36.8736 46.5035L36.8807 46.5558ZM44.5571 46.4175C44.7619 46.3364 45.0443 46.298 45.3339 46.3118C45.0585 46.4026 44.7761 46.441 44.5571 46.4175ZM41.626 16.4003C41.626 16.4003 41.2871 16.5529 41.0047 16.5913C41.0047 16.5913 40.8635 16.6105 40.7929 16.6201C40.2843 16.5827 39.7972 16.7023 39.3029 16.7695C39.0911 16.7983 38.8086 16.8367 38.5968 16.8655C37.9613 16.9519 37.3115 16.9337 36.6054 17.0298C36.4642 17.049 36.3229 17.0682 36.1817 17.0874C35.9699 17.1162 35.7509 17.0927 35.4685 17.1311C34.833 17.2175 34.1832 17.1993 33.5406 17.2334C33.5406 17.2334 33.47 17.243 33.4629 17.1907C33.4558 17.1384 33.4558 17.1384 33.5264 17.1288C33.7382 17.1 33.943 17.0189 34.1619 17.0424C34.3737 17.0136 34.5927 17.0371 34.8045 17.0083C35.6376 16.7885 36.4992 16.7779 37.3466 16.6626C38.0527 16.5666 38.773 16.5752 39.4649 16.3746C39.4649 16.3746 39.4649 16.3746 39.5356 16.365C40.1853 16.3831 40.8208 16.2967 41.4492 16.158C41.5904 16.1388 41.6681 16.1815 41.6753 16.2338C41.6753 16.2338 41.6895 16.3384 41.6189 16.348L41.626 16.4003ZM40.7126 13.9144C40.3595 13.9624 39.9359 14.02 39.5828 14.068C39.4416 14.0872 39.3567 13.9922 39.4202 13.9303C39.5472 13.8065 39.8155 13.6635 39.6458 13.4735C39.6458 13.4735 39.7093 13.4116 39.7728 13.3497C39.914 13.3305 39.9846 13.3209 40.1259 13.3017C40.9732 13.1865 41.7499 13.0809 42.5902 12.9133C42.802 12.8845 43.0139 12.8557 43.2257 12.8269C43.4375 12.7981 43.5859 12.8312 43.6001 12.9358C43.6143 13.0404 43.4731 13.0596 43.339 13.1311C43.1977 13.1503 43.0565 13.1695 42.9153 13.1887C42.7741 13.2079 42.7035 13.2175 42.7177 13.3221C42.739 13.479 42.4566 13.5174 42.2447 13.5463C41.7504 13.6135 41.2562 13.6807 40.7619 13.7479L40.7126 13.9144ZM44.0481 16.2307C44.0481 16.2307 43.7657 16.2691 43.6245 16.2883C43.2079 16.3983 42.8477 16.394 42.4098 16.347C42.4098 16.347 42.4098 16.347 42.4027 16.2947C42.4027 16.2947 42.3956 16.2424 42.4662 16.2328C42.9534 16.1133 43.4406 15.9937 43.9491 16.0311C44.0197 16.0215 44.0903 16.0119 44.168 16.0546C44.3093 16.0354 44.3235 16.14 44.26 16.2019C44.2671 16.2542 44.133 16.3257 43.9917 16.3449L44.0481 16.2307ZM44.1462 15.3651C44.1462 15.3651 44.005 15.3843 43.9978 15.332C43.9978 15.332 44.0614 15.2701 44.2097 15.3032L44.3509 15.284C44.3509 15.284 44.358 15.3363 44.2168 15.3555L44.1462 15.3651ZM43.883 13.43L43.7418 13.4492C43.7347 13.3969 43.8053 13.3873 43.8759 13.3777C43.9465 13.3681 44.0878 13.3489 44.0878 13.3489C44.0878 13.3489 43.9465 13.3681 43.883 13.43ZM54.3967 11.4144L54.5379 11.3952C54.5379 11.3952 54.5379 11.3952 54.4673 11.4048C54.4673 11.4048 54.4673 11.4048 54.3895 11.3621L54.3967 11.4144ZM52.3347 11.5882C52.3347 11.5882 52.4759 11.569 52.5465 11.5594L52.6877 11.5402C52.7584 11.5306 52.8147 11.4164 52.9702 11.5018C53.0479 11.5445 53.1256 11.5872 53.3375 11.5584C53.3375 11.5584 53.4081 11.5488 53.4787 11.5392C53.4787 11.5392 53.4787 11.5392 53.3446 11.6107C53.2034 11.6299 53.1328 11.6395 53.0621 11.6491C52.8503 11.6779 52.6385 11.7067 52.4972 11.7259C52.356 11.7451 52.2148 11.7644 52.2712 11.6501C52.2641 11.5978 52.3276 11.5359 52.3911 11.474L52.3347 11.5882ZM49.6514 11.9531C49.6514 11.9531 50.3575 11.8571 50.5907 11.9852C50.5907 11.9852 50.5201 11.9948 50.4495 12.0044C50.167 12.0428 49.941 11.967 49.6656 12.0577C49.6656 12.0577 49.6656 12.0577 49.5173 12.0246C49.5173 12.0246 49.5031 11.92 49.6443 11.9008L49.6514 11.9531ZM48.3098 12.1356C48.3098 12.1356 48.3804 12.126 48.4581 12.1687C48.4581 12.1687 48.4652 12.221 48.3946 12.2306C47.851 12.4643 47.279 12.4888 46.6151 12.366C47.3212 12.27 47.8155 12.2028 48.3804 12.126L48.3098 12.1356ZM47.1734 12.7695C47.1734 12.7695 47.4558 12.7311 47.5407 12.8261C47.5407 12.8261 47.3502 13.0118 47.2089 13.031C47.0677 13.0502 46.9265 13.0694 46.7853 13.0886C46.7146 13.0982 46.6369 13.0555 46.6298 13.0032C46.6298 13.0032 46.6933 12.9413 46.8345 12.9221L47.117 12.8837L47.1734 12.7695ZM44.1792 12.9636C44.1792 12.9636 44.4332 12.716 44.6379 12.6349C44.7085 12.6253 44.7792 12.6157 44.9204 12.5965C45.1322 12.5677 45.4147 12.5293 45.6265 12.5004C45.8383 12.4716 46.0644 12.5474 46.0715 12.5997C46.0151 12.7139 45.8668 12.6808 45.7256 12.7C45.5137 12.7289 45.3019 12.7577 45.1749 12.8815C45.0408 12.953 45.2033 13.0907 44.9209 13.1291C44.7091 13.1579 44.7654 13.0437 44.6171 13.0106C44.5465 13.0202 44.3347 13.049 44.2498 12.954L44.1792 12.9636ZM44.957 13.9232C44.957 13.9232 44.957 13.9232 44.8935 13.9851C44.8228 13.9947 44.7522 14.0043 44.7451 13.952C44.7451 13.952 44.7451 13.952 44.8086 13.8901C44.8086 13.8901 44.957 13.9232 44.9641 13.9755L44.957 13.9232ZM49.345 46.1925C49.345 46.1925 49.2038 46.2117 49.2673 46.1498C49.2673 46.1498 49.3308 46.0879 49.4721 46.0687C49.4721 46.0687 49.5427 46.0591 49.5498 46.1114C49.5498 46.1114 49.4863 46.1733 49.345 46.1925ZM45.2272 15.9106C45.2272 15.9106 45.086 15.9298 45.0083 15.8871L44.994 15.7825C44.994 15.7825 44.994 15.7825 45.1282 15.711L45.2694 15.6918C45.9049 15.6054 46.5404 15.519 47.1053 15.4421C47.529 15.3845 47.7479 15.408 48.0517 15.5265C48.0588 15.5788 47.9953 15.6407 47.8541 15.6599C47.6423 15.6887 47.501 15.7079 47.3598 15.7271C47.0631 15.6609 46.7807 15.6994 46.5125 15.8424C46.1665 15.9427 45.7357 15.948 45.3827 15.996L45.2272 15.9106ZM52.0212 45.7754C51.4705 45.9568 50.8492 46.1478 50.1995 46.1296L50.0583 46.1488L50.0441 46.0442C50.1711 45.9204 50.3758 45.8393 50.6582 45.8009C50.7995 45.7817 50.9407 45.7625 51.1525 45.7337C51.3644 45.7049 51.6397 45.6142 51.9293 45.628C51.9293 45.628 51.9999 45.6184 52.0776 45.6611L52.0847 45.7134L52.0212 45.7754ZM47.9034 15.4934C47.9034 15.4934 48.0233 15.3173 48.2351 15.2885C48.3763 15.2693 48.5175 15.2501 48.6588 15.2309C49.0189 15.2352 49.3014 15.1968 49.5767 15.1061C49.7815 15.025 49.9156 14.9535 50.1274 14.9246C50.3392 14.8958 50.5653 14.9716 50.5795 15.0762C50.5938 15.1808 50.4667 15.3046 50.2549 15.3334C49.4076 15.4487 48.5673 15.6162 47.7621 15.5126L47.9034 15.4934ZM55.0083 45.529C55.0083 45.529 54.4505 45.6581 54.1751 45.7488C53.5539 45.9398 53.0311 45.7978 52.452 45.77L52.4378 45.6654C52.4378 45.6654 52.4942 45.5512 52.6425 45.5843C53.0027 45.5886 53.278 45.4979 53.4898 45.4691C54.0547 45.3923 54.549 45.3251 54.9727 45.2675C55.1139 45.2483 55.1845 45.2387 55.1988 45.3433C55.2059 45.3956 55.213 45.4479 55.0789 45.5194L55.0083 45.529ZM50.8666 12.4271C50.8666 12.4271 50.5135 12.4751 50.3017 12.5039C49.8074 12.5711 49.306 12.586 48.8188 12.7056C48.607 12.7344 48.3951 12.7632 48.1833 12.792C48.1127 12.8016 48.0421 12.8112 48.1056 12.7493C48.1056 12.7493 48.1691 12.6874 48.2397 12.6778C48.4515 12.649 48.6633 12.6202 48.8752 12.5914C49.5813 12.4953 50.2168 12.4089 50.9229 12.3129C50.9936 12.3033 51.0642 12.2937 51.1419 12.3364C51.1419 12.3364 51.0149 12.4602 50.9443 12.4698L50.8666 12.4271ZM57.8891 45.0307C57.183 45.1267 56.5475 45.2131 55.8414 45.3091C55.7708 45.3187 55.7002 45.3283 55.5589 45.3475C55.5589 45.3475 55.5518 45.2952 55.5447 45.2429C55.6788 45.1714 55.82 45.1522 55.9613 45.133C56.1731 45.1042 56.4556 45.0658 56.5262 45.0562C57.0205 44.989 57.437 44.8791 57.7972 44.8834C57.9384 44.8642 58.009 44.8546 58.0233 44.9592C58.0304 45.0115 57.9669 45.0734 57.8256 45.0926L57.8891 45.0307ZM54.4536 11.8328C54.1005 11.8808 53.6768 11.9384 53.3238 11.9864C53.3238 11.9864 52.7589 12.0632 52.4058 12.1113C52.2646 12.1305 51.9821 12.1689 51.9679 12.0643C51.9537 11.9597 52.2432 11.9736 52.3845 11.9543C52.7375 11.9063 53.02 11.8679 53.373 11.8199C53.7261 11.7719 54.0086 11.7335 54.3545 11.6332C54.4251 11.6236 54.5663 11.6044 54.5734 11.6567C54.5734 11.6567 54.5877 11.7613 54.4464 11.7805L54.4536 11.8328ZM57.0444 10.788C57.0444 10.788 57.2562 10.7592 57.3268 10.7496C57.4046 10.7923 57.4117 10.8446 57.3482 10.9065C57.2069 10.9257 57.1505 11.0399 56.9316 11.0164L56.7904 11.0356C56.7904 11.0356 56.7833 10.9833 56.7761 10.931C56.8468 10.9214 56.9031 10.8072 57.0444 10.788ZM57.9065 11.31C57.5534 11.358 57.2003 11.406 56.8473 11.454C56.4942 11.502 56.2118 11.5404 55.8587 11.5884L55.7175 11.6077L55.7104 11.5554C56.4165 11.4593 57.1155 11.311 57.8287 11.2673L57.97 11.2481C57.9771 11.3004 57.9842 11.3527 57.843 11.3719L57.9065 11.31ZM64.0838 9.13829L63.9425 9.15749C63.6601 9.1959 63.4483 9.22471 63.0246 9.28232C63.387 9.12651 63.7588 9.04043 64.1402 9.02408L64.0838 9.13829ZM60.5674 9.72299C60.5674 9.72299 60.4262 9.7422 60.419 9.6899C60.419 9.6899 60.4896 9.68029 60.5603 9.67069C60.6309 9.66109 60.7015 9.65149 60.7086 9.70379C60.7086 9.70379 60.638 9.71339 60.5674 9.72299ZM68.325 42.9724C68.325 42.9724 67.4706 43.0353 67.4355 43.3064C67.3649 43.316 67.2237 43.3352 67.2166 43.2829C67.1952 43.126 67.054 43.1452 66.7716 43.1836C66.6304 43.2028 66.5597 43.2124 66.5455 43.1078C66.5384 43.0555 66.6725 42.984 66.8137 42.9648C67.3151 42.9499 67.8094 42.8827 68.3108 42.8678C68.3108 42.8678 68.3814 42.8582 68.3885 42.9105C68.3885 42.9105 68.3886 42.9105 68.2544 42.982L68.325 42.9724ZM69.2003 42.5337C69.2003 42.5337 68.9885 42.5625 68.9743 42.4579C68.9672 42.4056 69.1013 42.3341 69.1719 42.3245C69.3131 42.3053 69.3837 42.2957 69.4686 42.3907C69.4757 42.443 69.3416 42.5145 69.2003 42.5337ZM66.0975 10.1961C65.3136 10.2495 64.544 10.4074 63.7673 10.513C63.3436 10.5706 62.9199 10.6282 62.4963 10.6858C62.002 10.7531 61.5077 10.8203 60.8722 10.9067C61.0698 10.7733 61.211 10.7541 61.4229 10.7253C62.4891 10.6335 63.5412 10.4372 64.671 10.2836C65.0947 10.226 65.4478 10.178 65.8714 10.1203C65.942 10.1107 66.0833 10.0915 66.1539 10.0819C66.1539 10.0819 66.2245 10.0723 66.2316 10.1246L66.1681 10.1865L66.0975 10.1961ZM67.8557 9.90379C67.5026 9.9518 67.1567 10.0521 66.5847 10.0766C67.0789 10.0094 67.4249 9.9091 67.7708 9.80879L67.9121 9.78958L67.9192 9.84189L67.8557 9.90379ZM75.5199 41.408C75.5199 41.408 75.3081 41.4368 75.2374 41.4464C74.5877 41.4283 74.0228 41.5051 73.4015 41.6961L73.2603 41.7153C73.2603 41.7153 73.2461 41.6107 73.3167 41.6011C74.0015 41.3482 74.637 41.2618 75.3573 41.2703C75.3573 41.2703 75.4351 41.313 75.5128 41.3557C75.5128 41.3557 75.5199 41.408 75.4564 41.4699L75.5199 41.408ZM82.1285 39.7636C82.1285 39.7636 82.1991 39.754 82.2697 39.7444C82.2697 39.7444 82.1991 39.754 82.1285 39.7636C82.1285 39.7636 82.1285 39.7636 82.192 39.7017L82.1285 39.7636ZM78.7828 41.6035C78.7828 41.6035 79.1358 41.5555 79.2628 41.4317C79.2628 41.4317 79.3335 41.4221 79.3264 41.3698C79.3264 41.3698 79.3264 41.3698 79.2486 41.3271C79.1074 41.3463 78.9662 41.3655 78.825 41.3847C78.7543 41.3943 78.6131 41.4135 78.6131 41.4135C78.6131 41.4135 78.5989 41.3089 78.7401 41.2897C79.0226 41.2513 79.3614 41.0987 79.6439 41.0603C79.7851 41.0411 80.0111 41.1169 79.9476 41.1788C79.8278 41.3549 79.8277 41.3549 80.1879 41.3592C80.3291 41.34 80.4775 41.3731 80.6964 41.3966C80.0751 41.5876 79.5102 41.6644 78.8747 41.7508L78.7828 41.6035ZM83.2238 40.4137C83.2238 40.4137 83.1531 40.4233 83.0825 40.4329C82.2423 40.6004 81.4727 40.7584 80.6395 40.9782C80.6395 40.9782 80.5689 40.9878 80.4983 40.9974C80.4841 40.8928 80.7594 40.8021 80.9713 40.7733C81.3878 40.6634 81.8115 40.6057 82.1503 40.4531C82.6233 40.229 82.9271 40.3475 83.2872 40.3518L83.2944 40.4041L83.2238 40.4137ZM84.1204 40.132C84.1204 40.132 84.0498 40.1416 83.9792 40.1512C83.8237 40.0658 83.6683 39.9804 83.6469 39.8235L83.7881 39.8043C84.0142 39.8801 84.2682 39.6325 84.4308 39.7702C84.5227 39.9175 84.2403 39.9559 84.1133 40.0797L84.1204 40.132ZM88.6609 39.6743C88.6609 39.6743 88.6609 39.6743 88.5832 39.6316C88.5832 39.6316 88.569 39.527 88.7173 39.5601C88.7173 39.5601 88.7879 39.5505 88.795 39.6028C88.795 39.6028 88.8092 39.7074 88.6609 39.6743ZM92.5832 5.58244L92.3714 5.61125C92.2937 5.56855 92.35 5.45435 92.3429 5.40205C92.4842 5.38284 92.6325 5.41594 92.6467 5.52054C92.6467 5.52054 92.6609 5.62514 92.5903 5.63474L92.5832 5.58244ZM94.0839 9.21364C94.0839 9.21364 93.9426 9.23284 93.9355 9.18054C93.9355 9.18054 94.0061 9.17094 94.0767 9.16134C94.1474 9.15174 94.2886 9.13253 94.2251 9.19443C94.2251 9.19443 94.1545 9.20404 94.0839 9.21364ZM108.763 35.7156C108.763 35.7156 108.339 35.7732 108.255 35.6782C108.459 35.5971 108.608 35.6302 108.749 35.611C108.749 35.611 108.819 35.6014 108.827 35.6537C108.827 35.6537 108.834 35.706 108.763 35.7156ZM122.553 18.1265L122.694 18.1073C122.772 18.15 122.715 18.2642 122.44 18.3549C122.44 18.3549 122.44 18.3549 122.369 18.3645C122.369 18.3645 122.228 18.3838 122.221 18.3315C122.207 18.2268 122.334 18.103 122.475 18.0838L122.553 18.1265ZM118.095 9.14456C118.095 9.14456 118.448 9.09655 118.731 9.05814C118.462 9.20115 118.251 9.22996 118.039 9.25877C117.968 9.26837 117.827 9.28757 117.89 9.22567C117.89 9.22567 118.024 9.15416 118.095 9.14456ZM119.623 33.5997L119.834 33.5709C119.834 33.5709 119.693 33.5901 119.623 33.5997L119.481 33.6189C119.474 33.5666 119.474 33.5666 119.616 33.5474L119.623 33.5997ZM117.371 34.4919C117.71 34.3393 118.147 34.3863 118.359 34.3574C119.277 34.2326 119.983 34.1366 120.76 34.031C121.325 33.9542 121.89 33.8773 122.455 33.8005L122.596 33.7813C122.596 33.7813 122.667 33.7717 122.603 33.8336C122.603 33.8336 122.61 33.8859 122.54 33.8955C122.398 33.9147 122.328 33.9243 122.187 33.9435C121.763 34.0011 121.332 34.0065 120.993 34.1591C120.993 34.1591 120.852 34.1783 120.711 34.1975C119.652 34.3415 118.592 34.4855 117.597 34.5677C117.526 34.5773 117.385 34.5965 117.314 34.6061C117.314 34.6061 117.244 34.6157 117.237 34.5634C117.229 34.5111 117.237 34.5634 117.3 34.5015L117.371 34.4919ZM113.561 8.58928C113.561 8.58928 113.37 8.77499 113.151 8.7515C113.01 8.7707 112.939 8.7803 112.918 8.6234C113.13 8.59459 113.264 8.52309 113.469 8.44198L113.61 8.42278C113.61 8.42278 113.617 8.47508 113.624 8.52738L113.561 8.58928ZM110.298 8.92638C110.898 8.57846 111.039 8.55925 112.092 8.36292C112.303 8.33411 112.586 8.29571 112.939 8.2477C113.151 8.21889 113.355 8.13778 113.56 8.05668C113.772 8.02787 113.68 7.88057 113.885 7.79946C114.026 7.78026 114.089 7.71836 114.238 7.75145C114.308 7.74185 114.316 7.79415 114.323 7.84645C114.323 7.84645 114.33 7.89875 114.337 7.95105C114.563 8.02685 114.57 8.07915 114.288 8.11756C113.581 8.21358 112.967 8.4569 112.268 8.60522C111.711 8.73434 111.153 8.86345 110.673 9.03527L110.531 9.05447C110.39 9.07368 110.249 9.09288 110.242 9.04058C110.242 9.04058 110.228 8.93598 110.298 8.92638ZM113.416 35.0296C113.84 34.972 114.264 34.9144 114.687 34.8568C115.182 34.7895 115.605 34.7319 116.1 34.6647L116.241 34.6455C116.248 34.6978 116.255 34.7501 116.114 34.7693C115.21 34.9987 114.292 35.1236 113.36 35.1438C113.289 35.1534 113.148 35.1726 113.212 35.1107C113.212 35.1107 113.346 35.0392 113.416 35.0296ZM108.681 9.19953C108.681 9.19953 108.752 9.18993 108.823 9.18032C108.823 9.18032 108.823 9.18032 108.759 9.24223L108.618 9.26143C108.618 9.26143 108.604 9.15683 108.674 9.14723L108.681 9.19953ZM112.738 34.8022C112.738 34.8022 112.456 34.8406 112.315 34.8598C111.75 34.9366 111.248 34.9516 110.676 34.9761C110.676 34.9761 110.676 34.9761 110.669 34.9238C111.234 34.8469 111.728 34.7797 112.293 34.7029C112.434 34.6837 112.576 34.6645 112.717 34.6453L112.738 34.8022ZM115.013 35.6648C115.013 35.6648 114.554 35.9935 114.124 35.9988C113.912 36.0276 113.629 36.066 113.41 36.0425C113.269 36.0617 113.191 36.019 113.114 35.9763L113.106 35.924C113.106 35.924 113.106 35.924 113.177 35.9144C113.756 35.9422 114.243 35.8227 114.723 35.6509C114.794 35.6413 114.935 35.6221 114.935 35.6221L114.95 35.7267L115.013 35.6648ZM119.893 35.5871C119.893 35.5871 119.681 35.6159 119.737 35.5017C119.737 35.5017 119.801 35.4398 119.942 35.4206C120.013 35.411 120.083 35.4014 120.098 35.506C120.098 35.506 120.105 35.5583 119.9 35.6394L119.893 35.5871ZM122.42 34.6042C121.989 34.6095 121.573 34.7195 121.22 34.7675C120.937 34.8059 120.669 34.9489 120.372 34.8827C120.302 34.8923 120.161 34.9115 120.09 34.9211C119.963 35.0449 119.751 35.0737 119.532 35.0502C119.384 35.0171 119.172 35.0459 119.038 35.1174C118.911 35.2412 118.699 35.27 118.487 35.2989C118.346 35.3181 118.205 35.3373 118.071 35.4088C117.668 35.6233 117.668 35.6233 117.365 35.5048C117.365 35.5048 117.287 35.4621 117.28 35.4098C117.068 35.4386 116.863 35.5197 116.651 35.5485C116.51 35.5677 116.312 35.7011 116.157 35.6157C116.079 35.573 116.284 35.4919 116.348 35.43L116.333 35.3254C116.333 35.3254 116.319 35.2208 116.39 35.2112C116.672 35.1728 116.955 35.1344 117.166 35.1056C117.661 35.0384 118.084 34.9808 118.564 34.8089C119.334 34.651 120.174 34.4835 120.965 34.4825C121.107 34.4633 121.255 34.4964 121.389 34.4249C121.862 34.2007 122.236 34.3096 122.674 34.3566C122.674 34.3566 122.745 34.347 122.815 34.3374C122.752 34.3993 122.618 34.4708 122.477 34.49L122.42 34.6042ZM123.664 35.2874C123.664 35.2874 123.664 35.2874 123.593 35.297C123.508 35.202 123.565 35.0878 123.692 34.964C123.854 35.1017 123.869 35.2063 123.734 35.2778L123.664 35.2874ZM123.974 34.393C123.974 34.393 123.43 34.6267 123.056 34.5178C122.985 34.5274 122.907 34.4847 122.759 34.4516C123.041 34.4132 123.31 34.2702 123.656 34.1699C124.009 34.1219 124.079 34.1123 124.249 34.3023C124.178 34.3119 124.037 34.3311 123.967 34.3407L123.974 34.393ZM124.631 34.4635C124.631 34.4635 124.574 34.5777 124.433 34.5969C124.433 34.5969 124.355 34.5542 124.348 34.5019C124.341 34.4496 124.334 34.3973 124.327 34.345C124.468 34.3258 124.602 34.2543 124.666 34.1924L124.807 34.1732L124.814 34.2255C124.673 34.2447 124.616 34.3589 124.631 34.4635ZM124.856 33.4741C124.856 33.4741 124.439 33.584 124.22 33.5605L124.213 33.5082C124.34 33.3844 124.615 33.2937 124.905 33.3075C124.905 33.3075 124.905 33.3075 124.983 33.3502C124.983 33.3502 124.99 33.4025 124.919 33.4121L124.856 33.4741ZM123.598 17.8779C123.598 17.8779 123.951 17.8299 124.036 17.9249C123.894 17.9441 123.605 17.9302 123.598 17.8779ZM126.07 33.4154C126.07 33.4154 125.71 33.4111 125.703 33.3588C125.696 33.3065 125.823 33.1827 126.028 33.1016C126.169 33.0824 126.458 33.0963 126.402 33.2105C126.409 33.2628 126.211 33.3962 126.07 33.4154ZM125.363 17.6379C125.363 17.6379 125.787 17.5802 125.843 17.466C125.843 17.466 125.977 17.3945 126.055 17.4372C126.055 17.4372 126.133 17.4799 126.21 17.5226C126.253 17.8364 125.978 17.9271 125.399 17.8994C125.257 17.9186 125.18 17.8759 125.165 17.7713C125.158 17.719 125.144 17.6144 125.356 17.5856L125.363 17.6379ZM128.365 33.3697C128.365 33.3697 128.154 33.3985 128.083 33.4081C127.942 33.4273 128.069 33.3035 128.062 33.2512C128.062 33.2512 128.196 33.1797 128.189 33.1274C128.189 33.1274 128.266 33.1701 128.344 33.2127C128.351 33.2651 128.429 33.3077 128.365 33.3697ZM129.361 32.7549C128.937 32.8125 128.69 33.1124 128.259 33.1178C128.259 33.1178 128.111 33.0847 127.97 33.1039C127.828 33.1231 127.687 33.1423 127.546 33.1615C127.334 33.1903 127.193 33.2095 127.108 33.1145C127.094 33.0099 127.221 32.8861 127.503 32.8477C127.645 32.8285 127.786 32.8093 127.927 32.7901C128.287 32.7943 128.562 32.7036 128.845 32.6652C129.05 32.5841 129.198 32.6172 129.346 32.6503C129.346 32.6503 129.431 32.7453 129.361 32.7549ZM133.159 32.1318C133.159 32.1318 133.159 32.1318 133.082 32.0891C133.075 32.0368 133.293 32.0603 133.364 32.0507C133.364 32.0507 133.435 32.0411 133.442 32.0934C133.449 32.1457 133.237 32.1745 133.159 32.1318ZM131.472 18.1388C131.472 18.1388 131.458 18.0342 131.656 17.9008C131.726 17.8912 131.86 17.8197 131.995 17.7482C132.002 17.8005 132.016 17.9051 131.882 17.9766C131.818 18.0385 131.691 18.1623 131.479 18.1911L131.472 18.1388ZM134.049 31.7978C134.049 31.7978 133.978 31.8074 133.901 31.7647C133.901 31.7647 133.893 31.7124 133.964 31.7028C134.176 31.674 134.388 31.6452 134.529 31.626C134.402 31.7498 134.19 31.7786 133.971 31.7551L134.049 31.7978ZM133.385 24.2708C133.385 24.2708 132.961 24.3284 132.876 24.2334C132.876 24.2334 132.869 24.1811 132.862 24.1288C133.13 23.9858 133.399 23.8428 133.667 23.6998C133.667 23.6998 133.667 23.6998 133.737 23.6902C133.737 23.6902 133.737 23.6902 133.815 23.7329C133.625 23.9186 133.498 24.0424 133.307 24.2281L133.385 24.2708ZM135.052 24.3638C135.052 24.3638 134.614 24.3168 134.6 24.2122C134.6 24.2122 134.67 24.2026 134.741 24.193C134.953 24.1642 135.101 24.1973 135.115 24.3019C135.115 24.3019 135.115 24.3019 135.122 24.3542L135.052 24.3638ZM137.814 25.6394C137.814 25.6394 137.955 25.6202 138.026 25.6106C138.167 25.5914 138.238 25.5818 138.323 25.6768L138.33 25.7291C138.189 25.7483 137.906 25.7867 137.828 25.744L137.814 25.6394ZM138.505 23.841C138.505 23.841 138.434 23.8506 138.363 23.8602C138.363 23.8602 138.434 23.8506 138.505 23.841C138.505 23.841 138.575 23.8314 138.646 23.8217C138.646 23.8217 138.575 23.8314 138.505 23.841ZM143.544 20.7054C143.544 20.7054 143.544 20.7054 143.473 20.715L143.466 20.6627C143.466 20.6627 143.537 20.6531 143.607 20.6435C143.607 20.6435 143.615 20.6958 143.544 20.7054ZM148.535 18.2689C148.132 18.4834 147.723 18.6456 147.236 18.7652C147.236 18.7652 147.165 18.7747 147.087 18.7321C147.158 18.7224 147.214 18.6082 147.285 18.5986C147.624 18.446 147.97 18.3457 148.316 18.2454L148.457 18.2262L148.464 18.2785L148.535 18.2689ZM151.344 16.715C151.344 16.715 151.358 16.8196 151.217 16.8388C150.934 16.8772 150.666 17.0202 150.377 17.0063C150.377 17.0063 150.228 16.9732 150.221 16.9209C150.214 16.8686 150.207 16.8163 150.355 16.8494C150.779 16.7918 150.899 16.6157 151.245 16.5154C151.393 16.5485 151.407 16.6531 151.344 16.715Z" fill="black"/>
<path d="M99.2274 4.19954C99.9335 4.10352 100.64 4.0075 101.416 3.90187C102.122 3.80585 102.829 3.70983 103.535 3.61381C104.241 3.51779 104.869 3.37907 105.582 3.33535C105.724 3.31614 105.936 3.28734 106.077 3.26813C106.077 3.26813 106.147 3.25853 106.14 3.20623C106.14 3.20623 106.14 3.20623 105.992 3.17313C105.921 3.18274 105.78 3.20194 105.71 3.21154C105.215 3.27876 104.721 3.34597 104.156 3.42279C102.461 3.65324 100.675 3.73639 99.0013 4.12374C98.8601 4.14295 98.7895 4.15255 98.6483 4.17175C98.5777 4.18135 98.507 4.19096 98.5213 4.29556C98.5213 4.29556 98.6061 4.39056 98.6767 4.38095C98.8179 4.36175 98.9592 4.34255 99.1004 4.32334L99.2274 4.19954Z" fill="black"/>
<path d="M93.2304 39.9585C93.2304 39.9585 93.1811 40.125 93.4 40.1485C93.9157 40.2382 94.3957 40.0664 94.8971 40.0515C95.0384 40.0323 95.1583 39.8562 95.0099 39.8231C94.9322 39.7804 94.7838 39.7473 94.6355 39.7142C94.346 39.7003 94.1199 39.6245 93.8938 39.5487L93.9081 39.6533C93.9081 39.6533 93.9223 39.7579 93.7739 39.7248C93.7739 39.7248 93.7033 39.7344 93.6256 39.6917C93.6185 39.6394 93.6043 39.5348 93.7384 39.4633C93.3924 39.5636 93.3503 39.7824 93.2233 39.9062L93.2304 39.9585Z" fill="black"/>
<path d="M135.03 9.39848C135.03 9.39848 134.819 9.42729 134.903 9.52229C134.903 9.52229 134.988 9.61729 135.059 9.60769C135.624 9.53087 136.189 9.45405 136.824 9.36763C136.895 9.35803 137.107 9.32923 137.311 9.24812C137.241 9.25772 137.17 9.26733 137.099 9.27693C136.386 9.32065 135.758 9.45937 135.052 9.55539L135.03 9.39848Z" fill="black"/>
<path d="M121.008 5.71214C120.599 5.87435 120.175 5.93196 119.766 6.09418C120.472 5.99816 121.115 5.96404 121.799 5.71112C121.503 5.64493 121.206 5.57873 121.008 5.71214Z" fill="black"/>
<path d="M51.5646 11.2136C51.5646 11.2136 51.7129 11.2467 51.7835 11.2371C51.9953 11.2083 52.2072 11.1794 52.3484 11.1602C52.3342 11.0556 52.1223 11.0844 51.974 11.0514C51.8328 11.0706 51.8185 10.966 51.7408 10.9233C51.7337 10.871 51.5854 10.8379 51.4513 10.9094C51.2394 10.9382 50.957 10.9766 50.8371 11.1527C51.1902 11.1047 51.4726 11.0663 51.5717 11.2659L51.5646 11.2136Z" fill="black"/>
<path d="M87.2288 41.3073C87.2288 41.3073 87.4051 41.017 87.2425 40.8793C87.2425 40.8793 87.1719 40.8889 87.1013 40.8985C87.0307 40.9081 86.8895 40.9273 86.8966 40.9796C86.9108 41.0842 86.8473 41.1461 86.7132 41.2176C86.6426 41.2272 86.7274 41.3222 86.7346 41.3745C86.7346 41.3745 86.8758 41.3553 86.9535 41.398C87.0241 41.3884 87.1653 41.3692 87.2288 41.3073Z" fill="black"/>
<path d="M21.5721 33.9357C21.5721 33.9357 21.1342 33.8887 20.9294 33.9698C20.8588 33.9794 20.7176 33.9986 20.8024 34.0936C20.8944 34.2409 21.3323 34.2879 21.6076 34.1972C21.6076 34.1972 21.7417 34.1257 21.7346 34.0734C21.7346 34.0734 21.7204 33.9688 21.6498 33.9784L21.5721 33.9357Z" fill="black"/>
<path d="M17.3749 31.63C18.1095 31.7431 18.1801 31.7335 18.646 31.4571C18.2599 31.4386 17.8362 31.4962 17.3749 31.63Z" fill="black"/>
<path d="M117.198 2.0221L117.34 2.0029C117.41 1.9933 117.552 1.97409 117.544 1.92179C117.537 1.86949 117.467 1.87909 117.396 1.88869C117.043 1.93671 116.69 1.98472 116.732 1.76591C116.732 1.76591 116.662 1.77552 116.591 1.78512C116.4 1.97083 116.492 2.11812 116.782 2.13202C116.923 2.11281 117.135 2.08401 117.206 2.0744L117.198 2.0221Z" fill="black"/>
<path d="M71.2349 43.2159C71.2349 43.2159 71.5173 43.1775 71.6586 43.1583C71.7292 43.1487 71.8704 43.1295 71.7856 43.0345C71.7856 43.0345 71.7149 43.0441 71.6443 43.0537C71.4325 43.0825 71.1501 43.1209 70.9382 43.1497C70.7264 43.1785 70.5074 43.155 70.3733 43.2265C70.3098 43.2884 70.5994 43.3023 71.0231 43.2447C71.0937 43.2351 71.2349 43.2159 71.3055 43.2063L71.2349 43.2159Z" fill="black"/>
<path d="M91.3802 40.1036C91.3802 40.1036 91.1755 40.1847 91.1826 40.237C91.1897 40.2893 91.204 40.3939 91.2111 40.4462C91.2253 40.5508 91.3665 40.5316 91.5149 40.5647C91.6561 40.5455 91.7973 40.5263 91.8537 40.4121L91.8395 40.3075C91.6982 40.3267 91.557 40.3459 91.5428 40.2413C91.5357 40.189 91.5286 40.1367 91.4509 40.094L91.3802 40.1036Z" fill="black"/>
<path d="M138.01 8.56719C138.01 8.56719 138.151 8.54799 138.222 8.53839C138.292 8.52878 138.363 8.51918 138.349 8.41458C138.349 8.41458 138.2 8.38149 138.13 8.39109C137.706 8.4487 137.508 8.58211 137.318 8.76781C137.615 8.83401 137.834 8.8575 138.024 8.67179L138.01 8.56719Z" fill="black"/>
<path d="M61.8439 45.0256C61.8582 45.1302 61.6534 45.2113 61.4487 45.2924C61.3075 45.3116 61.025 45.35 61.1876 45.4877C61.2653 45.5304 61.4701 45.4493 61.6113 45.4301C61.8937 45.3917 62.0985 45.3106 62.4444 45.2102C62.2961 45.1771 62.0771 45.1537 62.0629 45.0491C62.0629 45.0491 61.9217 45.0683 61.8511 45.0779L61.8439 45.0256Z" fill="black"/>
<path d="M120.383 1.64231C120.383 1.64231 120.524 1.62311 120.517 1.57081C120.51 1.51851 120.503 1.46621 120.362 1.48541C120.15 1.51422 119.938 1.54302 119.656 1.58143C119.656 1.58143 119.585 1.59103 119.592 1.64333C119.592 1.64333 119.599 1.69563 119.67 1.68603C119.882 1.65722 120.094 1.62842 120.235 1.60921L120.383 1.64231Z" fill="black"/>
<path d="M62.5003 44.5634C62.5003 44.5634 62.1122 44.8826 62.0629 45.0491C62.416 45.001 62.6842 44.858 62.8747 44.6723L62.8605 44.5677C62.7898 44.5773 62.578 44.6061 62.5074 44.6157L62.5003 44.5634Z" fill="black"/>
<path d="M39.5081 46.8377C40.4474 46.8698 41.1464 46.7215 40.9274 46.698C40.4896 46.651 39.9953 46.7182 39.5081 46.8377Z" fill="black"/>
<path d="M71.5387 43.3344C71.5387 43.3344 71.3268 43.3632 71.1856 43.3824C71.1856 43.3824 71.1927 43.4347 71.2633 43.4251C71.6799 43.3152 71.9695 43.3291 72.4851 43.4187C72.2377 43.186 71.9481 43.1722 71.5951 43.2202L71.5387 43.3344Z" fill="black"/>
<path d="M29.9775 42.8602C30.5495 42.8357 30.966 42.7258 31.3684 42.5113C30.8741 42.5785 30.4504 42.6361 29.9775 42.8602Z" fill="black"/>
<path d="M108.901 2.88405L109.043 2.86484C109.113 2.85524 109.254 2.83604 109.177 2.79334C109.177 2.79334 109.106 2.80294 109.035 2.81254C108.753 2.85095 108.541 2.87976 108.259 2.91817C108.117 2.93737 107.906 2.96618 107.983 3.00888C107.983 3.00888 108.132 3.04197 108.202 3.03237C108.414 3.00356 108.697 2.96516 108.838 2.94595L108.901 2.88405Z" fill="black"/>
<path d="M114.324 2.04009C114.183 2.05929 113.971 2.0881 113.83 2.1073C113.689 2.1265 113.547 2.14571 113.477 2.15531C113.406 2.16491 113.336 2.17452 113.35 2.27912C113.35 2.27912 113.42 2.26951 113.491 2.25991C113.774 2.2215 114.056 2.18309 114.331 2.09239L114.324 2.04009Z" fill="black"/>
<path d="M12.7984 31.2935L13.0102 31.2647L12.996 31.1601C12.8405 31.0747 12.4803 31.0704 12.1979 31.1088C12.2192 31.2657 12.4524 31.3938 12.8055 31.3458L12.7984 31.2935Z" fill="black"/>
<path d="M121.584 1.47908C121.584 1.47908 121.866 1.44067 122 1.36916L121.986 1.26456C121.986 1.26456 121.908 1.22186 121.767 1.24107C121.626 1.26027 121.428 1.39368 121.287 1.41288L121.294 1.46518C121.294 1.46518 121.365 1.45558 121.435 1.44598C121.435 1.44598 121.435 1.44598 121.576 1.42678L121.584 1.47908Z" fill="black"/>
<path d="M19.2271 33.6153C19.2271 33.6153 19.1565 33.6249 19.093 33.6868L19.1001 33.7391C19.2413 33.7199 19.4603 33.7434 19.6086 33.7765C19.6792 33.7669 19.7499 33.7573 19.7427 33.705L19.7356 33.6527C19.5873 33.6196 19.3612 33.5438 19.1565 33.6249L19.2271 33.6153Z" fill="black"/>
<path d="M19.1484 32.5074C19.1484 32.5074 19.1555 32.5597 19.1626 32.612C19.3958 32.7401 19.6996 32.8586 20.109 32.6964C19.9465 32.5587 19.5157 32.564 19.219 32.4978L19.1484 32.5074Z" fill="black"/>
<path d="M81.3253 41.7905C81.3253 41.7905 81.4808 41.8759 81.5443 41.814C81.8125 41.671 82.2433 41.6656 82.4267 41.4276C81.9324 41.4949 81.5087 41.5525 81.0144 41.6197C81.0851 41.6101 81.2405 41.6955 81.3182 41.7382L81.3253 41.7905Z" fill="black"/>
<path d="M75.9161 42.2064C75.9161 42.2064 75.9867 42.1968 75.9796 42.1445C75.9796 42.1445 75.909 42.1541 75.8384 42.1637C75.4853 42.2117 75.2029 42.2501 75.0124 42.4359C75.3726 42.4401 75.6479 42.3494 75.9304 42.311L75.9161 42.2064Z" fill="black"/>
<path d="M26.8177 17.5084C26.8177 17.5084 27.0367 17.5319 27.1144 17.5746C27.2556 17.5554 27.3262 17.5458 27.3826 17.4316C27.439 17.3174 27.4248 17.2128 27.1352 17.1989C27.0646 17.2085 27.0011 17.2704 26.867 17.3419C26.7964 17.3515 26.6694 17.4753 26.7471 17.518L26.8177 17.5084Z" fill="black"/>
<path d="M111.507 2.47647C111.507 2.47647 111.344 2.33877 110.998 2.43908C110.857 2.45829 110.645 2.48709 110.589 2.6013C110.73 2.58209 110.871 2.56289 111.013 2.54368C111.154 2.52448 111.366 2.49567 111.507 2.47647Z" fill="black"/>
<path d="M18.492 32.9695C18.492 32.9695 18.2802 32.9984 18.139 33.0176C18.139 33.0176 18.139 33.0176 18.0684 33.0272C17.9978 33.0368 17.8565 33.056 17.9343 33.0987C17.9343 33.0987 17.9343 33.0987 18.0826 33.1318C18.2238 33.1126 18.365 33.0934 18.5063 33.0741C18.5769 33.0645 18.6475 33.0549 18.711 32.993C18.711 32.993 18.6968 32.8884 18.5555 32.9076L18.492 32.9695Z" fill="black"/>
<path d="M68.8132 43.918C68.8132 43.918 69.3146 43.9031 69.5194 43.822C69.5194 43.822 69.59 43.8124 69.5829 43.7601C69.5829 43.7601 69.5829 43.7601 69.5051 43.7174C69.2933 43.7462 69.0108 43.7846 68.8132 43.918Z" fill="black"/>
<path d="M60.9966 45.1408C60.9966 45.1408 61.5615 45.064 61.8439 45.0256C61.8297 44.921 61.6037 44.8452 61.3776 44.7694C61.3989 44.9263 61.2719 45.0501 61.0037 45.1931L60.9966 45.1408Z" fill="black"/>
<path d="M24.9427 35.9809C24.7943 35.9478 24.5754 35.9243 24.4413 35.9958C24.3 36.015 24.2294 36.0246 24.2436 36.1292C24.2508 36.1815 24.3285 36.2242 24.4697 36.205C24.7522 36.1666 24.8157 36.1047 24.9427 35.9809Z" fill="black"/>
<path d="M92.3693 40.5017L92.5105 40.4825C92.4328 40.4398 92.2774 40.3544 92.129 40.3214C91.9807 40.2883 91.8466 40.3598 91.7054 40.379C91.9314 40.4548 91.9456 40.5594 92.3058 40.5636L92.3693 40.5017Z" fill="black"/>
<path d="M131.111 16.5367C131.111 16.5367 131.181 16.5271 131.252 16.5175C131.676 16.4599 131.676 16.4599 131.725 16.2934C131.725 16.2934 131.725 16.2934 131.718 16.2411C131.506 16.2699 131.379 16.3937 131.167 16.4225C131.096 16.4321 131.026 16.4417 131.04 16.5463L131.111 16.5367Z" fill="black"/>
<path d="M128.137 1.01408C128.137 1.01408 128.278 0.994881 128.349 0.985277C128.349 0.985277 128.419 0.975676 128.49 0.966074C128.49 0.966074 128.483 0.913774 128.412 0.923375C128.271 0.942579 128.059 0.971386 127.918 0.990589C127.847 1.00019 127.706 1.0194 127.784 1.06209C127.784 1.06209 127.854 1.05249 127.932 1.09519C128.073 1.07599 128.215 1.05678 128.285 1.04718L128.137 1.01408Z" fill="black"/>
<path d="M119.663 2.16634C119.663 2.16634 119.79 2.04253 119.713 1.99983C119.713 1.99983 119.705 1.94753 119.635 1.95714L119.494 1.97634C119.423 1.98594 119.367 2.10014 119.444 2.14284C119.444 2.14284 119.451 2.19514 119.522 2.18554L119.663 2.16634Z" fill="black"/>
<path d="M19.157 34.1575C19.2982 34.1383 19.4466 34.1714 19.6584 34.1426L19.6513 34.0903C19.5101 34.1095 19.2911 34.086 19.157 34.1575Z" fill="black"/>
<path d="M15.4958 31.0332C15.4958 31.0332 15.5172 31.1901 15.7361 31.2136C15.7219 31.109 15.7148 31.0567 15.7712 30.9425C15.7712 30.9425 15.757 30.8379 15.6228 30.9094C15.6228 30.9094 15.4887 30.9809 15.4958 31.0332Z" fill="black"/>
<path d="M129.868 16.9187L129.875 16.971C130.023 17.0041 130.313 17.018 130.44 16.8942L130.433 16.8419C130.292 16.8611 130.221 16.8707 130.151 16.8803C130.009 16.8995 129.939 16.9091 129.939 16.9091L129.868 16.9187Z" fill="black"/>
<path d="M90.1519 40.5902C90.1519 40.5902 90.1519 40.5902 90.0813 40.5998C90.0813 40.5998 90.0813 40.5998 90.0107 40.6094C89.7988 40.6382 89.8202 40.7951 89.8273 40.8474C89.8273 40.8474 89.8273 40.8474 89.905 40.8901C89.8979 40.8378 90.0249 40.714 90.0884 40.6521L90.1519 40.5902Z" fill="black"/>
<path d="M27.8357 18.6484C27.8357 18.6484 27.758 18.6057 27.6803 18.563C27.6097 18.5726 27.5391 18.5822 27.4613 18.5395C27.3201 18.5587 27.2495 18.5683 27.3343 18.6633C27.3415 18.7156 27.4192 18.7583 27.4969 18.801C27.5675 18.7914 27.6381 18.7818 27.7087 18.7722C27.7794 18.7626 27.9206 18.7434 27.9135 18.6911L27.8357 18.6484Z" fill="black"/>
<path d="M50.7594 11.11C50.7594 11.11 50.7594 11.11 50.83 11.1004C50.2509 11.0726 49.686 11.1494 49.912 11.2252C50.2087 11.2914 50.4911 11.253 50.8371 11.1527L50.7594 11.11Z" fill="black"/>
<path d="M81.3822 42.2089L81.241 42.2281C81.1704 42.2377 81.1846 42.3423 81.2623 42.385L81.4036 42.3658C81.4036 42.3658 81.5306 42.242 81.3822 42.2089Z" fill="black"/>
<path d="M92.7356 39.4931C92.8062 39.4835 92.8768 39.4739 92.9474 39.4643L93.018 39.4547C93.0109 39.4024 92.9403 39.412 92.7991 39.4312C92.7285 39.4408 92.6579 39.4504 92.5873 39.46L92.7356 39.4931Z" fill="black"/>
<path d="M152.679 17.0129C152.679 17.0129 152.679 17.0129 152.757 17.0556C152.757 17.0556 152.757 17.0556 152.827 17.046C152.968 17.0268 153.032 16.9649 152.947 16.8699C152.947 16.8699 152.947 16.8699 152.876 16.8795C152.735 16.8987 152.665 16.9083 152.679 17.0129Z" fill="black"/>
<path d="M118.611 1.83006C118.611 1.83006 118.752 1.81086 118.738 1.70626L118.731 1.65396C118.589 1.67316 118.519 1.68276 118.455 1.74467C118.455 1.74467 118.455 1.74467 118.462 1.79697C118.462 1.79697 118.462 1.79697 118.604 1.77776L118.611 1.83006Z" fill="black"/>
<path d="M24.9233 45.3586C25.0717 45.3917 25.2129 45.3725 25.4247 45.3437C25.347 45.301 25.1916 45.2156 25.0503 45.2348L24.9091 45.254L24.9233 45.3586Z" fill="black"/>
<path d="M25.4019 36.1848L25.3948 36.1325C25.2464 36.0994 25.0981 36.0663 24.9498 36.0332C24.964 36.1378 24.9711 36.1901 25.1194 36.2232C25.1901 36.2136 25.2607 36.204 25.3313 36.1944L25.4019 36.1848Z" fill="black"/>
<path d="M8.60784 28.5075C8.60784 28.5075 8.46662 28.5267 8.47373 28.579C8.47373 28.579 8.48084 28.6313 8.62206 28.6121C8.69268 28.6025 8.76329 28.5929 8.75618 28.5406C8.75618 28.5406 8.74906 28.4883 8.60784 28.5075Z" fill="black"/>
<path d="M41.0855 12.4255C41.0855 12.4255 41.0712 12.3209 40.93 12.3401L40.7888 12.3593C40.7888 12.3593 40.7959 12.4116 40.9442 12.4447C40.9442 12.4447 41.0149 12.4351 41.0855 12.4255Z" fill="black"/>
<path d="M136.681 7.78902C136.681 7.78902 136.533 7.75592 136.462 7.76553L136.321 7.78473C136.321 7.78473 136.399 7.82743 136.54 7.80823C136.54 7.80823 136.611 7.79862 136.681 7.78902Z" fill="black"/>
<path d="M54.0486 46.4052C54.0486 46.4052 54.0629 46.5098 54.2041 46.4906L54.3453 46.4714C54.3453 46.4714 54.3311 46.3668 54.1899 46.386C54.1899 46.386 54.1193 46.3956 54.0486 46.4052Z" fill="black"/>
<path d="M55.468 46.2655C55.468 46.2655 55.468 46.2655 55.5457 46.3082C55.5457 46.3082 55.6163 46.2986 55.687 46.2889C55.7576 46.2793 55.8282 46.2697 55.7576 46.2793C55.7576 46.2793 55.6163 46.2986 55.5386 46.2559C55.5386 46.2559 55.468 46.2655 55.3974 46.2751L55.468 46.2655Z" fill="black"/>
<path d="M15.0036 33.2308C15.0036 33.2308 15.0813 33.2735 15.1519 33.2639L15.2931 33.2447C15.2931 33.2447 15.286 33.1924 15.1377 33.1593C15.1377 33.1593 15.0671 33.1689 14.9965 33.1785L15.0036 33.2308Z" fill="black"/>
<path d="M19.9109 32.2972C20.1227 32.2684 20.1862 32.2065 20.3203 32.135C20.1791 32.1542 19.9673 32.183 19.8261 32.2022L19.9109 32.2972Z" fill="black"/>
<path d="M107.397 2.92879L107.256 2.948C107.256 2.948 107.326 2.93839 107.397 2.92879C107.397 2.92879 107.397 2.92879 107.461 2.86689L107.397 2.92879Z" fill="black"/>
<path d="M116.062 2.12344C116.062 2.12344 116.054 2.07114 115.984 2.08074C115.913 2.09034 115.843 2.09994 115.85 2.15225C115.85 2.15225 115.85 2.15225 115.927 2.19494C116.069 2.17574 116.069 2.17574 116.062 2.12344Z" fill="black"/>
<path d="M121.426 6.13483C121.426 6.13483 121.567 6.11563 121.708 6.09642C121.637 6.10603 121.567 6.11563 121.567 6.11563L121.426 6.13483Z" fill="black"/>
<path d="M70.289 43.6641C70.289 43.6641 70.3596 43.6545 70.4302 43.6449C70.4302 43.6449 70.4302 43.6449 70.4937 43.583C70.4937 43.583 70.4937 43.583 70.3525 43.6022C70.2819 43.6118 70.2113 43.6214 70.2184 43.6737L70.289 43.6641Z" fill="black"/>
<path d="M83.8745 41.4971C83.8745 41.4971 83.8745 41.4971 83.7333 41.5163C83.6627 41.5259 83.5921 41.5355 83.5992 41.5878C83.5992 41.5878 83.6698 41.5782 83.7404 41.5686C83.811 41.559 83.8816 41.5494 83.8745 41.4971Z" fill="black"/>
<path d="M41.6021 13.5804C41.6021 13.5804 41.6727 13.5708 41.7433 13.5612C41.7433 13.5612 41.8139 13.5516 41.8846 13.542C41.8846 13.542 41.8068 13.4993 41.7362 13.5089C41.6656 13.5185 41.5244 13.5377 41.6021 13.5804Z" fill="black"/>
<path d="M29.3176 24.7857C29.3176 24.7857 29.4517 24.7142 29.374 24.6715C29.374 24.6715 29.2256 24.6384 29.155 24.6481C29.0138 24.6673 28.8797 24.7388 28.675 24.8199C28.9787 24.9384 29.0494 24.9288 29.247 24.7954L29.3176 24.7857Z" fill="black"/>
</g>
</svg>
