<svg width="21" height="21" viewBox="0 0 21 21" fill="none" xmlns="http://www.w3.org/2000/svg">
<path d="M10.5399 0.265625C4.92218 0.265625 0.362885 4.82492 0.362885 10.4426C0.362885 16.0603 4.92218 20.6196 10.5399 20.6196C16.1576 20.6196 20.7169 16.0603 20.7169 10.4426C20.7169 4.82492 16.1576 0.265625 10.5399 0.265625ZM15.262 7.18598C15.1093 8.79394 14.4478 12.7019 14.112 14.5032C13.9695 15.2665 13.6846 15.5209 13.42 15.5515C12.8297 15.6024 12.3819 15.1647 11.812 14.7882C10.9164 14.1979 10.4076 13.8316 9.54253 13.2616C8.53501 12.6001 9.18634 12.2338 9.76642 11.6435C9.91908 11.4908 12.5244 9.11961 12.5753 8.90589C12.5823 8.87352 12.5814 8.83992 12.5725 8.80799C12.5637 8.77607 12.5471 8.74679 12.5244 8.7227C12.4633 8.67182 12.3819 8.69217 12.3107 8.70235C12.2191 8.7227 10.7943 9.66916 8.01598 11.5417C7.6089 11.8165 7.24253 11.959 6.91687 11.9488C6.55049 11.9386 5.85846 11.7453 5.33943 11.5723C4.69828 11.3687 4.19961 11.2568 4.24032 10.9006C4.26067 10.7174 4.5151 10.5342 4.99342 10.3408C7.9651 9.04837 9.93943 8.1935 10.9266 7.78642C13.7558 6.60589 14.3359 6.40235 14.7226 6.40235C14.804 6.40235 14.9974 6.4227 15.1195 6.52447C15.2213 6.60589 15.2518 6.71784 15.262 6.79925C15.2518 6.86032 15.2722 7.0435 15.262 7.18598Z" fill="black"/>
</svg>
