<svg width="21" height="21" viewBox="0 0 21 21" fill="none" xmlns="http://www.w3.org/2000/svg">
<path fill-rule="evenodd" clip-rule="evenodd" d="M10.4422 0.265625C4.82144 0.265625 0.265198 4.82186 0.265198 10.4426C0.265198 12.3661 0.79949 14.1674 1.72865 15.7021L0.820861 18.7877C0.76874 18.9649 0.76531 19.1528 0.810933 19.3318C0.856556 19.5107 0.949547 19.6741 1.08013 19.8047C1.21071 19.9353 1.37406 20.0282 1.55301 20.0739C1.73196 20.1195 1.91989 20.1161 2.09706 20.0639L5.18272 19.1562C6.76898 20.1159 8.58817 20.6221 10.4422 20.6196C16.0629 20.6196 20.6192 16.0634 20.6192 10.4426C20.6192 4.82186 16.0629 0.265625 10.4422 0.265625ZM8.14015 12.7457C10.199 14.8035 12.1641 15.0752 12.8582 15.1006C13.9136 15.1393 14.9414 14.3333 15.3414 13.398C15.3919 13.2817 15.4102 13.1539 15.3945 13.028C15.3787 12.9022 15.3294 12.7829 15.2518 12.6826C14.6941 11.9702 13.94 11.4583 13.2032 10.9494C13.0494 10.8431 12.8603 10.8004 12.6757 10.8304C12.4911 10.8603 12.3253 10.9606 12.213 11.1102L11.6024 12.0414C11.5703 12.0915 11.5202 12.1274 11.4625 12.1418C11.4048 12.1561 11.3438 12.1479 11.292 12.1188C10.8778 11.8816 10.2743 11.4786 9.84073 11.0451C9.40719 10.6116 9.02861 10.0355 8.81591 9.64779C8.78953 9.59853 8.78191 9.54138 8.79445 9.48693C8.80698 9.43247 8.83883 9.38441 8.88409 9.35164L9.82445 8.6535C9.95865 8.53681 10.0452 8.37485 10.0678 8.19845C10.0903 8.02205 10.0472 7.84352 9.94657 7.69686C9.49064 7.02925 8.9594 6.18049 8.189 5.6177C8.08958 5.54565 7.97311 5.50073 7.85106 5.48735C7.72901 5.47396 7.60557 5.49258 7.4929 5.54138C6.55661 5.94235 5.74652 6.97023 5.7852 8.02762C5.81064 8.72169 6.08237 10.6869 8.14015 12.7457Z" fill="black"/>
</svg>
