<svg width="736" height="36" viewBox="0 0 736 36" fill="none" xmlns="http://www.w3.org/2000/svg">
<path d="M40.4632 36H30.8965L20.3536 19.2513L9.56668 36H0L12.9345 16.6043L1.75715 0H11.3238L20.4024 13.9091L29.3834 0H38.9013L27.8703 16.6043L40.4632 36Z" fill="#727272"/>
<path d="M83.9342 36H74.3675L63.8247 19.2513L53.0377 36H43.4711L56.4056 16.6043L45.2282 0H54.7949L63.8735 13.9091L72.8544 0H82.3723L71.3413 16.6043L83.9342 36Z" fill="#727272"/>
<path d="M127.405 36H117.839L107.296 19.2513L96.5088 36H86.9421L99.8767 16.6043L88.6993 0H98.2659L107.345 13.9091L116.325 0H125.843L114.812 16.6043L127.405 36Z" fill="#727272"/>
<path d="M170.876 36H161.31L150.767 19.2513L139.98 36H130.413L143.348 16.6043L132.17 0H141.737L150.816 13.9091L159.797 0H169.314L158.283 16.6043L170.876 36Z" fill="#727272"/>
<path d="M214.347 36H204.781L194.238 19.2513L183.451 36H173.884L186.819 16.6043L175.641 0H185.208L194.287 13.9091L203.268 0H212.785L201.755 16.6043L214.347 36Z" fill="#727272"/>
<path d="M257.818 36H248.252L237.709 19.2513L226.922 36H217.355L230.29 16.6043L219.112 0H228.679L237.758 13.9091L246.739 0H256.257L245.226 16.6043L257.818 36Z" fill="#727272"/>
<path d="M301.29 36H291.723L281.18 19.2513L270.393 36H260.826L273.761 16.6043L262.583 0H272.15L281.229 13.9091L290.21 0H299.728L288.697 16.6043L301.29 36Z" fill="#727272"/>
<path d="M344.761 36H335.194L324.651 19.2513L313.864 36H304.297L317.232 16.6043L306.055 0H315.621L324.7 13.9091L333.681 0H343.199L332.168 16.6043L344.761 36Z" fill="#727272"/>
<path d="M388.232 36H378.665L368.122 19.2513L357.335 36H347.768L360.703 16.6043L349.526 0H359.092L368.171 13.9091L377.152 0H386.67L375.639 16.6043L388.232 36Z" fill="#727272"/>
<path d="M431.703 36H422.136L411.593 19.2513L400.806 36H391.24L404.174 16.6043L392.997 0H402.563L411.642 13.9091L420.623 0H430.141L419.11 16.6043L431.703 36Z" fill="#727272"/>
<path d="M475.174 36H465.607L455.064 19.2513L444.277 36H434.711L447.645 16.6043L436.468 0H446.034L455.113 13.9091L464.094 0H473.612L462.581 16.6043L475.174 36Z" fill="#727272"/>
<path d="M518.645 36H509.078L498.535 19.2513L487.748 36H478.182L491.116 16.6043L479.939 0H489.505L498.584 13.9091L507.565 0H517.083L506.052 16.6043L518.645 36Z" fill="#727272"/>
<path d="M562.116 36H552.549L542.006 19.2513L531.219 36H521.653L534.587 16.6043L523.41 0H532.977L542.055 13.9091L551.036 0H560.554L549.523 16.6043L562.116 36Z" fill="#727272"/>
<path d="M605.587 36H596.02L585.477 19.2513L574.69 36H565.124L578.058 16.6043L566.881 0H576.448L585.526 13.9091L594.507 0H604.025L592.994 16.6043L605.587 36Z" fill="#727272"/>
<path d="M649.058 36H639.491L628.948 19.2513L618.161 36H608.595L621.529 16.6043L610.352 0H619.919L628.997 13.9091L637.978 0H647.496L636.465 16.6043L649.058 36Z" fill="#727272"/>
<path d="M692.529 36H682.962L672.42 19.2513L661.633 36H652.066L665 16.6043L653.823 0H663.39L672.468 13.9091L681.449 0H690.967L679.936 16.6043L692.529 36Z" fill="#727272"/>
<path d="M736 36H726.433L715.891 19.2513L705.104 36H695.537L708.472 16.6043L697.294 0H706.861L715.939 13.9091L724.92 0H734.438L723.407 16.6043L736 36Z" fill="#727272"/>
</svg>
