<svg width="55" height="55" viewBox="0 0 55 55" fill="none" xmlns="http://www.w3.org/2000/svg">
<path id="Vector" fill-rule="evenodd" clip-rule="evenodd" d="M52.2191 0C52.9566 0 53.664 0.292988 54.1855 0.814507C54.707 1.33603 55 2.04336 55 2.7809V27.5C55 28.2375 54.707 28.9449 54.1855 29.4664C53.664 29.9879 52.9566 30.2809 52.2191 30.2809C51.4816 30.2809 50.7742 29.9879 50.2527 29.4664C49.7312 28.9449 49.4382 28.2375 49.4382 27.5V9.49214L9.49214 49.4382H27.5C28.2375 49.4382 28.9449 49.7312 29.4664 50.2527C29.9879 50.7742 30.2809 51.4816 30.2809 52.2191C30.2809 52.9566 29.9879 53.664 29.4664 54.1855C28.9449 54.707 28.2375 55 27.5 55H2.7809C2.04336 55 1.33603 54.707 0.814507 54.1855C0.292988 53.664 0 52.9566 0 52.2191V27.5C-1.08836e-08 27.1348 0.0719307 26.7732 0.211684 26.4358C0.351437 26.0984 0.556277 25.7918 0.814507 25.5336C1.07274 25.2754 1.3793 25.0705 1.7167 24.9308C2.05409 24.791 2.41571 24.7191 2.7809 24.7191C3.14609 24.7191 3.50771 24.791 3.8451 24.9308C4.1825 25.0705 4.48906 25.2754 4.74729 25.5336C5.00552 25.7918 5.21036 26.0984 5.35011 26.4358C5.48987 26.7732 5.5618 27.1348 5.5618 27.5V45.5079L45.5079 5.5618H27.5C26.7625 5.5618 26.0551 5.26881 25.5336 4.74729C25.0121 4.22577 24.7191 3.51844 24.7191 2.7809C24.7191 2.04336 25.0121 1.33603 25.5336 0.814507C26.0551 0.292988 26.7625 0 27.5 0H52.2191Z" fill="url(#paint0_linear_1_272)"/>
<defs>
<linearGradient id="paint0_linear_1_272" x1="0" y1="0" x2="58.6966" y2="4.27778" gradientUnits="userSpaceOnUse">
<stop stop-color="#5CFF41"/>
<stop offset="1" stop-color="#F0FF41"/>
</linearGradient>
</defs>
</svg>
