<svg width="20" height="20" viewBox="0 0 20 20" fill="none" xmlns="http://www.w3.org/2000/svg">
<path d="M12.9242 8.75749C13.1585 8.52318 13.1585 8.14328 12.9242 7.90897C12.6899 7.67465 12.31 7.67465 12.0756 7.90897L9.16657 10.818L7.92417 9.57563C7.68985 9.34132 7.30995 9.34132 7.07564 9.57563C6.84132 9.80995 6.84132 10.1898 7.07564 10.4242L8.7423 12.0908C8.97662 12.3251 9.35652 12.3251 9.59083 12.0908L12.9242 8.75749Z" fill="#8A8E99"/>
<path fill-rule="evenodd" clip-rule="evenodd" d="M10.1945 1.43233C10.0684 1.38909 9.93143 1.38909 9.80531 1.43233L2.80531 3.83233C2.56279 3.91548 2.3999 4.14353 2.3999 4.3999V9.9999C2.3999 12.6907 4.3475 14.8464 6.12509 16.2684C7.03112 16.9932 7.93386 17.5604 8.60847 17.9458C8.94646 18.139 9.22892 18.2875 9.42817 18.3884C9.52784 18.4388 9.60682 18.4774 9.66165 18.5037C9.68907 18.5169 9.71047 18.527 9.72541 18.534L9.74292 18.5421L9.74795 18.5444L9.74952 18.5452C9.74973 18.5453 9.75045 18.5456 9.9999 17.9999L9.75045 18.5456C9.90887 18.618 10.0909 18.618 10.2494 18.5456L9.9999 17.9999C10.2494 18.5456 10.2492 18.5457 10.2494 18.5456L10.2503 18.5452L10.2518 18.5444L10.2569 18.5421L10.2744 18.534C10.2893 18.527 10.3107 18.5169 10.3382 18.5037C10.393 18.4774 10.472 18.4388 10.5716 18.3884C10.7709 18.2875 11.0533 18.139 11.3913 17.9458C12.0659 17.5604 12.9687 16.9932 13.8747 16.2684C15.6523 14.8464 17.5999 12.6907 17.5999 9.9999V4.3999C17.5999 4.14353 17.437 3.91548 17.1945 3.83233L10.1945 1.43233ZM10.0297 17.3177L9.9999 17.3327L9.97007 17.3177C9.78651 17.2248 9.52209 17.0858 9.20384 16.904C8.56595 16.5395 7.71869 16.0066 6.87472 15.3314C5.1523 13.9534 3.5999 12.1091 3.5999 9.9999V4.82847L9.9999 2.63419L16.3999 4.82847V9.9999C16.3999 12.1091 14.8475 13.9534 13.1251 15.3314C12.2811 16.0066 11.4339 16.5395 10.796 16.904C10.4777 17.0858 10.2133 17.2248 10.0297 17.3177Z" fill="#8A8E99"/>
</svg>
