<svg width="212" height="95" viewBox="0 0 212 95" fill="none" xmlns="http://www.w3.org/2000/svg">
<g clip-path="url(#clip0_108_11)">
<path d="M212 0H0V93.6272H212V0Z" fill="#12152D"/>
<path d="M44.7658 40.9104C44.4725 40.9104 44.2554 40.7992 44.1152 40.5765C43.9875 40.3538 43.9812 40.1372 44.096 39.9263L49.7222 27.6609C49.8625 27.3446 50.0987 27.1865 50.4303 27.1865C50.7748 27.1865 51.0173 27.3446 51.1575 27.6609L56.8029 39.9439C56.9177 40.1666 56.9048 40.3832 56.7646 40.5941C56.6244 40.805 56.4138 40.9104 56.1331 40.9104C55.98 40.9104 55.8397 40.8752 55.7121 40.805C55.5972 40.7347 55.5078 40.6292 55.4442 40.4887L50.1624 28.768H50.7748L45.4547 40.4887C45.391 40.6292 45.2954 40.7347 45.1677 40.805C45.0529 40.8752 44.9189 40.9104 44.7658 40.9104ZM61.6457 40.9104C61.4286 40.9104 61.2501 40.8459 61.1098 40.7171C60.9693 40.5883 60.8993 40.4241 60.8993 40.2251V27.8718C60.8993 27.6727 60.9693 27.5085 61.1098 27.3798C61.2501 27.2509 61.4286 27.1865 61.6457 27.1865H70.6208C70.8248 27.1865 70.997 27.2509 71.1375 27.3798C71.2906 27.497 71.3672 27.6551 71.3672 27.8542C71.3672 28.0299 71.2906 28.1823 71.1375 28.3111C70.997 28.4399 70.8248 28.5044 70.6208 28.5044H62.392V33.3543H68.3818C68.5986 33.3543 68.7771 33.4188 68.9177 33.5476C69.0579 33.6764 69.1282 33.8345 69.1282 34.0221C69.1282 34.2096 69.0579 34.3678 68.9177 34.4965C68.7771 34.6253 68.5986 34.6898 68.3818 34.6898H62.392V39.5925H70.6208C70.8248 39.5925 70.997 39.657 71.1375 39.7858C71.2906 39.9145 71.3672 40.0669 71.3672 40.2426C71.3672 40.4417 71.2906 40.6059 71.1375 40.7347C70.997 40.8519 70.8248 40.9104 70.6208 40.9104H61.6457ZM82.6842 41.0861C81.6508 41.0861 80.6811 40.9046 79.7754 40.5414C78.8823 40.1781 78.0914 39.6746 77.4024 39.0302C76.7264 38.3742 76.1968 37.6244 75.8141 36.7809C75.4314 35.9256 75.24 35.0119 75.24 34.0396C75.24 33.0789 75.4251 32.177 75.795 31.3335C76.1777 30.4782 76.7072 29.7287 77.3833 29.0843C78.0722 28.4399 78.8631 27.9363 79.7563 27.5731C80.662 27.1982 81.638 27.0107 82.6842 27.0107C83.6028 27.0107 84.4385 27.1337 85.1911 27.3798C85.9437 27.6258 86.6709 28.0181 87.3727 28.5571C87.4876 28.6392 87.5512 28.7386 87.5641 28.8558C87.5895 28.9613 87.577 29.0667 87.5258 29.1721C87.4747 29.2658 87.3981 29.336 87.2962 29.383C87.2708 29.4766 87.2068 29.5469 87.1048 29.5939C87.0029 29.6408 86.8815 29.6584 86.7412 29.6466C86.6135 29.6348 86.4862 29.5821 86.3585 29.4884C85.8609 29.09 85.3188 28.7973 84.7318 28.6098C84.1449 28.4108 83.4625 28.3111 82.6842 28.3111C81.855 28.3111 81.0767 28.4635 80.3495 28.768C79.6352 29.0725 79.0037 29.4884 78.455 30.0156C77.9063 30.5428 77.4727 31.152 77.1537 31.8431C76.8475 32.5342 76.6944 33.2665 76.6944 34.0396C76.6944 34.8362 76.8475 35.5802 77.1537 36.2713C77.4727 36.9624 77.9063 37.5717 78.455 38.0988C79.0037 38.626 79.6352 39.042 80.3495 39.3465C81.0767 39.6394 81.855 39.7858 82.6842 39.7858C83.386 39.7858 84.0492 39.6803 84.6744 39.4695C85.2997 39.2586 85.8929 38.9541 86.4542 38.5557C86.6073 38.4385 86.7666 38.3918 86.9326 38.4151C87.1111 38.4385 87.2642 38.5088 87.3919 38.626C87.5195 38.7432 87.5832 38.8954 87.5832 39.0829C87.5832 39.1765 87.5641 39.2644 87.5258 39.3465C87.5004 39.4168 87.4493 39.4928 87.3727 39.5749C86.7221 40.1254 85.9949 40.518 85.1911 40.7522C84.3874 40.9749 83.5516 41.0861 82.6842 41.0861ZM96.8182 40.9104C96.614 40.9104 96.4355 40.8459 96.2824 40.7171C96.1422 40.5765 96.0719 40.4126 96.0719 40.2251V27.1865H97.5646V40.2251C97.5646 40.4126 97.4943 40.5765 97.3541 40.7171C97.2138 40.8459 97.035 40.9104 96.8182 40.9104ZM91.5365 28.4341C91.3323 28.4341 91.1666 28.3756 91.0389 28.2584C90.9112 28.1411 90.8476 27.9948 90.8476 27.8191C90.8476 27.6315 90.9112 27.4794 91.0389 27.3622C91.1666 27.245 91.3323 27.1865 91.5365 27.1865H102.119C102.323 27.1865 102.489 27.245 102.617 27.3622C102.744 27.4794 102.808 27.6315 102.808 27.8191C102.808 27.9948 102.744 28.1411 102.617 28.2584C102.489 28.3756 102.323 28.4341 102.119 28.4341H91.5365ZM112.787 41.0861C111.677 41.0861 110.657 40.9104 109.725 40.559C108.794 40.2075 107.984 39.7155 107.295 39.0829C106.619 38.4503 106.089 37.7065 105.707 36.8512C105.337 35.9959 105.152 35.0588 105.152 34.0396C105.152 33.0323 105.337 32.1009 105.707 31.2457C106.089 30.3904 106.619 29.6466 107.295 29.014C107.984 28.3814 108.794 27.8894 109.725 27.5379C110.657 27.1865 111.677 27.0107 112.787 27.0107C113.884 27.0107 114.899 27.1865 115.83 27.5379C116.761 27.8894 117.572 28.3814 118.26 29.014C118.949 29.6466 119.479 30.3904 119.849 31.2457C120.232 32.1009 120.423 33.0323 120.423 34.0396C120.423 35.0588 120.232 35.9959 119.849 36.8512C119.479 37.7065 118.949 38.4503 118.26 39.0829C117.572 39.7155 116.761 40.2075 115.83 40.559C114.899 40.9104 113.884 41.0861 112.787 41.0861ZM112.787 39.7858C113.668 39.7858 114.484 39.6452 115.237 39.364C115.989 39.0711 116.64 38.6669 117.189 38.1516C117.75 37.6244 118.184 37.0151 118.49 36.324C118.796 35.6211 118.949 34.8598 118.949 34.0396C118.949 33.2313 118.796 32.4815 118.49 31.7904C118.184 31.0875 117.75 30.4782 117.189 29.9629C116.64 29.4357 115.989 29.0316 115.237 28.7504C114.484 28.4574 113.668 28.3111 112.787 28.3111C111.894 28.3111 111.071 28.4574 110.319 28.7504C109.566 29.0316 108.909 29.4357 108.348 29.9629C107.799 30.4782 107.372 31.0875 107.065 31.7904C106.759 32.4815 106.606 33.2313 106.606 34.0396C106.606 34.8598 106.759 35.6211 107.065 36.324C107.372 37.0151 107.799 37.6244 108.348 38.1516C108.909 38.6669 109.566 39.0711 110.319 39.364C111.071 39.6452 111.894 39.7858 112.787 39.7858ZM126.066 40.9104C125.849 40.9104 125.671 40.8459 125.53 40.7171C125.39 40.5883 125.32 40.4241 125.32 40.2251V27.8718C125.32 27.6727 125.39 27.5085 125.53 27.3798C125.671 27.2509 125.849 27.1865 126.066 27.1865H129.894C130.838 27.1865 131.673 27.3798 132.4 27.7663C133.128 28.1411 133.695 28.6625 134.104 29.3303C134.512 29.998 134.716 30.7712 134.716 31.6498C134.716 32.5051 134.512 33.2665 134.104 33.9342C133.695 34.5902 133.128 35.1116 132.4 35.4981C131.673 35.8729 130.838 36.0605 129.894 36.0605H126.813V40.2251C126.813 40.4241 126.743 40.5883 126.602 40.7171C126.462 40.8459 126.283 40.9104 126.066 40.9104ZM126.813 34.7425H129.894C130.544 34.7425 131.125 34.6138 131.635 34.3559C132.145 34.0866 132.541 33.7176 132.821 33.2489C133.115 32.7802 133.262 32.2473 133.262 31.6498C133.262 31.029 133.115 30.4843 132.821 30.0156C132.541 29.5469 132.145 29.1779 131.635 28.9085C131.125 28.6392 130.544 28.5044 129.894 28.5044H126.813V34.7425ZM139.621 40.9104C139.417 40.9104 139.238 40.8459 139.085 40.7171C138.932 40.5883 138.856 40.4241 138.856 40.2251V27.8718C138.856 27.6727 138.932 27.5085 139.085 27.3798C139.238 27.2509 139.417 27.1865 139.621 27.1865C139.838 27.1865 140.01 27.2509 140.138 27.3798C140.278 27.5085 140.348 27.6727 140.348 27.8718V38.6611L149.897 27.4325C150.038 27.2685 150.229 27.1865 150.472 27.1865C150.688 27.1865 150.867 27.2509 151.007 27.3798C151.148 27.5085 151.218 27.6727 151.218 27.8718V40.2251C151.218 40.4241 151.148 40.5883 151.007 40.7171C150.867 40.8459 150.688 40.9104 150.472 40.9104C150.255 40.9104 150.076 40.8459 149.936 40.7171C149.796 40.5883 149.725 40.4241 149.725 40.2251V29.4533L140.176 40.682C140.112 40.7522 140.029 40.8107 139.927 40.8577C139.825 40.8928 139.723 40.9104 139.621 40.9104ZM165.622 40.9104C165.405 40.9104 165.227 40.8459 165.086 40.7171C164.946 40.5883 164.876 40.4241 164.876 40.2251V35.5333H161.01V35.3576C160.181 35.3576 159.416 35.1876 158.714 34.848C158.012 34.5083 157.451 34.0454 157.03 33.4598C156.609 32.8623 156.398 32.1828 156.398 31.4214C156.398 30.5897 156.603 29.8574 157.011 29.2248C157.432 28.5922 158.006 28.0945 158.733 27.7312C159.46 27.368 160.296 27.1865 161.24 27.1865H165.622C165.839 27.1865 166.018 27.2509 166.158 27.3798C166.298 27.5085 166.369 27.6727 166.369 27.8718V40.2251C166.369 40.4241 166.298 40.5883 166.158 40.7171C166.018 40.8459 165.839 40.9104 165.622 40.9104ZM157.164 40.9104C156.819 40.9104 156.583 40.805 156.456 40.5941C156.341 40.3832 156.379 40.1372 156.571 39.8561L160.092 34.7952L161.584 35.1643L157.814 40.559C157.738 40.6762 157.648 40.764 157.547 40.8225C157.445 40.881 157.317 40.9104 157.164 40.9104ZM161.24 34.2505H164.876V28.5044H161.24C160.576 28.5044 159.99 28.6216 159.479 28.8558C158.982 29.09 158.586 29.4299 158.293 29.875C158.012 30.3086 157.872 30.8239 157.872 31.4214C157.872 31.9955 158.012 32.4933 158.293 32.915C158.586 33.3368 158.982 33.6649 159.479 33.8991C159.99 34.1333 160.576 34.2505 161.24 34.2505Z" fill="#8F8278"/>
<path d="M116.389 59.7789L114.234 56.8298H115.406L116.878 58.992H118.013L117.871 59.7789H116.389ZM116.92 59.6872L115.269 62.052H114.04L116.305 59.0403L116.92 59.6872ZM118.512 56.8298V62.052H117.54V56.8298H118.512ZM121.829 56.8298L119.674 59.7789H118.192L118.039 58.992H119.18L120.652 56.8298H121.829ZM120.788 62.052L119.133 59.6872L119.758 59.0403L122.018 62.052H120.788ZM123.968 60.638L126.591 56.8298H127.569V62.052H126.591V58.244L123.968 62.052H123.001V56.8298H123.968V60.638ZM132.93 56.8298V57.5683H130.181V56.8298H132.93ZM133.787 56.8298V62.052H132.814V56.8298H133.787ZM129.944 56.8298H130.922L130.775 59.3492C130.75 59.7385 130.71 60.0828 130.654 60.3821C130.601 60.6781 130.528 60.9323 130.433 61.1446C130.342 61.3571 130.226 61.5309 130.086 61.666C129.95 61.7978 129.785 61.8961 129.592 61.9603C129.4 62.0215 129.177 62.052 128.925 62.052H128.62V61.2654L128.83 61.2508C128.981 61.2412 129.109 61.2091 129.214 61.1542C129.322 61.0995 129.414 61.0191 129.487 60.9131C129.561 60.8036 129.62 60.6635 129.666 60.493C129.715 60.3225 129.752 60.1199 129.776 59.8849C129.804 59.6501 129.825 59.3766 129.839 59.0644L129.944 56.8298ZM135.095 59.4988V59.3879C135.095 59.0115 135.155 58.6622 135.274 58.3404C135.393 58.0156 135.565 57.7339 135.789 57.4959C136.013 57.2545 136.285 57.0681 136.604 56.936C136.923 56.8009 137.28 56.7334 137.676 56.7334C138.075 56.7334 138.435 56.8009 138.754 56.936C139.076 57.0681 139.349 57.2545 139.573 57.4959C139.801 57.7339 139.975 58.0156 140.094 58.3404C140.213 58.6622 140.273 59.0115 140.273 59.3879V59.4988C140.273 59.8752 140.213 60.2245 140.094 60.5463C139.975 60.8681 139.801 61.1495 139.573 61.3908C139.349 61.6289 139.078 61.8156 138.759 61.9507C138.443 62.0825 138.086 62.1487 137.687 62.1487C137.287 62.1487 136.928 62.0825 136.609 61.9507C136.29 61.8156 136.017 61.6289 135.789 61.3908C135.565 61.1495 135.393 60.8681 135.274 60.5463C135.155 60.2245 135.095 59.8752 135.095 59.4988ZM136.068 59.3879V59.4988C136.068 59.7594 136.101 60.0057 136.168 60.2374C136.234 60.4658 136.334 60.6685 136.467 60.8453C136.604 61.0224 136.774 61.1624 136.977 61.2654C137.18 61.365 137.417 61.415 137.687 61.415C137.953 61.415 138.186 61.365 138.386 61.2654C138.589 61.1624 138.757 61.0224 138.89 60.8453C139.023 60.6685 139.123 60.4658 139.19 60.2374C139.26 60.0057 139.295 59.7594 139.295 59.4988V59.3879C139.295 59.1303 139.26 58.8876 139.19 58.6592C139.123 58.4275 139.022 58.2232 138.885 58.0461C138.752 57.866 138.584 57.7243 138.38 57.6213C138.181 57.5184 137.946 57.467 137.676 57.467C137.41 57.467 137.175 57.5184 136.972 57.6213C136.772 57.7243 136.604 57.866 136.467 58.0461C136.334 58.2232 136.234 58.4275 136.168 58.6592C136.101 58.8876 136.068 59.1303 136.068 59.3879ZM142.543 60.638L145.166 56.8298H146.144V62.052H145.166V58.244L142.543 62.052H141.576V56.8298H142.543V60.638ZM144.635 54.938H145.424C145.424 55.1889 145.361 55.4124 145.234 55.6088C145.108 55.8018 144.928 55.9531 144.693 56.0626C144.458 56.1719 144.18 56.2265 143.857 56.2265C143.37 56.2265 142.985 56.1076 142.701 55.8693C142.421 55.6282 142.28 55.3177 142.28 54.938H143.069C143.069 55.1277 143.128 55.2952 143.247 55.4399C143.367 55.5846 143.57 55.6571 143.857 55.6571C144.138 55.6571 144.337 55.5846 144.456 55.4399C144.576 55.2952 144.635 55.1277 144.635 54.938ZM115.721 68.3615V73.5838H114.749V68.3615H115.721ZM119.453 68.3615L116.757 71.354H115.396L115.248 70.5721H116.363L118.271 68.3615H119.453ZM118.407 73.5838L116.315 71.219L116.941 70.5721L119.642 73.5838H118.407ZM120.115 71.0306V70.9197C120.115 70.5432 120.175 70.194 120.294 69.8722C120.413 69.5474 120.585 69.2657 120.809 69.0276C121.033 68.7863 121.305 68.5999 121.624 68.4678C121.943 68.3327 122.3 68.2652 122.696 68.2652C123.096 68.2652 123.455 68.3327 123.774 68.4678C124.096 68.5999 124.37 68.7863 124.594 69.0276C124.821 69.2657 124.995 69.5474 125.114 69.8722C125.233 70.194 125.293 70.5432 125.293 70.9197V71.0306C125.293 71.407 125.233 71.7563 125.114 72.0781C124.995 72.3999 124.821 72.6813 124.594 72.9226C124.37 73.1607 124.098 73.3474 123.779 73.4825C123.464 73.6143 123.106 73.6804 122.707 73.6804C122.307 73.6804 121.948 73.6143 121.629 73.4825C121.31 73.3474 121.037 73.1607 120.809 72.9226C120.585 72.6813 120.413 72.3999 120.294 72.0781C120.175 71.7563 120.115 71.407 120.115 71.0306ZM121.088 70.9197V71.0306C121.088 71.2912 121.121 71.5375 121.188 71.7692C121.254 71.9976 121.354 72.2003 121.487 72.3771C121.624 72.5542 121.794 72.6942 121.997 72.7972C122.201 72.8968 122.437 72.9468 122.707 72.9468C122.973 72.9468 123.206 72.8968 123.406 72.7972C123.609 72.6942 123.777 72.5542 123.91 72.3771C124.044 72.2003 124.143 71.9976 124.21 71.7692C124.28 71.5375 124.315 71.2912 124.315 71.0306V70.9197C124.315 70.6621 124.28 70.4194 124.21 70.191C124.143 69.9592 124.042 69.755 123.905 69.5779C123.772 69.3978 123.604 69.2561 123.4 69.1531C123.201 69.0502 122.966 68.9988 122.696 68.9988C122.43 68.9988 122.195 69.0502 121.992 69.1531C121.792 69.2561 121.624 69.3978 121.487 69.5779C121.354 69.755 121.254 69.9592 121.188 70.191C121.121 70.4194 121.088 70.6621 121.088 70.9197ZM129.781 72.3966L131.716 68.3615H132.651L130.118 73.5838H129.445L126.922 68.3615H127.858L129.781 72.3966ZM127.574 68.3615V73.5838H126.601V68.3615H127.574ZM131.958 73.5838V68.3615H132.935V73.5838H131.958ZM138.291 68.3615V69.1001H135.416V68.3615H138.291ZM135.558 68.3615V73.5838H134.586V68.3615H135.558ZM139.153 68.3615V73.5838H138.175V68.3615H139.153ZM144.514 68.3615V69.1001H141.765V68.3615H144.514ZM145.371 68.3615V73.5838H144.399V68.3615H145.371ZM141.529 68.3615H142.506L142.359 70.881C142.335 71.2703 142.294 71.6146 142.238 71.9139C142.186 72.2099 142.112 72.4641 142.018 72.6764C141.926 72.8889 141.811 73.0627 141.671 73.1978C141.534 73.3295 141.369 73.4278 141.177 73.4921C140.984 73.5533 140.761 73.5838 140.509 73.5838H140.204V72.7972L140.415 72.7826C140.565 72.773 140.693 72.7409 140.798 72.686C140.907 72.6313 140.998 72.5509 141.071 72.4449C141.145 72.3353 141.205 72.1953 141.25 72.0248C141.299 71.8543 141.336 71.6517 141.361 71.4166C141.389 71.1819 141.41 70.9084 141.424 70.5962L141.529 68.3615ZM149.297 73.6804C148.901 73.6804 148.542 73.6192 148.22 73.497C147.901 73.3716 147.626 73.1961 147.395 72.971C147.167 72.7455 146.992 72.4787 146.869 72.1698C146.746 71.8609 146.685 71.5229 146.685 71.1561V70.9535C146.685 70.5287 146.753 70.1506 146.89 69.8192C147.027 69.4845 147.212 69.2014 147.447 68.9697C147.682 68.7382 147.948 68.5628 148.246 68.4436C148.544 68.3248 148.852 68.2652 149.171 68.2652C149.578 68.2652 149.928 68.3294 150.222 68.4582C150.52 68.587 150.764 68.7671 150.953 68.9988C151.142 69.2272 151.282 69.4974 151.373 69.8096C151.465 70.1185 151.51 70.4562 151.51 70.823V71.2236H147.263V70.4949H150.538V70.4274C150.524 70.1956 150.471 69.9705 150.38 69.7517C150.292 69.5328 150.152 69.3527 149.96 69.2111C149.767 69.0697 149.504 68.9988 149.171 68.9988C148.95 68.9988 148.747 69.0422 148.561 69.129C148.376 69.2127 148.216 69.3382 148.083 69.5054C147.95 69.6729 147.847 69.8771 147.773 70.1185C147.699 70.3598 147.663 70.638 147.663 70.9535V71.1561C147.663 71.404 147.699 71.6371 147.773 71.8559C147.85 72.0715 147.96 72.2615 148.104 72.4254C148.251 72.5896 148.428 72.7184 148.635 72.8117C148.845 72.9048 149.084 72.9515 149.35 72.9515C149.693 72.9515 149.984 72.8872 150.222 72.7584C150.46 72.6297 150.669 72.4575 150.848 72.242L151.436 72.6717C151.314 72.8422 151.158 73.0047 150.969 73.159C150.78 73.3136 150.547 73.4391 150.27 73.5355C149.996 73.6321 149.672 73.6804 149.297 73.6804ZM153.702 68.3615V73.5838H152.729V68.3615H153.702ZM157.434 68.3615L154.737 71.354H153.376L153.229 70.5721H154.343L156.251 68.3615H157.434ZM156.388 73.5838L154.296 71.219L154.921 70.5721L157.623 73.5838H156.388ZM160.661 72.9468C160.892 72.9468 161.106 72.9031 161.302 72.8164C161.498 72.7296 161.66 72.6105 161.786 72.4592C161.912 72.3049 161.984 72.1294 162.001 71.9331H162.926C162.909 72.242 162.795 72.53 162.585 72.7972C162.378 73.061 162.106 73.2749 161.77 73.4391C161.434 73.6 161.064 73.6804 160.661 73.6804C160.233 73.6804 159.86 73.6113 159.542 73.4729C159.226 73.3345 158.963 73.1445 158.753 72.9031C158.546 72.6621 158.39 72.3853 158.285 72.0731C158.184 71.7579 158.133 71.4249 158.133 71.074V70.8714C158.133 70.5207 158.184 70.1893 158.285 69.8771C158.39 69.5619 158.546 69.2835 158.753 69.0422C158.963 68.8008 159.226 68.6111 159.542 68.4727C159.86 68.3344 160.233 68.2652 160.661 68.2652C161.106 68.2652 161.495 68.3489 161.828 68.5161C162.161 68.6803 162.422 68.9055 162.611 69.1918C162.804 69.4749 162.909 69.7967 162.926 70.1572H162.001C161.984 69.9414 161.917 69.7467 161.801 69.5732C161.689 69.3994 161.535 69.261 161.339 69.1581C161.146 69.0518 160.92 68.9988 160.661 68.9988C160.363 68.9988 160.113 69.0534 159.909 69.1627C159.71 69.269 159.55 69.4137 159.431 69.5971C159.315 69.7775 159.231 69.9785 159.179 70.2006C159.13 70.4194 159.105 70.6429 159.105 70.8714V71.074C159.105 71.3024 159.13 71.5278 159.179 71.7497C159.228 71.9718 159.31 72.1728 159.426 72.3532C159.545 72.5333 159.704 72.678 159.904 72.7876C160.107 72.8935 160.36 72.9468 160.661 72.9468Z" fill="#8F8278"/>
<g filter="url(#filter0_d_108_11)">
<path d="M98.7899 41.587L97.1791 44.1317V46.6764L100.723 42.4354C106.135 45.2343 107.703 43.8843 107.81 42.8593C108.67 40.9934 105.162 39.8199 103.3 39.4665L107.81 33.423C102.484 31.6419 99.5775 35.2961 98.7899 37.346V41.587Z" fill="#8F8278"/>
</g>
<g filter="url(#filter1_d_108_11)">
<path d="M97.4781 41.4596H96.0118L92.3949 36.2442C92.5905 35.0092 93.431 32.8681 95.2298 34.1855L97.4781 39.5382V41.4596Z" fill="#8F8278"/>
</g>
<path d="M96.8801 40.9104C96.8801 59.0988 96.8801 76.4731 96.8801 94.1763" stroke="#8F8278" stroke-width="5" stroke-linecap="round"/>
</g>
<defs>
<filter id="filter0_d_108_11" x="94.1791" y="32.948" width="16.7645" height="20.7283" filterUnits="userSpaceOnUse" color-interpolation-filters="sRGB">
<feFlood flood-opacity="0" result="BackgroundImageFix"/>
<feColorMatrix in="SourceAlpha" type="matrix" values="0 0 0 0 0 0 0 0 0 0 0 0 0 0 0 0 0 0 127 0" result="hardAlpha"/>
<feOffset dy="4"/>
<feGaussianBlur stdDeviation="1.5"/>
<feComposite in2="hardAlpha" operator="out"/>
<feColorMatrix type="matrix" values="0 0 0 0 0 0 0 0 0 0 0 0 0 0 0 0 0 0 0.25 0"/>
<feBlend mode="normal" in2="BackgroundImageFix" result="effect1_dropShadow_108_11"/>
<feBlend mode="normal" in="SourceGraphic" in2="effect1_dropShadow_108_11" result="shape"/>
</filter>
<filter id="filter1_d_108_11" x="88.3949" y="33.7717" width="13.0833" height="15.688" filterUnits="userSpaceOnUse" color-interpolation-filters="sRGB">
<feFlood flood-opacity="0" result="BackgroundImageFix"/>
<feColorMatrix in="SourceAlpha" type="matrix" values="0 0 0 0 0 0 0 0 0 0 0 0 0 0 0 0 0 0 127 0" result="hardAlpha"/>
<feOffset dy="4"/>
<feGaussianBlur stdDeviation="2"/>
<feComposite in2="hardAlpha" operator="out"/>
<feColorMatrix type="matrix" values="0 0 0 0 0 0 0 0 0 0 0 0 0 0 0 0 0 0 0.25 0"/>
<feBlend mode="normal" in2="BackgroundImageFix" result="effect1_dropShadow_108_11"/>
<feBlend mode="normal" in="SourceGraphic" in2="effect1_dropShadow_108_11" result="shape"/>
</filter>
<clipPath id="clip0_108_11">
<rect width="212" height="95" fill="white"/>
</clipPath>
</defs>
</svg>
