<svg width="202" height="69" viewBox="0 0 202 69" fill="none" xmlns="http://www.w3.org/2000/svg">
<g clip-path="url(#clip0_102_2)">
<path d="M202 0H0V69H202V0Z" fill="#142431"/>
<path d="M65.7564 31.2092V21.6978H67.7568L72.2054 28.4102H71.1455L75.5195 21.6978H77.505L77.5349 31.2092H75.2658L75.2508 24.8638H75.6688L72.1756 30.2037H71.0858L67.5179 24.8638H68.0255V31.2092H65.7564ZM80.5068 31.2092L85.1645 21.6978H87.553L92.2256 31.2092H89.6878L85.8661 22.812H86.8215L82.9849 31.2092H80.5068ZM82.8356 29.1711L83.4776 27.4998H88.8518L89.5086 29.1711H82.8356ZM95.1758 31.2092V21.6978H99.6991C100.634 21.6978 101.441 21.8382 102.118 22.1191C102.794 22.3908 103.317 22.7849 103.685 23.3012C104.053 23.8175 104.237 24.4334 104.237 25.1491C104.237 25.8557 104.053 26.4671 103.685 26.9835C103.317 27.4907 102.794 27.8802 102.118 28.152C101.441 28.4238 100.634 28.5596 99.6991 28.5596H96.5194L97.5942 27.5949V31.2092H95.1758ZM101.819 31.2092L99.2065 27.758H101.789L104.431 31.2092H101.819ZM97.5942 27.8395L96.5194 26.8068H99.5648C100.311 26.8068 100.868 26.6618 101.237 26.372C101.605 26.0731 101.789 25.6655 101.789 25.1491C101.789 24.6237 101.605 24.216 101.237 23.9262C100.868 23.6364 100.311 23.4914 99.5648 23.4914H96.5194L97.5942 22.4452V27.8395ZM108.019 31.2092V21.6978H110.438V31.2092H108.019ZM114.784 31.2092V21.6978H116.784L122.95 28.546H121.979V21.6978H124.368V31.2092H122.382L116.202 24.361H117.172V31.2092H114.784ZM130.931 25.5296H135.962V27.2416H130.931V25.5296ZM131.11 29.4428H136.798V31.2092H128.706V21.6978H136.604V23.4642H131.11V29.4428ZM35.7335 47.9323C34.9075 47.9323 34.1462 47.8145 33.4494 47.579C32.7627 47.3344 32.1607 46.9903 31.6431 46.5463C31.1355 46.1024 30.7374 45.5816 30.4488 44.9838C30.1701 44.3859 30.0308 43.7292 30.0308 43.0135C30.0308 42.2979 30.1701 41.6412 30.4488 41.0433C30.7374 40.4455 31.1404 39.9247 31.658 39.4807C32.1756 39.0368 32.7825 38.6971 33.4793 38.4617C34.176 38.2171 34.9423 38.0948 35.7783 38.0948C36.7038 38.0948 37.5349 38.2351 38.2713 38.516C39.0177 38.7969 39.6447 39.2045 40.1523 39.7389L38.5997 41.0433C38.2216 40.6809 37.8085 40.4138 37.3607 40.2417C36.9128 40.0606 36.4251 39.9699 35.8977 39.9699C35.3901 39.9699 34.9273 40.0423 34.5093 40.1873C34.0913 40.3323 33.7282 40.5406 33.4196 40.8123C33.121 41.0841 32.887 41.4057 32.7179 41.7771C32.5586 42.1484 32.4791 42.5607 32.4791 43.0135C32.4791 43.4575 32.5586 43.8651 32.7179 44.2364C32.887 44.6078 33.121 44.9339 33.4196 45.2147C33.7282 45.4865 34.0865 45.6948 34.4944 45.8398C34.9124 45.9848 35.3703 46.0572 35.8678 46.0572C36.3455 46.0572 36.8083 45.9892 37.2562 45.8534C37.7141 45.7084 38.1568 45.4685 38.5848 45.1332L39.9582 46.723C39.3909 47.1126 38.7292 47.4115 37.9727 47.6198C37.2263 47.828 36.4799 47.9323 35.7335 47.9323ZM37.7488 46.4376V42.8641H39.9582V46.723L37.7488 46.4376ZM42.6973 47.7692L47.355 38.2578H49.7436L54.4161 47.7692H51.8783L48.0566 39.372H49.0121L45.1755 47.7692H42.6973ZM45.0262 45.7311L45.6681 44.0598H51.0423L51.6992 45.7311H45.0262ZM57.3664 47.7692V38.2578H61.8897C62.8253 38.2578 63.6314 38.3982 64.3081 38.6791C64.9848 38.9508 65.5072 39.3449 65.8756 39.8612C66.2439 40.3775 66.4279 40.9934 66.4279 41.7091C66.4279 42.4157 66.2439 43.0271 65.8756 43.5435C65.5072 44.0507 64.9848 44.4402 64.3081 44.712C63.6314 44.9838 62.8253 45.1196 61.8897 45.1196H58.7099L59.7848 44.1549V47.7692H57.3664ZM64.0095 47.7692L61.397 44.318H63.9797L66.622 47.7692H64.0095ZM59.7848 44.3995L58.7099 43.3668H61.7553C62.5017 43.3668 63.059 43.2218 63.4273 42.932C63.7956 42.6331 63.9797 42.2255 63.9797 41.7091C63.9797 41.1837 63.7956 40.776 63.4273 40.4862C63.059 40.1964 62.5017 40.0514 61.7553 40.0514H58.7099L59.7848 39.0052V44.3995ZM70.2102 47.7692V38.2578H74.9574C76.092 38.2578 77.0922 38.4572 77.958 38.8557C78.8239 39.2453 79.5005 39.7933 79.9883 40.4998C80.4758 41.2064 80.7198 42.0444 80.7198 43.0135C80.7198 43.9738 80.4758 44.8116 79.9883 45.5273C79.5005 46.2338 78.8239 46.7865 77.958 47.185C77.0922 47.5745 76.092 47.7692 74.9574 47.7692H70.2102ZM72.6286 45.9621H74.838C75.5345 45.9621 76.1367 45.8442 76.6441 45.6088C77.1617 45.3642 77.5598 45.0201 77.8386 44.5761C78.1271 44.1322 78.2715 43.6114 78.2715 43.0135C78.2715 42.4066 78.1271 41.8858 77.8386 41.451C77.5598 41.007 77.1617 40.6673 76.6441 40.4319C76.1367 40.1873 75.5345 40.065 74.838 40.065H72.6286V45.9621ZM86.634 42.0896H91.6648V43.8016H86.634V42.0896ZM86.8131 46.0028H92.5006V47.7692H84.4096V38.2578H92.3068V40.0242H86.8131V46.0028ZM96.291 47.7692V38.2578H98.2914L104.457 45.106H103.487V38.2578H105.875V47.7692H103.89L97.7092 40.921H98.6796V47.7692H96.291ZM119.741 47.9323C118.905 47.9323 118.104 47.8327 117.338 47.6334C116.571 47.4251 115.954 47.1578 115.486 46.8317L116.307 45.174C116.755 45.4638 117.283 45.7039 117.89 45.8941C118.507 46.0752 119.129 46.1659 119.756 46.1659C120.234 46.1659 120.617 46.1251 120.905 46.0436C121.204 45.9529 121.423 45.8307 121.562 45.6767C121.702 45.5228 121.771 45.3462 121.771 45.1468C121.771 44.8931 121.662 44.694 121.443 44.5489C121.224 44.395 120.935 44.2727 120.577 44.1821C120.219 44.0825 119.821 43.9919 119.383 43.9103C118.955 43.8197 118.522 43.711 118.084 43.5842C117.656 43.4575 117.263 43.2944 116.905 43.0951C116.546 42.8957 116.253 42.6331 116.024 42.307C115.805 41.9809 115.695 41.5641 115.695 41.0569C115.695 40.5134 115.854 40.0198 116.173 39.5759C116.502 39.123 116.989 38.7651 117.636 38.5024C118.293 38.2307 119.114 38.0948 120.099 38.0948C120.756 38.0948 121.403 38.1672 122.04 38.3122C122.677 38.4481 123.239 38.6563 123.727 38.9372L122.98 40.6085C122.493 40.3548 122.005 40.1693 121.517 40.0514C121.03 39.9247 120.552 39.8612 120.084 39.8612C119.616 39.8612 119.233 39.9111 118.935 40.0107C118.636 40.1102 118.422 40.2416 118.293 40.4047C118.163 40.5586 118.099 40.7399 118.099 40.9482C118.099 41.1928 118.208 41.3921 118.427 41.5461C118.646 41.6911 118.935 41.8087 119.293 41.8994C119.651 41.99 120.044 42.0804 120.472 42.1711C120.91 42.2618 121.343 42.3658 121.771 42.4836C122.209 42.6015 122.607 42.7598 122.966 42.9592C123.324 43.1585 123.612 43.4212 123.831 43.7473C124.06 44.0734 124.175 44.4855 124.175 44.9838C124.175 45.5181 124.011 46.0073 123.682 46.4512C123.354 46.8952 122.861 47.2529 122.204 47.5247C121.557 47.7964 120.736 47.9323 119.741 47.9323ZM132.769 47.9323C131.943 47.9323 131.176 47.81 130.47 47.5654C129.773 47.3208 129.166 46.9767 128.649 46.5328C128.141 46.0888 127.743 45.568 127.454 44.9702C127.176 44.3723 127.036 43.7201 127.036 43.0135C127.036 42.307 127.176 41.6548 127.454 41.0569C127.743 40.4591 128.146 39.9383 128.664 39.4943C129.181 39.0504 129.788 38.7062 130.485 38.4617C131.182 38.2171 131.938 38.0948 132.754 38.0948C133.58 38.0948 134.336 38.2171 135.023 38.4617C135.72 38.7062 136.322 39.0504 136.829 39.4943C137.347 39.9383 137.75 40.4591 138.039 41.0569C138.327 41.6456 138.471 42.2979 138.471 43.0135C138.471 43.7201 138.327 44.3768 138.039 44.9838C137.75 45.5816 137.347 46.1024 136.829 46.5463C136.322 46.9811 135.72 47.3208 135.023 47.5654C134.336 47.81 133.585 47.9323 132.769 47.9323ZM132.754 46.0572C133.222 46.0572 133.65 45.9848 134.038 45.8398C134.436 45.6948 134.784 45.4865 135.083 45.2147C135.381 44.943 135.61 44.6213 135.769 44.25C135.939 43.8787 136.023 43.4664 136.023 43.0135C136.023 42.5607 135.939 42.1484 135.769 41.7771C135.61 41.4057 135.381 41.0841 135.083 40.8123C134.794 40.5406 134.451 40.3323 134.053 40.1873C133.654 40.0423 133.222 39.9699 132.754 39.9699C132.286 39.9699 131.853 40.0423 131.455 40.1873C131.067 40.3323 130.724 40.5406 130.425 40.8123C130.126 41.0841 129.893 41.4057 129.723 41.7771C129.564 42.1484 129.485 42.5607 129.485 43.0135C129.485 43.4575 129.564 43.8696 129.723 44.25C129.893 44.6213 130.122 44.943 130.41 45.2147C130.709 45.4865 131.057 45.6948 131.455 45.8398C131.853 45.9848 132.286 46.0572 132.754 46.0572ZM147.156 47.9323C146.35 47.9323 145.599 47.8145 144.902 47.579C144.215 47.3344 143.618 46.9903 143.11 46.5463C142.603 46.1024 142.205 45.5816 141.916 44.9838C141.637 44.3859 141.498 43.7292 141.498 43.0135C141.498 42.2979 141.637 41.6412 141.916 41.0433C142.205 40.4455 142.603 39.9247 143.11 39.4807C143.628 39.0368 144.23 38.6971 144.917 38.4617C145.604 38.2171 146.355 38.0948 147.171 38.0948C148.077 38.0948 148.893 38.2398 149.619 38.5296C150.356 38.8105 150.973 39.227 151.47 39.7797L149.918 41.0841C149.56 40.7128 149.161 40.4363 148.724 40.2552C148.286 40.065 147.808 39.9699 147.29 39.9699C146.803 39.9699 146.355 40.0423 145.947 40.1873C145.539 40.3323 145.186 40.5406 144.887 40.8123C144.588 41.0841 144.354 41.4057 144.185 41.7771C144.026 42.1484 143.946 42.5607 143.946 43.0135C143.946 43.4664 144.026 43.8787 144.185 44.25C144.354 44.6213 144.588 44.943 144.887 45.2147C145.186 45.4865 145.539 45.6948 145.947 45.8398C146.355 45.9848 146.803 46.0572 147.29 46.0572C147.808 46.0572 148.286 45.9665 148.724 45.7854C149.161 45.5952 149.56 45.3099 149.918 44.9294L151.47 46.2338C150.973 46.7865 150.356 47.2077 149.619 47.4975C148.893 47.7873 148.072 47.9323 147.156 47.9323ZM162.135 38.2578H164.554V47.7692H162.135V38.2578ZM157.388 47.7692H154.97V38.2578H157.388V47.7692ZM162.314 43.8696H157.209V42.0081H162.314V43.8696ZM168.892 47.7692V38.2578H171.31V47.7692H168.892Z" fill="white"/>
</g>
<defs>
<clipPath id="clip0_102_2">
<rect width="202" height="69" fill="white"/>
</clipPath>
</defs>
</svg>
