<?xml version="1.0" encoding="utf-8"?>
<!-- Generator: Adobe Illustrator 25.3.1, SVG Export Plug-In . SVG Version: 6.00 Build 0)  -->
<svg version="1.1" id="Layer_1" xmlns="http://www.w3.org/2000/svg" xmlns:xlink="http://www.w3.org/1999/xlink" x="0px" y="0px"
	 viewBox="0 0 1024 768" style="enable-background:new 0 0 1024 768;" xml:space="preserve">
<style type="text/css">
	.st0{fill:#075985;}
	.st1{fill-rule:evenodd;clip-rule:evenodd;fill:#FFDE16;}
	.st2{fill:#FFDE16;stroke:#000000;stroke-miterlimit:10;}
	.st3{fill:none;stroke:#FACC15;stroke-width:5;stroke-miterlimit:10;}
	.st4{fill:#FFFFFF;}
	.st5{opacity:0.12;}
	.st6{fill:none;}
</style>
<path class="st0" d="M1024,0v647.1c-38.3-1.6-79.4,48.6-114.3,40c-72-17.7-45.9-96.4-92-111.8C736.3,547.9,758,676.7,633.2,714
	c-136.8,27.8-243.5-91.1-270.7-14c-20.5,58.2-60.7,84.7-140.8,52.7C134,717.7,128,652.3,0,721.1V0H1024z"/>
<path class="st1" d="M750.8,1291.5"/>
<path class="st2" d="M717.1-512.5"/>
<path class="st2" d="M952.9-512.1"/>
<path class="st3" d="M0,305.4c44.2,19.6,66,14.8,76-4.3c10.6-20.4,7.1-57,3.2-96.8C75,161,70.4,113.9,83.4,80.4
	c17-44.1,64.9-64.5,185.7-21c32.8,11.9,67,22,101.5,29.6c82.2,18.1,166.1,21.8,237.4,0.3C659.3,73.9,704,45.4,737.1,0"/>
<path class="st2" d="M419.2-298.8"/>
<path class="st2" d="M422.1-394"/>
<path class="st2" d="M426.4-519.1"/>
<path class="st2" d="M616-541.9"/>
<g>
	<g>
		<path class="st4" d="M531.9,410.8c-2.6,0-4.7-2.1-4.7-4.7v-44.6c0-2.6,2.1-4.7,4.7-4.7h17.5c12.2,0,22.2,9.9,22.2,22.2
			c0,2.6-2.1,4.7-4.7,4.7s-4.7-2.1-4.7-4.7c0-7.1-5.7-12.8-12.8-12.8h-12.8V406C536.6,408.7,534.4,410.8,531.9,410.8z"/>
		<path class="st4" d="M615.3,561.9h-75.1c-2.6,0-4.7-2.1-4.7-4.7c0-2.6,2.1-4.7,4.7-4.7h71.3c0.8-3.4,2.2-8.8,4.1-14.9
			c9.9-30.9,15.4-63.2,16.3-96.1c0.1-2.5,2.2-4.6,4.7-4.6c0.1,0,0.1,0,0.1,0c2.6,0.1,4.6,2.2,4.6,4.9c-0.8,33.9-6.5,67.1-16.7,98.8
			c-3.2,9.7-4.6,17.6-4.7,17.6C619.5,560.4,617.5,561.9,615.3,561.9z"/>
		<path class="st4" d="M503.1,561.9c-2.2,0-4.2-1.6-4.6-3.9c-0.1-0.3-5.8-31.6-26-54.1c-5.5-6.1-10.7-13.3-15.4-21.2
			c-11.1-18.6-16.9-40-16.9-62.1c0-14,11.4-25.4,25.4-25.4c10.4,0,20.1,6.5,23.7,16.4l3,7.5V315.2c0-12.2,9.9-22.2,22.2-22.2
			c12.2,0,22.2,9.9,22.2,22.2v46.4c0,2.6-2.1,4.7-4.7,4.7c-2.6,0-4.7-2.1-4.7-4.7v-46.4c0-7.1-5.7-12.8-12.8-12.8
			c-7.1,0-12.8,5.7-12.8,12.8v129.4c0,2.3-1.6,4.2-3.9,4.6c-2.2,0.4-4.4-0.8-5.3-3l-11.9-31.4c-2.3-6.1-8.3-10.2-14.9-10.2
			c-8.8,0-15.9,7.2-15.9,15.9c0,20.4,5.4,40.1,15.6,57.2c4.4,7.5,9.3,14,14.4,19.7c22.2,24.7,28.1,57.5,28.3,58.9
			c0.4,2.5-1.3,5-3.9,5.5C503.6,561.8,503.4,561.9,503.1,561.9z"/>
		<path class="st4" d="M601.7,439c-2.6,0-4.7-2.1-4.7-4.7V392c0-7.1-5.7-12.8-12.8-12.8h-12.8V419c0,2.6-2.1,4.7-4.7,4.7
			c-2.6,0-4.7-2.1-4.7-4.7v-44.6c0-2.6,2.1-4.7,4.7-4.7h17.5c12.2,0,22.2,9.9,22.2,22.2v42.3C606.5,437,604.4,439,601.7,439z"/>
		<path class="st4" d="M636.7,446.2c-2.6,0-4.7-2.1-4.7-4.7v-27.1c0-7.1-5.7-12.8-12.8-12.8h-17.5c-2.6,0-4.7-2.1-4.7-4.7
			s2.1-4.7,4.7-4.7h17.5c12.2,0,22.2,9.9,22.2,22.2v27.1C641.4,444.2,639.3,446.2,636.7,446.2z"/>
	</g>
	<g>
		<path class="st4" d="M625,639.2H489.4c-2.6,0-4.7-2.1-4.7-4.7v-53.7c0-2.6,2.1-4.7,4.7-4.7h135.5c2.6,0,4.7,2.1,4.7,4.7v53.7
			C629.7,637.1,627.5,639.2,625,639.2z M494.1,629.7h126v-44.3h-126L494.1,629.7L494.1,629.7z"/>
	</g>
	<path class="st4" d="M594.8,616.7c-5,0-9.2-4-9.2-9.2c0-5,4-9.2,9.2-9.2c5,0,9.2,4,9.2,9.2C604,612.6,599.8,616.7,594.8,616.7z"/>
	<path class="st4" d="M451.8,617.3H206.4c-15,0-27.3-12.2-27.3-27.3V174.7c0-15,12.2-27.3,27.3-27.3h337.8c15,0,27.3,12.2,27.3,27.3
		v157.1c0,2.6-2.1,4.7-4.7,4.7s-4.7-2.1-4.7-4.7V174.7c0-9.8-8-17.8-17.8-17.8H206.4c-9.8,0-17.8,8-17.8,17.8v415.4
		c0,9.8,8,17.8,17.8,17.8h245.4c2.6,0,4.7,2.1,4.7,4.7C456.5,615.3,454.4,617.3,451.8,617.3z"/>
	<path class="st4" d="M334.7,239.5H218.2c-2.6,0-4.7-2.1-4.7-4.7s2.1-4.7,4.7-4.7h116.5c2.6,0,4.7,2.1,4.7,4.7
		S337.4,239.5,334.7,239.5z"/>
	<path class="st4" d="M277.9,319.7h-59.6c-2.6,0-4.7-2.1-4.7-4.7s2.1-4.7,4.7-4.7h59.6c2.6,0,4.7,2.1,4.7,4.7
		S280.5,319.7,277.9,319.7z"/>
	<path class="st4" d="M466.2,319.7h-57.3c-2.6,0-4.7-2.1-4.7-4.7s2.1-4.7,4.7-4.7h57.3c2.6,0,4.7,2.1,4.7,4.7
		S468.9,319.7,466.2,319.7z"/>
	<path class="st4" d="M317.8,341.4c-10.1,0-18.3-8.2-18.3-18.3c0-2.6,2.1-4.7,4.7-4.7s4.7,2.1,4.7,4.7c0,4.9,3.9,8.8,8.8,8.8
		s8.8-3.9,8.8-8.8V307c0-4.9-3.9-8.8-8.8-8.8c-2.6,0-4.7-2.1-4.7-4.7s2.1-4.7,4.7-4.7c10.1,0,18.3,8.2,18.3,18.3v16.1
		C336,333.1,327.8,341.4,317.8,341.4z"/>
	<path class="st4" d="M369.4,341.4c-10.1,0-18.3-8.2-18.3-18.3c0-2.6,2.1-4.7,4.7-4.7s4.7,2.1,4.7,4.7c0,4.9,3.9,8.8,8.8,8.8
		s8.8-3.9,8.8-8.8V307c0-4.9-3.9-8.8-8.8-8.8c-2.6,0-4.7-2.1-4.7-4.7s2.1-4.7,4.7-4.7c10.1,0,18.3,8.2,18.3,18.3v16.1
		C387.6,333.1,379.5,341.4,369.4,341.4z"/>
	<path class="st4" d="M373.1,261.2c-10.1,0-18.3-8.2-18.3-18.3c0-2.6,2.1-4.7,4.7-4.7s4.7,2.1,4.7,4.7c0,4.9,3.9,8.8,8.8,8.8
		s8.8-3.9,8.8-8.8v-16.1c0-4.9-3.9-8.8-8.8-8.8c-2.6,0-4.7-2.1-4.7-4.7c0-2.6,2.1-4.7,4.7-4.7c10.1,0,18.3,8.2,18.3,18.3V243
		C391.2,252.9,383.1,261.2,373.1,261.2z"/>
	<path class="st4" d="M424.7,261.2c-10.1,0-18.3-8.2-18.3-18.3c0-2.6,2.1-4.7,4.7-4.7s4.7,2.1,4.7,4.7c0,4.9,3.9,8.8,8.8,8.8
		s8.8-3.9,8.8-8.8v-16.1c0-4.9-3.9-8.8-8.8-8.8c-2.6,0-4.7-2.1-4.7-4.7c0-2.6,2.1-4.7,4.7-4.7c10.1,0,18.3,8.2,18.3,18.3V243
		C443,252.9,434.7,261.2,424.7,261.2z"/>
	<path class="st4" d="M476.4,261.2c-10.1,0-18.3-8.2-18.3-18.3c0-2.6,2.1-4.7,4.7-4.7s4.7,2.1,4.7,4.7c0,4.9,3.9,8.8,8.8,8.8
		s8.8-3.9,8.8-8.8v-16.1c0-4.9-3.9-8.8-8.8-8.8c-2.6,0-4.7-2.1-4.7-4.7c0-2.6,2.1-4.7,4.7-4.7c10.1,0,18.3,8.2,18.3,18.3V243
		C494.6,252.9,486.5,261.2,476.4,261.2z"/>
	<path class="st4" d="M283.5,428.6c-10.1,0-18.3-8.2-18.3-18.3c0-2.6,2.1-4.7,4.7-4.7s4.7,2.1,4.7,4.7c0,4.9,3.9,8.8,8.8,8.8
		s8.8-3.9,8.8-8.8v-16.1c0-4.9-3.9-8.8-8.8-8.8c-2.6,0-4.7-2.1-4.7-4.7s2.1-4.7,4.7-4.7c10.1,0,18.3,8.2,18.3,18.3v16.1
		C301.7,420.5,293.6,428.6,283.5,428.6z"/>
	<path class="st4" d="M335.2,428.6c-10.1,0-18.3-8.2-18.3-18.3c0-2.6,2.1-4.7,4.7-4.7s4.7,2.1,4.7,4.7c0,4.9,3.9,8.8,8.8,8.8
		s8.8-3.9,8.8-8.8v-16.1c0-4.9-3.9-8.8-8.8-8.8c-2.6,0-4.7-2.1-4.7-4.7s2.1-4.7,4.7-4.7c10.1,0,18.3,8.2,18.3,18.3v16.1
		C353.4,420.5,345.2,428.6,335.2,428.6z"/>
	<path class="st4" d="M418.9,407h-45.8c-2.6,0-4.7-2.1-4.7-4.7s2.1-4.7,4.7-4.7h45.8c2.6,0,4.7,2.1,4.7,4.7S421.4,407,418.9,407z"/>
	<path class="st4" d="M248,407h-29.8c-2.6,0-4.7-2.1-4.7-4.7s2.1-4.7,4.7-4.7H248c2.6,0,4.7,2.1,4.7,4.7S250.6,407,248,407z"/>
</g>
<g>
	<g class="st5">
		<rect x="812.7" y="36.4" width="115.8" height="25.7"/>
		<path d="M960.3,267.5v25.9c-65.8,2-128.9,25.1-179.6,66.5C825.8,306.2,890.3,273.5,960.3,267.5z"/>
		<path d="M921.8,113.5v143.2c-8.7,2.5-17.2,5.4-25.6,8.9V139.2h-12.8v132.2c-8.8,4.3-17.4,9.2-25.6,14.7V139.2h-12.8v156.1
			c-9.2,7-17.7,14.6-25.6,22.8V113.5H921.8z"/>
		<path d="M986.4,113.9c0,21.5-17.4,38.9-38.8,38.9v-25.7c7.3,0,13.2-5.9,13.2-13.2s-5.9-13.2-13.2-13.2H793.6
			c-7.3,0-13.2,5.9-13.2,13.2s5.9,13.2,13.2,13.2v25.7c-21.5,0-38.8-17.4-38.8-38.9S772.1,75,793.6,75c94.3,0,59.6,0,153.9,0
			C969,74.9,986.4,92.4,986.4,113.9z"/>
	</g>
	<rect x="717.1" class="st6" width="306.9" height="396.3"/>
</g>
</svg>
