<?xml version="1.0" encoding="utf-8"?>
<!-- Generator: Adobe Illustrator 25.3.1, SVG Export Plug-In . SVG Version: 6.00 Build 0)  -->
<svg version="1.1" id="Layer_1" xmlns="http://www.w3.org/2000/svg" xmlns:xlink="http://www.w3.org/1999/xlink" x="0px" y="0px"
	 viewBox="0 0 1024 768" style="enable-background:new 0 0 1024 768;" xml:space="preserve">
<style type="text/css">
	.st0{fill:#075985;}
	.st1{fill:#FFFFFF;}
	.st2{fill-rule:evenodd;clip-rule:evenodd;fill:#FFDE16;}
	.st3{fill:#FFDE16;stroke:#000000;stroke-miterlimit:10;}
	.st4{fill:none;stroke:#FACC15;stroke-width:5;stroke-miterlimit:10;}
	.st5{opacity:0.12;}
	.st6{fill:none;}
</style>
<path class="st0" d="M1024,0v647.1c-38.3-1.6-79.4,48.6-114.3,40c-72-17.7-45.9-96.4-92-111.8C736.3,547.9,758,676.7,633.2,714
	c-136.8,27.8-243.5-91.1-270.7-14c-20.5,58.2-60.7,84.7-140.8,52.7C134,717.7,128,652.3,0,721.1V0H1024z"/>
<g>
	<path class="st1" d="M662.8,491.2l-2.5-8.8l48-13.5c2.1-0.5,3.2-2.7,2.7-4.7l-82.2-294.9c-2.2-7.9-10.5-12.6-18.4-10.4L127.7,293.5
		c-7.9,2.2-12.6,10.5-10.4,18.4l82.2,294.9c0.5,2.1,2.7,3.1,4.6,2.6l75.3-20.8l7.6,7.5l-80.4,22.3c-6.9,2-14-2.2-16-9l-82.2-294.9
		c-3.6-12.8,3.9-26.2,16.8-29.7l482.6-134.5c12.8-3.6,26.2,3.9,29.7,16.8L719.7,462c2,6.9-2.2,14-9,16L662.8,491.2z"/>
	<g>
		<g id="XMLID_2_">
			<g>
				<path class="st1" d="M736.7,546.1l-52.3,14.6L699,613l-67.9-38.1c2.9-1.8,5.6-3.7,8.3-5.8l44.8,25.2l-11.1-39.9l39.9-11.1
					l-44.8-25.2c0.5-3.3,0.7-6.6,0.8-10.2L736.7,546.1z"/>
				<path class="st1" d="M642.4,405.4c2.2,1.2,3,4,1.8,6.2s-4,3-6.2,1.8c-48.9-27.6-111.2-10.3-138.7,38.7c-0.6,1.1-1.7,1.8-2.8,2.2
					c-1.1,0.3-2.4,0.2-3.4-0.4c-2.2-1.2-3-4-1.8-6.2C521.3,394.3,589,375.4,642.4,405.4z"/>
				<path class="st1" d="M667.8,507.2l1,0.6c0,3.4-0.3,6.7-0.8,10.2l-4.9-2.7c-1.6-0.8-2.4-2.5-2.4-4c0-0.7,0.2-1.5,0.6-2.2
					C662.8,506.8,665.6,506,667.8,507.2z"/>
				<path class="st1" d="M661.6,509c-0.4,0.7-0.5,1.5-0.6,2.2l-1.3-0.1c0.4-7.6-0.3-15.2-2.5-22.9c-10.5-37.4-49.3-59.4-86.8-48.9
					c-37.4,10.5-59.4,49.3-48.9,86.8c2.2,7.7,5.5,14.7,9.7,20.8l-1.1,0.8c-0.4-0.6-0.9-1.1-1.7-1.6c-2.2-1.2-5.1-0.4-6.2,1.8l-0.6,1
					c-3.8-6.2-6.9-13.1-9-20.5c-11.8-42.3,13.1-86.3,55.3-98.1c42.3-11.8,86.3,13.1,98.1,55.3c2.1,7.4,3,14.8,2.9,22.2l-1-0.6
					C665.6,506,662.8,506.8,661.6,509z"/>
				<path class="st1" d="M660.9,511.1c0,1.7,0.8,3.2,2.4,4l4.9,2.7c-2.7,20-13.2,38.2-28.7,51l-4.9-2.7c-1.6-0.8-3.3-0.7-4.7,0.1
					l-0.8-1.1c17.9-12.3,29.2-32.4,30.6-54.1L660.9,511.1z"/>
				<path class="st1" d="M634.6,566.3l4.9,2.7c-2.6,2.2-5.4,4-8.3,5.8l-1-0.6c-2.2-1.2-3-4-1.8-6.2c0.4-0.7,0.9-1.2,1.6-1.7
					C631.2,565.4,633.1,565.3,634.6,566.3z"/>
				<path class="st1" d="M579.2,470.8c20-5.6,40.7,6.1,46.3,26.1c5.6,20-6.1,40.7-26.1,46.3c-20,5.6-40.7-6.1-46.3-26.1
					C547.5,497.2,559.2,476.4,579.2,470.8z M616.6,499.3c-4.2-15.1-19.9-23.9-35-19.8c-15.1,4.2-23.9,19.9-19.8,35
					c4.1,15.1,19.9,23.9,35,19.8C612,530.2,620.8,514.5,616.6,499.3z"/>
				<path class="st1" d="M608.2,574.9c7.7-2.2,14.7-5.5,20.8-9.7l0.8,1.1c-0.6,0.4-1.1,0.9-1.6,1.7c-1.2,2.2-0.4,5.1,1.8,6.2l1,0.6
					c-6.2,3.8-13.1,6.9-20.5,9s-14.8,3-22.2,2.9l0.6-1c1.2-2.2,0.4-5.1-1.8-6.2c-0.7-0.4-1.5-0.5-2.2-0.6l0.1-1.3
					C592.8,577.8,600.5,577,608.2,574.9z"/>
				<path class="st1" d="M587.4,579.4c2.2,1.2,3,4,1.8,6.2l-0.6,1c-3.4,0-6.7-0.3-10.1-0.7l2.7-4.9c0.8-1.6,2.5-2.4,4-2.4
					C585.8,578.8,586.6,579,587.4,579.4z"/>
				<path class="st1" d="M588.5,586.7l-38.2,67.8L535.7,602l-52.4,14.6l38.2-67.8c1.8,2.9,3.7,5.6,5.9,8.2l-25.3,44.8l39.9-11.1
					l11.1,39.9l25.2-44.8C581.7,586.4,585.1,586.7,588.5,586.7z"/>
				<path class="st1" d="M531.1,546.9c12.3,17.9,32.4,29.2,54.1,30.6l-0.1,1.3c-1.7,0-3.2,0.8-4,2.4l-2.7,4.9
					c-20-2.7-38.2-13.2-51-28.8l2.7-4.9c0.8-1.6,0.7-3.3-0.1-4.7L531.1,546.9z"/>
				<path class="st1" d="M530,547.7c0.8,1.3,0.9,3.2,0.1,4.7l-2.7,4.9c-2.2-2.6-4.1-5.4-5.9-8.2l0.6-1c1.2-2.2,4-3,6.2-1.8
					C529,546.5,529.6,547,530,547.7z"/>
			</g>
		</g>
	</g>
	<g>
		<g id="XMLID_1_">
			<g>
				<path class="st1" d="M409.3,471.7c0.9,2,0.2,4.4-1.8,5.3l-33.9,16.7c-0.2,0.1-0.5,0.2-0.7,0.2c-1.8,0.5-3.7-0.3-4.6-2.1
					c-0.9-2-0.2-4.4,1.8-5.3l33.9-16.8C405.9,469,408.2,469.7,409.3,471.7z"/>
				<path class="st1" d="M334.4,325.9c0.6,1.6,0.3,3.4-1.1,4.6l-3.3,2.8c-0.1,0-0.2-0.1-0.2-0.1c-0.1,0-0.1,0-0.2-0.1
					c-0.1,0-0.2-0.1-0.2-0.1c-0.1,0-0.1-0.1-0.2-0.1s-0.1,0-0.2-0.1c-0.3-0.2-0.4-0.4-0.6-0.7c-0.1,0-0.1-0.2-0.2-0.2
					c-0.1-0.1-0.1-0.2-0.1-0.3c0-0.1-0.1-0.2-0.1-0.2c-0.1-0.2-0.2-0.5-0.3-0.8v-0.1c-0.1-0.2-0.1-0.4-0.1-0.7c-0.1-2.2,1.7-4,3.8-4
					C332.4,325.6,333.4,325.8,334.4,325.9z"/>
				<path class="st1" d="M333.8,324.9c0.3,0.3,0.4,0.6,0.6,1c-1-0.2-2.2-0.3-3.1-0.3c-2.2,0.1-3.9,1.9-3.8,4c0,0.3,0.1,0.4,0.1,0.7
					c0-0.1-0.2-0.6-0.4-1.3c-0.2-0.7-0.5-1.7-0.8-2.9l2-1.7C329.9,323,332.5,323.3,333.8,324.9z"/>
				<path class="st1" d="M330,333.3l3.3-2.8c1.3-1.1,1.8-3,1.1-4.6l0,0c0.4,1.6,0.7,2.6,0.7,2.8c0.4,2.1-0.8,4.2-3,4.8
					c-0.2,0.1-0.5,0.1-0.7,0.1c-0.1,0-0.3,0-0.5,0c-0.1,0-0.2,0-0.3-0.1c-0.1,0-0.2-0.1-0.4-0.1l0,0
					C330.2,333.3,330.1,333.3,330,333.3L330,333.3z"/>
				<path class="st1" d="M332.2,333.4c2.1-0.4,3.4-2.6,3-4.8c-0.1-0.2-0.3-1.2-0.7-2.8c7.3,1.3,13.8,8.1,16.4,17.4
					c2.9,10.5-0.1,20.5-7,25c-0.2,14.8-4.6,28.9-12.2,40.2l3.7,9.1c-0.3-0.6-0.8-1.2-1.3-1.6c-1.9-1.2-4.2-0.6-5.5,1.1l-1,1.8
					l-4.8-11.6l1.3-1.8c8-10.8,12.2-24.8,12-39.7v-2.8l2.6-1c4.8-1.9,6.9-9.1,4.9-16.7c-2-7-6.9-12-11.7-11.9
					C331.7,333.5,331.9,333.4,332.2,333.4z"/>
				<path class="st1" d="M322.9,300.8c6.7,10.2,10.2,20.3,11.6,25.2l0,0c-0.2-0.3-0.3-0.7-0.6-1c-1.5-1.7-3.8-1.9-5.6-0.5l-2,1.7
					c-1.3-4-3.7-10.5-7.6-17.1c1.2-0.9,2.5-2,3.6-3.1C323.8,304.5,324,302.3,322.9,300.8L322.9,300.8z"/>
				<path class="st1" d="M322.9,300.8c1.1,1.6,0.9,3.8-0.5,5.1c-1.2,1-2.4,2.1-3.6,3.1c-1.3-2.2-2.7-4.5-4.4-6.6
					c0.9-0.7,1.8-1.5,2.7-2.3c1.7-1.5,4.1-1.3,5.6,0.2C322.6,300.5,322.7,300.6,322.9,300.8z"/>
				<path class="st1" d="M330.7,333.4c0.1,0,0.1,0,0.3,0.1C330.8,333.5,330.8,333.4,330.7,333.4z"/>
				<path class="st1" d="M330.4,333.3c0.1,0,0.2,0.1,0.4,0.1C330.6,333.4,330.5,333.4,330.4,333.3z"/>
				<path class="st1" d="M330,333.3c0.1,0,0.2,0.1,0.4,0.1C330.2,333.3,330.1,333.3,330,333.3z"/>
				<path class="st1" d="M329.8,333.2c0.1,0,0.2,0.1,0.2,0.1C329.9,333.2,329.8,333.2,329.8,333.2z"/>
				<path class="st1" d="M330,333.3l-6.7,5.7l-2.2-7.9c0-0.1-0.1-0.2-0.1-0.4l5.4-4.6c0.4,1.1,0.7,2.2,0.8,2.9
					c0.2,0.7,0.3,1.2,0.4,1.3v0.1c0.1,0.3,0.2,0.5,0.3,0.8c0,0.1,0.1,0.2,0.1,0.2c0,0.1,0.1,0.2,0.1,0.3c0.1,0,0.1,0.2,0.2,0.2
					c0.2,0.3,0.4,0.5,0.6,0.7c0,0.1,0.1,0,0.2,0.1c0.1,0,0.1,0,0.2,0.1c0.1,0,0.2,0.1,0.2,0.1c0.1,0,0.2,0.1,0.2,0.1
					C329.8,333.2,329.9,333.2,330,333.3z"/>
				<path class="st1" d="M329.5,333c0.1,0,0.2,0.1,0.2,0.1S329.6,333.1,329.5,333z"/>
				<path class="st1" d="M329.2,332.8c0.1,0,0.1,0.1,0.2,0.1C329.3,332.9,329.2,332.9,329.2,332.8z"/>
				<path class="st1" d="M329,332.7c0.1,0,0.1,0,0.2,0.1C329,332.8,329,332.8,329,332.7z"/>
				<path class="st1" d="M328.1,331.8c0.1,0,0.1,0.2,0.2,0.2C328.2,332,328.1,331.9,328.1,331.8z"/>
				<path class="st1" d="M327.9,331.6c0,0.1,0.1,0.2,0.1,0.3C328,331.7,328,331.7,327.9,331.6z"/>
				<path class="st1" d="M327.8,331.3c0,0.1,0.1,0.2,0.1,0.2S327.8,331.4,327.8,331.3z"/>
				<path class="st1" d="M314.3,302.3c1.7,2.2,3.1,4.4,4.4,6.6c-6.1,4.9-13.1,8.3-21.2,10.6c-2.7,0.7-5.6,1.3-8.7,1.9
					c-10.7,1.8-20.4,0-29.8-1.8c-2.5-0.5-5.1-0.9-7.6-1.3c-9.6-1.6-17-0.4-22.1,3.1c-3.6,2.6-6.3,6.4-7,10.4c0.2-5.5,1-11.4,3-17.1
					c6.7-4.6,16-6,27.4-4.2c2.6,0.4,5.2,0.8,7.8,1.3c9.2,1.7,17.9,3.2,27.3,1.8C298.5,311.9,307,308.3,314.3,302.3z"/>
				<path class="st1" d="M321.1,331.1l2.2,7.9l-2,1.7c-0.4,0.4-0.9,0.6-1.5,0.7c-1.5,0.4-3.1,0-4.1-1.2c-0.4-0.4-0.6-0.9-0.7-1.5
					c-0.4-1.5,0-3.1,1.2-4.1l4.7-3.9C321,330.7,321,330.8,321.1,331.1z"/>
				<path class="st1" d="M321,330.6l-4.7,3.9c-1.2,1-1.7,2.6-1.2,4.1l-0.7-2.5l-23,6.4l0.9,3.4c-0.6-2.1-2.8-3.3-4.9-2.7l-3.8,1
					l-0.7-2.6c-0.7-2.5,0.8-5.2,3.3-5.9l28.9-8.1C317.5,327.1,320,328.4,321,330.6z"/>
				<path class="st1" d="M317.6,348.1l-2.7-9.5c0.1,0.5,0.4,1,0.7,1.5c1,1.2,2.6,1.7,4.1,1.2c0.5-0.1,1-0.4,1.5-0.7l2-1.7l2.8,9.9
					c0.7,2.5-0.8,5.2-3.3,5.9l-28.9,8.1c-2.5,0.7-5.2-0.8-5.9-3.3l-2.2-7.8l3.8-1c2.1-0.6,3.3-2.8,2.7-4.9l2.4,8.5L317.6,348.1
					L317.6,348.1z"/>
				<path class="st1" d="M336.7,421.3c0.5,1.2,1.6,2.3,2.9,2.7c0.4,0.1,0.9,0.3,1.6,0.3l41.8,0.5c5.8-0.3,12.1,1,19,4
					c10.5,4.7,19.2,13,24.4,23.2l23.5,46.3l-68.1,35.1c-0.2,0.1-0.5,0.2-0.7,0.3c-1.8,0.5-3.7-0.3-4.6-2c-1-1.9-0.2-4.2,1.8-5.3
					l61.1-31.6l-20-39.4c-4.4-8.7-11.7-15.6-20.6-19.6c-5.6-2.5-10.8-3.6-15.3-3.3H383l-41.9-0.4c-1.3,0-2.7-0.2-3.8-0.6
					c-2.4-0.7-4.5-2.3-5.9-4.2l3.7-5.9c0.6-1,0.8-2.3,0.4-3.4L336.7,421.3z"/>
				<path class="st1" d="M335.4,418c0.4,1.1,0.2,2.3-0.4,3.4l-3.7,5.9c-0.7-0.9-1.3-2-1.8-3l-2.2-5.4l1-1.8c1.2-1.9,3.6-2.4,5.5-1.1
					c0.6,0.4,1.1,1,1.3,1.6v0.1L335.4,418z"/>
				<path class="st1" d="M335.4,418l-0.2-0.3C335.3,417.8,335.4,417.9,335.4,418z"/>
				<path class="st1" d="M365.2,547.6c0.6,1.2,0.6,2.6-0.1,3.7l-18.5,33.4c1-1.9,0.4-4.2-1.5-5.3l-3.5-2l15.6-28l-36.9-72.5l4.7-8.1
					L365.2,547.6z"/>
				<path class="st1" d="M331.2,427.3l-20,31.3c-0.5,0.8-1.3,1.5-2.3,1.7s-2,0.2-2.8-0.2l-33.3-16.4c0.2-1.1,0.1-2.4,0-3.5l-0.9-5.7
					l34.5,17l20.7-32.4l2.2,5.4C329.9,425.3,330.4,426.4,331.2,427.3z"/>
				<path class="st1" d="M287.4,343.2c2.1-0.6,4.2,0.6,4.9,2.7s-0.6,4.2-2.7,4.9l-3.8,1l-2.1-7.6L287.4,343.2z"/>
				<path class="st1" d="M324.1,466.8l0.9,2l-4.7,8.1l-3.3-6.4c-0.6-1.2-0.6-2.6,0-3.6c0,0,0,0,0-0.1c0.4-0.6,0.9-1.2,1.7-1.7
					C320.8,464,323.1,464.7,324.1,466.8z"/>
				<path class="st1" d="M324.1,466.8c-0.9-2-3.3-2.7-5.3-1.8c-0.7,0.3-1.3,0.9-1.7,1.7l6.4-11.1c1.1-1.9,3.5-2.6,5.4-1.5
					s2.6,3.5,1.5,5.4l-5.4,9.2L324.1,466.8z"/>
				
					<rect x="271.4" y="345.9" transform="matrix(0.9633 -0.2685 0.2685 0.9633 -83.7212 87.5319)" class="st1" width="13.5" height="7.9"/>
				<path class="st1" d="M307.3,473c-0.1-1.3-0.8-2.5-1.9-3.1l7.5,4.1l4.2-7.4c-0.6,1.1-0.7,2.5,0,3.6l3.3,6.4l-2.7,4.6
					c-0.5,0.9-1.5,1.6-2.4,1.9s-2,0.1-3-0.3l-4.7-2.5L307.3,473z"/>
				<path class="st1" d="M346.1,585.3c-0.1,0.2-0.4,0.4-0.5,0.5C345.7,585.6,345.9,585.4,346.1,585.3z"/>
				<path class="st1" d="M345.5,585.7c-0.4,0.3-0.8,0.5-1.3,0.6c-0.9,0.3-2,0.1-3-0.3l0,0c-1.9-1-2.5-3.4-1.5-5.3l2-3.5l3.5,2
					c1.9,1,2.5,3.4,1.5,5.3c-0.1,0.2-0.3,0.5-0.5,0.7C345.9,585.4,345.7,585.6,345.5,585.7z"/>
				<path class="st1" d="M341.7,577.4l-2,3.5c-1,1.9-0.4,4.2,1.5,5.3l-33.2-19c-1.1-0.6-1.9-1.9-2-3.1l-6.5-88.4l8.2,4.6l6,81.1
					L341.7,577.4z"/>
				<path class="st1" d="M305.3,469.9c1,0.6,1.9,1.8,1.9,3.1l0.5,7.3l-8.2-4.6l-0.2-2.2c-0.1-2.2,1.5-4,3.6-4.2
					C303.9,469.3,304.6,469.5,305.3,469.9L305.3,469.9z"/>
				<path class="st1" d="M270.6,347.8l2.1,7.6l-3.8,1c-2.1,0.6-4.2-0.6-4.9-2.7s0.6-4.2,2.7-4.9L270.6,347.8z"/>
				<path class="st1" d="M270,345.3l0.7,2.6l-3.8,1c-2.1,0.6-3.3,2.8-2.7,4.9l-0.9-3.4l-22.9,6.4l0.7,2.5c-0.4-1.5-1.7-2.6-3.2-2.8
					l-6-0.9c-0.4-2.4,0.9-4.9,3.4-5.5l28.9-8.1C266.6,341.3,269.3,342.8,270,345.3z"/>
				<path class="st1" d="M303,469.4c-2.2,0.1-3.8,2-3.6,4.2l0.2,2.2l-9.3-5.1c-2-1-2.6-3.4-1.6-5.4s3.4-2.6,5.4-1.6l11.3,6.2
					C304.6,469.5,303.9,469.3,303,469.4z"/>
				<path class="st1" d="M272,434.4l0.9,5.7c0.2,1.1,0.2,2.4,0,3.5l-6.2-3.1c-1.1-0.5-1.9-1.7-2.2-2.8l0,0c-0.1-0.7-0.1-1.7,0.3-2.5
					c0.9-2,3.3-2.8,5.3-1.9L272,434.4z"/>
				<path class="st1" d="M266.7,440.5l6.2,3.1c-0.3,2.5-1.3,4.8-2.9,6.6c-0.9,1-1.9,1.9-3,2.5l-35.7,22.1
					c-4.1,2.2-8.1,5.9-11.5,10.9c-5.6,8-8.2,17.7-7.5,27.4l3.3,44l61-4.1c2.2-0.1,4,1.6,4.2,3.6c0.1,1.9-1.1,3.6-2.9,4
					c-0.2,0.1-0.5,0.1-0.7,0.1l-68.8,4.7l-3.8-51.8c-0.9-11.5,2.3-23,8.9-32.4c4.1-6,9-10.6,14.2-13.3l35.4-22
					c0.4-0.2,0.8-0.5,1.1-1c0.9-1,1.3-2.5,1.1-3.8l-0.6-3.6C264.7,438.8,265.5,439.9,266.7,440.5z"/>
				<path class="st1" d="M241,359.2l2.7,9.5l22.9-6.4l-2.4-8.5c0.6,2.1,2.8,3.3,4.9,2.7l3.8-1l2.2,7.8c0.7,2.5-0.8,5.2-3.3,5.9
					l-28.9,8.1c-2.5,0.7-5.2-0.8-5.9-3.3l-2.8-9.9l2.5,0.4c0.6,0.1,1.1,0,1.7-0.1c1.5-0.4,2.6-1.7,2.8-3.2
					C241.2,360.4,241.1,359.8,241,359.2z"/>
				<path class="st1" d="M241,359.2c0.1,0.5,0.2,1,0.1,1.7c-0.2,1.6-1.3,2.8-2.8,3.2c-0.5,0.1-1,0.2-1.7,0.1l-2.5-0.4l-2.2-8
					c0-0.1-0.1-0.2-0.1-0.4l6,0.9C239.3,356.6,240.6,357.8,241,359.2z"/>
				<path class="st1" d="M224.8,315.1c0.2-0.1,0.3-0.2,0.5-0.3c-2,5.7-2.8,11.6-3,17.1c0,0.1,0,0.1-0.1,0.2
					c-0.3,2.2-2.5,3.5-4.6,3.2c-2-0.4-3.3-2.2-3.2-4.1c0-0.1,0.1-0.3,0.1-0.4C215.6,324.6,219.3,319,224.8,315.1z"/>
				<path class="st1" d="M231.7,355.5c0,0.1,0.1,0.2,0.1,0.4l2.2,8l-8.9-1.3c0.1,0,0-0.1,0.1-0.1c0-0.1,0.1-0.2,0.1-0.2
					c0-0.1,0.1-0.2,0.1-0.3c0-0.1,0.1-0.2,0.1-0.3c0-0.1,0.1-0.2,0.1-0.3c0.1-0.3,0.2-0.6,0.1-0.9c0-0.3,0-0.6-0.1-0.9
					c0-0.1-0.1-0.3-0.1-0.5c0-0.1-0.5-1.8-1.1-4.6L231.7,355.5z"/>
				<path class="st1" d="M225.3,358.1c0.2,0.4,0.4,0.8,0.5,1.2c0.1,0.3,0.1,0.6,0.1,0.9s-0.1,0.6-0.1,0.9c0,0.1-0.1,0.2-0.1,0.3
					c0,0.1-0.1,0.2-0.1,0.3c0,0.1-0.1,0.2-0.1,0.3c0,0.1-0.1,0.2-0.1,0.2s0,0.1-0.1,0.1l-4.4-0.6c-1.6-0.2-2.8-1.3-3.2-2.8
					c0-0.1,0-0.1-0.1-0.2v-0.1c0-0.1,0-0.1,0-0.1c0.7-0.7,1.6-1.3,2.5-1.9C221.8,355.7,224.2,356.3,225.3,358.1z"/>
				<path class="st1" d="M224.5,354.5c0.6,2.8,1.1,4.5,1.1,4.6c0.1,0.2,0.1,0.3,0.1,0.5c-0.1-0.4-0.2-0.9-0.5-1.2
					c-1.1-1.9-3.5-2.4-5.4-1.2c-0.8,0.5-1.8,1.1-2.5,1.9c-0.1-0.4-0.1-0.8,0-1.3c0.3-2.2,2.3-3.6,4.5-3.3H224.5z"/>
				<path class="st1" d="M225.8,360.4c0-0.3,0-0.6-0.1-0.9C225.9,359.8,225.9,360.1,225.8,360.4z"/>
				<path class="st1" d="M225.8,360.4c0,0.3,0,0.6-0.1,0.9C225.7,361,225.8,360.7,225.8,360.4z"/>
				<path class="st1" d="M225.4,361.8c0-0.1,0.1-0.2,0.1-0.3C225.5,361.7,225.5,361.8,225.4,361.8z"/>
				<path class="st1" d="M225.3,362.1c0-0.1,0.1-0.2,0.1-0.3C225.4,362,225.4,362.1,225.3,362.1z"/>
				<path class="st1" d="M225.2,362.4c0-0.1,0.1-0.2,0.1-0.2C225.3,362.2,225.2,362.3,225.2,362.4z"/>
				<path class="st1" d="M224.3,363.4c0.1,0,0.2-0.1,0.2-0.2C224.5,363.3,224.4,363.3,224.3,363.4z"/>
				<path class="st1" d="M214.4,330.7c0,0.1-0.1,0.3-0.1,0.4l0,0c0.3-8.7,2.3-18.3,7-27.1c7.1-13.3,19.4-22.5,36.5-27.3
					s32.3-3.3,45.2,4.5c8.6,5.1,15,12.3,19.8,19.6l0,0c-0.1-0.1-0.2-0.3-0.3-0.4c-1.5-1.6-3.9-1.7-5.6-0.2c-0.8,0.8-1.7,1.6-2.7,2.3
					c-3.9-5.4-9-10.7-15.4-14.4c-11-6.5-24.1-7.8-39.1-3.6c-14.8,4.1-25.5,12-31.6,23.4c-1.2,2.3-2.3,4.7-3.1,7.1
					c-0.2,0.1-0.3,0.2-0.5,0.3C219.3,319,215.6,324.6,214.4,330.7z"/>
				<path class="st1" d="M224.1,363.6c-4,2.5-5.6,9.2-3.6,16.2c2.1,7.6,7.7,12.7,12.7,11.8l2.7-0.5l1.5,2.4
					c7.6,12.8,18.4,22.7,30.9,27.8l2.1,0.8l2,12.3l-1.9-0.9c-2-0.9-4.4-0.1-5.3,1.9c-0.4,0.8-0.5,1.7-0.3,2.5l-1.6-10.1
					c-12.4-5.6-23.4-15.5-31.3-28.1c-8.2-0.2-16-7.3-18.9-17.7c-2.6-9.1-0.6-18.1,4.7-23.1c0,0.1,0,0.1,0,0.1v0.1
					c0,0.1,0,0.1,0.1,0.2c0.4,1.3,0.6,2.2,0.6,2.4c0.6,2,2.8,3.1,4.8,2.6c0.1,0,0.1,0,0.2-0.1C223.5,363.8,223.8,363.7,224.1,363.6z
					"/>
				<path class="st1" d="M214.4,331.2c-0.1,2,1.2,3.7,3.2,4.1c2.2,0.3,4.2-1,4.6-3.2c0-0.1,0-0.1,0.1-0.2
					c-0.4,9.4,1.1,17.7,2.2,22.6l-2.6-0.4c-2.2-0.3-4.1,1.1-4.5,3.3c-0.1,0.5-0.1,0.9,0,1.3l0,0
					C216.2,353.8,213.8,343.4,214.4,331.2L214.4,331.2z"/>
				<path class="st1" d="M220.7,361.9l4.5,0.7c-0.1,0.2-0.3,0.4-0.6,0.6c0,0.1-0.2,0.1-0.2,0.2c-0.1,0.1-0.2,0.1-0.3,0.2
					c-0.2,0.1-0.5,0.3-0.8,0.4c-0.1,0-0.1,0-0.2,0.1c-2.1,0.5-4.1-0.5-4.8-2.6c-0.1-0.2-0.3-1-0.6-2.4
					C218,360.6,219.1,361.6,220.7,361.9z"/>
				<path class="st1" d="M217.4,358.7c0,0.1,0,0.1,0,0.1V358.7L217.4,358.7z"/>
				<path class="st1" d="M217.6,359.1c0-0.1,0-0.1-0.1-0.2C217.6,358.9,217.6,359,217.6,359.1z"/>
			</g>
		</g>
	</g>
	
		<rect x="438.2" y="303.4" transform="matrix(0.9633 -0.2685 0.2685 0.9633 -63.117 154.4855)" class="st1" width="190.1" height="9.2"/>
	
		<rect x="445.6" y="330" transform="matrix(0.9633 -0.2685 0.2685 0.9633 -69.991 157.448)" class="st1" width="190.1" height="9.2"/>
	
		<rect x="453.3" y="357.4" transform="matrix(0.9633 -0.2685 0.2685 0.9633 -77.0622 160.5253)" class="st1" width="190.1" height="9.2"/>
	<polygon class="st1" points="518.2,531.6 399.5,564.7 402.1,554.5 515.7,522.7 	"/>
	<g>
		<path class="st1" d="M453.5,235.3l42.9,52.3l-12.1,3.4L474,278.3l-26.5,7.4l-1.8,16.1l-12.1,3.3l8-66.5L453.5,235.3L453.5,235.3z
			 M448.6,275.9l19.3-5.4l-16.7-20.8L448.6,275.9z"/>
		<path class="st1" d="M497.2,223.1l26.2,18l13.1-29l10.3-2.9l16.6,59.7l-11.5,3.2l-11.7-41.9l-0.3,0.1l-11.4,25.8l-1.7,0.5
			l-23.1-16.2l-0.3,0.1l11.7,41.9l-11.5,3.2L487,226L497.2,223.1L497.2,223.1z"/>
		<path class="st1" d="M571.3,202.5l14.1,50.6l29-8.1l2.5,9l-40.5,11.3l-16.6-59.7L571.3,202.5L571.3,202.5z"/>
	</g>
</g>
<path class="st2" d="M750.8,1291.5"/>
<path class="st3" d="M717.1-512.5"/>
<path class="st3" d="M952.9-512.1"/>
<path class="st4" d="M0,305.4c44.2,19.6,66,14.8,76-4.3c10.6-20.4,7.1-57,3.2-96.8C75,161,70.4,113.9,83.4,80.4
	c17-44.1,64.9-64.5,185.7-21c32.8,11.9,67,22,101.5,29.6c82.2,18.1,166.1,21.8,237.4,0.3C659.3,73.9,704,45.4,737.1,0"/>
<path class="st3" d="M419.2-298.8"/>
<path class="st3" d="M422.1-394"/>
<path class="st3" d="M426.4-519.1"/>
<path class="st3" d="M616-541.9"/>
<g>
	<g class="st5">
		<rect x="812.7" y="36.4" width="115.8" height="25.7"/>
		<path d="M960.3,267.5v25.9c-65.8,2-128.9,25.1-179.6,66.5C825.8,306.2,890.3,273.5,960.3,267.5z"/>
		<path d="M921.8,113.5v143.2c-8.7,2.5-17.2,5.4-25.6,8.9V139.2h-12.8v132.2c-8.8,4.3-17.4,9.2-25.6,14.7V139.2h-12.8v156.1
			c-9.2,7-17.7,14.6-25.6,22.8V113.5H921.8z"/>
		<path d="M986.4,113.9c0,21.5-17.4,38.9-38.8,38.9v-25.7c7.3,0,13.2-5.9,13.2-13.2s-5.9-13.2-13.2-13.2H793.6
			c-7.3,0-13.2,5.9-13.2,13.2s5.9,13.2,13.2,13.2v25.7c-21.5,0-38.8-17.4-38.8-38.9S772.1,75,793.6,75c94.3,0,59.6,0,153.9,0
			C969,74.9,986.4,92.4,986.4,113.9z"/>
	</g>
	<rect x="717.1" class="st6" width="306.9" height="396.3"/>
</g>
</svg>
