<?xml version="1.0" encoding="utf-8"?>
<!-- Generator: Adobe Illustrator 25.3.1, SVG Export Plug-In . SVG Version: 6.00 Build 0)  -->
<svg version="1.1" id="Layer_1" xmlns="http://www.w3.org/2000/svg" xmlns:xlink="http://www.w3.org/1999/xlink" x="0px" y="0px"
	 viewBox="0 0 1024 768" style="enable-background:new 0 0 1024 768;" xml:space="preserve">
<style type="text/css">
	.st0{fill:#075985;}
	.st1{fill:#FFDE16;stroke:#000000;stroke-miterlimit:10;}
	.st2{fill:none;stroke:#FACC15;stroke-width:5;stroke-miterlimit:10;}
	.st3{fill:#FFFFFF;}
	.st4{opacity:0.12;}
	.st5{fill:none;}
</style>
<path class="st0" d="M1024,0v647.1c-38.3-1.6-79.4,48.6-114.3,40c-72-17.7-45.9-96.4-92-111.8C736.3,547.9,758,676.7,633.2,714
	c-136.8,27.8-243.5-91.1-270.7-14c-20.5,58.2-60.7,84.7-140.8,52.7C134,717.7,128,652.3,0,721.1V0H1024z"/>
<path class="st1" d="M717.1-512.5"/>
<path class="st1" d="M952.9-512.1"/>
<path class="st2" d="M0,305.4c44.2,19.6,66,14.8,76-4.3c10.6-20.4,7.1-57,3.2-96.8C75,161,70.4,113.9,83.4,80.4
	c17-44.1,64.9-64.5,185.7-21c32.8,11.9,67,22,101.5,29.6c82.2,18.1,166.1,21.8,237.4,0.3C659.3,73.9,704,45.4,737.1,0"/>
<path class="st1" d="M419.2-298.8"/>
<path class="st1" d="M422.1-394"/>
<path class="st1" d="M426.4-519.1"/>
<path class="st1" d="M616-541.9"/>
<g>
	<path class="st3" d="M576.6,578.7l-119-119l2.8-3.2c19.3-21.9,29.9-49.9,29.9-79c0-15.2-2.8-30-8.4-44l-0.6-1.6l36.2-95.4
		c0.5-1.2,0.2-2.5-0.7-3.4s-2.3-1.2-3.5-0.8l-97.2,36.9l-2-2.5c-0.4-0.5-0.8-0.8-1.3-1c-13.4-5-27.4-7.5-41.8-7.5
		c-65.9,0-119.5,53.6-119.5,119.5c0,22.5,6.3,44.5,18.4,63.5l1.9,3l-138,138c-0.6,0.6-0.9,1.4-0.9,2.3c0,0.9,0.3,1.7,0.9,2.3
		c1.2,1.2,3.4,1.2,4.6,0l137.2-137.2l3.2,3.8c5.3,6.5,11.5,12.5,18.2,17.8l4,3.1l-164,164c-0.6,0.6-1,1.4-1,2.3s0.3,1.7,1,2.3
		c1.2,1.2,3.4,1.2,4.6,0l164.8-164.8l3,1.8c18.6,11.2,39.9,17.2,61.7,17.2c29.1,0,57.1-10.6,79-29.9l3.2-2.8l119,119
		c1.2,1.2,3.4,1.2,4.6,0c0.6-0.6,1-1.4,1-2.3C577.5,580.2,577.2,579.4,576.6,578.7z M370.9,490.6c-62.3,0-113-50.7-113-113
		s50.7-113,113-113c8.8,0,17.5,1,26,3l14.3,3.4l-56.3,21.3c-1,0.4-1.8,1.3-2,2.3c-0.2,1.1,0.1,2.2,0.9,3l32.2,32.2l-85.8,85.8
		c-0.6,0.6-1,1.4-1,2.3s0.3,1.7,1,2.3c1.3,1.3,3.3,1.3,4.6,0l88.1-88.1c0.6-0.6,1-1.4,1-2.3s-0.3-1.7-1-2.3L362,296.6L508.8,241
		l-55.7,146.9l-30.7-30.7c-1.3-1.3-3.3-1.3-4.6,0l-90.4,90.4c-0.6,0.6-1,1.4-1,2.3s0.3,1.7,1,2.3c1.2,1.2,3.4,1.2,4.6,0l88.1-88.1
		L452,396c0.8,0.8,1.9,1.1,3,0.9s2-1,2.4-2l21-55.3l3.1,15.2c1.5,7.5,2.3,15.2,2.3,22.8C483.9,439.9,433.2,490.6,370.9,490.6z"/>
	<path class="st3" d="M453.8,513.7L336.6,631c-1.2,1.2-3.4,1.2-4.6,0c-0.6-0.6-1-1.4-1-2.3s0.3-1.7,1-2.3l117.2-117.2
		c0.6-0.6,1.5-1,2.3-1s1.7,0.3,2.3,1C455.1,510.4,455.1,512.5,453.8,513.7z"/>
	<path class="st3" d="M485.4,542.1c0,0.9-0.3,1.7-0.9,2.3l-42.8,42.8c-1.2,1.2-3.4,1.2-4.6,0c-0.6-0.6-1-1.4-1-2.3
		c0-0.9,0.3-1.7,1-2.3l42.8-42.8c1.2-1.2,3.4-1.2,4.6,0C485,540.4,485.4,541.2,485.4,542.1z"/>
	<path class="st3" d="M586.7,442.1l-42.8,42.8c-1.2,1.2-3.4,1.2-4.6,0c-1.3-1.3-1.3-3.3,0-4.6l42.8-42.8c1.3-1.3,3.3-1.3,4.6,0
		S588,440.8,586.7,442.1z"/>
	<path class="st3" d="M313.8,171.3c0,0.9-0.3,1.7-1,2.3L257,229.5c-1.2,1.2-3.4,1.2-4.6,0c-0.6-0.6-1-1.4-1-2.3c0-0.9,0.3-1.7,1-2.3
		l55.9-55.9c0.6-0.6,1.4-1,2.3-1s1.7,0.3,2.3,1C313.5,169.6,313.8,170.4,313.8,171.3z"/>
	<path class="st3" d="M191,294.2c0,0.9-0.3,1.7-1,2.3L148.5,338c-1.2,1.2-3.4,1.2-4.6,0c-0.6-0.6-1-1.4-1-2.3s0.3-1.7,1-2.3
		l41.5-41.5c0.6-0.6,1.5-0.9,2.3-0.9s1.7,0.3,2.3,0.9C190.6,292.5,191,293.3,191,294.2z"/>
	<path class="st3" d="M232.3,252.8c0,0.9-0.3,1.7-1,2.3l-15.7,15.7c-1.2,1.2-3.4,1.2-4.6,0c-1.3-1.3-1.3-3.3,0-4.6l15.7-15.7
		c0.6-0.6,1.4-0.9,2.3-0.9s1.7,0.3,2.3,0.9C232,251.2,232.3,252,232.3,252.8z"/>
	<path class="st3" d="M224.5,420.2c0,0.9-0.3,1.7-1,2.3l-78.2,78.2c-1.2,1.2-3.4,1.2-4.6,0c-0.6-0.6-1-1.4-1-2.3s0.3-1.7,1-2.3
		l78.2-78.2c0.6-0.6,1.4-1,2.3-1c0.9,0,1.7,0.3,2.3,1C224.1,418.5,224.5,419.3,224.5,420.2z"/>
	<path class="st3" d="M496.1,148.5c0,0.9-0.3,1.7-0.9,2.3l-56.7,56.7c-1.2,1.2-3.4,1.2-4.6,0c-0.6-0.6-1-1.4-1-2.3
		c0-0.9,0.3-1.7,1-2.3l56.7-56.7c1.3-1.3,3.3-1.3,4.6,0C495.8,146.8,496.1,147.7,496.1,148.5z"/>
	<path class="st3" d="M620.1,272.5c0,0.9-0.3,1.7-1,2.3l-8.5,8.5c-1.2,1.2-3.4,1.2-4.6,0c-0.6-0.6-1-1.4-1-2.3s0.3-1.7,1-2.3
		l8.5-8.5c0.6-0.6,1.4-1,2.3-1s1.7,0.3,2.3,1C619.8,270.8,620.1,271.6,620.1,272.5z"/>
	<path class="st3" d="M584.4,309.5l-51,51c-1.2,1.2-3.4,1.2-4.6,0c-0.6-0.6-0.9-1.4-0.9-2.3s0.3-1.7,0.9-2.3l51-51
		c0.6-0.6,1.4-1,2.3-1s1.7,0.3,2.3,1C585.7,306.2,585.7,308.2,584.4,309.5z"/>
	<path class="st3" d="M363.6,528.7c0,0.9-0.3,1.7-1,2.3l-8.6,8.6c-1.2,1.2-3.4,1.2-4.6,0c-1.3-1.3-1.3-3.3,0-4.6l8.6-8.6
		c0.6-0.6,1.4-0.9,2.3-0.9s1.7,0.3,2.3,0.9C363.3,527,363.6,527.8,363.6,528.7z"/>
	<path class="st3" d="M327.7,564.6c0,0.9-0.3,1.7-1,2.3L266.6,627c-1.2,1.2-3.4,1.2-4.6,0c-0.6-0.6-1-1.4-1-2.3s0.3-1.7,1-2.3
		l60.1-60.1c0.6-0.6,1.4-1,2.3-1s1.7,0.3,2.3,1C327.3,563,327.7,563.8,327.7,564.6z"/>
	<path class="st3" d="M229.6,358.2c0,0.9-0.3,1.7-1,2.3l-53.2,53.2c-1.2,1.2-3.4,1.2-4.6,0c-0.6-0.6-1-1.4-1-2.3s0.3-1.7,1-2.3
		l53.2-53.2c0.6-0.6,1.4-0.9,2.3-0.9s1.7,0.3,2.3,0.9C229.3,356.5,229.6,357.4,229.6,358.2z"/>
	<path class="st3" d="M150.3,439l-5,5c-1.2,1.2-3.4,1.2-4.6,0c-0.6-0.6-1-1.4-1-2.3s0.3-1.7,1-2.3l5-5c0.6-0.6,1.5-0.9,2.3-0.9
		s1.7,0.3,2.3,0.9C151.5,435.6,151.5,437.7,150.3,439z"/>
	<path class="st3" d="M409.5,178.3c0,0.9-0.3,1.7-1,2.3L385.1,204c-1.2,1.2-3.4,1.2-4.6,0c-0.6-0.6-1-1.4-1-2.3s0.3-1.7,1-2.3
		L404,176c0.6-0.6,1.5-0.9,2.3-0.9s1.7,0.3,2.3,0.9C409.2,176.7,409.5,177.5,409.5,178.3z"/>
	<path class="st3" d="M365.1,224.1l-5,5c-1.2,1.2-3.4,1.2-4.6,0c-0.6-0.6-1-1.4-1-2.3c0-0.9,0.3-1.7,1-2.3l5-5c0.6-0.6,1.5-1,2.3-1
		s1.7,0.3,2.3,1C366.4,220.8,366.4,222.8,365.1,224.1z"/>
	<path class="st3" d="M433.3,155.9l-5,5c-1.2,1.2-3.4,1.2-4.6,0c-1.3-1.3-1.3-3.3,0-4.6l5-5c0.6-0.6,1.5-1,2.3-1s1.7,0.3,2.3,1
		C434.5,152.6,434.5,154.7,433.3,155.9z"/>
</g>
<g>
	<g class="st4">
		<rect x="812.7" y="36.4" width="115.8" height="25.7"/>
		<path d="M960.3,267.5v25.9c-65.8,2-128.9,25.1-179.6,66.5C825.8,306.2,890.3,273.5,960.3,267.5z"/>
		<path d="M921.8,113.5v143.2c-8.7,2.5-17.2,5.4-25.6,8.9V139.2h-12.8v132.2c-8.8,4.3-17.4,9.2-25.6,14.7V139.2h-12.8v156.1
			c-9.2,7-17.7,14.6-25.6,22.8V113.5H921.8z"/>
		<path d="M986.4,113.9c0,21.5-17.4,38.9-38.8,38.9v-25.7c7.3,0,13.2-5.9,13.2-13.2s-5.9-13.2-13.2-13.2H793.6
			c-7.3,0-13.2,5.9-13.2,13.2s5.9,13.2,13.2,13.2v25.7c-21.5,0-38.8-17.4-38.8-38.9S772.1,75,793.6,75c94.3,0,59.6,0,153.9,0
			C969,74.9,986.4,92.4,986.4,113.9z"/>
	</g>
	<rect x="717.1" class="st5" width="306.9" height="396.3"/>
</g>
</svg>
