<?xml version="1.0" encoding="utf-8"?>
<!-- Generator: Adobe Illustrator 25.3.1, SVG Export Plug-In . SVG Version: 6.00 Build 0)  -->
<svg version="1.1" id="Layer_1" xmlns="http://www.w3.org/2000/svg" xmlns:xlink="http://www.w3.org/1999/xlink" x="0px" y="0px"
	 viewBox="0 0 745.3 1024" style="enable-background:new 0 0 745.3 1024;" xml:space="preserve">
<style type="text/css">
	.st0{fill:#4D4D4D;}
	.st1{fill:#FACC15;}
	.st2{fill:#FFFFFF;}
</style>
<path class="st0" d="M434.9,378.3"/>
<path class="st0" d="M418.9,378.8"/>
<g>
	<rect x="192" y="7.2" class="st1" width="361.2" height="80.2"/>
	<path class="st1" d="M652.8,728.5v80.8c-205.4,6.3-402.1,78.2-560.3,207.4C233,849.3,434.2,747,652.8,728.5z"/>
	<path class="st2" d="M532.7,248v446.9c-27.1,7.7-53.8,17-80,27.8V328.2h-40v412.6c-27.4,13.5-54.2,28.7-80,45.8V328.2h-40v486.9
		c-28.6,21.9-55.3,45.7-80,71.2V248H532.7z"/>
	<path class="st2" d="M734,249.2c0,67.1-54.3,121.5-121.2,121.5v-80.2c22.8,0,41.2-18.5,41.2-41.3s-18.4-41.3-41.2-41.3H132.5
		c-22.8,0-41.2,18.5-41.2,41.3s18.4,41.3,41.2,41.3v80.2c-67,0-121.2-54.4-121.2-121.5s54.3-121.5,121.2-121.5
		c294.3,0,186,0,480.3,0C679.8,127.6,734,182,734,249.2z"/>
</g>
</svg>
