<svg width="113" height="35" viewBox="0 0 113 35" fill="none" xmlns="http://www.w3.org/2000/svg">
<path d="M5.4126 12.0422H0C0 6.25 6.25 0 12.5 0V5.625C9.375 5.625 6.25 8.125 5.4126 12.0422Z" fill="#0B5999"/>
<path d="M21.7985 12.0422H27.1777C27.1777 6.25 21.25 0 15 0V5.625C18.125 5.625 20.9611 8.125 21.7985 12.0422Z" fill="#0B5999"/>
<path d="M49.1138 5.2825C47.9546 5.2825 47.0663 5.64542 46.4488 6.37125C45.8421 7.08625 45.5388 8.08292 45.5388 9.36125C45.5388 9.96792 45.6092 10.5258 45.75 11.035C45.9017 11.5333 46.1183 11.9612 46.4 12.3187C46.6925 12.6762 47.05 12.9579 47.4725 13.1637C47.9058 13.3587 48.4096 13.4562 48.9838 13.4562C49.3413 13.4562 49.65 13.4454 49.91 13.4237C50.17 13.3912 50.3758 13.3533 50.5275 13.31V9.26375H52.575V14.675C52.2933 14.7833 51.8167 14.9025 51.145 15.0325C50.4733 15.1625 49.6988 15.2275 48.8213 15.2275C48.0088 15.2275 47.2667 15.0975 46.595 14.8375C45.9233 14.5775 45.3492 14.1983 44.8725 13.7C44.4067 13.2017 44.0438 12.5896 43.7838 11.8637C43.5238 11.1379 43.3938 10.3037 43.3938 9.36125C43.3938 8.41875 43.5346 7.58458 43.8163 6.85875C44.1088 6.13292 44.5042 5.52083 45.0025 5.0225C45.5008 4.51333 46.0858 4.12875 46.7575 3.86875C47.4292 3.60875 48.1442 3.47875 48.9025 3.47875C49.4225 3.47875 49.8829 3.51667 50.2838 3.5925C50.6954 3.6575 51.0475 3.73333 51.34 3.82C51.6325 3.90667 51.8708 3.99875 52.055 4.09625C52.25 4.19375 52.3854 4.26417 52.4613 4.3075L51.8438 5.98125C51.5188 5.78625 51.1125 5.62375 50.625 5.49375C50.1483 5.35292 49.6446 5.2825 49.1138 5.2825ZM62.7738 10.7425C62.7738 11.4142 62.6763 12.0262 62.4813 12.5787C62.2863 13.1312 62.01 13.6025 61.6525 13.9925C61.295 14.3825 60.8617 14.6858 60.3525 14.9025C59.8542 15.1192 59.3017 15.2275 58.695 15.2275C58.0884 15.2275 57.5359 15.1192 57.0375 14.9025C56.5392 14.6858 56.1113 14.3825 55.7538 13.9925C55.3963 13.6025 55.1146 13.1312 54.9088 12.5787C54.7138 12.0262 54.6163 11.4142 54.6163 10.7425C54.6163 10.0708 54.7138 9.46417 54.9088 8.9225C55.1146 8.37 55.3963 7.89875 55.7538 7.50875C56.1221 7.11875 56.5554 6.82083 57.0538 6.615C57.5521 6.39833 58.0992 6.29 58.695 6.29C59.2909 6.29 59.8379 6.39833 60.3363 6.615C60.8454 6.82083 61.2788 7.11875 61.6363 7.50875C61.9938 7.89875 62.27 8.37 62.465 8.9225C62.6709 9.46417 62.7738 10.0708 62.7738 10.7425ZM60.7588 10.7425C60.7588 9.8975 60.5746 9.23125 60.2063 8.74375C59.8488 8.24542 59.345 7.99625 58.695 7.99625C58.045 7.99625 57.5359 8.24542 57.1675 8.74375C56.81 9.23125 56.6313 9.8975 56.6313 10.7425C56.6313 11.5983 56.81 12.2754 57.1675 12.7737C57.5359 13.2721 58.045 13.5212 58.695 13.5212C59.345 13.5212 59.8488 13.2721 60.2063 12.7737C60.5746 12.2754 60.7588 11.5983 60.7588 10.7425ZM68.5044 2.39C68.9594 2.39 69.3603 2.43333 69.7069 2.52C70.0536 2.59583 70.3136 2.66625 70.4869 2.73125L70.1132 4.35625C69.929 4.26958 69.7124 4.19917 69.4632 4.145C69.2249 4.09083 68.9649 4.06375 68.6832 4.06375C68.369 4.06375 68.1036 4.1125 67.8869 4.21C67.6703 4.29667 67.4969 4.42125 67.3669 4.58375C67.2369 4.74625 67.1449 4.94667 67.0907 5.185C67.0365 5.4125 67.0094 5.66167 67.0094 5.9325V6.50125H70.0969V8.1425H67.0094V15H65.0432V5.9C65.0432 4.80583 65.3303 3.95 65.9044 3.3325C66.4786 2.70417 67.3453 2.39 68.5044 2.39ZM74.7833 13.6187C75.39 13.6187 75.8504 13.5862 76.1645 13.5212V11.3437C76.0562 11.3112 75.8991 11.2787 75.6933 11.2462C75.4875 11.2137 75.26 11.1975 75.0108 11.1975C74.7941 11.1975 74.572 11.2137 74.3445 11.2462C74.1279 11.2787 73.9275 11.3383 73.7433 11.425C73.57 11.5117 73.4291 11.6362 73.3208 11.7987C73.2125 11.9504 73.1583 12.1454 73.1583 12.3837C73.1583 12.8496 73.3045 13.1746 73.597 13.3587C73.8895 13.5321 74.285 13.6187 74.7833 13.6187ZM74.6208 6.29C75.2708 6.29 75.8179 6.37125 76.262 6.53375C76.7062 6.69625 77.0583 6.92375 77.3183 7.21625C77.5891 7.50875 77.7787 7.86625 77.887 8.28875C78.0062 8.70042 78.0658 9.15542 78.0658 9.65375V14.805C77.7625 14.87 77.302 14.9458 76.6845 15.0325C76.0779 15.13 75.39 15.1788 74.6208 15.1788C74.1116 15.1788 73.6458 15.13 73.2233 15.0325C72.8008 14.935 72.4379 14.7779 72.1345 14.5612C71.842 14.3446 71.6091 14.0629 71.4358 13.7162C71.2733 13.3696 71.192 12.9417 71.192 12.4325C71.192 11.945 71.2841 11.5333 71.4683 11.1975C71.6633 10.8617 71.9233 10.5908 72.2483 10.385C72.5733 10.1683 72.947 10.0167 73.3695 9.93C73.8029 9.8325 74.2525 9.78375 74.7183 9.78375C74.935 9.78375 75.1625 9.8 75.4008 9.8325C75.6391 9.85417 75.8937 9.8975 76.1645 9.9625V9.6375C76.1645 9.41 76.1375 9.19333 76.0833 8.9875C76.0291 8.78167 75.9316 8.60292 75.7908 8.45125C75.6608 8.28875 75.482 8.16417 75.2545 8.0775C75.0379 7.99083 74.7616 7.9475 74.4258 7.9475C73.9708 7.9475 73.5537 7.98 73.1745 8.045C72.7954 8.11 72.4866 8.18583 72.2483 8.2725L72.0045 6.68C72.2537 6.59333 72.6166 6.50667 73.0933 6.42C73.57 6.33333 74.0791 6.29 74.6208 6.29ZM82.7 15H80.7337V6.50125H82.7V15ZM82.9112 4.015C82.9112 4.38333 82.792 4.67583 82.5537 4.8925C82.3154 5.10917 82.0337 5.2175 81.7087 5.2175C81.3729 5.2175 81.0858 5.10917 80.8475 4.8925C80.6091 4.67583 80.49 4.38333 80.49 4.015C80.49 3.63583 80.6091 3.33792 80.8475 3.12125C81.0858 2.90458 81.3729 2.79625 81.7087 2.79625C82.0337 2.79625 82.3154 2.90458 82.5537 3.12125C82.792 3.33792 82.9112 3.63583 82.9112 4.015ZM91.3997 7.8825C91.183 8.11 90.8959 8.42958 90.5384 8.84125C90.1918 9.25292 89.818 9.71333 89.4172 10.2225C89.0163 10.7208 88.6101 11.2462 88.1984 11.7987C87.7976 12.3404 87.4347 12.8604 87.1097 13.3587H91.4972V15H84.7372V13.7812C84.9755 13.3479 85.2734 12.8767 85.6309 12.3675C85.9884 11.8583 86.3568 11.3492 86.7359 10.84C87.1151 10.32 87.4888 9.82708 87.8572 9.36125C88.2363 8.89542 88.5722 8.48917 88.8647 8.1425H84.9484V6.50125H91.3997V7.8825ZM92.826 10.7912C92.826 10.0437 92.9343 9.38833 93.151 8.825C93.3785 8.26167 93.6764 7.79583 94.0447 7.4275C94.4131 7.04833 94.8356 6.76667 95.3122 6.5825C95.7889 6.3875 96.2764 6.29 96.7747 6.29C97.9447 6.29 98.8547 6.65292 99.5047 7.37875C100.166 8.10458 100.496 9.18792 100.496 10.6287C100.496 10.7371 100.491 10.8617 100.48 11.0025C100.48 11.1325 100.474 11.2517 100.463 11.36H94.8572C94.9114 12.0425 95.1497 12.5733 95.5722 12.9525C96.0056 13.3208 96.6285 13.505 97.441 13.505C97.9177 13.505 98.351 13.4617 98.741 13.375C99.1418 13.2883 99.456 13.1962 99.6835 13.0987L99.9435 14.7075C99.8352 14.7617 99.6835 14.8212 99.4885 14.8862C99.3043 14.9404 99.0877 14.9892 98.8385 15.0325C98.6002 15.0867 98.3402 15.13 98.0585 15.1625C97.7768 15.195 97.4897 15.2113 97.1972 15.2113C96.4497 15.2113 95.7997 15.1029 95.2472 14.8862C94.6947 14.6587 94.2397 14.35 93.8822 13.96C93.5247 13.5592 93.2593 13.0933 93.086 12.5625C92.9127 12.0208 92.826 11.4304 92.826 10.7912ZM98.5297 9.91375C98.5297 9.64292 98.4918 9.38833 98.416 9.15C98.3402 8.90083 98.2264 8.68958 98.0747 8.51625C97.9339 8.33208 97.7552 8.19125 97.5385 8.09375C97.3327 7.98542 97.0835 7.93125 96.791 7.93125C96.4877 7.93125 96.2222 7.99083 95.9947 8.11C95.7672 8.21833 95.5722 8.36458 95.4097 8.54875C95.2581 8.73292 95.1389 8.94417 95.0522 9.1825C94.9656 9.42083 94.906 9.66458 94.8735 9.91375H98.5297ZM102.824 6.7775C103.204 6.66917 103.697 6.56625 104.303 6.46875C104.91 6.37125 105.582 6.3225 106.318 6.3225C107.012 6.3225 107.591 6.42 108.057 6.615C108.523 6.79917 108.891 7.06458 109.162 7.41125C109.444 7.74708 109.639 8.15875 109.747 8.64625C109.866 9.12292 109.926 9.64833 109.926 10.2225V15H107.959V10.5312C107.959 10.0762 107.927 9.69167 107.862 9.3775C107.808 9.0525 107.71 8.7925 107.569 8.5975C107.439 8.39167 107.255 8.24542 107.017 8.15875C106.789 8.06125 106.508 8.0125 106.172 8.0125C105.923 8.0125 105.663 8.02875 105.392 8.06125C105.121 8.09375 104.921 8.12083 104.791 8.1425V15H102.824V6.7775Z" fill="#0B5999"/>
<path d="M43.1988 29.01C43.1988 28.5983 43.2583 28.2246 43.3775 27.8887C43.5075 27.5529 43.6754 27.2496 43.8813 26.9787C44.0979 26.7079 44.3417 26.4696 44.6125 26.2637C44.8942 26.0579 45.1867 25.8737 45.49 25.7112C45.165 25.3646 44.8996 24.9962 44.6938 24.6062C44.4988 24.2162 44.4013 23.8046 44.4013 23.3712C44.4013 22.4612 44.6775 21.7517 45.23 21.2425C45.7933 20.7333 46.53 20.4787 47.44 20.4787C47.9058 20.4787 48.3175 20.5437 48.675 20.6737C49.0433 20.8037 49.3467 20.9825 49.585 21.21C49.8233 21.4375 50.0021 21.7083 50.1213 22.0225C50.2513 22.3258 50.3163 22.6508 50.3163 22.9975C50.3163 23.3442 50.2567 23.6692 50.1375 23.9725C50.0292 24.2758 49.8775 24.5575 49.6825 24.8175C49.4875 25.0667 49.26 25.2996 49 25.5162C48.7508 25.7221 48.48 25.9062 48.1875 26.0687L50.4138 28.3112C50.5654 28.0296 50.69 27.7154 50.7875 27.3687C50.885 27.0112 50.9608 26.6646 51.015 26.3287L52.6562 26.54C52.6021 26.9733 52.4883 27.4554 52.315 27.9862C52.1417 28.5062 51.9142 29.0046 51.6325 29.4812C51.99 29.8821 52.3313 30.2992 52.6562 30.7325C52.9921 31.155 53.2683 31.5775 53.485 32H51.4375C51.3292 31.8158 51.1883 31.6154 51.015 31.3987C50.8525 31.1821 50.6792 30.9817 50.495 30.7975C50.0508 31.1983 49.5417 31.5233 48.9675 31.7725C48.3933 32.0217 47.7433 32.1463 47.0175 32.1463C46.2917 32.1463 45.685 32.0488 45.1975 31.8537C44.71 31.6587 44.3146 31.4096 44.0113 31.1062C43.7188 30.8029 43.5075 30.4671 43.3775 30.0987C43.2583 29.7304 43.1988 29.3675 43.1988 29.01ZM45.0838 28.88C45.0838 29.0642 45.1163 29.2537 45.1813 29.4487C45.2571 29.6437 45.3708 29.8279 45.5225 30.0012C45.685 30.1637 45.8908 30.2992 46.14 30.4075C46.4 30.5158 46.7088 30.57 47.0663 30.57C47.5538 30.57 47.9925 30.4942 48.3825 30.3425C48.7833 30.1908 49.1246 29.9742 49.4063 29.6925L46.5463 26.7837C46.3838 26.8704 46.2158 26.9733 46.0425 27.0925C45.8692 27.2117 45.7121 27.3579 45.5713 27.5312C45.4304 27.6937 45.3113 27.8887 45.2138 28.1162C45.1271 28.3329 45.0838 28.5875 45.0838 28.88ZM48.61 23.0787C48.61 22.7646 48.5071 22.4992 48.3013 22.2825C48.0954 22.055 47.7975 21.9412 47.4075 21.9412C46.9958 21.9412 46.6817 22.0658 46.465 22.315C46.2483 22.5642 46.14 22.8783 46.14 23.2575C46.14 23.5717 46.2267 23.8858 46.4 24.2C46.5733 24.5033 46.8117 24.7958 47.115 25.0775C47.3208 24.9692 47.5104 24.85 47.6838 24.72C47.8679 24.59 48.025 24.4437 48.155 24.2812C48.2958 24.1187 48.4042 23.94 48.48 23.745C48.5667 23.55 48.61 23.3279 48.61 23.0787ZM66.0038 30.4725C66.7405 30.4725 67.2768 30.3479 67.6126 30.0987C67.9484 29.8496 68.1163 29.4975 68.1163 29.0425C68.1163 28.7717 68.0568 28.5387 67.9376 28.3437C67.8293 28.1487 67.6668 27.9754 67.4501 27.8238C67.2443 27.6612 66.9897 27.515 66.6863 27.385C66.383 27.2442 66.0363 27.1087 65.6463 26.9787C65.2563 26.8379 64.8772 26.6862 64.5088 26.5237C64.1513 26.3504 63.8318 26.1392 63.5501 25.89C63.2793 25.6408 63.0572 25.3429 62.8838 24.9962C62.7213 24.6496 62.6401 24.2325 62.6401 23.745C62.6401 22.7267 62.9922 21.9304 63.6963 21.3562C64.4005 20.7712 65.3593 20.4787 66.5726 20.4787C67.2768 20.4787 67.8997 20.56 68.4413 20.7225C68.9938 20.8742 69.4272 21.0421 69.7413 21.2262L69.1076 22.8837C68.7393 22.6779 68.333 22.5208 67.8888 22.4125C67.4555 22.3042 67.0059 22.25 66.5401 22.25C65.9876 22.25 65.5543 22.3637 65.2401 22.5912C64.9368 22.8187 64.7851 23.1383 64.7851 23.55C64.7851 23.7992 64.8338 24.0158 64.9313 24.2C65.0397 24.3733 65.1859 24.5304 65.3701 24.6712C65.5651 24.8121 65.7872 24.9421 66.0363 25.0612C66.2963 25.1804 66.578 25.2942 66.8813 25.4025C67.4122 25.5975 67.8834 25.7979 68.2951 26.0037C68.7176 26.1987 69.0697 26.4371 69.3513 26.7187C69.6438 26.9896 69.8659 27.3146 70.0176 27.6937C70.1693 28.0621 70.2451 28.5117 70.2451 29.0425C70.2451 30.0608 69.8822 30.8517 69.1563 31.415C68.4413 31.9675 67.3905 32.2438 66.0038 32.2438C65.538 32.2438 65.1101 32.2113 64.7201 32.1463C64.3409 32.0921 63.9997 32.0217 63.6963 31.935C63.4038 31.8483 63.1493 31.7617 62.9326 31.675C62.7159 31.5775 62.5426 31.4908 62.4126 31.415L63.0138 29.7412C63.3063 29.9037 63.7018 30.0662 64.2001 30.2287C64.6984 30.3912 65.2997 30.4725 66.0038 30.4725ZM72.1957 32V19.715L74.162 19.39V23.5987C74.3786 23.5229 74.6278 23.4579 74.9095 23.4037C75.202 23.3496 75.4891 23.3225 75.7707 23.3225C76.4532 23.3225 77.0166 23.42 77.4607 23.615C77.9157 23.7992 78.2786 24.0646 78.5495 24.4112C78.8203 24.7471 79.0099 25.1533 79.1182 25.63C79.2374 26.1067 79.297 26.6375 79.297 27.2225V32H77.3307V27.5312C77.3307 27.0762 77.2982 26.6917 77.2332 26.3775C77.1791 26.0525 77.0816 25.7925 76.9407 25.5975C76.8107 25.3917 76.632 25.2454 76.4045 25.1587C76.177 25.0612 75.8953 25.0125 75.5595 25.0125C75.2995 25.0125 75.0341 25.0396 74.7632 25.0937C74.4924 25.1479 74.292 25.1967 74.162 25.24V32H72.1957ZM81.4262 27.7912C81.4262 27.0437 81.5346 26.3883 81.7512 25.825C81.9787 25.2617 82.2767 24.7958 82.645 24.4275C83.0133 24.0483 83.4358 23.7667 83.9125 23.5825C84.3892 23.3875 84.8767 23.29 85.375 23.29C86.545 23.29 87.455 23.6529 88.105 24.3787C88.7658 25.1046 89.0962 26.1879 89.0962 27.6287C89.0962 27.7371 89.0908 27.8617 89.08 28.0025C89.08 28.1325 89.0746 28.2517 89.0637 28.36H83.4575C83.5117 29.0425 83.75 29.5733 84.1725 29.9525C84.6058 30.3208 85.2287 30.505 86.0412 30.505C86.5179 30.505 86.9512 30.4617 87.3412 30.375C87.7421 30.2883 88.0562 30.1962 88.2837 30.0987L88.5437 31.7075C88.4354 31.7617 88.2837 31.8212 88.0887 31.8862C87.9046 31.9404 87.6879 31.9892 87.4387 32.0325C87.2004 32.0867 86.9404 32.13 86.6587 32.1625C86.3771 32.195 86.09 32.2113 85.7975 32.2113C85.05 32.2113 84.4 32.1029 83.8475 31.8862C83.295 31.6587 82.84 31.35 82.4825 30.96C82.125 30.5592 81.8596 30.0933 81.6862 29.5625C81.5129 29.0208 81.4262 28.4304 81.4262 27.7912ZM87.13 26.9137C87.13 26.6429 87.0921 26.3883 87.0162 26.15C86.9404 25.9008 86.8267 25.6896 86.675 25.5162C86.5342 25.3321 86.3554 25.1912 86.1387 25.0937C85.9329 24.9854 85.6837 24.9312 85.3912 24.9312C85.0879 24.9312 84.8225 24.9908 84.595 25.11C84.3675 25.2183 84.1725 25.3646 84.01 25.5487C83.8583 25.7329 83.7392 25.9442 83.6525 26.1825C83.5658 26.4208 83.5062 26.6646 83.4737 26.9137H87.13ZM96.2672 25.2725C96.1047 25.2183 95.8772 25.1642 95.5847 25.11C95.303 25.045 94.9726 25.0125 94.5934 25.0125C94.3768 25.0125 94.1439 25.0342 93.8947 25.0775C93.6564 25.1208 93.4884 25.1587 93.3909 25.1912V32H91.4247V23.9075C91.8039 23.7667 92.2751 23.6367 92.8384 23.5175C93.4126 23.3875 94.0464 23.3225 94.7397 23.3225C94.8697 23.3225 95.0214 23.3333 95.1947 23.355C95.368 23.3658 95.5414 23.3875 95.7147 23.42C95.888 23.4417 96.0559 23.4742 96.2184 23.5175C96.3809 23.55 96.5109 23.5825 96.6084 23.615L96.2672 25.2725ZM101.18 32.1625C100.595 32.1517 100.107 32.0867 99.7174 31.9675C99.3382 31.8483 99.0349 31.6804 98.8074 31.4638C98.5799 31.2362 98.4174 30.96 98.3199 30.635C98.2332 30.2992 98.1899 29.92 98.1899 29.4975V19.715L100.156 19.39V29.1237C100.156 29.3621 100.172 29.5625 100.205 29.725C100.248 29.8875 100.319 30.0283 100.416 30.1475C100.514 30.2558 100.644 30.3425 100.806 30.4075C100.979 30.4617 101.196 30.505 101.456 30.5375L101.18 32.1625ZM102.819 27.7912C102.819 27.0437 102.927 26.3883 103.144 25.825C103.372 25.2617 103.67 24.7958 104.038 24.4275C104.406 24.0483 104.829 23.7667 105.305 23.5825C105.782 23.3875 106.27 23.29 106.768 23.29C107.938 23.29 108.848 23.6529 109.498 24.3787C110.159 25.1046 110.489 26.1879 110.489 27.6287C110.489 27.7371 110.484 27.8617 110.473 28.0025C110.473 28.1325 110.467 28.2517 110.457 28.36H104.85C104.905 29.0425 105.143 29.5733 105.565 29.9525C105.999 30.3208 106.622 30.505 107.434 30.505C107.911 30.505 108.344 30.4617 108.734 30.375C109.135 30.2883 109.449 30.1962 109.677 30.0987L109.937 31.7075C109.828 31.7617 109.677 31.8212 109.482 31.8862C109.297 31.9404 109.081 31.9892 108.832 32.0325C108.593 32.0867 108.333 32.13 108.052 32.1625C107.77 32.195 107.483 32.2113 107.19 32.2113C106.443 32.2113 105.793 32.1029 105.24 31.8862C104.688 31.6587 104.233 31.35 103.875 30.96C103.518 30.5592 103.252 30.0933 103.079 29.5625C102.906 29.0208 102.819 28.4304 102.819 27.7912ZM108.523 26.9137C108.523 26.6429 108.485 26.3883 108.409 26.15C108.333 25.9008 108.22 25.6896 108.068 25.5162C107.927 25.3321 107.748 25.1912 107.532 25.0937C107.326 24.9854 107.077 24.9312 106.784 24.9312C106.481 24.9312 106.215 24.9908 105.988 25.11C105.76 25.2183 105.565 25.3646 105.403 25.5487C105.251 25.7329 105.132 25.9442 105.045 26.1825C104.959 26.4208 104.899 26.6646 104.867 26.9137H108.523Z" fill="#78787A"/>
<path d="M5.4126 14.9998H0C0 20.792 6.25 27.042 12.5 27.042V21.417C9.375 21.417 6.25 18.917 5.4126 14.9998Z" fill="#78787A"/>
<path d="M21.875 33.75H27.2168C27.2168 27.9578 21.25 21.875 15 21.4355V27.0259C18.125 27.5 21.0376 29.8328 21.875 33.75Z" fill="#78787A"/>
<path d="M38.75 31.25V5" stroke="#78787A" stroke-width="0.375"/>
<path d="M21.1266 14.8009L15 14.8008V20.9767C18.75 20.6248 20.625 18.1248 21.1266 14.8009Z" fill="#0B5999"/>
<path d="M0.000305176 33.6757L6.12695 33.6758V27.4999C2.37695 27.8518 0.501953 30.3518 0.000305176 33.6757Z" fill="#78787A"/>
</svg>
