<?xml version="1.0" encoding="utf-8"?>
<!-- Generator: Adobe Illustrator 25.3.1, SVG Export Plug-In . SVG Version: 6.00 Build 0)  -->
<svg version="1.1" id="Layer_1" xmlns="http://www.w3.org/2000/svg" xmlns:xlink="http://www.w3.org/1999/xlink" x="0px" y="0px"
	 viewBox="0 0 1024 768" style="enable-background:new 0 0 1024 768;" xml:space="preserve">
<style type="text/css">
	.st0{fill:#075985;}
	.st1{fill:#FFDE16;stroke:#000000;stroke-miterlimit:10;}
	.st2{fill:none;stroke:#FACC15;stroke-width:5;stroke-miterlimit:10;}
	.st3{fill:#FFFFFF;}
	.st4{opacity:0.12;}
	.st5{fill:none;}
</style>
<path class="st0" d="M1024,0v647.1c-38.3-1.6-79.4,48.6-114.3,40c-72-17.7-45.9-96.4-92-111.8C736.3,547.9,758,676.7,633.2,714
	c-136.8,27.8-243.5-91.1-270.7-14c-20.5,58.2-60.7,84.7-140.8,52.7C134,717.7,128,652.3,0,721.1V0H1024z"/>
<path class="st1" d="M717.1-512.5"/>
<path class="st1" d="M952.9-512.1"/>
<path class="st2" d="M0,305.4c44.2,19.6,66,14.8,76-4.3c10.6-20.4,7.1-57,3.2-96.8C75,161,70.4,113.9,83.4,80.4
	c17-44.1,64.9-64.5,185.7-21c32.8,11.9,67,22,101.5,29.6c82.2,18.1,166.1,21.8,237.4,0.3C659.3,73.9,704,45.4,737.1,0"/>
<path class="st1" d="M419.2-298.8"/>
<path class="st1" d="M422.1-394"/>
<path class="st1" d="M426.4-519.1"/>
<path class="st1" d="M616-541.9"/>
<path class="st3" d="M645.5,483.5l-6.7-3.7l6.4-4.2c11.2-7.4,18-19.7,18-33.1c0-21.4-16.8-38.7-38.1-39.5l-1.5-0.1
	c-0.5-1.5-3.1-6.3-3.4-6.8c-4.7-9.2-12-16.6-21.1-21.3l-7.2-3.8l7-4.3c9.9-6,15.8-16.5,15.8-28c0-18.1-14.7-32.8-32.9-32.8
	c-2,0-4.1,0.2-6.2,0.6l-4.5,0.9l-0.9-4.5c-2.2-11.5-9.4-21.2-19.8-26.8l-5.7-3.1l4.8-4.4c5.6-5,8.8-12.2,8.8-19.6
	c0-14.6-11.9-26.5-26.5-26.5s-26.5,11.9-26.5,26.5c0,7.4,3.2,14.6,8.8,19.6l4.8,4.4l-5.7,3.1c-4.9,2.7-9.1,6.3-12.6,10.9l-5,6.6
	l-15.2-38.9c-0.7-1.8-2.4-2.9-4.2-2.9h-20.5c-0.3-0.7-0.6-1.3-1-1.9L439,224.1c-2.2-3.7-5.4-6.7-9.2-8.7l-20-10.7l1.4-2.1
	c3.3-4.9,5-10.5,5-16.4c0-16.1-13.1-29.2-29.1-29.4c-16,0.2-29.1,13.2-29.1,29.4c0,5.8,1.7,11.5,5,16.4l1.4,2.1l-20,10.7
	c-3.8,2-7,5-9.2,8.7l-15.7,25.8c-0.4,0.6-0.7,1.3-1,1.9H298c-1.9,0-3.6,1.1-4.2,2.9l-15.2,38.9l-5-6.6c-3.5-4.6-7.7-8.3-12.6-10.9
	l-5.7-3.1l4.8-4.4c5.6-5,8.8-12.2,8.8-19.6c0-14.6-11.9-26.5-26.5-26.5s-26.5,11.9-26.5,26.5c0,7.4,3.2,14.6,8.8,19.6l4.8,4.4
	l-5.7,3.1c-10.3,5.6-17.5,15.4-19.8,26.8l-0.9,4.5l-4.5-0.9c-2.1-0.4-4.2-0.6-6.2-0.6c-18.1,0-32.9,14.7-32.9,32.8
	c0,11.5,5.9,21.9,15.8,28l7,4.3l-7.2,3.8c-9.1,4.7-16.4,12.1-21.1,21.3c-0.3,0.6-2.9,5.4-3.4,6.8l-1.5,0.1
	c-21.4,0.8-38.1,18.1-38.1,39.5c0,13.3,6.7,25.7,18,33.1l6.4,4.2l-6.7,3.7c-19.2,10.5-31.1,30.6-31.1,52.4v29c0,2.5,2,4.6,4.6,4.6
	c2.5,0,4.6-2,4.6-4.6v-29c0-27.9,22.7-50.6,50.6-50.6c13.5,0,29.7,9.2,39.2,18.7l-47.5,122c-0.4,1.1-0.4,2.4,0.1,3.5s1.4,2,2.5,2.4
	c0.5,0.2,1.1,0.3,1.7,0.3c1.9,0,3.6-1.1,4.3-2.9l123.6-316.8l0.1-0.1c0.1-0.1,0.1-0.2,0.1-0.4l0.1-0.1l19.8-50.9H318l0.7,3.2
	l0.6,1.2c1.1,2,2.6,3.6,4.4,5l33.3,24.4c2,1.4,4.3,2.2,6.7,2.2c2.8,0,5.6-1,7.6-2.9c2.4-2.2,3.8-5.3,3.8-8.7c0-3.3-1.5-6.4-4-8.6
	L352,261l-0.1-0.1h70.7l-0.1,0.1l-19.1,15.8c-2.6,2.2-4,5.3-4,8.6c-0.1,3.3,1.3,6.5,3.8,8.7c2.1,1.9,4.8,2.9,7.6,2.9
	c2.4,0,4.7-0.8,6.7-2.2l33.3-24.4c1.8-1.4,3.3-3,4.4-5l0.6-1.2l0.7-3.2H473l19.8,50.9l0.1,0.1c0,0.1,0.1,0.3,0.1,0.4l0.1,0.1
	l123.6,316.8c0.7,1.8,2.4,2.9,4.3,2.9c0.6,0,1.1-0.1,1.7-0.3c1.1-0.4,2-1.3,2.5-2.4c0.5-1.1,0.5-2.3,0.1-3.5l-47.6-122
	c9.6-9.6,25.7-18.7,39.2-18.7c27.9,0,50.6,22.7,50.6,50.6v29c0,2.5,2,4.6,4.6,4.6c2.5,0,4.6-2,4.6-4.6v-29
	C676.6,514.1,664.7,494,645.5,483.5z M225.2,248.9c0-9.6,7.8-17.4,17.4-17.4c9.6,0,17.4,7.8,17.4,17.4c0,9.6-7.8,17.4-17.4,17.4
	C233,266.3,225.2,258.5,225.2,248.9z M168.9,338.8c0-13.1,10.6-23.7,23.7-23.7c13.1,0,23.7,10.6,23.7,23.7s-10.6,23.7-23.7,23.7
	C179.6,362.5,168.9,351.9,168.9,338.8z M150.8,473c-16.8,0-30.5-13.7-30.5-30.5S134,412,150.8,412s30.5,13.7,30.5,30.5
	C181.2,459.3,167.6,473,150.8,473z M236.8,402.5l-36.3,91.6l-4.9-4.1c-5.1-4.3-10.9-7.6-17.3-10l-7.2-2.7l5.8-5.1
	c8.6-7.5,13.5-18.4,13.5-29.7c0-16.3-9.8-30.8-25.1-36.8l-4.8-1.9l2.5-4.6c7-12.8,20.5-20.8,35.1-20.8c10,0,29.4,9,36.7,20
	c0.7,1.1,1.3,2.2,1.8,3.3C236.6,402,236.7,402.3,236.8,402.5c0.1,0.1,0.1,0.2,0.1,0.3C236.9,402.7,236.9,402.6,236.8,402.5z
	 M241,390.4l-5-4.8c-5.5-5.3-13.7-10.2-21.7-13.2l-7.7-2.8l6.5-5.1c8-6.3,12.5-15.7,12.5-25.7c0-9.5-4.1-18.5-11.3-24.7l-1.7-1.4
	l0.1-2.5c0.2-16.4,13.5-29.7,30-29.7c15.7,0,28.9,12.3,29.9,28l0.1,1L241,390.4z M364,186.3c0-12.9,10.4-23.3,23.2-23.5
	c12.8,0.2,23.2,10.6,23.2,23.5s-10.4,23.3-23.2,23.5C374.3,209.6,364,199.2,364,186.3z M450.7,260.9c-0.6,1.8-1.8,3.5-3.4,4.7
	L414,290c-1,0.8-2.1,1.1-3.3,1.1c-1.3,0-2.6-0.5-3.7-1.4c-1.2-1-1.9-2.6-1.9-4.2c0-1,0.3-2.8,1.9-4.2l24.3-20.4l3-2.5
	c0.6-0.5,1-1.3,1-2.1c0.1-0.8-0.2-1.6-0.7-2.2l-2-2.4L419.1,236c-0.5-0.6-1.3-1-2.1-1c-0.8-0.1-1.6,0.2-2.2,0.7
	c-1.2,1-1.3,3-0.3,4.2l10.2,11.9h-75.3l10.2-11.9c1-1.2,0.9-3.1-0.3-4.2c-0.6-0.5-1.3-0.8-2.2-0.7c-0.8,0.1-1.5,0.5-2.1,1
	l-13.5,15.7l-2,2.4c-0.5,0.6-0.8,1.4-0.7,2.2c0.1,0.8,0.4,1.5,1,2.1l3,2.5l24.3,20.4c1.7,1.4,1.9,3.2,1.9,4.2c0,1.6-0.6,3.1-1.9,4.2
	c-1,0.9-2.4,1.4-3.7,1.4c-1.2,0-2.3-0.3-3.3-1.1l-33.3-24.4c-1.7-1.2-2.8-2.9-3.4-4.7c-0.8-2.6-0.6-5.4,0.9-7.9l0.7-1.2l14.9-24.6
	c1.7-2.8,4-5,6.9-6.6l21.8-11.5l1.1,0.8c5,3.7,10.9,5.7,17.1,5.8c6.2-0.1,12.1-2,17.1-5.8l1.1-0.8l21.8,11.5
	c2.9,1.5,5.2,3.8,6.9,6.6l14.9,24.6l0.7,1.2C451.2,255.5,451.5,258.4,450.7,260.9z M581.6,315.1c13.1,0,23.7,10.6,23.7,23.7
	s-10.6,23.7-23.7,23.7c-13.1,0-23.7-10.7-23.7-23.7S568.6,315.1,581.6,315.1z M514.4,248.9c0-9.6,7.8-17.4,17.4-17.4
	c9.6,0,17.4,7.8,17.4,17.4c0,9.6-7.8,17.4-17.4,17.4C522.1,266.3,514.4,258.5,514.4,248.9z M501.8,309.5l0.1-1
	c1-15.7,14.1-28,29.9-28c16.4,0,29.8,13.3,30,29.7l0.1,2.5l-1.7,1.4c-7.2,6.3-11.3,15.3-11.3,24.7c0,10.1,4.6,19.4,12.5,25.7
	l6.5,5.1l-7.7,2.8c-8.1,3-16.2,7.9-21.7,13.2l-5,4.8L501.8,309.5z M596,480c-6.4,2.4-12.2,5.7-17.3,10l-4.9,4.1l-36.3-91.6
	c0,0.1-0.1,0.2-0.1,0.3c0,0,0.1-0.1,0.1-0.3c0.1-0.2,0.2-0.5,0.3-0.7c0.5-1.1,1.1-2.2,1.8-3.3c7.4-11,26.7-20,36.7-20
	c14.6,0,28.1,8,35.1,20.8l2.5,4.6l-4.8,1.9c-15.2,6-25.1,20.5-25.1,36.8c0,11.3,4.9,22.1,13.5,29.7l5.8,5.1L596,480z M593.1,442.5
	c0-16.8,13.7-30.5,30.5-30.5s30.5,13.7,30.5,30.5S640.4,473,623.6,473S593.1,459.3,593.1,442.5z"/>
<g>
	<g class="st4">
		<rect x="812.7" y="36.4" width="115.8" height="25.7"/>
		<path d="M960.3,267.5v25.9c-65.8,2-128.9,25.1-179.6,66.5C825.8,306.2,890.3,273.5,960.3,267.5z"/>
		<path d="M921.8,113.5v143.2c-8.7,2.5-17.2,5.4-25.6,8.9V139.2h-12.8v132.2c-8.8,4.3-17.4,9.2-25.6,14.7V139.2h-12.8v156.1
			c-9.2,7-17.7,14.6-25.6,22.8V113.5H921.8z"/>
		<path d="M986.4,113.9c0,21.5-17.4,38.9-38.8,38.9v-25.7c7.3,0,13.2-5.9,13.2-13.2s-5.9-13.2-13.2-13.2H793.6
			c-7.3,0-13.2,5.9-13.2,13.2s5.9,13.2,13.2,13.2v25.7c-21.5,0-38.8-17.4-38.8-38.9S772.1,75,793.6,75c94.3,0,59.6,0,153.9,0
			C969,74.9,986.4,92.4,986.4,113.9z"/>
	</g>
	<rect x="717.1" class="st5" width="306.9" height="396.3"/>
</g>
</svg>
