<?xml version="1.0" encoding="utf-8"?>
<!-- Generator: Adobe Illustrator 25.3.1, SVG Export Plug-In . SVG Version: 6.00 Build 0)  -->
<svg version="1.1" id="Layer_1" xmlns="http://www.w3.org/2000/svg" xmlns:xlink="http://www.w3.org/1999/xlink" x="0px" y="0px"
	 viewBox="0 0 1024 768" style="enable-background:new 0 0 1024 768;" xml:space="preserve">
<style type="text/css">
	.st0{fill:#075985;}
	.st1{fill:#FFDE16;stroke:#000000;stroke-miterlimit:10;}
	.st2{fill:none;stroke:#FACC15;stroke-width:5;stroke-miterlimit:10;}
	.st3{fill:#FFFFFF;}
	.st4{opacity:0.12;}
	.st5{fill:none;}
</style>
<path class="st0" d="M1024,0v647.1c-38.3-1.6-79.4,48.6-114.3,40c-72-17.7-45.9-96.4-92-111.8C736.3,547.9,758,676.7,633.2,714
	c-136.8,27.8-243.5-91.1-270.7-14c-20.5,58.2-60.7,84.7-140.8,52.7C134,717.7,128,652.3,0,721.1V0H1024z"/>
<path class="st1" d="M717.1-512.5"/>
<path class="st1" d="M952.9-512.1"/>
<path class="st2" d="M0,305.4c44.2,19.6,66,14.8,76-4.3c10.6-20.4,7.1-57,3.2-96.8C75,161,70.4,113.9,83.4,80.4
	c17-44.1,64.9-64.5,185.7-21c32.8,11.9,67,22,101.5,29.6c82.2,18.1,166.1,21.8,237.4,0.3C659.3,73.9,704,45.4,737.1,0"/>
<path class="st1" d="M419.2-298.8"/>
<path class="st1" d="M422.1-394"/>
<path class="st1" d="M426.4-519.1"/>
<path class="st1" d="M616-541.9"/>
<g>
	<path class="st3" d="M465.3,189.7h-9.4v-30.1c0-2.6-2.1-4.7-4.7-4.7H334.4c-2.6,0-4.7,2.1-4.7,4.7v30.1h-9.3
		c-2.6,0-4.7,2.1-4.7,4.7v258.4c0,2.6,2.1,4.7,4.7,4.7s4.7-2.1,4.7-4.7V199.1h135.5v48.2H421c-2.6,0-4.7,2.1-4.7,4.7
		c0,2.6,2.1,4.7,4.7,4.7h39.6v47.1H421c-2.6,0-4.7,2.1-4.7,4.7s2.1,4.7,4.7,4.7h39.6V359H421c-2.6,0-4.7,2.1-4.7,4.7
		s2.1,4.7,4.7,4.7h39.6v45.8H421c-2.6,0-4.7,2.1-4.7,4.7s2.1,4.7,4.7,4.7h39.6v18.6c0,2.6,2.1,4.7,4.7,4.7s4.7-2.1,4.7-4.7V194.4
		C470.1,191.7,467.9,189.7,465.3,189.7z M446.5,189.7H339.1v-25.4h107.4V189.7z"/>
	<path class="st3" d="M395.1,252c0,2.6-2.1,4.7-4.7,4.7h-9.5c-2.6,0-4.7-2.1-4.7-4.7s2.1-4.7,4.7-4.7h9.5
		C393,247.3,395.1,249.5,395.1,252z"/>
	<path class="st3" d="M363.7,252c0,2.6-2.1,4.7-4.7,4.7h-9.5c-2.6,0-4.7-2.1-4.7-4.7s2.1-4.7,4.7-4.7h9.5
		C361.6,247.3,363.7,249.5,363.7,252z"/>
	<path class="st3" d="M395.1,308.5c0,2.6-2.1,4.7-4.7,4.7h-9.5c-2.6,0-4.7-2.1-4.7-4.7s2.1-4.7,4.7-4.7h9.5
		C393,303.8,395.1,305.9,395.1,308.5z"/>
	<path class="st3" d="M363.7,308.5c0,2.6-2.1,4.7-4.7,4.7h-9.5c-2.6,0-4.7-2.1-4.7-4.7s2.1-4.7,4.7-4.7h9.5
		C361.6,303.8,363.7,305.9,363.7,308.5z"/>
	<path class="st3" d="M395.1,363.7c0,2.6-2.1,4.7-4.7,4.7h-9.5c-2.6,0-4.7-2.1-4.7-4.7s2.1-4.7,4.7-4.7h9.5
		C393,359,395.1,361.1,395.1,363.7z"/>
	<path class="st3" d="M363.7,363.7c0,2.6-2.1,4.7-4.7,4.7h-9.5c-2.6,0-4.7-2.1-4.7-4.7s2.1-4.7,4.7-4.7h9.5
		C361.6,359,363.7,361.1,363.7,363.7z"/>
	<path class="st3" d="M395.1,418.9c0,2.6-2.1,4.7-4.7,4.7h-9.5c-2.6,0-4.7-2.1-4.7-4.7s2.1-4.7,4.7-4.7h9.5
		C393,414.2,395.1,416.3,395.1,418.9z"/>
	<path class="st3" d="M363.7,418.9c0,2.6-2.1,4.7-4.7,4.7h-9.5c-2.6,0-4.7-2.1-4.7-4.7s2.1-4.7,4.7-4.7h9.5
		C361.6,414.2,363.7,416.3,363.7,418.9z"/>
	<path class="st3" d="M202.7,611.7c0,2.6-2.1,4.7-4.7,4.7c-3.3,0-6.7-0.4-9.8-1.2l-3.1-0.8l-2,2.5c-5.8,7.2-14.5,11.5-23.8,11.5
		c-7.4,0-14.5-2.7-20-7.5l-2.5-2.3l-3.1,1.5c-4.3,2.2-9,3.3-13.8,3.3c-16.7,0-30.3-13.6-30.3-30.3c0-12.6,7.5-23.7,19.2-28.2l3-1.1
		l0.2-3.2c0.9-12.6,11.4-22.3,23.9-22.3c0.2,0,0.5,0,0.8,0h0.2h0.2c0.1,0,0.2,0,0.3,0c2.3,0,4.4,1.7,4.7,4c0,0.2,0,0.4,0,0.7
		c0,1.3-0.5,2.6-1.4,3.5c-1,0.9-2.3,1.4-3.6,1.3H137c-0.3,0-0.8,0-1.1,0c-8,0-14.5,6.6-14.5,14.5c0,1.3,0.2,2.7,0.7,4
		c0.4,1.3,0.2,2.8-0.7,3.9c-0.8,1.2-2.1,2-3.5,2.1c-10.7,1-18.8,9.9-18.8,20.8c0,11.5,9.3,20.9,20.9,20.9c5.4,0,10.5-2.1,14.4-5.8
		c1-1,2.4-1.4,3.8-1.3c1.4,0.2,2.6,1,3.4,2.2c3.8,6.2,10.5,9.8,17.7,9.8c8.3,0,15.7-4.9,19.1-12.6c0.5-1.2,1.4-2.1,2.6-2.5
		c1.2-0.4,2.5-0.4,3.6,0.1c4.3,2,8.6,3,13.2,3C200.5,607,202.7,609.1,202.7,611.7z"/>
	<path class="st3" d="M317.8,493.4c0,2.7-0.4,5.6-1.2,8.3c-0.5,2.1-2.5,3.4-4.5,3.4c-0.4,0-0.9-0.1-1.3-0.2
		c-1.2-0.3-2.2-1.1-2.8-2.3c-0.7-1.1-0.8-2.4-0.4-3.6c0.5-1.9,0.9-3.8,0.9-5.7c0-11-9-20.1-20-20.1c-0.5,0-1.1,0-1.6,0.1
		c-0.3,0-0.7,0-1.2-0.1l-0.8-0.1h-0.2c-6.1,0-10.5,6.3-10.5,6.5c-0.9,1.3-2.4,2.2-3.9,2.2c-0.9,0-1.7-0.2-2.5-0.8
		c-2.2-1.4-2.8-4.3-1.4-6.5c2-3.1,6.1-7.3,11.5-9.4l3.8-1.5l-0.9-4c-4.3-19.2-21.5-33.1-41.2-33.1c-17.9,0-33.9,11.4-39.8,28.3
		l-2,5.7l5.9,0.9c6.8,1,13,3.5,18.4,7.7c2.1,1.6,2.4,4.6,0.9,6.6c-0.9,1.2-2.3,1.9-3.7,1.9c-1.1,0-2.1-0.3-2.8-1
		c-9.1-6.9-18.8-6.2-21.6-5.9l-0.5,0.1l-0.5,0.2c-15.9,6.1-26.7,21.8-27,38.7c0,2.5-2.2,4.6-4.8,4.6c-1.3,0-2.4-0.5-3.3-1.4
		c-0.9-0.9-1.3-2.1-1.3-3.4c0.1-9.9,3.2-19.7,8.9-28.1l2.1-3.1l-2.4-2.8c-6.3-7.5-15.5-11.8-25.4-11.8c-18.3,0-33.1,14.9-33.1,33.1
		c0,2.6-2.1,4.7-4.7,4.7s-4.7-2.1-4.7-4.7c0-23.5,19.1-42.5,42.5-42.5c11.9,0,23.3,5,31.4,13.8l3,3.3l3.5-2.6
		c2.5-1.9,5.1-3.4,7.7-4.7l2.3-1.1l0.4-2.5c4.2-25,25.5-43.2,50.8-43.2c25.1,0,47,18.7,50.9,43.4l0.5,3.4l3.4,0.7
		C307.8,467.3,317.8,479.4,317.8,493.4z"/>
	<path class="st3" d="M313.6,578.8c0,2.6-2.1,4.7-4.7,4.7c-6.6,0-13-1.7-18.6-4.9l-3.3-1.9l-2.6,2.6c-7,6.8-16.3,10.6-26.1,10.6
		c-12,0-23.4-5.8-30.4-15.5l-2-2.8l-3.3,1c-4.5,1.3-9.2,2-13.9,2c-2,0-3.9-0.1-6.2-0.4c-1.2-0.1-2.4-0.8-3.2-1.7
		c-0.8-1-1.1-2.2-1-3.5c0.3-2.6,2.6-4.4,5.2-4.2c2,0.2,3.5,0.3,5.1,0.3c6.1,0,12-1.3,17.6-3.8c1.1-0.5,2.5-0.5,3.6-0.1
		c1.2,0.4,2.2,1.3,2.6,2.5c4.5,10.3,14.7,16.9,25.8,16.9c9.7,0,18.7-5,23.9-13.3c0.8-1.2,2-2,3.4-2.2s2.8,0.3,3.8,1.3
		c5.2,5,12.1,7.9,19.5,7.9C311.6,574.1,313.6,576.3,313.6,578.8z"/>
	<path class="st3" d="M416.7,623.9l-6.8,2.7c-4.5,1.7-9.2,2.7-14,2.7c-12,0-23.4-5.8-30.4-15.5l-2-2.7l-3.3,1c-4.5,1.3-9.2,2-13.9,2
		c-0.3,0-0.5,0-0.9,0H343l-1.5,1.9c-7.1,8.7-17.7,13.7-29,13.7c-15.1,0-28.8-9-34.7-23c-0.5-1.2-0.5-2.4,0-3.6
		c0.4-1.2,1.4-2.1,2.5-2.5s2.4-0.5,3.6,0c1.2,0.4,2.1,1.3,2.6,2.5c4.4,10.5,14.7,17.2,25.9,17.2c9.9,0,18.9-5,24.1-13.6
		c1-1.5,2.7-2.4,4.6-2.2c2,0.2,3.6,0.3,5.1,0.3c6,0,12-1.3,17.6-3.8c1.2-0.5,2.5-0.5,3.6-0.1c1.2,0.4,2.2,1.3,2.6,2.5
		c4.5,10.3,14.7,16.9,25.8,16.9c9.7,0,18.7-5,23.9-13.3c0.8-1.2,2-2,3.4-2.2s2.8,0.3,3.8,1.3c5.2,5,12.2,7.9,19.5,7.9
		c15.5,0,28.2-12.7,28.2-28.2c0-14.7-10.9-26.7-25.5-28c-1.4-0.1-2.6-0.9-3.5-2.1c-0.8-1.2-1-2.6-0.7-3.9c0.5-1.9,0.9-3.7,0.9-5.7
		c0-11-9-20-20.1-20c-0.5,0-1.1,0-1.6,0.1c-1.8,0.2-3.7-0.8-4.6-2.4c-0.4-0.7-0.5-1.5-0.5-2.3v-0.2v-0.1c-0.1-23.2-19-42-42.2-42
		c-12,0-23.6,5.2-31.6,14.2c-0.9,1-2,1.5-3.2,1.6c-1.3,0.1-2.5-0.3-3.4-1.2c-2-1.7-2.2-4.7-0.4-6.7c9.7-11,23.8-17.5,38.6-17.5
		c25.1,0,47,18.7,50.9,43.5l0.5,3.4l3.4,0.7c13.4,2.7,23.4,14.7,23.6,28.4v3.5l3.3,1.1c15.1,5.1,25.3,19.2,25.4,35.2v6l5.8-1.2
		c10.3-2.1,18.9-8.2,24.5-17.1l0.3-0.7c3.2-7.2,3.8-13.2,3.7-17.3l9.3-2.7c0.2,3,0.2,7.2-0.8,12.2l-1.2,6.6l6.7-0.8
		c5.9-0.7,11.6-2.3,17.1-4.8c1.1-0.5,2.5-0.5,3.6-0.1c1.2,0.4,2.2,1.3,2.6,2.5c6,13.9,19.7,22.9,34.8,22.9
		c13.1,0,25.1-6.7,32.3-17.9c0.8-1.2,2-2,3.4-2.2s2.8,0.3,3.8,1.3c7.1,6.8,16.4,10.6,26.2,10.6c20.9,0,37.9-17.1,37.9-37.9
		c0-19.7-14.8-35.9-34.3-37.7c-1.4-0.1-2.6-0.9-3.5-2.1c-0.8-1.2-1-2.6-0.7-3.9c0.8-2.5,1.1-5.1,1.1-7.8c0-15.1-12.4-27.4-27.4-27.4
		c-0.8,0-1.5,0-2.2,0.1h0.1c-0.1,0-0.3,0-0.4,0h-0.4l-0.4,0.1c-8.2,1.1-12.8,5.7-14.8,8.1l-0.5-0.1c0,0.5-0.2,1-0.4,1.4l-0.1,0.1
		c-0.1,0.3-0.3,0.5-0.5,0.9c-1.4,1.6-3.9,2.2-5.9,1.1s-3-3.4-2.3-5.6c0.5-1.4,5.8-10.2,16.8-14l3.8-1.3l-0.7-4
		c-4.2-27.2-28-47.8-55.4-47.8c-26.1,0-48.5,17.7-54.6,43.2L510,453l5,1c7.2,1.4,17.7,4.8,27.4,13.1c2,1.6,2.2,4.7,0.5,6.7
		c-0.9,1.1-2.2,1.6-3.6,1.6c-0.8,0-2-0.2-3.1-1.1c-12.6-10.8-27.1-11.9-31.3-11.9c-0.1,0-0.2,0-0.3,0c-10.6-0.2-20.7,3.8-28.5,11.5
		c-8.2,8-12.9,18.6-13,30c0,1.3-0.5,2.4-1.4,3.3s-2.1,1.3-3.4,1.3c-2.6,0-4.7-2.2-4.6-4.8c0.2-13.9,5.8-26.9,15.9-36.6
		c7.8-7.4,17.3-12.1,27.6-13.7l3.5-0.5l0.7-3.5c5.6-31.2,32.7-53.9,64.5-53.9c32.8,0,60.8,24.5,65.1,57.1l0.4,3.3l3.3,0.9
		c0.1,0,0.3,0.1,0.4,0.1l0.5,0.1c17.7,3.1,30.6,18.3,30.6,36.3c0,0.4,0,0.9,0,1.2l-0.1,3.8l3.6,1.1c20.2,5.8,33.8,24,33.8,45.2
		c0,24.1-18.4,44.7-42.4,47.1c-10.7,1.1-21.1-1.4-30.1-7l-3.4-2.2l-2.7,3c-9,9.5-21.2,14.8-34.3,14.8c-15.9,0-30.6-7.9-39.4-21.1
		l-2.1-3.1l-3.5,1.1c-6.3,2-12.9,3-19.5,3c-0.8,0-1.6,0-2.4,0l-2.5-0.1l-1.5,2c-8.6,11-21.5,17.7-35.5,18.1l-2.8,0.1l-1.3,2.5
		c-6.6,12.6-19.2,20.3-33.3,20.3c-4.8,0-9.5-0.9-14-2.7l-0.8-0.3c-2.7-1.1-5.8-0.7-8.3,0.9C420.7,622.6,416.7,623.8,416.7,623.9"/>
	<path class="st3" d="M292.7,385.3c0,2.6-2.1,4.7-4.7,4.7s-4.7-2.1-4.7-4.7c0-12.6-13.1-22.9-29.1-22.9c-7.1,0-13.9,2.1-19.2,5.8
		c-1.3,0.9-2.8,1.1-4.4,0.5c-1.4-0.5-2.5-1.7-3-3.3c-3.9-15.3-17.9-26-34.1-26c-17.2,0-32.1,12.5-34.8,29c-0.3,1.7-1.5,3.2-3.2,3.7
		c-1.6,0.5-3.5,0.1-4.8-1.1c-5.6-5.6-13.9-8.7-22.9-8.7c-16.1,0-29.1,10.3-29.1,22.9c0,2.6-2.1,4.7-4.7,4.7s-4.7-2.1-4.7-4.7
		c0-17.8,17.3-32.3,38.5-32.3c6.6,0,13.1,1.4,18.8,4.2l4.4,2.1l2.1-4.4c7.4-15.3,22.9-24.7,40.2-24.7c16.6,0,31.7,9,39.5,23.3l2,3.7
		l3.9-1.4c4.8-1.7,9.9-2.6,15.2-2.6C275.5,353,292.7,367.4,292.7,385.3z"/>
	<path class="st3" d="M694.5,385.3c0,2.6-2.1,4.7-4.7,4.7c-2.6,0-4.7-2.1-4.7-4.7c0-12.6-13-22.9-29.1-22.9
		c-7.1,0-13.9,2.1-19.2,5.8c-1.3,0.9-2.8,1.1-4.4,0.5c-1.4-0.5-2.5-1.7-3-3.3c-3.9-15.3-17.9-26-34.1-26c-17.2,0-32.1,12.5-34.8,29
		c-0.3,1.7-1.5,3.2-3.2,3.7c-1.6,0.5-3.5,0.1-4.8-1.1c-5.6-5.6-13.9-8.7-22.9-8.7c-16.1,0-29.1,10.3-29.1,22.9
		c0,2.6-2.1,4.7-4.7,4.7s-4.7-2.1-4.7-4.7c0-17.8,17.3-32.3,38.5-32.3c6.6,0,13.1,1.4,18.8,4.2l4.4,2.1l2.1-4.4
		c7.4-15.3,22.9-24.7,40.2-24.7c16.6,0,31.7,9,39.5,23.3l2,3.7l4-1.4c4.8-1.7,9.9-2.6,15.2-2.6C677.3,353,694.5,367.4,694.5,385.3z"
		/>
</g>
<g>
	<g class="st4">
		<rect x="812.7" y="36.4" width="115.8" height="25.7"/>
		<path d="M960.3,267.5v25.9c-65.8,2-128.9,25.1-179.6,66.5C825.8,306.2,890.3,273.5,960.3,267.5z"/>
		<path d="M921.8,113.5v143.2c-8.7,2.5-17.2,5.4-25.6,8.9V139.2h-12.8v132.2c-8.8,4.3-17.4,9.2-25.6,14.7V139.2h-12.8v156.1
			c-9.2,7-17.7,14.6-25.6,22.8V113.5H921.8z"/>
		<path d="M986.4,113.9c0,21.5-17.4,38.9-38.8,38.9v-25.7c7.3,0,13.2-5.9,13.2-13.2s-5.9-13.2-13.2-13.2H793.6
			c-7.3,0-13.2,5.9-13.2,13.2s5.9,13.2,13.2,13.2v25.7c-21.5,0-38.8-17.4-38.8-38.9S772.1,75,793.6,75c94.3,0,59.6,0,153.9,0
			C969,74.9,986.4,92.4,986.4,113.9z"/>
	</g>
	<rect x="717.1" class="st5" width="306.9" height="396.3"/>
</g>
</svg>
