<?xml version="1.0" encoding="UTF-8"?>
<!-- Generator: Adobe Illustrator 25.3.1, SVG Export Plug-In . SVG Version: 6.00 Build 0)  -->
<svg version="1.1" id="Layer_1" xmlns="http://www.w3.org/2000/svg" xmlns:xlink="http://www.w3.org/1999/xlink" x="0px" y="0px" viewBox="0 0 512 512" style="enable-background:new 0 0 512 512;" xml:space="preserve">
<style type="text/css">
	.st0{fill:#37AEE2;}
	.st1{fill:#FFFFFF;}
</style>
<g id="TELEGRAM_ICON_1_">
	<path id="BACK_41_" class="st0" d="M356.3,512H155.7C69.7,512,0,442.3,0,356.3l0-200.6C0,69.7,69.7,0,155.7,0l200.6,0   C442.3,0,512,69.7,512,155.7v200.6C512,442.3,442.3,512,356.3,512z"/>
	<path id="LOGO_20_" class="st1" d="M378.1,166.5c-0.7,10.4-6.7,46.6-12.6,85.8L347,368.5c0,0-1.5,17-14.1,20s-33.3-10.4-37-13.3   c-3-2.2-55.5-35.5-74.7-51.8c-5.2-4.4-11.1-13.3,0.7-23.7c26.6-24.4,58.5-54.8,77.7-74c8.9-8.9,17.8-29.6-19.2-4.4l-104.3,70.3   c0,0-11.8,7.4-34,0.7c-22.2-6.7-48.1-15.5-48.1-15.5s-17.8-11.1,12.6-22.9v0l172.4-71c17-7.4,74.7-31.1,74.7-31.1   S380.3,141.3,378.1,166.5z"/>
</g>
</svg>