<?xml version="1.0" encoding="UTF-8"?>
<!-- Generator: Adobe Illustrator 25.3.1, SVG Export Plug-In . SVG Version: 6.00 Build 0)  -->
<svg version="1.1" id="Layer_1" xmlns="http://www.w3.org/2000/svg" xmlns:xlink="http://www.w3.org/1999/xlink" x="0px" y="0px" viewBox="0 0 512 512" style="enable-background:new 0 0 512 512;" xml:space="preserve">
<style type="text/css">
	.st0{fill:#9251A6;}
	.st1{fill:#FFFFFF;}
</style>
<g id="VIBER_ICON_1_">
	<path id="BACK_57_" class="st0" d="M356.3,512H155.7C69.7,512,0,442.3,0,356.3l0-200.6C0,69.7,69.7,0,155.7,0l200.6,0   C442.3,0,512,69.7,512,155.7v200.6C512,442.3,442.3,512,356.3,512z"/>
	<path id="LOGO_28_" class="st1" d="M374.9,137.9c-8-7.6-40.6-31.8-113-32.1c0,0-85.4-5.3-127.1,33.8   c-23.2,23.7-31.3,58.5-32.2,101.5c-0.9,43.1-2,123.8,74,145.7l0.1,0l0,33.4c0,0-0.5,13.5,8.2,16.3c10.5,3.3,16.7-6.9,26.7-18   c5.5-6.1,13.1-15,18.9-21.8c52,4.5,92-5.8,96.5-7.3c10.5-3.5,69.9-11.3,79.5-92C416.4,214.3,401.6,161.7,374.9,137.9z M383.9,291.5   c-8.2,67.4-56.3,71.7-65.2,74.6c-3.8,1.2-38.9,10.2-83,7.2l-47.9,53l0-61.1l-0.4-0.1c-64.3-18.3-62.1-86.8-61.4-122.8   c0.7-36,7.3-65.5,26.9-85.3c35.2-32.7,107.8-27.8,107.8-27.8c61.3,0.3,90.7,19.2,97.5,25.5C380.8,174.6,392.3,222,383.9,291.5z    M331.1,317.6l0,0.1c-3.2,5.9-7.6,11.3-13.1,16.5l-0.1,0.1c-7.1,6.1-14.1,8-20.8,5.8c-25.9-10.4-52.1-25.5-76.4-50.7   c-24.5-25.5-41-54.1-49.5-81l-0.9-3.9c-1.7-9.7,4.4-16.3,21.2-27.6l0.3-0.2c5.8-3.6,11.6-1.8,15.4,1.3c3.5,2.5,13.2,15.4,13.2,15.4   c1.9,2.9,15.3,19.5,12.2,27.4c-1.1,4.6-8.9,9.4-13.1,13.3l-0.3,0.3c-1.8,3-2.5,5-1.9,9.4l0.2,0.7c2.2,10.7,8.4,21,18.6,30.8   c10.1,9.8,19.9,15.6,29.2,17.9c1.3,0.3,6.3,1,9.5-3.1l6.3-8.1c3-4,10.3-6.6,17.5-2.5c4,2.3,11.1,6.8,15.6,10.2   c4.7,3.6,14.5,11.9,14.5,11.9C333.2,305.5,334.3,311.4,331.1,317.6z M266.1,215.2c7.5,0.4,13.4,2.8,17.5,7.1   c4,4.3,6.3,10.5,6.7,18.4c0,1.1-0.8,2-1.8,2.1h-0.1c-1,0-1.9-0.8-1.9-1.9c-0.3-7-2.2-12.3-5.6-15.8c-3.3-3.5-8.4-5.5-14.9-5.9   c-1.1-0.1-1.9-1-1.8-2.1C264.1,216,265.1,215.2,266.1,215.2z M305.5,247.3c0.3-13.4-3.6-24.7-11.6-33.6c-4-4.5-8.8-8-14.4-10.5   c-5.6-2.5-12.1-4-19.3-4.6c-1.1-0.1-1.9-1-1.8-2.1c0.1-1.1,1-1.9,2.1-1.8c15.4,1.2,27.6,6.6,36.3,16.3c8.7,9.7,12.9,21.9,12.6,36.3   c0,1.1-0.9,1.9-1.9,1.9h0C306.3,249.3,305.5,248.4,305.5,247.3z M251.9,176.9c0-1.1,0.9-2,1.9-2h0c21.2,0.2,39.1,7.4,53.4,21.7   c7.2,7.1,12.6,15.7,16.2,25.5c3.6,9.7,5.5,20.9,5.6,33.1c0,1.1-0.9,2-1.9,2h0c-1.1,0-1.9-0.9-1.9-2c-0.1-11.8-1.9-22.5-5.3-31.8   c-3.4-9.2-8.6-17.3-15.3-24c-6.8-6.7-14.4-11.9-22.8-15.3c-8.4-3.4-17.8-5.2-27.9-5.2C252.7,178.9,251.8,178,251.9,176.9z"/>
</g>
</svg>