<?xml version="1.0" encoding="UTF-8"?>
<!-- Generator: Adobe Illustrator 25.3.1, SVG Export Plug-In . SVG Version: 6.00 Build 0)  -->
<svg version="1.1" id="Layer_1" xmlns="http://www.w3.org/2000/svg" xmlns:xlink="http://www.w3.org/1999/xlink" x="0px" y="0px" viewBox="0 0 512 512" style="enable-background:new 0 0 512 512;" xml:space="preserve">
<style type="text/css">
	.st0{fill:#53D132;}
	.st1{fill-rule:evenodd;clip-rule:evenodd;fill:#FFFFFF;}
</style>
<g id="WHATSAPP_ICON_1_">
	<path id="BACK_63_" class="st0" d="M356.3,512H155.7C69.7,512,0,442.3,0,356.3l0-200.6C0,69.7,69.7,0,155.7,0l200.6,0   C442.3,0,512,69.7,512,155.7v200.6C512,442.3,442.3,512,356.3,512z"/>
	<path id="LOGO_31_" class="st1" d="M255.9,105.6c-83.1,0-150.5,67.4-150.5,150.5c0,28.4,7.9,55,21.6,77.7l-27.2,80.7l83.3-26.7   c21.6,11.9,46.3,18.7,72.7,18.7c83.1,0,150.5-67.4,150.5-150.4C406.4,173,339,105.6,255.9,105.6z M255.9,382.5   c-25.7,0-49.6-7.7-69.6-20.9l-48.6,15.6l15.8-47c-15.1-20.9-24.1-46.5-24.1-74.2c0-69.7,56.7-126.5,126.5-126.5   c69.7,0,126.5,56.7,126.5,126.5C382.4,325.8,325.7,382.5,255.9,382.5z M331.9,290.7c0.9,1.5,0.9,8.9-2.2,17.5   c-3.1,8.6-18.1,16.9-24.9,17.5c-6.8,0.6-6.8,5.5-44.3-9.2c-37.5-14.8-61.2-53.2-63-55.7c-1.8-2.5-15.1-20-15.1-38.1   c0-18.1,9.5-27.1,12.9-30.8c3.4-3.7,7.4-4.6,9.8-4.6c2.5,0,4.9,0.3,7.1,0.3c2.2,0,5.2-1.2,8.3,6.2c3.1,7.4,10.4,25.5,11.4,27.4   c0.9,1.8,1.5,4,0.3,6.5c-1.2,2.5-1.8,4-3.7,6.2c-1.8,2.2-3.9,4.8-5.5,6.5c-1.8,1.8-3.8,3.8-1.6,7.5c2.2,3.7,9.6,15.8,20.5,25.5   c14.1,12.6,26,16.5,29.7,18.3c3.7,1.8,5.8,1.5,8-0.9c2.2-2.5,9.2-10.8,11.7-14.5c2.5-3.7,4.9-3.1,8.3-1.8   c3.4,1.2,21.5,10.2,25.2,12C328.5,288.2,331,289.2,331.9,290.7z"/>
</g>
</svg>