<svg width="20" height="20" viewBox="0 0 20 20" fill="none" xmlns="http://www.w3.org/2000/svg">
<g id="facebook">
<path id="Vector" d="M5.58748 10.5868H7.54046V18.7097C7.54046 18.8701 7.66908 19 7.82782 19H11.1392C11.298 19 11.4266 18.8701 11.4266 18.7097V10.6251H13.6717C13.8177 10.6251 13.9405 10.5144 13.9572 10.3679L14.2982 7.37749C14.3075 7.29521 14.2817 7.21279 14.2272 7.1511C14.1727 7.08933 14.0947 7.05396 14.0127 7.05396H11.4266V5.17942C11.4266 4.61434 11.7278 4.32779 12.3218 4.32779C12.4065 4.32779 14.0127 4.32779 14.0127 4.32779C14.1714 4.32779 14.3 4.19781 14.3 4.03747V1.29248C14.3 1.13211 14.1714 1.00216 14.0127 1.00216H11.6824C11.666 1.00135 11.6296 1 11.5757 1C11.1714 1 9.76604 1.08019 8.65587 2.112C7.42582 3.25541 7.59681 4.62444 7.63766 4.86182V7.05385H5.58741C5.42867 7.05385 5.30005 7.18379 5.30005 7.34417V10.2964C5.30012 10.4568 5.42874 10.5868 5.58748 10.5868Z" fill="white"/>
<g id="Group">
<path id="Vector_2" d="M11.0354 19H7.82323C7.4718 19 7.18591 18.7141 7.18591 18.3627V10.922H5.65001C5.29859 10.922 5.0127 10.636 5.0127 10.2846V7.44998C5.0127 7.09855 5.29862 6.81266 5.65001 6.81266H7.28024V5.09563C7.22638 4.74836 7.10393 3.33989 8.38365 2.16237C9.55608 1.08385 11.0339 1 11.4588 1C11.5114 1 11.5489 1.00116 11.5705 1.00207H13.8228C14.1742 1.00207 14.4601 1.28796 14.4601 1.63939V4.27495C14.4601 4.62637 14.1742 4.91226 13.8228 4.91226H12.1826C11.754 4.91226 11.6728 5.07363 11.6728 5.3714V6.8127H13.8228C14.0043 6.8127 14.1776 6.89039 14.2984 7.02585C14.4193 7.16138 14.4766 7.34257 14.4558 7.52296L14.1251 10.3942C14.088 10.716 13.8159 10.9587 13.4919 10.9587H11.6726V18.3627C11.6727 18.7141 11.3868 19 11.0354 19ZM7.903 18.2829H10.9555V10.6002C10.9555 10.4022 11.1161 10.2416 11.3141 10.2416H13.4208L13.7332 7.52992H11.3142C11.1162 7.52992 10.9556 7.3694 10.9556 7.17136V5.3715C10.9556 4.63498 11.4143 4.19525 12.1826 4.19525H13.743V1.71923H11.5624C11.5565 1.71923 11.5506 1.71909 11.5447 1.7188C11.5392 1.71852 11.5093 1.71719 11.4589 1.71719C11.0995 1.71719 9.85065 1.78736 8.86923 2.69021C7.81918 3.65637 7.95429 4.78805 7.99208 5.00514C7.9956 5.02543 7.99736 5.04599 7.99736 5.06656V7.17126C7.99736 7.36929 7.8368 7.52982 7.6388 7.52982H5.72978V10.2049H7.54444C7.74244 10.2049 7.903 10.3654 7.903 10.5634V18.2829Z" fill="white"/>
<path id="Vector_3" d="M8.62516 13.9799C8.42716 13.9799 8.2666 13.8194 8.2666 13.6214V13.4421C8.2666 13.244 8.42716 13.0835 8.62516 13.0835C8.82316 13.0835 8.98372 13.244 8.98372 13.4421V13.6214C8.98375 13.8194 8.82316 13.9799 8.62516 13.9799Z" fill="white"/>
<path id="Vector_4" d="M8.62516 17.8524C8.42716 17.8524 8.2666 17.6919 8.2666 17.4938V14.7687C8.2666 14.5707 8.42716 14.4102 8.62516 14.4102C8.82316 14.4102 8.98372 14.5707 8.98372 14.7687V17.4938C8.98375 17.6918 8.82316 17.8524 8.62516 17.8524Z" fill="white"/>
</g>
</g>
</svg>
