<svg width="20" height="20" viewBox="0 0 20 20" fill="none" xmlns="http://www.w3.org/2000/svg">
<g id="instagram">
<g id="Group">
<path id="Vector" d="M13.6411 18.6631H6.35876C3.60208 18.6631 1.35938 16.4204 1.35938 13.6638V6.33634C1.35938 3.57962 3.60208 1.33691 6.35876 1.33691H13.6411C16.3977 1.33691 18.6405 3.57962 18.6405 6.33634V13.6638C18.6405 16.4204 16.3977 18.6631 13.6411 18.6631ZM6.35876 3.39142C4.73491 3.39142 3.41384 4.71248 3.41384 6.33634V13.6638C3.41384 15.2876 4.73491 16.6087 6.35876 16.6087H13.6411C15.2649 16.6087 16.586 15.2876 16.586 13.6638V6.33634C16.586 4.71248 15.2649 3.39142 13.6411 3.39142H6.35876Z" fill="white"/>
<path id="Vector_2" d="M10.0004 14.2863C7.63677 14.2863 5.71387 12.3634 5.71387 9.99987C5.71387 7.63628 7.63681 5.71338 10.0004 5.71338C12.3639 5.71338 14.2868 7.63631 14.2868 9.99987C14.2869 12.3634 12.364 14.2863 10.0004 14.2863ZM10.0004 7.71744C8.74186 7.71744 7.71794 8.74133 7.71794 9.99987C7.71794 11.2584 8.74183 12.2823 10.0004 12.2823C11.2589 12.2823 12.2828 11.2584 12.2828 9.99987C12.2828 8.74133 11.2589 7.71744 10.0004 7.71744Z" fill="white"/>
<path id="Vector_3" d="M14.3877 6.3695C13.9704 6.3695 13.6309 6.03003 13.6309 5.61273C13.6309 5.19543 13.9704 4.85596 14.3876 4.85596C14.8049 4.85596 15.1444 5.19543 15.1444 5.61273C15.1444 6.03003 14.805 6.3695 14.3877 6.3695Z" fill="white"/>
</g>
<g id="Group_2">
<path id="Vector_4" d="M13.6412 19.0227H6.35884C3.40395 19.0227 1 16.6187 1 13.6638V6.33642C1 3.38149 3.40395 0.977539 6.35884 0.977539H13.6412C16.596 0.977539 19 3.38149 19 6.33642V13.6639C19 16.6187 16.596 19.0227 13.6412 19.0227ZM6.35884 1.69646C3.80035 1.69646 1.71892 3.77789 1.71892 6.33638V13.6638C1.71892 16.2223 3.80035 18.3037 6.35884 18.3037H13.6412C16.1996 18.3037 18.281 16.2223 18.281 13.6638V6.33642C18.281 3.77792 16.1996 1.69649 13.6412 1.69649H6.35884V1.69646ZM13.6412 16.9682H6.35884C4.53678 16.9682 3.05447 15.4859 3.05447 13.6638V6.33642C3.05447 4.51435 4.53678 3.03208 6.35884 3.03208H13.6412C15.4632 3.03208 16.9455 4.51439 16.9455 6.33642V13.6639C16.9455 15.4859 15.4632 16.9682 13.6412 16.9682ZM6.35884 3.75096C4.93321 3.75096 3.77338 4.91078 3.77338 6.33638V13.6638C3.77338 15.0894 4.93321 16.2493 6.35884 16.2493H13.6412C15.0668 16.2493 16.2266 15.0894 16.2266 13.6638V6.33642C16.2266 4.91082 15.0668 3.75099 13.6412 3.75099H6.35884V3.75096Z" fill="white"/>
<path id="Vector_5" d="M10.0004 14.646C7.43864 14.646 5.35449 12.5618 5.35449 10C5.35449 7.43818 7.43867 5.354 10.0004 5.354C12.5622 5.354 14.6464 7.43818 14.6464 10C14.6464 12.5618 12.5623 14.646 10.0004 14.646ZM10.0004 6.07295C7.8351 6.07295 6.07344 7.83461 6.07344 10C6.07344 12.1653 7.8351 13.927 10.0004 13.927C12.1658 13.927 13.9275 12.1653 13.9275 10C13.9275 7.83461 12.1658 6.07295 10.0004 6.07295ZM10.0004 12.6419C8.54373 12.6419 7.35856 11.4567 7.35856 10C7.35856 8.54327 8.54373 7.35811 10.0004 7.35811C11.4572 7.35811 12.6423 8.54327 12.6423 10C12.6423 11.4567 11.4572 12.6419 10.0004 12.6419ZM10.0004 8.07702C8.94012 8.07702 8.07748 8.93967 8.07748 10C8.07748 11.0603 8.94012 11.923 10.0004 11.923C11.0608 11.923 11.9234 11.0603 11.9234 10C11.9234 8.93963 11.0608 8.07702 10.0004 8.07702Z" fill="white"/>
<path id="Vector_6" d="M14.3878 6.72913C13.7723 6.72913 13.2715 6.22842 13.2715 5.61288C13.2715 4.99733 13.7723 4.49658 14.3878 4.49658C15.0033 4.49658 15.504 4.99737 15.504 5.61288C15.504 6.22838 15.0033 6.72913 14.3878 6.72913ZM14.3878 5.21553C14.1687 5.21553 13.9904 5.39376 13.9904 5.61288C13.9904 5.83195 14.1687 6.01018 14.3878 6.01018C14.6069 6.01018 14.7851 5.83195 14.7851 5.61288C14.7851 5.3938 14.6069 5.21553 14.3878 5.21553Z" fill="white"/>
<path id="Vector_7" d="M9.42473 18.0163H6.04574C5.84721 18.0163 5.68628 17.8554 5.68628 17.6568C5.68628 17.4583 5.84721 17.2974 6.04574 17.2974H9.42473C9.62326 17.2974 9.78418 17.4583 9.78418 17.6568C9.78418 17.8554 9.62326 18.0163 9.42473 18.0163Z" fill="white"/>
<path id="Vector_8" d="M10.7907 18.0163H10.575C10.3765 18.0163 10.2156 17.8554 10.2156 17.6568C10.2156 17.4583 10.3765 17.2974 10.575 17.2974H10.7907C10.9892 17.2974 11.1502 17.4583 11.1502 17.6568C11.1502 17.8554 10.9893 18.0163 10.7907 18.0163Z" fill="white"/>
</g>
</g>
</svg>
