<svg width="70" height="70" viewBox="0 0 70 70" fill="none" xmlns="http://www.w3.org/2000/svg">
<g id="2 5" clip-path="url(#clip0_93_76)">
<g id="Group">
<path id="Vector" d="M64.1999 43.2999C65.1999 42.1999 65.8 40.7999 65.8 39.1999C65.8 35.7999 63 32.9999 59.5999 32.9999H47.7C48.9 29.3999 49.4 24.5999 49.4 22.5999V20.5999C49.4 16.0999 45.7 12.3999 41.2 12.3999H39.0999C38.1999 12.3999 37.2999 12.9999 37.0999 13.9999L36 18.4999C34.4 24.7999 29.5 31.6999 24.2999 32.8999C23.4 30.5999 21.2 28.9999 18.6 28.9999H6.29995C5.19995 28.9999 4.19995 29.8999 4.19995 31.0999V67.9999C4.19995 69.0999 5.09995 70.0999 6.29995 70.0999H18.6C21 70.0999 23.2 68.6999 24.2 66.5999L31.2 68.8999C33.5 69.6999 35.9 70.0999 38.2999 70.0999H55.5C58.9 70.0999 61.7 67.2999 61.7 63.8999C61.7 63.0999 61.5 62.2999 61.2999 61.5999C63.8999 60.8999 65.8 58.4999 65.8 55.6999C65.8 54.0999 65.1999 52.6999 64.1999 51.5999C65.1999 50.4999 65.8 49.0999 65.8 47.4999C65.8 45.8999 65.1999 44.3999 64.1999 43.2999ZM20.6 63.7999C20.6 64.8999 19.7 65.8999 18.5 65.8999H8.29995V33.0999H18.6C19.7 33.0999 20.7 33.9999 20.7 35.1999V63.7999H20.6ZM55.5 45.3999H59.5999C60.6999 45.3999 61.7 46.2999 61.7 47.4999C61.7 48.5999 60.7999 49.5999 59.5999 49.5999H55.5C54.4 49.5999 53.4 50.4999 53.4 51.6999C53.4 52.7999 54.2999 53.7999 55.5 53.7999H59.5999C60.6999 53.7999 61.7 54.6999 61.7 55.8999C61.7 56.9999 60.7999 57.9999 59.5999 57.9999H55.5C54.4 57.9999 53.4 58.8999 53.4 60.0999C53.4 61.2999 54.2999 62.1999 55.5 62.1999C56.5999 62.1999 57.5999 63.0999 57.5999 64.2999C57.5999 65.3999 56.7 66.3999 55.5 66.3999H38.2999C36.2999 66.3999 34.2999 66.0999 32.5 65.4999L24.7999 62.8999V36.9999C28 36.3999 31.2 34.3999 34 30.9999C36.7999 27.6999 39 23.3999 40 19.3999L40.7 16.4999H41.0999C43.3999 16.4999 45.2 18.2999 45.2 20.5999V22.5999C45.2 25.3999 44.2999 30.5999 43.2 32.9999H39C37.9 32.9999 36.9 33.8999 36.9 35.0999C36.9 36.2999 37.7999 37.1999 39 37.1999H59.5C60.5999 37.1999 61.5999 38.0999 61.5999 39.2999C61.5999 40.3999 60.7 41.3999 59.5 41.3999H55.4C54.3 41.3999 53.2999 42.2999 53.2999 43.4999C53.5 44.4999 54.4 45.3999 55.5 45.3999Z" fill="#35A8FC"/>
<path id="Vector_2" d="M14.4999 61.8001C15.5999 61.8001 16.5999 60.9001 16.5999 59.7001C16.5999 58.6001 15.6999 57.6001 14.4999 57.6001C13.2999 57.6001 12.3999 58.5001 12.3999 59.7001C12.3999 60.9001 13.3999 61.8001 14.4999 61.8001Z" fill="#35A8FC"/>
<path id="Vector_3" d="M43.2003 0C42.1003 0 41.1003 0.9 41.1003 2.1V6.3C41.1003 7.4 42.0003 8.4 43.2003 8.4C44.3003 8.4 45.3003 7.5 45.3003 6.3V2.1C45.3003 0.9 44.3003 0 43.2003 0Z" fill="#FF190A"/>
<path id="Vector_4" d="M34.5003 9L31.6003 6.1C30.8003 5.3 29.5003 5.3 28.7003 6.1C27.9003 6.9 27.9003 8.2 28.7003 9L31.6003 11.9C32.4003 12.7 33.7003 12.7 34.5003 11.9C35.3003 11.1 35.3003 9.8 34.5003 9Z" fill="#FF190A"/>
<path id="Vector_5" d="M57.6996 6.1C56.8996 5.3 55.5996 5.3 54.7996 6.1L51.8996 9C51.0996 9.8 51.0996 11.1 51.8996 11.9C52.6996 12.7 53.9996 12.7 54.7996 11.9L57.6996 9C58.4996 8.2 58.4996 6.9 57.6996 6.1Z" fill="#FF190A"/>
</g>
</g>
<defs>
<clipPath id="clip0_93_76">
<rect width="70" height="70" fill="white"/>
</clipPath>
</defs>
</svg>
