<svg width="99" height="95" viewBox="0 0 99 95" fill="none" xmlns="http://www.w3.org/2000/svg">
<g clip-path="url(#clip0_155_1009)">
<path d="M19.9549 81.0826C15.5322 76.7009 12.0045 71.4595 9.57759 65.6643C7.15071 59.8691 5.87329 53.6361 5.81986 47.3291C5.76643 41.0221 6.93807 34.7673 9.2664 28.9298C11.5947 23.0922 15.0331 17.7887 19.381 13.3288C23.7288 8.86891 28.899 5.34188 34.5899 2.95354C40.2808 0.5652 46.3784 -0.636631 52.5269 -0.581825C58.6755 -0.527018 64.7518 0.783327 70.4014 3.27275C76.051 5.76218 81.1606 9.38084 85.4323 13.9176C93.8674 22.8762 98.5348 34.8748 98.4293 47.3291C98.3238 59.7835 93.4538 71.6971 84.8682 80.504C76.2826 89.3108 64.6684 94.3064 52.5269 94.4146C40.3855 94.5228 28.6884 89.7351 19.9549 81.0826ZM78.9031 74.3851C85.8542 67.2547 89.7594 57.5839 89.7594 47.5001C89.7594 37.4162 85.8542 27.7454 78.9031 20.6151C71.9519 13.4847 62.524 9.47894 52.6936 9.47894C42.8631 9.47894 33.4353 13.4847 26.4841 20.6151C19.533 27.7454 15.6278 37.4162 15.6278 47.5001C15.6278 57.5839 19.533 67.2547 26.4841 74.3851C33.4353 81.5154 42.8631 85.5212 52.6936 85.5212C62.524 85.5212 71.9519 81.5154 78.9031 74.3851ZM38.8017 28.5001L75.8468 47.5001L38.8017 66.5001V28.5001Z" fill="white"/>
</g>
<defs>
<clipPath id="clip0_155_1009">
<rect width="99" height="95" fill="white"/>
</clipPath>
</defs>
</svg>
