<svg width="70" height="70" viewBox="0 0 70 70" fill="none" xmlns="http://www.w3.org/2000/svg">
<g id="4 1" clip-path="url(#clip0_93_96)">
<g id="Group">
<path id="Vector" d="M62.5 55.8001C63.3 54.8001 63.7 53.5001 63.7 52.1001V43.9001C63.7 43.1001 63.1 42.5001 62.3 42.5001H56.2C53.4 42.5001 51.1 44.8001 51.1 47.6001V52.1001C51.1 53.5001 51.5 54.7001 52.3 55.8001C51.4 56.0001 50.5 56.3001 49.6 56.7001C47.7 53.9001 44.6 51.9001 41 51.6001C42.3 50.2001 43.1 48.3001 43.1 46.2001V35.0001C43.1 34.2001 42.5 33.6001 41.7 33.6001H33.4C29.8 33.6001 26.9 36.5001 26.9 40.1001V46.2001C26.9 48.3001 27.7 50.1001 29 51.6001C25.4 51.9001 22.3 53.9001 20.4 56.7001C19.6 56.3001 18.7 56.0001 17.7 55.8001C18.4 54.8001 18.9 53.5001 18.9 52.1001V43.9001C18.9 43.1001 18.3 42.5001 17.5 42.5001H11.4C8.6 42.5001 6.3 44.8001 6.3 47.6001V52.1001C6.3 53.5001 6.7 54.7001 7.5 55.8001C3.2 56.5001 0 60.2001 0 64.6001V68.7001C0 69.4001 0.6 70.0001 1.4 70.0001H68.7C69.5 70.0001 70.1 69.4001 70.1 68.6001V64.5001C70 60.2001 66.8 56.5001 62.5 55.8001ZM9 47.6001C9 46.3001 10.1 45.2001 11.4 45.2001H16.1V46.9001C16.1 47.7001 15.4 48.4001 14.6 48.4001H9V47.6001ZM9 51.1001H14.7C15.2 51.1001 15.7 51.0001 16.2 50.8001V52.0001C16.2 54.0001 14.6 55.6001 12.6 55.6001C10.6 55.6001 9 54.0001 9 52.0001V51.1001ZM13.5 58.4001L12.6 59.3001L11.7 58.4001H13.5ZM18.4 63.1001V67.2001H2.7V64.5001C2.7 61.4001 4.9 58.9001 7.9 58.4001L11.6 62.1001C11.9 62.4001 12.2 62.5001 12.6 62.5001C13 62.5001 13.3 62.4001 13.6 62.1001L17.3 58.4001C18 58.5001 18.6 58.7001 19.2 59.0001C18.6 60.4001 18.4 61.7001 18.4 63.1001ZM35 51.5001C32.1 51.5001 29.7 49.1001 29.7 46.2001V44.4001H37.9C38.8 44.4001 39.7 44.2001 40.4 43.8001V46.2001C40.3 49.1001 37.9 51.5001 35 51.5001ZM37.4 54.2001L35 56.6001L32.6 54.2001H37.4ZM29.7 40.1001C29.7 38.0001 31.4 36.4001 33.4 36.4001H40.3V39.2001C40.3 40.6001 39.2 41.7001 37.8 41.7001H29.6V40.1001H29.7ZM48.9 67.3001H46.2H23.8H21.1V64.6001H30C30.8 64.6001 31.4 64.0001 31.4 63.2001C31.4 62.4001 30.8 61.8001 30 61.8001H21.2C21.8 57.9001 24.9 54.8001 28.8 54.3001L34 59.5001C34.3 59.8001 34.6 59.9001 35 59.9001C35.4 59.9001 35.7 59.8001 36 59.5001L41.2 54.3001C45.5 54.9001 48.9 58.6001 48.9 63.1001V67.3001ZM53.9 47.6001C53.9 46.3001 55 45.2001 56.3 45.2001H61V46.9001C61 47.7001 60.3 48.4001 59.5 48.4001H53.8V47.6001H53.9ZM53.9 51.1001H59.6C60.1 51.1001 60.6 51.0001 61.1 50.8001V52.0001C61.1 54.0001 59.5 55.6001 57.5 55.6001C55.5 55.6001 53.9 54.0001 53.9 52.0001V51.1001ZM58.3 58.4001L57.4 59.3001L56.5 58.4001H58.3ZM51.6 67.3001V63.2001C51.6 61.8001 51.3 60.4001 50.9 59.2001C51.5 58.9001 52.1 58.7001 52.8 58.6001L56.5 62.3001C56.8 62.6001 57.1 62.7001 57.5 62.7001C57.9 62.7001 58.2 62.6001 58.5 62.3001L62.2 58.6001C65.1 59.1001 67.4 61.6001 67.4 64.7001V67.4001H51.6V67.3001Z" fill="#35A8FC"/>
<path id="Vector_2" d="M41.7001 8.8999C41.2001 8.3999 40.3 8.3999 39.8 8.8999L33.1 15.5999L30.2001 12.6999C29.7001 12.1999 28.8 12.1999 28.3 12.6999C27.8 13.1999 27.8 14.0999 28.3 14.5999L32.2001 18.4999C32.5001 18.7999 32.8001 18.8999 33.2001 18.8999C33.6001 18.8999 33.9001 18.7999 34.2001 18.4999L41.9001 10.7999C42.3001 10.2999 42.3001 9.4999 41.7001 8.8999Z" fill="#FF190A"/>
<path id="Vector_3" d="M40.6 1.19982C39.9 0.899823 39.1 1.19982 38.8 1.89982C38.5 2.59982 38.8 3.39982 39.5 3.69982C43.5 5.49982 46 9.39982 46 13.7998C46 19.8998 41.1 24.7998 35 24.7998C28.9 24.7998 24 19.8998 24 13.7998C24 9.49982 26.5 5.49982 30.5 3.79982C31.2 3.49982 31.5001 2.69982 31.2001 1.99982C30.9001 1.29982 30.1 0.999823 29.4 1.29982C24.5 3.49982 21.3 8.39982 21.3 13.7998C21.3 21.3998 27.5 27.4998 35 27.4998C42.6 27.4998 48.7001 21.2998 48.7001 13.7998C48.7001 8.29982 45.5 3.39982 40.6 1.19982Z" fill="#FF190A"/>
<path id="Vector_4" d="M34.9996 0C34.1996 0 33.5996 0.6 33.5996 1.4C33.5996 2.2 34.1996 2.8 34.9996 2.8C35.7996 2.8 36.3996 2.2 36.3996 1.4C36.3996 0.6 35.7996 0 34.9996 0Z" fill="#35A8FC"/>
<path id="Vector_5" d="M35.9996 62.1998C35.6996 61.8998 35.3996 61.7998 34.9996 61.7998C34.5996 61.7998 34.2996 61.8998 33.9996 62.1998C33.6996 62.4998 33.5996 62.7998 33.5996 63.1998C33.5996 63.5998 33.6996 63.8998 33.9996 64.1998C34.2996 64.4998 34.5996 64.5998 34.9996 64.5998C35.3996 64.5998 35.6996 64.4998 35.9996 64.1998C36.2996 63.8998 36.3996 63.5998 36.3996 63.1998C36.3996 62.7998 36.1996 62.4998 35.9996 62.1998Z" fill="#35A8FC"/>
</g>
</g>
<defs>
<clipPath id="clip0_93_96">
<rect width="70" height="70" fill="white"/>
</clipPath>
</defs>
</svg>
