<svg width="20" height="26" viewBox="0 0 20 26" fill="none" xmlns="http://www.w3.org/2000/svg">
<g id="vk" clip-path="url(#clip0_93_433)">
<path id="Vector" d="M16.9247 14.9191C17.5617 15.7275 18.234 16.4882 18.8053 17.3781C19.0577 17.7736 19.2966 18.1817 19.4794 18.6407C19.7383 19.2931 19.5038 20.0111 19.0538 20.0501L16.2563 20.0484C15.5348 20.1263 14.9593 19.7486 14.4753 19.1073C14.088 18.5944 13.7293 18.0486 13.3569 17.5185C13.2042 17.3018 13.0444 17.0979 12.8535 16.9367C12.4716 16.6145 12.1401 16.7131 11.9219 17.2309C11.6996 17.7576 11.6492 18.3407 11.6274 18.9277C11.5974 19.784 11.3983 20.0092 10.7366 20.0484C9.3225 20.135 7.98042 19.857 6.73366 18.9295C5.63451 18.112 4.78216 16.9578 4.04024 15.6512C2.59574 13.107 1.48956 10.3112 0.495418 7.43707C0.271627 6.78955 0.4353 6.44195 0.984873 6.42961C1.8975 6.40656 2.80996 6.40823 3.72364 6.42794C4.09454 6.435 4.34009 6.71155 4.48333 7.16711C4.97708 8.7454 5.58127 10.247 6.33959 11.6388C6.54155 12.0094 6.74745 12.3799 7.04073 12.6408C7.36515 12.9295 7.61214 12.8338 7.76476 12.364C7.86159 12.0662 7.90398 11.7453 7.92581 11.4263C7.99812 10.3286 8.00765 9.2328 7.88085 8.13907C7.803 7.45642 7.50726 7.01457 6.98323 6.88533C6.71584 6.81946 6.75565 6.69012 6.8851 6.49172C7.10995 6.14955 7.32147 5.93652 7.743 5.93652H10.9045C11.4022 6.06424 11.5128 6.35491 11.5809 7.00593L11.5836 11.5713C11.5782 11.8234 11.6804 12.5713 12.0297 12.7382C12.3092 12.8569 12.4934 12.5663 12.6611 12.3359C13.4181 11.2914 13.9583 10.0571 14.4409 8.77902C14.6551 8.21702 14.8393 7.63339 15.0178 7.05026C15.15 6.61756 15.3575 6.40458 15.7325 6.41407L18.7753 6.41758C18.8655 6.41758 18.9568 6.4193 19.0442 6.43875C19.5569 6.55235 19.6974 6.83911 19.5391 7.48998C19.2896 8.5112 18.804 9.3622 18.3294 10.2172C17.822 11.1299 17.2792 12.0115 16.776 12.9297C16.3137 13.7682 16.3504 14.1909 16.9247 14.9191Z" fill="white"/>
<g id="Group">
<path id="Vector_2" d="M10.263 20.5813C8.84389 20.5814 7.62068 20.186 6.53607 19.3794C5.50375 18.6115 4.60894 17.5247 3.71995 15.959C2.45745 13.7351 1.35096 11.1724 0.132356 7.64973C-0.0381141 7.15644 -0.0439345 6.7413 0.115012 6.41579C0.273724 6.09079 0.564155 5.92133 0.978259 5.91203C1.85623 5.88984 2.75682 5.88933 3.73058 5.91041C4.24168 5.92016 4.64035 6.29691 4.85242 6.97144C5.36739 8.61757 5.96024 10.0462 6.66497 11.3398C6.84142 11.6635 7.02388 11.9983 7.26599 12.2136L7.26716 12.2146C7.31291 12.2553 7.37572 12.2312 7.39736 12.165L7.39806 12.1628C7.46529 11.9562 7.50689 11.7076 7.52927 11.3806C7.60955 10.1628 7.59619 9.15682 7.48716 8.2165C7.43197 7.7325 7.25384 7.47936 6.90931 7.3944C6.81146 7.37033 6.51353 7.29695 6.41353 6.92934C6.3147 6.56605 6.50864 6.26888 6.58169 6.15695C6.83396 5.77304 7.14857 5.41895 7.74334 5.41895H10.9049C10.9294 5.41895 10.9542 5.42169 10.9782 5.42778C11.7746 5.63015 11.9078 6.28411 11.9761 6.93645C11.9784 6.95945 11.9797 6.98266 11.9797 7.00587L11.9824 11.5713C11.9824 11.5763 11.9823 11.5812 11.9822 11.5863C11.9802 11.6811 12 11.8162 12.03 11.9402C12.0718 12.1123 12.2415 12.1614 12.3364 12.0296C12.3369 12.0289 12.3375 12.0281 12.338 12.0274L12.3721 11.9803C13.1386 10.9226 13.6675 9.65326 14.0837 8.55115C14.3013 7.98027 14.489 7.37845 14.6481 6.85916C14.8467 6.20895 15.2113 5.88512 15.7367 5.89655L18.7761 5.90005C18.8807 5.90005 18.9932 5.90223 19.1118 5.92864C19.3545 5.98242 19.699 6.09972 19.8847 6.49546C20.0705 6.89115 19.9934 7.34189 19.9193 7.64648C19.6597 8.70883 19.1752 9.58054 18.7067 10.4237L18.6528 10.5207C18.4126 10.9527 18.1621 11.3822 17.9197 11.7976C17.6471 12.2649 17.3652 12.7481 17.1009 13.2306C16.924 13.5513 16.8471 13.7683 16.8584 13.9145C16.8698 14.0633 16.9794 14.2648 17.2032 14.5486C17.2033 14.5487 17.2033 14.5487 17.2034 14.5488C17.3698 14.76 17.5425 14.9727 17.7096 15.1784C18.185 15.7637 18.6764 16.3688 19.1115 17.0466C19.3511 17.4221 19.6236 17.8758 19.8335 18.4029C20.0347 18.91 20.0377 19.4819 19.8416 19.9335C19.6787 20.3085 19.4013 20.5394 19.0805 20.5671C19.0716 20.5679 19.0628 20.5682 19.054 20.5682C19.0539 20.5682 19.0539 20.5682 19.0538 20.5682L16.2724 20.5666C15.4983 20.6439 14.7983 20.2749 14.1912 19.4703C13.9227 19.1149 13.6665 18.7422 13.4188 18.3817C13.3024 18.2125 13.182 18.0374 13.063 17.868C12.9455 17.7013 12.8027 17.5114 12.6368 17.3713C12.546 17.2947 12.4644 17.2581 12.4184 17.273C12.3751 17.2872 12.3202 17.3645 12.2715 17.48C12.0975 17.8923 12.0473 18.3669 12.0255 18.9528C11.9867 20.0613 11.6305 20.514 10.755 20.5659C10.5885 20.5762 10.4244 20.5813 10.263 20.5813ZM0.798649 6.98012C0.802516 7.02192 0.815914 7.09997 0.859157 7.22504C2.0535 10.6777 3.13354 13.1816 4.36113 15.3438C5.18203 16.7897 5.99891 17.7863 6.93181 18.4802C8.0042 19.2778 9.24256 19.6214 10.7182 19.5312C11.0253 19.513 11.1173 19.4531 11.1448 19.4191C11.1659 19.3932 11.2162 19.291 11.2298 18.9042C11.2533 18.2719 11.3111 17.6025 11.5729 16.982C11.7751 16.5024 12.0384 16.3293 12.2237 16.2685C12.4109 16.2071 12.71 16.198 13.0707 16.5024C13.3117 16.7059 13.4993 16.9534 13.6509 17.1688C13.7733 17.343 13.8951 17.5201 14.0128 17.6914C14.2545 18.0429 14.5044 18.4063 14.7599 18.7446C15.2102 19.3413 15.6758 19.5917 16.2237 19.5324C16.2346 19.5312 16.2456 19.5306 16.2566 19.5306C16.2567 19.5306 16.2567 19.5306 16.2568 19.5306L19.0377 19.5323C19.0621 19.5284 19.1094 19.5123 19.1478 19.424C19.1947 19.316 19.217 19.1083 19.1257 18.8782C18.9508 18.4391 18.7107 18.0406 18.499 17.7088C18.0946 17.0787 17.6414 16.5208 17.1617 15.9301C16.9925 15.7218 16.8176 15.5064 16.6469 15.2898C15.9248 14.3741 15.8739 13.6775 16.4526 12.628C16.7232 12.1342 17.0087 11.6448 17.2849 11.1714C17.5245 10.7607 17.7722 10.336 18.0069 9.91387L18.0608 9.81673C18.5124 9.00412 18.939 8.23661 19.1598 7.33326C19.2036 7.15308 19.2041 7.06676 19.202 7.03674C19.1823 7.0206 19.1226 6.98149 18.9776 6.94935C18.9203 6.9366 18.8465 6.93554 18.7757 6.93554L15.7325 6.93203C15.73 6.93203 15.7276 6.93203 15.7251 6.93193C15.546 6.92701 15.4709 6.97149 15.3884 7.2416C15.2235 7.78019 15.0285 8.405 14.7983 9.00905C14.3565 10.1788 13.7911 11.5325 12.9514 12.6911L12.9196 12.7351C12.7411 12.9829 12.4087 13.444 11.9063 13.2305C11.9017 13.2285 11.8971 13.2265 11.8926 13.2244C11.3407 12.9607 11.1786 11.999 11.1855 11.5653L11.1829 7.04203C11.1652 6.88049 11.1363 6.67381 11.0858 6.58636C11.0739 6.5658 11.0391 6.50567 10.8636 6.45448H7.74342C7.61619 6.45448 7.52451 6.47744 7.44318 6.53248C7.90111 6.80254 8.19182 7.33123 8.27529 8.06314C8.39373 9.08471 8.40897 10.1678 8.32315 11.4705C8.29311 11.9095 8.23244 12.257 8.13209 12.5656C7.97654 13.0444 7.7456 13.2206 7.5792 13.284C7.41287 13.3474 7.14552 13.3614 6.81599 13.0681C6.4563 12.7481 6.21149 12.2991 6.01485 11.9382C5.27426 10.5789 4.65273 9.08212 4.11464 7.3622C4.00074 6.99988 3.85031 6.94833 3.7182 6.94579C2.75323 6.92487 1.86205 6.92543 0.992986 6.94737C0.88861 6.95001 0.829117 6.96712 0.798649 6.98012Z" fill="white"/>
<path id="Vector_3" d="M2.55001 9.36601C2.4045 9.36601 2.26423 9.26201 2.19411 9.08163C2.1345 8.92832 2.07544 8.77455 2.01688 8.62048C1.91942 8.36403 2.00036 8.0534 2.19763 7.92675C2.39501 7.8 2.6338 7.90532 2.73126 8.16172C2.78872 8.31294 2.84673 8.46387 2.90525 8.61438C3.00447 8.86966 2.92576 9.18116 2.72939 9.31025C2.67177 9.34808 2.6104 9.36601 2.55001 9.36601Z" fill="white"/>
<path id="Vector_4" d="M5.08438 14.8131C4.96223 14.8131 4.84164 14.7404 4.76351 14.6028C4.08937 13.4153 3.4598 12.1283 2.83885 10.668C2.73241 10.4177 2.80225 10.1025 2.99479 9.96413C3.18733 9.8258 3.42976 9.9165 3.5362 10.1669C4.14011 11.5872 4.75129 12.837 5.40457 13.9876C5.5352 14.2177 5.49762 14.542 5.32063 14.7118C5.24949 14.7803 5.16656 14.8131 5.08438 14.8131Z" fill="white"/>
</g>
</g>
<defs>
<clipPath id="clip0_93_433">
<rect width="20" height="26" fill="white"/>
</clipPath>
</defs>
</svg>
