<svg width="170" height="40" viewBox="0 0 170 40" fill="none" xmlns="http://www.w3.org/2000/svg">
<path d="M45.4331 8.1473L44.7577 8.85489V10.9454C44.7597 11.016 44.7471 11.0862 44.7206 11.1517C44.6941 11.2173 44.6543 11.2766 44.6037 11.3261C44.5528 11.3785 44.4917 11.4202 44.4241 11.4484C44.3565 11.4766 44.2839 11.4908 44.2106 11.4902C44.1397 11.4897 44.0696 11.475 44.0046 11.4468C43.9396 11.4185 43.881 11.3775 43.8324 11.3261C43.7819 11.2765 43.7423 11.2172 43.716 11.1516C43.6898 11.0861 43.6774 11.0159 43.6797 10.9454V4.35376C43.684 4.21211 43.738 4.07643 43.8324 3.97037C43.9377 3.87628 44.0732 3.82242 44.2146 3.81836C44.3573 3.82239 44.4941 3.87619 44.601 3.97037C44.6978 4.07876 44.7525 4.21812 44.755 4.36318V7.30923L47.7836 4.08068C47.8248 4.02447 47.877 3.97722 47.9372 3.94182C47.9973 3.90643 48.0641 3.88365 48.1334 3.87486C48.2049 3.86249 48.2782 3.86583 48.3482 3.88465C48.4182 3.90348 48.4832 3.93732 48.5387 3.98382C48.5953 4.02482 48.6429 4.07684 48.6787 4.13674C48.7144 4.19664 48.7376 4.26315 48.7467 4.33224C48.7588 4.40338 48.7552 4.47628 48.7364 4.54594C48.7175 4.6156 48.6837 4.68037 48.6373 4.7358L46.1869 7.36438L48.6684 10.6077C48.718 10.6597 48.7557 10.7216 48.779 10.7894C48.8023 10.8572 48.8107 10.9292 48.8035 11.0005C48.7843 11.1464 48.7081 11.2789 48.5914 11.3691C48.4958 11.4461 48.3766 11.4884 48.2537 11.4889C48.1738 11.4902 48.0947 11.4732 48.0226 11.4391C47.9504 11.4051 47.8871 11.3549 47.8376 11.2924L45.4331 8.1473Z" fill="white"/>
<path d="M52.1451 8.52888L49.9256 11.2503C49.8757 11.314 49.8121 11.3657 49.7393 11.4016C49.6666 11.4375 49.5867 11.4565 49.5055 11.4574C49.3856 11.4559 49.2698 11.4137 49.1773 11.3377C49.12 11.297 49.0717 11.2452 49.0352 11.1853C48.9987 11.1254 48.9749 11.0587 48.9652 10.9893C48.9527 10.9182 48.956 10.8451 48.9749 10.7754C48.9938 10.7057 49.0278 10.6409 49.0746 10.5857L51.4575 7.64641L49.1003 4.72861C49.054 4.67313 49.0203 4.60836 49.0014 4.53871C48.9825 4.46907 48.9789 4.39619 48.9909 4.32504C48.9962 4.25461 49.0171 4.18622 49.0521 4.12481C49.0872 4.0634 49.1354 4.01049 49.1935 3.9699C49.2471 3.92439 49.3101 3.89106 49.378 3.87225C49.4459 3.85343 49.5171 3.84957 49.5866 3.86094C49.729 3.88159 49.858 3.95571 49.9473 4.0681L52.1451 6.76798L54.2983 4.06407C54.3876 3.95168 54.5166 3.87755 54.659 3.8569C54.7287 3.8456 54.8001 3.84949 54.8682 3.86831C54.9363 3.88712 54.9995 3.9204 55.0534 3.96587C55.1126 4.0066 55.1619 4.05999 55.1976 4.12214C55.2334 4.18429 55.2547 4.25361 55.2601 4.32504C55.2724 4.39619 55.2689 4.46913 55.25 4.53882C55.2311 4.60851 55.1972 4.67327 55.1507 4.72861L52.834 7.64641L52.1451 8.52888Z" fill="white"/>
<path d="M58.7268 3.84591C59.0101 3.84964 59.2897 3.91017 59.5489 4.02388C59.8082 4.1376 60.0417 4.30216 60.2357 4.50776C60.6287 4.90156 60.852 5.43249 60.8581 5.98768C60.8641 6.54287 60.6525 7.07851 60.2681 7.48071C59.8736 7.89434 59.3407 8.14986 58.77 8.19906C58.7637 8.20534 58.1405 8.20893 56.9005 8.20983V10.9003C56.9023 10.9717 56.8886 11.0427 56.8604 11.1084C56.8322 11.1741 56.7901 11.2329 56.737 11.281C56.6878 11.3328 56.6286 11.374 56.5629 11.4022C56.4971 11.4305 56.4263 11.445 56.3547 11.4451C56.2119 11.4418 56.0756 11.3842 55.974 11.2842C55.8723 11.1842 55.8128 11.0492 55.8076 10.907V4.39072C55.8069 4.31785 55.8209 4.24558 55.849 4.17829C55.8771 4.111 55.9187 4.05009 55.9711 3.99926C56.0211 3.94888 56.0809 3.90926 56.1469 3.88288C56.2129 3.8565 56.2837 3.84392 56.3547 3.84591H58.7268ZM58.639 7.12288C58.7876 7.12578 58.9352 7.09812 59.0725 7.04164C59.2099 6.98517 59.3341 6.90108 59.4374 6.79465C59.6451 6.58626 59.765 6.30663 59.7724 6.01307C59.7631 5.72149 59.6417 5.44459 59.4333 5.23956C59.328 5.13749 59.2029 5.05789 59.0656 5.00561C58.9283 4.95334 58.7818 4.9295 58.635 4.93554H56.9005V7.12288H58.639Z" fill="white"/>
<path d="M68.0517 6.50269C67.9276 6.56962 67.7822 6.58555 67.6465 6.54708C67.5802 6.5323 67.5181 6.50302 67.4646 6.46138C67.4111 6.41973 67.3675 6.36675 67.3371 6.30629C66.7914 5.3996 66.0079 4.94626 64.9867 4.94626C64.2624 4.95116 63.5691 5.23911 63.0559 5.74811C62.5428 6.25711 62.2509 6.94644 62.2431 7.66766C62.2374 8.02388 62.3066 8.37736 62.4462 8.70539C62.5858 9.03343 62.7927 9.32878 63.0536 9.5725C63.3081 9.82313 63.6103 10.0206 63.9425 10.1535C64.2747 10.2863 64.6301 10.3518 64.988 10.346C65.4358 10.3479 65.8769 10.2368 66.27 10.0232C66.672 9.80401 67.0139 9.48989 67.2655 9.1084C67.2978 9.04282 67.3459 8.98624 67.4056 8.94374C67.4652 8.90124 67.5345 8.87416 67.6073 8.86491C67.675 8.84883 67.7458 8.85041 67.8128 8.86949C67.8797 8.88858 67.9406 8.92453 67.9896 8.97388C68.055 9.00388 68.113 9.0477 68.1596 9.10229C68.2063 9.15688 68.2405 9.22094 68.2597 9.29C68.2832 9.35813 68.2885 9.43119 68.275 9.50196C68.2615 9.57273 68.2297 9.63878 68.1827 9.69357C67.8398 10.2335 67.3666 10.6793 66.8062 10.9904C66.2492 11.3032 65.6194 11.4646 64.9799 11.4585C64.4761 11.4647 63.9763 11.3695 63.5104 11.1786C63.0445 10.9876 62.6222 10.7049 62.2688 10.3474C61.901 10.0047 61.6091 9.58942 61.4118 9.12797C61.2146 8.66652 61.1163 8.16913 61.1233 7.66766C61.1153 7.15964 61.2132 6.65549 61.4108 6.18707C61.6085 5.71865 61.9015 5.29615 62.2715 4.94626C62.868 4.35691 63.642 3.97828 64.475 3.86823C65.308 3.75819 66.1543 3.92279 66.8846 4.33687C67.4623 4.65852 67.9356 5.13785 68.2489 5.71842C68.294 5.78674 68.3241 5.86371 68.3373 5.94435C68.3506 6.02499 68.3467 6.10751 68.3259 6.18656C68.3063 6.25605 68.2715 6.32039 68.2242 6.37503C68.1768 6.42966 68.1179 6.47324 68.0517 6.50269Z" fill="white"/>
<path d="M69.6158 11.4464C69.5441 11.449 69.4726 11.4367 69.4058 11.4103C69.3391 11.3839 69.2786 11.344 69.2282 11.2931C69.1757 11.2422 69.1342 11.1813 69.1061 11.1141C69.078 11.0468 69.0639 10.9745 69.0647 10.9016V4.39071C69.0614 4.31909 69.0744 4.24766 69.1027 4.18174C69.131 4.11583 69.1739 4.05712 69.2282 4.01001C69.2766 3.95694 69.3359 3.91483 69.4021 3.88651C69.4683 3.8582 69.5398 3.84435 69.6118 3.84589C69.6834 3.84595 69.7542 3.86054 69.8199 3.88875C69.8856 3.91697 69.9449 3.95823 69.9941 4.01001C70.0483 4.05712 70.0912 4.11583 70.1195 4.18174C70.1478 4.24766 70.1608 4.31909 70.1575 4.39071V7.08117C71.3976 7.08117 72.0208 7.08475 72.0271 7.09193C72.5978 7.14113 73.1307 7.39665 73.5252 7.81028C73.91 8.20304 74.1223 8.73194 74.1155 9.28061C74.1085 9.8456 73.883 10.3862 73.486 10.7898C73.089 11.1935 72.551 11.4291 71.9839 11.4478L69.6158 11.4464ZM70.1562 8.16811V10.3568H71.8947C72.0416 10.3628 72.1881 10.339 72.3254 10.2867C72.4626 10.2345 72.5877 10.1548 72.6931 10.0528C72.9015 9.84775 73.0228 9.57085 73.0321 9.27927C73.0243 8.9842 72.903 8.70341 72.6931 8.495C72.5897 8.38881 72.4654 8.30497 72.3281 8.24873C72.1907 8.19249 72.0432 8.16504 71.8947 8.16811H70.1562ZM74.4532 4.34766C74.4532 4.20495 74.5101 4.06809 74.6115 3.96717C74.7128 3.86626 74.8502 3.80957 74.9935 3.80957C75.1402 3.8132 75.2805 3.87014 75.388 3.96965C75.4824 4.07518 75.5364 4.21044 75.5406 4.3517V10.9231C75.5425 10.9936 75.53 11.0637 75.5037 11.1292C75.4775 11.1946 75.4381 11.2541 75.388 11.3038C75.3388 11.3556 75.2795 11.3969 75.2138 11.4251C75.1481 11.4533 75.0773 11.4679 75.0057 11.468C74.864 11.4629 74.7295 11.4046 74.6292 11.3048C74.5289 11.2049 74.4704 11.071 74.4654 10.9299L74.4532 4.34766Z" fill="white"/>
<path d="M84.2 3.8252C84.3416 3.82939 84.4772 3.88377 84.5822 3.97855C84.6801 4.08738 84.7349 4.22796 84.7362 4.37405C84.732 4.51515 84.6774 4.65014 84.5822 4.75475C84.4771 4.84915 84.3415 4.90305 84.2 4.90676H82.5384V10.924C82.5404 10.9946 82.5277 11.0648 82.5012 11.1303C82.4748 11.1958 82.435 11.2551 82.3844 11.3047C82.3354 11.3567 82.2762 11.3981 82.2104 11.4264C82.1447 11.4546 82.0738 11.469 82.0021 11.4688C81.8604 11.4638 81.7259 11.4055 81.6256 11.3056C81.5254 11.2058 81.4668 11.0718 81.4618 10.9307V4.90272H79.8043C79.7335 4.90478 79.6631 4.89236 79.5973 4.86621C79.5316 4.84006 79.4719 4.80075 79.422 4.75071C79.3706 4.70223 79.3296 4.64384 79.3015 4.57909C79.2734 4.51434 79.2588 4.44458 79.2586 4.37405C79.2578 4.30118 79.2719 4.2289 79.3 4.16161C79.3281 4.09432 79.3696 4.03341 79.422 3.98259C79.4718 3.93237 79.5315 3.89285 79.5972 3.86648C79.663 3.8401 79.7335 3.82742 79.8043 3.82923L84.2 3.8252Z" fill="white"/>
<path d="M88.1019 8.52939L85.8825 11.2508C85.832 11.3152 85.7674 11.3674 85.6937 11.4033C85.62 11.4392 85.539 11.4579 85.4569 11.4579C85.337 11.4568 85.221 11.4146 85.1287 11.3382C85.072 11.2973 85.0243 11.2453 84.9885 11.1854C84.9527 11.1255 84.9296 11.0589 84.9207 10.9898C84.9088 10.9187 84.9124 10.8458 84.9313 10.7762C84.9502 10.7065 84.9839 10.6418 85.0301 10.5862L87.413 7.64692L85.0517 4.72912C85.0054 4.67364 84.9717 4.60887 84.9528 4.53922C84.9339 4.46958 84.9303 4.3967 84.9423 4.32555C84.9598 4.18417 85.033 4.0555 85.1457 3.96774C85.2583 3.87998 85.4014 3.84031 85.5434 3.85741C85.6858 3.87806 85.8148 3.95218 85.9041 4.06458L88.1019 6.76445L90.2565 4.06458C90.3457 3.95218 90.4748 3.87806 90.6172 3.85741C90.7592 3.84031 90.9022 3.87998 91.0149 3.96774C91.1276 4.0555 91.2007 4.18417 91.2183 4.32555C91.2302 4.3967 91.2267 4.46958 91.2078 4.53922C91.1889 4.60887 91.1551 4.67364 91.1089 4.72912L88.7908 7.64692L88.1019 8.52939Z" fill="white"/>
<path d="M94.6834 3.8459C94.9667 3.84963 95.2463 3.91016 95.5055 4.02388C95.7648 4.13759 95.9984 4.30216 96.1923 4.50775C96.3928 4.70328 96.5513 4.93725 96.6583 5.19552C96.7654 5.45379 96.8187 5.731 96.8151 6.01037C96.8187 6.28209 96.7685 6.55185 96.6672 6.80417C96.5659 7.05649 96.4155 7.28641 96.2248 7.48071C95.8306 7.89404 95.2983 8.14954 94.728 8.19906C94.7199 8.20534 94.0967 8.20893 92.8584 8.20982V10.9003C92.86 10.9718 92.8461 11.0428 92.8176 11.1085C92.7892 11.1742 92.7469 11.233 92.6936 11.281C92.6446 11.3329 92.5853 11.3742 92.5196 11.4025C92.4538 11.4307 92.383 11.4452 92.3114 11.4451C92.1699 11.4395 92.0357 11.381 91.9356 11.2812C91.8354 11.1815 91.7767 11.0479 91.771 10.907V4.39072C91.7704 4.31775 91.7847 4.24542 91.813 4.17812C91.8413 4.11083 91.8831 4.04997 91.9358 3.99926C91.9855 3.94891 92.0451 3.90931 92.1109 3.88292C92.1767 3.85654 92.2472 3.84394 92.3181 3.8459H94.6834ZM94.597 7.12288C94.7453 7.12559 94.8927 7.09784 95.0298 7.04137C95.1669 6.9849 95.2909 6.90091 95.394 6.79464C95.6043 6.58655 95.7258 6.30556 95.7331 6.01037C95.7245 5.71864 95.603 5.4415 95.394 5.23687C95.2888 5.13496 95.1639 5.05546 95.0269 5.00319C94.8899 4.95092 94.7436 4.92699 94.597 4.93285H92.8584V7.12288H94.597Z" fill="white"/>
<path d="M101.513 10.3568C101.655 10.361 101.791 10.4154 101.896 10.5102C101.948 10.561 101.99 10.6219 102.018 10.6892C102.046 10.7565 102.06 10.8288 102.059 10.9016C102.061 10.973 102.047 11.044 102.019 11.1097C101.991 11.1754 101.949 11.2343 101.896 11.2823C101.846 11.3341 101.787 11.3754 101.721 11.4036C101.656 11.4318 101.585 11.4464 101.513 11.4464H97.7012C97.5598 11.4408 97.4256 11.3823 97.3254 11.2826C97.2253 11.1829 97.1666 11.0493 97.1609 10.9083V4.39072C97.1603 4.31775 97.1746 4.24542 97.2029 4.17812C97.2312 4.11083 97.273 4.04997 97.3257 3.99926C97.3754 3.94891 97.435 3.90931 97.5008 3.88292C97.5666 3.85654 97.6371 3.84394 97.708 3.8459H101.513C101.655 3.8501 101.791 3.90447 101.896 3.99926C101.948 4.05009 101.99 4.11099 102.018 4.17828C102.046 4.24557 102.06 4.31785 102.059 4.39072C102.062 4.46273 102.049 4.53455 102.022 4.60121C101.994 4.66786 101.953 4.72778 101.9 4.7768C101.85 4.8281 101.789 4.86865 101.723 4.89595C101.657 4.92325 101.585 4.93672 101.513 4.93554H98.2443V7.12288H100.737C100.878 7.12707 101.014 7.18145 101.119 7.27623C101.172 7.32695 101.213 7.3878 101.242 7.4551C101.27 7.52239 101.284 7.59473 101.284 7.6677C101.285 7.73921 101.271 7.81021 101.243 7.87589C101.214 7.94158 101.172 8.0004 101.119 8.04839C101.07 8.1003 101.011 8.14164 100.945 8.16987C100.879 8.1981 100.808 8.21261 100.737 8.21251H98.2483V10.3568H101.513Z" fill="white"/>
<path d="M108.284 11.4571H103.269C103.198 11.4585 103.126 11.4446 103.06 11.4163C102.994 11.388 102.935 11.3459 102.887 11.293C102.835 11.244 102.794 11.185 102.766 11.1195C102.738 11.054 102.723 10.9835 102.724 10.9123V4.40138C102.72 4.32977 102.733 4.25837 102.762 4.19247C102.79 4.12657 102.833 4.06785 102.887 4.02068C102.935 3.96771 102.994 3.92565 103.06 3.89734C103.126 3.86903 103.198 3.85513 103.269 3.85656C103.341 3.85644 103.412 3.87093 103.478 3.89916C103.544 3.92738 103.604 3.96873 103.653 4.02068C103.706 4.06849 103.748 4.12749 103.775 4.19336C103.802 4.25923 103.814 4.3303 103.81 4.40138V10.3675H107.187V4.40138C107.184 4.32977 107.197 4.25837 107.225 4.19247C107.253 4.12657 107.296 4.06785 107.35 4.02068C107.399 3.96761 107.458 3.92549 107.524 3.89718C107.59 3.86887 107.662 3.85502 107.734 3.85656C107.805 3.85662 107.876 3.87121 107.942 3.89942C108.008 3.92764 108.067 3.9689 108.116 4.02068C108.17 4.06785 108.213 4.12657 108.241 4.19247C108.27 4.25837 108.283 4.32977 108.28 4.40138V10.3675H108.838C108.983 10.3701 109.122 10.4245 109.231 10.5208C109.326 10.6253 109.381 10.7604 109.385 10.9015V12.6866C109.387 12.7572 109.374 12.8275 109.347 12.893C109.321 12.9585 109.281 13.0178 109.231 13.0673C109.126 13.1716 108.985 13.2306 108.838 13.2315C108.764 13.2321 108.692 13.2178 108.624 13.1896C108.556 13.1614 108.495 13.1198 108.444 13.0673C108.391 13.0193 108.349 12.9605 108.32 12.8948C108.292 12.8292 108.278 12.7581 108.28 12.6866L108.284 11.4571Z" fill="white"/>
<path d="M111.694 8.1473L111.019 8.85489V10.9454C111.021 11.016 111.008 11.0862 110.982 11.1517C110.955 11.2173 110.916 11.2766 110.865 11.3261C110.814 11.3785 110.753 11.4202 110.685 11.4484C110.618 11.4766 110.545 11.4908 110.472 11.4902C110.4 11.4903 110.329 11.4758 110.264 11.4476C110.198 11.4193 110.139 11.378 110.09 11.3261C110.039 11.2766 109.999 11.2173 109.973 11.1517C109.946 11.0862 109.933 11.016 109.936 10.9454V4.35376C109.94 4.21213 109.994 4.07649 110.088 3.97037C110.194 3.87628 110.329 3.82242 110.47 3.81836C110.615 3.82128 110.755 3.87512 110.864 3.97037C110.96 4.07876 111.015 4.21812 111.018 4.36318V7.30923L114.045 4.08068C114.086 4.02463 114.138 3.9775 114.199 3.94213C114.259 3.90676 114.325 3.88387 114.395 3.87486C114.466 3.86267 114.539 3.86611 114.609 3.88492C114.679 3.90374 114.744 3.93748 114.8 3.98382C114.856 4.02498 114.904 4.07705 114.94 4.13692C114.975 4.19679 114.999 4.26322 115.008 4.33224C115.02 4.40338 115.016 4.47628 114.998 4.54594C114.979 4.6156 114.945 4.68037 114.899 4.7358L112.455 7.36438L114.936 10.6077C114.986 10.6597 115.024 10.7216 115.047 10.7894C115.07 10.8572 115.079 10.9292 115.071 11.0005C115.061 11.0732 115.037 11.1431 115 11.2064C114.962 11.2696 114.913 11.3249 114.854 11.3691C114.758 11.4464 114.638 11.4887 114.515 11.4889C114.435 11.4901 114.356 11.473 114.284 11.439C114.213 11.4049 114.149 11.3548 114.1 11.2924L111.694 8.1473Z" fill="white"/>
<path d="M119.119 11.4463C118.618 11.4538 118.121 11.3569 117.659 11.1619C117.198 10.9668 116.783 10.6779 116.44 10.3136C116.084 9.96017 115.802 9.53907 115.613 9.0753C115.423 8.61153 115.328 8.11452 115.335 7.61375C115.331 7.1198 115.427 6.63011 115.617 6.17374C115.807 5.71736 116.087 5.30358 116.44 4.95693C116.791 4.60482 117.208 4.32535 117.667 4.13462C118.127 3.9439 118.62 3.8457 119.118 3.8457C119.616 3.8457 120.109 3.9439 120.569 4.13462C121.028 4.32535 121.446 4.60482 121.796 4.95693C122.15 5.30358 122.429 5.71736 122.619 6.17374C122.809 6.63011 122.905 7.1198 122.901 7.61375C122.908 8.11452 122.813 8.61153 122.624 9.0753C122.434 9.53907 122.152 9.96017 121.796 10.3136C121.454 10.6779 121.039 10.9668 120.578 11.1618C120.117 11.3569 119.62 11.4538 119.119 11.4463ZM119.119 4.90178C118.397 4.90249 117.704 5.18844 117.194 5.69688C116.683 6.20532 116.396 6.89471 116.395 7.61375C116.386 7.97911 116.453 8.34243 116.59 8.68136C116.727 9.02028 116.933 9.32764 117.194 9.58451C117.445 9.83852 117.745 10.0402 118.075 10.1779C118.405 10.3156 118.76 10.3865 119.118 10.3865C119.476 10.3865 119.831 10.3156 120.161 10.1779C120.491 10.0402 120.791 9.83852 121.042 9.58451C121.302 9.32601 121.507 9.01863 121.647 8.68028C121.786 8.34192 121.856 7.97937 121.853 7.61375C121.856 7.25606 121.786 6.90145 121.647 6.57177C121.507 6.24209 121.302 5.94432 121.042 5.6968C120.793 5.44046 120.494 5.23767 120.163 5.10093C119.832 4.9642 119.477 4.89642 119.119 4.90178Z" fill="white"/>
<path d="M124.596 4.9462V10.9123C124.596 10.9852 124.582 11.0574 124.554 11.1247C124.526 11.192 124.485 11.2529 124.432 11.3037C124.327 11.3985 124.192 11.4529 124.05 11.4571C123.979 11.4589 123.909 11.4462 123.843 11.4199C123.777 11.3935 123.717 11.354 123.668 11.3037C123.615 11.2529 123.574 11.192 123.546 11.1247C123.517 11.0574 123.503 10.9852 123.504 10.9123V4.40138C123.501 4.32977 123.514 4.25837 123.542 4.19247C123.571 4.12657 123.613 4.06785 123.668 4.02068C123.716 3.96761 123.775 3.92549 123.842 3.89718C123.908 3.86887 123.979 3.85502 124.051 3.85656H127.855C127.927 3.85646 127.998 3.87098 128.063 3.8992C128.129 3.92743 128.188 3.96877 128.237 4.02068C128.291 4.06843 128.332 4.12738 128.36 4.19324C128.387 4.2591 128.399 4.33021 128.396 4.40138C128.396 4.47457 128.382 4.54716 128.354 4.6147C128.325 4.68224 128.284 4.74332 128.231 4.79418C128.127 4.88682 127.994 4.94058 127.855 4.9462H124.596Z" fill="white"/>
<path d="M132.455 11.4464C131.954 11.4539 131.457 11.3571 130.996 11.162C130.534 10.9669 130.119 10.678 129.777 10.3137C129.421 9.96021 129.139 9.53907 128.95 9.0753C128.76 8.61152 128.666 8.11455 128.673 7.61387C128.669 7.11999 128.765 6.63034 128.954 6.17396C129.144 5.71758 129.423 5.30376 129.777 4.95704C130.127 4.6049 130.545 4.32539 131.004 4.13465C131.464 3.94391 131.957 3.8457 132.455 3.8457C132.953 3.8457 133.446 3.94391 133.906 4.13465C134.366 4.32539 134.783 4.6049 135.134 4.95704C135.487 5.30369 135.767 5.71747 135.957 6.17385C136.147 6.63023 136.243 7.11991 136.239 7.61387C136.246 8.11464 136.151 8.61164 135.961 9.07541C135.772 9.53918 135.49 9.96028 135.134 10.3137C134.791 10.678 134.376 10.9669 133.915 11.162C133.454 11.3571 132.956 11.4539 132.455 11.4464ZM132.455 4.90189C131.733 4.90296 131.042 5.18907 130.531 5.69747C130.021 6.20587 129.734 6.89506 129.733 7.61387C129.724 7.97922 129.791 8.34255 129.928 8.68147C130.065 9.0204 130.271 9.32775 130.532 9.58463C130.783 9.83863 131.083 10.0403 131.413 10.178C131.743 10.3157 132.098 10.3866 132.456 10.3866C132.814 10.3866 133.169 10.3157 133.499 10.178C133.829 10.0403 134.129 9.83863 134.38 9.58463C134.64 9.32613 134.845 9.01874 134.984 8.68039C135.124 8.34204 135.194 7.97949 135.191 7.61387C135.194 7.25617 135.124 6.90156 134.985 6.57188C134.845 6.2422 134.64 5.94444 134.38 5.69692C134.131 5.44048 133.832 5.23763 133.5 5.10089C133.169 4.96415 132.814 4.89642 132.455 4.90189Z" fill="white"/>
<path d="M144.679 3.86917C144.753 3.86838 144.825 3.8824 144.893 3.91038C144.96 3.93836 145.021 3.97972 145.072 4.03194C145.124 4.08089 145.166 4.13994 145.194 4.20542C145.222 4.2709 145.236 4.34143 145.236 4.41264V10.9235C145.238 10.995 145.224 11.0659 145.196 11.1316C145.168 11.1973 145.126 11.2562 145.072 11.3042C144.969 11.4025 144.832 11.4574 144.689 11.4574C144.547 11.4574 144.41 11.4025 144.307 11.3042C144.253 11.2562 144.211 11.1973 144.183 11.1316C144.155 11.0659 144.141 10.995 144.143 10.9235V8.23309H143.027L141.213 11.1926C141.165 11.2747 141.097 11.3428 141.014 11.3901C140.932 11.4373 140.838 11.462 140.743 11.4616C140.643 11.4663 140.543 11.4395 140.459 11.385C140.395 11.3473 140.34 11.2969 140.297 11.237C140.253 11.177 140.223 11.1088 140.207 11.0365C140.188 10.9685 140.184 10.8972 140.196 10.8276C140.207 10.758 140.233 10.6916 140.273 10.633L141.803 8.14969C141.34 7.99429 140.933 7.70655 140.634 7.32237C140.34 6.95393 140.182 6.49697 140.185 6.02692C140.188 5.73888 140.249 5.45435 140.365 5.19052C140.481 4.92669 140.65 4.68907 140.861 4.49201C141.056 4.29429 141.289 4.13755 141.547 4.03104C141.804 3.92454 142.08 3.87041 142.359 3.87186L144.679 3.86917ZM144.139 7.14615V4.95746H142.4C142.254 4.95159 142.107 4.97565 141.97 5.02815C141.832 5.08066 141.707 5.16052 141.602 5.26283C141.394 5.46729 141.272 5.74378 141.263 6.03499C141.271 6.33005 141.392 6.61084 141.602 6.81926C141.706 6.92545 141.83 7.00929 141.967 7.06553C142.104 7.12177 142.252 7.14922 142.4 7.14615H144.139Z" fill="white"/>
<path d="M147.037 9.41034C147.057 9.55583 147.107 9.69558 147.184 9.82097C147.261 9.94637 147.363 10.0548 147.484 10.1395C147.739 10.3289 148.052 10.424 148.37 10.4085C148.691 10.4184 149.005 10.3053 149.245 10.0924C149.356 9.99823 149.444 9.88117 149.504 9.74941C149.564 9.61765 149.595 9.47438 149.594 9.32963C149.593 9.18067 149.562 9.03344 149.502 8.89696C149.442 8.76048 149.355 8.63763 149.245 8.53594C149.131 8.42143 148.994 8.33144 148.844 8.27152C148.693 8.2116 148.532 8.18302 148.37 8.18753C148.207 8.19146 148.048 8.13705 147.921 8.03417C147.868 7.98611 147.826 7.92724 147.798 7.86155C147.77 7.79586 147.756 7.72489 147.758 7.65347C147.757 7.5806 147.771 7.50833 147.799 7.44104C147.827 7.37374 147.869 7.31284 147.921 7.26201C148.048 7.15913 148.207 7.10472 148.37 7.10866C148.531 7.11481 148.692 7.08803 148.843 7.02996C148.993 6.9719 149.13 6.88377 149.245 6.771C149.356 6.66732 149.443 6.54221 149.503 6.40338C149.563 6.26456 149.594 6.11498 149.594 5.96387C149.595 5.81913 149.564 5.67588 149.504 5.54414C149.444 5.41239 149.356 5.29533 149.245 5.20112C149.005 4.98822 148.691 4.8751 148.37 4.88499C148.063 4.88757 147.763 4.97868 147.507 5.14731C147.278 5.27897 147.11 5.49347 147.037 5.74594C146.998 5.88872 146.914 6.01495 146.796 6.10511C146.736 6.15478 146.665 6.18878 146.588 6.20405C146.512 6.21932 146.433 6.21537 146.358 6.19255C145.987 6.12619 145.801 5.92261 145.801 5.58182C145.863 5.31893 145.978 5.07103 146.137 4.85239C146.297 4.63375 146.498 4.4487 146.73 4.30789C147.217 3.98711 147.79 3.82234 148.374 3.83572C149.005 3.82647 149.618 4.04321 150.102 4.44645C150.335 4.62669 150.523 4.85791 150.652 5.12221C150.781 5.38651 150.847 5.6768 150.845 5.97059C150.851 6.30186 150.774 6.62942 150.621 6.92386C150.469 7.2183 150.245 7.4704 149.971 7.65751C150.243 7.8442 150.465 8.0947 150.618 8.38698C150.77 8.67925 150.848 9.00435 150.845 9.33366C150.845 9.90852 150.597 10.4094 150.102 10.8363C149.626 11.2576 149.01 11.487 148.374 11.4793C147.758 11.4914 147.155 11.3024 146.657 10.9412C146.208 10.6132 145.903 10.1258 145.805 9.57984C145.805 9.23905 145.991 9.03233 146.362 8.95969C146.527 8.95867 146.687 9.00799 146.822 9.10094C146.88 9.13189 146.929 9.17608 146.967 9.22988C147.004 9.28367 147.028 9.34552 147.037 9.41034Z" fill="white"/>
<path d="M152.035 11.4464C151.964 11.4484 151.894 11.4358 151.828 11.4094C151.762 11.383 151.703 11.3434 151.653 11.2931C151.601 11.2422 151.559 11.1813 151.531 11.1141C151.503 11.0468 151.489 10.9745 151.49 10.9016V4.39071C151.486 4.31909 151.499 4.24766 151.528 4.18174C151.556 4.11583 151.599 4.05712 151.653 4.01001C151.701 3.95697 151.76 3.91487 151.826 3.88655C151.892 3.85824 151.963 3.84437 152.035 3.84589C152.107 3.84577 152.178 3.86026 152.244 3.88849C152.31 3.91671 152.37 3.95806 152.419 4.01001C152.473 4.05731 152.516 4.11604 152.544 4.18192C152.572 4.24779 152.585 4.31913 152.582 4.39071V7.08117C153.822 7.08117 154.445 7.08475 154.452 7.09193C155.023 7.14038 155.557 7.39542 155.953 7.80893C156.337 8.2017 156.55 8.73059 156.543 9.27927C156.536 9.84416 156.31 10.3845 155.913 10.7881C155.516 11.1917 154.978 11.4275 154.411 11.4464H152.035ZM152.576 8.16811V10.3568H154.314C154.461 10.3628 154.607 10.339 154.745 10.2867C154.882 10.2345 155.007 10.1548 155.112 10.0528C155.321 9.84801 155.442 9.57085 155.45 9.27927C155.443 8.98424 155.322 8.70323 155.112 8.495C155.009 8.38881 154.885 8.30497 154.747 8.24873C154.61 8.19249 154.463 8.16504 154.314 8.16811H152.576ZM156.873 4.34766C156.873 4.20495 156.93 4.06809 157.031 3.96717C157.132 3.86626 157.27 3.80957 157.413 3.80957C157.555 3.81377 157.691 3.86759 157.797 3.96158C157.891 4.06711 157.945 4.20237 157.949 4.34363V10.9231C157.951 10.9936 157.939 11.0637 157.912 11.1292C157.886 11.1946 157.847 11.2541 157.797 11.3038C157.747 11.3558 157.688 11.3971 157.622 11.4254C157.556 11.4536 157.485 11.4681 157.413 11.468C157.271 11.4629 157.137 11.4046 157.036 11.3048C156.936 11.2049 156.878 11.071 156.873 10.9299V4.34766Z" fill="white"/>
<path d="M160.444 8.14695L159.768 8.85454V10.945C159.77 11.0155 159.758 11.0856 159.731 11.1511C159.705 11.2166 159.666 11.276 159.616 11.3257C159.565 11.3782 159.504 11.4198 159.436 11.448C159.368 11.4762 159.296 11.4905 159.223 11.4898C159.151 11.49 159.08 11.4755 159.014 11.4473C158.948 11.419 158.888 11.3777 158.839 11.3257C158.789 11.276 158.749 11.2166 158.723 11.1511C158.697 11.0856 158.684 11.0155 158.686 10.945V4.35341C158.689 4.20862 158.743 4.06943 158.839 3.9606C158.945 3.86642 159.081 3.81257 159.223 3.80859C159.368 3.81475 159.506 3.87194 159.613 3.97002C159.709 4.07885 159.763 4.21803 159.766 4.36283V7.30888L162.794 4.08033C162.836 4.02428 162.888 3.97715 162.948 3.94178C163.008 3.90641 163.075 3.88353 163.144 3.87451C163.215 3.86214 163.289 3.86548 163.359 3.88431C163.429 3.90313 163.494 3.93698 163.549 3.98347C163.606 4.02424 163.654 4.07621 163.69 4.13615C163.725 4.19608 163.748 4.26271 163.757 4.33189C163.769 4.40303 163.766 4.47594 163.747 4.54559C163.728 4.61525 163.694 4.68002 163.648 4.73546L161.199 7.36L163.682 10.6033C163.731 10.6557 163.768 10.7177 163.791 10.7854C163.815 10.8531 163.823 10.9249 163.817 10.9961C163.798 11.1415 163.723 11.2741 163.609 11.3661C163.513 11.4434 163.393 11.4856 163.27 11.4858C163.19 11.4871 163.111 11.47 163.039 11.436C162.966 11.4019 162.903 11.3518 162.854 11.2894L160.444 8.14695Z" fill="white"/>
<path d="M168.163 9.94434H165.495L165.035 11.0542C164.984 11.3151 164.81 11.447 164.511 11.447H164.39C164.315 11.4189 164.247 11.3766 164.189 11.3224C164.131 11.2681 164.085 11.203 164.052 11.1308C163.979 11.0515 163.96 10.9169 163.997 10.7273L166.336 4.23922C166.364 4.1201 166.434 4.01488 166.533 3.94278C166.632 3.87067 166.754 3.83647 166.877 3.84642C166.995 3.83833 167.113 3.87378 167.208 3.94612C167.302 4.01846 167.367 4.12269 167.39 4.23922L169.609 10.7273C169.661 10.8569 169.661 11.0012 169.609 11.1308C169.545 11.2743 169.427 11.3875 169.281 11.447C169.143 11.4714 169.002 11.4521 168.876 11.3918C168.735 11.3176 168.623 11.1988 168.558 11.0542L168.163 9.94434ZM167.84 8.84394L166.878 6.05663L165.893 8.84394H167.84Z" fill="white"/>
<path d="M53.5885 15.4839C54.399 13.6625 57.1507 13.7351 57.9207 15.5539C60.3333 20.651 62.161 26.0117 64.4642 31.1585C65.9028 31.4451 68.4073 31.5298 68.2289 33.6136C68.4991 35.1323 66.9997 36.4386 65.5273 36.2085C59.0432 36.2475 52.5511 36.3175 46.063 36.2166C44.1718 36.4264 42.8426 34.4422 43.4424 32.7378C44.134 31.3213 45.8455 31.515 47.1288 31.1653C49.4104 25.9955 51.1773 20.5971 53.5885 15.4839ZM52.4781 31.4034C54.68 31.3953 56.8814 31.3953 59.0824 31.4034C58.017 28.5918 56.9436 25.7826 55.862 22.9755C54.5611 25.709 53.5264 28.5609 52.4781 31.4034Z" fill="#DB2A2A"/>
<path d="M69.7689 16.1688C69.8148 14.9312 70.8631 13.9787 72.0248 14.0272C72.5584 14.0597 73.062 14.2839 73.4421 14.6582C73.8222 15.0325 74.053 15.5315 74.0916 16.0625C74.0808 20.1421 74.0691 24.2226 74.0565 28.3041C76.1818 25.8342 78.3143 23.3137 80.4541 20.7425C81.958 18.931 83.4394 17.1284 84.8983 15.3347C85.135 15.0105 85.4415 14.743 85.7953 14.5518C86.5126 14.1657 87.5446 14.042 88.193 14.4872C88.9711 15.0253 89.0225 16.1836 89.0387 16.7069C89.113 19.1 89.1278 25.6943 89.0143 34.5634C88.6307 35.7526 87.4811 36.5005 86.3127 36.3714C85.8066 36.3061 85.3316 36.092 84.9483 35.7565C84.565 35.4211 84.2908 34.9795 84.1608 34.4881C84.1121 30.9394 84.064 27.3902 84.0162 23.8406L78.009 30.2385C76.3759 32.099 74.9453 33.6487 73.7944 34.8876C73.5323 35.1701 72.8029 35.9221 71.8127 36.0983C71.5831 36.14 70.8401 36.2718 70.2944 35.8575C70.2385 35.8185 70.1852 35.7758 70.135 35.7297C69.7041 35.3262 69.6743 34.741 69.6608 34.5029C69.6217 33.7912 69.6514 26.3548 69.7689 16.1688Z" fill="#DB2A2A"/>
<path d="M96.7403 16.6531C97.44 14.8492 99.2609 13.1757 101.333 13.8726C103.63 14.8869 104.17 17.5598 105.059 19.657C106.654 24.3438 108.841 28.8449 110.092 33.6474C110.597 35.5388 108.336 36.8477 106.715 36.1576C105.221 35.2052 105.034 33.3071 104.404 31.8044C101.688 31.7964 98.9813 31.8044 96.2742 31.7816C95.769 33.0286 95.3881 34.3537 94.6532 35.4917C93.6185 36.7697 91.3004 36.615 90.5534 35.1124C90.3116 32.9425 91.3464 30.9287 92.0542 28.9458C93.6793 24.8658 95.0301 20.6902 96.7403 16.6531ZM97.5724 27.2428C99.3852 27.2428 101.2 27.2401 103.018 27.2347C102.072 24.5241 101.237 21.7812 100.397 19.0382C99.3771 21.7435 98.4991 24.4931 97.5724 27.2428Z" fill="#DB2A2A"/>
<path d="M117.625 17.6369C117.981 16.5876 118.857 13.9967 120.439 13.7935C120.719 13.7625 121.001 13.7956 121.266 13.8904C123.057 14.4689 123.784 16.9481 123.914 17.4136L130.369 33.6357C130.472 34.1861 130.378 34.7551 130.104 35.2438C129.83 35.7326 129.392 36.1104 128.868 36.3118C128.343 36.5132 127.764 36.5255 127.231 36.3466C126.699 36.1676 126.246 35.8087 125.951 35.332L120.926 22.9559L116.603 34.4993C116.258 35.6199 115.387 36.4257 114.367 36.5454C114.174 36.5683 112.977 36.6799 112.326 35.7719C111.736 34.9432 112.084 33.9585 112.119 33.8617C114.554 26.553 116.508 20.9058 117.625 17.6369Z" fill="#DB2A2A"/>
<path d="M138.111 14.616C142.085 13.182 147.048 13.6394 150.168 16.6836C153.863 20.3332 154.128 26.3692 152.238 30.943C148.996 38.4346 136.703 38.6202 133.038 31.4165C130.176 25.7397 131.567 17.0643 138.111 14.616ZM139.713 19.1709C136.524 21.4874 136.236 26.3006 137.985 29.583C139.635 32.7671 144.723 33.0227 146.714 30.0713C148.558 27.3284 148.558 23.4931 146.87 20.6735C145.469 18.2952 141.969 17.714 139.713 19.1709Z" fill="#DB2A2A"/>
<path d="M156.787 14.6931L168.121 14.5586C169.257 14.8922 170.018 15.9038 170 16.9423C169.977 18.227 168.784 19.3826 167.276 19.3315L159.79 19.3449L159.697 34.4115C159.63 35.0016 159.347 35.5467 158.903 35.943C158.459 36.3394 157.884 36.5594 157.288 36.5612C156.692 36.5631 156.115 36.3466 155.669 35.9529C155.222 35.5593 154.937 35.016 154.866 34.4263C154.825 29.2588 154.783 24.0918 154.742 18.9252C154.707 18.7355 154.32 16.3975 155.802 15.207C156.093 14.9718 156.428 14.7971 156.787 14.6931Z" fill="#DB2A2A"/>
<path d="M25.977 14.9796C29.8534 14.9796 32.9959 11.8502 32.9959 7.98981C32.9959 4.12944 29.8534 1 25.977 1C22.1005 1 18.958 4.12944 18.958 7.98981C18.958 11.8502 22.1005 14.9796 25.977 14.9796Z" stroke="white" stroke-width="0.83" stroke-miterlimit="10"/>
<path d="M29.4437 10.1182C28.5096 10.9214 27.3225 11.3733 26.0885 11.3954C24.8546 11.4175 23.652 11.0084 22.6895 10.2392" stroke="white" stroke-width="0.83" stroke-miterlimit="10" stroke-linecap="round"/>
<path d="M23.6712 6.40853C23.6712 6.56208 23.5457 6.69011 23.3864 6.69011C23.2271 6.69011 23.1016 6.56208 23.1016 6.40853C23.1016 6.25498 23.2271 6.12695 23.3864 6.12695C23.5457 6.12695 23.6712 6.25498 23.6712 6.40853Z" fill="#23283B" stroke="white"/>
<path d="M29.1852 6.40853C29.1852 6.56208 29.0596 6.69011 28.9003 6.69011C28.741 6.69011 28.6155 6.56208 28.6155 6.40853C28.6155 6.25498 28.741 6.12695 28.9003 6.12695C29.0596 6.12695 29.1852 6.25498 29.1852 6.40853Z" fill="#23283B" stroke="white"/>
<path d="M10.6928 18.3136C14.5693 18.3136 17.7118 15.1842 17.7118 11.3238C17.7118 7.46343 14.5693 4.33398 10.6928 4.33398C6.81633 4.33398 3.67383 7.46343 3.67383 11.3238C3.67383 15.1842 6.81633 18.3136 10.6928 18.3136Z" stroke="white" stroke-width="0.83" stroke-miterlimit="10"/>
<path d="M14.1595 13.4531C13.2249 14.2554 12.0378 14.7066 10.8041 14.7285C9.57041 14.7503 8.36794 14.3415 7.40527 13.5729" stroke="white" stroke-width="0.83" stroke-miterlimit="10" stroke-linecap="round"/>
<path d="M8.38608 9.74252C8.38608 9.89607 8.26052 10.0241 8.10125 10.0241C7.94197 10.0241 7.81641 9.89607 7.81641 9.74252C7.81641 9.58897 7.94197 9.46094 8.10125 9.46094C8.26052 9.46094 8.38608 9.58896 8.38608 9.74252Z" fill="#23283B" stroke="white"/>
<path d="M13.9007 9.74252C13.9007 9.89607 13.7752 10.0241 13.6159 10.0241C13.4566 10.0241 13.3311 9.89607 13.3311 9.74252C13.3311 9.58896 13.4566 9.46094 13.6159 9.46094C13.7752 9.46094 13.9007 9.58896 13.9007 9.74252Z" fill="#23283B" stroke="white"/>
<path d="M35.6711 27.2304C35.6711 21.6907 30.9215 16.973 30.1083 15.9062C29.0276 17.2421 26.9325 17.5205 25.9774 17.5716C25.0224 17.5165 22.9272 17.2421 21.8479 15.9062C21.0374 16.973 16.2852 21.6907 16.2852 27.2304C16.2852 31.2566 18.6667 35.6367 25.4803 36.0241V36.0551C25.6505 36.0551 25.814 36.0551 25.9774 36.0457C26.1409 36.0362 26.3057 36.0551 26.4746 36.0551V36.0241C33.2963 35.6367 35.6711 31.2566 35.6711 27.2304Z" fill="white"/>
<path d="M35.6703 27.279C35.6703 25.4549 35.3528 24.3087 34.6329 22.7631C33.1658 19.6166 18.5578 19.9179 17.0908 22.8384C16.2587 24.493 16.2803 25.2746 16.2803 27.2777C16.2803 31.3039 18.6619 35.6827 25.4755 36.0714V36.1024C25.6457 36.1024 25.8092 36.1024 25.9726 36.093C26.1361 36.0835 26.3009 36.1024 26.4697 36.1024V36.0714C33.2955 35.684 35.6703 31.3053 35.6703 27.279Z" fill="#0252FF"/>
<path d="M16.3362 28.3079C17.3399 31.5728 19.2445 35.7174 25.48 36.0726V36.1035C25.6502 36.1035 25.8137 36.1035 25.9771 36.0941C26.1406 36.0847 26.3054 36.1035 26.4742 36.1035V36.0726C32.707 35.7174 35.5668 31.0172 35.6181 28.9025C33.5297 26.3197 21.0195 26.3197 16.3362 28.3079Z" fill="#B20932"/>
<path opacity="0.33" d="M26.0608 33.6857C21.9138 33.2714 18.8501 29.9756 19.2188 26.326C18.4435 26.1915 18.1179 26.7982 17.7127 26.93C17.3439 30.5796 20.4143 33.8754 24.5547 34.2897C26.1605 34.46 27.7811 34.1534 29.2124 33.4086C28.1891 33.6997 27.1195 33.7938 26.0608 33.6857Z" fill="white"/>
<path d="M35.6711 27.2304C35.6711 21.6907 30.9215 16.973 30.1083 15.9062C29.0276 17.2421 26.9325 17.5205 25.9774 17.5716C25.0224 17.5165 22.9272 17.2421 21.8479 15.9062C21.0374 16.973 16.2852 21.6907 16.2852 27.2304C16.2852 31.2566 18.6667 35.6367 25.4803 36.0241V36.0551C25.6505 36.0551 25.814 36.0551 25.9774 36.0457C26.1409 36.0362 26.3057 36.0551 26.4746 36.0551V36.0241C33.2963 35.6367 35.6711 31.2566 35.6711 27.2304Z" stroke="white" stroke-width="0.83" stroke-linejoin="round"/>
<path d="M20.3859 30.1767C20.3859 24.637 15.6364 19.9193 14.8232 18.8525C13.7425 20.1884 11.6473 20.4668 10.6923 20.5166C9.73724 20.4628 7.64209 20.1884 6.56276 18.8525C5.75226 19.9193 1 24.637 1 30.1767C1 34.2016 3.38153 38.5817 10.1965 38.9691V39C10.3654 39 10.5288 39 10.6923 38.9906C10.8557 38.9812 11.0205 39 11.1894 39V38.9691C18.0044 38.5817 20.3859 34.2016 20.3859 30.1767Z" fill="#B20932" stroke="white" stroke-width="0.83" stroke-linejoin="round"/>
<path fill-rule="evenodd" clip-rule="evenodd" d="M10.9991 28.3135L11.6218 29.1394L12.6025 28.8058L12.0054 29.6506L12.6282 30.4766L11.6367 30.1726L11.0396 31.0174L11.0247 29.9842L10.0332 29.6802L11.0153 29.3466L10.9991 28.3135Z" fill="white"/>
<path d="M10.1139 33.478C9.11719 33.478 8.16131 33.0838 7.45655 32.3819C6.75178 31.6801 6.35584 30.7282 6.35584 29.7356C6.35584 28.7431 6.75178 27.7912 7.45655 27.0893C8.16131 26.3875 9.11719 25.9932 10.1139 25.9932C10.5224 25.9934 10.9282 26.0607 11.3148 26.1923C10.6104 25.744 9.79242 25.5049 8.95652 25.5029C8.12063 25.501 7.30148 25.7363 6.59504 26.1813C5.8886 26.6262 5.32411 27.2625 4.9677 28.0154C4.61129 28.7684 4.47772 29.6069 4.58263 30.4327C4.68755 31.2586 5.0266 32.0375 5.56008 32.6784C6.09356 33.3192 6.79937 33.7954 7.59483 34.0512C8.39029 34.307 9.24247 34.3317 10.0515 34.1225C10.8606 33.9133 11.5931 33.4788 12.1631 32.87C11.5538 33.2665 10.8417 33.4778 10.1139 33.478Z" fill="white"/>
</svg>
