<svg width="14" height="14" viewBox="0 0 14 14" fill="none" xmlns="http://www.w3.org/2000/svg">
<g clip-path="url(#clip0_0_177)">
<path d="M0.52499 0.0574303C0.33085 0.133993 0.13124 0.333602 0.0574123 0.533212C-0.0191502 0.73829 -0.0191502 1.01173 0.0574123 1.22227C0.1121 1.37266 0.240615 1.50665 2.92304 4.18907L5.72851 7.00001L2.92304 9.81095C0.240615 12.4934 0.1121 12.6274 0.0574123 12.7777C-0.117588 13.2535 0.0984279 13.7813 0.533194 13.9426C0.738272 14.0192 1.01171 14.0192 1.22226 13.9426C1.37265 13.8879 1.50663 13.7594 4.19179 11.077L6.99999 8.27149L9.81093 11.077C12.4933 13.7594 12.6273 13.8879 12.7777 13.9426C13.2535 14.1176 13.7812 13.9016 13.9426 13.4668C14.0191 13.2617 14.0191 12.9883 13.9426 12.7777C13.8879 12.6274 13.7594 12.4934 11.0769 9.81095L8.27147 7.00001L11.0769 4.18907C13.7594 1.50665 13.8879 1.37266 13.9426 1.22227C14.0191 1.01173 14.0191 0.73829 13.9426 0.533212C13.7812 0.0984459 13.2535 -0.11757 12.7777 0.0574303C12.6273 0.112118 12.4933 0.240633 9.81093 2.92306L6.99999 5.72852L4.19179 2.92306C1.50663 0.240633 1.37265 0.112118 1.22226 0.0574303C1.01444 -0.0191326 0.7246 -0.0191326 0.52499 0.0574303Z" fill="#DF5656"/>
</g>
<defs>
<clipPath id="clip0_0_177">
<rect width="14" height="14" fill="white"/>
</clipPath>
</defs>
</svg>
