<svg width="11" height="8" viewBox="0 0 11 8" fill="none" xmlns="http://www.w3.org/2000/svg">
<path d="M9.13659 0.402344C9.07604 0.423829 8.99791 0.458985 8.9608 0.484375C8.92565 0.509766 7.72252 1.70117 6.28893 3.13281C4.85338 4.56641 3.65807 5.74609 3.62877 5.75586C3.59166 5.76953 3.55651 5.76953 3.52135 5.75586C3.4901 5.74609 2.97057 5.24219 2.36315 4.63672C1.08971 3.36719 1.16198 3.42383 0.829945 3.42383C0.660023 3.42383 0.620961 3.42969 0.523305 3.47656C0.369008 3.54883 0.245961 3.66797 0.169789 3.82227C0.111195 3.94141 0.107289 3.96289 0.107289 4.15625C0.107289 4.50586 0.00182033 4.37695 1.66784 6.04492C3.04088 7.41992 3.12291 7.49805 3.25182 7.55859C3.37682 7.61719 3.40416 7.62305 3.57409 7.62305C3.74401 7.62305 3.77135 7.61719 3.89635 7.55859C4.02721 7.49609 4.14635 7.38086 7.00377 4.52148C10.3827 1.14258 10.0878 1.4668 10.0878 1.10938C10.0878 0.916016 10.0839 0.894532 10.0253 0.775391C9.94909 0.621094 9.82604 0.5 9.6737 0.431641C9.52721 0.363282 9.29284 0.351563 9.13659 0.402344Z" fill="white"/>
</svg>
