<svg width="14" height="14" viewBox="0 0 14 14" fill="none" xmlns="http://www.w3.org/2000/svg">
<path d="M12.5462 1.96328C12.463 1.99336 12.3558 2.04258 12.3048 2.07813C12.2565 2.11367 10.6044 3.78164 8.63584 5.78594C6.66458 7.79297 5.0232 9.44453 4.98297 9.4582C4.93201 9.47734 4.88374 9.47734 4.83546 9.4582C4.79255 9.44453 4.07914 8.73906 3.24504 7.89141C1.49638 6.11406 1.59561 6.19336 1.13967 6.19336C0.906341 6.19336 0.852701 6.20156 0.718601 6.26719C0.506724 6.36836 0.337758 6.53516 0.233161 6.75117C0.152701 6.91797 0.147337 6.94805 0.147337 7.21875C0.147337 7.7082 0.00250937 7.52773 2.29025 9.86289C4.17569 11.7879 4.28833 11.8973 4.46534 11.982C4.63699 12.0641 4.67454 12.0723 4.90787 12.0723C5.14121 12.0723 5.17875 12.0641 5.3504 11.982C5.5301 11.8945 5.6937 11.7332 9.61745 7.73008C14.2573 2.99961 13.8523 3.45352 13.8523 2.95313C13.8523 2.68242 13.847 2.65234 13.7665 2.48555C13.6619 2.26953 13.4929 2.1 13.2837 2.0043C13.0826 1.90859 12.7607 1.89219 12.5462 1.96328Z" fill="#0A9563"/>
</svg>
