<svg width="16" height="16" viewBox="0 0 16 16" fill="none" xmlns="http://www.w3.org/2000/svg">
<g clip-path="url(#clip0_0_110)">
<path d="M8 0.25C3.71875 0.25 0.25 3.71875 0.25 8C0.25 12.2812 3.71875 15.75 8 15.75C12.2812 15.75 15.75 12.2812 15.75 8C15.75 3.71875 12.2812 0.25 8 0.25ZM8 14.25C4.53125 14.25 1.75 11.4688 1.75 8C1.75 4.5625 4.53125 1.75 8 1.75C11.4375 1.75 14.25 4.5625 14.25 8C14.25 11.4688 11.4375 14.25 8 14.25ZM9.90625 11C10.0938 11.125 10.3125 11.0938 10.4375 10.9062L11.0312 10.125C11.1562 9.9375 11.125 9.71875 10.9375 9.59375L8.875 8.0625V3.625C8.875 3.4375 8.6875 3.25 8.5 3.25H7.5C7.28125 3.25 7.125 3.4375 7.125 3.625V8.78125C7.125 8.875 7.15625 9 7.25 9.0625L9.90625 11Z" fill="#999999"/>
</g>
<defs>
<clipPath id="clip0_0_110">
<rect width="16" height="16" fill="white"/>
</clipPath>
</defs>
</svg>
