<svg width="19" height="19" viewBox="0 0 19 19" fill="none" xmlns="http://www.w3.org/2000/svg">
<g clip-path="url(#clip0_6_53)">
<path d="M11.3555 18.0352C10.5687 17.9127 9.96387 17.434 9.6707 16.6881C9.59648 16.4988 9.55937 16.3244 9.5334 15.9941C9.4666 15.174 9.32187 14.9217 8.3125 13.8566C7.54805 13.0551 7.2623 12.6729 6.9209 11.9863C6.65 11.4408 6.4125 11.0586 6.29375 10.9732C6.21211 10.9139 6.11191 10.8916 5.87441 10.8805L5.56641 10.8619V11.259V11.6523H2.7832H0V6.29004V0.927734H2.7832H5.56641V1.26172C5.56641 1.44727 5.57383 1.5957 5.58496 1.5957C5.59609 1.5957 5.71855 1.52148 5.85957 1.43242C6.17871 1.22832 6.41621 1.10586 6.67969 1.0168C6.87637 0.95 7.07305 0.946289 11.5225 0.946289C16.6287 0.946289 16.3021 0.931445 16.792 1.18379C17.4266 1.51035 17.8236 2.1709 17.8236 2.90937C17.8236 3.2916 17.7791 3.48086 17.6195 3.81113L17.5045 4.04492L17.7049 4.26016C18.2652 4.86133 18.384 5.80391 17.998 6.52012L17.8979 6.71309L18.0686 6.89121C18.3061 7.13613 18.4656 7.4293 18.5547 7.77812C18.6771 8.26055 18.6289 8.72441 18.4062 9.16602L18.2875 9.3998L18.4545 9.57051C18.833 9.96016 19 10.3721 19 10.925C19 11.515 18.8367 11.927 18.4434 12.3203C18.3098 12.4576 18.102 12.6172 17.9758 12.684C17.5453 12.9066 17.4859 12.9141 15.2186 12.9141C13.5895 12.9141 13.1701 12.9252 13.185 12.9623C13.5672 13.827 13.7713 14.8029 13.775 15.7715C13.7787 16.3838 13.7268 16.6139 13.4855 17.0221C13.0551 17.742 12.1793 18.1576 11.3555 18.0352ZM12.1051 16.6398C12.1904 16.5805 12.3129 16.458 12.376 16.3689L12.4873 16.2094L12.4836 15.6861C12.4799 14.8141 12.2721 13.9828 11.8639 13.1961C11.7191 12.9178 11.5521 12.6914 11.1773 12.2498L10.6838 11.6709L13.9605 11.6523C17.5379 11.6338 17.3338 11.6449 17.5416 11.4223C17.8719 11.0697 17.7568 10.5168 17.3115 10.3127C17.1742 10.2496 17.0295 10.2422 15.1889 10.2422H13.2109V9.61133V8.98047H14.9477C16.0424 8.98047 16.7326 8.96562 16.8217 8.93965C16.9961 8.89141 17.215 8.70586 17.2781 8.54629C17.4191 8.2123 17.2707 7.8041 16.9516 7.64824C16.792 7.57031 16.7512 7.57031 14.9996 7.57031H13.2109V6.93945V6.3123L14.8178 6.30117L16.4209 6.29004L16.5768 6.20098C16.766 6.09336 16.8699 5.95605 16.9293 5.73711C17.0072 5.44395 16.8514 5.1248 16.5471 4.97266C16.4135 4.90215 16.3207 4.89844 14.8066 4.89844H13.2109V4.24902V3.59961H14.6211C15.9533 3.59961 16.0424 3.5959 16.176 3.52539C16.6695 3.27305 16.6658 2.5457 16.1723 2.30449L16.009 2.22656H11.5484C7.84492 2.22656 7.06562 2.23398 6.96543 2.27852C6.89863 2.30449 6.65371 2.44922 6.41992 2.59395C6.18613 2.73867 5.90039 2.89453 5.78164 2.93906L5.56641 3.01699V6.30859V9.60019L6.0043 9.61875C6.94316 9.66328 7.31797 9.96387 7.95996 11.2107C8.3459 11.9566 8.57969 12.2684 9.31445 13.0439C9.99727 13.7676 10.2682 14.1127 10.4834 14.558C10.6838 14.9811 10.7543 15.2445 10.7951 15.7641C10.8285 16.1797 10.8508 16.2576 11.0141 16.4729C11.2441 16.7809 11.7859 16.8662 12.1051 16.6398ZM4.26758 6.29004V2.22656H2.76465H1.26172V6.29004V10.3535H2.76465H4.26758V6.29004Z" fill="#999999"/>
<path d="M2.5049 4.11914C2.44181 4.10059 2.33791 4.03379 2.27482 3.9707C1.90744 3.61074 2.08185 3.00586 2.58283 2.89453C2.74982 2.85742 2.98361 2.90566 3.10607 3.00215C3.32873 3.1877 3.40666 3.54023 3.27677 3.81113C3.15802 4.06348 2.79435 4.2082 2.5049 4.11914Z" fill="#999999"/>
</g>
<defs>
<clipPath id="clip0_6_53">
<rect width="19" height="19" fill="white" transform="matrix(1 0 0 -1 0 19)"/>
</clipPath>
</defs>
</svg>
