<svg width="16" height="16" viewBox="0 0 16 16" fill="none" xmlns="http://www.w3.org/2000/svg">
<path d="M15.7499 8.26666C15.7499 4.29999 12.2501 1.03333 8 1.03333C3.71875 1.03333 0.25 4.29999 0.25 8.26666C0.25 12.2625 3.71875 15.4999 8 15.4999C12.2501 15.4999 15.7499 12.2625 15.7499 8.26666ZM8 9.725C8.78125 9.725 9.4375 10.3375 9.4375 11.0667C9.4375 11.825 8.78125 12.4083 8 12.4083C7.1875 12.4083 6.5625 11.825 6.5625 11.0667C6.5625 10.3375 7.1875 9.725 8 9.725ZM6.62501 4.91249C6.59375 4.70832 6.78125 4.53333 7 4.53333H8.96875C9.1875 4.53333 9.375 4.70832 9.34375 4.91249L9.12501 8.87916C9.09375 9.08332 8.9375 9.19999 8.75 9.19999H7.21875C7.03125 9.19999 6.87499 9.08332 6.84375 8.87916L6.62501 4.91249Z" fill="#999999"/>
</svg>
