<svg width="19" height="19" viewBox="0 0 19 19" fill="none" xmlns="http://www.w3.org/2000/svg">
<g clip-path="url(#clip0_6_49)">
<path d="M11.3555 0.964844C10.5687 1.08731 9.96387 1.56602 9.6707 2.31191C9.59648 2.50117 9.55937 2.67559 9.5334 3.00586C9.4666 3.82598 9.32187 4.07832 8.3125 5.14336C7.54805 5.94492 7.2623 6.32715 6.9209 7.01367C6.65 7.55918 6.4125 7.94141 6.29375 8.02676C6.21211 8.08613 6.11191 8.1084 5.87441 8.11953L5.56641 8.13809V7.74102V7.34766H2.7832H0V12.71V18.0723H2.7832H5.56641V17.7383C5.56641 17.5527 5.57383 17.4043 5.58496 17.4043C5.59609 17.4043 5.71855 17.4785 5.85957 17.5676C6.17871 17.7717 6.41621 17.8941 6.67969 17.9832C6.87637 18.05 7.07305 18.0537 11.5225 18.0537C16.6287 18.0537 16.3021 18.0686 16.792 17.8162C17.4266 17.4896 17.8236 16.8291 17.8236 16.0906C17.8236 15.7084 17.7791 15.5191 17.6195 15.1889L17.5045 14.9551L17.7049 14.7398C18.2652 14.1387 18.384 13.1961 17.998 12.4799L17.8979 12.2869L18.0686 12.1088C18.3061 11.8639 18.4656 11.5707 18.5547 11.2219C18.6771 10.7395 18.6289 10.2756 18.4062 9.83398L18.2875 9.6002L18.4545 9.42949C18.833 9.03984 19 8.62793 19 8.075C19 7.48496 18.8367 7.07305 18.4434 6.67969C18.3098 6.54238 18.102 6.38281 17.9758 6.31602C17.5453 6.09336 17.4859 6.08594 15.2186 6.08594C13.5895 6.08594 13.1701 6.07481 13.185 6.0377C13.5672 5.17305 13.7713 4.19707 13.775 3.22852C13.7787 2.61621 13.7268 2.38613 13.4855 1.97793C13.0551 1.25801 12.1793 0.842382 11.3555 0.964844ZM12.1051 2.36016C12.1904 2.41953 12.3129 2.54199 12.376 2.63105L12.4873 2.79063L12.4836 3.31387C12.4799 4.18594 12.2721 5.01719 11.8639 5.80391C11.7191 6.08223 11.5521 6.30859 11.1773 6.7502L10.6838 7.3291L13.9605 7.34766C17.5379 7.36621 17.3338 7.35508 17.5416 7.57773C17.8719 7.93027 17.7568 8.4832 17.3115 8.6873C17.1742 8.75039 17.0295 8.75781 15.1889 8.75781H13.2109V9.38867V10.0195H14.9477C16.0424 10.0195 16.7326 10.0344 16.8217 10.0604C16.9961 10.1086 17.215 10.2941 17.2781 10.4537C17.4191 10.7877 17.2707 11.1959 16.9516 11.3518C16.792 11.4297 16.7512 11.4297 14.9996 11.4297H13.2109V12.0605V12.6877L14.8178 12.6988L16.4209 12.71L16.5768 12.799C16.766 12.9066 16.8699 13.0439 16.9293 13.2629C17.0072 13.5561 16.8514 13.8752 16.5471 14.0273C16.4135 14.0979 16.3207 14.1016 14.8066 14.1016H13.2109V14.751V15.4004H14.6211C15.9533 15.4004 16.0424 15.4041 16.176 15.4746C16.6695 15.727 16.6658 16.4543 16.1723 16.6955L16.009 16.7734H11.5484C7.84492 16.7734 7.06562 16.766 6.96543 16.7215C6.89863 16.6955 6.65371 16.5508 6.41992 16.4061C6.18613 16.2613 5.90039 16.1055 5.78164 16.0609L5.56641 15.983V12.6914V9.39981L6.0043 9.38125C6.94316 9.33672 7.31797 9.03613 7.95996 7.78926C8.3459 7.04336 8.57969 6.73164 9.31445 5.95605C9.99727 5.23242 10.2682 4.88731 10.4834 4.44199C10.6838 4.01895 10.7543 3.75547 10.7951 3.23594C10.8285 2.82031 10.8508 2.74238 11.0141 2.52715C11.2441 2.21914 11.7859 2.13379 12.1051 2.36016ZM4.26758 12.71V16.7734H2.76465H1.26172V12.71V8.64648H2.76465H4.26758V12.71Z" fill="#999999"/>
<path d="M2.5049 14.8809C2.44181 14.8994 2.33791 14.9662 2.27482 15.0293C1.90744 15.3893 2.08185 15.9941 2.58283 16.1055C2.74982 16.1426 2.98361 16.0943 3.10607 15.9979C3.32873 15.8123 3.40666 15.4598 3.27677 15.1889C3.15802 14.9365 2.79435 14.7918 2.5049 14.8809Z" fill="#999999"/>
</g>
<defs>
<clipPath id="clip0_6_49">
<rect width="19" height="19" fill="white"/>
</clipPath>
</defs>
</svg>
