<svg width="12" height="12" viewBox="0 0 12 12" fill="none" xmlns="http://www.w3.org/2000/svg">
<g clip-path="url(#clip0_0_501)">
<path d="M7.66875 0.421875C7.55625 0.492187 7.5 0.597656 7.5 0.75C7.5 0.902343 7.55625 1.00781 7.66875 1.07812C7.74375 1.12266 7.79063 1.125 9.03516 1.125H10.3242L7.62656 3.825C6.14062 5.31094 4.91484 6.55078 4.90078 6.57891C4.88672 6.60703 4.875 6.68672 4.875 6.75469C4.875 6.98203 5.01797 7.125 5.24531 7.125C5.31328 7.125 5.39297 7.11328 5.42109 7.09922C5.44922 7.08516 6.68906 5.85938 8.175 4.37344L10.875 1.67578V2.96484C10.875 4.20937 10.8773 4.25625 10.9219 4.33125C10.9922 4.44375 11.0977 4.5 11.25 4.5C11.4023 4.5 11.5078 4.44375 11.5781 4.33125C11.6227 4.25625 11.625 4.20937 11.625 2.4375C11.625 0.665625 11.6227 0.61875 11.5781 0.54375C11.5523 0.501562 11.4984 0.447656 11.4563 0.421875C11.3813 0.377344 11.3344 0.375 9.5625 0.375C7.79063 0.375 7.74375 0.377344 7.66875 0.421875Z" fill="#999999"/>
<path d="M1.14375 1.91953C0.803906 2.02969 0.513281 2.32734 0.4125 2.66953C0.379688 2.78437 0.375 3.21094 0.375 6.75234C0.375 10.568 0.377344 10.7109 0.419531 10.8492C0.527344 11.1937 0.822656 11.4867 1.16953 11.5875C1.28438 11.6203 1.71094 11.625 5.25234 11.625C9.06797 11.625 9.21094 11.6227 9.34922 11.5805C9.69375 11.4727 9.98672 11.1773 10.0875 10.8305C10.1203 10.718 10.125 10.4227 10.125 8.2875C10.125 5.91797 10.125 5.86875 10.0781 5.79375C9.94219 5.57109 9.57188 5.56172 9.42891 5.78203C9.38906 5.84297 9.38672 5.98125 9.375 8.21484C9.36328 10.5492 9.36328 10.582 9.31406 10.6641C9.24844 10.7766 9.13828 10.8469 8.99297 10.8633C8.925 10.8703 7.19531 10.875 5.14453 10.8703C1.46719 10.8633 1.41797 10.8633 1.33828 10.8164C1.23516 10.7555 1.17422 10.6711 1.14844 10.5562C1.12031 10.4344 1.12031 3.06562 1.14844 2.94375C1.17422 2.82891 1.23516 2.74453 1.33828 2.68359C1.41563 2.63672 1.47188 2.63672 3.78516 2.625C6.01875 2.61328 6.15703 2.61094 6.21797 2.57109C6.32344 2.50312 6.375 2.39531 6.375 2.25C6.375 2.09766 6.31875 1.99219 6.20625 1.92188C6.13125 1.875 6.08438 1.875 3.70313 1.87734C1.41563 1.87734 1.27031 1.87969 1.14375 1.91953Z" fill="#999999"/>
</g>
<defs>
<clipPath id="clip0_0_501">
<rect width="12" height="12" fill="white"/>
</clipPath>
</defs>
</svg>
