<svg width="423" height="232" viewBox="0 0 423 232" fill="none" xmlns="http://www.w3.org/2000/svg">
<path d="M-56.4448 2.57527C-50.858 4.35049 -45.7792 7.14013 -40.4464 9.67616C-36.6372 11.4514 -32.8281 12.7194 -29.5268 15.509C-28.765 16.2698 -28.0032 17.2843 -26.4795 17.5379C-24.194 17.5379 -22.6703 19.0595 -20.8927 20.3275C-17.5915 22.6099 -14.2902 24.6388 -10.989 26.9212C-7.17981 29.7108 -3.1167 31.2324 0.692444 33.7685C3.73978 35.7973 7.29495 37.3189 10.0883 40.1086C10.8502 41.123 12.1199 42.8982 14.1514 42.1374C14.4054 42.1374 15.1672 42.6446 15.4212 43.1518C18.7224 47.7167 23.0395 50.5063 27.8644 53.0423C28.6262 53.5495 29.388 54.0568 29.8959 54.8176C30.6577 56.0856 31.6735 56.8464 33.1972 57.3536C35.7366 58.1144 37.5142 60.1432 38.276 62.4257C38.7839 64.2009 40.0536 64.9617 41.0694 66.2297C41.5773 65.9761 41.3234 65.4689 41.0694 65.2153C40.5615 64.2009 40.8155 63.4401 41.5773 62.6793C42.3391 62.1721 43.101 62.6793 43.8628 62.6793C45.1325 63.4401 46.4022 64.2009 47.164 65.4689C48.1798 66.9905 49.7035 68.5121 51.735 68.7657C54.7823 69.5266 57.0678 71.3018 59.3533 73.5842C60.623 74.8522 60.877 77.3883 63.6703 76.3739C64.6861 76.1202 65.9558 77.8955 67.2256 78.9099C67.9874 79.6707 68.7492 80.9387 70.019 80.6851C71.5426 80.4315 71.7965 81.1923 72.0505 82.4603C72.3044 84.2356 73.3202 84.9964 74.8438 86.2644C76.8754 88.0396 79.6688 89.054 81.4464 91.59C81.9543 92.0973 82.2082 91.8437 82.7161 91.59C83.4779 91.3364 83.224 90.8292 82.9701 90.322C82.4622 88.8004 80.4306 88.2932 80.1767 86.0108C82.7161 87.0252 84.4937 88.8004 86.2713 90.322C88.3028 91.5901 89.8265 93.6189 92.112 94.6333C95.4133 96.1549 97.4448 98.6909 99.9842 101.227C102.016 103.256 103.539 105.538 105.571 107.567C106.333 108.328 106.841 109.089 107.856 108.835C109.634 108.581 110.142 109.596 110.65 110.864C110.904 112.386 111.92 112.893 113.189 113.4C115.221 114.161 116.998 115.682 118.776 116.95C121.062 118.726 123.347 120.247 125.633 122.022C126.902 123.037 128.426 122.53 129.696 123.037C131.219 123.798 130.203 125.827 131.727 126.587C133.251 127.348 134.521 128.87 135.79 130.138C136.806 129.377 135.028 127.602 137.06 127.602C138.584 127.602 138.584 129.123 138.584 129.884C138.584 131.659 139.345 133.435 140.361 134.449C142.393 136.224 143.409 138.76 145.44 140.282C146.202 140.789 146.71 141.804 147.726 141.804C148.741 140.789 148.995 139.267 150.011 138.253C152.043 140.536 152.804 141.043 154.836 140.789C154.328 140.282 153.82 139.775 153.312 139.521C153.058 139.014 152.551 138.507 152.804 137.999C153.058 137.492 153.566 137.492 154.074 137.492C156.106 137.492 157.121 137.999 157.375 140.282C157.375 141.296 158.137 142.057 158.899 142.311C159.661 142.818 160.677 142.311 161.692 143.325C160.931 145.1 161.946 147.129 161.692 149.158C161.692 149.919 161.692 150.426 162.454 150.68C164.74 151.187 166.263 152.708 168.041 154.23C168.549 154.737 169.565 155.245 170.073 154.23C170.327 153.723 169.819 150.68 169.311 150.933C167.787 151.44 167.279 150.933 168.041 149.412C168.549 148.397 168.041 147.89 167.533 147.129C166.771 146.368 166.009 145.608 165.502 144.847C164.232 142.818 163.978 141.296 164.994 140.789C165.756 140.282 168.041 141.55 168.803 142.818C168.803 142.818 168.803 143.325 169.057 143.579C169.819 146.622 171.85 148.651 174.136 150.426C175.405 151.44 175.913 152.455 175.151 153.976C174.897 154.991 174.39 156.259 174.897 157.02C176.929 160.063 177.945 164.374 183.024 164.121C181.754 162.599 179.722 161.585 180.484 159.049C180.484 158.541 179.722 157.527 178.707 157.02C176.421 156.259 176.929 154.23 176.929 152.455C176.929 151.44 177.691 151.44 178.453 151.44C179.215 151.44 179.722 151.948 180.23 152.708C182.516 156.005 185.309 159.049 186.579 162.853C188.103 162.092 188.103 161.838 189.118 162.599C189.626 163.106 190.134 163.613 190.896 163.613C193.181 163.36 194.197 164.628 195.721 165.896C196.737 166.657 197.752 167.417 198.768 168.432C198.43 166.741 198.853 165.98 200.038 166.149H200.546C199.784 163.867 199.53 161.331 196.737 159.809C195.213 159.049 194.197 157.527 192.927 156.259C191.404 154.484 190.642 152.201 188.356 150.933C187.341 150.426 187.595 149.158 187.849 148.144C188.864 145.861 188.61 145.861 186.579 144.593C184.801 143.325 182.516 142.818 180.992 141.043C177.183 135.971 171.596 132.167 168.295 126.841C167.279 125.319 166.263 123.037 163.47 123.29C162.708 121.262 159.915 121.008 159.661 118.472C159.661 117.458 159.153 116.443 157.883 115.936C157.121 115.682 156.614 114.922 156.106 114.161C154.836 110.61 152.55 107.821 150.519 104.777C148.233 101.227 146.202 97.1693 144.932 93.1117C144.678 91.8437 144.17 91.0828 143.155 90.322C142.393 89.8148 140.361 88.5468 142.647 87.2788C143.155 87.0252 143.155 86.518 142.647 86.0108C140.869 83.7283 142.647 80.9387 140.869 78.6563C141.885 77.1347 141.377 75.613 140.869 74.0914C140.869 73.5842 141.377 73.077 141.631 72.5698C142.901 71.5554 144.17 70.541 145.694 70.0338C150.519 68.2585 154.836 65.7225 160.169 65.7225C161.946 65.7225 163.216 65.7225 164.486 67.2441C166.771 70.0338 171.088 69.7802 172.866 73.077C172.866 73.077 173.374 73.077 173.628 73.077C174.136 74.8522 176.675 74.5986 177.183 76.8811C177.691 78.4027 179.976 79.9243 182.008 79.6707C183.024 79.6707 183.532 79.6707 184.039 80.4315C185.817 83.2211 188.356 84.9964 190.896 87.0252C191.658 87.786 192.927 88.2932 191.912 89.8148C191.404 90.322 192.166 90.8292 192.674 91.0828C195.721 91.3364 196.991 93.3653 198.514 95.9013C199.53 97.9301 201.308 99.4518 204.101 99.959C207.402 100.213 210.703 102.749 211.973 105.538C213.751 109.596 217.56 110.357 220.099 113.146C220.861 113.907 221.623 114.414 222.131 115.429C223.147 117.458 224.67 118.979 226.702 119.74C229.241 120.754 229.749 120.754 230.765 122.783C231.527 124.558 232.797 125.827 234.828 126.334C236.606 126.841 237.875 127.855 238.891 129.377C239.399 129.884 239.653 130.645 240.161 130.899C243.97 132.927 246.256 136.224 249.049 139.014C250.573 140.789 252.35 142.311 254.382 143.832C256.413 145.1 258.445 146.622 259.968 148.397C261.492 150.172 262.762 152.201 264.032 153.976C264.539 153.216 264.285 152.201 265.301 152.201C266.063 152.201 266.317 152.962 266.317 153.469C266.825 156.005 268.095 158.034 269.872 159.302C271.396 160.317 272.666 160.824 273.935 162.092C275.459 163.613 277.237 164.881 278.506 166.657C279.268 167.417 280.03 170.207 281.3 167.164C281.3 166.657 282.062 167.164 282.569 167.164C283.077 167.925 283.839 168.685 283.839 169.7C283.839 171.729 285.109 172.743 286.379 174.011C287.648 175.279 289.426 175.786 290.442 177.308C291.457 178.576 291.711 180.605 293.997 180.098C297.044 179.59 293.997 183.141 296.282 183.394C296.79 183.394 297.298 184.155 297.806 183.902C298.314 183.902 298.822 183.902 299.076 184.155C300.345 185.17 305.932 191.51 307.202 193.285C307.202 193.285 307.456 193.539 307.71 193.792C308.979 193.792 309.487 195.06 310.249 196.075C310.503 196.582 311.011 197.343 311.519 197.089C314.312 197.089 315.328 199.118 316.598 200.64C318.883 202.922 318.629 203.176 321.677 200.893C322.185 200.64 322.946 200.64 323.2 200.132C324.216 199.371 323.2 198.611 323.2 197.85C323.2 197.343 322.438 197.089 322.185 197.343C320.153 200.386 319.899 197.343 319.137 196.328C318.121 194.807 317.36 193.031 317.868 191.003C318.629 188.72 318.629 188.974 316.344 188.213C315.582 188.213 315.074 187.452 315.582 186.691C316.344 185.677 316.598 185.17 315.074 184.916C313.804 184.916 313.043 183.902 312.535 182.634C312.027 181.366 311.519 179.844 311.011 178.576C311.519 178.576 311.773 178.576 311.773 178.576C312.535 178.83 313.297 180.098 314.312 179.083C314.312 179.083 314.312 178.576 314.312 178.322C313.804 177.308 313.043 177.562 312.281 177.562C311.519 177.562 309.995 177.562 310.249 176.294C310.249 175.026 309.487 173.758 310.503 172.49C310.757 172.236 311.265 171.729 310.503 171.222C309.995 170.714 309.487 170.461 308.979 171.222C307.964 172.49 307.202 171.729 306.694 170.714C306.44 169.7 305.932 168.685 305.424 167.925C304.916 167.164 304.916 166.403 305.424 165.642C305.932 165.135 306.44 164.628 306.186 163.867C305.424 163.867 304.409 165.389 304.155 163.36C304.155 162.599 304.155 161.331 303.901 161.077C301.361 160.063 302.631 158.034 301.869 156.259C301.615 155.498 301.869 154.23 301.107 153.469C300.091 151.948 298.568 150.68 299.584 148.651C299.584 148.144 299.076 146.876 298.314 146.622C296.282 145.608 296.028 143.579 295.774 141.804C295.774 140.789 295.774 140.028 294.505 139.521C293.235 138.76 292.219 137.492 292.727 136.478C293.743 134.449 292.219 133.181 291.203 132.167C289.934 131.152 289.68 130.138 289.426 128.616C288.918 125.319 287.648 122.276 286.632 119.233C285.363 115.682 284.347 111.878 282.569 108.581C281.808 107.313 281.808 105.538 280.792 104.27C280.538 103.763 280.284 103.256 280.792 102.749C282.062 101.227 280.792 100.213 280.284 99.1982C280.03 97.9301 278.506 97.6765 278.252 96.4085C278.76 95.6477 279.522 96.6621 280.284 95.6477C278.506 94.3797 279.014 93.1117 280.03 91.59C280.792 90.322 281.046 89.3076 279.522 88.2932C278.506 87.786 278.252 86.7716 279.014 86.0108C280.284 84.4892 280.03 82.9675 279.268 81.4459C278.76 80.1779 278.506 78.1491 279.268 77.8955C281.046 76.8811 281.046 74.345 283.331 74.0914C284.855 74.0914 286.379 73.077 287.648 74.345C289.172 75.8666 291.203 76.1202 292.981 76.1202C294.505 76.1202 296.028 76.1202 297.044 77.6419C297.298 78.1491 298.06 78.1491 298.568 78.4027C301.869 80.1779 304.916 82.2067 306.948 85.5036C307.202 86.0108 307.71 86.518 308.218 86.7716C310.503 87.786 312.281 89.054 313.804 91.3364C314.312 90.5756 313.804 90.0684 313.804 89.8148C313.804 89.5612 313.804 89.054 313.804 88.8004C314.058 88.2932 314.566 88.8004 315.074 88.8004C315.582 89.054 315.836 89.5612 316.344 90.0684C318.883 92.6045 320.915 95.3941 323.708 97.6765C325.486 98.9445 326.502 100.973 328.787 101.734C329.803 101.988 329.803 103.256 330.057 104.017C330.311 105.285 331.326 105.538 332.596 105.285C334.628 105.031 335.897 105.792 336.405 107.567C336.405 108.328 336.405 109.089 336.913 109.596C339.199 110.864 340.468 113.146 342.246 114.922C342.5 115.175 342.754 115.682 343.262 115.429C345.293 114.161 346.055 116.19 347.071 117.204C347.833 118.472 350.118 118.979 349.103 121.262C348.595 122.783 348.595 124.305 350.118 125.319C350.88 125.827 351.388 126.334 352.15 125.319C352.658 124.559 352.658 123.798 351.896 123.29C351.134 122.783 350.118 122.022 350.372 120.754C352.15 121.262 353.927 122.276 354.181 123.798C354.689 126.587 356.721 127.095 358.244 128.616C359.006 129.377 359.768 130.138 360.53 130.645C362.308 132.167 362.815 134.956 365.609 135.21C366.371 135.21 366.625 136.224 366.879 136.731C367.132 137.239 367.386 138.507 367.894 138.507C370.434 139.014 370.942 141.043 371.957 142.818C372.465 143.579 372.973 144.086 373.735 144.34C377.29 145.608 379.576 148.144 380.845 151.694C380.845 152.201 381.099 152.455 381.607 152.455C384.147 153.216 385.67 155.245 387.702 157.02C388.972 158.034 388.21 159.556 388.972 160.57C389.733 161.585 391.257 160.824 392.273 162.092C397.098 167.164 401.669 172.236 406.24 177.562C407.002 178.576 408.017 179.59 409.033 180.098C411.065 180.858 412.842 182.38 414.62 183.648C416.397 185.17 417.921 186.438 420.715 185.677C422.238 185.17 423 186.184 423 187.706C423 188.213 421.984 194.553 421.73 195.06C421.476 195.821 421.476 196.328 421.476 197.089C421.73 201.147 419.953 204.697 417.413 207.233C413.604 211.291 408.271 211.037 403.446 210.276C398.621 209.516 394.05 208.248 390.241 204.951C386.686 201.908 383.131 199.118 380.338 195.821C378.306 193.285 376.021 191.003 373.989 188.72C371.196 185.423 367.132 183.141 365.609 178.576C365.609 178.069 365.101 177.815 364.593 177.815C362.815 177.815 362.815 176.547 362.562 175.279C362.054 171.475 360.53 168.432 356.975 166.657C355.959 166.149 355.705 165.135 355.197 164.121C354.689 162.853 354.435 161.585 353.166 160.824C352.15 160.063 351.388 160.57 351.642 161.585C351.642 163.106 352.15 164.374 352.404 166.403C350.88 164.881 349.356 164.121 350.118 161.838C350.372 160.824 349.61 160.063 348.849 159.556C344.278 155.245 340.468 150.172 339.453 143.832C339.453 143.579 339.453 142.311 338.437 143.072C337.167 144.34 336.659 143.072 336.405 142.564C336.151 140.789 334.882 139.267 334.628 137.239C334.12 133.435 333.358 132.927 329.803 133.181C329.803 133.181 329.803 133.181 329.549 133.181C329.549 132.927 329.549 132.42 329.549 132.167C330.057 131.659 330.565 131.152 330.311 130.391C329.803 129.377 329.295 128.363 328.279 128.109C327.517 127.855 326.756 128.363 327.009 129.123C328.533 131.913 325.994 132.167 323.962 133.435C324.724 131.152 323.962 129.377 324.47 128.109C325.994 125.319 324.47 124.051 322.692 122.53C322.185 122.276 321.677 121.769 321.423 121.262C320.661 120.501 319.899 119.994 321.423 118.979C322.692 117.965 320.915 116.95 320.407 115.682C319.899 114.414 319.137 115.682 318.883 115.682C317.868 116.19 317.36 115.682 316.598 115.175C315.328 114.161 314.82 112.893 314.566 111.625C314.566 110.357 314.566 109.342 313.297 108.328C312.281 108.328 311.773 110.103 310.249 109.85C310.249 108.835 310.249 107.06 309.233 107.313C306.694 107.567 305.932 106.806 306.186 104.524C306.186 104.524 305.678 104.27 305.424 103.763C304.662 102.749 303.647 101.988 303.393 100.72C303.139 99.1982 302.123 98.4373 300.853 97.6765C298.568 96.6621 298.314 95.1405 299.33 92.6045C299.584 91.59 299.838 90.322 300.091 89.054C299.584 89.054 299.076 88.8004 298.822 88.5468C298.314 88.5468 298.06 88.2932 297.552 88.0396C295.267 86.7716 295.013 86.518 295.774 83.7283C295.774 83.2211 295.774 82.7139 295.521 82.4603C295.013 82.2067 294.759 82.4603 294.251 82.9675C292.389 83.982 290.696 84.0665 289.172 83.2211C289.172 83.2211 288.41 84.7428 288.156 85.5036C286.379 85.25 286.633 83.7283 286.379 81.9531C285.109 83.7283 284.601 85.25 285.109 86.7716C286.379 90.8292 286.125 95.1405 288.918 98.6909C289.426 99.1982 289.426 99.959 289.426 100.72C289.426 104.27 290.95 107.567 292.219 110.61C293.743 114.161 294.759 118.218 297.806 121.008C297.806 121.008 298.06 121.769 298.06 122.022C298.314 124.051 299.584 125.573 300.345 127.602C302.377 132.674 306.186 136.985 307.71 142.311C307.71 143.072 308.726 143.832 309.233 144.593C310.503 146.368 311.773 148.144 311.519 150.68C311.519 151.694 311.773 152.455 312.535 152.962C316.09 156.005 316.598 161.331 320.153 164.374C320.661 164.628 320.153 165.135 320.153 165.642C319.645 166.657 320.153 167.417 321.169 167.925C321.677 168.178 322.692 168.432 322.692 169.193C320.661 170.207 320.661 170.461 321.931 171.982C322.692 172.743 323.454 173.25 323.962 173.758C324.978 174.772 325.994 175.533 326.502 177.054C328.279 183.902 331.834 190.242 333.866 197.089C334.882 200.132 335.897 202.922 335.897 206.219C335.897 209.262 337.421 212.559 334.882 215.349C334.628 215.856 334.882 216.617 334.882 217.377C334.628 222.957 331.834 227.014 328.533 231.072C328.025 231.579 327.263 232.34 326.756 231.833C325.232 230.565 322.692 230.818 321.423 228.789C321.423 229.297 321.169 229.55 320.915 229.804C320.915 230.058 320.915 230.565 320.915 230.818C320.407 231.833 318.883 231.833 318.883 230.818C318.883 229.043 317.614 229.043 316.598 228.282C315.074 226.761 312.789 225.493 312.027 223.21C311.773 221.942 311.265 221.942 309.995 222.196C307.964 222.196 307.456 221.181 308.726 219.406C309.233 218.645 308.726 218.645 308.218 218.392C307.71 218.138 306.948 217.885 306.694 218.392C306.186 219.153 305.678 219.153 305.424 218.392C304.409 216.617 302.123 215.856 300.853 214.08C300.345 213.32 299.838 212.559 300.345 211.544C301.615 208.755 301.361 208.501 298.06 208.248C296.79 208.248 295.521 208.248 296.282 206.219C297.044 204.444 296.028 203.683 294.505 203.176C294.505 203.429 294.505 203.683 294.505 203.683C294.505 204.444 295.013 205.458 293.997 205.712C293.235 205.965 292.727 205.204 292.473 204.697C291.965 203.683 291.457 203.176 290.442 202.922C288.664 202.415 288.41 201.147 288.41 199.372C288.41 196.328 287.394 193.539 284.093 192.017C281.554 191.003 280.538 188.467 279.268 186.184C278.252 184.662 279.014 183.141 279.776 181.873C279.776 181.873 279.776 181.366 279.776 181.112C279.776 180.098 278.506 179.59 277.744 180.098C276.729 181.366 275.205 181.873 273.681 182.38C273.681 183.902 276.221 184.409 274.951 186.438C272.92 184.663 270.126 183.394 268.856 181.112C267.333 178.576 265.047 177.815 262.762 176.547C261.238 172.236 258.191 168.939 256.413 165.135C256.159 164.628 255.651 164.121 255.144 164.628C254.382 165.896 252.858 163.867 252.35 165.135C252.096 165.896 252.35 166.91 253.366 166.91C254.128 166.91 254.89 166.91 255.651 166.657C255.651 167.671 255.651 168.178 254.636 168.432C253.62 168.685 253.366 169.446 253.62 170.461C253.62 171.222 254.128 171.982 255.144 172.236C257.429 172.997 259.968 174.772 261.238 176.547C259.207 177.308 261.746 178.576 260.476 179.59C258.699 179.083 257.429 177.562 256.159 175.786C255.651 175.026 255.144 174.265 254.128 174.011C252.858 173.504 252.096 172.236 251.08 171.222C249.557 169.954 249.811 167.925 248.795 166.657C247.271 167.925 246.002 166.657 245.494 165.642C244.732 164.121 244.224 162.599 246.002 161.331C243.716 158.541 242.954 162.599 241.177 162.092C240.923 161.585 240.415 161.077 239.907 160.57C238.637 159.049 237.621 157.02 235.082 157.781C233.812 158.034 233.304 157.273 233.304 155.752C233.304 153.216 232.289 152.455 230.003 152.455C228.733 152.455 228.226 151.948 228.48 150.933C228.48 149.665 228.479 149.412 227.21 150.172C226.956 150.172 226.702 150.172 226.194 150.172C223.909 149.412 222.131 148.144 220.607 146.622C218.83 144.593 217.052 142.311 213.751 142.057C214.767 144.593 218.322 149.919 219.845 151.44C222.131 153.723 222.385 154.484 220.607 157.527C222.893 157.02 224.162 158.034 224.924 159.809C226.448 163.106 227.464 166.91 229.749 169.7C230.003 170.207 230.257 170.714 230.257 171.475C230.257 174.011 231.019 176.294 231.781 178.576C232.289 180.351 233.05 182.634 231.781 183.902C229.495 185.931 230.257 188.213 231.019 190.495C231.527 192.271 231.273 193.539 230.003 194.807C229.495 195.314 228.733 195.567 229.241 196.582C230.003 197.85 229.241 198.864 228.226 199.625C227.21 200.386 226.448 201.147 226.194 202.415C226.194 203.936 225.686 204.951 224.416 205.458C223.655 205.712 223.401 206.726 223.147 207.487C221.623 211.037 217.052 213.573 213.243 213.32C208.164 213.32 203.085 212.305 198.006 211.544C193.943 211.037 190.134 210.023 186.833 207.233C183.785 204.697 180.738 202.668 176.929 201.4C175.405 200.64 173.628 200.386 172.104 199.372C166.517 196.075 160.677 193.031 155.344 189.227C151.027 186.184 146.202 184.155 142.393 180.351C141.631 179.59 141.123 178.83 140.107 178.83C136.806 178.322 134.774 176.04 132.743 173.758C131.219 172.236 129.696 170.714 127.664 169.7C123.855 167.417 120.3 165.135 116.745 162.599C115.221 161.585 113.951 159.556 112.681 159.049C108.618 157.273 105.571 153.976 101.508 151.948C100.492 151.44 99.7303 150.933 99.2224 149.919C98.4606 148.144 97.1909 146.622 95.9211 145.354C93.3817 142.311 91.0962 138.76 87.2871 136.985C86.7792 137.492 86.7792 137.999 87.0331 138.253C87.0331 139.014 87.0331 139.775 86.2713 139.775C85.5095 139.775 84.4937 140.028 84.2397 139.014C83.7319 136.985 81.9543 135.21 82.7161 132.927C77.1294 134.449 78.1451 135.463 74.8438 129.631C74.082 128.363 73.8281 126.841 71.5426 127.602C70.2729 127.855 69.2571 126.587 68.7492 125.319C68.4953 124.051 67.4795 122.53 68.2413 121.008C68.7492 119.994 68.2413 118.979 67.2256 118.726C65.9558 118.726 66.7177 119.74 66.7177 120.247C66.7177 120.501 66.2098 120.754 65.9558 120.754C64.6861 120.754 63.4164 120.754 62.6546 119.486C62.1467 118.726 62.1467 117.711 61.1309 117.458C60.623 117.965 61.3849 118.726 60.623 118.979C59.8612 119.233 59.6073 118.726 59.0994 118.218C58.3376 117.458 58.3376 115.682 57.3218 115.682C55.2902 115.682 54.7823 114.161 54.0205 113.146C52.7508 110.864 50.9732 109.342 48.9417 107.821C47.6719 106.806 45.6404 106.299 46.6562 103.763C46.6562 103.509 46.1483 102.749 45.8943 102.241C45.0479 100.72 45.5557 99.6208 47.418 98.9445C44.8785 96.6621 42.847 94.1261 39.7997 92.3509C38.276 91.59 35.4827 91.5901 35.2287 88.8004C35.2287 88.5468 34.7208 88.5468 34.213 88.8004C32.4354 89.3076 31.9275 88.2932 31.6735 86.7716C31.6735 86.518 31.4196 85.7572 31.1656 86.2644C29.8959 88.2932 28.6262 85.7572 27.3565 86.2644C26.8486 87.2788 27.3565 88.5468 26.5947 89.5612C26.5947 89.5612 28.1183 90.0684 28.1183 89.5612C28.6262 87.0252 29.8959 88.0396 30.4038 89.3076C31.4196 91.0828 32.6893 91.8437 34.213 92.6045C34.9748 92.6045 35.2287 93.3653 34.9748 93.8725C34.7208 94.6333 34.2129 94.6333 33.4511 94.3797C32.4353 94.3797 31.6735 92.8581 30.6577 93.1117C29.642 94.1261 30.9117 95.3941 29.8959 96.4085C27.8644 96.1549 28.1183 94.3797 28.1183 93.1117C28.1183 91.59 27.3565 90.8292 26.0868 90.0684C25.3249 89.8148 25.3249 89.3076 25.3249 88.5468C25.3249 88.0396 24.817 87.0252 24.3091 87.5324C22.5316 88.5468 22.5316 87.0252 22.0237 86.2644C21.5158 85.25 19.7382 84.9964 20.5 82.9675C21.7697 83.4747 22.7855 84.4892 23.8013 85.25C24.3091 85.5036 24.817 85.7572 25.3249 85.25C25.8328 84.4892 25.3249 83.982 24.817 83.7283C23.0394 82.9675 21.7697 81.6995 20.5 80.4315C18.2145 78.4027 16.183 75.3594 12.6278 75.8666C11.8659 75.8666 11.8659 75.1058 11.612 74.5986C11.1041 73.3306 10.3423 72.3162 8.81863 72.3162C8.05679 72.3162 7.80283 71.5554 7.54889 71.0482C6.53311 69.273 6.02527 67.7513 6.78708 65.7225C5.26343 65.7225 5.7713 67.7513 4.24765 67.4977C2.97794 66.4833 4.75549 64.4545 3.23184 63.6937C1.96213 63.1865 1.70819 62.1721 1.45425 60.904C1.20032 59.636 0.18454 58.6216 -1.08517 58.368C-2.86279 57.8608 -3.6246 56.8464 -4.38641 55.3248C-5.40219 52.7887 -7.94165 51.5207 -8.95743 48.7311C-8.95743 48.4775 -9.46527 48.2239 -9.71921 48.2239C-11.7508 48.7311 -12.2587 47.4631 -12.7665 45.6878C-12.7665 45.1806 -13.7823 44.4198 -14.2902 44.4198C-16.0678 43.9126 -16.8297 42.391 -17.5915 41.123C-19.1151 38.3333 -21.6546 36.3045 -24.194 35.2901C-28.2571 34.0221 -29.5268 30.4716 -32.0663 27.9356C-32.8281 27.1748 -32.0662 26.6676 -31.0504 26.9212C-30.7965 26.1604 -31.0504 25.3996 -31.0504 24.6388C-31.0504 24.3852 -31.0504 24.1316 -31.0504 23.6243C-30.0347 22.6099 -30.2886 22.6099 -31.0504 21.8491C-32.3202 20.5811 -35.1136 20.8347 -34.3517 18.0451C-34.3517 17.5379 -35.3675 17.0307 -35.8754 16.7771C-38.1609 15.509 -40.4464 13.7338 -42.224 12.2122C-46.287 8.66175 -50.8581 5.87211 -55.683 3.58968C-57.2066 2.82887 -59.2382 2.06806 -60 0.292836C-59.2382 -0.214371 -58.7303 0.0392326 -58.2224 0.292836L-56.4448 2.57527ZM301.361 206.726C302.631 203.936 300.853 201.908 300.599 199.625C300.599 199.371 300.091 199.625 299.584 199.625C299.076 199.879 298.568 200.386 298.568 200.893C298.568 202.922 298.568 205.458 301.107 206.726H301.361ZM241.938 159.049C241.938 159.049 243.208 159.302 243.462 159.049C243.97 158.541 243.462 157.781 242.954 157.527C240.415 155.752 238.129 153.469 236.098 150.68C235.844 151.44 235.336 151.948 235.59 151.948C237.621 154.484 238.891 157.527 241.938 159.302V159.049ZM201.308 171.222C201.308 171.222 202.069 172.236 202.323 172.997C203.085 175.026 204.355 175.533 206.64 174.772C204.863 173.504 204.609 170.968 202.069 170.714C201.308 170.714 201.308 169.954 201.308 169.446C201.308 168.432 201.054 167.671 200.038 167.417C199.53 168.939 199.276 170.461 201.054 171.475L201.308 171.222ZM54.5284 110.103C54.5284 105.792 54.5284 105.285 50.9732 103.509C51.4811 106.045 52.6661 108.243 54.5284 110.103ZM45.8943 72.3162C45.8943 72.3162 46.6562 73.077 47.418 72.8234C48.1798 72.3162 48.1798 71.5554 47.6719 71.0482C46.6562 70.0338 46.4022 67.7513 43.8628 68.5121C44.6246 69.7802 45.1325 71.0482 45.8943 72.3162ZM-29.5268 29.7108C-29.5268 29.7108 -27.4953 32.2469 -26.2256 33.5149C-24.194 35.2901 -22.6703 34.7829 -21.9085 31.9933C-21.9085 31.2324 -20.3849 30.4716 -21.4006 29.4572C-22.4164 28.4428 -23.6861 29.2036 -24.194 29.4572C-25.7177 30.7252 -26.7334 30.4716 -28.0031 29.4572C-28.2571 29.4572 -28.765 29.4572 -29.2729 29.4572L-29.5268 29.7108Z" fill="#252525" fill-opacity="0.24"/>
<path d="M299.584 94.3797C299.584 95.6477 298.568 96.1549 297.552 96.4085C296.282 96.4085 293.235 94.3797 293.489 93.3653C293.997 91.3364 292.473 90.8292 291.203 90.0684C290.188 89.5612 289.426 89.054 290.188 87.786C292.727 88.8004 295.267 89.8148 297.806 90.8292C299.584 91.5901 299.838 92.8581 299.584 94.6333V94.3797Z" fill="#252525" fill-opacity="0.24"/>
<path d="M41.5773 104.524C37.7682 103.763 36.2445 101.988 37.2603 99.1982C39.1225 100.213 40.5615 101.988 41.5773 104.524Z" fill="#252525" fill-opacity="0.24"/>
</svg>
