<svg width="42" height="42" viewBox="0 0 42 42" fill="none" xmlns="http://www.w3.org/2000/svg">
<path fill-rule="evenodd" clip-rule="evenodd" d="M0.58577 3.41421C-0.195278 2.63316 -0.195278 1.36683 0.58577 0.585786C1.36682 -0.195262 2.63315 -0.195262 3.4142 0.585786L20.75 17.9216L38.0858 0.585786C38.8668 -0.195262 40.1331 -0.195262 40.9142 0.585786C41.6952 1.36683 41.6952 2.63316 40.9142 3.41421L23.5784 20.75L40.9142 38.0858C41.6952 38.8668 41.6952 40.1332 40.9142 40.9142C40.1331 41.6953 38.8668 41.6953 38.0858 40.9142L20.75 23.5784L3.4142 40.9142C2.63315 41.6953 1.36682 41.6953 0.585771 40.9142C-0.195277 40.1332 -0.195277 38.8668 0.585771 38.0858L17.9216 20.75L0.58577 3.41421Z" fill="#181818"/>
</svg>
