<svg width="26" height="27" viewBox="0 0 26 27" fill="none" xmlns="http://www.w3.org/2000/svg">
<path fill-rule="evenodd" clip-rule="evenodd" d="M13 26.5C5.8203 26.5 0 20.6797 0 13.5C0 6.3203 5.8203 0.5 13 0.5C20.1797 0.5 26 6.3203 26 13.5C26 20.6797 20.1797 26.5 13 26.5ZM13.5621 10.256C12.3978 10.7403 10.0708 11.7426 6.58118 13.263C6.01452 13.4883 5.71767 13.7088 5.69065 13.9243C5.64498 14.2886 6.10118 14.4321 6.72241 14.6274C6.80691 14.654 6.89447 14.6815 6.98423 14.7107C7.59543 14.9094 8.41759 15.1418 8.845 15.1511C9.23271 15.1594 9.66542 14.9996 10.1432 14.6715C13.4037 12.4706 15.0867 11.3582 15.1924 11.3342C15.2669 11.3173 15.3703 11.296 15.4402 11.3582C15.5102 11.4204 15.5034 11.5382 15.4959 11.5698C15.4508 11.7625 13.66 13.4274 12.7333 14.2889C12.4444 14.5575 12.2394 14.748 12.1975 14.7915C12.1037 14.889 12.0081 14.9812 11.9161 15.0698C11.3483 15.6172 10.9225 16.0277 11.9397 16.698C12.4285 17.0201 12.8197 17.2865 13.2099 17.5523C13.6361 17.8425 14.0612 18.132 14.6111 18.4925C14.7513 18.5843 14.8851 18.6797 15.0154 18.7726C15.5114 19.1262 15.957 19.4439 16.5074 19.3932C16.8273 19.3638 17.1577 19.063 17.3255 18.166C17.7221 16.046 18.5016 11.4526 18.6817 9.55975C18.6975 9.39392 18.6776 9.18168 18.6617 9.08851C18.6458 8.99534 18.6124 8.8626 18.4913 8.76433C18.3479 8.64796 18.1265 8.62342 18.0275 8.62508C17.5772 8.63309 16.8865 8.87328 13.5621 10.256Z" fill="#D52976"/>
</svg>
