<svg width="26" height="27" viewBox="0 0 26 27" fill="none" xmlns="http://www.w3.org/2000/svg">
<path d="M8.69267 10.9563C8.762 14.3363 10.452 16.3643 13.416 16.3643H13.5893V14.4317C14.677 14.54 15.5003 15.3373 15.8297 16.3643H17.368C17.2102 15.7807 16.9305 15.2372 16.5473 14.7696C16.1642 14.3021 15.6862 13.921 15.145 13.6517C15.63 13.3563 16.0488 12.9642 16.3754 12.4996C16.702 12.0351 16.9292 11.5083 17.043 10.952H15.6477C15.3443 12.0267 14.443 13.0017 13.5893 13.0927V10.9563H12.1897V14.7003C11.323 14.4837 10.231 13.435 10.1833 10.9563H8.69267Z" fill="#D52976"/>
<path fill-rule="evenodd" clip-rule="evenodd" d="M13 0.5C20.1797 0.5 26 6.3203 26 13.5C26 20.6797 20.1797 26.5 13 26.5C5.8203 26.5 0 20.6797 0 13.5C0 6.3203 5.8203 0.5 13 0.5ZM6.5 13.24C6.5 10.2977 6.5 8.82867 7.41 7.91C8.333 7 9.802 7 12.74 7H13.26C16.2023 7 17.6713 7 18.59 7.91C19.5 8.833 19.5 10.302 19.5 13.24V13.76C19.5 16.7023 19.5 18.1713 18.59 19.09C17.667 20 16.198 20 13.26 20H12.74C9.79767 20 8.32867 20 7.41 19.09C6.5 18.167 6.5 16.698 6.5 13.76V13.24Z" fill="#D52976"/>
</svg>
