<svg xmlns="http://www.w3.org/2000/svg" width="501" height="66" viewBox="0 0 501 66"><g><g><path fill="#002e74" d="M.436 33.329C.436 15.418 14.768.848 32.384.848s31.948 14.57 31.948 32.481S50 65.811 32.384 65.811.436 51.24.436 33.329zm2.945 0c0 16.286 13.01 29.538 29.003 29.538s29.004-13.252 29.004-29.538S48.377 3.792 32.384 3.792C16.39 3.792 3.38 17.043 3.38 33.329z"/></g><g><path fill="#002e74" d="M43.391 34.603c.018.018.077 3.117.001 4.672-.063.584-.295 1.1-.584 1.59-2.118 3.176-2.326 3.406-3.19 4.426-1.149 1.389-2.454 2.552-4.08 3.242-4.01 1.7-7.765-.899-8.839-4.403a6.365 6.365 0 0 1-.27-1.884c.001-8.463.003-16.928-.003-25.392 0-.722.383-1.179.845-1.67.744-.647 1.223-.962 2.14-1.49 1.438-.833 9.668-3.05 9.488.164.002 1.59-.014.73-.006 1.137.062 3.126-.032 6.25-.065 9.374-.013 1.271-.039 2.541-.055 3.812-.035 2.701-.07 5.402-.1 8.104-.01.837.371 1.225 1.145 1.22 1.037-.006 1.652-.268 2.426-1.29.38-.503 1.046-1.573 1.147-1.612z"/></g><g><path fill="#002e74" d="M25.563 37.843c0 1.333-1.06 2.414-2.368 2.414-1.307 0-2.367-1.081-2.367-2.414 0-1.333 1.06-2.414 2.367-2.414 1.308 0 2.368 1.08 2.368 2.414z"/></g><g><path fill="#002e74" d="M33.434 6.054c1.639.089 3.248.155 4.862 1.05 1.057.587.938 1.344.739 2.108-.09.342-.322.575-.626.736-.283.148-.588.23-.9.287-.456.082-.918.107-1.378.138-.97.065-1.94.106-2.904.225-1.444.178-2.86.484-4.21 1.049-1.88.787-3.508 1.949-4.901 3.453-2.006 2.165-3.292 4.719-3.927 7.62-.274 1.253-.384 2.522-.388 3.804-.007 1.767.038 3.534.062 5.3l.058 4.729c.023 1.844.05 3.689.072 5.533.024 2.166.043 4.334.069 6.5.022 1.815.074 3.629.053 5.445-.007.602-.028 1.205-.135 1.8a1.752 1.752 0 0 1-.13.445c-.14.298-.415.406-.717.28a1.4 1.4 0 0 1-.171-.09c-6.316-3.731-10.623-9.67-12.285-16.53a28.008 28.008 0 0 1-.597-3.342 27.185 27.185 0 0 1-.19-3.573c.095-5.995 1.936-11.376 5.542-16.105 3.492-4.578 7.99-7.711 13.393-9.5a26.75 26.75 0 0 1 4.105-.994 26.916 26.916 0 0 1 2.228-.268c.747-.06 1.495-.087 2.276-.1z"/></g><g><path fill="#002e74" d="M31.027 60.403c-1.64-.089-3.248-.155-4.862-1.05-1.057-.588-.94-1.344-.74-2.108.089-.342.323-.575.626-.736.284-.148.589-.23.9-.287.456-.082.918-.107 1.379-.138.968-.065 1.939-.106 2.904-.225 1.443-.179 2.859-.484 4.21-1.049 1.879-.787 3.508-1.949 4.9-3.453 2.007-2.166 3.292-4.719 3.928-7.62.274-1.253.383-2.523.388-3.804.006-1.767-.04-3.534-.062-5.3-.021-1.577-.038-3.153-.058-4.729-.024-1.844-.051-3.689-.072-5.533-.025-2.166-.043-4.334-.07-6.5-.022-1.815-.073-3.629-.053-5.445.008-.602.029-1.206.135-1.8.027-.154.064-.304.13-.445.14-.298.415-.406.717-.28.059.024.116.057.172.09 6.315 3.731 10.622 9.67 12.284 16.53.267 1.102.465 2.215.597 3.342.139 1.187.209 2.38.19 3.572-.095 5.995-1.935 11.377-5.541 16.106-3.492 4.578-7.991 7.711-13.394 9.5a26.709 26.709 0 0 1-4.104.994c-.74.121-1.482.21-2.23.268-.746.06-1.493.087-2.274.1z"/></g><g><path fill="#002e74" d="M78.592 27.94h-2.72l4.917-11.823h2.415l4.915 11.824H85.23l-.98-2.484h-4.68zm4.646-5.016l-1.318-3.345-1.334 3.345z"/></g><g><path fill="#002e74" d="M90.821 29.966h-2.533v-4.56h1.267c.338-.45.68-1.277 1.03-2.483.36-1.227.585-2.708.676-4.442l.101-2.364h7.719v9.29h1.605v4.56h-2.534V27.94h-7.331zM93.98 18.65l-.186 1.993a15.316 15.316 0 0 1-.54 2.905c-.271.957-.513 1.577-.727 1.858h3.851V18.65z"/></g><g><path fill="#002e74" d="M102.543 16.117h2.703v3.698a7.844 7.844 0 0 1 1.047-.067c1.396 0 2.464.35 3.201 1.047.737.699 1.107 1.679 1.107 2.939 0 1.284-.428 2.315-1.284 3.092-.867.766-2.067 1.149-3.598 1.149-.698 0-1.295-.006-1.79-.018a55.915 55.915 0 0 0-1.386-.017zm2.703 6.249v3.007c.36.045.625.067.794.067 1.126 0 1.689-.545 1.689-1.638 0-.495-.146-.872-.439-1.132-.293-.258-.704-.389-1.233-.389-.124 0-.394.03-.811.085zm9.206 5.574h-2.703V16.117h2.703z"/></g><g><path fill="#002e74" d="M120.194 27.94h-2.703V16.117h6.757v2.533h-4.054z"/></g><g><path fill="#002e74" d="M133.285 27.94h-7.18V16.117h7.01v2.533h-4.306v2.077h3.8v2.534h-3.8v2.145h4.476z"/></g><g><path fill="#002e74" d="M143.42 20.592l-5.237 7.348h-2.364V16.117h2.702v7.347l5.237-7.347h2.364V27.94h-2.702zm-3.21-7.516c0 .315.079.535.237.658.157.125.428.187.81.187.36 0 .614-.06.76-.178.147-.118.22-.34.22-.667h2.534c.022.811-.3 1.465-.963 1.96-.653.495-1.503.743-2.55.743-1.115 0-1.991-.246-2.627-.735-.636-.489-.954-1.146-.954-1.968z"/></g><g><path fill="#002e74" d="M157.337 24.748l1.031 2.026c-.36.406-.896.739-1.605.997a6.663 6.663 0 0 1-2.247.372c-1.835 0-3.327-.557-4.476-1.672-1.148-1.137-1.723-2.619-1.723-4.443 0-1.778.541-3.243 1.622-4.391 1.081-1.149 2.601-1.723 4.561-1.723.743 0 1.435.113 2.077.338.642.225 1.154.523 1.537.894l-1.199 2.028c-.788-.485-1.594-.727-2.415-.727-.958 0-1.752.317-2.382.947-.62.62-.929 1.498-.929 2.634 0 1.036.332 1.898.996 2.584.665.665 1.526.997 2.585.997.945 0 1.801-.287 2.567-.861z"/></g><g><path fill="#002e74" d="M162.929 27.94h-2.703V16.117h2.703v5.15l3.868-5.15h3.243l-4.443 5.455 4.798 6.368h-3.43l-4.036-5.625z"/></g><g><path fill="#002e74" d="M179.516 20.592l-5.236 7.349h-2.365V16.117h2.703v7.347l5.235-7.347h2.366V27.94h-2.703z"/></g><g><path fill="#002e74" d="M192.86 20.592l-5.237 7.348h-2.365V16.117h2.702v7.347l5.237-7.347h2.364V27.94h-2.702zm-3.21-7.516c0 .315.078.535.236.658.157.125.428.187.811.187.36 0 .613-.06.76-.178.146-.118.22-.34.22-.667h2.533c.023.811-.299 1.465-.963 1.96-.653.495-1.503.743-2.55.743-1.115 0-1.99-.246-2.627-.735-.636-.489-.954-1.146-.954-1.968z"/></g><g><path fill="#002e74" d="M204.683 27.94h-2.703V16.117h6.757v2.533h-4.054z"/></g><g><path fill="#002e74" d="M211.085 17.67c1.171-1.17 2.685-1.756 4.543-1.756 1.847 0 3.35.556 4.51 1.672 1.182 1.115 1.774 2.595 1.774 4.442 0 1.78-.597 3.243-1.79 4.392-1.183 1.148-2.68 1.722-4.494 1.722-1.835 0-3.344-.556-4.527-1.672-1.17-1.115-1.757-2.595-1.757-4.442 0-1.745.58-3.198 1.741-4.358zm2.128 6.908c.653.687 1.458 1.031 2.415 1.031 1.081 0 1.92-.332 2.517-.997.596-.687.895-1.548.895-2.584 0-1.069-.326-1.93-.979-2.585-.665-.664-1.476-.996-2.433-.996-.99 0-1.807.332-2.449.996-.642.666-.963 1.526-.963 2.585 0 1.002.332 1.853.997 2.55z"/></g><g><path fill="#002e74" d="M232.283 24.748l1.03 2.026c-.36.406-.895.739-1.604.997a6.663 6.663 0 0 1-2.247.372c-1.835 0-3.327-.557-4.476-1.672-1.148-1.137-1.723-2.619-1.723-4.443 0-1.778.54-3.243 1.622-4.391 1.08-1.149 2.6-1.723 4.56-1.723.744 0 1.436.113 2.078.338.642.225 1.154.523 1.537.894l-1.2 2.028c-.787-.485-1.593-.727-2.414-.727-.958 0-1.752.317-2.382.947-.62.62-.93 1.498-.93 2.634 0 1.036.333 1.898.997 2.584.665.665 1.526.997 2.585.997.945 0 1.8-.287 2.567-.861z"/></g><g><path fill="#002e74" d="M242.198 16.117h2.72l-3.97 9.02c-.417.957-.903 1.664-1.46 2.12-.558.456-1.226.683-2.003.683-.326 0-.664-.053-1.014-.16-.348-.107-.607-.228-.776-.364l.945-2.297c.294.191.57.287.83.287.438 0 .73-.156.877-.473l.152-.355-5.084-8.46h3.056l3.33 5.775z"/></g><g><path fill="#002e74" d="M246.573 29.966h-2.534v-4.56h1.267c.338-.45.681-1.277 1.03-2.483.36-1.227.585-2.708.676-4.442l.101-2.364h7.72v9.29h1.605v4.56h-2.534V27.94h-7.331zm3.158-11.316l-.185 1.993a15.32 15.32 0 0 1-.541 2.905c-.27.957-.512 1.577-.727 1.858h3.852V18.65z"/></g><g><path fill="#002e74" d="M259.494 27.94h-2.718l4.914-11.823h2.416l4.915 11.824h-2.888l-.98-2.484h-4.68zm4.646-5.016l-1.317-3.345-1.335 3.345z"/></g><g><path fill="#002e74" d="M273.243 27.94h-2.702V16.117c.517 0 1.087-.006 1.705-.018.632-.01 1.268-.016 1.91-.016 1.666 0 2.882.372 3.648 1.114.754.721 1.131 1.656 1.131 2.805 0 1.103-.399 2.043-1.198 2.82-.8.766-1.858 1.15-3.176 1.15-.586 0-1.025-.018-1.318-.052zm1.031-9.315a19.539 19.539 0 0 1-1.031.025v2.703c.474.056.885.084 1.233.084.462 0 .842-.12 1.141-.363.298-.242.447-.605.447-1.09 0-.912-.546-1.367-1.638-1.367-.012 0-.062.002-.152.008z"/></g><g><path fill="#002e74" d="M289.307 24.748l1.03 2.026c-.36.406-.895.739-1.605.997a6.657 6.657 0 0 1-2.246.372c-1.835 0-3.327-.557-4.476-1.672-1.149-1.137-1.723-2.619-1.723-4.443 0-1.778.541-3.243 1.622-4.391 1.081-1.149 2.601-1.723 4.56-1.723.743 0 1.436.113 2.077.338.642.225 1.155.523 1.538.894l-1.2 2.028c-.787-.485-1.593-.727-2.415-.727-.957 0-1.75.317-2.382.947-.619.62-.928 1.498-.928 2.634 0 1.036.332 1.898.996 2.584.665.665 1.526.997 2.584.997a4.18 4.18 0 0 0 2.568-.861z"/></g><g><path fill="#002e74" d="M294.39 18.65h-3.546v-2.533h9.797v2.533h-3.547v9.29h-2.703z"/></g><g><path fill="#002e74" d="M302.33 16.15a71.137 71.137 0 0 1 3.58-.1c1.307 0 2.295.26 2.965.784.67.523 1.005 1.242 1.005 2.154 0 1.16-.45 2.038-1.351 2.635v.033c.507.192.915.52 1.225.981.309.461.464 1.035.464 1.722 0 1.183-.416 2.09-1.25 2.72-.822.62-1.903.93-3.243.93-1.565 0-2.697-.035-3.395-.103zm2.703 2.5v2.145h.895c.833 0 1.25-.383 1.25-1.149a.931.931 0 0 0-.372-.777c-.247-.19-.557-.287-.93-.287-.201 0-.483.023-.843.068zm0 4.51v2.213c.247.067.55.101.912.101 1.047 0 1.57-.417 1.57-1.25 0-.709-.478-1.064-1.435-1.064z"/></g><g><path fill="#002e74" d="M319.93 27.94h-7.178V16.117h7.009v2.533h-4.307v2.077h3.8v2.534h-3.8v2.145h4.476z"/></g><g><path fill="#002e74" d="M332.175 27.94h-2.703v-4.763h-4.306v4.763h-2.703V16.117h2.703v4.526h4.306v-4.526h2.703z"/></g><g><path fill="#002e74" d="M344.928 27.94h-2.702v-4.763h-4.307v4.763h-2.703V16.117h2.703v4.526h4.307v-4.526h2.702z"/></g><g><path fill="#002e74" d="M347.968 16.117h2.703v3.698a7.844 7.844 0 0 1 1.047-.067c1.396 0 2.464.35 3.201 1.047.737.699 1.106 1.679 1.106 2.939 0 1.284-.427 2.315-1.284 3.092-.866.766-2.066 1.149-3.597 1.149-.699 0-1.295-.006-1.79-.018a55.915 55.915 0 0 0-1.386-.017zm2.703 6.249v3.007a7.1 7.1 0 0 0 .793.067c1.127 0 1.69-.545 1.69-1.638 0-.495-.146-.872-.44-1.132-.292-.258-.703-.389-1.232-.389-.125 0-.395.03-.811.085zm9.205 5.574h-2.703V16.117h2.703z"/></g><g><path fill="#002e74" d="M370.518 20.592l-5.236 7.348h-2.365V16.117h2.702v7.347l5.237-7.347h2.364V27.94h-2.702zm-3.21-7.516c0 .315.079.535.237.658.157.125.428.187.81.187.36 0 .615-.06.76-.178.147-.118.22-.34.22-.667h2.534c.023.811-.298 1.465-.963 1.96-.652.495-1.503.743-2.55.743-1.115 0-1.991-.246-2.626-.735-.638-.489-.955-1.146-.955-1.968z"/></g><g><path fill="#002e74" d="M387.071 16.117h2.72l-3.97 9.02c-.417.957-.903 1.664-1.46 2.12-.559.456-1.226.683-2.003.683-.327 0-.664-.053-1.014-.16-.348-.107-.607-.228-.776-.364l.945-2.297c.294.191.57.287.83.287.437 0 .73-.156.877-.473l.151-.355-5.084-8.46h3.057l3.33 5.775z"/></g><g><path fill="#002e74" d="M401.191 27.94h-2.703v-4.763h-4.306v4.763h-2.703V16.117h2.703v4.526h4.306v-4.526h2.703z"/></g><g><path fill="#002e74" d="M411.833 20.592l-5.236 7.349h-2.365V16.117h2.703v7.347l5.236-7.347h2.365V27.94h-2.703z"/></g><g><path fill="#002e74" d="M417.576 16.15a71.137 71.137 0 0 1 3.58-.1c1.307 0 2.295.26 2.965.784.67.523 1.005 1.242 1.005 2.154 0 1.16-.45 2.038-1.351 2.635v.033c.507.192.915.52 1.225.981.31.461.464 1.035.464 1.722 0 1.183-.416 2.09-1.25 2.72-.821.62-1.902.93-3.243.93-1.564 0-2.697-.035-3.395-.103zm2.703 2.5v2.145h.895c.834 0 1.25-.383 1.25-1.149a.931.931 0 0 0-.372-.777c-.247-.19-.557-.287-.93-.287-.201 0-.483.023-.843.068zm0 4.51v2.213c.247.067.55.101.912.101 1.047 0 1.57-.417 1.57-1.25 0-.709-.478-1.064-1.435-1.064z"/></g><g><path fill="#002e74" d="M435.176 27.94h-7.178V16.117h7.009v2.533H430.7v2.077h3.8v2.534h-3.8v2.145h4.476z"/></g><g><path fill="#002e74" d="M440.412 27.94h-2.702V16.117c.517 0 1.087-.006 1.706-.018.63-.01 1.267-.016 1.908-.016 1.667 0 2.883.372 3.649 1.114.754.721 1.13 1.656 1.13 2.805 0 1.103-.398 2.043-1.197 2.82-.8.766-1.858 1.15-3.176 1.15-.586 0-1.025-.018-1.318-.052zm1.03-9.315a19.539 19.539 0 0 1-1.031.025v2.703c.475.056.886.084 1.234.084.462 0 .842-.12 1.14-.363.299-.242.448-.605.448-1.09 0-.912-.546-1.367-1.638-1.367-.012 0-.062.002-.152.008z"/></g><g><path fill="#002e74" d="M456.476 24.748l1.03 2.026c-.36.406-.895.739-1.604.997a6.667 6.667 0 0 1-2.247.372c-1.835 0-3.327-.557-4.476-1.672-1.15-1.137-1.723-2.619-1.723-4.443 0-1.778.54-3.243 1.622-4.391 1.08-1.149 2.6-1.723 4.56-1.723.743 0 1.436.113 2.077.338.642.225 1.155.523 1.538.894l-1.2 2.028c-.787-.485-1.593-.727-2.415-.727-.957 0-1.751.317-2.382.947-.62.62-.928 1.498-.928 2.634 0 1.036.332 1.898.996 2.584.665.665 1.526.997 2.585.997.945 0 1.8-.287 2.567-.861z"/></g><g><path fill="#002e74" d="M466.964 20.592l-5.236 7.349h-2.365V16.117h2.703v7.347l5.236-7.347h2.365V27.94h-2.703z"/></g><g><path fill="#002e74" d="M474.903 18.65h-3.547v-2.533h9.797v2.533h-3.547v9.29h-2.703z"/></g><g><path fill="#002e74" d="M490.02 27.94h-7.177V16.117h7.009v2.533h-4.307v2.077h3.8v2.534h-3.8v2.145h4.476z"/></g><g><path fill="#002e74" d="M494.75 18.65h-3.547v-2.533H501v2.533h-3.548v9.29h-2.702z"/></g><g><path fill="#002e74" d="M78.592 48.696h-2.72L80.79 36.87h2.415l4.915 11.825H85.23l-.98-2.484h-4.68zm4.646-5.018l-1.318-3.344-1.334 3.344z"/></g><g><path fill="#002e74" d="M89.64 48.696V36.872h.235c.507 0 1.07-.006 1.69-.018.236 0 .497-.002.785-.008.287-.006.51-.012.667-.017.157-.006.276-.009.355-.009 2.218 0 3.88.552 4.983 1.655 1.103 1.105 1.655 2.505 1.655 4.206 0 1.747-.59 3.194-1.774 4.342-1.17 1.137-2.837 1.705-5 1.705-.439 0-.929-.005-1.469-.017a100.7 100.7 0 0 0-1.84-.015zm2.701-9.291v6.757c.315.022.642.034.98.034 1.193 0 2.128-.311 2.804-.93.675-.62 1.013-1.48 1.013-2.584 0-1.048-.343-1.864-1.03-2.45-.687-.585-1.61-.878-2.77-.878-.439 0-.772.018-.997.05z"/></g><g><path fill="#002e74" d="M108.202 36.871h2.922l-4.189 7.01v4.814h-2.702v-4.814l-4.156-7.01h3.091l2.534 4.477z"/></g><g><path fill="#002e74" d="M119.418 44.488H116.9v-2.533h5.052v5.27c-.507.507-1.182.911-2.027 1.216-.822.305-1.622.457-2.4.457-1.981 0-3.535-.553-4.661-1.656-1.115-1.104-1.673-2.59-1.673-4.459 0-1.745.547-3.197 1.64-4.357 1.102-1.172 2.554-1.758 4.357-1.758 1.554 0 2.843.412 3.869 1.233l-1.133 2.18c-.236-.249-.583-.457-1.039-.626a3.936 3.936 0 0 0-1.377-.253c-1.046 0-1.882.31-2.507.93-.626.618-.938 1.502-.938 2.651 0 1.092.318 1.963.955 2.61.635.648 1.482.971 2.541.971.316 0 .67-.062 1.065-.187.372-.123.636-.258.794-.405z"/></g><g><path fill="#002e74" d="M134.028 48.695h-2.702v-4.764h-4.308v4.764h-2.702V36.871h2.702v4.527h4.308v-4.527h2.702z"/></g><g><path fill="#002e74" d="M144.247 48.695h-7.179V36.871h7.01v2.533h-4.308v2.078h3.801v2.533h-3.8v2.147h4.476z"/></g><g><path fill="#002e74" d="M154.5 45.452c0-.495-.58-1.02-1.74-1.57a15.754 15.754 0 0 1-.886-.415 5.984 5.984 0 0 1-.845-.54 4.057 4.057 0 0 1-.76-.718 3.47 3.47 0 0 1-.507-.93 3.118 3.118 0 0 1-.194-1.199c0-.945.349-1.75 1.047-2.416.698-.664 1.622-.996 2.77-.996 1.509 0 2.669.433 3.48 1.301l-1.452 2.027c-.328-.305-.612-.512-.854-.625-.242-.113-.554-.169-.937-.169-.372 0-.662.08-.87.236a.762.762 0 0 0-.313.642c0 .305.121.574.363.81.243.238.547.432.913.584.366.152.763.34 1.191.566.427.225.824.464 1.19.718.366.254.67.608.912 1.064.242.456.364.988.364 1.596 0 1.013-.389 1.846-1.166 2.5-.754.653-1.717.98-2.888.98a5.793 5.793 0 0 1-2.432-.524c-.778-.349-1.301-.82-1.572-1.419l1.538-1.84c.304.393.687.7 1.148.92.462.22.924.33 1.385.33.349 0 .622-.083.82-.246.196-.163.295-.385.295-.667z"/></g><g><path fill="#002e74" d="M161.763 39.404h-3.547v-2.533h9.797v2.533h-3.547v9.291h-2.703z"/></g><g><path fill="#002e74" d="M169.989 48.696h-2.72l4.916-11.825h2.415l4.916 11.825h-2.89l-.978-2.484h-4.68zm4.645-5.018l-1.317-3.344-1.335 3.344z"/></g><g><path fill="#002e74" d="M182.32 39.404h-3.548v-2.533h9.797v2.533h-3.547v9.291h-2.703z"/></g><g><path fill="#002e74" d="M197.436 48.695h-7.179V36.871h7.01v2.533h-4.307v2.078h3.801v2.533h-3.8v2.147h4.475z"/></g><g><path fill="#002e74" d="M210.46 36.871h2.703v6.941c0 1.702-.462 2.974-1.386 3.82-.912.843-2.06 1.266-3.445 1.266-1.577 0-2.827-.445-3.75-1.336-.935-.9-1.402-2.189-1.402-3.867v-6.824h2.702v6.25c0 2.162.816 3.243 2.45 3.243.754 0 1.297-.254 1.629-.76.332-.507.499-1.284.499-2.332z"/></g><g><path fill="#002e74" d="M226.337 36.871v11.824h-2.162l-5.608-7.095v7.095h-2.534V36.871h2.162l5.608 7.13v-7.13z"/></g><g><path fill="#002e74" d="M232.249 48.695h-2.702V36.871h2.702z"/></g><g><path fill="#002e74" d="M242.467 36.871h2.72l-4.612 11.824h-2.077l-4.73-11.824h2.888l2.973 7.804z"/></g><g><path fill="#002e74" d="M253.717 48.695h-7.178V36.871h7.009v2.533h-4.307v2.078h3.8v2.533h-3.8v2.147h4.476z"/></g><g><path fill="#002e74" d="M258.953 44.557v4.138h-2.703V36.871c.642 0 1.351-.006 2.13-.018.776-.009 1.406-.015 1.89-.015 2.916 0 4.375 1.262 4.375 3.783 0 1.621-.664 2.76-1.993 3.412l3.445 4.662h-3.276l-2.872-4.138zm1.03-5.177a19.626 19.626 0 0 1-1.03.024v2.618h.98c1.226 0 1.84-.456 1.84-1.368 0-.855-.546-1.283-1.638-1.283-.01 0-.062.003-.152.01z"/></g><g><path fill="#002e74" d="M271.959 45.452c0-.495-.58-1.02-1.74-1.57a15.485 15.485 0 0 1-.886-.415 6.041 6.041 0 0 1-.845-.54 4.019 4.019 0 0 1-.76-.718 3.416 3.416 0 0 1-.507-.93 3.119 3.119 0 0 1-.195-1.199c0-.945.35-1.75 1.047-2.416.7-.664 1.623-.996 2.77-.996 1.51 0 2.67.433 3.48 1.301l-1.452 2.027c-.326-.305-.611-.512-.852-.625-.243-.113-.555-.169-.938-.169-.372 0-.662.08-.87.236a.762.762 0 0 0-.313.642c0 .305.122.574.364.81.24.238.546.432.912.584.366.152.763.34 1.19.566.429.225.825.464 1.192.718.365.254.67.608.912 1.064.242.456.363.988.363 1.596 0 1.013-.39 1.846-1.165 2.5-.755.653-1.718.98-2.89.98a5.8 5.8 0 0 1-2.433-.524c-.777-.349-1.3-.82-1.57-1.419l1.537-1.84c.304.393.687.7 1.148.92.462.22.924.33 1.385.33.35 0 .623-.083.82-.246.197-.163.295-.385.295-.667z"/></g><g><path fill="#002e74" d="M279.897 48.695h-2.703V36.871h2.703z"/></g><g><path fill="#002e74" d="M285.303 39.404h-3.547v-2.533h9.797v2.533h-3.547v9.291h-2.703z"/></g><g><path fill="#002e74" d="M299.846 36.871h2.922l-4.19 7.01v4.814h-2.701v-4.814l-4.156-7.01h3.09l2.535 4.477z"/></g></g></svg>