<svg width="30" height="30" viewBox="0 0 30 30" fill="none" xmlns="http://www.w3.org/2000/svg">
<path d="M20.75 17.5C20.5 17.375 18.875 16.625 18.625 16.5C18.375 16.375 18.125 16.375 17.875 16.625C17.625 16.875 17.125 17.625 16.875 17.875C16.75 18.125 16.5 18.125 16.25 18C15.375 17.625 14.5 17.125 13.75 16.5C13.125 15.875 12.5 15.125 12 14.375C11.875 14.125 12 13.875 12.125 13.75C12.25 13.625 12.375 13.375 12.625 13.25C12.75 13.125 12.875 12.875 12.875 12.75C13 12.625 13 12.375 12.875 12.25C12.75 12.125 12.125 10.625 11.875 10C11.75 9.125 11.5 9.125 11.25 9.125H10.625C10.375 9.125 10 9.375 9.875 9.5C9.125 10.25 8.75 11.125 8.75 12.125C8.875 13.25 9.25 14.375 10 15.375C11.375 17.375 13.125 19 15.25 20C15.875 20.25 16.375 20.5 17 20.625C17.625 20.875 18.25 20.875 19 20.75C19.875 20.625 20.625 20 21.125 19.25C21.375 18.75 21.375 18.25 21.25 17.75L20.75 17.5ZM23.875 6.125C19 1.25 11.125 1.25 6.25 6.125C2.25 10.125 1.5 16.25 4.25 21.125L2.5 27.5L9.125 25.75C11 26.75 13 27.25 15 27.25C21.875 27.25 27.375 21.75 27.375 14.875C27.5 11.625 26.125 8.5 23.875 6.125ZM20.5 23.625C18.875 24.625 17 25.25 15 25.25C13.125 25.25 11.375 24.75 9.75 23.875L9.375 23.625L5.5 24.625L6.5 20.875L6.25 20.5C3.25 15.5 4.75 9.25 9.625 6.125C14.5 3 20.75 4.625 23.75 9.375C26.75 14.25 25.375 20.625 20.5 23.625Z" fill="white"/>
</svg>
