<svg width="22" height="12" viewBox="0 0 22 12" fill="none" xmlns="http://www.w3.org/2000/svg">
<path d="M20.5833 8.7024L12.3608 0.575736C12.1827 0.39609 11.9707 0.253501 11.7371 0.156194C11.5035 0.0588878 11.253 0.00878906 11 0.00878906C10.747 0.00878906 10.4965 0.0588878 10.2629 0.156194C10.0293 0.253501 9.81735 0.39609 9.63917 0.575736L1.5125 8.7024C1.33286 8.88058 1.19027 9.09257 1.09296 9.32613C0.995654 9.55969 0.945557 9.81021 0.945557 10.0632C0.945557 10.3163 0.995654 10.5668 1.09296 10.8003C1.19027 11.0339 1.33286 11.2459 1.5125 11.4241C1.87161 11.781 2.3574 11.9814 2.86375 11.9814C3.37011 11.9814 3.85589 11.781 4.215 11.4241L11 4.63907L17.785 11.4241C18.142 11.7782 18.6239 11.9778 19.1267 11.9799C19.3789 11.9814 19.629 11.933 19.8625 11.8376C20.096 11.7422 20.3084 11.6017 20.4875 11.4241C20.6736 11.2523 20.8237 11.0454 20.9294 10.8152C21.035 10.5851 21.094 10.3363 21.1029 10.0832C21.1118 9.83015 21.0705 9.57782 20.9813 9.34082C20.8921 9.10382 20.7569 8.88683 20.5833 8.7024Z" fill="white"/>
</svg>
