<svg xmlns="http://www.w3.org/2000/svg" width="21" height="20" viewBox="0 0 21 20"><defs><clipPath id="1c4ca"><path fill="#fff" d="M10.47.203l3.502 5.7 6.502 1.569-4.339 5.091.518 6.67-6.183-2.554-6.183 2.553.518-6.669L.466 7.472l6.503-1.57z"/></clipPath></defs><g><g><path fill="#ff7373" d="M10.47.203l3.502 5.7 6.502 1.569-4.339 5.091.518 6.67-6.183-2.554-6.183 2.553.518-6.669L.466 7.472l6.503-1.57z"/><path fill="none" stroke="#ff7373" stroke-linecap="round" stroke-linejoin="round" stroke-miterlimit="20" stroke-width="4" d="M10.47.203v0l3.502 5.7v0l6.502 1.569v0l-4.339 5.091v0l.518 6.67v0l-6.183-2.554v0l-6.183 2.553v0l.518-6.669v0L.466 7.472v0l6.503-1.57v0z" clip-path="url(&quot;#1c4ca&quot;)"/></g></g></svg>