<svg width="34" height="34" viewBox="0 0 34 34" fill="none" xmlns="http://www.w3.org/2000/svg">
<path d="M3.38409 13.4877L28.3625 2.0048C31.3112 0.64745 33.5734 2.78489 32.2161 5.73361L20.7644 30.6028C19.4851 33.3799 15.7095 32.8182 15.6938 29.8227L15.6782 18.6674C15.6782 18.4958 15.6782 18.5114 15.5222 18.5114L4.30459 18.4646C1.37146 18.4646 0.684987 14.7358 3.38409 13.4877ZM8.12701 15.1259L17.3476 15.079C18.5334 15.0634 19.0794 15.6095 19.0794 16.7796L19.017 26.0315C19.017 26.0939 19.0794 26.1095 19.1106 26.0471L28.2844 5.99884C28.3625 5.85843 28.2844 5.82722 28.1908 5.87403L8.11141 15.0322C8.0334 15.0634 8.049 15.1259 8.12701 15.1259Z" fill="white"/>
</svg>
