<svg width="664" height="201" viewBox="0 0 664 201" fill="none" xmlns="http://www.w3.org/2000/svg">
<path d="M662.829 65.9232C662.829 65.9232 660.896 65.4919 659.669 65.6587C658.136 65.8673 656.602 66.0758 655.068 66.2844C651.05 66.5994 647.001 66.6873 642.951 66.7751C642.031 66.9003 641.418 66.9837 641.325 66.3021C641.325 66.3021 640.957 65.8895 640.681 66.1584C639.884 67.1922 638.289 66.9464 636.755 67.155C635.835 67.2801 634.915 67.4052 634.27 67.2615C633.626 67.1177 634.178 66.5799 634.147 66.3527C634.085 65.8983 633.441 65.7546 633.072 65.3419C633.072 65.3419 633.072 65.3419 632.459 65.4253C632.214 65.9214 632.306 66.603 631.417 66.9553C631.386 66.7281 631.324 66.2737 630.404 66.3989C629.484 66.524 629.852 66.9367 629.914 67.391C629.914 67.391 629.945 67.6182 629.976 67.8454C629.976 67.8454 629.976 67.8454 629.669 67.8871C629.638 67.6599 629.608 67.4327 629.27 67.2473C629.239 67.0201 629.177 66.5657 628.564 66.6491C627.95 66.7326 627.644 66.7743 627.399 67.2703C627.399 67.2703 627.154 67.7664 626.878 68.0353C626.326 68.5731 625.437 68.9254 625.037 68.2856C624.27 67.2331 622.398 67.2562 620.22 67.3209C618.686 67.5295 617.429 67.4691 615.926 67.9049C615.313 67.9883 614.699 68.0717 614.086 68.1551C612.828 68.0948 611.938 68.4471 610.742 68.8412C607.216 70.4776 604.025 69.986 600.558 69.7632C599.301 69.7029 599.177 68.7941 600.342 68.1729C601.232 67.8206 602.121 67.4683 603.103 67.7975C604.054 67.8996 604.943 67.5473 606.17 67.3804C607.09 67.2553 608.011 67.1301 608.931 67.005C611.14 67.1674 612.642 66.7317 613.746 65.6561C613.715 65.4289 614.666 65.531 614.973 65.4893C614.973 65.4893 614.973 65.4893 615.31 65.6747C616.751 64.7846 617.826 65.7954 619.329 65.3597C620.862 65.1511 622.703 64.9009 624.236 64.6923C625.157 64.5672 625.739 64.2566 626.384 64.4003C627.672 64.6879 628.531 64.1084 629.758 63.9415C630.985 63.7747 631.966 64.1039 633.132 63.4827C634.052 63.3576 634.665 63.2742 635.341 63.6451C636.292 63.7472 636.812 62.9822 637.794 63.3114L638.408 63.228C639.052 63.3718 639.666 63.2883 640.248 62.9777C641.138 62.6254 642.089 62.7275 643.285 62.3335C645.125 62.0832 646.965 61.8329 648.806 61.5827L649.419 61.4992C649.419 61.4992 649.388 61.2721 649.082 61.3138C647.486 61.068 645.646 61.3182 643.775 61.3413C640.707 61.7584 637.578 61.7211 634.449 61.6838C631.32 61.6466 628.222 61.8365 625.124 62.0264C621.136 62.5687 617.393 62.6148 613.406 63.157C610.952 63.4907 608.498 63.8244 606.044 64.1581C603.59 64.4918 601.443 64.7837 598.989 65.1174C596.536 65.4511 594.512 66.6518 592.027 66.7583L591.414 66.8418C590.586 67.6484 589.053 67.857 587.519 68.0655C586.906 68.149 586.292 68.2324 585.679 68.3158C583.931 69.2476 582.091 69.4979 580.219 69.521C579.299 69.6461 578.379 69.7712 578.134 70.2673C578.134 70.2673 577.551 70.5779 577.214 70.3924C576.6 70.4759 576.232 70.0632 575.68 70.601C575.067 70.6844 575.435 71.0971 575.497 71.5515C575.497 71.5515 575.528 71.7786 575.559 72.0058C574.945 72.0893 574.394 72.627 573.473 72.7522C572.86 72.8356 572.246 72.919 571.878 72.5064C571.785 71.8248 572.95 71.2036 573.809 70.6241C572.582 70.7909 571.631 70.6889 570.68 70.5868C570.066 70.6702 569.76 70.7119 569.146 70.7954C568.226 70.9205 567.612 71.0039 566.968 70.8601C566.661 70.9019 566.017 70.7581 565.679 70.5726C564.759 70.6977 564.452 70.7395 563.901 71.2772C563.932 71.5044 563.963 71.7316 563.38 72.0422C562.797 72.3528 562.153 72.2091 561.54 72.2925C560.926 72.3759 561.171 71.8798 561.447 71.6109C561.754 71.5692 562.336 71.2586 561.968 70.846C560.096 70.869 558.318 71.5737 556.446 71.5967C555.833 71.6802 555.526 71.7219 555.588 72.1762C555.619 72.4034 555.957 72.5889 555.987 72.8161L556.018 73.0433C555.405 73.1267 554.485 73.2518 553.871 73.3353C552.951 73.4604 553.196 72.9643 553.472 72.6954C553.686 71.9721 553.286 71.3323 551.446 71.5825C550.219 71.7494 549.544 71.3784 549.175 70.9658C548.5 70.5948 549.021 69.8298 549.941 69.7047C551.475 69.4962 553.008 69.2876 554.542 69.0791C555.769 68.9122 556.996 68.7454 557.457 69.8396C557.488 70.0668 558.439 70.1688 558.991 69.631C559.573 69.3204 560.432 68.7409 560.677 68.2448C561.167 67.2527 562.7 67.0441 563.559 66.4646L564.479 66.3395C565.123 66.4833 565.768 66.627 566.626 66.0475C567.791 65.4263 569.356 65.4449 570.613 65.5053C570.613 65.5053 570.613 65.5053 570.951 65.6908C572.116 65.0695 573.281 64.4483 575.184 64.6524C575.797 64.569 576.411 64.4856 577.024 64.4022C577.637 64.3187 578.22 64.0081 578.803 63.6975C582.115 62.7843 585.52 62.5527 588.463 61.2269C588.463 61.2269 588.464 61.2269 588.77 61.1852C590.642 61.1621 592.758 60.6429 594.598 60.3927C597.052 60.059 597.052 60.059 597.787 58.5707C599.137 59.3126 599.475 59.4981 600.978 59.0624C604.29 58.1492 604.903 58.0658 606.19 56.0397C606.803 55.9563 606.221 56.2669 606.558 56.4524C606.62 56.9067 607.265 57.0505 608.154 56.6982C609.074 56.5731 609.319 56.077 608.644 55.706C608.306 55.5206 608.582 55.2516 609.165 54.941C610.698 54.7325 611.925 54.5656 613.459 54.3571C614.993 54.1485 616.495 53.7128 617.63 52.8644C618.795 52.2432 619.96 51.622 621.125 51.0008C622.259 50.1524 623.424 49.5311 623.914 48.539C624.435 47.774 624.342 47.0924 626.121 46.3878L626.366 45.8917C626.211 44.7558 627.897 43.3696 626.823 42.3588C626.823 42.3588 626.761 41.9044 627.374 41.821C628.601 41.6541 629.122 40.8891 628.723 40.2493C628.63 39.5677 628.537 38.8862 629.089 38.3484C629.027 37.894 628.996 37.6668 628.935 37.2125C628.842 36.5309 628.718 35.6221 628.319 34.9823C628.257 34.5279 627.613 34.3842 626.968 34.2404C624.146 34.1614 624.146 34.1614 625.832 32.7752C626.139 32.7335 626.384 32.2374 625.739 32.0937C625.739 32.0937 625.095 31.9499 624.788 31.9916C623.254 32.2002 622.028 32.367 620.494 32.5755C620.494 32.5755 620.432 32.1212 620.401 31.894C620.278 30.9852 619.971 31.0269 618.713 30.9666C616.566 31.2586 614.419 31.5505 611.965 31.8842C610.738 32.0511 610.155 32.3617 610.248 33.0433C610.341 33.7248 609.82 34.4898 608.655 35.111C608.041 35.1944 608.41 35.6071 608.134 35.876C608.319 37.2391 607.154 37.8603 604.67 37.9668C602.829 38.2171 600.682 38.509 598.842 38.7593C599.087 38.2632 599.362 37.9943 598.687 37.6234C598.687 37.6234 598.38 37.6651 598.074 37.7068C598.074 37.7068 597.767 37.7485 598.105 37.934C598.136 38.1612 598.78 38.3049 599.148 38.7176C598.228 38.8427 597.308 38.9679 596.388 39.093C594.854 39.3015 593.934 39.4267 593.197 38.6014C593.166 38.3742 592.215 38.2721 591.602 38.3555C588.166 38.36 584.761 38.5916 581.111 39.3193C580.191 39.4444 578.995 39.8385 578.044 39.7364C577.737 39.7781 577.092 39.6344 577.062 39.4072C577.031 39.18 577 38.9528 577.889 38.6005C578.502 38.5171 579.423 38.3919 578.717 37.7938C578.717 37.7938 577.796 37.9189 577.183 38.0023C576.263 38.1275 575.036 38.2943 574.116 38.4194C572.582 38.628 570.711 38.6511 569.115 38.4053L569.084 38.1781C569.084 38.1781 569.053 37.9509 569.36 37.9092C570.249 37.5569 571.201 37.6589 572.121 37.5338C573.716 37.7796 575.557 37.5293 577.397 37.2791C578.624 37.1122 578.624 37.1122 578.807 36.1618C579.114 36.1201 579.727 36.0366 579.727 36.0366C580.526 37.3163 582.366 37.0661 584.483 36.5469C585.403 36.4218 586.016 36.3384 586.937 36.2132C588.777 35.963 590.556 35.2583 592.458 35.4625C593.378 35.3373 593.654 35.0684 593.899 34.5723C593.899 34.5723 593.285 34.6558 592.917 34.2431C591.566 33.5012 591.566 33.5012 589.788 34.2058C588.316 34.8687 586.751 34.8501 585.248 35.2859C584.635 35.3693 584.266 34.9566 583.929 34.7711L583.315 34.8546C582.426 35.2069 581.782 35.0631 581.413 34.6504C581.351 34.1961 580.676 33.8251 581.565 33.4728C582.731 32.8516 583.651 32.7265 585.184 32.5179C586.411 32.3511 587.638 32.1842 588.528 31.8319C587.791 31.0066 586.625 31.6278 585.398 31.7946C583.558 32.0449 582.821 31.2196 581.563 31.1592C581.471 30.4777 581.471 30.4777 580.244 30.6445C578.71 30.8531 578.71 30.853 578.249 29.7588C578.218 29.5316 577.88 29.3462 577.267 29.4296C576.653 29.513 575.733 29.6381 575.12 29.7216C574.506 29.805 574.138 29.3923 574.383 28.8962C574.383 28.8962 574.965 28.5856 575.241 28.3167L575.21 28.0895L574.29 28.2147C572.635 29.8281 569.843 29.9763 567.052 30.1245C566.438 30.2079 565.825 30.2913 565.212 30.3747C564.291 30.4999 563.678 30.5833 563.892 29.86L563.861 29.6328C562.941 29.758 561.621 29.2432 560.794 30.0499C559.567 30.2168 558.34 30.3836 557.42 30.5087C556.193 30.6756 555.672 31.4406 554.445 31.6074C553.525 31.7325 552.605 31.8577 551.684 31.9828C550.764 32.1079 550.764 32.1079 550.672 31.4264C550.641 31.1992 550.61 30.972 549.996 31.0554C547.818 31.1202 545.947 31.1433 543.831 31.6624C541.07 32.0378 538.31 32.4132 535.549 32.7886C531.438 32.4221 527.267 33.9148 523.156 33.5483C523.156 33.5483 522.543 33.6317 521.929 33.7151C520.702 33.882 519.475 34.0488 518.586 34.4011C517.973 34.4846 517.359 34.568 516.746 34.6514C513.892 34.3452 510.825 34.7623 507.789 35.4066C506.562 35.5735 505.642 35.6986 504.415 35.8654C502.512 35.6613 500.61 35.4572 498.187 36.0181C496.347 36.2684 494.813 36.4769 493.28 36.6855C492.359 36.8106 492.053 36.8523 491.808 37.3484C491.042 38.6095 490.122 38.7346 487.944 38.7994C487.33 38.8828 486.717 38.9662 486.073 38.8224C485.459 38.9059 485.121 38.7204 485.091 38.4932C485.091 38.4932 485.366 38.2243 485.642 37.9554C487.728 37.2091 489.813 36.4627 491.561 35.5309C493.584 34.3302 495.7 33.811 498.123 33.2501C501.191 32.833 503.521 31.5906 505.575 30.6171C507.599 29.4164 509.991 28.6283 512.69 27.7985C514.499 27.3211 516.278 26.6164 518.087 26.139C518.394 26.0973 518.67 25.8284 518.639 25.6012C518.608 25.374 518.577 25.1468 517.626 25.0448C517.013 25.1282 516.399 25.2116 515.786 25.295C513.639 25.587 511.492 25.879 509.651 26.1292C509.651 26.1292 509.344 26.171 509.314 25.9438C509.314 25.9438 509.283 25.7166 509.896 25.6332C511.123 25.4663 512.35 25.2995 513.27 25.1743C514.19 25.0492 515.111 24.9241 514.404 24.3259C514.404 24.3259 514.374 24.0988 514.68 24.057C517.686 23.1856 520.63 21.8597 524.341 21.5864C525.261 21.4612 525.875 21.3778 526.795 21.2527C528.022 21.0859 528.942 20.9607 529.432 19.9686C529.401 19.7414 530.352 19.8434 530.352 19.8434C530.414 20.2978 530.445 20.525 531.672 20.3581C532.592 20.233 533.512 20.1079 534.432 19.9827C536.242 19.5053 538.113 19.4822 539.954 19.232C541.181 19.0651 542.714 18.8566 543.941 18.6897C540.874 19.1068 538.265 18.3046 535.443 18.2256C535.443 18.2256 535.136 18.2673 534.799 18.0818C534.799 18.0818 534.768 17.8546 534.737 17.6275C534.737 17.6275 534.982 17.1314 535.289 17.0897C536.822 16.8811 538.356 16.6726 539.89 16.464L540.503 16.3806C540.503 16.3806 540.472 16.1534 540.165 16.1951C539.245 16.3202 538.018 16.4871 537.098 16.6122C537.098 16.6122 536.791 16.6539 536.761 16.4267C536.73 16.1995 536.73 16.1995 537.036 16.1578C537.65 16.0744 538.263 15.991 538.877 15.9076C541.944 15.4905 544.766 15.5694 547.373 14.0581C547.373 14.0581 547.373 14.0581 547.679 14.0164C548.599 13.8913 549.826 13.7244 549.734 13.0429C549.672 12.5885 548.445 12.7554 547.801 12.6116C547.494 12.6533 546.85 12.5095 546.205 12.3658C547.677 11.7028 548.935 11.7632 550.162 11.5963C551.082 11.4712 551.695 11.3878 551.94 10.8917C551.848 10.2101 552.737 9.85782 553.595 9.27832C554.454 8.69881 555.743 8.98634 556.97 8.8195C557.89 8.69437 558.503 8.61095 558.748 8.11487C558.717 7.88768 558.686 7.66049 559.269 7.34988C560.127 6.77038 559.79 6.5849 559.145 6.44113C558.532 6.52456 557.918 6.60798 557.305 6.6914C556.385 6.81654 556.016 6.40387 555.985 6.17668C557.181 5.78265 558.377 5.38862 559.635 5.44897C561.476 5.19871 563.316 4.94844 565.156 4.69818C565.77 4.61476 566.077 4.57305 566.322 4.07696L566.26 3.62259C566.26 3.62259 565.646 3.70601 565.34 3.74772C564.757 4.05834 564.205 4.59613 563.561 4.45236C562.579 4.12311 561.628 4.02106 560.401 4.1879C559.388 3.63147 557.854 3.84002 556.597 3.77967C555.063 3.98823 553.192 4.01131 551.627 3.99268C549.111 3.87199 549.111 3.87199 550.184 2.56921C548.957 2.73605 547.73 2.90289 546.81 3.02802C545.583 3.19486 544.969 3.27829 544.418 3.81608C543.866 4.35388 543.559 4.39558 542.884 4.02463C542.884 4.02463 542.516 3.61197 541.902 3.69539C540.675 3.86223 539.448 4.02907 537.915 4.23762C537.608 4.27933 537.332 4.54823 537.056 4.81713C536.136 4.94226 535.492 4.79849 534.847 4.65473C534.541 4.69644 533.927 4.77987 533.927 4.77987C533.989 5.23424 533.406 5.54484 532.486 5.66997C529.419 6.08707 526.658 6.46247 523.653 7.33395C523.039 7.41737 522.671 7.00471 521.781 7.35702L521.536 7.85311C521.108 9.29966 519.299 9.7771 516.845 10.1108C515.925 10.2359 515.005 10.361 514.084 10.4862C511.417 11.5431 508.656 11.9185 505.834 11.8395C504.607 12.0064 503.656 11.9043 502.429 12.0712C500.281 12.3631 498.41 12.3862 496.201 12.2238C494.943 12.1635 494.023 12.2886 492.827 12.6826C491.049 13.3873 489.208 13.6375 486.999 13.4751C482.03 13.6881 477.091 14.1283 472.214 15.0229C472.214 15.0229 471.601 15.1063 471.294 15.148L470.681 15.2314C470.588 14.5499 469.668 14.675 468.748 14.8001C466.601 15.0921 464.453 15.3841 462.306 15.676C460.159 15.968 457.981 16.0328 456.172 16.5102C452.215 17.2797 447.89 17.6364 443.964 18.633C443.657 18.6747 443.351 18.7164 442.737 18.7999C439.608 18.7626 436.234 19.2214 433.136 19.4113C428.842 19.9953 424.547 20.5792 420.222 20.936C418.995 21.1028 417.768 21.2697 416.786 20.9404C416.142 20.7967 415.866 21.0656 414.946 21.1907C412.554 21.9787 410.162 22.7668 407.523 21.7374L406.603 21.8625C405.162 22.7526 403.904 22.6923 402.615 22.4047C402.308 22.4464 401.388 22.5716 400.775 22.655C398.934 22.9053 396.756 22.97 394.947 23.4475C392.8 23.7395 390.897 23.5354 388.75 23.8273C387.83 23.9525 386.603 24.1193 385.683 24.2444C384.763 24.3696 383.843 24.4947 382.922 24.6198C381.082 24.8701 379.242 25.1204 377.401 25.3706C375.561 25.6209 374.027 25.8294 372.187 26.0797C370.346 26.33 367.893 26.6636 366.052 26.9139C359.242 27.3772 352.249 28.7909 345.501 29.7085C344.888 29.7919 344.274 29.8753 343.661 29.9588C341.483 30.0235 339.366 30.5427 337.495 30.5658C334.121 31.0246 331.085 31.6689 327.68 31.9005C324.306 32.3593 320.932 32.8181 317.558 33.277C313.57 33.8192 309.552 34.1342 305.595 34.9037C304.982 34.9871 304.368 35.0705 303.755 35.1539C303.141 35.2373 302.528 35.3208 301.914 35.4042C297.651 36.2153 293.295 36.3449 289.338 37.1143C287.191 37.4063 284.737 37.74 282.621 38.2591C281.394 38.426 280.198 38.82 279.247 38.7179C278.603 38.5742 277.713 38.9265 277.1 39.0099C274.125 40.1086 270.751 40.5674 267.622 40.5301C266.395 40.697 264.555 40.9472 263.91 40.8035C262.253 40.1033 261.825 41.5498 260.567 41.4895L259.954 41.5729C258.727 41.7397 257.5 41.9066 256.335 42.5278C255.415 42.6529 255.783 43.0656 256.428 43.2094C257.072 43.3531 256.489 43.6637 255.876 43.7471C254.649 43.914 253.76 44.2663 252.564 44.6603C250.968 44.4145 250.478 45.4067 249.251 45.5735C248.883 45.1609 249.772 44.8085 249.404 44.3959C249.035 43.9832 249.618 43.6726 250.538 43.5475C250.845 43.5058 251.151 43.4641 250.814 43.2786C250.507 43.3203 250.2 43.362 249.863 43.1765C247.685 43.2413 247.409 43.5102 247.226 44.4607C247.256 44.6879 246.981 44.9567 246.367 45.0402C245.14 45.207 244.22 45.3321 242.962 45.2718C243.238 45.0029 243.882 45.1467 244.465 44.8361C245.078 44.7526 245.354 44.4837 245.323 44.2566C245.262 43.8022 244.924 43.6167 244.004 43.7418C243.697 43.7835 243.084 43.867 242.777 43.9087C240.385 44.6967 237.869 44.576 235.477 45.3641C233.237 44.9745 231.214 46.1752 229.036 46.24C229.036 46.24 228.729 46.2817 228.76 46.5089C228.76 46.5089 228.76 46.5089 229.373 46.4255C231.52 46.1335 233.668 45.8416 235.508 45.5913C236.735 45.4244 238.269 45.2159 239.495 45.0491C240.109 44.9656 240.14 45.1928 239.557 45.5034C239.251 45.5451 239.312 45.9995 239.619 45.9578C240.232 45.8744 240.846 45.791 241.459 45.7075C241.459 45.7075 242.073 45.6241 242.104 45.8513C242.104 45.8513 242.135 46.0785 241.521 46.1619C239.098 46.7228 236.951 47.0148 234.773 47.0795C233.515 47.0192 232.809 46.4211 232.319 47.4132C232.319 47.4132 231.706 47.4966 231.399 47.5384C229.252 47.8303 227.105 48.1223 224.651 48.456C223.731 48.5811 223.117 48.6645 222.718 48.0247C222.656 47.5703 221.429 47.7372 220.847 48.0478C220.54 48.0895 219.988 48.6273 219.712 48.8962C218.578 49.7446 217.014 49.7259 215.97 48.9423C215.97 48.9423 215.908 48.4879 215.295 48.5714C214.068 48.7382 212.81 48.6779 211.521 48.3903C211.521 48.3903 210.601 48.5155 210.018 48.8261C210.018 48.8261 209.712 48.8678 209.436 49.1367C209.436 49.1367 209.467 49.3639 210.111 49.5076C211.338 49.3408 212.872 49.1322 213.578 49.7304C212.413 50.3516 210.879 50.5601 209.621 50.4998C208.701 50.6249 207.75 50.5229 206.86 50.8752C206.247 50.9586 205.94 51.0003 205.327 51.0837C204.345 50.7545 203.149 51.1485 202.26 51.5008C200.45 51.9783 198.579 52.0014 197.045 52.2099C196.432 52.2933 195.818 52.3768 195.143 52.0058C194.192 51.9038 194.284 52.5853 193.364 52.7104C191.8 52.6918 190.297 53.1276 188.763 53.3361C186.34 53.897 183.886 54.2307 181.647 53.8411C181.002 53.6973 180.42 54.0079 179.806 54.0913C178.886 54.2165 178.273 54.2999 177.935 54.1144C177.567 53.7017 176.922 53.558 176.002 53.6831C175.082 53.8082 174.468 53.8917 173.917 54.4295C173.61 54.4712 173.396 55.1944 172.782 55.2779C171.862 55.403 172.107 54.9069 171.463 54.7631C171.463 54.7631 171.156 54.8049 170.849 54.8466C170.543 54.8883 169.929 54.9717 169.622 55.0134C169.316 55.0551 169.653 55.2406 169.684 55.4678C169.684 55.4678 170.329 55.6115 169.746 55.9222L169.132 56.0056C167.261 56.0286 165.697 56.01 163.887 56.4875C161.464 57.0483 158.979 57.1548 156.526 57.4885C154.072 57.8222 151.556 57.7015 148.857 58.5313C144.195 58.7026 139.717 60.237 134.748 60.45C133.827 60.5751 132.907 60.7002 131.987 60.8253C131.374 60.9088 130.76 60.9922 130.822 61.4466C130.884 61.9009 131.497 61.8175 132.417 61.6924C133.644 61.5255 134.871 61.3587 135.791 61.2336C135.791 61.2336 136.098 61.1919 136.129 61.419C136.129 61.419 136.16 61.6462 135.853 61.6879C134.32 61.8965 132.786 62.105 131.252 62.3136C130.025 62.4804 128.737 62.1929 127.571 62.8141C127.571 62.8141 126.958 62.8975 126.344 62.981C125.731 63.0644 125.393 62.8789 124.749 62.7351C124.136 62.8186 123.491 62.6748 122.909 62.9854C122.357 63.5232 123.001 63.667 123.063 64.1213C123.738 64.4923 124.076 64.6778 124.751 65.0487C124.138 65.1321 123.769 64.7195 123.218 65.2573C122.911 65.299 123.279 65.7116 123.31 65.9388C122.697 66.0223 121.777 66.1474 121.132 66.0036C118.678 66.3373 117.758 66.4624 116.686 67.7652C116.441 68.2613 116.196 68.7574 115.951 69.2535C116.013 69.7078 116.105 70.3894 115.554 70.9272C115.371 71.8777 115.77 72.5175 116.783 73.0739C116.752 72.8467 117.028 72.5778 117.641 72.4944C120.095 72.1607 122.58 72.0542 124.789 72.2166C124.789 72.2166 125.095 72.1749 125.126 72.4021C125.126 72.4021 124.82 72.4438 124.513 72.4855C122.979 72.6941 121.077 72.49 119.574 72.9257C119.605 73.1529 119.636 73.3801 119.667 73.6073C119.484 74.5577 120.128 74.7015 121.969 74.4512C123.809 74.201 125.343 73.9924 126.907 74.0111C128.441 73.8025 128.441 73.8025 128.595 74.9384C128.626 75.1656 128.657 75.3928 128.044 75.4762C127.43 75.5597 127.123 75.6014 127.062 75.147C126.969 74.4654 126.018 74.3634 125.466 74.9012C124.332 75.7496 122.798 75.9581 121.234 75.9395C120.62 76.0229 119.976 75.8792 119.332 75.7354C118.718 75.8188 117.767 75.7168 117.123 75.573C116.509 75.6564 116.202 75.6981 115.927 75.967C115.958 76.1942 115.988 76.4214 116.019 76.6486C117.37 77.3905 118.934 77.4091 120.744 76.9317C121.664 76.8065 122.278 76.7231 122.033 77.2192C122.063 77.4464 122.125 77.9008 121.543 78.2114C121.022 78.9763 121.728 79.5745 122.679 79.6765C123.63 79.7786 124.612 80.1078 125.502 79.7555C127.342 79.5053 128.876 79.2967 130.409 79.0882C131.943 78.8796 132.925 79.2088 132.649 79.4777C132.68 79.7049 130.87 80.1824 129.95 80.3075C129.643 80.3492 129.337 80.3909 128.723 80.4744C127.803 80.5995 126.576 80.7663 125.625 80.6643C124.705 80.7894 123.447 80.7291 122.558 81.0814C121.393 81.7026 121.238 80.5667 120.042 80.9607C118.202 81.2109 117.895 81.2527 117.465 80.3856C117.434 80.1584 117.372 79.7041 117.034 79.5186C115.807 79.6854 115.256 80.2232 115.348 80.9048C115.472 81.8135 116.485 82.37 116.302 83.3204C116.119 84.2709 116.518 84.9107 117.838 85.4254C118.82 85.7547 119.219 86.3945 119.618 87.0344C119.773 88.1703 120.817 88.9539 122.474 89.6541C123.149 90.0251 123.487 90.2106 124.162 90.5815C125.175 91.1379 124.93 91.634 123.734 92.0281C120.483 93.3956 117.202 94.536 113.215 95.0782C107.693 95.829 102.203 96.807 96.3752 97.5995C84.4127 99.2262 72.5119 101.307 61.0415 104.255C59.2011 104.506 57.4225 105.21 55.6439 105.915C54.7237 106.04 53.8653 106.62 53.3136 107.157C52.8546 108.377 51.0451 108.854 49.1738 108.877C46.3823 109.025 44.2661 109.545 42.2117 110.518C38.6545 111.927 34.6978 112.697 31.1715 114.333C30.8648 114.375 30.5581 114.417 29.9446 114.5C26.8773 114.917 23.8717 115.789 21.0185 115.483C20.0983 115.608 19.1781 115.733 18.5955 116.043C16.6029 117.471 13.9041 118.301 10.53 118.76C9.30308 118.927 8.07615 119.094 6.54249 119.302C5.6223 119.427 4.7021 119.552 4.15043 120.09C3.56786 120.401 3.62964 120.855 4.3049 121.226C4.64252 121.412 5.28688 121.555 5.83855 121.018C6.72786 120.665 7.34132 120.582 8.01657 120.953C8.01657 120.953 8.66093 121.097 8.99855 121.282C9.64291 121.426 9.09123 121.964 8.47777 122.047C5.74808 122.65 3.72453 123.85 0.963943 124.226C0.657211 124.267 0.350479 124.309 0.0746404 124.578C0.0746404 124.578 0.105534 124.805 0.412266 124.764C1.02573 124.68 1.33246 124.638 1.94593 124.555C4.70651 124.18 7.09858 123.392 9.82827 122.789C15.2877 121.584 20.4712 120.648 25.9615 119.67C26.2682 119.628 26.8817 119.544 27.1884 119.503C27.8019 119.419 28.1086 119.378 28.4771 119.79C28.4771 119.79 28.5389 120.245 28.5698 120.472C28.9692 121.112 30.227 121.172 30.7787 120.634C31.6062 119.827 32.5264 119.702 33.8151 119.99C35.1039 120.277 36.5757 119.614 38.1094 119.406C38.7229 119.323 39.6122 118.97 40.2565 119.114C40.5632 119.072 40.87 119.031 41.2076 119.216C41.2076 119.216 41.2694 119.67 40.9627 119.712C40.9627 119.712 40.0425 119.837 40.411 120.25C42.2514 120 43.7232 119.337 44.8266 118.261C45.685 117.682 46.2985 117.598 47.2805 117.927C47.2805 117.927 47.3113 118.155 47.6181 118.113C47.9248 118.071 48.2315 118.029 48.5383 117.988C48.8141 117.719 49.0591 117.223 49.6725 117.139C50.8994 116.973 50.3787 117.738 51.023 117.881C52.005 118.211 53.2319 118.044 54.4589 117.877C55.6858 117.71 55.2555 116.843 56.1757 116.718C57.0959 116.593 57.802 117.191 58.9981 116.797C59.6115 116.713 59.8874 116.444 60.1632 116.176C60.7149 115.638 61.2665 115.1 62.4935 114.933C64.0271 114.725 64.3957 115.137 65.6844 115.425C66.2978 115.341 66.9731 115.712 67.8933 115.587C68.8135 115.462 69.0584 114.966 69.3343 114.697C69.3343 114.697 69.9168 114.386 70.1927 114.118C70.7752 113.807 71.1129 113.992 71.7572 114.136L72.0948 114.322C73.2909 113.928 75.2239 114.359 76.3273 113.283C77.1857 112.704 78.1059 112.579 79.3637 112.639C80.9283 112.658 82.1243 112.264 83.658 112.055C84.8849 111.888 84.5164 111.476 84.1479 111.063C84.1479 111.063 84.117 110.836 84.0861 110.609L84.6995 110.525C85.313 110.442 85.6506 110.627 85.9882 110.813C87.277 111.1 87.0629 111.824 85.5601 112.259C84.9467 112.343 84.0265 112.468 83.8124 113.191C85.0394 113.024 86.0522 113.581 87.555 113.145C89.3336 112.44 91.2358 112.644 93.138 112.849C92.893 113.345 91.2976 113.099 91.1144 114.049C94.12 113.178 96.9423 113.257 100.01 112.84C102.157 112.548 104.304 112.256 106.451 111.964C106.451 111.964 107.064 111.88 107.095 112.107C107.095 112.107 107.095 112.107 106.82 112.376L106.206 112.46C102.832 112.919 99.1512 113.419 95.7772 113.878C92.4031 114.337 89.0291 114.796 85.7477 115.936C85.441 115.978 84.8275 116.061 84.2141 116.145C82.3428 116.168 80.84 116.603 79.3372 117.039C78.417 117.164 77.4969 117.289 76.5767 117.414C73.2026 117.873 70.1353 118.29 66.7612 118.749C65.5343 118.916 64.0006 119.125 62.7737 119.291C61.2401 119.5 59.7064 119.709 58.1727 119.917C52.7134 121.122 46.9163 122.142 41.457 123.347C40.5368 123.472 39.6166 123.597 38.6964 123.722C36.8869 124.2 36.3352 124.738 36.152 125.688C36.2138 126.143 36.2756 126.597 36.6441 127.01C37.6879 127.793 38.4558 128.846 38.2727 129.796C38.3654 130.478 39.0715 131.076 39.7776 131.674C40.4838 132.272 41.4349 132.374 42.6618 132.207C43.2753 132.124 43.582 132.082 44.1955 131.999C45.1157 131.874 45.4224 131.832 45.4842 132.286C45.5151 132.514 46.1594 132.657 46.7111 132.12C47.8762 131.498 48.7347 130.919 50.2683 130.71C50.2374 130.483 50.5133 130.214 51.1267 130.131C53.8873 129.755 56.5861 128.926 59.4085 129.005C59.1635 129.501 58.9186 129.997 58.336 130.307C57.1709 130.929 58.4905 131.443 58.5523 131.898C58.6141 132.352 59.1966 132.041 59.8101 131.958C60.4236 131.875 60.7303 131.833 60.3618 131.42C59.6865 131.049 60.2691 130.739 60.2073 130.284C60.759 129.746 60.0837 129.376 59.4085 129.005C63.396 128.462 67.0768 127.962 71.0643 127.42C72.2912 127.253 73.549 127.313 74.4383 126.961C77.4748 126.316 80.573 126.127 83.6403 125.709C84.2538 125.626 84.8672 125.543 84.4987 125.13C84.3751 124.221 84.9577 123.911 86.4605 123.475C87.0739 123.391 87.9941 123.266 88.5767 122.956C90.1104 122.747 90.7238 122.664 92.6569 123.095C91.1232 123.304 89.9272 123.698 88.6694 123.637C88.0559 123.721 87.4424 123.804 86.829 123.888C86.2155 123.971 85.9706 124.467 86.3391 124.88C86.37 125.107 87.0143 125.251 87.6278 125.167C90.3266 124.337 93.149 124.416 96.2163 123.999C97.1365 123.874 98.3634 123.707 99.3454 124.037C96.9533 124.825 94.8062 125.117 92.69 125.636C91.1563 125.844 89.9294 126.011 88.7643 126.632L87.8441 126.758C87.1688 126.387 86.5554 126.47 85.6352 126.595C83.1813 126.929 81.0342 127.221 78.6112 127.782C79.2556 127.925 79.5932 128.111 79.9308 128.296C79.9308 128.296 80.2376 128.255 80.5443 128.213C81.1578 128.13 81.4645 128.088 82.078 128.004C82.9982 127.879 83.6116 127.796 84.5318 127.671L85.1453 127.587L85.2071 128.042C83.1526 129.015 81.7425 130.132 81.2835 131.352C81.3453 131.806 81.3762 132.033 82.0206 132.177C83.3093 132.465 84.2604 132.567 84.9665 133.165C85.3041 133.35 85.335 133.578 85.0592 133.846C84.7525 133.888 83.8632 134.24 83.8941 134.468C83.9559 134.922 85.121 134.301 85.4895 134.713C85.4895 134.713 85.858 135.126 86.1957 135.312C86.8091 135.228 87.4226 135.145 87.7911 135.557C87.822 135.785 87.8838 136.239 87.9147 136.466C87.363 137.004 86.4428 137.129 85.2468 137.523C85.5844 137.709 85.922 137.894 86.2905 138.307C86.9967 138.905 88.2236 138.738 89.1438 138.613C90.064 138.488 90.6466 138.177 91.2291 137.867C91.2291 137.867 91.26 138.094 91.2909 138.321C91.3527 138.775 91.4145 139.23 92.6723 139.29C93.5925 139.165 93.8684 138.896 94.1133 138.4C94.1133 138.4 94.1133 138.4 94.3891 138.131C95.9228 137.922 97.2115 138.21 99.0519 137.96C100.279 137.793 100.586 137.751 100.372 138.474C99.9125 139.694 99.9125 139.694 97.7654 139.986C97.1519 140.069 96.5385 140.153 96.2317 140.194C95.6492 140.505 95.4042 141.001 94.8217 141.312C94.5458 141.581 93.288 141.52 93.3807 142.202C94.3318 142.304 95.8345 141.868 96.2031 142.281C96.6334 143.148 97.8294 142.754 99.0872 142.814C99.7007 142.731 100.345 142.874 100.683 143.06C100.683 143.06 101.327 143.204 101.358 143.431C101.389 143.658 100.806 143.969 100.5 144.01C98.9658 144.219 97.1255 144.469 95.6227 144.905C93.4756 145.197 91.7278 146.129 91.2689 147.348C90.8099 148.567 91.5778 149.62 93.2041 150.093C95.1372 150.524 96.5186 151.493 97.8691 152.235C98.2067 152.421 98.882 152.792 99.8022 152.667C100.109 152.625 100.722 152.541 100.722 152.541C101.029 152.5 100.998 152.273 100.661 152.087C100.292 151.674 99.6477 151.531 98.6966 151.429C96.4568 151.039 95.0754 150.07 93.4182 149.37C92.7429 148.999 93.2946 148.461 93.2328 148.007C93.4778 147.51 94.4597 147.84 95.0732 147.756C97.8338 147.381 100.687 147.687 103.509 147.766C105.718 147.928 105.718 147.928 104.308 149.046C104.308 149.046 103.726 149.356 103.757 149.584C104.984 149.417 106.241 149.477 107.499 149.537C108.113 149.454 108.726 149.371 109.095 149.783C109.801 150.381 111.365 150.4 112.623 150.46C115.445 150.539 117.44 151.425 118.853 152.621C118.884 152.848 119.221 153.034 119.835 152.951C120.448 152.867 120.755 152.825 121.368 152.742C123.24 152.719 125.08 152.469 126.706 152.942C128.639 153.373 131.124 153.266 133.578 152.933C134.805 152.766 136.094 153.053 135.604 154.046C135.635 154.273 135.052 154.583 135.39 154.769C136.096 155.367 137.109 155.923 136.895 156.647C136.467 158.093 139.165 157.264 139.871 157.862C139.871 157.862 139.871 157.862 140.209 158.047C140.915 158.645 142.142 158.478 143.338 158.084C145.117 157.38 146.988 157.357 148.584 157.603C148.584 157.603 148.645 158.057 148.339 158.099C145.426 159.652 140.487 160.092 138.186 159.248C138.186 159.248 138.155 159.021 138.124 158.793C138.093 158.566 138.675 158.256 138.031 158.112C137.724 158.154 136.497 158.32 136.252 158.817C136.283 159.044 135.732 159.582 135.763 159.809C135.855 160.49 135.273 160.801 134.077 161.195C132.298 161.9 130.55 162.831 129.078 163.494C128.465 163.578 127.913 164.116 128.251 164.301C129.05 165.581 129.542 166.902 131.261 168.057C131.967 168.655 131.998 168.882 131.446 169.42C129.178 171.117 130.345 172.809 129.948 174.483C129.948 174.483 129.979 174.71 130.01 174.937C131.453 176.361 132.558 177.599 135.474 178.359C136.455 178.688 136.486 178.915 135.628 179.495C135.045 179.806 134.77 180.074 135.721 180.177C135.721 180.177 136.027 180.135 136.365 180.32C136.734 180.733 136.489 181.229 135.537 181.127C134.311 181.294 133.39 181.419 132.47 181.544C130.937 181.753 129.465 182.416 127.962 182.851C124.343 183.806 120.417 184.803 116.798 185.758C115.571 185.925 114.437 186.773 112.903 186.982C110.756 187.274 108.978 187.978 107.568 189.095C106.985 189.406 105.789 189.8 104.931 190.38C104.041 190.732 103.49 191.27 104.134 191.413C104.778 191.557 105.392 191.474 105.974 191.163C106.281 191.121 106.588 191.08 107.201 190.996L108.428 190.83C108.49 191.284 108.583 191.965 108.644 192.42C108.644 192.42 107.755 192.772 107.479 193.041C106.958 193.806 106.131 194.613 103.984 194.905C102.45 195.113 101.009 196.003 99.5373 196.666C99.2306 196.708 98.6171 196.791 99.0165 197.431C102.329 196.518 105.641 195.605 108.953 194.692C111.039 193.945 112.327 194.233 113.647 194.748C112.789 195.327 111.562 195.494 110.672 195.846C109.139 196.055 107.974 196.676 106.839 197.524C108.497 198.225 109.938 197.335 111.44 196.899C112.36 196.774 113.557 196.38 115.121 196.398C112.729 197.186 110.95 197.891 109.172 198.596C109.172 198.596 108.558 198.679 108.589 198.906L108.62 199.133C109.234 199.05 109.847 198.967 110.461 198.883C113.466 198.012 116.472 197.14 119.17 196.31C120.091 196.185 121.011 196.06 121.931 195.935C122.238 195.893 122.913 196.264 122.637 196.533C122.637 196.533 122.055 196.844 121.748 196.885C120.828 197.011 120.583 197.507 120.951 197.919C121.013 198.374 121.964 198.476 122.853 198.123C124.387 197.915 125.921 197.706 127.454 197.498C127.516 197.952 127.547 198.179 127.609 198.634C128.529 198.509 129.542 199.065 130.369 198.258C130.676 198.217 131.29 198.133 131.29 198.133C131.351 198.588 131.689 198.773 132.64 198.875C132.947 198.833 133.254 198.792 133.315 199.246C133.315 199.246 132.733 199.557 132.457 199.826C131.843 199.909 131.537 199.951 130.923 200.034C130.31 200.118 129.696 200.201 129.789 200.883C132.457 199.826 135.617 200.09 138.285 199.033C138.898 198.95 139.512 198.866 139.574 199.321C139.697 200.229 141.107 199.112 141.782 199.483C142.703 199.358 142.058 199.214 142.027 198.987C141.996 198.76 141.966 198.533 142.548 198.222C143.775 198.055 144.634 197.476 145.891 197.536C146.812 197.411 147.425 197.327 147.824 197.967C147.917 198.649 148.837 198.524 149.757 198.399C150.678 198.273 151.905 198.107 152.825 197.981C152.825 197.981 153.469 198.125 153.5 198.352C153.5 198.352 153.531 198.58 153.562 198.807C152.948 198.89 152.397 199.428 151.507 199.78C151.201 199.822 150.925 200.091 151.262 200.276C151.262 200.276 151.907 200.42 152.214 200.378C153.134 200.253 154.054 200.128 154.974 200.003C158.041 199.586 161.109 199.169 164.483 198.71C167.55 198.293 170.617 197.876 173.992 197.417C175.525 197.208 176.752 197.042 178.286 196.833C180.433 196.541 182.58 196.249 184.42 195.999C186.261 195.749 187.305 196.532 186.201 197.608C186.232 197.835 185.036 198.229 185.711 198.6C186.938 198.433 188.227 198.721 189.454 198.554C190.374 198.429 191.325 198.531 191.57 198.035L192.184 197.951C193.472 198.239 194.668 197.845 195.864 197.451C197.336 196.788 198.87 196.579 200.434 196.598L201.048 196.514C201.048 196.514 201.048 196.514 200.772 196.783L200.159 196.867C200.159 196.867 199.852 196.908 199.883 197.136C199.883 197.136 200.189 197.094 200.496 197.052C201.416 196.927 202.337 196.802 203.195 196.222C204.698 195.787 206.262 195.805 207.796 195.597C208.103 195.555 208.44 195.741 207.858 196.051C207.858 196.051 207.275 196.362 206.999 196.631C206.386 196.714 206.448 197.168 207.092 197.312C207.706 197.229 208.319 197.145 208.718 197.785C208.718 197.785 209.394 198.156 209.639 197.66C210.466 196.853 211.755 197.141 212.706 197.243C213.319 197.16 213.688 197.572 214.301 197.489C216.693 196.701 218.902 196.863 221.08 196.798C221.694 196.715 222.062 197.128 222.676 197.044C223.596 196.919 223.534 196.465 224.117 196.154C224.73 196.071 225.65 195.946 226.264 195.862C229.638 195.403 233.319 194.903 236.662 194.217C238.196 194.008 239.361 193.387 240.987 193.86C241.969 194.189 243.779 193.712 245.281 193.276C246.201 193.151 247.367 192.53 248.042 192.901C249.851 192.423 251.723 192.4 253.256 192.192C253.87 192.108 254.483 192.025 255.035 191.487C256.169 190.639 257.365 190.245 259.236 190.221C260.463 190.055 260.77 190.013 260.647 189.104C260.647 189.104 260.616 188.877 260.585 188.65C260.43 187.514 261.595 186.893 263.712 186.373C265.245 186.165 267.024 185.46 268.619 185.706C269.54 185.581 270.153 185.498 270.736 185.187C273.097 184.172 275.827 183.569 278.404 184.144C279.017 184.061 279.631 183.977 280.244 183.894C280.858 183.811 281.471 183.727 281.778 183.685C282.085 183.644 282.76 184.015 282.76 184.015C282.791 184.242 282.515 184.511 281.932 184.821C279.816 185.34 278.068 186.272 275.615 186.606C274.388 186.773 273.161 186.94 271.996 187.561C271.996 187.561 271.413 187.871 271.444 188.099C271.475 188.326 272.119 188.47 272.426 188.428C274.542 187.909 276.72 187.844 278.867 187.552C280.646 186.847 282.548 187.051 284.082 186.843C284.389 186.801 285.002 186.718 285.033 186.945C285.033 186.945 285.064 187.172 284.45 187.256C283.254 187.65 282.027 187.816 280.831 188.21C277.457 188.669 274.452 189.541 271.078 190C270.464 190.083 269.851 190.166 270.219 190.579C270.25 190.806 271.17 190.681 271.753 190.371C273.287 190.162 274.758 189.499 276.292 189.29C278.439 188.999 280.586 188.707 282.427 188.456C284.574 188.164 286.383 187.687 288.53 187.395C290.371 187.145 290.678 187.103 292.088 185.986C291.474 186.069 290.861 186.152 290.554 186.194C289.634 186.319 288.714 186.444 287.793 186.57C287.487 186.611 286.873 186.695 287.118 186.199C287.118 186.199 287.363 185.703 287.67 185.661C288.59 185.536 289.142 184.998 290.4 185.058C291.933 184.85 293.774 184.599 295.307 184.391C296.227 184.266 297.148 184.141 297.699 183.603C298.006 183.561 298.282 183.292 297.944 183.107C297.944 183.107 297.269 182.736 297.883 182.652C299.723 182.402 301.195 181.739 303.342 181.447C305.489 181.155 307.636 180.863 309.477 180.613C313.096 179.658 317.021 178.661 320.702 178.161C321.622 178.036 322.849 177.869 323.769 177.744C324.996 177.577 324.228 176.524 325.793 176.543C325.762 176.316 325.7 175.862 325.669 175.634C325.638 175.407 324.963 175.036 324.932 174.809C324.901 174.582 325.146 174.086 325.791 174.23C327.355 174.248 328.827 173.585 330.361 173.377C330.729 173.789 329.809 173.915 329.84 174.142C329.933 174.823 329.381 175.361 327.847 175.57C327.541 175.611 327.265 175.88 327.602 176.066C328.247 176.209 328.033 176.933 329.26 176.766C329.566 176.724 329.811 176.228 330.087 175.959C330.394 175.917 331.252 175.338 331.314 175.792C331.376 176.247 331.989 176.163 332.634 176.307C334.015 177.276 333.494 178.041 331.378 178.56C328.617 178.936 325.581 179.58 322.851 180.183C321.624 180.349 321.256 179.937 320.887 179.524C318.985 179.32 317.176 179.797 315.059 180.317C314.753 180.358 314.446 180.4 314.201 180.896C314.201 180.896 314.263 181.35 314.876 181.267C315.183 181.225 315.49 181.184 315.827 181.369C315.827 181.369 316.165 181.555 315.858 181.596C314.417 182.486 315.644 182.32 316.564 182.194C318.712 181.902 320.859 181.61 322.699 181.36C324.233 181.152 325.46 180.985 326.625 180.364C327.79 179.742 329.324 179.534 330.551 179.367C332.391 179.117 333.925 178.908 335.427 178.472C336.93 178.037 338.433 177.601 339.752 178.116C340.059 178.074 340.673 177.991 341.286 177.907C342.696 176.79 344.261 176.808 346.132 176.785C347.266 175.937 348.8 175.728 350.303 175.293C351.223 175.168 351.836 175.084 352.543 175.682C352.543 175.682 353.984 174.792 355.303 175.307C356.285 175.636 356.868 175.326 357.757 174.973C358.309 174.435 358.829 173.67 359.597 174.723L360.518 174.598C360.425 173.916 361.928 173.48 363.155 173.314C367.142 172.771 371.068 171.775 375.179 172.141C375.148 171.914 375.731 171.604 376.006 171.335C376.282 171.066 376.834 170.528 377.478 170.672C379.319 170.421 381.128 169.944 382.999 169.921C385.208 170.083 386.68 169.42 388.121 168.53C388.704 168.22 389.593 167.867 389.869 167.598C390.604 166.11 392.782 166.045 394.653 166.022C395.267 165.939 395.573 165.897 396.187 165.814C399.316 165.851 402.69 165.392 405.85 165.657C406.463 165.573 407.384 165.448 407.69 165.406C409.131 164.516 410.451 165.031 411.678 164.864C413.211 164.656 414.438 164.489 415.972 164.28C416.586 164.197 417.506 164.072 417.905 164.712C416.985 164.837 416.065 164.962 415.145 165.087C413.304 165.337 412.077 165.504 411.281 166.538C410.76 167.303 410.177 167.614 409.319 168.193C408.736 168.504 408.798 168.958 409.473 169.329C409.811 169.514 410.149 169.7 410.517 170.113C410.855 170.298 411.744 169.946 411.744 169.946C411.682 169.491 411.59 168.81 413.216 169.283C413.523 169.241 414.136 169.158 414.75 169.074C415.608 168.495 416.559 168.597 417.51 168.699C418.461 168.801 419.351 168.449 419.565 167.725C419.565 167.725 419.503 167.271 419.472 167.044C419.472 167.044 419.441 166.817 420.054 166.733C420.975 166.608 422.601 167.081 422.049 167.619C421.222 168.426 422.142 168.3 422.755 168.217C424.596 167.967 424.903 167.925 425.423 167.16C425.423 167.16 425.362 166.706 425.331 166.478C425.269 166.024 425.882 165.941 426.803 165.816C429.87 165.398 433.244 164.94 436.404 165.204C437.662 165.264 438.889 165.098 439.778 164.745C440.943 164.124 442.294 164.866 443.428 164.018L444.041 163.934C446.25 164.097 448.397 163.805 450.575 163.74C450.882 163.698 451.496 163.615 451.557 164.069C450.024 164.278 448.552 164.94 446.681 164.964C445.147 165.172 443.306 165.422 441.773 165.631C439.932 165.881 438.092 166.131 436.252 166.382C434.718 166.59 433.123 166.344 431.344 167.049C432.664 167.564 434.166 167.128 435.731 167.147C436.038 167.105 436.651 167.022 436.682 167.249C436.744 167.703 436.13 167.787 435.824 167.828C434.29 168.037 433.063 168.204 432.235 169.01C431.408 169.817 429.874 170.026 428.678 170.42C428.065 170.503 427.758 170.545 427.696 170.09C427.665 169.863 428.248 169.553 427.604 169.409C427.604 169.409 426.99 169.492 426.714 169.761C426.193 170.526 425.304 170.878 423.801 171.314C421.072 171.917 419.048 173.117 415.95 173.307C415.337 173.391 414.723 173.474 414.11 173.558C413.496 173.641 412.883 173.724 412.269 173.808C409.478 173.956 406.441 174.6 403.712 175.203C400.982 175.806 398.19 175.954 395.798 176.742L395.185 176.825C393.958 176.992 393.007 176.89 391.811 177.284C390.339 177.947 389.326 177.391 388.068 177.33C388.068 177.33 388.068 177.33 387.762 177.372C384.725 178.016 381.382 178.702 378.714 179.759C378.101 179.843 377.487 179.926 376.874 180.009C374.42 180.343 371.966 180.677 369.512 181.01C366.445 181.428 363.377 181.845 360.31 182.262C359.39 182.387 358.439 182.285 357.243 182.679C356.384 183.258 355.433 183.156 354.482 183.054C352.58 182.85 350.709 182.873 348.899 183.351C347.397 183.786 346.445 183.684 345.494 183.582C344.85 183.439 343.93 183.564 343.316 183.647C340.587 184.25 337.519 184.667 334.82 185.497C333.594 185.663 332.367 185.83 331.477 186.183C330.864 186.266 330.25 186.349 329.668 186.66C329.668 186.66 330.65 186.989 331.57 186.864C332.183 186.781 332.797 186.697 333.41 186.614C337.705 186.03 341.999 185.446 346.11 185.813C347.705 186.058 349.608 186.262 351.141 186.054C354.822 185.553 358.503 185.053 362.184 184.552C366.478 183.968 370.404 182.972 374.453 182.884C375.373 182.759 376.293 182.634 377.214 182.509C381.201 181.966 384.882 181.466 388.869 180.924C390.71 180.673 392.243 180.465 393.777 180.256C395.924 179.964 398.071 179.672 400.525 179.339C406.353 178.546 412.119 177.299 417.916 176.279C419.757 176.029 421.597 175.779 423.437 175.529C426.842 175.297 429.879 174.653 433.222 173.967C436.841 173.012 440.184 172.326 443.803 171.371C447.729 170.374 451.685 169.605 455.642 168.835C459.599 168.066 463.8 166.801 467.757 166.031C476.835 163.871 485.607 161.753 494.317 159.18C495.237 159.055 496.095 158.475 497.015 158.35C501.892 157.456 506.063 155.963 510.94 155.068C511.553 154.985 512.167 154.902 512.78 154.818C515.51 154.216 517.902 153.428 520.662 153.052C521.276 152.969 522.196 152.844 522.81 152.76C524.312 152.324 525.815 151.889 527.287 151.226C528.79 150.79 530.968 150.725 532.808 150.475C533.728 150.35 534.342 150.266 534.587 149.77C535.383 148.736 536.549 148.115 539.064 148.236C540.322 148.296 541.518 147.902 542.714 147.508C543.941 147.341 544.799 146.762 546.088 147.049C547.346 147.11 548.542 146.716 549.738 146.322C550.903 145.7 552.713 145.223 554.553 144.973C557.007 144.639 559.461 144.305 561.884 143.745C562.804 143.619 564.031 143.453 564.951 143.327C567.405 142.994 570.289 143.527 572.619 142.285C572.619 142.285 573.233 142.201 573.846 142.118C579.061 141.409 584.182 140.018 589.642 138.813C591.39 137.881 593.843 137.547 595.96 137.028C600.192 135.99 604.394 134.724 607.582 132.903C609.33 131.971 611.078 131.039 612.826 130.107C615.738 128.554 618.651 127.001 619.6 124.789C619.6 124.789 619.876 124.521 620.152 124.252C622.052 122.142 622.725 120.2 622.171 118.424C622.078 117.742 621.985 117.061 621.893 116.379C621.769 115.47 621.063 114.872 619.743 114.358C619.099 114.214 618.455 114.07 618.086 113.657C616.674 112.461 614.372 111.617 612.378 110.731C612.071 110.773 611.396 110.402 611.365 110.175C611.272 109.493 610.29 109.164 609.615 108.793C607.865 107.411 605.656 107.249 602.619 107.893C601.699 108.018 601.393 108.06 601.607 107.337C601.545 106.883 602.403 106.303 601.452 106.201C600.47 105.872 599.212 105.811 598.047 106.433C597.434 106.516 597.189 107.012 596.575 107.096L595.655 107.221C595.042 107.304 595.287 106.808 595.562 106.539C595.807 106.043 597.034 105.876 597.586 105.338C596.911 104.967 596.052 105.547 595.377 105.176C594.764 105.259 594.702 104.805 595.284 104.494C596.756 103.831 597.553 102.798 599.731 102.733C600.958 102.566 601.479 101.801 602.03 101.263C602.306 100.994 601.938 100.582 601.6 100.396C600.618 100.067 601.17 99.5292 601.721 98.9914C602.856 98.1429 604.327 97.48 606.137 97.0026C607.364 96.8357 608.253 96.4834 609.449 96.0894C610.369 95.9643 610.952 95.6536 610.553 95.0138C610.184 94.6011 610.429 94.105 611.318 93.7527C613.097 93.0481 614.937 92.7978 617.115 92.733C618.036 92.6079 619.018 92.9372 620.183 92.3159C620.796 92.2325 621.072 91.9636 621.348 91.6947C621.317 91.4675 620.979 91.2821 620.366 91.3655C618.832 91.574 617.605 91.7409 616.01 91.4951C615.703 91.5368 615.09 91.6202 615.028 91.1658C614.966 90.7114 614.873 90.0299 614.812 89.5755C614.781 89.3483 615.056 89.0794 615.639 88.7688C618.338 87.939 620.761 87.3782 623.521 87.0028C623.828 86.9611 624.81 87.2903 624.81 87.2903C625.944 86.4419 627.816 86.4188 629.012 86.0248C629.625 85.9414 629.563 85.487 628.888 85.1161C628.888 85.1161 628.275 85.1995 627.937 85.014C627.324 85.0974 627.568 84.6013 627.844 84.3324C629.04 83.9384 630.298 83.9988 631.218 83.8736C632.445 83.7068 633.335 83.3545 633.242 82.6729C633.18 82.2185 633.763 81.9079 634.99 81.7411C636.523 81.5325 637.719 81.1385 638.915 80.7445C640.418 80.3087 641.583 79.6875 643.21 80.1605C644.161 80.2626 645.357 79.8686 646.277 79.7434C647.473 79.3494 648.7 79.1826 649.958 79.2429C650.571 79.1595 651.185 79.0761 651.154 78.8489C651.154 78.8489 651.092 78.3945 650.785 78.4362C649.558 78.6031 649.19 78.1904 648.79 77.5505C648.729 77.0962 648.177 77.634 647.563 77.7174C646.122 78.6075 646.122 78.6075 645.416 78.0094C645.048 77.5967 643.79 77.5363 643.697 76.8548C644.525 76.0481 645.997 75.3852 647.499 74.9494C649.892 74.1614 651.67 73.4567 654.124 73.123C654.737 73.0396 655.351 72.9562 655.933 72.6456C657.068 71.7972 658.509 70.9071 658.354 69.7711C658.2 68.6352 659.089 68.2829 661.236 67.9909C661.85 67.9075 662.156 67.8658 662.77 67.7824C663.352 67.4718 662.677 67.1008 662.646 66.8736L662.829 65.9232ZM608.719 37.879C608.719 37.879 609.332 37.7955 609.639 37.7538L609.67 37.981C609.363 38.0227 609.056 38.0644 608.75 38.1061C608.75 38.1061 608.688 37.6518 608.995 37.6101L608.719 37.879ZM603.383 39.9929C603.383 39.9929 603.383 39.9929 603.414 40.2201C603.445 40.4472 603.476 40.6744 602.862 40.7578C602.556 40.7996 602.249 40.8413 602.187 40.3869C602.156 40.1597 602.432 39.8908 603.045 39.8074L603.383 39.9929ZM601.006 56.976C601.006 56.976 601.865 56.3965 602.509 56.5402C603.123 56.4568 603.491 56.8695 603.215 57.1384C603.246 57.3656 602.664 57.6762 602.388 57.9451C602.388 57.9451 601.805 58.2557 601.468 58.0702C601.468 58.0702 601.13 57.8847 600.792 57.6992C600.792 57.6992 600.792 57.6992 600.761 57.4721C600.761 57.4721 600.7 57.0177 600.976 56.7488L601.006 56.976ZM587.982 39.3104C587.982 39.3104 588.289 39.2687 588.596 39.227C588.596 39.227 588.658 39.6814 588.044 39.7648C588.044 39.7648 587.738 39.8065 587.431 39.8482C587.431 39.8482 587.369 39.3939 587.982 39.3104ZM583.688 39.8944C583.688 39.8944 584.302 39.811 584.608 39.7692L585.222 39.6858C585.253 39.913 585.253 39.913 584.67 40.2236C584.67 40.2236 584.67 40.2236 584.364 40.2653C584.057 40.307 583.781 40.5759 583.443 40.3905C583.443 40.3905 583.137 40.4322 583.106 40.205C583.075 39.9778 583.382 39.9361 583.995 39.8527L583.688 39.8944ZM583.004 62.432C583.004 62.432 583.618 62.3486 583.924 62.3069L583.955 62.5341C583.649 62.5758 583.035 62.6592 583.035 62.6592C582.728 62.7009 582.973 62.2048 582.973 62.2048L583.004 62.432ZM577.977 34.6549C577.977 34.6549 577.977 34.6549 578.284 34.6132C578.928 34.7569 578.653 35.0258 578.408 35.5219C578.408 35.5219 578.408 35.5219 578.439 35.7491C578.439 35.7491 578.439 35.7491 578.101 35.5636C578.07 35.3364 577.395 34.9655 577.977 34.6549ZM574.756 33.9361C574.756 33.9361 575.676 33.8109 576.289 33.7275C576.596 33.6858 576.382 34.4091 575.462 34.5342C574.848 34.6176 573.928 34.7427 572.701 34.9096C572.701 34.9096 572.394 34.9513 572.088 34.993L572.057 34.7658C572.608 34.228 573.835 34.0612 574.756 33.9361ZM574.853 39.2448C574.853 39.2448 574.853 39.2448 574.883 39.472C574.883 39.472 574.914 39.6991 574.608 39.7409C573.688 39.866 572.461 40.0328 571.54 40.158C569.669 40.181 567.798 40.2041 565.988 40.6816C565.375 40.765 565.068 40.8067 565.006 40.3523C565.006 40.3523 565.282 40.0834 565.865 39.7728C566.171 39.7311 566.478 39.6894 567.705 39.5226C569.546 39.2723 572.368 39.3513 574.853 39.2448ZM567.732 35.1226C567.732 35.1226 569.665 35.5539 570.309 35.6976C570.309 35.6976 570.984 36.0686 570.678 36.1103C570.708 36.3375 569.757 36.2354 569.451 36.2772C567.886 36.2585 566.597 35.971 565.064 36.1795C564.45 36.263 564.419 36.0358 564.082 35.8503C564.909 35.0436 566.443 34.835 567.701 34.8954L567.732 35.1226ZM564.113 36.0775C564.113 36.0775 563.592 36.8425 563.009 37.1531C562.733 37.422 562.089 37.2782 561.782 37.3199C561.476 37.3616 561.107 36.949 561.69 36.6384C562.548 36.0588 563.161 35.9754 564.143 36.3047L564.113 36.0775ZM559.198 29.8041C559.198 29.8041 560.149 29.9062 560.487 30.0916C560.794 30.0499 561.131 30.2354 560.549 30.546C560.242 30.5877 559.629 30.6711 559.322 30.7129C558.678 30.5691 559.229 30.0313 559.198 29.8041ZM552.64 36.712C554.48 36.4618 556.321 36.2115 558.499 36.1467C557.947 36.6845 557.671 36.9534 557.395 37.2223C556.813 37.5329 556.23 37.8435 555.555 37.4726C554.88 37.1016 554.266 37.185 553.715 37.7228C553.101 37.8062 552.794 37.848 552.457 37.6625C552.457 37.6625 552.426 37.4353 552.395 37.2081C552.395 37.2081 552.702 37.1664 553.008 37.1247L552.64 36.712ZM546.688 4.43286C548.529 4.1826 550.4 4.15952 551.965 4.17815C552.271 4.13645 552.609 4.32191 553.253 4.46568C552.333 4.59081 551.444 4.94313 550.493 4.84108C548.652 5.09134 546.781 5.11442 545.217 5.09578C546.075 4.51627 546.351 4.24738 546.964 4.16396L546.688 4.43286ZM535.214 2.75381C535.214 2.75381 535.214 2.75381 535.245 2.981C535.245 2.981 535.245 2.981 534.938 3.02271C534.938 3.02271 534.876 2.56833 534.538 2.38286C534.845 2.34115 535.459 2.25772 535.52 2.7121L535.214 2.75381ZM529.613 16.7045C529.613 16.7045 530.84 16.5377 531.208 16.9503C531.27 17.4047 532.528 17.465 532.283 17.9611C530.78 18.3969 530.381 17.757 529.123 17.6967C528.203 17.8218 527.221 17.4926 526.669 18.0304C526.118 18.5682 525.811 18.6099 524.829 18.2806C524.154 17.9097 523.571 18.2203 522.62 18.1182C522.006 18.2016 521.086 18.3268 520.104 17.9975C523.447 17.3115 526.208 16.9361 529.306 16.7462L529.613 16.7045ZM503.976 25.7441C503.976 25.7441 503.424 26.2819 503.117 26.3236C502.81 26.3653 502.197 26.4487 502.473 26.1798C502.473 26.1798 503.055 25.8692 503.362 25.8275C503.669 25.7858 504.282 25.7024 504.282 25.7024L503.976 25.7441ZM501.367 24.9418C501.367 24.9418 501.981 24.8584 502.287 24.8167C502.594 24.775 502.901 24.7333 503.208 24.6916L503.238 24.9188C502.656 25.2294 501.736 25.3545 501.091 25.2107L501.06 24.9836L501.367 24.9418ZM496.369 27.2412C496.369 27.2412 497.596 27.0744 497.903 27.0327C498.209 26.991 498.516 26.9493 498.516 26.9493C498.516 26.9493 498.823 26.9075 499.13 26.8658C498.547 27.1764 497.658 27.5288 496.738 27.6539C496.738 27.6539 496.124 27.7373 496.093 27.5101C496.093 27.5101 496.062 27.2829 496.369 27.2412ZM125.702 65.1508C125.702 65.1508 124.782 65.2759 124.72 64.8215C124.72 64.8215 124.72 64.8215 124.689 64.5943C124.996 64.5526 125.334 64.7381 125.671 64.9236C125.671 64.9236 125.671 64.9236 125.396 65.1925L125.702 65.1508ZM77.4395 121.462C77.4395 121.462 77.1327 121.504 77.4086 121.235C77.3777 121.008 77.9602 120.697 78.5737 120.614C78.8804 120.572 79.1872 120.53 79.249 120.985C79.249 120.985 78.3597 121.337 77.7153 121.193L77.4395 121.462ZM83.1725 117.674L82.8658 117.716C82.559 117.758 82.804 117.262 82.804 117.262C83.1107 117.22 83.3556 116.724 84.0309 117.095C84.0309 117.095 84.3994 117.508 84.0927 117.549C84.0927 117.549 83.4792 117.633 83.1725 117.674ZM97.5337 122.2C97.5337 122.2 96.9202 122.284 96.3068 122.367C96.3068 122.367 95.6933 122.451 95.6624 122.224C95.6315 121.996 95.9383 121.955 96.2141 121.686C96.8276 121.602 97.1343 121.561 97.4719 121.746C97.4719 121.746 97.5028 121.973 97.1961 122.015L97.5337 122.2ZM94.3274 137.677C94.3274 137.677 93.6521 137.306 93.6212 137.079C93.6212 137.079 93.5594 136.624 93.8662 136.582L94.4796 136.499C94.7864 136.457 94.8172 136.685 94.5414 136.953C94.5414 136.953 93.9897 137.491 94.0206 137.718L94.3274 137.677ZM104.295 135.164C104.295 135.164 101.841 135.498 100.614 135.665C100.614 135.665 100.614 135.665 100.583 135.438C101.81 135.271 103.313 134.835 104.54 134.668L105.153 134.585C105.184 134.812 104.878 134.854 104.571 134.895L104.295 135.164ZM109.724 101.569C109.724 101.569 111.747 100.368 113.343 100.614C113.404 101.069 111.35 102.042 109.816 102.251C109.816 102.251 109.816 102.251 109.203 102.334C109.203 102.334 108.589 102.417 107.945 102.274L107.914 102.046C108.528 101.963 109.11 101.652 109.724 101.569ZM98.7717 101.439C98.7717 101.439 99.3852 101.355 99.7228 101.541C99.7228 101.541 99.4778 102.037 99.1711 102.078C98.8644 102.12 98.2509 102.204 98.22 101.976C98.22 101.976 98.465 101.48 99.0784 101.397L98.7717 101.439ZM68.4074 107.881C68.4074 107.881 68.4074 107.881 68.1007 107.923C68.1007 107.923 67.7631 107.738 67.4255 107.552C67.4255 107.552 67.3946 107.325 67.3637 107.098C67.9771 107.014 67.9771 107.014 68.008 107.242C68.008 107.242 68.0389 107.469 68.0698 107.696L68.4074 107.881ZM79.7256 106.111C77.2718 106.445 74.573 107.274 72.1191 107.608C70.8922 107.775 70.2169 107.404 70.7377 106.639C70.7068 106.412 71.2894 106.101 71.2585 105.874C71.2276 105.647 70.8591 105.234 70.2456 105.318C69.6322 105.401 69.0187 105.484 68.4052 105.568C66.5648 105.818 65.0312 106.027 62.7914 105.637C65.5211 105.035 67.2997 104.33 69.5086 104.492C70.4288 104.367 71.349 104.242 72.2692 104.117C73.4961 103.95 74.1096 103.867 74.6304 103.102C74.9062 102.833 75.8264 102.708 76.4707 102.851C77.1151 102.995 77.146 103.222 76.5943 103.76C76.5943 103.76 75.705 104.112 75.7359 104.34C75.7977 104.794 75.8595 105.248 76.228 105.661C76.8724 105.805 77.8235 105.907 78.6819 105.327C79.2953 105.244 79.5403 104.748 80.1537 104.664L80.4605 104.623C80.4605 104.623 80.7981 104.808 80.4914 104.85C80.2464 105.346 80.0015 105.842 79.1122 106.194L79.7256 106.111ZM79.8801 107.247C79.8801 107.247 79.8183 106.793 80.4318 106.709C80.7385 106.667 81.352 106.584 81.6587 106.542C81.352 106.584 80.7694 106.895 80.4627 106.936L79.8492 107.02L79.8801 107.247ZM92.2443 108.574C92.2443 108.574 91.9375 108.615 91.6308 108.657C91.3241 108.699 91.0173 108.741 90.4039 108.824L89.7904 108.907L89.7595 108.68C90.373 108.597 90.9864 108.513 91.5999 108.43C91.5999 108.43 91.9066 108.388 92.2134 108.346C92.2134 108.346 92.2134 108.346 91.9375 108.615L92.2443 108.574ZM93.5617 106.775C93.5617 106.775 92.9482 106.858 92.3347 106.942L91.7213 107.025C91.6904 106.798 91.6904 106.798 92.3038 106.714C92.6106 106.673 93.224 106.589 93.5308 106.548C93.5308 106.548 93.5308 106.548 93.8375 106.506C93.8375 106.506 93.8375 106.506 93.8684 106.733L93.5617 106.775ZM99.4844 108.977C99.4844 108.977 99.4844 108.977 99.1468 108.792C99.4536 108.75 99.7603 108.709 100.067 108.667L100.68 108.583C100.711 108.811 100.098 108.894 99.4844 108.977ZM100.771 106.951C100.771 106.951 99.8508 107.077 99.5131 106.891C99.5131 106.891 99.4822 106.664 99.789 106.622C100.096 106.58 100.402 106.539 100.709 106.497L100.771 106.951ZM90.6157 105.787C90.6157 105.787 87.8551 106.162 87.149 105.564C86.4428 104.966 85.5535 105.319 84.3266 105.485C84.3266 105.485 83.7131 105.569 83.744 105.796C83.744 105.796 83.7749 106.023 84.0817 105.981L84.6951 105.898C85.0019 105.856 85.3395 106.042 85.3704 106.269C85.3704 106.269 84.7878 106.58 84.512 106.848C84.2052 106.89 83.5918 106.974 83.285 107.015C82.6716 107.099 82.0581 107.182 81.4138 107.038C81.352 106.584 81.2902 106.13 81.8728 105.819C82.7312 105.24 83.3137 104.929 84.5407 104.762C87.3012 104.387 90.0309 103.784 92.4539 103.223C93.3741 103.098 93.3741 103.098 93.8044 103.965C94.1111 103.923 94.4179 103.882 94.7246 103.84C97.1785 103.506 99.6323 103.173 102.024 102.385C102.638 102.301 102.945 102.259 103.251 102.218C103.589 102.403 103.375 103.127 103.406 103.354C102.547 103.933 101.565 103.604 100.707 104.183C97.0262 104.684 93.3454 105.185 89.9714 105.643L90.6157 105.787ZM114.327 103.257C114.327 103.257 113.407 103.382 112.793 103.466C111.873 103.591 110.953 103.716 110.033 103.841C109.419 103.924 108.806 104.008 108.867 104.462C108.929 104.916 109.512 104.606 110.125 104.522C111.352 104.356 112.579 104.189 113.499 104.064C113.499 104.064 113.806 104.022 114.144 104.207C114.144 104.207 114.174 104.435 113.868 104.476C112.027 104.727 109.88 105.019 108.071 105.496C107.457 105.579 106.537 105.705 106.475 105.25C106.383 104.569 105.432 104.467 104.235 104.861C104.235 104.861 103.622 104.944 103.315 104.986C101.475 105.236 101.475 105.236 101.32 104.1C102.609 104.388 103.836 104.221 105.37 104.012C108.13 103.637 111.167 102.992 113.896 102.39L114.51 102.306C114.51 102.306 114.572 102.761 114.265 102.803L114.327 103.257ZM117.458 105.608C117.458 105.608 116.262 106.002 115.311 105.9C115.311 105.9 115.004 105.941 114.973 105.714C114.973 105.714 114.942 105.487 115.249 105.445C115.863 105.362 116.783 105.237 117.396 105.153L117.458 105.608ZM131.199 103.276C131.199 103.276 130.341 103.856 129.758 104.167L128.838 104.292C126.291 103.944 123.899 104.732 121.139 105.107C120.219 105.232 119.605 105.316 119.513 104.634C119.42 103.953 118.775 103.809 117.549 103.976C117.549 103.976 117.242 104.017 116.904 103.832C116.904 103.832 116.842 103.378 117.456 103.294C118.652 102.9 119.296 103.044 119.971 103.415C120.309 103.6 120.647 103.786 121.26 103.702C121.198 103.248 121.137 102.794 122.333 102.4C123.253 102.275 124.756 101.839 125.4 101.983C126.75 102.724 128.284 102.516 130.125 102.266C130.431 102.224 131.045 102.141 131.076 102.368L131.199 103.276ZM129.97 197.618C129.97 197.618 128.743 197.785 127.823 197.91C128.436 197.827 129.357 197.702 129.939 197.391C129.939 197.391 130.246 197.35 130.553 197.308C130.553 197.308 130.246 197.35 129.939 197.391L129.97 197.618ZM173.546 51.7032C173.546 51.7032 173.546 51.7032 173.884 51.8887C173.884 51.8887 173.577 51.9304 173.27 51.9721L172.657 52.0555C172.626 51.8283 172.932 51.7866 173.239 51.7449L173.546 51.7032ZM167.696 61.5228C167.696 61.5228 166.623 62.8256 164.476 63.1176C164.17 63.1593 163.556 63.2427 162.943 63.3261C161.102 63.5764 159.262 63.8267 157.759 64.2624C156.287 64.9253 154.723 64.9067 153.71 64.3503C153.372 64.1648 152.728 64.021 152.083 63.8773C152.083 63.8773 151.715 63.4646 152.022 63.4229C152.022 63.4229 152.328 63.3812 152.635 63.3395C152.942 63.2978 153.555 63.2143 153.862 63.1726C154.476 63.0892 154.875 63.7291 155.458 63.4184C156.04 63.1078 156.347 63.0661 156.96 62.9827C157.574 62.8993 158.187 62.8159 158.801 62.7324C160.948 62.4405 162.788 62.1902 164.904 61.6711C165.825 61.5459 166.438 61.4625 167.358 61.3374C167.972 61.2539 168.309 61.4394 168.034 61.7083L167.696 61.5228ZM165.03 64.8934C164.11 65.0185 162.576 65.2271 161.901 64.8561C161.226 64.4852 163.986 64.1098 165.275 64.3973L165.03 64.8934ZM159.509 65.6442C157.975 65.8527 157.055 65.9778 155.859 66.3719C155.246 66.4553 154.939 66.497 154.57 66.0843C155.766 65.6903 157.269 65.2546 159.171 65.4587L159.509 65.6442ZM159.07 55.5228C159.07 55.5228 160.604 55.3143 160.696 55.9958C160.727 56.223 160.758 56.4502 159.838 56.5753C159.224 56.6587 157.936 56.3712 157.874 55.9168C157.843 55.6897 158.426 55.379 158.732 55.3373L159.07 55.5228ZM152.324 58.754C156.618 58.1701 160.913 57.5861 165.238 57.2294C163.459 57.934 161.312 58.226 159.165 58.518C156.711 58.8516 153.95 59.227 151.497 59.5607C150.576 59.6858 149.349 59.8527 148.643 59.2545C149.87 59.0877 151.066 58.6937 152.293 58.5268L152.324 58.754ZM146.194 64.2154C146.194 64.2154 148.341 63.9234 148.985 64.0672C148.985 64.0672 149.63 64.2109 149.047 64.5216C149.047 64.5216 148.74 64.5633 148.434 64.605C148.434 64.605 148.434 64.605 148.127 64.6467C146.593 64.8552 145.642 64.7532 145.58 64.2988C145.58 64.2988 145.549 64.0716 145.856 64.0299L146.194 64.2154ZM146.534 66.7144C149.294 66.339 152.055 65.9637 154.57 66.0843C153.344 66.2512 151.81 66.4597 150.614 66.8538C149.08 67.0623 147.853 67.2292 146.595 67.1688C146.595 67.1688 146.289 67.2105 146.258 66.9833C146.258 66.9833 146.227 66.7562 146.534 66.7144ZM141.617 58.1275L142.537 58.0024C142.568 58.2295 142.292 58.4984 141.679 58.5819L141.065 58.6653C141.065 58.6653 141.004 58.2109 141.617 58.1275ZM139.41 60.2787C139.41 60.2787 140.331 60.1535 140.637 60.1118C142.171 59.9033 143.367 59.5092 144.625 59.5696C144.625 59.5696 144.932 59.5279 145.269 59.7134L145.3 59.9405C143.215 60.6869 141.313 60.4828 139.41 60.2787C139.41 60.2787 139.379 60.0515 140.024 60.1953L139.41 60.2787ZM144.078 64.7345C144.078 64.7345 144.108 64.9617 143.526 65.2723C143.526 65.2723 142.912 65.3558 142.882 65.1286C142.882 65.1286 142.851 64.9014 143.433 64.5908C143.74 64.5491 144.047 64.5074 144.384 64.6928L144.078 64.7345ZM136.683 63.1948C136.683 63.1948 137.91 63.028 138.523 62.9446L139.137 62.8611C139.168 63.0883 138.861 63.13 138.554 63.1718C137.941 63.2552 137.327 63.3386 136.714 63.422C136.714 63.422 136.714 63.422 136.683 63.1948ZM140.432 102.252L139.819 102.336C139.512 102.377 138.898 102.461 139.174 102.192C139.174 102.192 139.45 101.923 139.726 101.654C140.033 101.612 140.646 101.529 140.646 101.529L140.708 101.983L140.432 102.252ZM144.369 80.6607C144.369 80.6607 144.676 80.619 144.706 80.8462C144.706 80.8462 144.706 80.8462 144.124 81.1568C142.345 81.8614 140.75 81.6156 138.234 81.4949C140.964 80.8923 142.467 80.4566 144.369 80.6607ZM154.409 154.496C154.409 154.496 154.471 154.951 153.858 155.034L153.244 155.118C153.244 155.118 153.182 154.663 153.796 154.58L154.409 154.496ZM149.81 157.436C149.81 157.436 150.638 156.629 151.221 156.318C151.221 156.318 151.834 156.235 152.141 156.193C152.141 156.193 152.509 156.606 152.203 156.648C152.203 156.648 151.62 156.958 151.313 157C150.7 157.083 150.086 157.167 149.473 157.25L149.81 157.436ZM157.549 198.265C157.549 198.265 157.243 198.306 156.905 198.121C156.905 198.121 157.181 197.852 157.488 197.81C158.714 197.643 159.941 197.476 161.199 197.537C159.972 197.704 158.745 197.87 157.518 198.037L157.549 198.265ZM190.895 197.664C191.784 197.311 193.011 197.145 194.269 197.205C193.073 197.599 191.846 197.766 190.895 197.664ZM178.162 67.2726C178.162 67.2726 176.69 67.9355 175.464 68.1024C175.464 68.1024 174.85 68.1858 174.543 68.2275C172.334 68.0651 170.218 68.5843 168.071 68.8762C167.151 69.0014 165.924 69.1682 165.004 69.2933C162.243 69.6687 159.421 69.5898 156.353 70.0069C155.74 70.0903 155.127 70.1737 154.513 70.2571C153.593 70.3823 152.642 70.2802 151.415 70.447C148.654 70.8224 145.832 70.7435 143.04 70.8917C143.04 70.8917 142.734 70.9334 142.703 70.7062C142.672 70.479 142.672 70.479 142.979 70.4373C143.899 70.3122 144.788 69.9598 145.739 70.0619C146.659 69.9368 147.61 70.0388 148.531 69.9137C152.15 68.9588 155.892 68.9126 159.573 68.4121C162.64 67.995 165.769 68.0323 168.775 67.1608C168.775 67.1608 168.775 67.1608 169.082 67.1191C171.904 67.1981 174.665 66.8227 177.394 66.2201C178.008 66.1367 178.345 66.3222 178.376 66.5493C178.376 66.5493 178.438 67.0037 178.131 67.0454L178.162 67.2726ZM174.195 56.4741C172.661 56.6827 170.821 56.933 169.287 57.1415C168.673 57.2249 168.305 56.8123 168.581 56.5434C169.132 56.0056 170.298 55.3844 169.561 54.559C169.561 54.559 169.836 54.2901 170.112 54.0212C170.726 53.9378 171.032 53.8961 171.646 53.8127C175.327 53.3122 178.701 52.8533 182.351 52.1256C183.271 52.0005 184.191 51.8754 185.111 51.7502C186.031 51.6251 186.676 51.7689 186.738 52.2232C186.799 52.6776 186.186 52.761 185.603 53.0716C184.99 53.1551 184.376 53.2385 183.763 53.3219C183.149 53.4053 182.843 53.447 182.905 53.9014C182.997 54.583 181.77 54.7498 180.85 54.875C178.703 55.1669 176.556 55.4589 174.409 55.7509L174.195 56.4741ZM188.684 66.536C188.684 66.536 187.457 66.7029 186.843 66.7863C185.034 67.2637 183.469 67.2451 181.567 67.041C181.567 67.041 181.567 67.041 181.536 66.8138C181.536 66.8138 181.505 66.5866 181.812 66.5449C183.928 66.0257 186.045 65.5066 188.254 65.669C188.56 65.6273 188.867 65.5856 189.205 65.771C189.818 65.6876 189.88 66.142 189.604 66.4109C189.635 66.6381 189.052 66.9487 188.439 67.0321L188.684 66.536ZM189.11 62.7759C189.11 62.7759 188.496 62.8593 188.465 62.6321C188.465 62.6321 188.741 62.3632 189.386 62.507L189.999 62.4236C189.999 62.4236 190.03 62.6508 189.416 62.7342L189.11 62.7759ZM187.967 54.37L187.353 54.4534C187.322 54.2262 187.629 54.1845 187.936 54.1428C188.243 54.1011 188.856 54.0177 188.856 54.0177C188.856 54.0177 188.243 54.1011 187.967 54.37ZM233.637 45.6144L234.25 45.5309C234.25 45.5309 234.25 45.5309 233.943 45.5727C233.943 45.5727 233.943 45.5727 233.606 45.3872L233.637 45.6144ZM224.68 46.3696C224.68 46.3696 225.293 46.2862 225.6 46.2445L226.213 46.161C226.52 46.1193 226.765 45.6232 227.44 45.9942C227.778 46.1797 228.115 46.3652 229.036 46.24C229.036 46.24 229.342 46.1983 229.649 46.1566C229.649 46.1566 229.649 46.1566 229.067 46.4672C228.453 46.5506 228.146 46.5923 227.84 46.6341C226.919 46.7592 225.999 46.8843 225.386 46.9677C224.772 47.0512 224.159 47.1346 224.404 46.6385C224.373 46.4113 224.649 46.1424 224.925 45.8735L224.68 46.3696ZM213.024 47.9546C213.024 47.9546 216.091 47.5375 217.104 48.0939C217.104 48.0939 216.797 48.1356 216.491 48.1773C215.264 48.3442 214.282 48.0149 213.086 48.409C213.086 48.409 213.086 48.409 212.441 48.2652C212.441 48.2652 212.379 47.8108 212.993 47.7274L213.024 47.9546ZM207.196 48.7471C207.196 48.7471 207.503 48.7054 207.84 48.8909C207.84 48.8909 207.871 49.118 207.564 49.1598C205.203 50.175 202.719 50.2815 199.834 49.7481C202.902 49.331 205.049 49.0391 207.503 48.7054L207.196 48.7471ZM202.26 51.5008C202.26 51.5008 203.486 51.334 203.855 51.7467C203.855 51.7467 203.027 52.5534 202.414 52.6368C201.801 52.7202 201.187 52.8036 200.574 52.887C200.267 52.9288 199.929 52.7433 199.898 52.5161C199.898 52.5161 200.174 52.2472 200.788 52.1638L202.015 51.9969L202.26 51.5008ZM189.253 52.3439C189.253 52.3439 190.357 51.2683 191.246 50.916C191.553 50.8743 191.859 50.8326 192.473 50.7492C193.393 50.6241 194.62 50.4572 195.54 50.3321C196.46 50.207 197.442 50.5362 197.473 50.7634C197.228 51.2595 196.584 51.1157 195.97 51.1991C195.05 51.3243 194.13 51.4494 193.578 51.9872C192.996 52.2978 193.702 52.8959 192.475 53.0628C191.555 53.1879 191.8 52.6918 191.155 52.548C190.849 52.5898 189.928 52.7149 189.56 52.3022L189.253 52.3439ZM192.632 56.5123C192.632 56.5123 192.632 56.5123 192.356 56.7812C192.049 56.8229 191.742 56.8646 191.711 56.6374C191.711 56.6374 191.711 56.6374 191.987 56.3685C191.987 56.3685 192.632 56.5123 192.663 56.7395L192.632 56.5123ZM211.693 196.687C211.693 196.687 211.08 196.77 211.355 196.501C211.355 196.501 211.631 196.232 212.245 196.149C212.245 196.149 212.551 196.107 212.582 196.334C212.582 196.334 212.306 196.603 211.693 196.687ZM193.806 65.1454C193.806 65.1454 193.192 65.2288 192.855 65.0433L192.793 64.5889C192.793 64.5889 192.793 64.5889 193.375 64.2783L193.989 64.1949C196.749 63.8195 199.51 63.4441 201.964 63.1105C203.804 62.8602 204.755 62.9622 206.075 63.477C206.106 63.7042 205.83 63.973 205.216 64.0565C204.296 64.1816 203.683 64.265 203.069 64.3484C201.781 64.0609 200.554 64.2277 199.389 64.849C197.886 65.2847 196.015 65.3078 194.481 65.5163L193.806 65.1454ZM223.318 194.874C220.926 195.662 218.227 196.492 215.405 196.413L214.791 196.497L214.729 196.042C215.281 195.504 216.17 195.152 217.397 194.985C218.011 194.902 218.624 194.818 219.544 194.693C220.465 194.568 221.661 194.174 222.919 194.235C222.919 194.235 223.225 194.193 223.563 194.378L223.594 194.605L223.318 194.874ZM205.431 63.3332C205.431 63.3332 205.951 62.5682 206.872 62.4431C207.485 62.3597 208.098 62.2762 208.712 62.1928C210.276 62.2115 211.503 62.0446 212.699 61.6506C213.589 61.2983 214.171 60.9877 215.091 60.8625C216.012 60.7374 216.994 61.0666 217.055 61.521C217.117 61.9754 216.566 62.5132 215.645 62.6383C211.965 63.1388 208.315 63.8666 204.817 63.4166L205.431 63.3332ZM236.293 193.804C236.293 193.804 233.87 194.365 232.674 194.759C229.976 195.589 227.705 194.972 225.189 194.851L225.127 194.397C225.127 194.397 225.372 193.901 226.017 194.045C227.581 194.063 228.777 193.669 229.698 193.544C232.151 193.21 234.299 192.918 236.139 192.668C236.752 192.585 237.059 192.543 237.121 192.997C237.152 193.225 237.183 193.452 236.6 193.762L236.293 193.804ZM218.302 50.0135C218.302 50.0135 216.769 50.222 215.848 50.3471C213.701 50.6391 211.523 50.7039 209.407 51.2231C208.487 51.3482 207.567 51.4733 206.646 51.5985C206.34 51.6402 206.033 51.6819 206.309 51.413C206.309 51.413 206.585 51.1441 206.891 51.1024C207.812 50.9772 208.732 50.8521 209.652 50.727C212.719 50.3099 215.48 49.9345 218.547 49.5174C218.854 49.4757 219.161 49.434 219.498 49.6194C219.498 49.6194 218.947 50.1572 218.64 50.1989L218.302 50.0135ZM248.808 191.64C245.74 192.057 242.98 192.432 239.912 192.849C239.606 192.891 239.299 192.933 238.685 193.016C238.685 193.016 238.655 192.789 238.624 192.562C239.206 192.251 239.82 192.168 240.433 192.084C241.353 191.959 242.58 191.792 242.887 191.751C245.034 191.459 246.844 190.981 248.408 191C249.022 190.916 249.328 190.875 249.39 191.329C249.421 191.556 249.145 191.825 248.532 191.909L248.808 191.64ZM233.884 47.4319C232.35 47.6404 230.51 47.8907 228.976 48.0992C228.976 48.0992 226.522 48.4329 224.989 48.6415C224.375 48.7249 223.148 48.8917 223.086 48.4374C223.025 47.983 224.282 48.0433 224.896 47.9599C226.43 47.7513 227.656 47.5845 229.19 47.376C230.724 47.1674 231.951 47.0006 233.453 46.5648C233.76 46.5231 234.374 46.4397 234.405 46.6669C234.405 46.6669 234.466 47.1213 233.853 47.2047L233.884 47.4319ZM245.138 42.8934C245.138 42.8934 246.058 42.7683 246.365 42.7266C246.703 42.9121 246.733 43.1393 246.458 43.4081C245.844 43.4916 245.599 43.9877 244.648 43.8856L244.035 43.969C244.035 43.969 244.004 43.7418 243.973 43.5147C244.28 43.4729 244.525 42.9769 245.138 42.8934ZM248.883 45.1609C247.349 45.3694 245.815 45.578 244.282 45.7865C242.748 45.9951 241.521 46.1619 239.988 46.3705L239.374 46.4539L239.343 46.2267C242.41 45.8096 245.447 45.1653 248.545 44.9754L249.159 44.892C249.19 45.1191 249.22 45.3463 248.607 45.4298L248.883 45.1609ZM275.716 35.7272L275.103 35.8107C273.876 35.9775 272.956 36.1026 271.115 36.3529C272.689 35.6761 274.305 35.3022 275.961 35.2312L275.716 35.7272ZM260.441 38.2671C260.441 38.2671 259.828 38.3506 259.797 38.1234C259.797 38.1234 260.104 38.0817 260.411 38.04C260.717 37.9983 261.024 37.9565 261.055 38.1837C261.055 38.1837 260.748 38.2254 260.441 38.2671ZM294.14 182.699C294.14 182.699 290.428 182.972 290.276 184.149C289.969 184.191 289.356 184.275 289.325 184.047C289.232 183.366 288.619 183.449 287.392 183.616C286.778 183.7 286.472 183.741 286.41 183.287C286.379 183.06 286.962 182.749 287.575 182.666C289.753 182.601 291.9 182.309 294.078 182.244C294.078 182.244 294.385 182.202 294.416 182.43C294.416 182.43 294.416 182.43 293.833 182.74L294.14 182.699ZM297.942 180.793C297.942 180.793 297.022 180.918 296.96 180.464C296.929 180.237 297.512 179.926 297.818 179.884C298.432 179.801 298.739 179.759 299.107 180.172C299.138 180.399 298.556 180.71 297.942 180.793ZM284.464 40.3224C281.059 40.5541 277.716 41.2401 274.342 41.6989C272.501 41.9492 270.661 42.1994 268.82 42.4497C266.673 42.7417 264.526 43.0336 261.766 43.409C262.624 42.8295 263.237 42.7461 264.158 42.621C268.789 42.2225 273.36 41.3697 278.267 40.7023C280.108 40.452 281.641 40.2435 283.482 39.9932C283.788 39.9515 284.402 39.8681 284.709 39.8264C284.709 39.8264 285.015 39.7847 285.046 40.0118L284.77 40.2807L284.464 40.3224ZM292.101 39.0525C290.567 39.2611 289.065 39.6968 286.58 39.8033C288.727 39.5113 290.23 39.0756 291.733 38.6398L292.346 38.5564L292.377 38.7836L292.101 39.0525ZM325.393 175.903C325.393 175.903 324.473 176.028 324.167 176.07C321.344 175.991 318.89 176.325 316.192 177.155L315.578 177.238C315.578 177.238 315.516 176.784 315.823 176.742C318.798 175.643 321.558 175.268 324.687 175.305C324.687 175.305 325.025 175.491 325.363 175.676C325.363 175.676 325.393 175.903 325.118 176.172L325.393 175.903ZM354.1 168.76C354.1 168.76 354.407 168.718 354.714 168.677C354.714 168.677 354.407 168.718 354.1 168.76C354.1 168.76 354.1 168.76 354.376 168.491L354.1 168.76ZM339.567 176.753C339.567 176.753 341.101 176.544 341.652 176.006C341.652 176.006 341.959 175.964 341.928 175.737C341.928 175.737 341.928 175.737 341.591 175.552C340.977 175.635 340.364 175.719 339.75 175.802C339.444 175.844 338.83 175.927 338.83 175.927C338.83 175.927 338.768 175.473 339.382 175.389C340.609 175.223 342.081 174.56 343.308 174.393C343.921 174.309 344.903 174.639 344.627 174.908C344.106 175.673 344.106 175.673 345.671 175.691C346.284 175.608 346.929 175.751 347.88 175.854C345.181 176.683 342.727 177.017 339.967 177.392L339.567 176.753ZM358.858 171.584C358.858 171.584 358.551 171.626 358.245 171.667C354.595 172.395 351.252 173.081 347.633 174.036C347.633 174.036 347.326 174.078 347.019 174.119C346.957 173.665 348.153 173.271 349.074 173.146C350.883 172.668 352.724 172.418 354.195 171.755C356.25 170.782 357.569 171.296 359.134 171.315L359.165 171.542L358.858 171.584ZM362.753 170.36C362.753 170.36 362.446 170.402 362.14 170.444C361.464 170.073 360.789 169.702 360.696 169.02L361.31 168.937C362.292 169.266 363.395 168.19 364.101 168.789C364.501 169.428 363.274 169.595 362.722 170.133L362.753 170.36ZM382.477 168.372C382.477 168.372 382.476 168.372 382.139 168.187C382.139 168.187 382.077 167.732 382.721 167.876C382.721 167.876 383.028 167.835 383.059 168.062C383.059 168.062 383.121 168.516 382.477 168.372ZM399.515 20.2811L398.594 20.4062C398.257 20.2207 398.502 19.7246 398.471 19.4975C399.084 19.414 399.729 19.5578 399.79 20.0122C399.79 20.0122 399.852 20.4665 399.546 20.5083L399.515 20.2811ZM406.033 36.0546C406.033 36.0546 405.42 36.138 405.389 35.9108C405.389 35.9108 405.696 35.8691 406.002 35.8274C406.309 35.7857 406.922 35.7023 406.647 35.9712C406.647 35.9712 406.34 36.0129 406.033 36.0546ZM469.798 151.176C469.798 151.176 467.958 151.426 467.589 151.014C468.478 150.661 469.123 150.805 469.736 150.722C469.736 150.722 470.043 150.68 470.074 150.907C470.074 150.907 470.105 151.134 469.798 151.176ZM529.699 74.7712L530.312 74.6878C530.65 74.8732 530.405 75.3693 529.209 75.7633C529.209 75.7633 529.209 75.7633 528.902 75.805C528.902 75.805 528.289 75.8885 528.258 75.6613C528.196 75.2069 528.748 74.6691 529.361 74.5857L529.699 74.7712ZM510.335 35.7545C510.335 35.7545 511.869 35.546 513.096 35.3791C511.931 36.0003 511.01 36.1255 510.09 36.2506C509.784 36.2923 509.17 36.3757 509.446 36.1068C509.446 36.1068 510.029 35.7962 510.335 35.7545ZM516.971 141.985L517.891 141.86C517.891 141.86 517.277 141.943 516.971 141.985L516.357 142.068C516.326 141.841 516.326 141.841 516.94 141.758L516.971 141.985ZM507.188 145.86C508.66 145.197 510.562 145.401 511.483 145.276C515.47 144.734 518.537 144.317 521.911 143.858C524.365 143.524 526.819 143.191 529.273 142.857L529.886 142.774C529.886 142.774 530.193 142.732 529.917 143.001C529.917 143.001 529.948 143.228 529.642 143.27C529.028 143.353 528.721 143.395 528.108 143.478C526.268 143.729 524.396 143.752 522.924 144.415C522.924 144.415 522.311 144.498 521.697 144.581C517.096 145.207 512.495 145.833 508.17 146.19C507.864 146.231 507.25 146.315 506.943 146.356C506.943 146.356 506.637 146.398 506.606 146.171C506.575 145.944 506.606 146.171 506.882 145.902L507.188 145.86ZM490.638 33.3424C490.638 33.3424 489.811 34.1491 488.86 34.0471C488.246 34.1305 487.939 34.1722 487.847 33.4906C488.767 33.3655 489.349 33.0549 490.239 32.7026L490.852 32.6192C490.852 32.6192 490.883 32.8464 490.914 33.0736L490.638 33.3424ZM476.467 34.8067C479.073 33.2954 479.686 33.212 484.256 32.3592C485.177 32.234 486.403 32.0672 487.937 31.8586C488.857 31.7335 489.747 31.3812 490.636 31.0289C491.556 30.9037 491.157 30.2639 492.046 29.9116C492.66 29.8281 492.935 29.5593 493.58 29.703C493.886 29.6613 493.917 29.8885 493.948 30.1157C493.948 30.1157 493.979 30.3429 494.01 30.5701C494.992 30.8993 495.023 31.1265 493.796 31.2933C490.729 31.7104 488.061 32.7674 485.024 33.4117C482.601 33.9725 480.178 34.5334 478.093 35.2798L477.48 35.3632C476.866 35.4466 476.253 35.53 476.222 35.3028C476.222 35.3028 476.16 34.8485 476.467 34.8067ZM490.011 148.196C491.852 147.946 493.692 147.696 495.533 147.445C497.68 147.153 499.52 146.903 501.667 146.611L502.281 146.528C502.312 146.755 502.342 146.982 501.729 147.065C497.803 148.062 493.816 148.604 489.766 148.692C489.46 148.734 488.846 148.817 489.122 148.548C489.122 148.548 489.705 148.238 490.011 148.196ZM469.443 35.9933C469.443 35.9933 469.75 35.9516 470.056 35.9099C470.056 35.9099 470.056 35.9099 469.78 36.1787L469.167 36.2622C469.167 36.2622 469.105 35.8078 469.412 35.7661L469.443 35.9933ZM487.065 147.208C487.065 147.208 485.839 147.375 485.225 147.459C482.771 147.792 480.593 147.857 478.108 147.964C478.108 147.964 478.108 147.964 478.078 147.736C480.531 147.403 482.679 147.111 485.132 146.777C485.746 146.694 486.359 146.61 486.973 146.527L487.065 147.208ZM496.947 150.955C496.947 150.955 494.954 152.383 493.083 152.406C492.163 152.531 490.936 152.698 489.985 152.596C489.371 152.679 489.034 152.494 488.696 152.308L488.665 152.081C488.665 152.081 488.665 152.081 488.972 152.04C491.488 152.16 493.604 151.641 495.689 150.895C495.996 150.853 496.609 150.77 496.609 150.77L496.671 151.224L496.947 150.955ZM518.145 150.618C518.145 150.618 517.224 150.743 517.469 150.247C517.469 150.247 517.745 149.978 518.359 149.895C518.665 149.853 518.972 149.811 519.034 150.266C519.034 150.266 519.065 150.493 518.176 150.845L518.145 150.618ZM529.123 146.348C527.252 146.371 525.442 146.849 523.909 147.057C522.682 147.224 521.516 147.845 520.228 147.558C519.921 147.6 519.308 147.683 519.001 147.725C518.449 148.263 517.529 148.388 516.578 148.286C515.933 148.142 515.013 148.267 514.431 148.578C513.879 149.115 512.959 149.241 512.039 149.366C511.425 149.449 510.812 149.533 510.229 149.843C508.481 150.775 508.481 150.775 507.162 150.26C507.162 150.26 506.824 150.075 506.793 149.848C505.873 149.973 504.984 150.325 504.064 150.45C503.45 150.534 502.592 151.113 501.917 150.742C501.579 150.557 502.468 150.204 502.744 149.935L502.682 149.481C502.682 149.481 502.621 149.027 502.927 148.985C504.154 148.818 505.381 148.651 506.301 148.526C508.448 148.234 510.289 147.984 512.374 147.238C515.717 146.552 519.367 145.824 522.803 145.819C523.416 145.736 524.061 145.88 524.643 145.569C526.698 144.596 528.324 145.069 530.226 145.273C530.226 145.273 530.533 145.231 530.84 145.189C530.564 145.458 529.981 145.769 529.368 145.852L529.123 146.348ZM534.525 149.316C534.525 149.316 534.525 149.316 534.218 149.358C533.85 148.945 534.095 148.449 534.646 147.911C535.353 148.509 535.414 148.964 534.832 149.274L534.525 149.316ZM535.871 145.431C535.871 145.431 533.51 146.446 531.884 145.973C531.577 146.015 531.239 145.829 530.595 145.685C531.822 145.519 532.987 144.897 534.49 144.462C536.023 144.253 536.33 144.211 537.067 145.037C536.76 145.078 536.147 145.162 535.84 145.204L535.871 145.431ZM538.724 145.737C538.724 145.737 538.479 146.233 537.866 146.316C537.866 146.316 537.528 146.131 537.497 145.904C537.467 145.677 537.436 145.449 537.405 145.222C538.018 145.139 538.601 144.828 538.877 144.559L539.49 144.476L539.521 144.703C538.907 144.786 538.663 145.283 538.724 145.737ZM539.702 141.439C539.702 141.439 537.892 141.916 536.941 141.814L536.91 141.587C537.462 141.049 538.658 140.655 539.916 140.716C539.916 140.716 539.916 140.716 540.254 140.901C540.254 140.901 540.285 141.128 539.978 141.17L539.702 141.439ZM534.238 73.6911C534.238 73.6911 535.772 73.4826 536.14 73.8952C535.527 73.9787 534.269 73.9183 534.238 73.6911ZM544.978 141.184C544.978 141.184 543.414 141.166 543.383 140.938C543.352 140.711 543.903 140.173 544.793 139.821C545.406 139.738 546.664 139.798 546.419 140.294C546.45 140.521 545.592 141.101 544.978 141.184ZM541.907 72.6484C541.907 72.6484 543.747 72.3981 543.992 71.902C543.992 71.902 544.574 71.5914 544.912 71.7769C544.912 71.7769 545.25 71.9624 545.587 72.1479C545.773 73.511 544.577 73.905 542.061 73.7843C541.448 73.8677 541.11 73.6823 541.048 73.2279C541.017 73.0007 540.955 72.5463 541.876 72.4212L541.907 72.6484ZM554.948 140.985C554.948 140.985 554.028 141.111 553.721 141.152C553.108 141.236 553.659 140.698 553.628 140.471C553.628 140.471 554.211 140.16 554.18 139.933C554.18 139.933 554.518 140.118 554.855 140.304C554.886 140.531 555.224 140.717 554.948 140.985ZM559.271 138.315C557.431 138.565 556.358 139.868 554.487 139.891C554.487 139.891 553.843 139.747 553.229 139.831C552.616 139.914 552.002 139.998 551.389 140.081C550.468 140.206 549.855 140.29 549.486 139.877C549.425 139.423 549.976 138.885 551.203 138.718C551.817 138.635 552.43 138.551 553.044 138.468C554.608 138.486 555.804 138.092 557.031 137.926C557.92 137.573 558.565 137.717 559.209 137.861C559.209 137.861 559.578 138.273 559.271 138.315ZM575.773 135.608C575.773 135.608 575.773 135.608 575.435 135.423C575.404 135.196 576.355 135.298 576.662 135.256C576.662 135.256 576.969 135.214 577 135.442C577.031 135.669 576.11 135.794 575.773 135.608ZM568.444 74.8244C568.444 74.8244 568.382 74.37 569.241 73.7905C569.548 73.7488 570.13 73.4382 570.713 73.1276C570.744 73.3548 570.805 73.8091 570.223 74.1197C569.947 74.3886 569.395 74.9264 568.475 75.0516L568.444 74.8244ZM579.637 134.157C579.637 134.157 579.33 134.199 578.992 134.014C578.992 134.014 578.961 133.786 579.268 133.745C580.188 133.62 581.109 133.494 581.722 133.411C581.17 133.949 580.25 134.074 579.299 133.972L579.637 134.157ZM576.753 101.461C576.753 101.461 574.912 101.711 574.544 101.299C574.544 101.299 574.513 101.072 574.482 100.844C575.647 100.223 576.812 99.6019 577.977 98.9807C577.977 98.9807 577.977 98.9807 578.284 98.939C578.284 98.939 578.284 98.939 578.622 99.1245C577.794 99.9312 577.242 100.469 576.415 101.276L576.753 101.461ZM583.993 101.865C583.993 101.865 582.091 101.661 582.029 101.206C582.029 101.206 582.335 101.165 582.642 101.123C583.562 100.998 584.207 101.142 584.269 101.596C584.269 101.596 584.269 101.596 584.299 101.823L583.993 101.865ZM595.993 107.406C595.993 107.406 596.606 107.323 596.913 107.281C597.526 107.198 597.833 107.156 598.202 107.569L598.233 107.796C597.619 107.879 596.392 108.046 596.055 107.861L595.993 107.406ZM598.992 99.5939C598.992 99.5939 598.685 99.6356 598.378 99.6773C598.378 99.6773 598.685 99.6356 598.992 99.5939C598.992 99.5939 599.298 99.5522 599.605 99.5105C599.605 99.5105 599.298 99.5522 598.992 99.5939ZM620.882 85.9733C620.882 85.9733 620.882 85.9733 620.575 86.0151L620.545 85.7879C620.545 85.7879 620.851 85.7462 621.158 85.7044C621.158 85.7044 621.189 85.9316 620.882 85.9733ZM642.561 75.3896C640.813 76.3214 639.035 77.0261 636.918 77.5452C636.918 77.5452 636.612 77.5869 636.274 77.4014C636.581 77.3597 636.826 76.8637 637.132 76.8219C638.604 76.159 640.107 75.7233 641.61 75.2875L642.223 75.2041L642.254 75.4313L642.561 75.3896ZM654.764 68.6397C654.764 68.6397 654.826 69.094 654.212 69.1774C652.985 69.3443 651.82 69.9655 650.562 69.9052C650.562 69.9052 649.918 69.7614 649.887 69.5342C649.856 69.307 649.825 69.0798 650.47 69.2236C652.31 68.9733 652.831 68.2084 654.334 67.7726C654.978 67.9164 655.04 68.3708 654.764 68.6397Z" fill="#232222"/>
<path d="M428.376 14.2739C431.443 13.8568 434.511 13.4397 437.885 12.9809C440.952 12.5638 444.019 12.1467 447.087 11.7296C450.154 11.3125 452.884 10.7099 455.982 10.52C456.595 10.4365 457.516 10.3114 458.129 10.228C458.129 10.228 458.436 10.1863 458.405 9.95909C458.405 9.95909 458.405 9.95909 457.761 9.81532C457.454 9.85703 456.84 9.94045 456.534 9.98216C454.387 10.2741 452.239 10.5661 449.786 10.8998C442.424 11.9008 434.663 12.262 427.394 13.9447C426.781 14.0281 426.474 14.0698 425.86 14.1532C425.554 14.1949 425.247 14.2366 425.309 14.691C425.309 14.691 425.677 15.1037 425.984 15.062C426.598 14.9785 427.211 14.8951 427.824 14.8117L428.376 14.2739Z" fill="#232222"/>
<path d="M402.326 169.607C402.326 169.607 402.112 170.33 403.063 170.432C405.303 170.822 407.388 170.075 409.566 170.011C410.179 169.927 410.7 169.162 410.056 169.018C409.718 168.833 409.074 168.689 408.43 168.545C407.172 168.485 406.19 168.156 405.208 167.827L405.27 168.281C405.27 168.281 405.331 168.735 404.687 168.591C404.687 168.591 404.38 168.633 404.043 168.448C404.012 168.221 403.95 167.766 404.533 167.456C403.03 167.891 402.847 168.842 402.295 169.38L402.326 169.607Z" fill="#232222"/>
<path d="M583.9 36.8575C583.9 36.8575 582.98 36.9827 583.348 37.3953C583.348 37.3953 583.717 37.808 584.024 37.7663C586.478 37.4326 588.931 37.0989 591.692 36.7235C591.999 36.6818 592.919 36.5567 593.808 36.2044C593.501 36.2461 593.195 36.2878 592.888 36.3295C589.79 36.5194 587.06 37.122 583.993 37.5391L583.9 36.8575Z" fill="#232222"/>
<path d="M522.991 20.8445C521.212 21.5491 519.372 21.7994 517.593 22.504C520.66 22.0869 523.452 21.9387 526.427 20.84C525.138 20.5525 523.849 20.265 522.991 20.8445Z" fill="#232222"/>
<path d="M221.334 44.742C221.334 44.742 221.979 44.8858 222.285 44.8441C223.206 44.7189 224.126 44.5938 224.739 44.5104C224.677 44.056 223.757 44.1811 223.113 44.0374C222.499 44.1208 222.438 43.6664 222.1 43.481C222.069 43.2538 221.425 43.11 220.842 43.4206C219.922 43.5457 218.695 43.7126 218.174 44.4776C219.708 44.269 220.935 44.1022 221.365 44.9692L221.334 44.742Z" fill="#232222"/>
<path d="M376.256 175.466C376.256 175.466 377.022 174.205 376.315 173.606C376.315 173.606 376.009 173.648 375.702 173.69C375.395 173.732 374.782 173.815 374.813 174.042C374.874 174.497 374.599 174.766 374.016 175.076C373.709 175.118 374.078 175.53 374.109 175.758C374.109 175.758 374.722 175.674 375.06 175.86C375.366 175.818 375.98 175.735 376.256 175.466Z" fill="#232222"/>
<path d="M91.0504 143.444C91.0504 143.444 89.1482 143.24 88.2589 143.592C87.9522 143.634 87.3387 143.718 87.7072 144.13C88.1067 144.77 90.0088 144.974 91.2049 144.58C91.2049 144.58 91.7874 144.27 91.7565 144.042C91.7565 144.042 91.6947 143.588 91.388 143.63L91.0504 143.444Z" fill="#232222"/>
<path d="M72.8186 133.428C76.0095 133.92 76.3162 133.878 78.3398 132.678C76.6627 132.597 74.8223 132.847 72.8186 133.428Z" fill="#232222"/>
<path d="M506.44 4.81538L507.054 4.73196C507.361 4.69024 507.974 4.60683 507.943 4.37964C507.912 4.15245 507.606 4.19416 507.299 4.23587C505.765 4.44442 504.232 4.65298 504.415 3.70252C504.415 3.70252 504.108 3.74423 503.801 3.78594C502.974 4.59263 503.373 5.23248 504.631 5.29283C505.244 5.20941 506.165 5.08428 506.471 5.04257L506.44 4.81538Z" fill="#232222"/>
<path d="M306.78 183.756C306.78 183.756 308.007 183.589 308.62 183.506C308.927 183.464 309.541 183.381 309.172 182.968C309.172 182.968 308.865 183.01 308.559 183.052C307.638 183.177 306.411 183.344 305.491 183.469C304.571 183.594 303.62 183.492 303.037 183.802C302.762 184.071 304.019 184.132 305.86 183.881C306.166 183.84 306.78 183.756 307.087 183.715L306.78 183.756Z" fill="#232222"/>
<path d="M394.289 170.237C394.289 170.237 393.4 170.589 393.431 170.816C393.461 171.044 393.523 171.498 393.554 171.725C393.616 172.179 394.229 172.096 394.874 172.24C395.487 172.156 396.101 172.073 396.346 171.577L396.284 171.122C395.67 171.206 395.057 171.289 394.995 170.835C394.964 170.608 394.933 170.381 394.596 170.195L394.289 170.237Z" fill="#232222"/>
<path d="M596.842 33.2465C596.842 33.2465 597.456 33.1631 597.763 33.1214C598.069 33.0796 598.376 33.0379 598.314 32.5836C598.314 32.5836 597.67 32.4398 597.363 32.4815C595.523 32.7318 594.664 33.3113 593.837 34.118C595.126 34.4055 596.077 34.5075 596.904 33.7009L596.842 33.2465Z" fill="#232222"/>
<path d="M265.987 191.617C266.049 192.072 265.159 192.424 264.27 192.776C263.656 192.86 262.43 193.027 263.136 193.625C263.473 193.81 264.363 193.458 264.976 193.375C266.203 193.208 267.092 192.855 268.595 192.42C267.951 192.276 267 192.174 266.938 191.719C266.938 191.719 266.324 191.803 266.018 191.845L265.987 191.617Z" fill="#232222"/>
<path d="M520.274 3.16561C520.274 3.16561 520.888 3.08219 520.857 2.855C520.826 2.62781 520.795 2.40063 520.182 2.48405C519.261 2.60918 518.341 2.7343 517.114 2.90114C517.114 2.90114 516.808 2.94286 516.838 3.17004C516.838 3.17004 516.869 3.39723 517.176 3.35552C518.096 3.23039 519.016 3.10526 519.63 3.02184L520.274 3.16561Z" fill="#232222"/>
<path d="M268.838 189.61C268.838 189.61 267.152 190.996 266.938 191.719C268.472 191.511 269.637 190.89 270.464 190.083L270.402 189.629C270.096 189.67 269.175 189.795 268.869 189.837L268.838 189.61Z" fill="#232222"/>
<path d="M168.962 199.489C173.043 199.629 176.079 198.984 175.128 198.882C173.226 198.678 171.079 198.97 168.962 199.489Z" fill="#232222"/>
<path d="M308.1 184.271C308.1 184.271 307.179 184.396 306.566 184.48C306.566 184.48 306.597 184.707 306.903 184.665C308.713 184.188 309.971 184.248 312.211 184.638C311.136 183.627 309.878 183.566 308.344 183.775L308.1 184.271Z" fill="#232222"/>
<path d="M127.562 182.211C130.047 182.105 131.857 181.628 133.604 180.696C131.457 180.988 129.617 181.238 127.562 182.211Z" fill="#232222"/>
<path d="M470.398 8.55957L471.012 8.47615C471.319 8.43444 471.932 8.35102 471.594 8.16554C471.594 8.16554 471.288 8.20725 470.981 8.24896C469.754 8.41581 468.834 8.54094 467.607 8.70778C466.993 8.7912 466.073 8.91633 466.411 9.10181C466.411 9.10181 467.055 9.24557 467.362 9.20386C468.282 9.07873 469.509 8.91189 470.123 8.82847L470.398 8.55957Z" fill="#232222"/>
<path d="M493.955 4.8935C493.341 4.97692 492.421 5.10205 491.808 5.18547C491.194 5.26889 490.581 5.35231 490.274 5.39403C489.967 5.43573 489.661 5.47745 489.722 5.93182C489.722 5.93182 490.029 5.89011 490.336 5.8484C491.563 5.68156 492.79 5.51471 493.986 5.12068L493.955 4.8935Z" fill="#232222"/>
<path d="M52.9384 131.967L53.8586 131.842L53.7968 131.387C53.1216 131.016 51.557 130.998 50.3301 131.165C50.4228 131.846 51.4357 132.403 52.9693 132.194L52.9384 131.967Z" fill="#232222"/>
<path d="M525.489 2.45653C525.489 2.45653 526.716 2.28968 527.298 1.97908L527.236 1.5247C527.236 1.5247 526.899 1.33923 526.285 1.42265C525.672 1.50607 524.813 2.08558 524.2 2.169L524.231 2.39619C524.231 2.39619 524.538 2.35447 524.844 2.31276C524.844 2.31276 524.844 2.31277 525.458 2.22935L525.489 2.45653Z" fill="#232222"/>
<path d="M80.8642 142.053C80.8642 142.053 80.5575 142.094 80.2817 142.363L80.3126 142.59C80.926 142.507 81.8771 142.609 82.5215 142.753C82.8282 142.711 83.1349 142.669 83.1041 142.442L83.0732 142.215C82.4288 142.071 81.4468 141.742 80.5575 142.094L80.8642 142.053Z" fill="#232222"/>
<path d="M80.5222 137.24C80.5222 137.24 80.5531 137.467 80.584 137.694C81.5969 138.251 82.9165 138.766 84.6951 138.061C83.9889 137.463 82.1177 137.486 80.8289 137.198L80.5222 137.24Z" fill="#232222"/>
<path d="M350.612 177.565C350.612 177.565 351.287 177.935 351.563 177.667C352.728 177.045 354.599 177.022 355.396 175.988C353.249 176.28 351.408 176.531 349.261 176.823C349.568 176.781 350.243 177.152 350.581 177.337L350.612 177.565Z" fill="#232222"/>
<path d="M327.115 179.371C327.115 179.371 327.421 179.33 327.391 179.103C327.391 179.103 327.084 179.144 326.777 179.186C325.243 179.394 324.016 179.561 323.189 180.368C324.754 180.387 325.95 179.993 327.176 179.826L327.115 179.371Z" fill="#232222"/>
<path d="M113.837 72.0862C113.837 72.0862 114.788 72.1883 115.126 72.3737C115.739 72.2903 116.046 72.2486 116.291 71.7525C116.536 71.2564 116.474 70.8021 115.216 70.7417C114.909 70.7834 114.634 71.0523 114.051 71.3629C113.744 71.4046 113.193 71.9424 113.53 72.1279L113.837 72.0862Z" fill="#232222"/>
<path d="M481.717 6.7891C481.717 6.7891 481.01 6.19096 479.508 6.62669C478.894 6.71011 477.974 6.83525 477.729 7.33133C478.342 7.24791 478.956 7.16449 479.569 7.08107C480.183 6.99765 481.103 6.87252 481.717 6.7891Z" fill="#232222"/>
<path d="M77.6712 139.247C77.6712 139.247 76.751 139.373 76.1375 139.456C76.1375 139.456 76.1375 139.456 75.8308 139.498C75.524 139.539 74.9106 139.623 75.2482 139.808C75.2482 139.808 75.2482 139.808 75.8926 139.952C76.506 139.869 77.1195 139.785 77.7329 139.702C78.0397 139.66 78.3464 139.618 78.6222 139.35C78.6222 139.35 78.5605 138.895 77.947 138.979L77.6712 139.247Z" fill="#232222"/>
<path d="M296.261 186.806C296.261 186.806 298.439 186.742 299.328 186.389C299.328 186.389 299.635 186.348 299.604 186.12C299.604 186.12 299.604 186.12 299.266 185.935C298.346 186.06 297.119 186.227 296.261 186.806Z" fill="#232222"/>
<path d="M262.306 192.118C262.306 192.118 264.76 191.784 265.987 191.617C265.925 191.163 264.943 190.834 263.961 190.505C264.054 191.186 263.502 191.724 262.337 192.345L262.306 192.118Z" fill="#232222"/>
<path d="M105.692 152.328C105.048 152.185 104.096 152.083 103.514 152.393C102.9 152.477 102.594 152.518 102.655 152.973C102.686 153.2 103.024 153.385 103.637 153.302C104.864 153.135 105.14 152.866 105.692 152.328Z" fill="#232222"/>
<path d="M398.585 171.966L399.199 171.883C398.861 171.698 398.186 171.327 397.542 171.183C396.897 171.039 396.315 171.35 395.701 171.433C396.683 171.762 396.745 172.217 398.31 172.235L398.585 171.966Z" fill="#232222"/>
<path d="M566.873 67.865C566.873 67.865 567.18 67.8233 567.487 67.7816C569.327 67.5313 569.327 67.5313 569.541 66.8081C569.541 66.8081 569.541 66.8081 569.51 66.5809C568.59 66.706 568.038 67.2438 567.118 67.3689C566.811 67.4106 566.505 67.4523 566.566 67.9067L566.873 67.865Z" fill="#232222"/>
<path d="M553.955 0.436664C553.955 0.436664 554.569 0.353239 554.875 0.311535C554.875 0.311535 555.182 0.269823 555.489 0.22811C555.489 0.22811 555.458 0.000923424 555.151 0.0426359C554.538 0.126053 553.618 0.251182 553.004 0.334607C552.697 0.37632 552.084 0.459736 552.421 0.645219C552.421 0.645219 552.728 0.603506 553.066 0.788981C553.679 0.705556 554.293 0.622139 554.599 0.580434L553.955 0.436664Z" fill="#232222"/>
<path d="M517.147 5.44191C517.147 5.44191 517.699 4.90412 517.361 4.71864C517.361 4.71864 517.33 4.49146 517.024 4.53316L516.41 4.61659C516.104 4.6583 515.859 5.15439 516.196 5.33986C516.196 5.33986 516.227 5.56705 516.534 5.52534L517.147 5.44191Z" fill="#232222"/>
<path d="M80.5597 144.408C81.1732 144.325 81.8175 144.468 82.7377 144.343L82.7068 144.116C82.0934 144.199 81.1423 144.097 80.5597 144.408Z" fill="#232222"/>
<path d="M64.656 130.836C64.656 130.836 64.7487 131.518 65.6998 131.62C65.638 131.165 65.6071 130.938 65.8521 130.442C65.8521 130.442 65.7903 129.988 65.2077 130.298C65.2077 130.298 64.6251 130.609 64.656 130.836Z" fill="#232222"/>
<path d="M561.476 69.5245L561.506 69.7517C562.151 69.8955 563.409 69.9558 563.96 69.418L563.929 69.1909C563.316 69.2743 563.009 69.316 562.702 69.3577C562.089 69.4411 561.782 69.4828 561.782 69.4828L561.476 69.5245Z" fill="#232222"/>
<path d="M388.953 172.351C388.953 172.351 388.953 172.351 388.646 172.392C388.646 172.392 388.646 172.392 388.34 172.434C387.42 172.559 387.512 173.241 387.543 173.468C387.543 173.468 387.543 173.468 387.881 173.654C387.85 173.426 388.401 172.889 388.677 172.62L388.953 172.351Z" fill="#232222"/>
<path d="M118.259 77.0382C118.259 77.0382 117.921 76.8527 117.584 76.6672C117.277 76.7089 116.97 76.7506 116.633 76.5652C116.019 76.6486 115.713 76.6903 116.081 77.1029C116.112 77.3301 116.45 77.5156 116.787 77.7011C117.094 77.6594 117.401 77.6177 117.707 77.576C118.014 77.5342 118.628 77.4508 118.597 77.2236L118.259 77.0382Z" fill="#232222"/>
<path d="M217.837 44.2921C217.837 44.2921 217.837 44.2921 218.143 44.2504C215.628 44.1297 213.174 44.4634 214.156 44.7926C215.445 45.0801 216.672 44.9133 218.174 44.4776L217.837 44.2921Z" fill="#232222"/>
<path d="M350.859 179.382L350.245 179.465C349.939 179.507 350 179.962 350.338 180.147L350.952 180.064C350.952 180.064 351.503 179.526 350.859 179.382Z" fill="#232222"/>
<path d="M400.176 167.585C400.483 167.543 400.79 167.502 401.097 167.46L401.403 167.418C401.372 167.191 401.066 167.233 400.452 167.316C400.146 167.358 399.839 167.4 399.532 167.441L400.176 167.585Z" fill="#232222"/>
<path d="M660.563 69.9335C660.563 69.9335 660.563 69.9335 660.901 70.119C660.901 70.119 660.901 70.119 661.208 70.0773C661.821 69.9939 662.097 69.725 661.728 69.3123C661.728 69.3123 661.728 69.3123 661.422 69.354C660.808 69.4375 660.501 69.4792 660.563 69.9335Z" fill="#232222"/>
<path d="M512.575 3.98118C512.575 3.98118 513.188 3.89776 513.127 3.44339L513.096 3.2162C512.482 3.29962 512.176 3.34132 511.9 3.61022C511.9 3.61022 511.9 3.61022 511.931 3.83741C511.931 3.83741 511.931 3.83742 512.544 3.75399L512.575 3.98118Z" fill="#232222"/>
<path d="M105.608 193.064C106.252 193.208 106.866 193.124 107.786 192.999C107.448 192.814 106.773 192.443 106.16 192.526L105.546 192.61L105.608 193.064Z" fill="#232222"/>
<path d="M107.687 153.214L107.656 152.987C107.011 152.843 106.367 152.699 105.723 152.556C105.785 153.01 105.815 153.237 106.46 153.381C106.767 153.339 107.073 153.298 107.38 153.256L107.687 153.214Z" fill="#232222"/>
<path d="M34.7353 119.865C34.7353 119.865 34.1219 119.948 34.1528 120.175C34.1528 120.175 34.1837 120.403 34.7971 120.319C35.1039 120.277 35.4106 120.236 35.3797 120.009C35.3797 120.009 35.3488 119.781 34.7353 119.865Z" fill="#232222"/>
<path d="M175.814 50.0064C175.814 50.0064 175.753 49.552 175.139 49.6355L174.526 49.7189C174.526 49.7189 174.557 49.9461 175.201 50.0898C175.201 50.0898 175.508 50.0481 175.814 50.0064Z" fill="#232222"/>
<path d="M591.072 29.8662C591.072 29.8662 590.428 29.7224 590.121 29.7641L589.507 29.8476C589.507 29.8476 589.845 30.033 590.458 29.9496C590.458 29.9496 590.765 29.9079 591.072 29.8662Z" fill="#232222"/>
<path d="M232.125 197.61C232.125 197.61 232.187 198.065 232.8 197.981L233.414 197.898C233.414 197.898 233.352 197.444 232.738 197.527C232.738 197.527 232.432 197.569 232.125 197.61Z" fill="#232222"/>
<path d="M238.29 197.003C238.29 197.003 238.29 197.003 238.628 197.189C238.628 197.189 238.935 197.147 239.242 197.105C239.548 197.064 239.855 197.022 239.548 197.064C239.548 197.064 238.935 197.147 238.597 196.962C238.597 196.962 238.29 197.003 237.984 197.045L238.29 197.003Z" fill="#232222"/>
<path d="M62.5177 140.383C62.5177 140.383 62.8553 140.568 63.1621 140.526L63.7755 140.443C63.7755 140.443 63.7446 140.216 63.1003 140.072C63.1003 140.072 62.7936 140.114 62.4868 140.155L62.5177 140.383Z" fill="#232222"/>
<path d="M83.8345 136.327C84.7547 136.202 85.0305 135.933 85.6131 135.622C84.9996 135.706 84.0794 135.831 83.466 135.914L83.8345 136.327Z" fill="#232222"/>
<path d="M463.864 8.75393L463.251 8.83735C463.251 8.83735 463.558 8.79564 463.864 8.75393C463.864 8.75393 463.864 8.75393 464.14 8.48503L463.864 8.75393Z" fill="#232222"/>
<path d="M501.502 5.25557C501.502 5.25557 501.471 5.02838 501.164 5.07009C500.857 5.1118 500.551 5.15351 500.582 5.3807C500.582 5.3807 500.582 5.3807 500.919 5.56617C501.533 5.48276 501.533 5.48276 501.502 5.25557Z" fill="#232222"/>
<path d="M524.802 22.6806C524.802 22.6806 525.416 22.5972 526.029 22.5138C525.723 22.5555 525.416 22.5972 525.416 22.5972L524.802 22.6806Z" fill="#232222"/>
<path d="M302.671 185.703C302.671 185.703 302.978 185.662 303.284 185.62C303.284 185.62 303.284 185.62 303.56 185.351C303.56 185.351 303.56 185.351 302.947 185.434C302.64 185.476 302.333 185.518 302.364 185.745L302.671 185.703Z" fill="#232222"/>
<path d="M361.685 176.29C361.685 176.29 361.685 176.29 361.071 176.374C360.765 176.415 360.458 176.457 360.489 176.684C360.489 176.684 360.796 176.642 361.102 176.601C361.409 176.559 361.716 176.517 361.685 176.29Z" fill="#232222"/>
<path d="M178.059 55.0232C178.059 55.0232 178.365 54.9814 178.672 54.9397C178.672 54.9397 178.979 54.898 179.286 54.8563C179.286 54.8563 178.948 54.6708 178.641 54.7125C178.334 54.7543 177.721 54.8377 178.059 55.0232Z" fill="#232222"/>
<path d="M124.696 103.698C124.696 103.698 125.279 103.387 124.941 103.202C124.941 103.202 124.297 103.058 123.99 103.1C123.376 103.183 122.794 103.494 121.905 103.846C123.224 104.361 123.531 104.319 124.389 103.74L124.696 103.698Z" fill="#232222"/>
</svg>
