<?xml version="1.0" standalone="no"?>
<!DOCTYPE svg PUBLIC "-//W3C//DTD SVG 1.1//EN" "http://www.w3.org/Graphics/SVG/1.1/DTD/svg11.dtd" >
<svg xmlns="http://www.w3.org/2000/svg" xmlns:xlink="http://www.w3.org/1999/xlink" version="1.1">
<metadata>
Created by FontForge 20170731 at Mon Apr 30 13:11:24 2007
 By Aleksey,,,
(c) COPYRIGHT H. BERTHOLD AG 1992 Alle Rechte vorbehalten.
</metadata>
<defs>
<font id="FuturaBQ-BookOblique" horiz-adv-x="500" >
  <font-face 
    font-family="Futura BQ"
    font-weight="500"
    font-style="oblique"
    font-stretch="normal"
    units-per-em="1000"
    panose-1="0 0 0 0 0 0 0 0 0 0"
    ascent="800"
    descent="-200"
    x-height="437"
    cap-height="707"
    bbox="-170 -262 1093 918"
    underline-thickness="50"
    underline-position="-200"
    slope="-7.79999"
    unicode-range="U+0020-FB02"
  />
<missing-glyph horiz-adv-x="271" 
 />
    <glyph glyph-name=".notdef" horiz-adv-x="271" 
 />
    <glyph glyph-name=".null" horiz-adv-x="0" 
 />
    <glyph glyph-name="nonmarkingreturn" horiz-adv-x="333" 
 />
    <glyph glyph-name="space" unicode=" " horiz-adv-x="271" 
 />
    <glyph glyph-name="exclam" unicode="!" horiz-adv-x="250" 
d="M177 708h88l-76 -534h-88zM127 110q25 1 44 -16.5t19 -42.5q0 -26 -18 -43.5t-44 -17.5q-23 0 -40.5 18t-17.5 41q0 14 6 27q15 32 51 34z" />
    <glyph glyph-name="quotedbl" unicode="&#x22;" horiz-adv-x="396" 
d="M350 434h-23l-39 245q-3 21 0 32q4 18 19 28t34 10q16 0 30 -8.5t18 -22.5q2 -7 2 -27zM162 434h-23l-39 245q-2 21 0 32q4 18 19.5 28t34.5 10q16 0 29.5 -8.5t17.5 -22.5q4 -10 2 -27z" />
    <glyph glyph-name="numbersign" unicode="#" horiz-adv-x="667" 
d="M464 0h-79l33 229h-111l-33 -229h-81l35 229h-139v77h149l16 108h-142v77h152l31 214h80l-31 -214h110l32 214h78l-29 -214h138v-77h-149l-16 -108h140v-77h-151zM429 306l15 108h-111l-16 -108h112z" />
    <glyph glyph-name="dollar" unicode="$" horiz-adv-x="521" 
d="M384 811l-13 -97q34 -9 54 -18q31 -15 56.5 -39.5t35.5 -51.5l-69 -48q-25 39 -41 53q-20 15 -47 22l-33 -243q61 -38 90 -69q19 -19 28 -32q32 -47 32 -106q0 -36 -14 -69q-32 -81 -122 -113q-25 -8 -70 -12l-15 -105h-53l14 108q-33 7 -44 10q-77 27 -121 91
q-10 15 -24 43l76 50q30 -71 79 -96q18 -10 47 -17l35 251q-18 11 -33 21q-4 3 -25 19q-20 14 -32 26q-59 59 -59 135q0 23 6 44q27 105 132 139q21 7 64 11l13 93h53zM278 423l29 214q-39 -7 -60 -26q-17 -14 -28 -34q-12 -24 -12 -53q0 -55 71 -101zM313 291l-30 -222
q29 6 47 16q57 35 56 94q0 13 -2.5 24.5t-8 21.5t-10.5 17.5t-14 16t-13.5 12.5t-13.5 11.5t-11 8.5z" />
    <glyph glyph-name="percent" unicode="%" horiz-adv-x="792" 
d="M634 723l38 -23l-461 -712l-38 24zM236 713q7 0 17 -1.5t11 -1.5q38 -11 59 -41q28 -40 28 -114q0 -27 -1 -40v-7q-1 -7 -2 -15t-3.5 -20.5t-4.5 -25.5t-6 -28t-9 -29.5t-11.5 -29t-13.5 -26.5q-46 -74 -116 -74q-47 0 -78 36q-11 13 -21 32q-16 39 -16 102q0 27 5 62
q0 8 4.5 34.5t23 73.5t47.5 75q41 38 87 38zM231 659q-27 -3 -48 -28q-19 -22 -33 -64q-6 -16 -14.5 -60t-8.5 -84q0 -108 60 -108q38 0 66 51q17 32 27 82t12 76t2 38q0 56 -19 78q-19 21 -44 19zM658 448q40 0 68 -23q47 -40 47 -132q0 -88 -25 -164q-11 -33 -20 -50
q-15 -24 -25 -36q-44 -48 -97 -48q-36 0 -63 22q-51 42 -51 152q0 83 23 147q14 41 35 69q44 60 108 63zM654 395q-18 -4 -24 -7q-24 -12 -43 -49q-18 -35 -28 -87.5t-10 -95.5q0 -105 58 -105q34 0 59 35q19 28 34.5 87t15.5 125q0 47 -15 72q-19 26 -47 25z" />
    <glyph glyph-name="ampersand" unicode="&#x26;" horiz-adv-x="604" 
d="M333 371l116 -174q32 40 47 59q17 23 35 50l60 -63q-25 -37 -49 -66q-14 -18 -46 -54l80 -123h-97l-46 69q-25 -20 -41 -30q-72 -49 -154 -48q-98 0 -156 67q-16 16 -28 45q-13 30 -13 72q0 39 19 80q14 31 43 60t51.5 45t58.5 39q-25 43 -29 51q-26 52 -26 105
q0 74 51 115.5t121 41.5q61 0 103 -36q13 -10 21 -21q30 -37 30 -87q0 -45 -25 -86q-3 -7 -17 -25q-19 -22 -39.5 -38t-69.5 -48zM287 437q67 35 94 71q22 28 22 57q0 31 -22 52q-23 20 -51 20q-20 0 -34 -6q-53 -24 -53 -76q0 -16 4 -31q7 -35 40 -87zM386 140l-125 190
q-64 -36 -98.5 -71t-34.5 -87q0 -26 13 -49q11 -20 36.5 -35.5t59.5 -15.5q47 0 94 27q17 8 55 41z" />
    <glyph glyph-name="quotesingle" unicode="'" horiz-adv-x="208" 
d="M162 434h-23l-39 245q-2 21 0 32q4 18 19.5 28t34.5 10q16 0 29.5 -8.5t17.5 -22.5q4 -10 2 -27z" />
    <glyph glyph-name="parenleft" unicode="(" horiz-adv-x="271" 
d="M254 712l65 -23q-34 -59 -49.5 -87.5t-35 -71.5t-35.5 -90q-16 -50 -25.5 -87.5t-17.5 -108t-8 -157.5q0 -43 3 -87q8 -100 32 -212l-69 -17q-10 42 -22 104q-25 136 -25 247q0 39 3 75q4 88 31 186q8 29 21 65q27 76 62 143q23 44 28 52q6 10 13 21.5t15.5 25.5t13.5 22
z" />
    <glyph glyph-name="parenright" unicode=")" horiz-adv-x="271" 
d="M36 -227l-65 23q26 42 38 63q45 81 75 165q34 92 46 175t12 189q0 145 -35 308l69 18q47 -218 47 -355q0 -138 -33 -255q-5 -19 -28 -87q-21 -53 -29 -71q-15 -33 -33 -66q-20 -38 -32 -57q-4 -6 -32 -50z" />
    <glyph glyph-name="asterisk" unicode="*" horiz-adv-x="396" 
d="M243 715l64 -7l-20 -116l109 48l24 -59l-109 -44l96 -66l-35 -53l-97 73l-16 -122l-63 10l19 119l-108 -47l-27 57l113 43l-100 65l36 54l100 -70z" />
    <glyph glyph-name="plus" unicode="+" horiz-adv-x="667" 
d="M419 0h-80v251h-249v80h249v249h80v-249h252v-80h-252v-251z" />
    <glyph glyph-name="comma" unicode="," horiz-adv-x="208" 
d="M86 125l78 -50l-146 -227l-55 33z" />
    <glyph glyph-name="hyphen" unicode="-" horiz-adv-x="375" 
d="M64 318h291l-11 -82h-292z" />
    <glyph glyph-name="period" unicode="." horiz-adv-x="208" 
d="M81 109q13 1 21 -2q16 -4 30.5 -18.5t14.5 -38.5q0 -23 -15 -40q-17 -20 -46 -20q-13 0 -24 5q-35 16 -35 54q0 12 6 27q5 10 17.5 20.5t30.5 12.5z" />
    <glyph glyph-name="slash" unicode="/" horiz-adv-x="375" 
d="M323 707h93l-2 -5l-312 -702h-91z" />
    <glyph glyph-name="zero" unicode="0" 
d="M305 721q54 0 92 -20q16 -9 33 -25q17 -15 29 -33q9 -15 17 -31q25 -55 25 -144q0 -131 -40 -258q-38 -118 -103 -175q-54 -47 -127 -47q-49 0 -90 25q-20 16 -22 18q-20 18 -35 42q-36 63 -36 172q0 18 2.5 48t10 86.5t27.5 118.5t50 110q66 106 167 113zM416 480v23
q0 1 -0.5 8.5t-1.5 17.5t-3.5 22.5t-8 26t-12.5 23.5q-28 42 -81 42q-32 -3 -58 -24q-44 -36 -73 -122q-13 -40 -28 -116.5t-15 -150.5q0 -83 28 -124q28 -39 77 -39q32 0 59 22q37 31 54 74q20 42 36 111.5t22 123.5q5 45 5 82z" />
    <glyph glyph-name="one" unicode="1" 
d="M179 707h200l-99 -707h-85l86 625h-128z" />
    <glyph glyph-name="two" unicode="2" 
d="M154 82h274l-12 -82h-445l54 57q9 10 28.5 30.5t29.5 31.5q15 16 45.5 47.5t45.5 47.5q60 64 89 97q48 53 58 65q63 77 63 155q0 42 -23 70q-30 37 -80 37q-30 0 -54 -12q-8 -3 -22 -15q-8 -8 -23 -26q-17 -30 -23 -68q-3 -16 -3 -48h-91q4 105 40 161q57 90 174 90
q48 0 85 -16q46 -19 78.5 -64t32.5 -116q0 -84 -66 -175q-37 -50 -191 -204q-22 -21 -64 -63z" />
    <glyph glyph-name="three" unicode="3" 
d="M7 181h86q9 -44 22 -63q21 -29 48 -40q30 -10 54 -10q46 0 80 24q21 14 38 38q25 34 25 79q0 55 -40 87q-21 16 -51.5 23.5t-48.5 6t-25 -1.5l11 81q60 -4 94 12q20 10 27 15q22 15 36 44q14 30 14 59q0 42 -23 70q-30 37 -78 37q-10 0 -26 -4q-52 -10 -75 -53
q-15 -29 -15 -59h-88q7 46 16 70.5t28 49.5q22 29 50 45q51 29 112 29q72 0 121 -38q20 -16 28 -26q36 -45 36 -107q0 -76 -42 -127q-17 -20 -35 -33q-14 -10 -48 -23q45 -21 60 -36q9 -8 16 -18q32 -43 32 -99q0 -69 -36 -122q-24 -36 -57.5 -59t-67 -31t-49 -10t-28.5 -2
q-46 0 -91 20q-18 8 -33 19q-36 26 -54 60q-19 39 -23 93z" />
    <glyph glyph-name="four" unicode="4" 
d="M439 735h34l-74 -513h87l-10 -76h-89l-20 -146h-85l21 146h-304zM365 524l-223 -302h172q3 18 8.5 54.5t8.5 55.5q4 28 14 84q14 86 20 108z" />
    <glyph glyph-name="five" unicode="5" 
d="M191 708h290l-12 -80h-217l-56 -173q50 10 67 10q85 0 137 -54q5 -5 10 -11t8 -10t4 -5q34 -52 34 -127q0 -42 -12 -85q-8 -29 -24 -57t-42.5 -59t-70 -50t-96.5 -19q-94 0 -158 51q-30 23 -63 71l71 54q14 -24 21 -32q17 -24 42 -40q36 -25 85 -25t87 28q22 17 35 36
q36 50 36 126q0 75 -53 111q-38 25 -90 25q-71 0 -152 -55z" />
    <glyph glyph-name="six" unicode="6" 
d="M381 714l66 -55l-208 -247q44 7 57 7q12 0 36 -4q50 -8 89 -44q62 -58 62 -148q0 -97 -68 -166q-71 -71 -170 -71q-73 1 -130 43q-28 17 -48 52q-30 44 -30 112t35.5 130t110.5 151q9 11 27.5 33t27.5 33q24 29 71.5 87t71.5 87zM161 104q14 -14 23 -20.5t26.5 -12.5
t39.5 -6q34 0 64 16q32 17 56 52.5t24 84.5q0 68 -45 105q-34 26 -80 26q-31 0 -61 -15q-28 -14 -46.5 -36t-24.5 -45.5t-7.5 -34.5t-1.5 -21q0 -43 19 -75q2 -4 14 -18z" />
    <glyph glyph-name="seven" unicode="7" 
d="M90 708h437l-398 -718l-72 41l324 596h-302z" />
    <glyph glyph-name="eight" unicode="8" 
d="M382 366q21 -10 30 -18q61 -43 61 -136q0 -68 -35 -123q-9 -16 -29 -34q-68 -66 -164 -66q-92 0 -150 54q-59 56 -59 147q0 106 82 160q19 13 61 28q-34 19 -56 50q-9 11 -14 23q-13 26 -13 70q0 71 41 122q60 77 171 77q82 0 134 -48q20 -20 28 -32q26 -39 26 -98
q0 -85 -57 -138q-25 -24 -57 -38zM299 644q-48 0 -84 -39q-33 -37 -33 -90q0 -31 18 -59q27 -45 88 -45q44 0 75 26q17 14 28 32q18 32 18 71q0 21 -8 40q-13 34 -41 49.5t-61 14.5zM256 335q-26 0 -52 -12q-31 -15 -54.5 -49t-23.5 -80q0 -54 29 -87q17 -19 30 -24
q24 -16 63 -16q45 0 80 26q23 18 39.5 50.5t16.5 73.5q0 79 -69 108q-23 11 -59 10z" />
    <glyph glyph-name="nine" unicode="9" 
d="M159 -6l-67 55l209 247q-44 -7 -58 -7q-28 0 -49 6q-60 15 -99 68q-38 55 -38 123q0 49 19 92q30 70 92 106.5t126 36.5q96 0 158 -66q18 -20 30 -45q21 -42 21 -97q0 -81 -66 -178q-24 -33 -59 -75q-20 -25 -62 -75q-61 -75 -157 -191zM285 642q-38 -1 -77 -27
q-21 -17 -23 -20q-39 -43 -39 -106q0 -47 22 -79q12 -15 22 -25q35 -27 76 -27q32 0 59 13q67 27 83 103q5 18 5 40q0 43 -24 77q-16 20 -24 27q-32 25 -80 24z" />
    <glyph glyph-name="colon" unicode=":" horiz-adv-x="250" 
d="M156 368q21 2 39 -10q27 -19 27 -52q0 -20 -14 -36q-19 -22 -46 -22q-11 0 -21 4q-39 16 -39 56q0 7 3 19q4 12 17 25t34 16zM124 109q20 3 40 -13q23 -18 23 -48q0 -24 -22 -44q-16 -14 -39 -14q-16 0 -28 6q-31 18 -31 55q0 13 4 22q16 35 53 36z" />
    <glyph glyph-name="semicolon" unicode=";" horiz-adv-x="250" 
d="M156 368q28 2 47 -16t19 -46q0 -23 -19 -41q-17 -16 -41 -16q-15 0 -26 6q-34 17 -34 56q0 10 5 21q15 33 49 36zM125 125l78 -50l-145 -227l-56 33z" />
    <glyph glyph-name="less" unicode="&#x3c;" horiz-adv-x="667" 
d="M714 -3l-667 313v86l667 313v-86l-567 -270l567 -270v-86z" />
    <glyph glyph-name="equal" unicode="=" horiz-adv-x="667" 
d="M714 162h-667v78h667v-78zM714 342h-667v79h667v-79z" />
    <glyph glyph-name="greater" unicode="&#x3e;" horiz-adv-x="667" 
d="M47 -3v86l567 270l-567 270v86l667 -313v-86z" />
    <glyph glyph-name="question" unicode="?" horiz-adv-x="417" 
d="M325 305h87q-5 -46 -20 -74q-38 -76 -137 -76q-46 0 -78 16q-74 35 -74 121q0 53 30 96q35 49 142 101q32 15 49 27q33 29 33 65q0 27 -18 44q-6 6 -13 9q-16 9 -37 9q-28 0 -46 -11q-6 -3 -16 -13q-26 -26 -26 -82h-87q3 29 5 43t11.5 38t26.5 43q15 18 33 30
q46 28 101 28q64 0 108 -37q20 -20 23 -24q25 -34 25 -81q0 -74 -63 -123q-16 -13 -47 -29q-27 -15 -53 -28q-23 -8 -49 -28q-45 -33 -45 -75q0 -41 30 -58q1 -1 4.5 -2.5t5.5 -2.5q14 -5 25 -5q23 0 39 12q31 23 31 67zM213 109q15 0 23 -3q14 -5 27 -19.5t13 -36.5
q0 -26 -18 -43.5t-43 -17.5q-10 0 -22 5q-12 6 -24.5 20t-12.5 34q0 13 6 27q13 31 51 34z" />
    <glyph glyph-name="at" unicode="@" horiz-adv-x="896" 
d="M612 433l15 62h68l-33 -150q-2 -11 -10.5 -50.5t-13 -70t-4.5 -50.5q0 -44 30 -44q13 0 27.5 8.5t22.5 16t9 9.5q33 36 63 103.5t30 153.5q0 63 -20 108q-19 43 -51.5 71.5t-69.5 39.5t-60 14.5t-44 3.5q-81 0 -158 -36q-109 -52 -175 -159t-66 -228q0 -73 26 -133
q38 -85 120.5 -128t180.5 -43q143 0 269 90q31 22 66 56l33 -41q-39 -39 -81 -67q-131 -93 -286 -93q-138 0 -242 71q-44 29 -75 72q-67 88 -67 216q0 162 97 292q21 29 48 55t72 58.5t109 52t136 19.5q108 0 181 -51q115 -77 115 -237q0 -31 -4 -59q-22 -148 -104 -233
q-62 -62 -123 -62q-59 0 -77 49q-6 16 -6 36q-5 -7 -10.5 -13t-10 -11t-5.5 -7q-55 -53 -117 -53q-29 0 -55 12q-76 37 -76 150q0 71 29 138.5t82 108.5q47 38 100 37q64 0 99 -53q6 -9 16 -31zM587 348q1 54 -25 80t-58 26q-30 -1 -61 -24q-37 -30 -57.5 -85t-20.5 -108
t24 -77t56 -24q31 0 61 23q33 26 53 71.5t24 72.5t4 45z" />
    <glyph glyph-name="A" unicode="A" horiz-adv-x="604" 
d="M398 740l192 -740h-93l-41 167h-286l-92 -167h-96zM213 248h222q-13 52 -37 154q-5 20 -10 43t-11 51.5t-9 43.5q-5 -11 -14.5 -30.5t-17.5 -35.5t-16 -30q-8 -15 -24.5 -45.5t-24.5 -45.5q-20 -35 -58 -105z" />
    <glyph glyph-name="B" unicode="B" 
d="M35 0l101 708q19 0 56.5 -0.5t56.5 -0.5q75 -1 118.5 -11t73.5 -39q14 -13 18 -21q25 -33 25 -89q0 -66 -36 -116q-27 -35 -64 -54q-9 -4 -25 -10q53 -19 80 -52q34 -40 34 -101q0 -63 -31 -115q-18 -29 -47 -52q-26 -19 -61 -30q-16 -5 -36.5 -8.5t-36.5 -5.5
t-48.5 -2.5t-48.5 -0.5h-62.5h-66.5zM213 628l-31 -219q60 -3 62 -3q80 0 120 44q9 11 18 30q15 30 15 63q0 30 -18 52q-8 9 -30 22q-27 13 -136 11zM170 329l-35 -248q38 -2 56 -2q63 0 97 7.5t58 31.5q23 23 32 59q6 24 6 42q0 54 -36 82q-6 6 -20 12q-31 14 -107 15
q-9 0 -26 0.5t-25 0.5z" />
    <glyph glyph-name="C" unicode="C" horiz-adv-x="646" 
d="M672 643l-12 -97q-31 25 -43 34q-85 59 -182 59q-75 0 -135 -35q-20 -12 -43 -33q-20 -18 -34 -38q-30 -43 -43 -90q-19 -55 -19 -118q0 -86 43 -152q33 -49 83 -75q54 -30 124 -30q94 0 194 58l-12 -95q-18 -9 -43 -19q-72 -26 -152 -26q-156 0 -250 111q-23 26 -44 68
q-34 68 -34 157q0 156 86 265q42 54 99 87q82 48 180 48q91 0 173 -41q25 -12 64 -38z" />
    <glyph glyph-name="D" unicode="D" horiz-adv-x="646" 
d="M136 708h135q125 -3 193 -32q70 -32 114 -106q45 -76 45 -181q-1 -122 -53 -214q-20 -37 -58 -76q-62 -60 -143 -83q-58 -16 -187 -16h-147zM210 628l-76 -546q9 0 24.5 -1t28.5 -1.5t25 -0.5q53 0 92 5q71 9 122 50q59 48 83 120.5t24 141.5q0 49 -11 83q-6 17 -13 32
q-29 60 -83 88q-35 18 -81 23.5t-135 5.5z" />
    <glyph glyph-name="E" unicode="E" horiz-adv-x="437" 
d="M137 708h351l-11 -81h-265l-29 -210h265l-12 -80h-265l-36 -257h271l-12 -80h-358z" />
    <glyph glyph-name="F" unicode="F" horiz-adv-x="417" 
d="M136 708h337l-11 -81h-252l-29 -210h251l-11 -80h-251l-47 -336h-87z" />
    <glyph glyph-name="G" unicode="G" horiz-adv-x="750" 
d="M736 572l-68 -51q-2 3 -6.5 9t-6.5 9q-31 37 -66 59q-64 41 -152 41q-89 0 -152 -44q-17 -12 -36 -31q-85 -87 -85 -233q0 -118 58 -185q8 -10 22 -24q13 -11 41 -27q49 -26 110 -26q96 0 166 57q19 17 29 31q30 38 45 91h-200l12 80h290q-2 -24 -4 -40
q-15 -117 -90 -199q-27 -29 -59 -51q-79 -52 -190 -52q-84 0 -152 32q-29 13 -57 35q-31 24 -56 65q-58 88 -58 212q0 59 15 121q34 127 127 199q92 73 226 73q168 0 273 -119q10 -11 24 -32z" />
    <glyph glyph-name="H" unicode="H" horiz-adv-x="625" 
d="M134 709l8 -1h81l-42 -293h331l40 293h87l-99 -708h-86l47 336h-331l-48 -336h-86z" />
    <glyph glyph-name="I" unicode="I" horiz-adv-x="208" 
d="M135 707h88l-98 -707h-88z" />
    <glyph glyph-name="J" unicode="J" horiz-adv-x="375" 
d="M305 709h85q-8 -59 -23.5 -169t-22.5 -160q-4 -32 -12.5 -95t-13.5 -94q-6 -36 -10 -55.5t-18 -51t-36 -52.5q-42 -40 -105 -40q-57 0 -110 37q-12 9 -38 31l58 64q40 -51 83 -51q27 0 47 17q8 7 14.5 15t10 13.5t6.5 16.5t4 14.5t3 16.5t2 15q1 8 3.5 24t3.5 24
q7 45 19 135q8 58 25 173t25 172z" />
    <glyph glyph-name="K" unicode="K" horiz-adv-x="542" 
d="M134 708h87l-43 -315l328 315h111l-349 -335l284 -373h-110l-270 353l-50 -353h-87z" />
    <glyph glyph-name="L" unicode="L" horiz-adv-x="396" 
d="M136 708h88l-89 -627h237l-12 -81h-324z" />
    <glyph glyph-name="M" unicode="M" horiz-adv-x="833" 
d="M389 261l30 -111q49 92 58 109q8 14 37 65.5t45 79.5q59 104 177 314h12l41 -718h-87l-14 508q-2 -4 -5.5 -12t-5.5 -12q-2 -6 -24 -46q-31 -58 -97 -176q-139 -249 -163 -292l-149 531l-161 -501h-90l250 718h12q26 -90 78 -268q38 -126 56 -189z" />
    <glyph glyph-name="N" unicode="N" horiz-adv-x="688" 
d="M546 187l72 521h83l-101 -721q-32 41 -95 123.5t-95 124.5q-124 162 -162 216q-24 33 -55 81l-73 -533h-83l102 727q16 -20 43 -56q5 -6 15 -18.5t15 -19.5q20 -28 40 -52q8 -11 24.5 -32t23.5 -30q11 -15 34 -45.5t35 -45.5q13 -16 37.5 -47.5t36.5 -47.5q37 -47 52 -70
q8 -11 16.5 -23.5t18.5 -28t16 -23.5z" />
    <glyph glyph-name="O" unicode="O" horiz-adv-x="812" 
d="M434 724q30 0 60 -3q73 -9 126 -38q68 -36 110 -97q22 -34 37 -74q23 -65 23 -139q0 -32 -6 -65q-22 -131 -100 -212q-40 -42 -87 -67q-79 -43 -182 -43q-132 0 -220 71q-39 29 -70 79q-53 86 -53 194q0 136 68 237q36 55 92 93q85 59 202 64zM441 642q-62 0 -119 -27
q-124 -61 -154 -221q-4 -28 -4 -62q0 -96 49 -165q5 -9 22 -27q23 -23 43 -36q59 -37 140 -37q33 0 71 9q83 21 133 79q76 89 76 221q0 111 -58 182q-28 30 -54 47q-63 39 -145 37z" />
    <glyph glyph-name="P" unicode="P" horiz-adv-x="437" 
d="M165 305l-43 -304h-85l98 709q17 0 51 -1t51 -1q133 -5 188 -42q8 -5 23 -20q14 -14 26 -35q19 -38 19 -85q0 -33 -12.5 -73t-35.5 -69q-66 -83 -207 -83q-25 0 -73 4zM210 629l-34 -245q52 -5 62 -5q68 0 109 29q32 22 46 60q11 29 11 54q0 52 -38 80q-15 12 -41 18
t-45 7t-70 2z" />
    <glyph glyph-name="Q" unicode="Q" horiz-adv-x="812" 
d="M780 -62h-97l-86 93q-31 -15 -48.5 -22t-56.5 -15t-82 -8q-127 0 -215 71q-52 41 -87.5 111t-35.5 161q0 143 78 250q37 50 85 82q89 62 210 62q106 0 186 -48q30 -18 55 -42q18 -17 37 -41q66 -89 66 -214q0 -132 -68 -233q-26 -38 -64 -73q16 -16 56 -61
q9 -11 20.5 -23t25.5 -27t21 -23zM541 92l-119 128h100l81 -88l10.5 10.5t16.5 18t15 19.5q56 79 56 198q0 94 -46 162q-71 104 -206 104q-118 0 -197 -77q-37 -34 -57 -82q-33 -71 -33 -157q0 -94 51 -164q11 -18 35 -39q69 -60 165 -60q59 0 128 27z" />
    <glyph glyph-name="R" unicode="R" 
d="M291 311l194 -312h-100l-190 307l-27 1l-44 -307h-86l98 709q112 0 149 -3q46 0 95 -19q66 -28 89 -79q7 -13 10 -29q8 -24 8 -57q0 -65 -35 -116q-30 -46 -84 -72q-24 -12 -77 -23zM211 629l-33 -246q25 -3 52 -3q68 0 112 29q35 23 46 57q13 32 13 54q0 52 -35 82
q-9 8 -25 14q-34 13 -130 13z" />
    <glyph glyph-name="S" unicode="S" horiz-adv-x="521" 
d="M521 608l-74 -49q-10 21 -16 29q-16 25 -47 42q-25 13 -52 13q-55 0 -88 -28q-37 -33 -37 -80q0 -30 15 -56q3 -5 6.5 -10t6.5 -9t8.5 -9t8.5 -8.5t10.5 -8.5t11 -8t13.5 -9.5t14.5 -9t17 -10.5t18.5 -12q50 -31 84 -63q59 -57 59 -133q0 -74 -43 -126q-26 -32 -71 -54.5
t-102 -22.5q-104 0 -171 57q-11 10 -21 21t-18 22t-13 18t-10.5 16t-5.5 10l77 50q34 -74 93 -101q30 -16 69 -16q58 0 94 36q12 12 18 24q15 23 15 53q0 56 -58 100q-2 2 -6.5 5t-8 5.5t-6.5 4.5q-10 6 -30.5 19.5t-31.5 20.5q-41 26 -71 55q-59 58 -59 133q0 57 25 104
q23 43 69.5 71t113.5 28q78 0 133 -41q5 -4 27 -26q13 -15 33 -47z" />
    <glyph glyph-name="T" unicode="T" horiz-adv-x="437" 
d="M75 708h438l-11 -80h-175l-84 -629h-88l87 629h-177z" />
    <glyph glyph-name="U" unicode="U" horiz-adv-x="625" 
d="M135 708l88 -1q-7 -50 -21 -148.5t-21 -147.5q-10 -66 -14 -99q-10 -78 -10 -117q0 -50 28 -83q16 -16 25 -22q38 -24 93 -24q98 0 145 62q11 14 21 43q16 46 27 134q8 58 12 86q15 106 45 316h86q-2 -14 -24 -179q-3 -21 -8.5 -62t-8.5 -62l-24 -162q-19 -132 -78 -189
q-37 -35 -91 -51.5t-102 -16.5q-75 0 -131 29.5t-80 71.5q-24 43 -24 113q0 47 13 125q1 10 4.5 34t5.5 37q7 52 22 156.5t22 156.5z" />
    <glyph glyph-name="V" unicode="V" horiz-adv-x="604" 
d="M74 709l93 -1q50 -192 74 -289q4 -18 12.5 -50t15 -58.5t11.5 -50.5q7 -31 19 -93q30 60 46 90q19 37 56 104.5t46 83.5q96 176 145 264h93l-412 -733z" />
    <glyph glyph-name="W" unicode="W" horiz-adv-x="938" 
d="M922 709h95l-379 -731l-127 543q-24 -56 -45 -97q-11 -23 -32.5 -65.5t-28.5 -55.5q-32 -66 -98 -198q-42 -84 -64 -126l-185 729l87 -1q11 -46 34 -137.5t34 -136.5q22 -90 32 -135q11 -45 25 -110q7 15 21 46t21 46q11 24 35 72l36 72q26 53 77.5 159.5t77.5 159.5
q5 -22 16 -68t17 -68l42 -180q43 -177 54 -238q26 61 46 100q40 80 61 120q98 200 148 300z" />
    <glyph glyph-name="X" unicode="X" horiz-adv-x="562" 
d="M320 438l191 270h104l-255 -341l173 -367l-96 1q-17 38 -53 116q-8 19 -24.5 56t-24.5 55q-6 14 -18 41t-14 32q-74 -108 -113 -161q-9 -12 -104 -140h-105l280 375l-156 333h96q11 -23 22.5 -48.5t25 -56.5t21.5 -48q22 -50 50 -117z" />
    <glyph glyph-name="Y" unicode="Y" horiz-adv-x="542" 
d="M519 708h97l-287 -409l-43 -299h-87l43 303l-170 405h91q8 -19 23.5 -57t23.5 -57q30 -72 45 -107q6 -15 40 -107q38 58 58 87l75 108q18 26 51 74.5t40 58.5z" />
    <glyph glyph-name="Z" unicode="Z" horiz-adv-x="542" 
d="M136 79h374l-10 -79h-529l472 629h-321l10 79h472q-34 -47 -62 -85q-7 -9 -21 -26.5t-19 -24.5q-3 -4 -18 -24.5t-23 -31.5q-28 -38 -42 -56q-6 -8 -16 -21.5t-18.5 -25t-16.5 -22.5q-42 -56 -63 -85l-123 -165q-12 -16 -46 -62z" />
    <glyph glyph-name="bracketleft" unicode="[" horiz-adv-x="292" 
d="M348 707l-10 -75h-97l-110 -797h97l-11 -76h-180l130 948h181z" />
    <glyph glyph-name="backslash" unicode="\" horiz-adv-x="354" 
d="M296 0l-223 706h80l223 -706h-80z" />
    <glyph glyph-name="bracketright" unicode="]" horiz-adv-x="292" 
d="M93 709h179l-130 -948h-181l11 75h96l111 797h-97z" />
    <glyph glyph-name="asciicircum" unicode="^" horiz-adv-x="729" 
d="M634 336h-97l-124 260l-128 -260h-96l188 370h77z" />
    <glyph glyph-name="underscore" unicode="_" 
d="M557 -216h-520v79h520v-79z" />
    <glyph glyph-name="grave" unicode="`" horiz-adv-x="271" 
d="M57 665l137 -133l-39 -43l-146 121z" />
    <glyph glyph-name="a" unicode="a" horiz-adv-x="521" 
d="M416 352l13 84h75l-62 -437h-75l8 63q-16 -20 -30 -33q-48 -42 -119 -42q-51 0 -99 30l-5 5q-6 4 -12 9t-14.5 13.5t-14.5 16.5q-42 55 -42 134q0 73 29 130q11 22 36 51q18 20 42 36q51 35 113 35q87 0 137 -64q8 -9 20 -31zM264 379q-61 -2 -104 -52q-14 -18 -24 -43
q-18 -42 -18 -86q0 -57 31 -97q7 -8 18 -18q30 -24 73 -24q77 0 122 63q34 47 34 117q0 54 -27 91l-21 21q-35 30 -84 28z" />
    <glyph glyph-name="b" unicode="b" horiz-adv-x="521" 
d="M212 747l-50 -362q17 19 30 28q49 36 113 36q63 0 110 -34q17 -11 37 -35q43 -54 43 -138q0 -91 -50 -162q-20 -26 -49 -49q-58 -42 -124 -42q-46 0 -84 18q-16 7 -46 33q-14 17 -25 34l-10 -74h-79l104 747h80zM285 378q-35 0 -68 -18q-24 -13 -41 -34t-24.5 -38.5
t-12 -39t-5 -29t-0.5 -13.5q0 -38 12 -66q8 -19 17 -28q8 -10 13 -14q38 -34 89 -34q71 0 115 58q36 47 36 121q0 44 -20 75q-8 13 -21 26q-36 34 -90 34z" />
    <glyph glyph-name="c" unicode="c" horiz-adv-x="417" 
d="M410 408l-12 -82q-2 2 -9 7.5t-12 8.5q-54 35 -112 35q-48 0 -85 -34q-21 -18 -35 -42q-25 -43 -25 -101q0 -70 44 -108q33 -30 85 -30q55 0 127 41l-12 -85q-60 -29 -127 -29q-88 0 -140 54q-21 21 -33 44q-25 48 -25 116q0 62 25 116q10 23 32 50q22 25 39 37
q54 43 134 43q62 0 141 -41z" />
    <glyph glyph-name="d" unicode="d" horiz-adv-x="521" 
d="M546 747l-105 -747h-80l7 44q-34 -28 -65 -40q-37 -15 -76 -15q-26 0 -49 6q-83 20 -119 100q-21 44 -21 107q0 64 24 115q9 22 32 51q65 80 164 80q21 0 31 -2q61 -10 102 -51q10 -10 21 -25l54 377h80zM273 378q-43 -3 -74 -21q-83 -48 -83 -160q0 -56 33 -95
q37 -44 90 -44q36 0 67 16q18 9 27 18q21 18 34 40q28 43 28 107q0 52 -29 90q-9 15 -26 27q-25 18 -67 22z" />
    <glyph glyph-name="e" unicode="e" horiz-adv-x="479" 
d="M453 191h-334q0 -25 11 -54q10 -29 37.5 -53.5t72.5 -24.5q27 0 52 11t37 21.5t29 28.5l68 -39q-9 -12 -19 -22q-70 -71 -168 -71q-114 0 -168 88q-33 52 -33 131q0 45 14 86q26 74 84 114.5t124 40.5q52 0 93 -20q20 -10 37 -27q11 -9 25 -27q40 -58 40 -140
q0 -15 -2 -43zM123 260h252q0 1 -0.5 7.5t-1.5 13t-3 15.5t-6.5 19t-10.5 18q-34 47 -96 47q-8 0 -19 -2t-30 -8.5t-38 -24t-32 -43.5q-7 -14 -15 -42z" />
    <glyph glyph-name="f" unicode="f" horiz-adv-x="229" 
d="M341 741l-12 -76q-28 18 -53 18q-11 0 -20 -3q-27 -11 -34 -40q-6 -16 -17 -85q-3 -20 -8.5 -59t-8.5 -59h87l-10 -68h-87l-54 -369h-81l55 370h-68l9 67h68q16 108 24 161q14 88 51 124q36 36 88 36q25 0 71 -17z" />
    <glyph glyph-name="g" unicode="g" horiz-adv-x="521" 
d="M421 359l12 78h73q-7 -50 -20.5 -143.5t-19.5 -136.5q-6 -41 -18 -121q-5 -38 -17 -85q-19 -72 -61 -110q-37 -35 -93 -44q-23 -5 -54 -5q-81 0 -135 42q-19 14 -34 37q-23 34 -33 91h77q15 -42 34 -61q37 -40 99 -40q52 0 84 28q16 16 23 27q20 34 42 146
q-11 -19 -30 -33q-51 -40 -120 -40q-46 0 -88 22q-30 16 -51.5 41.5t-31.5 47.5t-15 49.5t-5.5 36t-0.5 19.5q0 68 28 121q14 27 34 50q64 71 158 71q57 0 95 -21q28 -14 51 -40q8 -9 17 -27zM262 374q-65 -8 -102 -51q-41 -50 -41 -120q0 -44 18.5 -76.5t44.5 -46.5
q33 -18 69 -18q9 0 25 2q41 7 69 32q23 23 29 32q27 44 27 103q0 40 -13 71q-9 18 -17 27q-5 7 -20 20q-31 25 -89 25z" />
    <glyph glyph-name="h" unicode="h" horiz-adv-x="458" 
d="M132 746h80l-51 -380q30 41 68 61q33 19 75 19q26 0 49 -9q71 -29 71 -112q-1 -43 -9 -88q-1 -9 -3.5 -26.5t-3.5 -26.5q-5 -30 -14 -91.5t-13 -92.5l-79 1q8 64 23 169l12 93q4 28 4 44q0 17 -5 31q-15 40 -62 40q-30 0 -58.5 -18.5t-46.5 -51.5q-13 -24 -18.5 -45.5
t-13.5 -76.5q-5 -31 -13.5 -93t-13.5 -93h-80z" />
    <glyph glyph-name="i" unicode="i" horiz-adv-x="187" 
d="M150 688q16 0 24 -3q34 -14 34 -48q0 -22 -16 -37t-37 -15q-12 0 -20 4q-31 14 -31 49q0 16 12 31t34 19zM91 436h81l-61 -437h-81z" />
    <glyph glyph-name="j" unicode="j" horiz-adv-x="187" 
d="M151 688q23 2 40 -14t17 -39q0 -18 -14 -33q-16 -17 -37 -17q-9 0 -19 3q-33 15 -34 47q0 12 6 25q12 25 41 28zM89 437h83l-90 -637h-82z" />
    <glyph glyph-name="k" unicode="k" horiz-adv-x="417" 
d="M133 746h82l-69 -494l201 185h107l-229 -207l182 -230h-102l-165 209l-29 -209h-82z" />
    <glyph glyph-name="l" unicode="l" horiz-adv-x="187" 
d="M133 746h81l-105 -746h-81z" />
    <glyph glyph-name="m" unicode="m" horiz-adv-x="708" 
d="M632 0h-82l33 240q5 30 5 54q0 14 -1 20q-6 40 -37 54q-12 6 -30 6q-27 0 -53 -21q-9 -8 -17 -18t-14 -20.5t-10.5 -20.5t-8 -19.5t-5.5 -16.5t-3 -12l-1 -4q-3 -11 -22 -132q-10 -74 -16 -111h-82q26 172 39 257q5 37 5 46q0 31 -17 51t-49 20q-50 0 -89 -55
q-6 -8 -10.5 -17t-7.5 -16t-6.5 -19t-5 -18.5t-4 -22.5t-4 -23t-4.5 -29t-4 -31q-3 -24 -10 -71t-11 -71h-80l61 437h80l-11 -79q4 10 12 23q18 29 50.5 45t47 17.5t26.5 1.5q48 0 80 -28q25 -20 36 -54q14 21 21 29q48 53 116 53q53 0 88 -31q36 -32 36 -85q0 -29 -5 -64
q-6 -46 -10 -74q-8 -63 -26 -191z" />
    <glyph glyph-name="n" unicode="n" horiz-adv-x="458" 
d="M379 -1l-80 1l36 261q5 35 5 43q0 20 -8 39q-17 36 -59 36q-39 0 -70 -28q-8 -6 -21 -21q-16 -20 -26.5 -51.5t-14 -53.5t-12.5 -85q-8 -53 -19 -140h-82l61 437h83l-10 -72q8 14 14 21q46 59 123 59q37 0 65 -14t41 -35q17 -26 17 -67q0 -21 -15 -131q-5 -33 -14 -99.5
t-14 -99.5z" />
    <glyph glyph-name="o" unicode="o" 
d="M257 449q114 0 172 -71q45 -57 45 -142q0 -108 -64 -176q-68 -72 -170 -72q-52 0 -96 23q-52 26 -80 79q-26 48 -26 108q0 54 17 101q26 70 82 108t120 42zM265 380q-10 0 -21.5 -2t-31 -9t-39 -25t-33.5 -45q-22 -47 -22 -95q0 -82 55 -125q34 -23 71 -23q39 0 74 22
q33 21 49 50q28 43 28 105q0 46 -20 81q-6 13 -16 23q-4 5 -8 9t-5 6q-34 29 -81 28z" />
    <glyph glyph-name="p" unicode="p" horiz-adv-x="521" 
d="M119 71l-37 -271h-81l88 638h81l-8 -52q20 20 31 28q48 35 112 35q15 0 32 -3q53 -8 88 -40q7 -5 19 -17l15 -21q35 -53 35 -126q0 -81 -32 -137q-10 -17 -27 -38q-68 -77 -160 -77q-45 0 -81 16q-20 10 -42 26q-12 11 -33 39zM284 379q-45 0 -85 -33q-16 -12 -29 -32
q-4 -5 -17 -32q-15 -40 -15 -82q0 -45 23 -83q9 -14 17 -22q35 -35 88 -35q33 0 61 16q26 13 44.5 35.5t26.5 42t12.5 43.5t5 31.5t0.5 14.5q0 29 -9 53q-12 33 -43 59.5t-80 23.5z" />
    <glyph glyph-name="q" unicode="q" horiz-adv-x="521" 
d="M414 363l10 74h81l-89 -637h-81l35 250q-20 -18 -30 -25q-52 -37 -116 -37q-49 0 -92 24q-19 13 -30 22q-20 18 -25 27q-40 53 -40 135q0 28 6 60q18 86 79 140q59 52 137 52q68 0 112 -35q22 -17 43 -50zM257 375q-78 -7 -116 -73q-25 -43 -25 -100q0 -70 43 -111
q32 -32 85 -32q54 0 94 33q60 50 60 140q0 23 -7 49q-15 56 -60 78q-36 19 -74 16z" />
    <glyph glyph-name="r" unicode="r" horiz-adv-x="313" 
d="M357 415l-51 -62q-27 15 -44 15q-10 0 -30 -5q-52 -18 -75 -75q-6 -15 -23 -131q-3 -24 -10.5 -76.5l-11.5 -80.5h-84l64 438h82l-11 -64q39 52 79 65q21 8 41 8q32 0 56 -17q5 -3 18 -15z" />
    <glyph glyph-name="s" unicode="s" horiz-adv-x="333" 
d="M332 389l-54 -57q-1 0 -8.5 9.5t-13.5 14.5q-27 24 -61 24q-12 0 -20 -3q-11 -2 -25.5 -15.5t-14.5 -33.5q0 -11 6 -23q8 -14 44 -38q11 -7 28.5 -18t23.5 -15.5t15.5 -11.5t17.5 -16q36 -39 36 -85q0 -50 -38 -88q-47 -45 -115 -45q-63 0 -111 38q-5 4 -11.5 10.5
t-11.5 12t-9 10.5l-5 5l53 56q14 -18 24 -27q43 -39 79 -39q11 0 25 5t28 18t14 35q0 17 -12 33q-11 13 -48 36t-56 38l-12 9q-45 42 -45 94q0 23 12 49q15 32 50 55.5t83 22.5q58 0 106 -37q14 -10 26 -23z" />
    <glyph glyph-name="t" unicode="t" horiz-adv-x="229" 
d="M128 612h81l-24 -176h88l-10 -68h-89l-52 -368h-81l52 369h-67l10 67h67z" />
    <glyph glyph-name="u" unicode="u" horiz-adv-x="458" 
d="M82 436h82q-11 -75 -17 -121q-3 -20 -8.5 -60t-8.5 -60q-5 -40 -5 -47q0 -36 22 -59q26 -28 71 -28q46 0 76 28q8 8 13 15q7 14 8 17q6 13 9.5 26t4.5 22.5t4 32.5t5 40q15 98 27 195h82q-10 -74 -16 -111q-2 -16 -6.5 -49t-6.5 -50q-16 -123 -46 -168q-20 -27 -43 -41
q-49 -29 -114 -29q-54 0 -96 21q-28 16 -43 33q-3 3 -6 7.5l-5 7.5l-2 3q-17 29 -17 78q0 15 1 23q2 26 6 53q1 9 3.5 27t3.5 26q7 47 22 168z" />
    <glyph glyph-name="v" unicode="v" horiz-adv-x="417" 
d="M134 367l21 -78q4 -14 11.5 -42.5t11.5 -43.5q3 -12 9 -35t8 -32l169 301h90l-283 -468l-143 468l86 -1q14 -46 20 -69z" />
    <glyph glyph-name="w" unicode="w" horiz-adv-x="625" 
d="M342 461l80 -309l151 284h88l-262 -462q-2 7 -6 20t-7 23.5t-5 19.5q-2 8 -6.5 25t-7.5 26q-9 36 -23 85q-5 17 -13.5 52.5t-12.5 53.5q-43 -86 -96 -178q-12 -21 -35.5 -64t-35.5 -64l-124 463h85q42 -175 45 -190q6 -26 19 -97q64 125 65 127q15 28 45 82q3 5 24 44
t32 59z" />
    <glyph glyph-name="x" unicode="x" horiz-adv-x="437" 
d="M135 437l92 -149l126 149h103l-185 -211l145 -226h-96l-103 165l-143 -165h-98q167 195 196 229l-133 208h96z" />
    <glyph glyph-name="y" unicode="y" horiz-adv-x="437" 
d="M36 437h85q22 -78 34 -118q14 -50 20 -74q3 -10 30 -125q7 20 18 39q6 12 20 36q26 50 40 74q5 8 44 73q9 16 28 48t28 48h91l-378 -639h-88l145 248z" />
    <glyph glyph-name="z" unicode="z" horiz-adv-x="437" 
d="M82 437h385l-330 -367h268l-8 -70h-416l321 367h-230z" />
    <glyph glyph-name="braceleft" unicode="{" horiz-adv-x="354" 
d="M187 414v168q0 1 0.5 8.5t0.5 12.5t1 15.5t3 18t5 18.5t7.5 19.5t11 18.5t15 17.5t19.5 14t24 11.5q7 3 14 5t17.5 3t17 1.5t23.5 1t27 1.5l-1 -6q-2 -1 -12.5 -4t-15.5 -5q-50 -17 -63 -64q-8 -22 -8 -94v-98v-36t-0.5 -34t-1 -27t-2 -26.5l-4 -20t-6 -21.5t-8.5 -17
q-18 -30 -65 -46q55 -20 72 -60q3 -6 5 -12t3.5 -13.5t3 -13t2 -16t1 -16t0.5 -19v-19.5v-23v-25v-110q1 -83 18 -113q9 -16 23 -26.5t25 -15t34 -11.5l-1 -6q-7 0 -20 1t-19 1q-97 5 -128 68q-5 9 -8 20.5t-5 19.5t-3 22t-1 20t-0.5 22.5t-0.5 20.5v129v14v16v13
q0 91 -50 121q-12 6 -21 9v6q26 6 41 21q8 8 13.5 19.5t8.5 21.5t5 27t2 25t0.5 26t0.5 21z" />
    <glyph glyph-name="bar" unicode="|" horiz-adv-x="229" 
d="M202 -250h-80v998h80v-998z" />
    <glyph glyph-name="braceright" unicode="}" horiz-adv-x="354" 
d="M262 83v-125q0 -36 -1 -53q-5 -104 -71 -138q-7 -3 -12.5 -5.5t-13.5 -4t-12.5 -2.5t-15.5 -2t-16 -1t-21 -1t-23 -1v6q55 13 77 43q12 16 17 38q4 19 6 86v98v36t0.5 33.5t1 27t2 26.5t3.5 20.5t5.5 21.5t8.5 17q19 32 66 46q-35 12 -53 29q-23 24 -28.5 57.5
t-6.5 105.5v24v110q0 73 -12 101q-4 10 -9 18q-9 15 -23 24.5t-23.5 13t-31.5 10.5v6q22 -2 34 -2q71 -5 103 -31q7 -6 13.5 -13t11 -13.5t8 -16t6 -15.5t4 -18t2.5 -17t1.5 -18.5t1 -17t0.5 -18v-16.5v-129q0 -56 1 -67q4 -64 44 -93q10 -6 26 -12v-6q-23 -6 -39 -20
q-6 -6 -11 -14.5t-8.5 -15.5t-5.5 -19t-3.5 -19t-2 -20.5t-0.5 -18.5v-19v-16z" />
    <glyph glyph-name="asciitilde" unicode="~" horiz-adv-x="729" 
d="M416 246l-30 15l-6 3q-7 3 -15 6.5t-18 7t-21 5.5t-20 2q-14 0 -28 -5q-24 -8 -67 -62l-40 72q59 84 133 84q42 -1 111 -34l33 -15q46 -21 70 -21q45 0 96 62l38 -72l-6 -6q-5 -7 -9.5 -11.5t-13 -12.5t-16 -14t-19 -13t-22 -11.5t-24 -7.5t-27.5 -3q-36 1 -99 31z" />
    <glyph glyph-name="exclamdown" unicode="&#xa1;" horiz-adv-x="250" 
d="M167 720q23 3 42 -13q23 -18 23 -49q0 -19 -15 -37q-20 -21 -47 -21q-24 0 -42 19q-17 18 -17 42q0 13 6 25q17 32 50 34zM112 536h88l-75 -535h-89z" />
    <glyph glyph-name="sterling" unicode="&#xa3;" horiz-adv-x="625" 
d="M615 485l-90 -18q10 38 10 64q0 39 -13 62q-27 49 -97 49q-17 0 -40 -6q-57 -16 -79 -65q-4 -8 -6.5 -16.5t-4.5 -20.5t-3.5 -19.5t-2 -24.5t-1 -24.5t-1.5 -31t-1 -33.5q0 -12 -1 -36t-1 -36h151l-8 -59h-146q-14 -67 -39 -130q64 -22 96 -35q68 -26 98 -26q41 1 104 36
l42 -74q-32 -20 -48 -28.5t-39 -15.5t-48 -7q-54 0 -126 30q-97 39 -145 39q-45 0 -79 -28q-13 -9 -38 -35l-58 66q18 16 28 24q44 38 99 53q5 1 14.5 2.5t14.5 2.5q27 62 36 127h-131l9 59h125q0 88 1 132q0 70 13 116q0 1 2.5 8.5t6 15.5t9 19t13.5 22.5t18 20.5
q61 57 161 57q47 0 89 -15q44 -17 78.5 -59t34.5 -109q0 -24 -7 -53z" />
    <glyph glyph-name="currency" unicode="&#xa4;" horiz-adv-x="667" 
d="M595 183l77 -76l-62 -60l-75 76q-72 -50 -155 -50q-81 0 -155 51l-76 -76l-60 61l76 75q-51 74 -51 157q2 71 32 124q3 5 19 29l-75 76l60 60l75 -75q75 51 156 51q66 0 121 -29q6 -3 14 -8.5t13.5 -9.5t6.5 -4l75 75l61 -60l-76 -76q50 -68 50 -155q0 -60 -23 -109
q-8 -18 -28 -47zM566 340q0 66 -38 116q-57 72 -147 71q-36 0 -69 -12q-55 -21 -86.5 -68.5t-31.5 -107.5q0 -79 54.5 -133t133.5 -54q59 0 102 30q82 54 82 158z" />
    <glyph glyph-name="brokenbar" unicode="&#xa6;" horiz-adv-x="229" 
d="M122 190h80v-381h-80v381zM122 308v381h80v-381h-80z" />
    <glyph glyph-name="section" unicode="&#xa7;" 
d="M505 572h-89q4 24 4 35q0 18 -7 35q-23 48 -87 48q-38 0 -67 -17q-11 -6 -21 -18q-22 -26 -22 -58q0 -26 13 -49q10 -15 26 -28t24 -17q11 -7 59.5 -33t70.5 -45q14 -12 27 -29q33 -39 33 -95q0 -45 -22 -87q-10 -16 -19 -27q-19 -22 -38 -34q-13 -9 -48 -23
q18 -14 24.5 -19.5t14.5 -15t15 -22.5q21 -38 21 -75q0 -22 -5 -42q-12 -53 -56 -90q-55 -45 -136 -45q-47 0 -85 14q-40 15 -66 44q-20 26 -27 47q-12 30 -12 98h92v-37.5t8.5 -38t26.5 -32.5q26 -20 63 -20q2 0 4 0.5t4 0.5q53 4 82 43q18 23 18 55q0 27 -17 49
q-19 24 -72 54q-98 52 -128 88q-39 45 -39 105q0 62 37 107q17 21 42 38q22 14 41 20q-1 1 -10 8.5t-13 11.5q-43 45 -43 109q0 63 42 111q20 22 41 36q51 34 122 34q51 0 89 -18q22 -13 33 -23q27 -23 38 -49q9 -19 12 -34q4 -19 2 -70zM262 398q-46 -5 -72 -30
q-31 -31 -31 -76q0 -23 10 -41q12 -23 38 -39.5t63 -16.5q42 0 73 26q35 29 35 78q0 46 -31 72q-31 30 -85 27z" />
    <glyph glyph-name="dieresis" unicode="&#xa8;" horiz-adv-x="271" 
d="M20 638q15 0 25 -4q37 -15 37 -56q0 -7 -4 -18q-17 -36 -54 -35q-21 0 -38 15q-17 17 -17 42q0 11 3 20q15 32 48 36zM203 638q24 2 42.5 -15t18.5 -41q0 -14 -7 -28q-15 -30 -49 -29q-8 0 -15 2q-15 3 -27 16q-15 17 -15 40q0 11 4 20q5 11 17.5 22t30.5 13z" />
    <glyph glyph-name="copyright" unicode="&#xa9;" horiz-adv-x="833" 
d="M820 351q-3 -136 -88 -234q-50 -57 -120 -88.5t-148 -31.5q-158 0 -265 116q-91 100 -91 241q0 132 82 228q106 127 275 127q120 0 213 -69q22 -17 42.5 -38.5t45.5 -57.5t39.5 -86t14.5 -107zM787 352q3 108 -64 197q-15 20 -34.5 38.5t-51 40.5t-76.5 35.5t-96 13.5
q-108 0 -192 -62q-20 -15 -39.5 -34.5t-42.5 -52t-37 -78t-14 -97.5q0 -65 24 -123q37 -91 119.5 -146t181.5 -55q49 0 103 17q99 33 159 117t60 189zM660 502l-56 -53q-60 67 -133 67q-37 0 -68 -14q-43 -20 -66.5 -59.5t-23.5 -88.5q0 -37 14 -69q19 -42 58.5 -67
t87.5 -25q73 0 131 65l56 -49q-76 -91 -190 -91q-49 0 -89 16q-69 26 -108 85.5t-39 134.5q0 103 68 170.5t170 67.5q86 0 151 -53q14 -12 37 -37z" />
    <glyph glyph-name="guillemotleft" unicode="&#xab;" horiz-adv-x="458" 
d="M390 460l54 -46l-154 -172l126 -175l-58 -43l-152 220zM228 461l53 -46l-149 -171l129 -178l-60 -43l-153 220z" />
    <glyph glyph-name="logicalnot" unicode="&#xac;" horiz-adv-x="667" 
d="M634 253h-587v79h667v-332h-80v253z" />
    <glyph glyph-name="registered" unicode="&#xae;" horiz-adv-x="833" 
d="M643 131l-93 1q-5 11 -9 22.5t-6.5 24.5t-4 22t-3.5 25.5t-3 23.5q-5 32 -12.5 46.5t-22.5 23.5q-20 12 -68 13h-28v-202h-80v449h146h9q35 0 54.5 -1.5t46.5 -12t43 -31.5q24 -30 24 -70q0 -67 -61 -96q-17 -7 -32 -11q20 -9 27 -14q8 -6 14.5 -15t10 -15.5t7 -19.5
t4.5 -18.5t3 -20.5t3 -18q11 -70 31 -106zM394 396h66q18 0 27 1q48 4 62 34q7 11 7 28q0 35 -28 51q-19 9 -59 9q-4 0 -12 -0.5t-12 -0.5h-51v-122zM820 351q0 -129 -84 -229q-43 -51 -102 -81.5t-97 -37t-73 -6.5q-122 0 -218 73q-138 108 -138 284q0 132 82 228
q106 127 275 127q85 0 160 -37t126 -106q71 -95 69 -215zM788 352q0 109 -63 195q-15 20 -34.5 39t-51.5 41.5t-77.5 36t-96.5 13.5q-108 0 -192 -62q-20 -15 -39.5 -34.5t-42.5 -52t-37 -78t-14 -97.5q0 -65 24 -123q37 -91 119.5 -146t181.5 -55q54 0 109 19
q97 34 155 117.5t59 186.5z" />
    <glyph glyph-name="degree" unicode="&#xb0;" horiz-adv-x="354" 
d="M225 755q67 0 114 -47t47 -114q0 -34 -15 -69q-20 -42 -60.5 -67.5t-86.5 -25.5q-67 1 -114 48t-47 114t47.5 114t114.5 47zM224 675q-33 0 -56 -23.5t-23 -55.5q1 -33 24 -56t56 -23t55.5 23t22.5 56q0 32 -23 55.5t-56 23.5z" />
    <glyph glyph-name="plusminus" unicode="&#xb1;" horiz-adv-x="667" 
d="M421 135h-79v242h-254v79h254v242h79v-242h252v-79h-252v-242zM673 0h-585v79h585v-79z" />
    <glyph glyph-name="acute" unicode="&#xb4;" horiz-adv-x="271" 
d="M162 666l47 -54l-149 -121l-35 42z" />
    <glyph glyph-name="mu" unicode="&#xb5;" horiz-adv-x="562" 
d="M551 140l29 1q13 -36 13 -69q0 -9 -1.5 -19t-7.5 -26.5t-21 -27t-38 -10.5q-41 0 -68 39q-12 16 -21 44q-57 -87 -146 -87q-60 0 -102 48q-6 6 -14 18q-7 -102 30 -178l27 -45q19 -32 19 -48q0 -18 -12 -30t-30 -12q-14 0 -23 6q-21 10 -34 39q-26 55 -26 172
q0 100 12 170q-4 21 -10 63q-11 84 -11 177q0 46 6 64q18 36 44 35q20 0 32 -19q12 -17 12 -53q0 -25 -6 -77q-3 -28 -11 -95q-10 -79 -13 -95q10 -23 20 -39q30 -45 80 -45q29 0 53 18q50 36 65 119q4 20 6 44.5t2.5 48t0.5 41.5t-1 34v16q0 66 12 84q13 19 36 18
q16 0 25 -7q26 -20 26 -91q0 -121 -29 -209q-7 -22 -19 -48q18 -51 53 -51q10 0 20 6q23 13 23 54q0 6 -2 22z" />
    <glyph glyph-name="paragraph" unicode="&#xb6;" horiz-adv-x="667" 
d="M586 706v-54h-34v-819h-58v819h-144v-819h-58v486q-38 7 -58 17q-49 22 -74 68t-25 103q0 67 35.5 118t98.5 71q36 10 87 10h230z" />
    <glyph glyph-name="periodcentered" unicode="&#xb7;" horiz-adv-x="187" 
d="M138 224q-28 1 -46 20t-18 48q0 19 7 31q19 37 60 37q14 0 24 -5q43 -18 43 -63q0 -12 -5 -25q-18 -45 -65 -43z" />
    <glyph glyph-name="cedilla" unicode="&#xb8;" horiz-adv-x="271" 
d="M61 -35l55 -44l-105 -114l-39 34z" />
    <glyph glyph-name="guillemotright" unicode="&#xbb;" horiz-adv-x="458" 
d="M276 461l153 -220l-179 -217l-54 46l150 170l-129 178zM120 460l151 -220l-184 -216l-54 46l155 172l-127 174z" />
    <glyph glyph-name="questiondown" unicode="&#xbf;" horiz-adv-x="417" 
d="M250 718q26 2 45 -15.5t19 -44.5q0 -25 -17.5 -42.5t-43.5 -17.5q-15 0 -24 6q-13 6 -24 20.5t-10 35.5q0 14 5 24q17 32 50 34zM270 170h86q-4 -92 -56 -138q-49 -44 -120 -44q-51 0 -89 24q-51 33 -63 86q-4 16 -4 34q0 42 23 79q8 11 22 27l4 4q4 3 9.5 8t8.5 7
q22 17 91 51q58 30 78 53q20 22 20 53q0 38 -21.5 53t-43.5 15q-29 0 -48 -21q-10 -10 -15 -23q-6 -15 -6 -36l-87 1q5 52 25 84q7 15 26 31q11 9 27 17q36 17 83 17q55 0 94 -27q15 -9 27 -26q27 -35 27 -83q0 -20 -5 -42q-16 -68 -97 -118q-34 -20 -51 -28
q-50 -23 -69 -38q-32 -27 -32 -63q0 -17 8 -30q17 -33 60 -33q17 0 29 4q22 7 36.5 25t18 30t4.5 21t0 26z" />
    <glyph glyph-name="Agrave" unicode="&#xc0;" horiz-adv-x="604" 
d="M398 740l192 -740h-93l-41 167h-286l-92 -167h-96zM213 248h222q-13 52 -37 154q-5 20 -10 43t-11 51.5t-9 43.5q-5 -11 -14.5 -30.5t-17.5 -35.5t-16 -30q-8 -15 -24.5 -45.5t-24.5 -45.5q-20 -35 -58 -105zM340 909l153 -108l-41 -57l-159 99z" />
    <glyph glyph-name="Aacute" unicode="&#xc1;" horiz-adv-x="604" 
d="M398 740l192 -740h-93l-41 167h-286l-92 -167h-96zM213 248h222q-13 52 -37 154q-5 20 -10 43t-11 51.5t-9 43.5q-5 -11 -14.5 -30.5t-17.5 -35.5t-16 -30q-8 -15 -24.5 -45.5t-24.5 -45.5q-20 -35 -58 -105zM463 912l47 -64l-156 -99l-41 55z" />
    <glyph glyph-name="Acircumflex" unicode="&#xc2;" horiz-adv-x="604" 
d="M398 740l192 -740h-93l-41 167h-286l-92 -167h-96zM213 248h222q-13 52 -37 154q-5 20 -10 43t-11 51.5t-9 43.5q-5 -11 -14.5 -30.5t-17.5 -35.5t-16 -30q-8 -15 -24.5 -45.5t-24.5 -45.5q-20 -35 -58 -105zM404 909l122 -109l-48 -45l-81 69l-110 -69l-40 51z" />
    <glyph glyph-name="Atilde" unicode="&#xc3;" horiz-adv-x="604" 
d="M398 740l192 -740h-93l-41 167h-286l-92 -167h-96zM213 248h222q-13 52 -37 154q-5 20 -10 43t-11 51.5t-9 43.5q-5 -11 -14.5 -30.5t-17.5 -35.5t-16 -30q-8 -15 -24.5 -45.5t-24.5 -45.5q-20 -35 -58 -105zM508 888l52 -30q-10 -24 -27 -41q-5 -7 -22 -20
q-9 -7 -23 -12q-17 -6 -31 -6q-25 0 -55 16q-44 24 -60 24q-36 0 -56 -45l-48 32q31 53 65 70q18 10 37 10q27 0 59 -17q44 -23 61 -23q7 0 16 3q11 5 16.5 12.5t15.5 26.5z" />
    <glyph glyph-name="Adieresis" unicode="&#xc4;" horiz-adv-x="604" 
d="M391 739l191 -739h-91l-42 167h-285l-91 -167h-97zM209 721q24 2 42 -14t18 -40q0 -17 -7 -29q-16 -28 -49 -28q-11 0 -21 5q-12 5 -23 18.5t-11 31.5q0 20 13 36q17 19 38 20zM527 721q24 2 41.5 -14.5t17.5 -40.5q0 -25 -18 -41q-16 -14 -36 -14q-14 0 -23 4
q-33 17 -33 52q0 12 4 21q13 30 47 33zM207 248h221q-37 152 -39 163q-10 42 -28 128q-38 -78 -59 -116q-9 -18 -26.5 -50t-22.5 -41q-16 -28 -46 -84z" />
    <glyph glyph-name="Aring" unicode="&#xc5;" horiz-adv-x="604" 
d="M407 918q15 0 29 -4q22 -7 40.5 -28t18.5 -55q0 -32 -26 -57q-25 -25 -58 -25q-40 0 -65 31q-20 24 -20 53q0 48 39 72q20 12 42 13zM407 876q-5 0 -13 -3q-25 -10 -25 -38q0 -18 12.5 -30.5t29.5 -12.5q10 0 18 4q23 12 23 39q0 18 -13.5 30t-31.5 11zM398 740l192 -740
h-92l-42 167h-286l-91 -167h-97zM213 248h223q-14 54 -40 160q-10 43 -28 131q-25 -52 -52 -104q-15 -26 -43 -78q-10 -18 -30 -54.5t-30 -54.5z" />
    <glyph glyph-name="AE" unicode="&#xc6;" horiz-adv-x="854" 
d="M702 708l18 -80h-287l49 -209h280l16 -80h-277l61 -259h268l17 -80h-354l-38 165h-287l-88 -165h-98l394 708h326zM369 544l-159 -298h227z" />
    <glyph glyph-name="Ccedilla" unicode="&#xc7;" horiz-adv-x="646" 
d="M672 643l-12 -97q-31 25 -43 34q-85 59 -182 59q-75 0 -135 -35q-20 -12 -43 -33q-20 -18 -34 -38q-30 -43 -43 -90q-19 -55 -19 -118q0 -86 43 -152q33 -49 83 -75q54 -30 124 -30q94 0 194 58l-12 -95q-18 -9 -43 -19q-72 -26 -152 -26q-156 0 -250 111q-23 26 -44 68
q-34 68 -34 157q0 156 86 265q42 54 99 87q82 48 180 48q91 0 173 -41q25 -12 64 -38zM331 -35l56 -44l-105 -114l-39 34z" />
    <glyph glyph-name="Egrave" unicode="&#xc8;" horiz-adv-x="437" 
d="M137 708h351l-11 -81h-265l-29 -210h265l-12 -80h-265l-36 -257h271l-12 -80h-358zM246 909l153 -108l-41 -57l-158 99z" />
    <glyph glyph-name="Eacute" unicode="&#xc9;" horiz-adv-x="437" 
d="M137 708h351l-11 -81h-265l-29 -210h265l-12 -80h-265l-36 -257h271l-12 -80h-358zM380 912l47 -64l-157 -99l-40 55z" />
    <glyph glyph-name="Ecircumflex" unicode="&#xca;" horiz-adv-x="437" 
d="M137 708h351l-11 -81h-265l-29 -210h265l-12 -80h-265l-36 -257h271l-12 -80h-358zM321 909l122 -109l-49 -45l-81 69l-109 -69l-41 51z" />
    <glyph glyph-name="Edieresis" unicode="&#xcb;" horiz-adv-x="437" 
d="M137 708h351l-11 -81h-265l-29 -210h265l-12 -80h-265l-36 -257h271l-12 -80h-358zM221 891q18 4 39 -13q20 -18 20 -45q0 -20 -16 -37q-17 -17 -40 -17q-12 0 -21 3q-35 14 -35 53q0 15 5 26q16 29 48 30zM399 891q20 0 30 -5q33 -13 33 -53q0 -12 -4 -20
q-16 -35 -51 -34q-15 0 -26 5q-12 5 -22 19t-10 33q0 12 5 21q13 31 45 34z" />
    <glyph glyph-name="Igrave" unicode="&#xcc;" horiz-adv-x="208" 
d="M135 707h88l-98 -707h-88zM132 909l153 -108l-41 -57l-159 99z" />
    <glyph glyph-name="Iacute" unicode="&#xcd;" horiz-adv-x="208" 
d="M135 707h88l-98 -707h-88zM265 912l47 -64l-156 -99l-41 55z" />
    <glyph glyph-name="Icircumflex" unicode="&#xce;" horiz-adv-x="208" 
d="M135 707h88l-98 -707h-88zM206 909l122 -109l-48 -45l-81 69l-110 -69l-40 51z" />
    <glyph glyph-name="Idieresis" unicode="&#xcf;" horiz-adv-x="208" 
d="M135 707h88l-98 -707h-88zM107 891q18 4 38 -13q20 -16 20 -45q0 -21 -15 -37q-19 -17 -41 -17q-11 0 -21 3q-35 15 -35 53q0 15 6 26q16 29 48 30zM285 891q19 0 30 -5q33 -14 33 -53q0 -10 -5 -20q-16 -35 -51 -34q-14 0 -26 5t-21.5 19t-9.5 33q0 12 4 21
q4 10 16.5 21.5t29.5 12.5z" />
    <glyph glyph-name="Ntilde" unicode="&#xd1;" horiz-adv-x="688" 
d="M546 187l72 521h83l-101 -721q-32 41 -95 123.5t-95 124.5q-124 162 -162 216q-24 33 -55 81l-73 -533h-83l102 727q16 -20 43 -56q5 -6 15 -18.5t15 -19.5q20 -28 40 -52q8 -11 24.5 -32t23.5 -30q11 -15 34 -45.5t35 -45.5q13 -16 37.5 -47.5t36.5 -47.5q37 -47 52 -70
q8 -11 16.5 -23.5t18.5 -28t16 -23.5zM550 888l52 -30q-8 -20 -27 -41q-13 -13 -22 -20t-24 -12q-16 -6 -30 -6q-26 0 -55 16q-44 24 -61 24q-35 0 -55 -45l-48 32q31 53 65 70q18 10 37 10q26 0 59 -17q44 -23 60 -23q8 0 17 3q17 8 32 39z" />
    <glyph glyph-name="Ograve" unicode="&#xd2;" horiz-adv-x="812" 
d="M434 724q30 0 60 -3q73 -9 126 -38q68 -36 110 -97q22 -34 37 -74q23 -65 23 -139q0 -32 -6 -65q-22 -131 -100 -212q-40 -42 -87 -67q-79 -43 -182 -43q-132 0 -220 71q-39 29 -70 79q-53 86 -53 194q0 136 68 237q36 55 92 93q85 59 202 64zM441 642q-62 0 -119 -27
q-124 -61 -154 -221q-4 -28 -4 -62q0 -96 49 -165q5 -9 22 -27q23 -23 43 -36q59 -37 140 -37q33 0 71 9q83 21 133 79q76 89 76 221q0 111 -58 182q-28 30 -54 47q-63 39 -145 37zM434 909l153 -108l-41 -57l-159 99z" />
    <glyph glyph-name="Oacute" unicode="&#xd3;" horiz-adv-x="812" 
d="M434 724q30 0 60 -3q73 -9 126 -38q68 -36 110 -97q22 -34 37 -74q23 -65 23 -139q0 -32 -6 -65q-22 -131 -100 -212q-40 -42 -87 -67q-79 -43 -182 -43q-132 0 -220 71q-39 29 -70 79q-53 86 -53 194q0 136 68 237q36 55 92 93q85 59 202 64zM441 642q-62 0 -119 -27
q-124 -61 -154 -221q-4 -28 -4 -62q0 -96 49 -165q5 -9 22 -27q23 -23 43 -36q59 -37 140 -37q33 0 71 9q83 21 133 79q76 89 76 221q0 111 -58 182q-28 30 -54 47q-63 39 -145 37zM568 912l46 -64l-156 -99l-41 55z" />
    <glyph glyph-name="Ocircumflex" unicode="&#xd4;" horiz-adv-x="812" 
d="M434 724q30 0 60 -3q73 -9 126 -38q68 -36 110 -97q22 -34 37 -74q23 -65 23 -139q0 -32 -6 -65q-22 -131 -100 -212q-40 -42 -87 -67q-79 -43 -182 -43q-132 0 -220 71q-39 29 -70 79q-53 86 -53 194q0 136 68 237q36 55 92 93q85 59 202 64zM441 642q-62 0 -119 -27
q-124 -61 -154 -221q-4 -28 -4 -62q0 -96 49 -165q5 -9 22 -27q23 -23 43 -36q59 -37 140 -37q33 0 71 9q83 21 133 79q76 89 76 221q0 111 -58 182q-28 30 -54 47q-63 39 -145 37zM508 909l123 -109l-49 -45l-81 69l-110 -69l-40 51z" />
    <glyph glyph-name="Otilde" unicode="&#xd5;" horiz-adv-x="812" 
d="M434 724q30 0 60 -3q73 -9 126 -38q68 -36 110 -97q22 -34 37 -74q23 -65 23 -139q0 -32 -6 -65q-22 -131 -100 -212q-40 -42 -87 -67q-79 -43 -182 -43q-132 0 -220 71q-39 29 -70 79q-53 86 -53 194q0 136 68 237q36 55 92 93q85 59 202 64zM441 642q-62 0 -119 -27
q-124 -61 -154 -221q-4 -28 -4 -62q0 -96 49 -165q5 -9 22 -27q23 -23 43 -36q59 -37 140 -37q33 0 71 9q83 21 133 79q76 89 76 221q0 111 -58 182q-28 30 -54 47q-63 39 -145 37zM613 888l51 -30q-10 -24 -27 -41q-5 -7 -22 -20q-10 -8 -23 -12q-17 -6 -31 -6
q-25 0 -55 16q-44 24 -60 24q-36 0 -56 -45l-48 32q31 53 65 70q18 10 37 10q27 0 59 -17q44 -23 61 -23q7 0 16 3q16 7 33 39z" />
    <glyph glyph-name="Odieresis" unicode="&#xd6;" horiz-adv-x="812" 
d="M123 738q9 1 20 -2q15 -4 28 -17t14 -36q0 -23 -17 -40q-16 -15 -39 -15q-12 0 -22 4q-33 13 -33 51q0 10 3 19q12 32 46 36zM754 738q22 0 37 -13q20 -16 20 -43q0 -11 -4 -21q-15 -33 -52 -33q-11 0 -19 3q-35 16 -35 53q0 10 3 17q13 36 50 37zM442 723q140 0 232 -78
q41 -35 64 -75q51 -84 51 -196q-1 -74 -23 -136.5t-50 -101.5q-41 -58 -98 -94q-87 -56 -204 -56q-94 0 -169 39q-40 17 -79 57q-40 40 -67.5 103.5t-27.5 142.5q0 46 11 97q25 106 81 172q22 29 56 54q93 70 223 72zM431 641q-122 -8 -193 -91q-75 -91 -75 -217
q0 -106 56 -175q27 -34 61 -54q59 -37 137 -37t140 35q59 33 99.5 105.5t40.5 169.5q0 94 -44 160q-28 45 -72 69q-65 40 -150 35z" />
    <glyph glyph-name="multiply" unicode="&#xd7;" horiz-adv-x="667" 
d="M581 36l-200 200l-202 -200l-55 56l201 200l-201 201l55 56l202 -201l200 201l56 -56l-200 -201l200 -200z" />
    <glyph glyph-name="Oslash" unicode="&#xd8;" horiz-adv-x="812" 
d="M749 723h2l41 -41l-78 -77q27 -41 34 -53q41 -77 41 -174q0 -105 -43 -193q-29 -58 -74 -101q-24 -22 -47 -37q-88 -61 -211 -61q-110 0 -193 51q-15 9 -44 33l-82 -81l-42 42l84 85q-13 17 -24 38q-42 79 -42 174q0 186 119 299q48 45 106 68q69 28 152 28q96 0 177 -44
q20 -11 47 -31zM199 177l279 277l134 135q-17 14 -40 27q-13 7 -18 9q-47 21 -105 21q-66 0 -121 -25q-48 -22 -83 -58t-52.5 -78.5t-25 -81t-7.5 -78.5q0 -60 19 -107q6 -16 20 -41zM653 545l-416 -414q18 -16 27 -22q65 -44 148 -44q93 0 161 45q25 17 53 47q75 88 75 225
q0 67 -26 123q-8 17 -22 40z" />
    <glyph glyph-name="Ugrave" unicode="&#xd9;" horiz-adv-x="625" 
d="M135 708l88 -1q-7 -50 -21 -148.5t-21 -147.5q-10 -66 -14 -99q-10 -78 -10 -117q0 -50 28 -83q16 -16 25 -22q38 -24 93 -24q98 0 145 62q11 14 21 43q16 46 27 134q8 58 12 86q15 106 45 316h86q-2 -14 -24 -179q-3 -21 -8.5 -62t-8.5 -62l-24 -162q-19 -132 -78 -189
q-37 -35 -91 -51.5t-102 -16.5q-75 0 -131 29.5t-80 71.5q-24 43 -24 113q0 47 13 125q1 10 4.5 34t5.5 37q7 52 22 156.5t22 156.5zM340 909l153 -108l-41 -57l-159 99z" />
    <glyph glyph-name="Uacute" unicode="&#xda;" horiz-adv-x="625" 
d="M135 708l88 -1q-7 -50 -21 -148.5t-21 -147.5q-10 -66 -14 -99q-10 -78 -10 -117q0 -50 28 -83q16 -16 25 -22q38 -24 93 -24q98 0 145 62q11 14 21 43q16 46 27 134q8 58 12 86q15 106 45 316h86q-2 -14 -24 -179q-3 -21 -8.5 -62t-8.5 -62l-24 -162q-19 -132 -78 -189
q-37 -35 -91 -51.5t-102 -16.5q-75 0 -131 29.5t-80 71.5q-24 43 -24 113q0 47 13 125q1 10 4.5 34t5.5 37q7 52 22 156.5t22 156.5zM474 912l46 -64l-156 -99l-41 55z" />
    <glyph glyph-name="Ucircumflex" unicode="&#xdb;" horiz-adv-x="625" 
d="M135 708l88 -1q-7 -50 -21 -148.5t-21 -147.5q-10 -66 -14 -99q-10 -78 -10 -117q0 -50 28 -83q16 -16 25 -22q38 -24 93 -24q98 0 145 62q11 14 21 43q16 46 27 134q8 58 12 86q15 106 45 316h86q-2 -14 -24 -179q-3 -21 -8.5 -62t-8.5 -62l-24 -162q-19 -132 -78 -189
q-37 -35 -91 -51.5t-102 -16.5q-75 0 -131 29.5t-80 71.5q-24 43 -24 113q0 47 13 125q1 10 4.5 34t5.5 37q7 52 22 156.5t22 156.5zM414 909l123 -109l-49 -45l-81 69l-109 -69l-41 51z" />
    <glyph glyph-name="Udieresis" unicode="&#xdc;" horiz-adv-x="625" 
d="M302 714q2 1 9.5 0.5t14.5 -2.5q14 -5 25.5 -19t11.5 -35q0 -22 -16 -38q-16 -17 -40 -17q-23 0 -39 17q-16 16 -16 40q0 20 14.5 36t35.5 18zM452 715q15 1 25 -4q36 -13 36 -54q0 -16 -11 -31q-18 -23 -45 -23q-4 0 -20 4q-35 15 -36 53q0 17 11 31q15 20 40 24z
M553 707h86q-32 -232 -52 -374q-3 -18 -8 -54t-8 -54q-11 -92 -52 -145q-71 -94 -222 -94q-27 0 -48 4q-8 1 -22.5 5t-41 13.5t-52 30t-41.5 48.5q-24 42 -24 109q0 31 11 115l15 102q7 49 21 147.5t21 147.5h86q-11 -85 -35 -255q-4 -27 -11.5 -77.5t-10.5 -73.5
q-8 -68 -8 -101q0 -63 35 -97q11 -11 25 -18q36 -20 87 -20q70 0 115 33q18 14 30 31q12 15 20 40q7 19 12 43.5t8 43t8.5 61.5t9.5 71q16 106 46 318z" />
    <glyph glyph-name="germandbls" unicode="&#xdf;" 
d="M179 1l12 74q38 -11 59 -11q49 0 81 24q31 23 46 72t15 88q0 62 -36 96q-4 4 -16 11q-21 12 -59 18l-45 3l11 73q28 0 42 2q80 12 106 84q11 33 11 61q0 32 -16 56q-23 35 -71 35q-43 0 -71 -26q-16 -14 -28 -38q-12 -29 -27 -127q-11 -83 -19 -134q-8 -61 -26 -182
t-26 -181h-81l52 365h-69l11 71l68 1q3 19 8.5 58t7.5 53t6.5 38.5t10 40t12.5 30.5q15 34 38 57q17 16 37 26q38 22 94 22q99 0 144 -74q25 -39 25 -92q0 -94 -63 -148q-19 -17 -54 -31q6 0 30 -13q30 -20 48 -49q27 -43 27 -109q0 -36 -7 -67q-2 -12 -9.5 -36t-35 -65.5
t-65.5 -62.5q-13 -7 -35 -15q-32 -11 -67 -11q-29 0 -76 13z" />
    <glyph glyph-name="agrave" unicode="&#xe0;" horiz-adv-x="521" 
d="M416 352l13 84h75l-62 -437h-75l8 63q-16 -20 -30 -33q-48 -42 -119 -42q-51 0 -99 30l-5 5q-6 4 -12 9t-14.5 13.5t-14.5 16.5q-42 55 -42 134q0 73 29 130q11 22 36 51q18 20 42 36q51 35 113 35q87 0 137 -64q8 -9 20 -31zM264 379q-61 -2 -104 -52q-14 -18 -24 -43
q-18 -42 -18 -86q0 -57 31 -97q7 -8 18 -18q30 -24 73 -24q77 0 122 63q34 47 34 117q0 54 -27 91l-21 21q-35 30 -84 28zM265 665l137 -133l-38 -43l-147 121z" />
    <glyph glyph-name="aacute" unicode="&#xe1;" horiz-adv-x="521" 
d="M416 352l13 84h75l-62 -437h-75l8 63q-16 -20 -30 -33q-48 -42 -119 -42q-51 0 -99 30l-5 5q-6 4 -12 9t-14.5 13.5t-14.5 16.5q-42 55 -42 134q0 73 29 130q11 22 36 51q18 20 42 36q51 35 113 35q87 0 137 -64q8 -9 20 -31zM264 379q-61 -2 -104 -52q-14 -18 -24 -43
q-18 -42 -18 -86q0 -57 31 -97q7 -8 18 -18q30 -24 73 -24q77 0 122 63q34 47 34 117q0 54 -27 91l-21 21q-35 30 -84 28zM371 666l47 -54l-150 -121l-35 42z" />
    <glyph glyph-name="acircumflex" unicode="&#xe2;" horiz-adv-x="521" 
d="M416 352l13 84h75l-62 -437h-75l8 63q-16 -20 -30 -33q-48 -42 -119 -42q-51 0 -99 30l-5 5q-6 4 -12 9t-14.5 13.5t-14.5 16.5q-42 55 -42 134q0 73 29 130q11 22 36 51q18 20 42 36q51 35 113 35q87 0 137 -64q8 -9 20 -31zM264 379q-61 -2 -104 -52q-14 -18 -24 -43
q-18 -42 -18 -86q0 -57 31 -97q7 -8 18 -18q30 -24 73 -24q77 0 122 63q34 47 34 117q0 54 -27 91l-21 21q-35 30 -84 28zM333 663l113 -131l-43 -42l-79 87l-112 -87l-38 45z" />
    <glyph glyph-name="atilde" unicode="&#xe3;" horiz-adv-x="521" 
d="M416 352l13 84h75l-62 -437h-75l8 63q-16 -20 -30 -33q-48 -42 -119 -42q-51 0 -99 30l-5 5q-6 4 -12 9t-14.5 13.5t-14.5 16.5q-42 55 -42 134q0 73 29 130q11 22 36 51q18 20 42 36q51 35 113 35q87 0 137 -64q8 -9 20 -31zM264 379q-61 -2 -104 -52q-14 -18 -24 -43
q-18 -42 -18 -86q0 -57 31 -97q7 -8 18 -18q30 -24 73 -24q77 0 122 63q34 47 34 117q0 54 -27 91l-21 21q-35 30 -84 28zM438 633l52 -30q-5 -11 -15 -26q-36 -52 -87 -52q-27 0 -63 19q-38 21 -54 21q-33 0 -55 -45l-49 32q16 25 26 37q37 42 76 42q28 0 68 -21
q38 -19 52 -19q10 0 18 4q14 6 31 38z" />
    <glyph glyph-name="adieresis" unicode="&#xe4;" horiz-adv-x="521" 
d="M235 636q12 0 20 -3q13 -4 25.5 -17t12.5 -34q0 -18 -9 -33q-3 -4 -9 -10q-19 -15 -39 -15q-14 0 -25 6q-11 5 -21 18t-10 31q0 14 5 25q15 32 50 32zM414 636q16 0 23 -2q18 -6 28 -21.5t10 -31.5q0 -24 -16.5 -40.5t-40.5 -16.5q-15 0 -24 5q-31 15 -31 50
q0 27 16.5 41t34.5 16zM416 352l12 84h76l-62 -436h-75l9 63q-8 -12 -25 -29q-48 -46 -127 -46q-22 0 -35 3q-41 9 -70 32q-80 60 -80 172q0 79 33 137q14 27 38 51q62 64 149 64q50 0 91 -23q43 -26 66 -72zM265 379q-54 0 -98 -45q-1 -1 -16 -21q-32 -50 -32 -116
q0 -31 9 -56q5 -15 6 -17q13 -26 39.5 -45.5t66.5 -19.5q45 0 79 22.5t51 52.5q12 21 21 58q5 25 5 46q0 39 -15 72q-12 27 -42.5 49t-73.5 20z" />
    <glyph glyph-name="aring" unicode="&#xe5;" horiz-adv-x="521" 
d="M323 673q17 3 41 -8q51 -22 51 -78q0 -22 -11 -42q-24 -44 -76 -44q-40 0 -65 30q-21 23 -21 58q0 16 5 29q10 25 31.5 39.5t44.5 15.5zM323 630q-7 0 -15 -4q-23 -14 -23 -38q0 -18 12.5 -31t31.5 -13q15 0 26 10q16 12 16 35q0 7 -3 16q-13 29 -45 25zM416 353l12 83
h76l-62 -436h-76l9 62q-18 -23 -27 -31q-48 -43 -122 -43q-55 0 -101 31q-21 13 -44 43q-42 55 -42 133q0 77 30.5 132.5t78.5 86.5q51 33 111 33q57 0 101 -29q11 -8 32 -29q11 -13 24 -36zM155 94q17 -14 23 -18.5t22.5 -10.5t37.5 -6q37 0 70 17q88 43 88 164
q0 29 -10 58q-1 1 -2 4.5t-3 8t-5 8.5q-3 5 -7 10t-7.5 9.5t-8 8.5t-7.5 6.5t-6 4.5l-2 2q-28 20 -67 20q-68 0 -113 -57q-40 -51 -40 -126q0 -45 22 -82q4 -8 15 -21z" />
    <glyph glyph-name="ae" unicode="&#xe6;" horiz-adv-x="750" 
d="M726 191h-334q4 -50 21 -79q8 -14 24 -30q10 -7 19 -11q25 -12 51 -12q53 0 93 31q15 13 32 31l67 -39q-16 -18 -24 -26q-32 -32 -64 -45q-47 -22 -102 -22q-68 0 -122 39q-14 10 -34 33q-22 -18 -35 -27q-65 -45 -142 -45q-44 0 -74 14q-6 1 -24 13q-21 12 -36 33
q-25 34 -25 77q0 56 36 94q15 18 37 30q46 23 102 23q60 0 123 -30q8 32 8 53q0 23 -6 38q-21 44 -94 44q-15 0 -31 -2t-29 -5t-28 -8t-23 -8t-19 -7t-13 -5l12 75q2 0 16.5 5t26 8.5t29.5 7.5t37 6.5t36 2.5q18 0 38 -3q39 -5 61.5 -20.5t42.5 -40.5q21 18 41 32
q52 32 113 32q97 0 148 -67q22 -29 35 -80q10 -39 10 -110zM396 258l252 1v8q-1 8 -2 14.5t-3.5 16t-7.5 19.5t-12 19q-34 44 -96 44q-61 0 -99 -48q-6 -8 -12.5 -21t-9.5 -21l-4 -9q-5 -13 -6 -23zM190 207q-33 0 -58 -16q-9 -4 -20 -17q-16 -24 -16 -44q0 -33 25 -53
q26 -21 64 -21q55 0 94 28q32 23 32 53q0 32 -32 50q-35 23 -89 20z" />
    <glyph glyph-name="ccedilla" unicode="&#xe7;" horiz-adv-x="417" 
d="M410 408l-12 -82q-2 2 -9 7.5t-12 8.5q-54 35 -112 35q-48 0 -85 -34q-21 -18 -35 -42q-25 -43 -25 -101q0 -70 44 -108q33 -30 85 -30q55 0 127 41l-12 -85q-60 -29 -127 -29q-88 0 -140 54q-21 21 -33 44q-25 48 -25 116q0 62 25 116q10 23 32 50q22 25 39 37
q54 43 134 43q62 0 141 -41zM217 -35l55 -44l-104 -114l-40 34z" />
    <glyph glyph-name="egrave" unicode="&#xe8;" horiz-adv-x="479" 
d="M453 191h-334q0 -25 11 -54q10 -29 37.5 -53.5t72.5 -24.5q27 0 52 11t37 21.5t29 28.5l68 -39q-9 -12 -19 -22q-70 -71 -168 -71q-114 0 -168 88q-33 52 -33 131q0 45 14 86q26 74 84 114.5t124 40.5q52 0 93 -20q20 -10 37 -27q11 -9 25 -27q40 -58 40 -140
q0 -15 -2 -43zM123 260h252q0 1 -0.5 7.5t-1.5 13t-3 15.5t-6.5 19t-10.5 18q-34 47 -96 47q-8 0 -19 -2t-30 -8.5t-38 -24t-32 -43.5q-7 -14 -15 -42zM244 665l137 -133l-38 -43l-147 121z" />
    <glyph glyph-name="eacute" unicode="&#xe9;" horiz-adv-x="479" 
d="M453 191h-334q0 -25 11 -54q10 -29 37.5 -53.5t72.5 -24.5q27 0 52 11t37 21.5t29 28.5l68 -39q-9 -12 -19 -22q-70 -71 -168 -71q-114 0 -168 88q-33 52 -33 131q0 45 14 86q26 74 84 114.5t124 40.5q52 0 93 -20q20 -10 37 -27q11 -9 25 -27q40 -58 40 -140
q0 -15 -2 -43zM123 260h252q0 1 -0.5 7.5t-1.5 13t-3 15.5t-6.5 19t-10.5 18q-34 47 -96 47q-8 0 -19 -2t-30 -8.5t-38 -24t-32 -43.5q-7 -14 -15 -42zM350 666l47 -54l-150 -121l-35 42z" />
    <glyph glyph-name="ecircumflex" unicode="&#xea;" horiz-adv-x="479" 
d="M453 191h-334q0 -25 11 -54q10 -29 37.5 -53.5t72.5 -24.5q27 0 52 11t37 21.5t29 28.5l68 -39q-9 -12 -19 -22q-70 -71 -168 -71q-114 0 -168 88q-33 52 -33 131q0 45 14 86q26 74 84 114.5t124 40.5q52 0 93 -20q20 -10 37 -27q11 -9 25 -27q40 -58 40 -140
q0 -15 -2 -43zM123 260h252q0 1 -0.5 7.5t-1.5 13t-3 15.5t-6.5 19t-10.5 18q-34 47 -96 47q-8 0 -19 -2t-30 -8.5t-38 -24t-32 -43.5q-7 -14 -15 -42zM313 663l113 -131l-44 -42l-79 87l-111 -87l-39 45z" />
    <glyph glyph-name="edieresis" unicode="&#xeb;" horiz-adv-x="479" 
d="M453 191h-334q0 -25 11 -54q10 -29 37.5 -53.5t72.5 -24.5q27 0 52 11t37 21.5t29 28.5l68 -39q-9 -12 -19 -22q-70 -71 -168 -71q-114 0 -168 88q-33 52 -33 131q0 45 14 86q26 74 84 114.5t124 40.5q52 0 93 -20q20 -10 37 -27q11 -9 25 -27q40 -58 40 -140
q0 -15 -2 -43zM123 260h252q0 1 -0.5 7.5t-1.5 13t-3 15.5t-6.5 19t-10.5 18q-34 47 -96 47q-8 0 -19 -2t-30 -8.5t-38 -24t-32 -43.5q-7 -14 -15 -42zM208 638q15 0 25 -4q36 -14 36 -56q0 -10 -4 -18q-15 -36 -53 -35q-23 0 -38 15q-18 18 -18 42q0 8 4 20q4 11 16.5 22.5
t31.5 13.5zM390 638q24 2 42.5 -15t18.5 -41q0 -16 -6 -28q-18 -30 -49 -29q-9 0 -16 2q-15 3 -27 16q-15 18 -15 40q0 11 5 20q13 31 47 35z" />
    <glyph glyph-name="igrave" unicode="&#xec;" horiz-adv-x="187" 
d="M91 436h81l-61 -436h-81zM98 665l138 -133l-39 -43l-147 121z" />
    <glyph glyph-name="iacute" unicode="&#xed;" horiz-adv-x="187" 
d="M91 436h81l-61 -436h-81zM204 666l47 -54l-150 -121l-35 42z" />
    <glyph glyph-name="icircumflex" unicode="&#xee;" horiz-adv-x="187" 
d="M91 436h81l-61 -436h-81zM167 663l113 -131l-44 -42l-79 87l-111 -87l-39 45z" />
    <glyph glyph-name="idieresis" unicode="&#xef;" horiz-adv-x="187" 
d="M91 436h81l-61 -436h-81zM62 638q15 0 25 -4q37 -15 37 -56q0 -8 -5 -18q-15 -36 -53 -35q-23 0 -38 15q-18 18 -18 42q0 8 4 20q15 32 48 36zM244 638q24 2 42.5 -14.5t18.5 -41.5q0 -16 -6 -28q-5 -11 -19 -20.5t-30 -8.5q-8 0 -16 2q-16 4 -26 16q-15 17 -15 40
q0 11 4 20q13 31 47 35z" />
    <glyph glyph-name="ntilde" unicode="&#xf1;" horiz-adv-x="458" 
d="M379 -1l-80 1l36 261q5 35 5 43q0 20 -8 39q-17 36 -59 36q-39 0 -70 -28q-8 -6 -21 -21q-16 -20 -26.5 -51.5t-14 -53.5t-12.5 -85q-8 -53 -19 -140h-82l61 437h83l-10 -72q8 14 14 21q46 59 123 59q37 0 65 -14t41 -35q17 -26 17 -67q0 -21 -15 -131q-5 -33 -14 -99.5
t-14 -99.5zM407 633l52 -30q-12 -21 -15 -26q-39 -52 -87 -52q-27 0 -63 19q-39 21 -55 21q-33 0 -55 -45l-48 32q11 18 26 37q36 42 76 42q28 0 68 -21q38 -19 52 -19q9 0 17 4q15 6 32 38z" />
    <glyph glyph-name="ograve" unicode="&#xf2;" 
d="M257 449q114 0 172 -71q45 -57 45 -142q0 -108 -64 -176q-68 -72 -170 -72q-52 0 -96 23q-52 26 -80 79q-26 48 -26 108q0 54 17 101q26 70 82 108t120 42zM265 380q-10 0 -21.5 -2t-31 -9t-39 -25t-33.5 -45q-22 -47 -22 -95q0 -82 55 -125q34 -23 71 -23q39 0 74 22
q33 21 49 50q28 43 28 105q0 46 -20 81q-6 13 -16 23q-4 5 -8 9t-5 6q-34 29 -81 28zM255 665l137 -133l-39 -43l-147 121z" />
    <glyph glyph-name="oacute" unicode="&#xf3;" 
d="M257 449q114 0 172 -71q45 -57 45 -142q0 -108 -64 -176q-68 -72 -170 -72q-52 0 -96 23q-52 26 -80 79q-26 48 -26 108q0 54 17 101q26 70 82 108t120 42zM265 380q-10 0 -21.5 -2t-31 -9t-39 -25t-33.5 -45q-22 -47 -22 -95q0 -82 55 -125q34 -23 71 -23q39 0 74 22
q33 21 49 50q28 43 28 105q0 46 -20 81q-6 13 -16 23q-4 5 -8 9t-5 6q-34 29 -81 28zM360 666l47 -54l-149 -121l-35 42z" />
    <glyph glyph-name="ocircumflex" unicode="&#xf4;" 
d="M257 449q114 0 172 -71q45 -57 45 -142q0 -108 -64 -176q-68 -72 -170 -72q-52 0 -96 23q-52 26 -80 79q-26 48 -26 108q0 54 17 101q26 70 82 108t120 42zM265 380q-10 0 -21.5 -2t-31 -9t-39 -25t-33.5 -45q-22 -47 -22 -95q0 -82 55 -125q34 -23 71 -23q39 0 74 22
q33 21 49 50q28 43 28 105q0 46 -20 81q-6 13 -16 23q-4 5 -8 9t-5 6q-34 29 -81 28zM323 663l113 -131l-44 -42l-78 87l-112 -87l-39 45z" />
    <glyph glyph-name="otilde" unicode="&#xf5;" 
d="M257 449q114 0 172 -71q45 -57 45 -142q0 -108 -64 -176q-68 -72 -170 -72q-52 0 -96 23q-52 26 -80 79q-26 48 -26 108q0 54 17 101q26 70 82 108t120 42zM265 380q-10 0 -21.5 -2t-31 -9t-39 -25t-33.5 -45q-22 -47 -22 -95q0 -82 55 -125q34 -23 71 -23q39 0 74 22
q33 21 49 50q28 43 28 105q0 46 -20 81q-6 13 -16 23q-4 5 -8 9t-5 6q-34 29 -81 28zM428 633l52 -30q-12 -21 -15 -26q-39 -52 -88 -52q-25 0 -63 19q-38 21 -54 21q-32 0 -55 -45l-48 32q11 18 26 37q36 42 76 42q28 0 68 -21q38 -19 52 -19q9 0 17 4q15 6 32 38z" />
    <glyph glyph-name="odieresis" unicode="&#xf6;" 
d="M208 636q14 2 25 -3q37 -14 37 -54q0 -8 -4 -20q-15 -35 -53 -35q-11 0 -18 3q-37 15 -37 55q0 9 3 17q4 12 16 23.5t31 13.5zM393 636q1 1 8 0.5t13 -2.5q38 -15 38 -52q0 -28 -17 -43q-15 -15 -39 -15q-12 0 -22 4q-34 15 -34 52q0 22 15.5 38.5t37.5 17.5zM268 449
q42 0 80 -14q35 -13 60.5 -37t37.5 -46t18.5 -50t7.5 -40.5t1 -24.5q0 -72 -29 -128q-13 -25 -36 -51q-68 -70 -166 -70q-56 0 -104 26q-18 9 -28 18q-72 57 -72 166q0 100 55 167q69 84 175 84zM264 380q-37 0 -71 -21q-39 -24 -57 -68t-18 -85q0 -11 2 -31q8 -55 46 -89
q30 -30 79 -30q66 0 111 56q39 50 39 121q0 84 -58 125q-29 22 -73 22z" />
    <glyph glyph-name="divide" unicode="&#xf7;" horiz-adv-x="667" 
d="M438 145q0 -24 -16.5 -40t-40.5 -15q-23 0 -39.5 16t-16.5 39q0 24 16.5 40.5t40.5 16.5t40.5 -16.5t15.5 -40.5zM438 434q0 -23 -16.5 -39t-39.5 -16q-24 1 -40.5 16.5t-16.5 39.5t16.5 40.5t40.5 16.5q24 -1 40.5 -17.5t15.5 -40.5zM714 251h-667v79h667v-79z" />
    <glyph glyph-name="oslash" unicode="&#xf8;" 
d="M457 451l32 -32l-53 -54q9 -15 16 -29q20 -42 20 -97q0 -103 -55 -169q-68 -82 -173 -82q-40 0 -72 12q-21 8 -33 15q-19 11 -37 26l-49 -49l-32 34l53 51q-2 3 -6 10t-6 11q-25 50 -25 107q0 71 31 124.5t75 82.5q58 36 124 36q58 0 105 -26q11 -6 33 -23zM130 132
l221 216q-14 12 -21.5 17.5t-25.5 12t-39 6.5q-42 -1 -77 -23q-31 -19 -51 -52q-24 -40 -24 -99q0 -30 17 -78zM379 310l-223 -217q14 -14 26 -22q26 -19 66 -19q38 0 70 20q43 26 61 70t18 88q0 40 -18 80z" />
    <glyph glyph-name="ugrave" unicode="&#xf9;" horiz-adv-x="458" 
d="M82 436h82q-11 -75 -17 -121q-3 -20 -8.5 -60t-8.5 -60q-5 -40 -5 -47q0 -36 22 -59q26 -28 71 -28q46 0 76 28q8 8 13 15q7 14 8 17q6 13 9.5 26t4.5 22.5t4 32.5t5 40q15 98 27 195h82q-10 -74 -16 -111q-2 -16 -6.5 -49t-6.5 -50q-16 -123 -46 -168q-20 -27 -43 -41
q-49 -29 -114 -29q-54 0 -96 21q-28 16 -43 33q-3 3 -6 7.5l-5 7.5l-2 3q-17 29 -17 78q0 15 1 23q2 26 6 53q1 9 3.5 27t3.5 26q7 47 22 168zM234 665l137 -133l-39 -43l-146 121z" />
    <glyph glyph-name="uacute" unicode="&#xfa;" horiz-adv-x="458" 
d="M82 436h82q-11 -75 -17 -121q-3 -20 -8.5 -60t-8.5 -60q-5 -40 -5 -47q0 -36 22 -59q26 -28 71 -28q46 0 76 28q8 8 13 15q7 14 8 17q6 13 9.5 26t4.5 22.5t4 32.5t5 40q15 98 27 195h82q-10 -74 -16 -111q-2 -16 -6.5 -49t-6.5 -50q-16 -123 -46 -168q-20 -27 -43 -41
q-49 -29 -114 -29q-54 0 -96 21q-28 16 -43 33q-3 3 -6 7.5l-5 7.5l-2 3q-17 29 -17 78q0 15 1 23q2 26 6 53q1 9 3.5 27t3.5 26q7 47 22 168zM339 666l47 -54l-149 -121l-35 42z" />
    <glyph glyph-name="ucircumflex" unicode="&#xfb;" horiz-adv-x="458" 
d="M82 436h82q-11 -75 -17 -121q-3 -20 -8.5 -60t-8.5 -60q-5 -40 -5 -47q0 -36 22 -59q26 -28 71 -28q46 0 76 28q8 8 13 15q7 14 8 17q6 13 9.5 26t4.5 22.5t4 32.5t5 40q15 98 27 195h82q-10 -74 -16 -111q-2 -16 -6.5 -49t-6.5 -50q-16 -123 -46 -168q-20 -27 -43 -41
q-49 -29 -114 -29q-54 0 -96 21q-28 16 -43 33q-3 3 -6 7.5l-5 7.5l-2 3q-17 29 -17 78q0 15 1 23q2 26 6 53q1 9 3.5 27t3.5 26q7 47 22 168zM302 663l113 -131l-43 -42l-79 87l-112 -87l-38 45z" />
    <glyph glyph-name="udieresis" unicode="&#xfc;" horiz-adv-x="458" 
d="M191 637q16 0 24 -3q37 -14 37 -56q0 -10 -4 -19q-14 -35 -53 -35q-23 0 -38 16q-17 17 -17 42q0 12 3 18q13 33 48 37zM420 618q14 -21 14 -36q0 -14 -4 -23q-7 -16 -21.5 -25.5t-30.5 -8.5q-23 0 -39.5 16t-16.5 40t17 41q15 15 40 15q20 0 41 -19zM82 437l81 -1
q-10 -70 -14 -105q-3 -21 -9 -63.5t-9 -64.5q-6 -34 -6 -53q0 -35 19 -57q9 -12 23 -20q13 -7 19 -7q18 -5 32 -5q38 0 66 21q25 19 33 41.5t15 74.5q2 16 8 56q4 28 12.5 89.5t12.5 94.5l82 -1q-15 -102 -23 -164q-4 -29 -10 -77q-18 -129 -76 -171q-47 -35 -123 -35
q-75 0 -121 36q-24 19 -35 43q-14 28 -14 69q0 30 7 70l6 48q4 30 12 90.5t12 90.5z" />
    <glyph glyph-name="ydieresis" unicode="&#xff;" horiz-adv-x="437" 
d="M36 437h85q22 -78 34 -118q14 -50 20 -74q3 -10 30 -125q7 20 18 39q6 12 20 36q26 50 40 74q5 8 44 73q9 16 28 48t28 48h91l-378 -639h-88l145 248zM187 638q15 0 25 -4q37 -15 36 -56q0 -10 -4 -18q-15 -36 -53 -35q-23 0 -38 15q-18 18 -18 42q0 8 4 20q15 32 48 36z
M369 638q24 2 42.5 -14.5t18.5 -41.5q0 -16 -6 -28q-5 -11 -19 -20.5t-30 -8.5q-8 0 -16 2q-16 4 -26 16q-15 17 -15 40q0 11 4 20q13 31 47 35z" />
    <glyph glyph-name="dotlessi" unicode="&#x131;" horiz-adv-x="187" 
d="M91 436h81l-61 -436h-81z" />
    <glyph glyph-name="OE" unicode="&#x152;" horiz-adv-x="1042" 
d="M718 570l19 138h356l-12 -80h-275l-27 -208h274l-12 -80h-274l-36 -259h280l-11 -80h-359l12 88l-6.5 -6.5t-8 -8.5t-7.5 -7q-31 -29 -69 -47q-72 -34 -154 -34q-68 0 -127 23q-63 24 -105 63q-19 19 -28 29q-22 25 -39 62q-38 76 -38 164q0 32 5 72q20 134 109 223
q101 101 255 101q96 0 162 -38q47 -27 79 -62q22 -24 37 -53zM430 642q-123 -9 -194 -93q-73 -89 -73 -216q0 -80 31 -140q14 -27 36 -49q15 -17 33 -30q23 -17 63 -31.5t85 -14.5q32 0 64 7q86 19 139 78q1 1 13 16q10 14 14 21q50 81 50 186q0 96 -43 163q-13 21 -33 39
q-54 50 -124 61q-24 4 -61 3z" />
    <glyph glyph-name="oe" unicode="&#x153;" horiz-adv-x="833" 
d="M805 191l-340 -1q5 -45 24 -75q1 -2 6.5 -9.5t7.5 -9.5q35 -37 88 -37q50 0 91 32q9 6 31 30l67 -39q-15 -19 -38 -39q-65 -55 -151 -55q-85 0 -139 57q-16 16 -31 41q-19 -29 -31 -41q-60 -58 -150 -58q-69 0 -118 34q-19 15 -29 26q-56 60 -56 152q0 111 67 180
q25 25 53 42q48 27 106 27q73 0 123 -39q11 -7 27 -25q11 -13 25 -38q20 30 39 49q57 53 137 53q14 0 28 -2t42.5 -10t54.5 -30.5t42 -57.5q29 -61 24 -157zM260 381q-57 -3 -95 -43q-50 -51 -50 -132q0 -51 24 -91q10 -19 18 -25q34 -37 84 -37q37 0 66 18q36 21 56 56
q30 48 30 111q0 54 -29 94q-39 53 -104 49zM472 259h256q0 32 -10 54q-12 26 -40 46.5t-69 20.5q-77 0 -118 -70q-8 -15 -19 -51z" />
    <glyph glyph-name="Ydieresis" unicode="&#x178;" horiz-adv-x="542" 
d="M519 708h97l-287 -409l-43 -299h-87l43 303l-170 405h91q8 -19 23.5 -57t23.5 -57q30 -72 45 -107q6 -15 40 -107q38 58 58 87l75 108q18 26 51 74.5t40 58.5zM273 891q19 4 39 -13q20 -18 20 -45q0 -20 -16 -37q-17 -17 -40 -17q-12 0 -21 3q-35 14 -35 53q0 15 6 26
q5 10 17.5 19.5t29.5 10.5zM452 891q19 0 29 -5q33 -13 33 -53q0 -12 -4 -20q-16 -35 -51 -34q-14 0 -26 5t-21.5 19t-9.5 33q0 12 4 21q13 31 46 34z" />
    <glyph glyph-name="circumflex" unicode="&#x2c6;" horiz-adv-x="271" 
d="M125 663l113 -131l-43 -42l-79 87l-112 -87l-38 45z" />
    <glyph glyph-name="caron" unicode="&#x2c7;" horiz-adv-x="271" 
d="M222 662l39 -45l-159 -127l-114 130l44 42l79 -87z" />
    <glyph glyph-name="tilde" unicode="&#x2dc;" horiz-adv-x="271" 
d="M230 633l52 -30q-12 -21 -15 -26q-39 -52 -87 -52q-27 0 -63 19q-39 21 -55 21q-32 0 -55 -45l-48 32q11 18 26 37q36 42 76 42q28 0 68 -21q38 -19 52 -19q9 0 17 4q15 6 32 38z" />
    <glyph glyph-name="endash" unicode="&#x2013;" 
d="M64 318h416l-12 -83h-416z" />
    <glyph glyph-name="emdash" unicode="&#x2014;" horiz-adv-x="667" 
d="M714 253h-667v79h667v-79z" />
    <glyph glyph-name="quoteleft" unicode="&#x2018;" horiz-adv-x="208" 
d="M209 715l56 -33l-120 -245l-79 50z" />
    <glyph glyph-name="quoteright" unicode="&#x2019;" horiz-adv-x="208" 
d="M131 708h94q-15 -119 -40 -164q-11 -16 -30 -41l-41 31q26 37 39 72h-35z" />
    <glyph glyph-name="quotesinglbase" unicode="&#x201a;" horiz-adv-x="208" 
d="M86 125l78 -50l-146 -227l-55 33z" />
    <glyph glyph-name="quotedblleft" unicode="&#x201c;" horiz-adv-x="333" 
d="M187 715l59 -26l-99 -212l-78 32zM323 715l61 -29l-97 -205l-78 33z" />
    <glyph glyph-name="quotedblright" unicode="&#x201d;" horiz-adv-x="333" 
d="M169 715l78 -34l-119 -199l-60 30zM309 716l78 -34l-122 -203l-59 27z" />
    <glyph glyph-name="quotedblbase" unicode="&#x201e;" horiz-adv-x="333" 
d="M74 99l77 -35l-120 -198l-60 29zM213 99l78 -34l-124 -202l-58 26z" />
    <glyph glyph-name="dagger" unicode="&#x2020;" horiz-adv-x="542" 
d="M402 767l-42 -290h205l-11 -76h-205l-84 -583h-87l84 583h-209l11 77h208l42 289h88z" />
    <glyph glyph-name="bullet" unicode="&#x2022;" horiz-adv-x="333" 
d="M344 353q0 -28 -11 -55q-34 -75 -117 -75q-55 0 -93.5 37t-38.5 93q0 26 9 48q16 38 49.5 60t73.5 22q55 0 91.5 -37.5t36.5 -92.5z" />
    <glyph glyph-name="ellipsis" unicode="&#x2026;" horiz-adv-x="1000" 
d="M937 51q0 -24 -16 -40.5t-40 -16.5q-23 0 -40 16.5t-17 40.5q0 23 17 39.5t41 16.5q23 0 39 -16.5t16 -39.5zM604 51q0 -24 -16.5 -40.5t-40.5 -16.5q-23 0 -39.5 16.5t-16.5 40.5q0 13 4 22q15 34 53 34q23 0 39.5 -16.5t16.5 -39.5zM270 51q0 -24 -16 -40.5t-40 -16.5
t-40.5 16.5t-16.5 40.5q0 10 4 21q15 35 54 35q23 0 39 -16.5t16 -39.5z" />
    <glyph glyph-name="fraction" unicode="&#x2044;" horiz-adv-x="125" 
d="M284 719l34 -21l-455 -708l-33 22q51 79 143 222t108 168q8 11 22 34t22 35q16 25 35 53q12 19 85 134q26 40 39 61z" />
    <glyph glyph-name="trademark" unicode="&#x2122;" horiz-adv-x="687" 
d="M683 374h-57l2 206q0 34 3 67q-3 -11 -8.5 -30t-7.5 -26l-68 -217h-51l-68 218q-3 9 -8.5 27t-8.5 27q4 -29 4 -66l3 -206h-57v332h79l83 -262l81 262h79v-332zM229 374h-59v283h-106v49h269v-49h-104v-283z" />
    <glyph glyph-name="minus" unicode="&#x2212;" horiz-adv-x="667" 
d="M714 253h-667v79h667v-79z" />
    <glyph glyph-name="Acute" unicode="&#xf6c9;" horiz-adv-x="271" 
d="M213 912l47 -64l-156 -99l-41 55z" />
    <glyph glyph-name="Caron" unicode="&#xf6ca;" horiz-adv-x="271" 
d="M59 909l82 -69l109 69l41 -51l-158 -103l-122 108z" />
    <glyph glyph-name="Dieresis" unicode="&#xf6cb;" horiz-adv-x="271" 
d="M54 891q19 3 39 -13q20 -18 20 -45q0 -21 -15 -37q-19 -17 -41 -17q-11 0 -21 3q-35 15 -35 53q0 15 6 26q5 10 18 19.5t29 10.5zM233 891q19 0 30 -5q33 -14 33 -53q0 -10 -5 -20q-16 -35 -51 -34q-14 0 -26 5t-21.5 19t-9.5 33q0 12 4 21q4 10 16.5 21.5t29.5 12.5z
" />
    <glyph glyph-name="Grave" unicode="&#xf6ce;" horiz-adv-x="271" 
d="M79 909l154 -108l-41 -57l-159 99z" />
    <glyph glyph-name="onefitted" unicode="&#xf6dc;" horiz-adv-x="354" 
d="M106 707h200l-100 -707h-85l87 626h-128z" />
    <glyph glyph-name="fi" unicode="&#xfb01;" horiz-adv-x="417" 
d="M341 741l-12 -76q-28 18 -53 18q-11 0 -20 -3q-27 -11 -34 -40q-6 -16 -17 -85q-3 -20 -8.5 -59t-8.5 -59h87l-10 -68h-87l-54 -369h-81l55 370h-68l9 67h68q16 108 24 161q14 88 51 124q36 36 88 36q25 0 71 -17zM379 688q17 0 24 -3q34 -14 34 -48q0 -22 -16 -37
t-37 -15q-12 0 -20 4q-31 14 -31 49q0 16 12 31t34 19zM320 436h81l-61 -437h-81z" />
    <glyph glyph-name="fl" unicode="&#xfb02;" horiz-adv-x="417" 
d="M341 741l-12 -76q-28 18 -53 18q-11 0 -20 -3q-27 -11 -34 -40q-6 -16 -17 -85q-3 -20 -8.5 -59t-8.5 -59h87l-10 -68h-87l-54 -369h-81l55 370h-68l9 67h68q16 108 24 161q14 88 51 124q36 36 88 36q25 0 71 -17zM362 746h81l-105 -746h-81z" />
    <glyph glyph-name="Circumflex" horiz-adv-x="271" 
d="M154 909l122 -109l-48 -45l-81 69l-110 -69l-40 51z" />
    <glyph glyph-name="Tilde" horiz-adv-x="271" 
d="M258 888l52 -30q-10 -24 -27 -41q-5 -7 -22 -20q-9 -7 -23 -12q-17 -6 -31 -6q-25 0 -55 16q-44 24 -60 24q-36 0 -56 -45l-48 32q31 53 65 70q18 10 37 10q27 0 59 -17q44 -23 61 -23q7 0 16 3q11 5 16.5 12.5t15.5 26.5z" />
    </font>
</defs>
</svg>
