<svg width="83" height="56" viewBox="0 0 83 56" fill="none" xmlns="http://www.w3.org/2000/svg">
<path d="M25.59 16.72C26.64 13.42 27.72 10.09 29.01 7.09L28.08 8.14C24.99 11.62 21.72 15.01 19.23 17.02C17.04 18.76 12 22.42 7.2 22.42C3.36 22.42 0.78 20.41 0.78 17.38C0.78 13.9 4.47 10.93 8.88 10.93C11.97 10.93 14.22 12.52 14.22 14.65C14.22 16.84 11.67 18.82 8.88 18.82C8.31 18.82 8.22 18.79 7.86 18.58L7.92 18.34C8.4 18.46 8.64 18.49 9 18.49C11.4 18.49 13.62 16.6 13.62 14.59C13.62 12.7 11.73 11.29 9.21 11.29C5.28 11.29 2.01 14.02 2.01 17.35C2.01 20.2 4.11 21.97 7.5 21.97C8.73 21.97 10.02 21.73 11.19 21.28C17.16 18.97 21.18 14.86 25.2 10.72C26.94 8.89 27.6 8.11 29.34 6.1C29.61 5.56 29.79 5.17 29.94 4.9C30.21 4.33 30.63 3.4 31.14 2.62C31.68 1.81 32.22 1.3 32.55 1.3C32.64 1.3 32.73 1.39 32.73 1.54C32.73 1.9 32.25 2.71 31.47 3.85L30.9 4.69C30.42 5.41 30.42 7.93 28.05 13.81L30.48 11.32C35.19 6.46 41.43 0.609998 48.12 0.609998C51.78 0.609998 54.12 2.71 54.12 5.95C54.12 9.82 49.77 15.46 43.5 15.46C40.44 15.46 38.4 13.81 38.4 11.38C38.4 8.56 41.07 5.83 44.49 5.29L44.55 5.53C43.59 5.8 43.26 5.89 42.66 6.16C40.53 7.18 39.06 9.22 39.06 11.17C39.06 13.51 40.92 14.95 43.89 14.95C48.6 14.95 53.1 10.87 53.1 6.58C53.1 3.37 50.82 1.33 47.31 1.33C44.25 1.33 39.84 2.53 31.98 10.39L29.22 13.21C27.93 14.5 27.9 14.62 27.36 15.37C27.24 15.61 25.92 18.37 24.51 20.44C23.16 22.42 22.38 23.29 21.99 23.29C21.87 23.29 21.81 23.2 21.81 23.02C21.81 22.3 23.04 20.05 24.33 18.37C25.35 17.05 25.02 17.59 25.59 16.72ZM25.26 18.01C23.58 20.08 22.83 21.37 22.83 21.67C22.83 21.76 22.83 21.79 22.89 21.79C23.01 21.79 23.22 21.58 23.58 21.1C24.27 20.14 24.6 19.48 25.26 18.01ZM54.9525 19.75C54.9525 19.75 52.5525 22.12 50.5725 22.12C50.1525 22.12 49.8525 21.91 49.8525 21.64C49.8525 21.52 49.9125 21.43 50.0025 21.22C49.0725 21.88 48.5025 22.12 47.9025 22.12C47.3925 22.12 47.0625 21.79 47.0625 21.25C47.0625 20.68 47.5125 19.84 48.2025 19.18C49.0125 18.37 50.3625 17.71 51.0825 17.71C51.5325 17.71 51.7425 17.89 51.7425 18.25C51.7425 18.34 51.7425 18.43 51.7125 18.64L52.5225 17.83H53.4525L51.3525 20.71C51.1125 21.04 51.0225 21.16 51.0225 21.31C51.0225 21.43 51.1425 21.52 51.3225 21.52C51.9525 21.52 53.5425 20.56 54.7125 19.42L54.9525 19.75ZM50.9925 18.16C50.6625 18.16 50.0925 18.52 49.6125 19C48.8925 19.66 48.2925 20.71 48.2925 21.16C48.2925 21.37 48.4125 21.46 48.6225 21.46C49.0725 21.46 49.7925 20.98 50.3625 20.26C50.9625 19.51 51.3225 18.88 51.3225 18.52C51.3225 18.31 51.2025 18.16 50.9925 18.16ZM54.7008 22.12C54.1608 22.12 53.8308 21.85 53.8308 21.37C53.8308 21.1 53.9808 20.86 54.2508 20.47L54.5808 19.96L54.1908 20.2L54.0408 20.02C54.4608 19.66 54.5208 19.57 55.0008 19.12C55.5708 18.58 55.7808 18.37 56.2308 17.83H57.4908L55.1508 20.92C55.0908 21.01 55.0308 21.16 55.0308 21.25C55.0308 21.37 55.1508 21.52 55.3608 21.52C55.9008 21.52 57.4608 20.5 58.5708 19.42L58.8108 19.75C58.0308 20.44 56.1408 22.12 54.7008 22.12ZM60.4608 13.6C60.4608 14.05 60.0708 14.38 59.6208 14.38C59.2308 14.38 59.0508 14.2 59.0508 13.87C59.0508 13.42 59.4108 13.09 59.9208 13.09C60.2808 13.09 60.4608 13.24 60.4608 13.6ZM64.928 22.12C64.418 22.12 64.088 21.85 64.088 21.37C64.088 20.92 64.298 20.56 65.408 19.3C65.858 18.82 66.038 18.52 66.038 18.34C66.038 18.25 66.008 18.22 65.888 18.22C65.618 18.22 65.078 18.58 64.328 19.18C63.338 19.96 62.348 21.01 61.658 22H60.518L61.808 20.05C61.808 20.05 62.888 18.46 62.888 18.34C62.888 18.25 62.828 18.22 62.768 18.22C62.498 18.22 61.898 18.58 61.178 19.18C60.158 19.99 59.228 21.01 58.538 22H57.368L58.838 19.75L58.058 20.2L57.908 20.02C58.328 19.66 58.448 19.54 58.868 19.12C59.588 18.46 59.708 18.31 60.068 17.83H61.088L59.978 19.72L60.248 19.48C61.628 18.28 62.498 17.71 63.218 17.71C63.638 17.71 63.848 17.89 63.848 18.22C63.848 18.52 63.758 18.76 63.098 19.72L63.368 19.48C64.748 18.28 65.678 17.71 66.338 17.71C66.788 17.71 67.118 17.95 67.118 18.37C67.118 18.79 66.998 19 66.128 20.05C65.588 20.71 65.348 21.04 65.348 21.25C65.348 21.37 65.468 21.52 65.618 21.52C66.308 21.52 68.258 19.96 68.798 19.42L69.038 19.75C68.408 20.26 66.098 22.12 64.928 22.12ZM75.7826 19.75C75.7826 19.75 73.3826 22.12 71.4026 22.12C70.9826 22.12 70.6826 21.91 70.6826 21.64C70.6826 21.52 70.7426 21.43 70.8326 21.22C69.9026 21.88 69.3326 22.12 68.7326 22.12C68.2226 22.12 67.8926 21.79 67.8926 21.25C67.8926 20.68 68.3426 19.84 69.0326 19.18C69.8426 18.37 71.1926 17.71 71.9126 17.71C72.3626 17.71 72.5726 17.89 72.5726 18.25C72.5726 18.34 72.5726 18.43 72.5426 18.64L73.3526 17.83H74.2826L72.1826 20.71C71.9426 21.04 71.8526 21.16 71.8526 21.31C71.8526 21.43 71.9726 21.52 72.1526 21.52C72.7826 21.52 74.3726 20.56 75.5426 19.42L75.7826 19.75ZM71.8226 18.16C71.4926 18.16 70.9226 18.52 70.4426 19C69.7226 19.66 69.1226 20.71 69.1226 21.16C69.1226 21.37 69.2426 21.46 69.4526 21.46C69.9026 21.46 70.6226 20.98 71.1926 20.26C71.7926 19.51 72.1526 18.88 72.1526 18.52C72.1526 18.31 72.0326 18.16 71.8226 18.16ZM82.8509 19.75C82.5209 20.02 80.3309 22.12 78.7709 22.12C78.2009 22.12 77.8709 21.85 77.8709 21.37C77.8709 20.92 78.0809 20.65 79.2509 19.3C79.7009 18.76 79.8809 18.52 79.8809 18.37C79.8809 18.31 79.7909 18.25 79.7309 18.25C79.4609 18.25 78.8609 18.58 78.1109 19.18C77.0909 19.99 76.1609 21.01 75.5009 22H74.3309L75.8009 19.75L75.0209 20.2L74.8709 20.02C75.2909 19.66 75.4109 19.54 75.8309 19.12C76.5209 18.46 76.7309 18.25 77.0309 17.83H78.0209L76.9109 19.72L77.2109 19.48C78.5609 18.4 79.4909 17.71 80.1209 17.71C80.6009 17.71 80.9009 17.95 80.9009 18.37C80.9009 18.67 80.7509 18.94 80.5709 19.21L79.7909 20.26C79.3709 20.83 79.1909 21.1 79.1909 21.25C79.1909 21.43 79.2809 21.52 79.4609 21.52C80.1809 21.52 82.2509 19.75 82.6109 19.42L82.8509 19.75ZM3.66 52.78C7.8 52.78 12.15 54.31 12.15 54.31C13.38 53.86 13.95 53.47 14.7 52.96C15.45 52.45 16.17 51.85 16.83 51.19C18.24 49.84 19.26 48.4 21.51 44.77C24.24 40.36 25.32 39.07 28.23 36.67C26.85 34.3 22.86 32.65 18.9 32.65C15.33 32.65 12.3 33.7 9.72 35.95C6.84 38.44 4.92 41.89 4.92 44.53C4.92 47.26 6.69 48.88 9.63 48.88C11.61 48.88 13.92 48.01 15.69 46.57C17.43 45.16 18.45 43.36 18.45 41.68C18.45 40.09 17.22 38.98 15.42 38.98C13.23 38.98 11.07 40.66 10.44 42.91L10.23 42.85C10.77 40.48 13.05 38.65 15.45 38.65C17.58 38.65 19.02 39.94 19.02 41.89C19.02 43.66 17.97 45.46 16.17 46.84C14.25 48.34 11.76 49.24 9.51 49.24C5.76 49.24 3.45 47.14 3.45 43.69C3.45 37.87 10.92 32.26 18.72 32.26C20.58 32.26 22.47 32.53 23.94 33.13C25.83 33.91 27.12 34.57 28.56 36.34C30.78 34.45 34.08 33.1 36.48 33.1C38.07 33.1 39.24 33.52 40.02 34.42L39.9 34.57C38.76 33.73 37.98 33.46 36.66 33.46C34.23 33.46 31.95 34.45 28.95 36.85C29.4 37.54 30.45 39.49 30.45 42.43C30.45 45.91 29.1 48.79 26.22 51.49C23.34 54.19 20.4 55.33 16.5 55.33C15.21 55.33 12.09 54.82 12.09 54.82C11.58 54.91 9.12 55.51 6.18 55.51C2.91 55.51 0.69 54.88 0.69 53.95C0.69 53.23 1.83 52.78 3.66 52.78ZM24.9 41.71C23.61 43.9 22.59 45.94 21.6 47.29C20.34 49 18.66 50.8 17.16 51.97C15.9 52.96 14.31 53.89 12.9 54.46C14.13 54.79 15.51 54.94 16.98 54.94C23.79 54.94 29.91 48.79 29.91 42.01C29.91 40 29.52 38.47 28.56 37.15C27.24 38.2 26.04 39.76 24.9 41.71ZM4.08 53.14C2.46 53.14 1.47 53.47 1.47 54.04C1.47 54.73 3.24 55.18 6.09 55.18C8.13 55.18 9.75 55 11.34 54.58C8.64 53.62 6.24 53.14 4.08 53.14ZM35.8324 52.75C34.9624 53.5 32.8924 55.12 31.3324 55.12C30.5224 55.12 30.1024 54.79 30.1024 54.16C30.1024 53.59 30.3724 52.99 30.9724 52.33C31.8424 51.4 33.2524 50.71 34.1524 50.71C34.5424 50.71 34.8124 50.83 34.8124 51.16C34.8124 51.79 34.3024 52.18 31.5124 53.56C31.4824 53.68 31.4224 53.77 31.4224 53.92C31.4224 54.34 31.6324 54.52 32.0824 54.52C32.8924 54.52 34.3324 53.62 35.5924 52.42L35.8324 52.75ZM33.9724 51.37C33.9724 51.25 33.9424 51.16 33.7624 51.16C33.3124 51.16 32.4424 52 31.8724 52.87C33.1624 52.33 33.9724 51.76 33.9724 51.37ZM42.2292 46.87C40.9692 48.01 40.4292 48.46 39.0492 49.54L36.3792 53.89C36.2892 54.04 36.2592 54.13 36.2592 54.22C36.2592 54.37 36.3492 54.46 36.4992 54.46C37.0392 54.46 38.5992 53.47 39.6792 52.42L39.9192 52.75C39.1692 53.41 37.0992 55.12 35.7492 55.12C35.2692 55.12 34.9992 54.94 34.9992 54.46C34.9992 53.89 35.7492 52.81 35.7492 52.81L35.0892 53.2L34.9392 53.02C35.3292 52.69 35.4192 52.57 35.8992 52.12C36.4692 51.58 36.6792 51.37 37.1292 50.83L38.9592 48.04C40.2492 46.09 41.2392 44.83 42.4392 43.54C43.2492 42.67 44.4792 41.47 45.2292 40.87C45.9792 40.27 46.5192 39.97 46.9392 39.97C47.3292 39.97 47.5392 40.21 47.5392 40.63C47.5392 41.17 47.1792 41.86 46.3992 42.79C45.5592 43.81 42.9792 46.18 42.2292 46.87ZM45.2292 43.09C46.0992 42.01 46.6392 41.17 46.6392 40.87C46.6392 40.72 46.5492 40.63 46.3992 40.63C46.2192 40.63 45.8592 40.84 45.4692 41.17C44.7492 41.8 43.9392 42.82 42.2592 45.01L39.7092 48.52C41.6292 46.93 43.8492 44.71 45.2292 43.09ZM47.0515 52.75C47.0515 52.75 44.5915 55.12 42.7915 55.12C42.2515 55.12 41.9815 54.91 41.9815 54.52C41.9815 54.43 42.0115 54.34 42.0415 54.22C41.1415 54.88 40.5115 55.12 39.8515 55.12C39.1915 55.12 38.8315 54.88 38.8315 54.37C38.8315 53.98 39.0115 53.71 39.6415 52.93L39.1615 53.2L39.0115 53.02C39.4315 52.66 39.5515 52.54 39.9715 52.12C40.6615 51.46 40.8415 51.25 41.1715 50.83H42.4615L40.3915 53.68C40.1215 54.01 40.0015 54.22 40.0015 54.34C40.0015 54.52 40.1215 54.64 40.3915 54.64C41.0215 54.64 42.2515 53.68 43.0915 52.54L44.3815 50.83H45.6415L43.5115 53.71C43.2715 54.04 43.1815 54.16 43.1815 54.31C43.1815 54.46 43.2715 54.55 43.4815 54.55C44.0815 54.55 45.6415 53.56 46.8115 52.42L47.0515 52.75ZM47.0599 52.75L46.8199 52.42C47.6899 51.58 48.5599 50.68 49.6099 50.68C50.4199 50.68 50.7199 50.92 50.7199 51.55C51.5899 50.98 52.2199 50.68 52.7599 50.68C53.2999 50.68 53.7199 51.04 53.7199 51.55C53.7199 52 53.2999 52.42 52.8199 52.42C52.4899 52.42 52.2499 52.21 52.2499 51.91C52.2499 51.67 52.6099 51.49 52.6099 51.31C52.6099 51.22 52.5499 51.16 52.3999 51.16C52.0399 51.16 51.4399 51.49 51.0799 51.97C50.8699 52.24 50.0899 53.44 50.0899 54.04C50.0899 54.34 50.3599 54.55 50.7799 54.55C51.7099 54.55 53.1499 53.71 54.4999 52.42L54.7399 52.75C54.1399 53.26 52.0099 55.12 49.9999 55.12C49.3399 55.12 49.0699 54.97 48.8599 54.37C48.4399 54.73 47.7499 55.12 47.0299 55.12C46.4899 55.12 46.1299 54.79 46.1299 54.31C46.1299 53.8 46.4899 53.44 46.9999 53.44C47.3299 53.44 47.5699 53.62 47.5699 53.92C47.5699 54.22 47.2999 54.34 47.2999 54.46C47.2999 54.55 47.3599 54.58 47.5099 54.58C47.8699 54.58 48.5899 54.1 49.0099 53.5C49.3699 52.99 49.6699 52.18 49.6699 51.67C49.6699 51.34 49.5499 51.16 49.2799 51.16C48.6799 51.16 47.7499 52.15 47.0599 52.75ZM59.4457 52.75C58.5757 53.5 56.5057 55.12 54.9457 55.12C54.1357 55.12 53.7157 54.79 53.7157 54.16C53.7157 53.59 53.9857 52.99 54.5857 52.33C55.4557 51.4 56.8657 50.71 57.7657 50.71C58.1557 50.71 58.4257 50.83 58.4257 51.16C58.4257 51.79 57.9157 52.18 55.1257 53.56C55.0957 53.68 55.0357 53.77 55.0357 53.92C55.0357 54.34 55.2457 54.52 55.6957 54.52C56.5057 54.52 57.9457 53.62 59.2057 52.42L59.4457 52.75ZM57.5857 51.37C57.5857 51.25 57.5557 51.16 57.3757 51.16C56.9257 51.16 56.0557 52 55.4857 52.87C56.7757 52.33 57.5857 51.76 57.5857 51.37Z" fill="white"/>
</svg>
