<svg width="35" height="35" viewBox="0 0 35 35" fill="none" xmlns="http://www.w3.org/2000/svg">
<g id="annotation-info">
<path id="Icon" d="M17.501 20.4167V15.3125M17.501 10.2083H17.5156M14.4385 28L16.5676 30.8389C16.8843 31.2611 17.0426 31.4722 17.2367 31.5476C17.4067 31.6138 17.5953 31.6138 17.7653 31.5476C17.9594 31.4722 18.1177 31.2611 18.4343 30.8389L20.5635 28C20.991 27.43 21.2047 27.145 21.4655 26.9274C21.8131 26.6373 22.2235 26.4321 22.6642 26.328C22.9947 26.25 23.351 26.25 24.0635 26.25C26.102 26.25 27.1212 26.25 27.9252 25.917C28.9972 25.4729 29.8489 24.6212 30.293 23.5492C30.626 22.7452 30.626 21.726 30.626 19.6875V11.375C30.626 8.92477 30.626 7.69966 30.1491 6.76379C29.7297 5.94058 29.0604 5.27129 28.2372 4.85185C27.3013 4.375 26.0762 4.375 23.626 4.375H11.376C8.92575 4.375 7.70063 4.375 6.76477 4.85185C5.94156 5.27129 5.27227 5.94058 4.85282 6.76379C4.37598 7.69966 4.37598 8.92477 4.37598 11.375V19.6875C4.37598 21.726 4.37598 22.7452 4.709 23.5492C5.15304 24.6212 6.00474 25.4729 7.07674 25.917C7.88074 26.25 8.89998 26.25 10.9385 26.25C11.651 26.25 12.0072 26.25 12.3378 26.328C12.7784 26.4321 13.1889 26.6373 13.5365 26.9274C13.7972 27.145 14.011 27.43 14.4385 28Z" stroke="#080957" stroke-width="2" stroke-linecap="round" stroke-linejoin="round"/>
</g>
</svg>
