<svg width="25" height="24" viewBox="0 0 25 24" fill="none" xmlns="http://www.w3.org/2000/svg">
<path opacity="0.4" d="M12.5 5.29994V21.3299C12.33 21.3299 12.15 21.2999 12.01 21.2199L11.97 21.1999C10.05 20.1499 6.7 19.0499 4.53 18.7599L4.24 18.7199C3.28 18.5999 2.5 17.6999 2.5 16.7399V4.65994C2.5 3.46994 3.47 2.56994 4.66 2.66994C6.76 2.83994 9.94 3.89994 11.72 5.00994L11.97 5.15994C12.12 5.24994 12.31 5.29994 12.5 5.29994Z" fill="#080957"/>
<path d="M22.5 4.67003V16.74C22.5 17.7 21.72 18.6 20.76 18.72L20.43 18.76C18.25 19.05 14.89 20.16 12.97 21.22C12.84 21.3 12.68 21.33 12.5 21.33V5.30003C12.69 5.30003 12.88 5.25003 13.03 5.16003L13.2 5.05003C14.98 3.93003 18.17 2.86003 20.27 2.68003H20.33C21.52 2.58003 22.5 3.47003 22.5 4.67003Z" fill="#080957"/>
<path d="M8.25 9.23999H6C5.59 9.23999 5.25 8.89999 5.25 8.48999C5.25 8.07999 5.59 7.73999 6 7.73999H8.25C8.66 7.73999 9 8.07999 9 8.48999C9 8.89999 8.66 9.23999 8.25 9.23999Z" fill="#080957"/>
<path d="M9 12.24H6C5.59 12.24 5.25 11.9 5.25 11.49C5.25 11.08 5.59 10.74 6 10.74H9C9.41 10.74 9.75 11.08 9.75 11.49C9.75 11.9 9.41 12.24 9 12.24Z" fill="#080957"/>
</svg>
