<svg width="38" height="34" viewBox="0 0 38 34" fill="none" xmlns="http://www.w3.org/2000/svg">
<path d="M12 26V18C12 17.2633 11.6043 16.5209 11 16C10.3957 15.4791 9.85459 15 9 15H5C4.14541 15 3.60428 15.4791 3 16C2.39572 16.5209 2 17.2633 2 18V26C2 26.7367 2.39572 27.4791 3 28C3.60428 28.5209 4.14541 29 5 29H9C9.85459 29 10.3957 28.5209 11 28C11.6043 27.4791 12 26.7367 12 26ZM12 26V12C12 11.2633 12.3957 10.5209 13 10C13.6043 9.47907 14.1454 10 15 10H18C18.8546 10 19.3957 9.47907 20 10C20.6043 10.5209 21 11.2633 21 12V26M12 26C12 26.7367 12.3957 27.4791 13 28C13.6043 28.5209 14.1454 29 15 29H18C18.8546 29 19.3957 28.5209 20 28C20.6043 27.4791 21 26.7367 21 26M21 26V7C21 6.26329 21.3957 5.52093 22 5C22.6043 4.47907 23.1454 4 24 4H28C28.8546 4 29.3957 4.47907 30 5C30.6043 5.52093 31 6.26329 31 7V26C31 26.7367 30.6043 27.4791 30 28C29.3957 28.5209 28.8546 29 28 29H24C23.1454 29 22.6043 28.5209 22 28C21.3957 27.4791 21 26.7367 21 26Z" stroke="white" stroke-width="2" stroke-linecap="round" stroke-linejoin="round"/>
</svg>
