<svg width="42" height="37" viewBox="0 0 42 37" fill="none" xmlns="http://www.w3.org/2000/svg">
<path d="M18.9999 5C16.106 5.28298 13.2778 6.41275 10.9999 8C8.72208 9.58725 6.96292 11.5954 5.99993 14C5.03695 16.4046 4.35262 19.5158 4.99993 22C5.64725 24.4842 7.9409 27.1983 9.99993 29C12.059 30.8017 15.1609 32.4336 17.9999 33C20.839 33.5664 24.2519 32.8426 26.9999 32C29.748 31.1574 32.1859 29.9931 33.9999 28C35.8139 26.0069 36.6765 23.5322 36.9999 21H18.9999V5Z" stroke="white" stroke-width="2" stroke-linecap="round" stroke-linejoin="round"/>
<path d="M35 13H26V5C28.0752 5.65441 30.443 6.61603 32 8C33.557 9.38397 34.2638 11.1554 35 13Z" stroke="white" stroke-width="2" stroke-linecap="round" stroke-linejoin="round"/>
</svg>
