<svg width="25" height="24" viewBox="0 0 25 24" fill="none" xmlns="http://www.w3.org/2000/svg">
<path opacity="0.4" d="M18.8801 12.8401V17.7701C18.8801 19.0401 17.8901 20.4001 16.7001 20.8001L13.5101 21.8601C12.9501 22.0501 12.0401 22.0501 11.4901 21.8601L8.30012 20.8001C7.10012 20.4001 6.12012 19.0401 6.12012 17.7701L6.13012 12.8401L10.5501 15.7201C11.6301 16.4301 13.4101 16.4301 14.4901 15.7201L18.8801 12.8401Z" fill="#080957"/>
<path d="M20.4795 6.46006L14.4895 2.53006C13.4095 1.82006 11.6295 1.82006 10.5495 2.53006L4.52953 6.46006C2.59953 7.71006 2.59953 10.5401 4.52953 11.8001L6.12953 12.8401L10.5495 15.7201C11.6295 16.4301 13.4095 16.4301 14.4895 15.7201L18.8795 12.8401L20.2495 11.9401V15.0001C20.2495 15.4101 20.5895 15.7501 20.9995 15.7501C21.4095 15.7501 21.7495 15.4101 21.7495 15.0001V10.0801C22.1495 8.79006 21.7395 7.29006 20.4795 6.46006Z" fill="#080957"/>
</svg>
