<svg width="25" height="24" viewBox="0 0 25 24" fill="none" xmlns="http://www.w3.org/2000/svg">
<path opacity="0.4" d="M17.9503 17.3C16.2703 17.3 14.7202 16.51 13.7102 15.12C13.4702 14.79 13.5402 14.32 13.8702 14.07C14.2002 13.82 14.6703 13.9 14.9203 14.23C15.6503 15.22 16.7503 15.79 17.9503 15.79C20.0403 15.79 21.7502 14.09 21.7502 11.99C21.7502 9.89002 20.0503 8.19003 17.9503 8.19003C16.5303 8.19003 15.1902 8.95003 14.4602 10.16L11.8102 14.57C10.8102 16.24 8.98025 17.27 7.04025 17.27C4.12025 17.27 1.74023 14.89 1.74023 11.97C1.74023 9.05003 4.12025 6.67004 7.04025 6.67004C8.72025 6.67004 10.2702 7.46004 11.2802 8.85004C11.5202 9.18004 11.4502 9.65002 11.1202 9.90002C10.7802 10.15 10.3203 10.07 10.0703 9.74002C9.34025 8.75002 8.24025 8.18002 7.04025 8.18002C4.95025 8.18002 3.24023 9.88004 3.24023 11.98C3.24023 14.08 4.94025 15.78 7.04025 15.78C8.46025 15.78 9.80024 15.02 10.5302 13.81L13.1802 9.40002C14.1802 7.73002 16.0103 6.70004 17.9503 6.70004C20.8703 6.70004 23.2502 9.08003 23.2502 12C23.2502 14.92 20.8703 17.3 17.9503 17.3Z" fill="#080957"/>
<path d="M7 14C8.10457 14 9 13.1046 9 12C9 10.8954 8.10457 10 7 10C5.89543 10 5 10.8954 5 12C5 13.1046 5.89543 14 7 14Z" fill="#080957"/>
<path d="M18 14C19.1046 14 20 13.1046 20 12C20 10.8954 19.1046 10 18 10C16.8954 10 16 10.8954 16 12C16 13.1046 16.8954 14 18 14Z" fill="#080957"/>
</svg>
