<svg width="97" height="37" viewBox="0 0 97 37" fill="none" xmlns="http://www.w3.org/2000/svg">
<path d="M25.3938 0.6C25.2604 1.76667 25.1604 2.9 25.0938 4C25.0604 5.1 25.0438 5.93333 25.0438 6.5C25.0438 7.1 25.0604 7.68333 25.0938 8.25C25.1271 8.78333 25.1604 9.23333 25.1938 9.6H24.0438C23.8438 7.63333 23.5604 6.08333 23.1938 4.95C22.8271 3.78333 22.1938 2.96667 21.2938 2.5C20.4271 2 19.1104 1.75 17.3438 1.75H13.1938C12.0604 1.75 11.1938 1.85 10.5938 2.05C10.0271 2.21667 9.64378 2.6 9.44378 3.2C9.24378 3.76666 9.14378 4.66666 9.14378 5.9V30.7C9.14378 31.9 9.24378 32.8 9.44378 33.4C9.64378 34 10.0271 34.4 10.5938 34.6C11.1938 34.7667 12.0604 34.85 13.1938 34.85H16.8438C18.9438 34.85 20.5271 34.5667 21.5938 34C22.6938 33.4333 23.4771 32.5167 23.9438 31.25C24.4438 29.95 24.8104 28.2 25.0438 26H26.1938C26.0938 26.9 26.0438 28.1 26.0438 29.6C26.0438 30.2333 26.0604 31.15 26.0938 32.35C26.1604 33.5167 26.2604 34.7333 26.3938 36C24.6938 35.9333 22.7771 35.9 20.6438 35.9C18.5104 35.8667 16.6104 35.85 14.9438 35.85C14.2104 35.85 13.2604 35.85 12.0938 35.85C10.9604 35.85 9.72711 35.8667 8.39378 35.9C7.06045 35.9 5.71045 35.9167 4.34378 35.95C2.97711 35.95 1.67711 35.9667 0.443781 36V35C1.57711 34.9333 2.42711 34.8 2.99378 34.6C3.59378 34.4 3.99378 34 4.19378 33.4C4.39378 32.8 4.49378 31.9 4.49378 30.7V5.9C4.49378 4.66666 4.39378 3.76666 4.19378 3.2C3.99378 2.6 3.59378 2.2 2.99378 2C2.42711 1.76667 1.57711 1.63333 0.443781 1.6V0.6C1.67711 0.633333 2.97711 0.666666 4.34378 0.699998C5.71045 0.699998 7.06045 0.716665 8.39378 0.749998C9.72711 0.749998 10.9604 0.749998 12.0938 0.749998C13.2604 0.749998 14.2104 0.749998 14.9438 0.749998C16.4771 0.749998 18.2104 0.749998 20.1438 0.749998C22.1104 0.716665 23.8604 0.666666 25.3938 0.6ZM16.7938 17.7C16.7938 17.7 16.7938 17.8667 16.7938 18.2C16.7938 18.5333 16.7938 18.7 16.7938 18.7H7.64378C7.64378 18.7 7.64378 18.5333 7.64378 18.2C7.64378 17.8667 7.64378 17.7 7.64378 17.7H16.7938ZM18.2438 11.1C18.1104 13 18.0438 14.45 18.0438 15.45C18.0771 16.45 18.0938 17.3667 18.0938 18.2C18.0938 19.0333 18.1104 19.95 18.1438 20.95C18.1771 21.95 18.2604 23.4 18.3938 25.3H17.2438C17.1104 24.2333 16.9438 23.2 16.7438 22.2C16.5771 21.1667 16.1771 20.3333 15.5438 19.7C14.9438 19.0333 13.9104 18.7 12.4438 18.7V17.7C13.5438 17.7 14.3771 17.4833 14.9438 17.05C15.5438 16.5833 15.9771 16 16.2438 15.3C16.5104 14.6 16.6938 13.8833 16.7938 13.15C16.8938 12.3833 16.9938 11.7 17.0938 11.1H18.2438ZM31.9125 0.6C32.6125 0.633333 33.5292 0.666666 34.6625 0.699998C35.7959 0.733331 36.9125 0.749998 38.0125 0.749998C39.5792 0.749998 41.0792 0.733331 42.5125 0.699998C43.9459 0.666666 44.9625 0.649999 45.5625 0.649999C48.2625 0.649999 50.4959 1.03333 52.2625 1.8C54.0625 2.56667 55.3959 3.61667 56.2625 4.95C57.1625 6.25 57.6125 7.71667 57.6125 9.35C57.6125 10.35 57.4125 11.4167 57.0125 12.55C56.6125 13.6833 55.9125 14.75 54.9125 15.75C53.9459 16.75 52.6125 17.5833 50.9125 18.25C49.2125 18.8833 47.0625 19.2 44.4625 19.2H39.6625V18.2H43.9625C46.3292 18.2 48.1292 17.8333 49.3625 17.1C50.6292 16.3333 51.4792 15.3333 51.9125 14.1C52.3792 12.8333 52.6125 11.4333 52.6125 9.9C52.6125 7.26667 51.9792 5.23333 50.7125 3.8C49.4792 2.33333 47.3459 1.6 44.3125 1.6C42.7792 1.6 41.7792 1.88333 41.3125 2.45C40.8459 3.01667 40.6125 4.16666 40.6125 5.9V30.7C40.6125 31.9 40.7125 32.8 40.9125 33.4C41.1125 34 41.4959 34.4 42.0625 34.6C42.6625 34.8 43.5292 34.9333 44.6625 35V36C43.8959 35.9333 42.9292 35.9 41.7625 35.9C40.6292 35.8667 39.4792 35.85 38.3125 35.85C37.0125 35.85 35.7959 35.8667 34.6625 35.9C33.5292 35.9 32.6125 35.9333 31.9125 36V35C33.0459 34.9333 33.8959 34.8 34.4625 34.6C35.0625 34.4 35.4625 34 35.6625 33.4C35.8625 32.8 35.9625 31.9 35.9625 30.7V5.9C35.9625 4.66666 35.8625 3.76666 35.6625 3.2C35.4625 2.6 35.0625 2.2 34.4625 2C33.8959 1.76667 33.0459 1.63333 31.9125 1.6V0.6ZM39.8625 18.35C41.6625 18.4167 43.0792 18.5 44.1125 18.6C45.1459 18.6667 45.9792 18.7333 46.6125 18.8C47.2792 18.8667 47.9125 18.95 48.5125 19.05C50.7459 19.4167 52.3459 20.1 53.3125 21.1C54.3125 22.0667 55.0459 23.5833 55.5125 25.65L56.7625 30.75C57.0959 32.2167 57.4292 33.2833 57.7625 33.95C58.1292 34.5833 58.6792 34.8833 59.4125 34.85C59.9792 34.8167 60.4459 34.6333 60.8125 34.3C61.2125 33.9667 61.6292 33.5167 62.0625 32.95L62.8125 33.5C62.1125 34.5333 61.3792 35.3333 60.6125 35.9C59.8792 36.4333 58.8292 36.7 57.4625 36.7C56.2292 36.7 55.1459 36.3333 54.2125 35.6C53.2792 34.8667 52.5792 33.4333 52.1125 31.3L51.0125 26.3C50.7125 24.8667 50.3625 23.6333 49.9625 22.6C49.5959 21.5333 49.0625 20.7 48.3625 20.1C47.6959 19.5 46.6959 19.2 45.3625 19.2H39.9625L39.8625 18.35ZM65.3344 0.6C66.0344 0.633333 66.9511 0.666666 68.0844 0.699998C69.2177 0.733331 70.3344 0.749998 71.4344 0.749998C73.0011 0.749998 74.5011 0.733331 75.9344 0.699998C77.3677 0.666666 78.3844 0.649999 78.9844 0.649999C81.6844 0.649999 83.9177 1.03333 85.6844 1.8C87.4844 2.56667 88.8177 3.61667 89.6844 4.95C90.5844 6.25 91.0344 7.71667 91.0344 9.35C91.0344 10.35 90.8344 11.4167 90.4344 12.55C90.0344 13.6833 89.3344 14.75 88.3344 15.75C87.3677 16.75 86.0344 17.5833 84.3344 18.25C82.6344 18.8833 80.4844 19.2 77.8844 19.2H73.0844V18.2H77.3844C79.7511 18.2 81.5511 17.8333 82.7844 17.1C84.0511 16.3333 84.9011 15.3333 85.3344 14.1C85.8011 12.8333 86.0344 11.4333 86.0344 9.9C86.0344 7.26667 85.4011 5.23333 84.1344 3.8C82.9011 2.33333 80.7677 1.6 77.7344 1.6C76.2011 1.6 75.2011 1.88333 74.7344 2.45C74.2677 3.01667 74.0344 4.16666 74.0344 5.9V30.7C74.0344 31.9 74.1344 32.8 74.3344 33.4C74.5344 34 74.9177 34.4 75.4844 34.6C76.0844 34.8 76.9511 34.9333 78.0844 35V36C77.3177 35.9333 76.3511 35.9 75.1844 35.9C74.0511 35.8667 72.9011 35.85 71.7344 35.85C70.4344 35.85 69.2177 35.8667 68.0844 35.9C66.9511 35.9 66.0344 35.9333 65.3344 36V35C66.4677 34.9333 67.3177 34.8 67.8844 34.6C68.4844 34.4 68.8844 34 69.0844 33.4C69.2844 32.8 69.3844 31.9 69.3844 30.7V5.9C69.3844 4.66666 69.2844 3.76666 69.0844 3.2C68.8844 2.6 68.4844 2.2 67.8844 2C67.3177 1.76667 66.4677 1.63333 65.3344 1.6V0.6ZM73.2844 18.35C75.0844 18.4167 76.5011 18.5 77.5344 18.6C78.5677 18.6667 79.4011 18.7333 80.0344 18.8C80.7011 18.8667 81.3344 18.95 81.9344 19.05C84.1677 19.4167 85.7677 20.1 86.7344 21.1C87.7344 22.0667 88.4677 23.5833 88.9344 25.65L90.1844 30.75C90.5177 32.2167 90.8511 33.2833 91.1844 33.95C91.5511 34.5833 92.1011 34.8833 92.8344 34.85C93.4011 34.8167 93.8677 34.6333 94.2344 34.3C94.6344 33.9667 95.0511 33.5167 95.4844 32.95L96.2344 33.5C95.5344 34.5333 94.8011 35.3333 94.0344 35.9C93.3011 36.4333 92.2511 36.7 90.8844 36.7C89.6511 36.7 88.5677 36.3333 87.6344 35.6C86.7011 34.8667 86.0011 33.4333 85.5344 31.3L84.4344 26.3C84.1344 24.8667 83.7844 23.6333 83.3844 22.6C83.0177 21.5333 82.4844 20.7 81.7844 20.1C81.1177 19.5 80.1177 19.2 78.7844 19.2H73.3844L73.2844 18.35Z" fill="white"/>
</svg>
