<svg width="38" height="39" viewBox="0 0 38 39" fill="none" xmlns="http://www.w3.org/2000/svg">
<path d="M32.0625 0.609375H23.75C22.7679 0.609375 21.9688 1.42959 21.9688 2.4375V3.65625C20.6589 3.65625 19.5938 4.74947 19.5938 6.09375C19.5938 7.43803 20.6589 8.53125 21.9688 8.53125V11.5781H26.7188V10.3594C26.7188 9.68723 27.2513 9.14062 27.9062 9.14062C28.5612 9.14062 29.0938 9.68723 29.0938 10.3594V11.5781H32.0625C33.0446 11.5781 33.8438 10.7579 33.8438 9.75V2.4375C33.8438 1.42959 33.0446 0.609375 32.0625 0.609375ZM32.6562 9.75C32.6562 10.0858 32.3903 10.3594 32.0625 10.3594H30.2812C30.2812 9.01509 29.2161 7.92188 27.9062 7.92188C26.5964 7.92188 25.5312 9.01509 25.5312 10.3594H23.1562V7.3125H21.9688C21.3138 7.3125 20.7812 6.76589 20.7812 6.09375C20.7812 5.42161 21.3138 4.875 21.9688 4.875H23.1562V2.4375C23.1562 2.10173 23.4223 1.82812 23.75 1.82812H32.0625C32.3903 1.82812 32.6562 2.10173 32.6562 2.4375V9.75Z" fill="#28A352"/>
<path d="M21.9688 12.7969C20.6589 12.7969 19.5938 13.8901 19.5938 15.2344H17.2188V12.1875H16.0312C15.3763 12.1875 14.8438 11.6409 14.8438 10.9688C14.8438 10.2966 15.3763 9.75 16.0312 9.75H17.2188V4.26562H15.6269C9.30228 4.26562 4.15625 9.54708 4.15625 16.0381C4.15625 19.5835 5.68991 22.9046 8.36356 25.1495L10.6875 27.1013V28.7534C9.99816 29.0056 9.5 29.676 9.5 30.4694C9.5 31.3121 10.0611 32.0166 10.8181 32.2268C10.7356 32.437 10.6875 32.6655 10.6875 32.9062C10.6875 33.7118 11.2011 34.3895 11.9071 34.6326C12.1529 36.7459 13.9074 38.3906 16.0312 38.3906C18.1551 38.3906 19.9096 36.7459 20.1554 34.6326C20.8614 34.3895 21.375 33.7118 21.375 32.9062C21.375 32.6655 21.3269 32.437 21.2444 32.2262C22.0014 32.0153 22.5625 31.3115 22.5625 30.4688C22.5625 29.6753 22.0643 29.005 21.375 28.7527V27.1007L23.6989 25.1489C26.3726 22.9046 27.9062 19.5835 27.9062 16.0381V15.2344H24.3438C24.3438 13.8901 23.2786 12.7969 21.9688 12.7969ZM15.6269 5.48438H16.0312V8.53125C14.7214 8.53125 13.6562 9.62447 13.6562 10.9688C13.6562 12.313 14.7214 13.4062 16.0312 13.4062V15.2344H13.6562C13.6562 13.8901 12.5911 12.7969 11.2812 12.7969C9.97144 12.7969 8.90625 13.8901 8.90625 15.2344H5.37344C5.77481 9.789 10.2202 5.48438 15.6269 5.48438ZM9.11525 24.2062C6.82278 22.2812 5.46547 19.4744 5.35206 16.4531H10.0938V15.2344C10.0938 14.5622 10.6263 14.0156 11.2812 14.0156C11.9362 14.0156 12.4688 14.5622 12.4688 15.2344V16.4531H16.0312V18.8906C14.7214 18.8906 13.6562 19.9838 13.6562 21.3281C13.6562 22.6724 14.7214 23.7656 16.0312 23.7656V28.6406H11.875V26.5237L9.11525 24.2062ZM16.0312 37.1719C14.5979 37.1719 13.3986 36.1231 13.1225 34.7344H18.94C18.6639 36.1231 17.4646 37.1719 16.0312 37.1719ZM19.5938 33.5156H12.4688C12.141 33.5156 11.875 33.242 11.875 32.9062C11.875 32.5705 12.141 32.2969 12.4688 32.2969H19.5938C19.9215 32.2969 20.1875 32.5705 20.1875 32.9062C20.1875 33.242 19.9215 33.5156 19.5938 33.5156ZM20.7812 31.0781H19.5938H12.4688H11.2812C10.9535 31.0781 10.6875 30.8045 10.6875 30.4688C10.6875 30.133 10.9535 29.8594 11.2812 29.8594H20.7812C21.109 29.8594 21.375 30.133 21.375 30.4688C21.375 30.8045 21.109 31.0781 20.7812 31.0781ZM22.9472 24.2062L20.1875 26.5237V28.6406H17.2188V22.5469H16.0312C15.3763 22.5469 14.8438 22.0003 14.8438 21.3281C14.8438 20.656 15.3763 20.1094 16.0312 20.1094H17.2188V16.4531H20.7812V15.2344C20.7812 14.5622 21.3138 14.0156 21.9688 14.0156C22.6237 14.0156 23.1562 14.5622 23.1562 15.2344V16.4531H26.7104C26.597 19.4744 25.2397 22.2812 22.9472 24.2062Z" fill="#28A352"/>
</svg>
