<svg width="40" height="41" viewBox="0 0 40 41" fill="none" xmlns="http://www.w3.org/2000/svg">
<path d="M30 20.499C30.3452 20.499 30.625 20.2122 30.625 19.8584C30.625 19.5046 30.3452 19.2178 30 19.2178C29.6548 19.2178 29.375 19.5046 29.375 19.8584C29.375 20.2122 29.6548 20.499 30 20.499Z" fill="#FD7634"/>
<path d="M36.2025 26.1343L35 25.782V25.313L36.6937 24.0728C38.3725 22.8447 39.375 20.8485 39.375 18.7338C39.375 15.1155 36.5031 12.1719 32.9731 12.1719H28.125C26.7463 12.1719 25.625 13.3212 25.625 14.7344C25.625 15.7952 26.2131 16.6056 27.2806 17.0156C27.425 17.0707 27.5669 17.113 27.7056 17.1489C27.1125 18.2155 26.25 20.1547 26.25 22.4212V22.8831L28.1262 23.5244C28.1481 24.2387 28.4394 24.9312 28.9331 25.4367C29.2375 25.7486 29.6044 25.9671 30.0006 26.1048V27.281L29.0406 28.265C28.9656 28.3419 28.8956 28.4233 28.8294 28.5078L27.5 26.6929V25.6455C27.5 25.0472 27.2731 24.486 26.8612 24.0638C26.3056 23.4943 25.5106 23.2854 24.7744 23.4808C24.92 23.1509 25 22.7909 25 22.4219C25 21.9798 24.8806 21.5698 24.6875 21.2066C24.8913 20.5333 25 19.8357 25 19.1271C25 15.2924 21.9556 12.1719 18.2138 12.1719H16.875V7.6875C16.875 6.62791 16.0337 5.76562 15 5.76562H2.5C1.46625 5.76562 0.625 6.62791 0.625 7.6875V12.8125C0.625 13.8721 1.46625 14.7344 2.5 14.7344H5.23875L6.1025 16.5051C6.34062 16.9939 6.82 17.2969 7.3525 17.2969C8.12313 17.2969 8.75 16.6543 8.75 15.8644V14.7344H11.5306C10.575 15.933 10 17.4622 10 19.1271C10 19.8357 10.1088 20.5327 10.3125 21.2066C10.1194 21.5698 10 21.9798 10 22.4219C10 23.8351 11.1213 24.9844 12.5 24.9844H12.6644C13.0031 26.3265 13.8575 27.4546 15 28.135V28.98L11.3488 30.0005C9.45063 30.5303 8.125 32.3099 8.125 34.3266V40.3594H26.875V34.4983L26.9869 34.6412C27.3138 35.0601 27.7 35.4125 28.125 35.6982V40.3594H39.375V30.4457C39.375 28.454 38.0706 26.6807 36.2025 26.1343ZM26.875 14.7344C26.875 14.0278 27.4356 13.4531 28.125 13.4531H32.9731C35.8138 13.4531 38.125 15.8222 38.125 18.7338C38.125 20.4353 37.3181 22.0413 35.9675 23.0305L35 23.739V22.6865L35.7006 21.9683C36.055 21.6057 36.25 21.1227 36.25 20.6095V20.4994C36.25 19.664 35.7275 18.9516 35 18.687V17.9369C35 16.8773 34.1587 16.015 33.125 16.015H28.7519C28.675 16.0143 26.875 15.9887 26.875 14.7344ZM29.375 23.4373V22.6L27.5138 21.9638C27.6437 19.778 28.6687 17.9497 29.0806 17.2962H33.125C33.4694 17.2962 33.75 17.5832 33.75 17.9369V19.8587H34.375C34.7194 19.8587 35 20.1457 35 20.4994V20.6095C35 20.778 34.9331 20.9433 34.8169 21.0625L33.75 22.156V25.9998L31.875 27.9223L31.25 27.281V26.265H32.5V24.9837H30.8838C30.4806 24.9837 30.1019 24.8229 29.8169 24.5308C29.5363 24.2432 29.375 23.8447 29.375 23.4373ZM29.9237 29.1709L30.625 28.4527L31.875 29.7346L34.5569 26.985L35.8594 27.3669C36.4031 27.5257 36.875 27.8358 37.2487 28.2375C37.0894 28.2074 36.9263 28.1875 36.7581 28.1875C36.3194 28.1875 35.8856 28.3028 35.5025 28.5213L30.7981 31.1997L29.6225 29.5937C29.7062 29.4399 29.8031 29.2945 29.9237 29.1709ZM25.9769 24.9703C26.1531 25.1509 26.25 25.3905 26.25 25.6455V26.577L23.7319 28.4207L22.0681 26.2893C21.9431 26.1298 21.8744 25.9287 21.8744 25.7237V25.625C21.8744 25.3828 21.9662 25.1561 22.1331 24.9844L22.5 24.609C22.6669 24.4373 22.8888 24.3438 23.125 24.3438C23.3612 24.3438 23.5831 24.4373 23.75 24.609L24.2512 25.1227L24.9006 24.7909C25.26 24.6064 25.6919 24.6775 25.9769 24.9703ZM19.62 30.201L20.1887 30.3599L19.6162 33.2939L18.3256 31.971L19.62 30.201ZM20 28.9793V28.1362C20.4312 27.8806 20.8194 27.5546 21.1613 27.1772L23.2844 29.8973L20 28.9793ZM22.4994 21.1406H22.5C23.1894 21.1406 23.75 21.7153 23.75 22.4219C23.75 22.6749 23.6725 22.9177 23.5387 23.1259C23.1937 23.0606 22.8369 23.0804 22.5 23.1823L22.4994 21.1406ZM7.5 13.4531V15.8644C7.5 16.006 7.28188 16.0585 7.22063 15.9317L6.01125 13.4531H2.5C2.15562 13.4531 1.875 13.1661 1.875 12.8125V7.6875C1.875 7.33388 2.15562 7.04688 2.5 7.04688H15C15.3444 7.04688 15.625 7.33388 15.625 7.6875V12.2814C14.6144 12.4614 13.6806 12.8682 12.875 13.4531H7.5ZM16.7862 13.4531H18.2138C21.2663 13.4531 23.75 15.999 23.75 19.1271C23.75 19.4763 23.7175 19.8229 23.6569 20.1637C23.3094 19.976 22.9194 19.8594 22.5 19.8594H21.9594C21.5762 19.7479 19.5075 19.0893 17.9419 17.4846L17.5 17.0317L17.0581 17.4846C15.4925 19.0893 13.4231 19.7479 13.0406 19.8594H12.5C12.0806 19.8594 11.6906 19.976 11.3431 20.1637C11.2825 19.8229 11.25 19.4769 11.25 19.1271C11.25 15.999 13.7338 13.4531 16.7862 13.4531ZM11.25 22.4219C11.25 21.7153 11.8106 21.1406 12.5 21.1406V23.7031C11.8106 23.7031 11.25 23.1285 11.25 22.4219ZM13.75 23.7031V20.976C14.5219 20.712 16.1 20.065 17.5 18.8132C18.9 20.065 20.4781 20.712 21.25 20.976V23.7031C21.25 23.8428 21.2331 23.9799 21.2188 24.117C20.8381 24.5257 20.625 25.058 20.625 25.625V25.723C20.625 25.7499 20.6306 25.7768 20.6319 25.8037C19.9419 26.8806 18.7619 27.5469 17.5 27.5469C15.4319 27.5469 13.75 25.823 13.75 23.7031ZM17.5 28.8281C17.9263 28.8281 18.3456 28.7692 18.75 28.6609V29.2554L17.5 30.9633L16.25 29.2554V28.659C16.6506 28.766 17.0675 28.8281 17.5 28.8281ZM15.38 30.201L16.675 31.971L15.3844 33.2939L14.8119 30.3599L15.38 30.201ZM25.625 39.0781H23.125V35.2344H21.875V39.0781H13.125V35.2344H11.875V39.0781H9.375V34.3266C9.375 32.8858 10.3219 31.6155 11.6781 31.2362L13.6025 30.6981L14.6163 35.8929L17.5 32.9371L20.3837 35.8929L21.3975 30.6981L24.61 31.5963L25.625 32.8967V39.0781ZM24.5138 29.422L26.7412 27.791L29.7994 31.9704L28.9325 32.8596L29.8169 33.7654L30.695 32.8647C30.9 32.6552 31.1331 32.4752 31.3881 32.3291L36.1094 29.6411C36.3075 29.5283 36.5319 29.4688 36.7887 29.4688C37.5256 29.4688 38.125 30.0831 38.125 30.8384C38.125 31.3394 37.8581 31.8 37.4287 32.0402L32.5269 34.7808C31.9963 35.0774 31.3962 35.2344 30.7919 35.2344C29.685 35.2344 28.6544 34.7264 27.9631 33.8404L24.5138 29.422ZM29.375 39.0781V36.2946C29.8288 36.4355 30.3037 36.5156 30.7919 36.5156C31.605 36.5156 32.4119 36.3049 33.1256 35.9058L38.0275 33.1652C38.0619 33.1459 38.0925 33.1216 38.1256 33.1011V39.0781H29.375Z" fill="#FD7634"/>
<path d="M20 23.7031H18.75C18.75 24.4097 18.1894 24.9844 17.5 24.9844C16.8106 24.9844 16.25 24.4097 16.25 23.7031H15C15 25.1163 16.1212 26.2656 17.5 26.2656C18.8788 26.2656 20 25.1163 20 23.7031Z" fill="#FD7634"/>
<path d="M19.375 22.4219C19.7202 22.4219 20 22.1351 20 21.7812C20 21.4274 19.7202 21.1406 19.375 21.1406C19.0298 21.1406 18.75 21.4274 18.75 21.7812C18.75 22.1351 19.0298 22.4219 19.375 22.4219Z" fill="#FD7634"/>
<path d="M15.625 22.4219C15.9702 22.4219 16.25 22.1351 16.25 21.7812C16.25 21.4274 15.9702 21.1406 15.625 21.1406C15.2798 21.1406 15 21.4274 15 21.7812C15 22.1351 15.2798 22.4219 15.625 22.4219Z" fill="#FD7634"/>
<path d="M16.875 36.5156H18.125V37.7969H16.875V36.5156Z" fill="#FD7634"/>
<path d="M16.875 33.9531H18.125V35.2344H16.875V33.9531Z" fill="#FD7634"/>
<path d="M21.875 3.20312H23.125V4.48438H21.875V3.20312Z" fill="#FD7634"/>
<path d="M24.375 3.20312H33.125V4.48438H24.375V3.20312Z" fill="#FD7634"/>
<path d="M21.875 5.76562H33.125V7.04688H21.875V5.76562Z" fill="#FD7634"/>
<path d="M21.25 9.60938H22.1137L22.9775 11.3801C23.2156 11.8689 23.695 12.1719 24.2275 12.1719C24.9981 12.1719 25.625 11.5293 25.625 10.7394V9.60938H33.75C34.7837 9.60938 35.625 8.74709 35.625 7.6875V2.5625C35.625 1.50291 34.7837 0.640625 33.75 0.640625H21.25C20.2162 0.640625 19.375 1.50291 19.375 2.5625V7.6875C19.375 8.74709 20.2162 9.60938 21.25 9.60938ZM20.625 2.5625C20.625 2.20888 20.9056 1.92188 21.25 1.92188H33.75C34.0944 1.92188 34.375 2.20888 34.375 2.5625V7.6875C34.375 8.04112 34.0944 8.32812 33.75 8.32812H24.375V10.7394C24.375 10.881 24.1569 10.9342 24.0956 10.8067L22.8863 8.32812H21.25C20.9056 8.32812 20.625 8.04112 20.625 7.6875V2.5625Z" fill="#FD7634"/>
<path d="M3.125 8.32812H4.375V9.60938H3.125V8.32812Z" fill="#FD7634"/>
<path d="M5.625 8.32812H14.375V9.60938H5.625V8.32812Z" fill="#FD7634"/>
<path d="M3.125 10.8906H14.375V12.1719H3.125V10.8906Z" fill="#FD7634"/>
</svg>
