<svg width="48" height="48" viewBox="0 0 48 48" fill="none" xmlns="http://www.w3.org/2000/svg">
<path d="M48 20.1286H39.871L37.5484 23.2254H36.7308C35.8676 22.2204 34.8511 21.3952 33.7254 20.7673C32.1848 12.7497 25.2333 6.96729 17.0323 6.96729C7.64052 6.96729 0 14.6078 0 23.9995C0 33.3913 7.64052 41.0318 17.0323 41.0318C25.2333 41.0318 32.1848 35.2493 33.7254 27.2318C34.8511 26.6039 35.8676 25.7786 36.7308 24.7737H37.5484L39.871 27.8705H48L45.0968 23.9995L48 20.1286ZM17.0323 39.4834C8.49445 39.4834 1.54839 32.5374 1.54839 23.9995C1.54839 15.4617 8.49445 8.51567 17.0323 8.51567C24.1092 8.51567 30.1688 13.2491 31.9641 19.9629C31.1272 19.6741 30.2508 19.4937 29.3528 19.4117C27.4397 14.2648 22.5608 10.8383 17.0323 10.8383C9.77497 10.8383 3.87097 16.7423 3.87097 23.9995C3.87097 31.2568 9.77497 37.1608 17.0323 37.1608C22.5608 37.1608 27.4397 33.7343 29.3528 28.5874C30.2508 28.5054 31.1272 28.325 31.9641 28.0362C30.1688 34.75 24.1092 39.4834 17.0323 39.4834ZM19.2124 24.7737C18.8919 25.6726 18.0403 26.3221 17.0323 26.3221C15.7517 26.3221 14.7097 25.2801 14.7097 23.9995C14.7097 22.719 15.7517 21.677 17.0323 21.677C18.0403 21.677 18.8919 22.3265 19.2124 23.2254H17.0323V24.7737H19.2124ZM17.0323 20.1286C14.8978 20.1286 13.1613 21.8651 13.1613 23.9995C13.1613 26.134 14.8978 27.8705 17.0323 27.8705C18.5992 27.8705 19.9448 26.9306 20.5533 25.589C21.3174 26.3175 22.1737 26.9237 23.0973 27.4014C21.8725 29.5838 19.5739 30.9673 17.0323 30.9673C13.1907 30.9673 10.0645 27.8411 10.0645 23.9995C10.0645 20.158 13.1907 17.0318 17.0323 17.0318C19.5739 17.0318 21.8725 18.4153 23.0965 20.5977C22.1737 21.0754 21.3174 21.6816 20.5533 22.4101C19.9448 21.0684 18.5992 20.1286 17.0323 20.1286ZM21.1471 23.9995C22.3471 22.6865 23.8707 21.7614 25.5484 21.2814V26.7177C23.8707 26.2377 22.3471 25.3126 21.1471 23.9995ZM24.5311 19.9683C23.0555 17.2223 20.1917 15.4834 17.0323 15.4834C12.3368 15.4834 8.51613 19.3041 8.51613 23.9995C8.51613 28.695 12.3368 32.5157 17.0323 32.5157C20.1917 32.5157 23.0555 30.7768 24.5311 28.0308C25.5329 28.3792 26.5935 28.5681 27.6797 28.6168C25.8542 32.8408 21.7045 35.6124 17.0323 35.6124C10.6289 35.6124 5.41935 30.4029 5.41935 23.9995C5.41935 17.5962 10.6289 12.3866 17.0323 12.3866C21.7045 12.3866 25.8542 15.1583 27.679 19.3823C26.5935 19.431 25.5329 19.6207 24.5311 19.9683ZM27.0975 27.0313V20.9678C27.4552 20.9275 27.8168 20.9028 28.183 20.9028H28.3324C28.6986 20.9028 29.0601 20.9275 29.4186 20.9678V27.0313C29.0609 27.0715 28.6994 27.0963 28.3332 27.0963H28.1837C27.8175 27.0963 27.456 27.0715 27.0975 27.0313ZM30.9677 26.7177V21.2814C32.6454 21.7614 34.169 22.6865 35.369 23.9995C34.169 25.3126 32.6454 26.2377 30.9677 26.7177ZM40.6452 26.3221L39.4839 24.7737H43.7419L44.9032 26.3221H40.6452ZM43.7419 23.2254H39.4839L40.6452 21.677H44.9032L43.7419 23.2254Z" fill="#FFB800"/>
</svg>
