<svg width="39" height="39" viewBox="0 0 39 39" fill="none" xmlns="http://www.w3.org/2000/svg">
<path d="M36.5625 4.26562H35.9531V3.04688C35.9531 1.70259 34.8599 0.609375 33.5156 0.609375C32.1713 0.609375 31.0781 1.70259 31.0781 3.04688V4.26562H29.7728C29.5005 3.2175 28.5541 2.4375 27.4219 2.4375C26.2897 2.4375 25.3433 3.2175 25.0709 4.26562H13.9291C13.6567 3.2175 12.7103 2.4375 11.5781 2.4375C10.4459 2.4375 9.49955 3.2175 9.22716 4.26562H7.92188V3.04688C7.92188 1.70259 6.82866 0.609375 5.48438 0.609375C4.14009 0.609375 3.04688 1.70259 3.04688 3.04688V4.26562H2.4375C1.42959 4.26562 0.609375 5.08584 0.609375 6.09375C0.609375 7.10166 1.42959 7.92188 2.4375 7.92188H3.04688V9.14062C3.04688 10.4849 4.14009 11.5781 5.48438 11.5781C6.82866 11.5781 7.92188 10.4849 7.92188 9.14062V7.92188H9.22716C9.44897 8.77439 10.1162 9.44166 10.9688 9.66347V10.9688C10.9688 12.2308 11.2478 13.4373 11.7756 14.5677C11.6909 14.8377 11.6299 15.1186 11.6001 15.4087C9.79509 15.9309 8.53125 17.5793 8.53125 19.5C8.53125 20.2087 8.71102 20.8906 9.04069 21.5055C8.34844 22.2641 7.92188 23.2696 7.92188 24.375C7.92188 26.5346 9.53611 28.3195 11.6202 28.5986C11.8725 30.4828 13.3563 31.9776 15.2344 32.2481V34.8209C14.1862 35.0933 13.4062 36.0397 13.4062 37.1719V38.3906H18.2812V37.1719C18.2812 36.0397 17.5012 35.0933 16.4531 34.8209V32.2512C17.745 32.0653 18.8528 31.3005 19.5 30.2268C20.1472 31.3005 21.255 32.0653 22.5469 32.2512V34.8209C21.4988 35.0933 20.7188 36.0397 20.7188 37.1719V38.3906H25.5938V37.1719C25.5938 36.0397 24.8137 35.0933 23.7656 34.8209V32.2487C25.6882 31.9721 27.2019 30.4133 27.3999 28.4663C29.2049 27.9441 30.4688 26.2957 30.4688 24.375C30.4688 23.6663 30.289 22.9844 29.9593 22.3695C30.6516 21.6109 31.0781 20.6054 31.0781 19.5C31.0781 17.3404 29.4639 15.5555 27.3798 15.2764C27.3469 15.0327 27.2976 14.7938 27.2257 14.5647C27.7534 13.4355 28.0312 12.2289 28.0312 10.9688V9.66347C28.8838 9.44166 29.551 8.77439 29.7728 7.92188H31.0781V9.14062C31.0781 10.4849 32.1713 11.5781 33.5156 11.5781C34.8599 11.5781 35.9531 10.4849 35.9531 9.14062V7.92188H36.5625C37.5704 7.92188 38.3906 7.10166 38.3906 6.09375C38.3906 5.08584 37.5704 4.26562 36.5625 4.26562ZM2.4375 6.70312C2.10173 6.70312 1.82812 6.42952 1.82812 6.09375C1.82812 5.75798 2.10173 5.48438 2.4375 5.48438H3.04688V6.70312H2.4375ZM6.70312 9.14062C6.70312 9.81277 6.15652 10.3594 5.48438 10.3594C4.81223 10.3594 4.26562 9.81277 4.26562 9.14062V3.04688C4.26562 2.37473 4.81223 1.82812 5.48438 1.82812C6.15652 1.82812 6.70312 2.37473 6.70312 3.04688V9.14062ZM7.92188 5.48438H9.14062V6.70312H7.92188V5.48438ZM24.9844 6.70312H14.0156V5.48438H24.9844V6.70312ZM10.3594 7.3125V4.875C10.3594 4.20286 10.906 3.65625 11.5781 3.65625C12.2503 3.65625 12.7969 4.20286 12.7969 4.875V7.3125C12.7969 7.98464 12.2503 8.53125 11.5781 8.53125C10.906 8.53125 10.3594 7.98464 10.3594 7.3125ZM17.0625 37.1719H14.625C14.625 36.4997 15.1716 35.9531 15.8438 35.9531C16.5159 35.9531 17.0625 36.4997 17.0625 37.1719ZM24.375 37.1719H21.9375C21.9375 36.4997 22.4841 35.9531 23.1562 35.9531C23.8284 35.9531 24.375 36.4997 24.375 37.1719ZM29.8594 19.5C29.8594 21.18 28.4925 22.5469 26.8125 22.5469V23.7656C27.609 23.7656 28.3518 23.5426 28.9904 23.1611C29.1568 23.542 29.25 23.9509 29.25 24.375C29.25 25.8674 28.1818 27.1294 26.7095 27.3756L26.2031 27.5151V28.0312C26.2031 29.7113 24.8363 31.0781 23.1562 31.0781C21.4762 31.0781 20.1094 29.7113 20.1094 28.0312H18.8906C18.8906 29.7113 17.5238 31.0781 15.8438 31.0781C14.1637 31.0781 12.7969 29.7113 12.7969 28.0312C12.7969 26.3512 14.1637 24.9844 15.8438 24.9844V23.7656C13.7183 23.7656 11.9565 25.3293 11.6354 27.3658C10.2186 27.105 9.14062 25.8661 9.14062 24.375C9.14062 22.695 10.5075 21.3281 12.1875 21.3281V20.1094C11.391 20.1094 10.6482 20.3324 10.0096 20.7139C9.84324 20.333 9.75 19.9241 9.75 19.5C9.75 18.0076 10.8182 16.7456 12.2905 16.4994L12.7969 16.3599V15.8438C12.7969 14.1637 14.1637 12.7969 15.8438 12.7969C17.5238 12.7969 18.8906 14.1637 18.8906 15.8438H20.1094C20.1094 14.1637 21.4762 12.7969 23.1562 12.7969C24.8363 12.7969 26.2031 14.1637 26.2031 15.8438C26.2031 17.5238 24.8363 18.8906 23.1562 18.8906V20.1094C25.2817 20.1094 27.0435 18.5457 27.3646 16.5092C28.7814 16.77 29.8594 18.0089 29.8594 19.5ZM23.1562 11.5781C21.6066 11.5781 20.2471 12.4087 19.5 13.6482C18.7529 12.4087 17.3934 11.5781 15.8438 11.5781C14.508 11.5781 13.3161 12.1979 12.5336 13.1619C12.3112 12.4575 12.1875 11.7256 12.1875 10.9688V9.66347C13.04 9.44166 13.7073 8.77439 13.9291 7.92188H25.0709C25.2927 8.77439 25.96 9.44166 26.8125 9.66347V10.9688C26.8125 11.7244 26.6888 12.4556 26.4676 13.1595C25.6845 12.196 24.4914 11.5781 23.1562 11.5781ZM28.6406 7.3125C28.6406 7.98464 28.094 8.53125 27.4219 8.53125C26.7497 8.53125 26.2031 7.98464 26.2031 7.3125V4.875C26.2031 4.20286 26.7497 3.65625 27.4219 3.65625C28.094 3.65625 28.6406 4.20286 28.6406 4.875V7.3125ZM29.8594 6.70312V5.48438H31.0781V6.70312H29.8594ZM34.7344 9.14062C34.7344 9.81277 34.1878 10.3594 33.5156 10.3594C32.8435 10.3594 32.2969 9.81277 32.2969 9.14062V3.04688C32.2969 2.37473 32.8435 1.82812 33.5156 1.82812C34.1878 1.82812 34.7344 2.37473 34.7344 3.04688V9.14062ZM36.5625 6.70312H35.9531V5.48438H36.5625C36.8983 5.48438 37.1719 5.75798 37.1719 6.09375C37.1719 6.42952 36.8983 6.70312 36.5625 6.70312Z" fill="#B2DB34"/>
<path d="M14.0156 28.0312C14.0156 29.0392 14.8358 29.8594 15.8438 29.8594V28.6406C15.508 28.6406 15.2344 28.367 15.2344 28.0312C15.2344 27.6955 15.508 27.4219 15.8438 27.4219V26.2031C14.8358 26.2031 14.0156 27.0233 14.0156 28.0312Z" fill="#B2DB34"/>
<path d="M23.1562 25.5938V26.8125C24.5005 26.8125 25.5938 25.7193 25.5938 24.375H24.375C24.375 25.0471 23.8284 25.5938 23.1562 25.5938Z" fill="#B2DB34"/>
<path d="M22.5469 21.3281C22.5469 22.0003 22.0003 22.5469 21.3281 22.5469V23.7656C22.6724 23.7656 23.7656 22.6724 23.7656 21.3281H22.5469Z" fill="#B2DB34"/>
<path d="M18.2812 25.5938V26.8125C19.6255 26.8125 20.7188 25.7193 20.7188 24.375H19.5C19.5 25.0471 18.9534 25.5938 18.2812 25.5938Z" fill="#B2DB34"/>
<path d="M19.5 19.5C19.5 18.1557 18.4068 17.0625 17.0625 17.0625V18.2812C17.7346 18.2812 18.2812 18.8279 18.2812 19.5H19.5Z" fill="#B2DB34"/>
<path d="M12.7969 17.6719V18.8906C13.469 18.8906 14.0156 19.4372 14.0156 20.1094H15.2344C15.2344 18.7651 14.1412 17.6719 12.7969 17.6719Z" fill="#B2DB34"/>
<path d="M24.9844 15.8438C24.9844 14.8358 24.1642 14.0156 23.1562 14.0156V15.2344C23.492 15.2344 23.7656 15.508 23.7656 15.8438C23.7656 16.1795 23.492 16.4531 23.1562 16.4531V17.6719C24.1642 17.6719 24.9844 16.8517 24.9844 15.8438Z" fill="#B2DB34"/>
</svg>
