<svg width="23" height="23" viewBox="0 0 23 23" fill="none" xmlns="http://www.w3.org/2000/svg">
<path d="M18.6303 12.4587C18.4194 12.4587 18.199 12.3916 17.9882 12.3437C17.5612 12.2496 17.1417 12.1247 16.7328 11.97C16.2882 11.8082 15.7995 11.8166 15.3607 11.9935C14.922 12.1705 14.5642 12.5034 14.3561 12.9283L14.1453 13.3595C13.2119 12.8403 12.3541 12.1954 11.5961 11.4429C10.8436 10.6849 10.1987 9.82713 9.67945 8.89371L10.0819 8.62538C10.5068 8.41734 10.8398 8.05951 11.0167 7.62075C11.1936 7.18199 11.202 6.6933 11.0403 6.24871C10.8881 5.83895 10.7633 5.41956 10.6665 4.9933C10.6186 4.78247 10.5803 4.56205 10.5515 4.34163C10.4352 3.6666 10.0816 3.0553 9.5545 2.61782C9.02741 2.18034 8.36145 1.94542 7.67653 1.95538H4.80153C4.38852 1.9515 3.97952 2.03666 3.60238 2.20506C3.22523 2.37345 2.8888 2.62113 2.61598 2.93124C2.34317 3.24134 2.14037 3.60658 2.02139 4.00211C1.90242 4.39763 1.87006 4.81415 1.92653 5.2233C2.43707 9.23812 4.27064 12.9684 7.13761 15.825C10.0046 18.6815 13.7415 20.5015 17.7582 20.9975H18.1224C18.8291 20.9985 19.5114 20.7392 20.039 20.2691C20.3422 19.998 20.5844 19.6656 20.7496 19.2939C20.9148 18.9222 20.9992 18.5196 20.9974 18.1129V15.2379C20.9856 14.5722 20.7432 13.9312 20.3115 13.4244C19.8798 12.9175 19.2856 12.5762 18.6303 12.4587ZM19.1094 18.2087C19.1093 18.3448 19.0801 18.4793 19.0239 18.6032C18.9678 18.7271 18.8858 18.8377 18.7836 18.9275C18.6769 19.0204 18.5517 19.0898 18.4163 19.1311C18.2808 19.1724 18.1383 19.1846 17.9978 19.167C14.4087 18.7069 11.075 17.0649 8.52247 14.5002C5.96993 11.9356 4.34384 8.59408 3.9007 5.00288C3.88544 4.8625 3.89881 4.72049 3.93999 4.58542C3.98117 4.45036 4.0493 4.32504 4.14028 4.21705C4.23009 4.11482 4.34063 4.0329 4.46456 3.97672C4.58849 3.92053 4.72296 3.89139 4.85903 3.89122H7.73403C7.95689 3.88626 8.1745 3.95914 8.34942 4.09732C8.52433 4.23551 8.64561 4.43034 8.69236 4.6483C8.7307 4.91024 8.77861 5.16899 8.83611 5.42455C8.94682 5.92973 9.09415 6.42618 9.27695 6.90996L7.93528 7.53288C7.82056 7.58551 7.71738 7.66029 7.63164 7.75291C7.5459 7.84553 7.47931 7.95418 7.43567 8.07261C7.39204 8.19104 7.37223 8.31692 7.37738 8.44303C7.38254 8.56914 7.41255 8.69299 7.4657 8.80746C8.84493 11.7618 11.2197 14.1366 14.174 15.5158C14.4073 15.6116 14.669 15.6116 14.9024 15.5158C15.0219 15.473 15.1317 15.407 15.2255 15.3214C15.3193 15.2359 15.3951 15.1326 15.4486 15.0175L16.0428 13.6758C16.5382 13.853 17.0438 14.0002 17.5569 14.1166C17.8125 14.1741 18.0713 14.222 18.3332 14.2604C18.5512 14.3071 18.746 14.4284 18.8842 14.6033C19.0224 14.7782 19.0952 14.9959 19.0903 15.2187L19.1094 18.2087Z" fill="white"/>
</svg>
