<svg xmlns="http://www.w3.org/2000/svg" width="20" height="20" viewBox="0 0 20 20"><g><g><path fill="#fff" d="M9.104 2v3c0 1.103-.887 2-1.978 2h-.99v6h.99a1.99 1.99 0 0 1 1.978 2v3c0 1.103-.887 2-1.978 2H5.674c-2.301 0-4.332-1.65-4.828-3.921a28.426 28.426 0 0 1 0-12.196C1.346 1.633 3.373 0 5.666 0h1.46c1.09 0 1.978.897 1.978 2zm10.878 8c0 4.962-3.993 9-8.9 9v-2c3.817 0 6.922-3.14 6.922-7S14.9 3 11.082 3V1c4.907 0 8.9 4.038 8.9 9zm-8.9 5v-2c1.636 0 2.967-1.346 2.967-3s-1.331-3-2.967-3V5c2.726 0 4.945 2.243 4.945 5s-2.219 5-4.945 5z"/></g></g></svg>