<svg width="29" height="29" viewBox="0 0 29 29" fill="none" xmlns="http://www.w3.org/2000/svg">
<path d="M21.1814 17.8555C21.1814 19.0735 21.528 19.5592 22.4342 19.5592C24.4541 19.5592 25.7402 16.9855 25.7402 12.7051C25.7402 6.16265 20.9726 3.03065 15.0204 3.03065C8.89701 3.03065 3.32755 7.13705 3.32755 14.8975C3.32755 22.3099 8.19955 26.3467 15.6816 26.3467C18.222 26.3467 19.9272 26.0683 22.5357 25.1983L23.0954 27.5284C20.5202 28.3651 17.7681 28.6072 15.6468 28.6072C5.83316 28.6072 0.576904 23.2132 0.576904 14.896C0.576904 6.5092 6.66836 0.802002 15.0552 0.802002C23.79 0.802002 28.4169 6.022 28.4169 12.4252C28.4169 17.854 26.7132 21.9952 21.354 21.9952C18.9165 21.9952 17.3172 21.0208 17.1084 18.8618C16.482 21.263 14.8116 21.9952 12.5481 21.9952C9.5205 21.9952 6.9801 19.6622 6.9801 14.9656C6.9801 10.2328 9.20876 7.3096 13.2108 7.3096C15.3336 7.3096 16.656 8.1448 17.2447 9.4672L18.2553 7.6228H21.1785V17.8555H21.1814ZM16.9025 13.2619C16.9025 11.3493 15.4742 10.5475 14.291 10.5475C13.0034 10.5475 11.5781 11.59 11.5781 14.6539C11.5781 17.0898 12.6569 18.4471 14.291 18.4471C15.4394 18.4471 16.9025 17.7163 16.9025 15.6979V13.2619Z" fill="white"/>
</svg>
