<svg width="29" height="29" viewBox="0 0 29 29" fill="none" xmlns="http://www.w3.org/2000/svg">
<path d="M15.8745 3.70654C18.4272 3.70654 20.8754 4.7206 22.6804 6.52564C24.4855 8.33068 25.4995 10.7788 25.4995 13.3315C25.4995 13.6962 25.6444 14.046 25.9022 14.3038C26.1601 14.5617 26.5098 14.7065 26.8745 14.7065C27.2392 14.7065 27.5889 14.5617 27.8468 14.3038C28.1046 14.046 28.2495 13.6962 28.2495 13.3315C28.2495 10.0495 26.9457 6.90186 24.625 4.5811C22.3042 2.26033 19.1566 0.956543 15.8745 0.956543C15.5098 0.956543 15.1601 1.10141 14.9022 1.35927C14.6444 1.61713 14.4995 1.96687 14.4995 2.33154C14.4995 2.69622 14.6444 3.04595 14.9022 3.30381C15.1601 3.56168 15.5098 3.70654 15.8745 3.70654ZM27.9058 20.0828C27.8301 19.8621 27.6996 19.6642 27.5264 19.5078C27.3532 19.3515 27.1431 19.2418 26.9158 19.189L18.6658 17.3053C18.4418 17.2545 18.2087 17.2606 17.9878 17.3231C17.7668 17.3855 17.565 17.5023 17.4008 17.6628C17.2083 17.8415 17.1945 17.8553 16.3008 19.5603C13.3352 18.1938 10.9589 15.8077 9.60451 12.8365C11.3508 11.9565 11.3645 11.9565 11.5433 11.7503C11.7037 11.5861 11.8205 11.3842 11.883 11.1633C11.9454 10.9423 11.9515 10.7092 11.9008 10.4853L10.017 2.33154C9.96428 2.10425 9.85457 1.89412 9.69821 1.72092C9.54185 1.54773 9.344 1.41717 9.12326 1.34154C8.80215 1.22685 8.47056 1.14396 8.13326 1.09404C7.78573 1.01346 7.43109 0.967405 7.07451 0.956543C5.39702 0.956543 3.78823 1.62293 2.60206 2.80909C1.41589 3.99526 0.749512 5.60405 0.749512 7.28154C0.756788 12.8953 2.99006 18.277 6.95956 22.2465C10.9291 26.216 16.3108 28.4493 21.9245 28.4565C22.7551 28.4565 23.5776 28.2929 24.345 27.9751C25.1124 27.6572 25.8096 27.1913 26.397 26.604C26.9843 26.0167 27.4502 25.3194 27.768 24.552C28.0859 23.7846 28.2495 22.9622 28.2495 22.1315C28.2499 21.7816 28.2223 21.4321 28.167 21.0865C28.1092 20.745 28.0218 20.4092 27.9058 20.0828ZM21.9245 25.7065C17.039 25.7029 12.3547 23.7605 8.90009 20.306C5.44552 16.8514 3.50315 12.167 3.49951 7.28154C3.50313 6.33451 3.88095 5.4273 4.55061 4.75764C5.22027 4.08798 6.12748 3.71016 7.07451 3.70654H7.52826L8.99951 10.0865L8.25701 10.4715C7.07451 11.0903 6.13951 11.5853 6.63451 12.6578C7.44057 14.9397 8.74482 17.0134 10.4525 18.7283C12.1602 20.4431 14.2285 21.756 16.507 22.5715C17.662 23.039 18.1158 22.1728 18.7345 20.9765L19.1333 20.2203L25.4995 21.6778V22.1315C25.4959 23.0786 25.1181 23.9858 24.4484 24.6554C23.7788 25.3251 22.8715 25.7029 21.9245 25.7065Z" fill="white"/>
</svg>
