<svg width="31" height="32" viewBox="0 0 31 32" fill="none" xmlns="http://www.w3.org/2000/svg">
<path d="M1.62447 17.2482H3.16613V28.0399C3.16613 29.7403 4.54901 31.1232 6.24947 31.1232H24.7495C26.4499 31.1232 27.8328 29.7403 27.8328 28.0399V17.2482H29.3745C29.6793 17.2481 29.9773 17.1577 30.2308 16.9883C30.4843 16.8189 30.6818 16.5781 30.7985 16.2964C30.9151 16.0148 30.9457 15.7049 30.8862 15.4059C30.8267 15.1068 30.68 14.8322 30.4644 14.6166L16.5894 0.741569C16.4464 0.598278 16.2765 0.484599 16.0895 0.407036C15.9024 0.329474 15.7019 0.289551 15.4995 0.289551C15.297 0.289551 15.0965 0.329474 14.9095 0.407036C14.7225 0.484599 14.5526 0.598278 14.4095 0.741569L0.53451 14.6166C0.31897 14.8322 0.172194 15.1068 0.112735 15.4059C0.0532769 15.7049 0.0838066 16.0148 0.200465 16.2964C0.317123 16.5781 0.514671 16.8189 0.768136 16.9883C1.0216 17.1577 1.3196 17.2481 1.62447 17.2482ZM12.4161 28.0399V20.3315H18.5828V28.0399H12.4161ZM15.4995 4.01144L24.7495 13.2614V20.3315L24.751 28.0399H21.6661V20.3315C21.6661 18.6311 20.2833 17.2482 18.5828 17.2482H12.4161C10.7157 17.2482 9.3328 18.6311 9.3328 20.3315V28.0399H6.24947V13.2614L15.4995 4.01144Z" fill="white"/>
</svg>
