<svg width="30" height="30" viewBox="0 0 30 30" fill="none" xmlns="http://www.w3.org/2000/svg">
<path d="M27.8312 3.03531C27.4754 2.73925 27.0459 2.54524 26.5885 2.47392C26.1311 2.4026 25.6629 2.45665 25.2338 2.63031L2.8325 11.6741C2.35357 11.8712 1.94589 12.2093 1.66356 12.6435C1.38122 13.0776 1.23758 13.5874 1.25168 14.1051C1.26578 14.6229 1.43697 15.1241 1.74252 15.5422C2.04807 15.9604 2.47355 16.2758 2.9625 16.4466L7.49375 18.0228L10.0188 26.3753C10.0534 26.4867 10.1034 26.5928 10.1675 26.6903C10.1775 26.7053 10.1913 26.7153 10.2013 26.7316C10.2749 26.8341 10.3639 26.9247 10.465 27.0003C10.4932 27.0224 10.5224 27.0433 10.5525 27.0628C10.6709 27.1414 10.802 27.1989 10.94 27.2328L10.9563 27.2341L10.9638 27.2378C11.0473 27.2546 11.1323 27.263 11.2175 27.2628L11.24 27.2591C11.368 27.2569 11.4949 27.235 11.6163 27.1941C11.645 27.1841 11.6688 27.1691 11.6963 27.1566C11.787 27.1193 11.873 27.0715 11.9525 27.0141C12.0158 26.9603 12.0791 26.9065 12.1425 26.8528L15.52 23.1241L20.5575 27.0266C21.0009 27.3719 21.5467 27.5597 22.1088 27.5603C22.6978 27.5596 23.2687 27.3564 23.7257 26.9848C24.1827 26.6131 24.498 26.0956 24.6187 25.5191L28.6975 5.49781C28.7898 5.04738 28.7579 4.58035 28.6053 4.14662C28.4527 3.7129 28.1852 3.32878 27.8312 3.03531ZM11.7125 18.4203C11.5394 18.5931 11.4211 18.8131 11.3725 19.0528L10.985 20.9328L10.005 17.6916L15.0863 15.0453L11.7125 18.4203ZM22.09 25.0503L16.1363 20.4378C15.8871 20.2456 15.5747 20.1543 15.2613 20.182C14.9479 20.2098 14.6564 20.3547 14.445 20.5878L13.3625 21.7816L13.745 19.9228L22.5988 11.0691C22.8088 10.8577 22.9365 10.5782 22.9587 10.2811C22.9809 9.98392 22.8962 9.68859 22.7199 9.44834C22.5436 9.20809 22.2873 9.03873 21.9972 8.97079C21.707 8.90285 21.4021 8.94081 21.1375 9.07781L8.43125 15.6928L3.775 13.9891L26.2488 5.00031L22.09 25.0503Z" fill="white"/>
</svg>
