<svg width="155" height="72" viewBox="0 0 155 72" fill="none" xmlns="http://www.w3.org/2000/svg">
<g id="Group 94">
<g id="Union">
<path fill-rule="evenodd" clip-rule="evenodd" d="M5.14019 71.0144V25.3623H15.4206V35.5072H20.5608V5.07246C20.5608 1.69082 18.8474 0 15.4206 0H5.14019C1.7134 0 0 1.69082 0 5.07246V71.0144H5.14019ZM15.4206 20.2898H5.14019V5.07246H15.4206V20.2898Z" fill="white"/>
<path d="M41.1215 0V22.9648L30.8411 0H25.701V35.5072H30.8411V12.5424L41.1215 35.5072H46.2617V0H41.1215Z" fill="white"/>
<path d="M61.6823 30.4347H66.8225V35.5072H51.4019V30.4347H56.5421V5.07246H51.4019V0H66.8225V5.07246H61.6823V30.4347Z" fill="white"/>
<path d="M82.243 35.5072H87.3832V5.07246H92.5234V10.1449H97.6636V0H71.9626V10.1449H77.1028V5.07246H82.243V35.5072Z" fill="white"/>
<path d="M118.224 35.5072H113.084V5.07246H107.944V10.1449H102.804V0H128.505V10.1449H123.365V5.07246H118.224V35.5072Z" fill="white"/>
<path fill-rule="evenodd" clip-rule="evenodd" d="M138.785 35.5072V25.3623H149.065V71.0144H154.206V5.07246C154.206 1.69082 152.492 0 149.065 0H138.785C135.358 0 133.645 1.69082 133.645 5.07246V35.5072H138.785ZM149.065 20.2898H138.785V5.07246H149.065V20.2898Z" fill="white"/>
<path d="M46.5495 57.3188H40.4389V48.2834H46.5495V57.3188Z" fill="white"/>
<path d="M92.3795 63.3423H101.545V48.2834H92.3795V63.3423Z" fill="white"/>
<path d="M125.988 54.307V48.2834H132.099V54.307H125.988Z" fill="white"/>
<path fill-rule="evenodd" clip-rule="evenodd" d="M8.96545 71.2363V40.3894H145.24V71.2363H8.96545ZM25.1622 66.3541H28.2176V48.2834H31.2729V51.2952H34.3282V45.2717H19.0516V51.2952H22.1069V48.2834H25.1622V66.3541ZM40.4389 66.3541V60.3305H46.5495V66.3541H49.6049V48.2834C49.6049 46.2756 48.5864 45.2717 46.5495 45.2717H40.4389C38.402 45.2717 37.3836 46.2756 37.3836 48.2834V66.3541H40.4389ZM61.8262 66.3541H58.7709V48.2834H55.7155V51.2952H52.6602V45.2717H67.9368V51.2952H64.8815V48.2834H61.8262V66.3541ZM77.1028 66.3541H80.1582V48.2834H83.2135V51.2952H86.2688V45.2717H70.9922V51.2952H74.0475V48.2834H77.1028V66.3541ZM92.3795 66.3541C90.3426 66.3541 89.3242 65.3502 89.3242 63.3423V48.2834C89.3242 46.2756 90.3426 45.2717 92.3795 45.2717H101.545C103.582 45.2717 104.601 46.2756 104.601 48.2834V63.3423C104.601 65.3502 103.582 66.3541 101.545 66.3541H92.3795ZM116.822 57.3188V54.307H110.711V48.2834H116.822V51.2952H119.877V45.2717H107.656V66.3541H119.877V60.3305H116.822V63.3423H110.711V57.3188H116.822ZM125.988 66.3541H122.933V45.2717H132.099C134.136 45.2717 135.154 46.2756 135.154 48.2834V54.307C135.154 56.3148 134.136 57.3188 132.099 57.3188H130.81L135.154 66.3541H131.765L127.432 57.3188H125.988V66.3541Z" fill="white"/>
</g>
</g>
</svg>
