<svg width="72" height="72" viewBox="0 0 72 72" fill="none" xmlns="http://www.w3.org/2000/svg">
<g clip-path="url(#clip0_122_63)">
<path d="M0 36.4741V8.82578C0.137812 6.41172 1.02563 4.39281 2.66344 2.76906C4.42219 1.02719 6.63609 0.15625 9.30516 0.15625C21.0764 0.15625 32.9377 0.156719 44.8889 0.157656C49.3973 0.157656 53.1745 3.31609 53.8748 7.77672C53.9592 8.31578 54.0014 9.25094 54.0014 10.5822C53.9995 18.8031 53.9963 27.2758 53.9916 36.0002C53.9897 38.5633 53.1272 40.7209 51.4041 42.4731C50.1047 43.7941 48.5522 44.6284 46.7466 44.9762C46.1616 45.0887 45.2278 45.1455 43.9453 45.1464C37.4634 45.1473 31.0969 45.1473 24.8456 45.1464C24.795 45.1464 24.7505 45.1628 24.712 45.1956C21.0802 48.2913 17.3433 51.4998 13.5014 54.8214C12.7702 55.4542 12.2564 55.8138 11.9602 55.9C10.3725 56.3641 9.00562 55.2756 9.00281 53.6275C8.99812 50.6509 8.99859 47.8525 9.00422 45.2322C9.00422 45.1788 8.9775 45.1516 8.92406 45.1506C6.78375 45.1075 4.92656 44.4438 3.3525 43.1594C1.28437 41.4719 0.166875 39.2434 0 36.4741ZM18.0141 22.6112C18.0141 21.4137 17.5383 20.2651 16.6915 19.4183C15.8447 18.5715 14.6962 18.0958 13.4986 18.0958C12.301 18.0958 11.1525 18.5715 10.3057 19.4183C9.45886 20.2651 8.98312 21.4137 8.98312 22.6112C8.98312 23.8088 9.45886 24.9574 10.3057 25.8042C11.1525 26.651 12.301 27.1267 13.4986 27.1267C14.6962 27.1267 15.8447 26.651 16.6915 25.8042C17.5383 24.9574 18.0141 23.8088 18.0141 22.6112ZM31.4381 23.2666C31.6416 21.6944 31.1859 20.372 30.0712 19.2995C29.2987 18.5561 28.3322 18.1516 27.1716 18.0859C26.5359 18.0503 25.9064 18.1741 25.283 18.4572C24.5902 18.7703 24.0525 19.1308 23.67 19.5386C23.2584 19.9755 22.9355 20.4888 22.7011 21.0784C22.553 21.4525 22.4817 21.8767 22.4873 22.3511C22.4939 22.8423 22.5337 23.2689 22.6069 23.6308C22.8825 25.008 23.6747 26.0505 24.9834 26.7583C25.5947 27.0892 26.3184 27.2205 27.1547 27.152C28.0444 27.0789 28.7972 26.838 29.4131 26.4292C30.5925 25.6455 31.2675 24.5912 31.4381 23.2666ZM45.0141 22.6112C45.0141 21.4137 44.5383 20.2651 43.6915 19.4183C42.8447 18.5715 41.6962 18.0958 40.4986 18.0958C39.301 18.0958 38.1525 18.5715 37.3057 19.4183C36.4589 20.2651 35.9831 21.4137 35.9831 22.6112C35.9831 23.8088 36.4589 24.9574 37.3057 25.8042C38.1525 26.651 39.301 27.1267 40.4986 27.1267C41.6962 27.1267 42.8447 26.651 43.6915 25.8042C44.5383 24.9574 45.0141 23.8088 45.0141 22.6112Z" fill="#9747FF"/>
<path d="M71.9999 35.9115V54.4374C71.9361 55.2146 71.8785 55.7138 71.8269 55.9351C71.2241 58.5385 69.8404 60.504 67.6757 61.8315C66.2849 62.6823 64.731 63.1238 63.118 63.1463C63.0861 63.1467 63.0555 63.1597 63.0329 63.1826C63.0103 63.2055 62.9974 63.2364 62.9971 63.2687C62.9905 65.1146 62.9933 66.9976 63.0055 68.9176C63.0102 69.6348 62.9432 70.1476 62.8044 70.456C62.4519 71.2388 61.8707 71.6903 61.0607 71.8102C60.2338 71.9326 59.6319 71.6035 59.0258 71.0959C55.859 68.4418 52.7169 65.8243 49.5997 63.2434C49.5243 63.1816 49.4304 63.1478 49.334 63.1478C44.5358 63.1506 40.1183 63.1506 36.0815 63.1478C31.064 63.1449 27.0786 59.2454 27.0196 54.2138C27.0055 53.0335 27.0004 51.5523 27.0041 49.7701C27.0041 49.7388 27.0166 49.7087 27.0387 49.6866C27.0609 49.6644 27.0909 49.652 27.1222 49.652C33.5469 49.6426 39.9426 49.6445 46.3091 49.6576C47.4116 49.6604 48.2957 49.6103 48.9613 49.5071C53.9338 48.7351 57.7743 44.792 58.4001 39.8279C58.4779 39.2167 58.5144 38.2895 58.5097 37.0463C58.4966 33.7913 58.4947 30.534 58.5041 27.2743C58.5041 27.2059 58.5388 27.1707 58.6082 27.1688C60.0163 27.136 61.409 27.1313 62.7861 27.1548C66.0758 27.2092 68.6179 28.5081 70.4122 31.0515C71.3929 32.4409 71.9221 34.0609 71.9999 35.9115Z" fill="white"/>
</g>
<defs>
<clipPath id="clip0_122_63">
<rect width="72" height="72" fill="white"/>
</clipPath>
</defs>
</svg>
