<svg width="40" height="40" viewBox="0 0 40 40" fill="none" xmlns="http://www.w3.org/2000/svg">
<rect width="40" height="40" rx="20" fill="white"/>
<path d="M36 11.4875V28.5181C35.9837 28.6073 35.9713 28.6969 35.9625 28.7869C35.9 29.4344 35.5731 30.0413 35.1019 30.4819C34.5527 30.9961 33.8644 31.2529 33.0369 31.2525C24.289 31.2483 15.6758 31.2483 7.1975 31.2525C6.76917 31.2525 6.44396 31.2288 6.22187 31.1813C5.85604 31.1029 5.52542 30.9608 5.23 30.755C4.47167 30.2271 4.06167 29.4794 4 28.5119V11.48C4.06458 10.5171 4.47458 9.7723 5.23 9.24564C5.52542 9.03939 5.85604 8.89709 6.22187 8.81876C6.43271 8.77334 6.78625 8.75064 7.2825 8.75064C15.8913 8.74939 24.5002 8.74918 33.1094 8.75001C33.511 8.75001 33.8902 8.82272 34.2469 8.96814C34.6002 9.11189 34.9133 9.32251 35.1863 9.60001C35.6796 10.1008 35.9508 10.73 36 11.4875ZM18.56 21.79C19.1642 22.1475 19.8152 22.2638 20.5131 22.1388C21.086 22.0363 21.5963 21.7625 22.0438 21.3175C25.6029 17.7771 29.1731 14.2258 32.7544 10.6638C32.7802 10.6379 32.7748 10.625 32.7381 10.625H7.25375C7.22292 10.625 7.21854 10.6361 7.24062 10.6581C10.7985 14.1977 14.3448 17.7252 17.8794 21.2406C18.0819 21.4419 18.3163 21.6456 18.56 21.79ZM5.90375 28.0294C11.2779 22.6873 13.965 20.0167 13.965 20.0175C13.9656 20.0208 13.9662 20.0229 13.9666 20.0232C13.967 20.0235 13.9672 20.0221 13.9671 20.0192C13.967 20.0163 13.9667 20.0121 13.9662 20.0077C13.9657 20.0033 13.965 19.999 13.9644 19.9956C13.964 19.9931 11.2796 17.3219 5.91125 11.9819C5.90828 11.9789 5.9045 11.9769 5.90038 11.9761C5.89627 11.9753 5.892 11.9757 5.88812 11.9773C5.88425 11.9789 5.88093 11.9816 5.8786 11.9851C5.87626 11.9886 5.87501 11.9927 5.875 11.9969V28.0169C5.8749 28.0203 5.87581 28.0236 5.87761 28.0264C5.87942 28.0293 5.88204 28.0315 5.88514 28.0329C5.88823 28.0342 5.89166 28.0346 5.89498 28.034C5.8983 28.0334 5.90135 28.0318 5.90375 28.0294ZM34.0931 28.0269C34.0958 28.0295 34.0992 28.0312 34.1028 28.0319C34.1065 28.0326 34.1103 28.0322 34.1137 28.0307C34.1171 28.0292 34.12 28.0268 34.122 28.0237C34.124 28.0205 34.1251 28.0169 34.125 28.0131V11.9919C34.1251 11.9882 34.124 11.9845 34.122 11.9814C34.12 11.9782 34.1171 11.9758 34.1137 11.9743C34.1103 11.9728 34.1065 11.9724 34.1028 11.9731C34.0992 11.9738 34.0958 11.9755 34.0931 11.9781L26.0369 19.9894C26.0334 19.9929 26.0315 19.9976 26.0315 20.0025C26.0315 20.0074 26.0334 20.0121 26.0369 20.0156L34.0931 28.0269ZM23.2919 22.7175C21.4075 24.5613 18.4594 24.5038 16.6181 22.6319C16.2019 22.209 15.7696 21.7858 15.3212 21.3625C15.3046 21.3467 15.2881 21.3469 15.2719 21.3631L7.24062 29.3413C7.21812 29.3638 7.22271 29.375 7.25437 29.375H32.7319C32.7727 29.375 32.7785 29.3606 32.7494 29.3319L24.7119 21.3469C24.7067 21.3418 24.6998 21.3389 24.6925 21.3389C24.6852 21.3389 24.6783 21.3418 24.6731 21.3469C24.2031 21.819 23.7427 22.2758 23.2919 22.7175Z" fill="black"/>
</svg>
