<?xml version="1.0" encoding="UTF-8"?>
<svg width="1920px" height="677px" viewBox="0 0 1920 677" version="1.1" xmlns="http://www.w3.org/2000/svg" xmlns:xlink="http://www.w3.org/1999/xlink">
    <!-- Generator: sketchtool 50.2 (55047) - http://www.bohemiancoding.com/sketch -->
    <title>8BB25A74-1B39-49AA-A59C-1A8CE2C91CA7</title>
    <desc>Created with sketchtool.</desc>
    <defs></defs>
    <g id="Page-1" stroke="none" stroke-width="1" fill="none" fill-rule="evenodd">
        <g id="00-Landing" transform="translate(0.000000, -2634.000000)" fill-rule="nonzero">
            <g id="city2" transform="translate(-4.000000, 2634.000000)">
                <path d="M1773,294.331845 L1715.26746,294.331845 L1715.26746,556.756411 L1704.48656,556.756411 L1704.48656,379.243947 L1645.42776,379.243947 L1645.42776,556.756411 L1550.31876,556.756411 L1550.31876,275.914149 L1479.44418,275.914149 L1479.44418,556.756411 L1464.4735,556.756411 L1464.4735,218.352576 C1464.52217,199.587562 1449.94315,184.025661 1431.19641,182.832016 L1429.03621,92.9115051 L1426.87601,182.832016 C1408.12134,184.01551 1393.53082,199.580294 1393.57882,218.352576 L1393.57882,556.756411 L1301.33335,556.756411 L1301.33335,303.917076 L1230.45876,303.917076 L1230.45876,556.756411 L1172.53532,556.756411 L1172.53532,358.025959 L1091.6334,358.025959 L1091.6334,556.756411 L1045.93768,556.756411 L1045.93768,211.035682 L1015.32315,211.035682 L1012.78115,102.898212 L1010.18891,211.035682 L969.42648,211.035682 L969.42648,280.56123 L918.978324,280.56123 L893.980313,237.041268 L868.99235,280.56123 L863.968634,280.56123 L863.968634,239.560528 L792.631866,239.560528 L792.631866,556.726301 L778.826695,556.726301 L778.826695,414.342957 L746.092161,414.342957 L746.092161,371.184323 L691.534605,371.184323 L691.534605,341.254313 L633.329831,341.254313 L633.329831,390.936926 L607.146223,390.936926 L607.146223,143.748361 L588.307288,143.748361 C582.347578,128.445376 568.159071,117.889225 551.774825,116.568458 L548.971592,0 L546.178406,116.518274 C529.364327,117.419912 514.636301,128.072491 508.530678,143.748361 L493.650431,143.748361 L493.650431,556.746374 L479.835212,556.746374 L479.835212,302.45169 L412.175805,302.45169 L412.175805,556.746374 L390.352782,556.746374 L390.352782,302.45169 L342.617433,302.45169 L295.695925,220.811614 L248.814607,302.441653 L202.666752,302.441653 L202.666752,556.746374 L191.75524,556.746374 L191.75524,426.638149 L117.554955,426.638149 L117.554955,556.746374 L101.539348,556.746374 L101.539348,453.838125 L64.4442291,453.838125 L64.4442291,556.746374 L30.976233,556.746374 L30.976233,382.024166 L0,382.024166 L0,672 L1773,672 L1773,294.331845 Z" id="Shape" fill="#E6F3F7"></path>
                <path d="M1018,673 L1038,673 L1038,645 L1018.60637,645 C1018.51204,654.343504 1018.30992,663.676837 1018,673 Z" id="Shape" fill="#AED7B5"></path>
                <polygon id="Shape" fill="#DAEFF3" points="1929 421.480378 1834.65984 421.480378 1834.65984 649.434732 1810.26603 649.434732 1810.26603 336 1698.94666 336 1698.94666 432.328193 1663.26016 432.328193 1663.26016 605.011779 1594.33859 605.011779 1594.33859 499.067795 1527.64744 499.067795 1527.64744 543.280402 1506.3782 543.280402 1506.3782 649.434732 1423.31064 649.434732 1423.31064 483.221772 1308.44472 483.221772 1308.44472 444.007373 1181.3417 444.007373 1181.3417 494.05957 1078.39137 494.05957 1078.39137 649.434732 1038.42491 649.434732 1038.42491 336 927.095484 336 927.095484 432.328193 891.419031 432.328193 891.419031 605.011779 822.497469 605.011779 822.497469 499.067795 755.796266 499.067795 755.796266 543.280402 734.527031 543.280402 734.527031 649.434732 651.469516 649.434732 651.469516 483.221772 536.603594 483.221772 536.603594 444.007373 409.500578 444.007373 409.500578 494.05957 306.55025 494.05957 306.55025 649.434732 196.255656 649.434732 196.255656 476.5408 120.200812 476.5408 120.200812 649.434732 79.6817656 649.434732 79.6817656 406.465721 47.3509219 406.465721 47.3509219 337.232023 0 337.232023 0 677 1929 677"></polygon>
                <path d="M1018,673 L1038,673 L1038,645 L1018.60637,645 C1018.51204,654.343504 1018.30992,663.676837 1018,673 Z" id="Shape" fill="#AED7B5"></path>
                <rect id="Rectangle-path" fill="#C5E4EC" x="783" y="511" width="68" height="161"></rect>
                <rect id="Rectangle-path" fill="#C5E4EC" x="1132" y="483" width="70" height="189"></rect>
                <polygon id="Shape" fill="#C5E4EC" points="893.493622 520.985334 963.525104 520.985334 963.525104 554.629006 985.968518 554.629006 985.968518 413 1056 413 1056 672 871 672 871 587.378327 893.493622 587.378327"></polygon>
                <polygon id="Shape" fill="#C5E4EC" points="1334.6892 576.803208 1353.10778 576.803208 1353.10778 463 1420 503.743117 1420 673 1291 673 1291 552.017477 1334.6892 552.017477"></polygon>
                <polygon id="Shape" fill="#C5E4EC" points="507.003001 531.278893 524.716858 531.278893 524.716858 525.113149 539.726386 525.113149 539.726386 511 575.1541 511 575.1541 560.376002 631 560.376002 631 672 497 672 497 541.85875 507.003001 541.85875"></polygon>
                <rect id="Rectangle-path" fill="#C5E4EC" x="433" y="511" width="53" height="161"></rect>
                <polygon id="Shape" fill="#C5E4EC" points="733.430019 560.039587 762 560.039587 762 672 662 672 662 461 733.430019 461"></polygon>
                <rect id="Rectangle-path" fill="#C5E4EC" x="1439" y="444" width="68" height="229"></rect>
                <polygon id="Shape" fill="#C5E4EC" points="1885.43002 560.039587 1914 560.039587 1914 672 1814 672 1814 461 1885.43002 461"></polygon>
                <rect id="Rectangle-path" fill="#C5E4EC" x="360" y="588" width="65" height="85"></rect>
                <rect id="Rectangle-path" fill="#C5E4EC" x="1510" y="588" width="68" height="85"></rect>
                <polygon id="Shape" fill="#C5E4EC" points="1658.0123 531.278893 1675.72483 531.278893 1675.72483 525.113149 1690.72318 525.113149 1690.72318 511 1726.14824 511 1726.14824 560.376002 1782 560.376002 1782 672 1648 672 1648 541.85875 1658.0123 541.85875"></polygon>
                <rect id="Rectangle-path" fill="#C5E4EC" x="1585" y="511" width="53" height="161"></rect>
                <rect id="Rectangle-path" fill="#C5E4EC" x="287" y="444" width="68" height="229"></rect>
                <rect id="Rectangle-path" fill="#C5E4EC" x="0" y="483" width="50" height="189"></rect>
                <polygon id="Shape" fill="#C5E4EC" points="181.689199 576.803208 200.11777 576.803208 200.11777 463 267 503.743117 266.990012 673 138 673 138 552.017477 181.689199 552.017477"></polygon>
            </g>
        </g>
    </g>
</svg>