<?xml version="1.0" encoding="UTF-8"?>
<svg width="1349px" height="168px" viewBox="0 0 1349 168" version="1.1" xmlns="http://www.w3.org/2000/svg" xmlns:xlink="http://www.w3.org/1999/xlink">
    <!-- Generator: sketchtool 50.2 (55047) - http://www.bohemiancoding.com/sketch -->
    <title>EC13766A-DC21-4FCC-8B58-B873A1B2B056</title>
    <desc>Created with sketchtool.</desc>
    <defs></defs>
    <g id="Page-1" stroke="none" stroke-width="1" fill="none" fill-rule="evenodd">
        <g id="00-Landing" transform="translate(-287.000000, -5664.000000)" fill="#D90952" fill-rule="nonzero">
            <g id="city4" transform="translate(287.000000, 5664.000000)">
                <path d="M171.6,167.81 L0.6,167.81 C0.323857625,167.81 0.1,167.586142 0.1,167.31 C0.1,167.033858 0.323857625,166.81 0.6,166.81 L170.6,166.81 L170.6,65.81 L214.6,65.81 C214.873908,65.8153201 215.09468,66.0360915 215.1,66.31 C215.1,66.5861424 214.876142,66.81 214.6,66.81 L171.6,66.81 L171.6,167.81 Z" id="Shape"></path>
                <path d="M185.6,59.81 C185.323858,59.81 185.1,59.5861424 185.1,59.31 L185.1,44.31 C185.1,44.0338576 185.323858,43.81 185.6,43.81 C185.873908,43.8153201 186.09468,44.0360915 186.1,44.31 L186.1,59.31 C186.1,59.5861424 185.876142,59.81 185.6,59.81 Z" id="Shape"></path>
                <path d="M206.6,74.31 L171.1,74.31 C170.823858,74.31 170.6,74.0861424 170.6,73.81 C170.6,73.5338576 170.823858,73.31 171.1,73.31 L206.6,73.31 C206.873908,73.3153201 207.09468,73.5360915 207.1,73.81 C207.1,74.0861424 206.876142,74.31 206.6,74.31 Z" id="Shape"></path>
                <path d="M200.1,81.31 L171.1,81.31 C170.823858,81.31 170.6,81.0861424 170.6,80.81 C170.6,80.5338576 170.823858,80.31 171.1,80.31 L200.1,80.31 C200.373908,80.3153201 200.59468,80.5360915 200.6,80.81 C200.6,81.0861424 200.376142,81.31 200.1,81.31 Z" id="Shape"></path>
                <path d="M192.1,88.31 L171.1,88.31 C170.823858,88.31 170.6,88.0861424 170.6,87.81 C170.6,87.5338576 170.823858,87.31 171.1,87.31 L192.1,87.31 C192.373908,87.3153201 192.59468,87.5360915 192.6,87.81 C192.6,87.9426082 192.547322,88.0697852 192.453553,88.1635534 C192.359785,88.2573216 192.232608,88.31 192.1,88.31 Z" id="Shape"></path>
                <path d="M185.6,95.81 L171.1,95.81 C170.823858,95.81 170.6,95.5861424 170.6,95.31 C170.6,95.0338576 170.823858,94.81 171.1,94.81 L185.6,94.81 C185.873908,94.8153201 186.09468,95.0360915 186.1,95.31 C186.1,95.5861424 185.876142,95.81 185.6,95.81 Z" id="Shape"></path>
                <path d="M178.35,102.31 L171.1,102.31 C170.823858,102.31 170.6,102.086142 170.6,101.81 C170.6,101.533858 170.823858,101.31 171.1,101.31 L178.35,101.31 C178.623908,101.31532 178.84468,101.536092 178.85,101.81 C178.85,101.942608 178.797322,102.069785 178.703553,102.163553 C178.609785,102.257322 178.482608,102.31 178.35,102.31 Z" id="Shape"></path>
                <path d="M229.1,167.81 L178.35,167.81 C178.073858,167.81 177.85,167.586142 177.85,167.31 C177.85,167.033858 178.073858,166.81 178.35,166.81 L229.1,166.81 C229.373908,166.81532 229.59468,167.036092 229.6,167.31 C229.6,167.586142 229.376142,167.81 229.1,167.81 Z" id="Shape"></path>
                <path d="M214.6,167.81 C214.323858,167.81 214.1,167.586142 214.1,167.31 L214.1,80.81 C214.1,80.5338576 214.323858,80.31 214.6,80.31 C214.873908,80.3153201 215.09468,80.5360915 215.1,80.81 L215.1,167.31 C215.1,167.442608 215.047322,167.569785 214.953553,167.663553 C214.859785,167.757322 214.732608,167.81 214.6,167.81 Z" id="Shape"></path>
                <path d="M243.1,167.81 C242.823858,167.81 242.6,167.586142 242.6,167.31 L242.6,109.52 L221.25,88.17 C221.155344,88.0761167 221.102101,87.9483188 221.102101,87.815 C221.102101,87.6816812 221.155344,87.5538833 221.25,87.46 C221.340733,87.3633228 221.467414,87.3084814 221.6,87.3084814 C221.732586,87.3084814 221.859267,87.3633228 221.95,87.46 L243.6,109.11 L243.6,167.31 C243.6,167.586142 243.376142,167.81 243.1,167.81 Z" id="Shape"></path>
                <path d="M234.6,167.81 C234.323858,167.81 234.1,167.586142 234.1,167.31 L234.1,109.31 C234.1,109.033858 234.323858,108.81 234.6,108.81 C234.873908,108.81532 235.09468,109.036092 235.1,109.31 L235.1,167.31 C235.1,167.586142 234.876142,167.81 234.6,167.81 Z" id="Shape"></path>
                <path d="M229.1,159.31 C228.823858,159.31 228.6,159.086142 228.6,158.81 L228.6,101.81 C228.6,101.533858 228.823858,101.31 229.1,101.31 C229.373908,101.31532 229.59468,101.536092 229.6,101.81 L229.6,158.81 C229.6,158.942608 229.547322,159.069785 229.453553,159.163553 C229.359785,159.257322 229.232608,159.31 229.1,159.31 Z" id="Shape"></path>
                <path d="M221.6,152.31 C221.323858,152.31 221.1,152.086142 221.1,151.81 L221.1,95.31 C221.1,95.0338576 221.323858,94.81 221.6,94.81 C221.873908,94.8153201 222.09468,95.0360915 222.1,95.31 L222.1,151.81 C222.1,152.086142 221.876142,152.31 221.6,152.31 Z" id="Shape"></path>
                <path d="M178.35,109.81 C178.165953,109.79487 178.005231,109.679527 177.931982,109.510008 C177.858733,109.340489 177.884885,109.144398 178,109 L213.87,73.12 C213.996829,72.9931707 214.181687,72.9436382 214.354939,72.990061 C214.528191,73.0364837 214.663516,73.1718089 214.709939,73.345061 C214.756362,73.518313 214.706829,73.7031707 214.58,73.83 L178.7,109.67 C178.60495,109.7588 178.480071,109.808752 178.35,109.81 Z" id="Shape"></path>
                <path d="M178.35,130.81 C178.165953,130.79487 178.005231,130.679527 177.931982,130.510008 C177.858733,130.340489 177.884885,130.144398 178,130 L206.37,101.62 C206.566061,101.423939 206.883939,101.423939 207.08,101.62 C207.276061,101.816061 207.276061,102.133939 207.08,102.33 L178.7,130.67 C178.60495,130.7588 178.480071,130.808752 178.35,130.81 Z" id="Shape"></path>
                <path d="M178.35,152.31 C178.149962,152.30719 177.970856,152.185413 177.894684,152.000424 C177.818512,151.815436 177.85994,151.60285 178,151.46 L206,123.46 C206.090733,123.363323 206.217414,123.308481 206.35,123.308481 C206.482586,123.308481 206.609267,123.363323 206.7,123.46 C206.794656,123.553883 206.847899,123.681681 206.847899,123.815 C206.847899,123.948319 206.794656,124.076117 206.7,124.17 L178.7,152.17 C178.60495,152.2588 178.480071,152.308752 178.35,152.31 Z" id="Shape"></path>
                <path d="M229.1,88.31 C228.823858,88.31 228.6,88.0861424 228.6,87.81 L228.6,71.87 C228.6,71.5938576 228.823858,71.37 229.1,71.37 C229.373908,71.3753201 229.59468,71.5960915 229.6,71.87 L229.6,87.81 C229.6,88.0861424 229.376142,88.31 229.1,88.31 Z" id="Shape"></path>
                <path d="M270.6,167.81 C270.323858,167.81 270.1,167.586142 270.1,167.31 L270.1,110.52 L250,130.67 C249.805578,130.860571 249.494422,130.860571 249.3,130.67 C249.205344,130.576117 249.152101,130.448319 249.152101,130.315 C249.152101,130.181681 249.205344,130.053883 249.3,129.96 L271.150006,108.11 L271.15,167.31 C271.150711,167.451744 271.091226,167.587128 270.986343,167.682477 C270.881459,167.777825 270.741035,167.824176 270.6,167.81 Z" id="Shape"></path>
                <path d="M285.1,167.81 C284.823858,167.81 284.6,167.586142 284.6,167.31 L284.6,123.77 L270.25,109.67 C270.155344,109.576117 270.102101,109.448319 270.102101,109.315 C270.102101,109.181681 270.155344,109.053883 270.25,108.96 C270.343883,108.865344 270.471681,108.812101 270.605,108.812101 C270.738319,108.812101 270.866117,108.865344 270.96,108.96 L285.61,123.35 L285.61,167.35 C285.588859,167.614304 285.365077,167.816147 285.1,167.81 Z" id="Shape"></path>
                <path d="M277.85,167.81 C277.573858,167.81 277.35,167.586142 277.35,167.31 L277.35,116.81 C277.35,116.533858 277.573858,116.31 277.85,116.31 C278.123908,116.31532 278.34468,116.536092 278.35,116.81 L278.35,167.31 C278.35,167.586142 278.126142,167.81 277.85,167.81 Z" id="Shape"></path>
                <path d="M249.6,145.31 C249.399962,145.30719 249.220856,145.185413 249.144684,145.000424 C249.068512,144.815436 249.10994,144.60285 249.25,144.46 L270.12,123.58 C270.316061,123.383939 270.633939,123.383939 270.83,123.58 C271.026061,123.776061 271.026061,124.093939 270.83,124.29 L250,145.17 C249.892594,145.271347 249.747164,145.322247 249.6,145.31 Z" id="Shape"></path>
                <path d="M249.6,159.31 C249.399962,159.30719 249.220856,159.185413 249.144684,159.000424 C249.068512,158.815436 249.10994,158.60285 249.25,158.46 L270,137.71 C270.090733,137.613323 270.217414,137.558481 270.35,137.558481 C270.482586,137.558481 270.609267,137.613323 270.7,137.71 C270.794656,137.803883 270.847899,137.931681 270.847899,138.065 C270.847899,138.198319 270.794656,138.326117 270.7,138.42 L250,159.17 C249.892594,159.271347 249.747164,159.322247 249.6,159.31 Z" id="Shape"></path>
                <path d="M255.6,167.81 C255.399962,167.80719 255.220856,167.685413 255.144684,167.500424 C255.068512,167.315436 255.10994,167.10285 255.25,166.96 L270.5,151.71 C270.590733,151.613323 270.717414,151.558481 270.85,151.558481 C270.982586,151.558481 271.109267,151.613323 271.2,151.71 C271.294656,151.803883 271.347899,151.931681 271.347899,152.065 C271.347899,152.198319 271.294656,152.326117 271.2,152.42 L256,167.67 C255.892594,167.771347 255.747164,167.822247 255.6,167.81 Z" id="Shape"></path>
                <path d="M270.35,102.31 C270.073858,102.31 269.85,102.086142 269.85,101.81 L269.85,95.31 C269.85,95.0338576 270.073858,94.81 270.35,94.81 C270.623908,94.8153201 270.84468,95.0360915 270.85,95.31 L270.85,101.81 C270.85,102.086142 270.626142,102.31 270.35,102.31 Z" id="Shape"></path>
                <path d="M299.1,95.81 C298.823858,95.81 298.6,95.5861424 298.6,95.31 L298.6,80.81 C298.6,80.5338576 298.823858,80.31 299.1,80.31 C299.373908,80.3153201 299.59468,80.5360915 299.6,80.81 L299.6,95.31 C299.6,95.5861424 299.376142,95.81 299.1,95.81 Z" id="Shape"></path>
                <path d="M349.6,167.81 C349.323858,167.81 349.1,167.586142 349.1,167.31 L349.1,74.05 L314.1,45.37 L314.1,87.81 C314.1,88.0861424 313.876142,88.31 313.6,88.31 C313.323858,88.31 313.1,88.0861424 313.1,87.81 L313.1,43.26 L350.1,73.58 L350.1,167.31 C350.1,167.586142 349.876142,167.81 349.6,167.81 Z" id="Shape"></path>
                <path d="M349.6,81.31 C349.486488,81.3137673 349.375749,81.274473 349.29,81.2 L313.29,52.2 C313.132777,52.095491 313.047823,51.9113372 313.070365,51.7238987 C313.092907,51.5364601 313.219101,51.3776998 313.39662,51.3134483 C313.574139,51.2491967 313.772712,51.2904104 313.91,51.42 L349.91,80.42 C350.075122,80.5524673 350.138929,80.7745635 350.069297,80.9744744 C349.999665,81.1743852 349.811687,81.3087809 349.6,81.31 Z" id="Shape"></path>
                <path d="M342.1,167.81 L292.6,167.81 L292.6,109.07 L321.6,86.8 L321.6,166.8 L342.1,166.8 C342.373908,166.80532 342.59468,167.026092 342.6,167.3 C342.602687,167.434332 342.551197,167.564093 342.457136,167.660036 C342.363075,167.755978 342.234359,167.810027 342.1,167.81 Z M293.6,166.81 L320.6,166.81 L320.6,88.81 L293.6,109.54 L293.6,166.81 Z" id="Shape"></path>
                <path d="M306.1,167.81 C305.823858,167.81 305.6,167.586142 305.6,167.31 L305.6,116.81 C305.6,116.533858 305.823858,116.31 306.1,116.31 C306.373908,116.31532 306.59468,116.536092 306.6,116.81 L306.6,167.31 C306.6,167.586142 306.376142,167.81 306.1,167.81 Z" id="Shape"></path>
                <path d="M293.1,116.62 C292.941858,116.623313 292.792235,116.548502 292.7,116.42 C292.534315,116.199086 292.579086,115.885685 292.8,115.72 L320.8,94.91 C320.906087,94.8304351 321.039435,94.7962716 321.170711,94.8150253 C321.301986,94.8337789 321.420435,94.9039134 321.5,95.01 C321.665685,95.2309139 321.620914,95.5443146 321.4,95.71 L293.4,116.53 C293.310836,116.588441 293.206609,116.619709 293.1,116.62 Z" id="Shape"></path>
                <path d="M335.1,167.81 C334.823858,167.81 334.6,167.586142 334.6,167.31 L334.6,30.31 C334.6,30.0338576 334.823858,29.81 335.1,29.81 C335.373908,29.8153201 335.59468,30.0360915 335.6,30.31 L335.6,167.31 C335.6,167.586142 335.376142,167.81 335.1,167.81 Z" id="Shape"></path>
                <path d="M521.6,167.81 L356.6,167.81 C356.323858,167.81 356.1,167.586142 356.1,167.31 C356.1,167.033858 356.323858,166.81 356.6,166.81 L521.6,166.81 C521.873908,166.81532 522.09468,167.036092 522.1,167.31 C522.1,167.586142 521.876142,167.81 521.6,167.81 Z" id="Shape"></path>
                <path d="M428.1,167.81 C427.823858,167.81 427.6,167.586142 427.6,167.31 L427.6,88.31 L356.6,88.31 C356.323858,88.31 356.1,88.0861424 356.1,87.81 C356.1,87.5338576 356.323858,87.31 356.6,87.31 L428.6,87.31 L428.6,167.31 C428.6,167.586142 428.376142,167.81 428.1,167.81 Z" id="Shape"></path>
                <path d="M414.1,167.81 C413.823858,167.81 413.6,167.586142 413.6,167.31 L413.6,87.81 C413.6,87.5338576 413.823858,87.31 414.1,87.31 C414.373908,87.3153201 414.59468,87.5360915 414.6,87.81 L414.6,167.31 C414.6,167.586142 414.376142,167.81 414.1,167.81 Z" id="Shape"></path>
                <path d="M399.6,167.81 C399.323858,167.81 399.1,167.586142 399.1,167.31 L399.1,87.81 C399.1,87.5338576 399.323858,87.31 399.6,87.31 C399.873908,87.3153201 400.09468,87.5360915 400.1,87.81 L400.1,167.31 C400.1,167.586142 399.876142,167.81 399.6,167.81 Z" id="Shape"></path>
                <path d="M385.1,167.81 C384.823858,167.81 384.6,167.586142 384.6,167.31 L384.6,87.81 C384.6,87.5338576 384.823858,87.31 385.1,87.31 C385.373908,87.3153201 385.59468,87.5360915 385.6,87.81 L385.6,167.31 C385.6,167.586142 385.376142,167.81 385.1,167.81 Z" id="Shape"></path>
                <path d="M370.85,167.81 C370.573858,167.81 370.35,167.586142 370.35,167.31 L370.35,87.81 C370.35,87.5338576 370.573858,87.31 370.85,87.31 C371.123908,87.3153201 371.34468,87.5360915 371.35,87.81 L371.35,167.31 C371.35,167.586142 371.126142,167.81 370.85,167.81 Z" id="Shape"></path>
                <path d="M499.6,88.31 L441.6,88.31 C441.323858,88.31 441.1,88.0861424 441.1,87.81 C441.1,87.5338576 441.323858,87.31 441.6,87.31 L499.6,87.31 C499.873908,87.3153201 500.09468,87.5360915 500.1,87.81 C500.1,87.9426082 500.047322,88.0697852 499.953553,88.1635534 C499.859785,88.2573216 499.732608,88.31 499.6,88.31 Z" id="Shape"></path>
                <path d="M514.6,102.44 L441.6,102.44 C441.323858,102.44 441.1,102.216142 441.1,101.94 C441.1,101.663858 441.323858,101.44 441.6,101.44 L514.6,101.44 C514.876142,101.44 515.1,101.663858 515.1,101.94 C515.09468,102.213908 514.873908,102.43468 514.6,102.44 Z" id="Shape"></path>
                <path d="M514.6,116.62 L441.6,116.62 C441.323858,116.62 441.1,116.396142 441.1,116.12 C441.1,115.843858 441.323858,115.62 441.6,115.62 L514.6,115.62 C514.873908,115.62532 515.09468,115.846092 515.1,116.12 C515.1,116.252608 515.047322,116.379785 514.953553,116.473553 C514.859785,116.567322 514.732608,116.62 514.6,116.62 Z" id="Shape"></path>
                <path d="M514.6,130.81 L441.6,130.81 C441.323858,130.81 441.1,130.586142 441.1,130.31 C441.1,130.033858 441.323858,129.81 441.6,129.81 L514.6,129.81 C514.873908,129.81532 515.09468,130.036092 515.1,130.31 C515.1,130.586142 514.876142,130.81 514.6,130.81 Z" id="Shape"></path>
                <path d="M514.6,145.31 L441.6,145.31 C441.323858,145.31 441.1,145.086142 441.1,144.81 C441.1,144.533858 441.323858,144.31 441.6,144.31 L514.6,144.31 C514.873908,144.31532 515.09468,144.536092 515.1,144.81 C515.1,144.942608 515.047322,145.069785 514.953553,145.163553 C514.859785,145.257322 514.732608,145.31 514.6,145.31 Z" id="Shape"></path>
                <path d="M428.1,81.31 C427.823858,81.31 427.6,81.0861424 427.6,80.81 L427.6,29.81 L478.6,29.81 L478.6,66.81 L441.6,66.81 C441.323858,66.81 441.1,66.5861424 441.1,66.31 C441.1,66.0338576 441.323858,65.81 441.6,65.81 L477.6,65.81 L477.6,30.81 L428.6,30.81 L428.6,80.81 C428.6,81.0861424 428.376142,81.31 428.1,81.31 Z" id="Shape"></path>
                <path d="M470.6,52.31 L428.1,52.31 C427.823858,52.31 427.6,52.0861424 427.6,51.81 C427.6,51.5338576 427.823858,51.31 428.1,51.31 L470.6,51.31 C470.873908,51.3153201 471.09468,51.5360915 471.1,51.81 C471.1,52.0861424 470.876142,52.31 470.6,52.31 Z" id="Shape"></path>
                <path d="M470.6,37.06 L428.1,37.06 C427.823858,37.06 427.6,36.8361424 427.6,36.56 C427.6,36.2838576 427.823858,36.06 428.1,36.06 L470.6,36.06 C470.873908,36.0653201 471.09468,36.2860915 471.1,36.56 C471.1,36.8361424 470.876142,37.06 470.6,37.06 Z" id="Shape"></path>
                <path d="M478.1,59.94 L435.6,59.94 C435.323858,59.94 435.1,59.7161424 435.1,59.44 C435.1,59.1638576 435.323858,58.94 435.6,58.94 L478.1,58.94 C478.376142,58.94 478.6,59.1638576 478.6,59.44 C478.59468,59.7139085 478.373908,59.9346799 478.1,59.94 Z" id="Shape"></path>
                <path d="M478.1,44.69 L435.6,44.69 C435.323858,44.69 435.1,44.4661424 435.1,44.19 C435.1,43.9138576 435.323858,43.69 435.6,43.69 L478.1,43.69 C478.376142,43.69 478.6,43.9138576 478.6,44.19 C478.59468,44.4639085 478.373908,44.6846799 478.1,44.69 Z" id="Shape"></path>
                <path d="M507.1,88.31 C506.823858,88.31 506.6,88.0861424 506.6,87.81 L506.6,66.81 L485.1,66.81 C484.823858,66.81 484.6,66.5861424 484.6,66.31 C484.6,66.0338576 484.823858,65.81 485.1,65.81 L507.6,65.81 L507.6,87.81 C507.6,88.0861424 507.376142,88.31 507.1,88.31 Z" id="Shape"></path>
                <path d="M527.6,167.81 C527.323858,167.81 527.1,167.586142 527.1,167.31 L527.1,88.31 L514.6,88.31 C514.323858,88.31 514.1,88.0861424 514.1,87.81 C514.1,87.5338576 514.323858,87.31 514.6,87.31 L528.1,87.31 L528.1,167.31 C528.1,167.586142 527.876142,167.81 527.6,167.81 Z" id="Shape"></path>
                <path d="M542,167.81 C541.723858,167.81 541.5,167.586142 541.5,167.31 L541.5,131.89 L535,138.42 C534.805578,138.610571 534.494422,138.610571 534.3,138.42 C534.205344,138.326117 534.152101,138.198319 534.152101,138.065 C534.152101,137.931681 534.205344,137.803883 534.3,137.71 L542.52,129.48 L542.52,167.31 C542.520109,167.446147 542.464694,167.576452 542.366555,167.670817 C542.268415,167.765182 542.136038,167.815446 542,167.81 Z" id="Shape"></path>
                <path d="M549.6,167.81 C549.323858,167.81 549.1,167.586142 549.1,167.31 L549.1,110.5 L535,124.3 C534.802186,124.491783 534.487814,124.491783 534.29,124.3 C534.195344,124.206117 534.142101,124.078319 534.142101,123.945 C534.142101,123.811681 534.195344,123.683883 534.29,123.59 L550.14,108.14 L550.14,167.32 C550.137682,167.458094 550.078346,167.589078 549.976065,167.681888 C549.873784,167.774699 549.737669,167.821069 549.6,167.81 Z" id="Shape"></path>
                <path d="M557.1,167.81 C556.823858,167.81 556.6,167.586142 556.6,167.31 L556.6,89 L534.94,109.69 C534.847836,109.784064 534.72169,109.837071 534.59,109.837071 C534.45831,109.837071 534.332164,109.784064 534.24,109.69 C534.145344,109.596117 534.092101,109.468319 534.092101,109.335 C534.092101,109.201681 534.145344,109.073883 534.24,108.98 L557.59,86.67 L557.59,167.34 C557.574382,167.600549 557.360974,167.805247 557.1,167.81 Z" id="Shape"></path>
                <path d="M563.6,167.81 C563.323858,167.81 563.1,167.586142 563.1,167.31 L563.1,67.52 L535,95.67 C534.805578,95.8605714 534.494422,95.8605714 534.3,95.67 C534.205344,95.5761167 534.152101,95.4483188 534.152101,95.315 C534.152101,95.1816812 534.205344,95.0538833 534.3,94.96 L564.150006,65.11 L564.15,167.31 C564.150711,167.451744 564.091226,167.587128 563.986343,167.682477 C563.881459,167.777825 563.741035,167.824176 563.6,167.81 Z" id="Shape"></path>
                <path d="M570.6,167.81 C570.323858,167.81 570.1,167.586142 570.1,167.31 L570.1,45.53 L535,81.16 C534.907836,81.2540641 534.78169,81.3070714 534.65,81.3070714 C534.51831,81.3070714 534.392164,81.2540641 534.3,81.16 C534.205344,81.0661167 534.152101,80.9383188 534.152101,80.805 C534.152101,80.6716812 534.205344,80.5438833 534.3,80.45 L571.1,43.09 L571.1,167.31 C571.1,167.586142 570.876142,167.81 570.6,167.81 Z" id="Shape"></path>
                <path d="M577.6,167.81 C577.323858,167.81 577.1,167.586142 577.1,167.31 L577.1,87.81 C577.1,87.5338576 577.323858,87.31 577.6,87.31 C577.873908,87.3153201 578.09468,87.5360915 578.1,87.81 L578.1,167.31 C578.1,167.586142 577.876142,167.81 577.6,167.81 Z" id="Shape"></path>
                <path d="M584.6,145.31 C584.323858,145.31 584.1,145.086142 584.1,144.81 L584.1,87.81 C584.1,87.5338576 584.323858,87.31 584.6,87.31 C584.873908,87.3153201 585.09468,87.5360915 585.1,87.81 L585.1,144.81 C585.1,145.086142 584.876142,145.31 584.6,145.31 Z" id="Shape"></path>
                <path d="M584.6,73.19 C584.323858,73.19 584.1,72.9661424 584.1,72.69 L584.1,30.31 C584.1,30.0338576 584.323858,29.81 584.6,29.81 C584.873908,29.8153201 585.09468,30.0360915 585.1,30.31 L585.1,72.69 C585.09468,72.9639085 584.873908,73.1846799 584.6,73.19 Z" id="Shape"></path>
                <path d="M592.1,122.31 C591.823858,122.31 591.6,122.086142 591.6,121.81 L591.6,87.81 C591.6,87.5338576 591.823858,87.31 592.1,87.31 C592.373908,87.3153201 592.59468,87.5360915 592.6,87.81 L592.6,121.81 C592.6,122.086142 592.376142,122.31 592.1,122.31 Z" id="Shape"></path>
                <path d="M599.1,102.44 C598.823858,102.44 598.6,102.216142 598.6,101.94 L598.6,87.81 C598.6,87.5338576 598.823858,87.31 599.1,87.31 C599.373908,87.3153201 599.59468,87.5360915 599.6,87.81 L599.6,101.94 C599.59468,102.213908 599.373908,102.43468 599.1,102.44 Z" id="Shape"></path>
                <path d="M614.6,167.81 L534.6,167.81 C534.323858,167.81 534.1,167.586142 534.1,167.31 C534.1,167.033858 534.323858,166.81 534.6,166.81 L613.6,166.81 L613.6,81.31 L577.6,81.31 C577.323858,81.31 577.1,81.0861424 577.1,80.81 C577.1,80.5338576 577.323858,80.31 577.6,80.31 L614.6,80.31 L614.6,167.81 Z" id="Shape"></path>
                <path d="M714.6,167.81 L621.1,167.81 C620.823858,167.81 620.6,167.586142 620.6,167.31 C620.6,167.033858 620.823858,166.81 621.1,166.81 L713.6,166.81 L713.6,73.19 L657.1,73.19 L657.1,94.87 C657.1,95.1461424 656.876142,95.37 656.6,95.37 C656.323858,95.37 656.1,95.1461424 656.1,94.87 L656.1,72.19 L714.6,72.19 L714.6,167.81 Z" id="Shape"></path>
                <path d="M657.1,117.31 C656.823858,117.31 656.6,117.086142 656.6,116.81 L656.6,102.31 L621.1,102.31 C620.823858,102.31 620.6,102.086142 620.6,101.81 C620.6,101.533858 620.823858,101.31 621.1,101.31 L657.6,101.31 L657.6,116.81 C657.6,117.086142 657.376142,117.31 657.1,117.31 Z" id="Shape"></path>
                <path d="M699.1,88.31 L670.6,88.31 C670.323858,88.31 670.1,88.0861424 670.1,87.81 C670.1,87.5338576 670.323858,87.31 670.6,87.31 L699.1,87.31 C699.373908,87.3153201 699.59468,87.5360915 699.6,87.81 C699.6,87.9426082 699.547322,88.0697852 699.453553,88.1635534 C699.359785,88.2573216 699.232608,88.31 699.1,88.31 Z" id="Shape"></path>
                <path d="M699.1,102.31 L670.6,102.31 C670.323858,102.31 670.1,102.086142 670.1,101.81 C670.1,101.533858 670.323858,101.31 670.6,101.31 L699.1,101.31 C699.373908,101.31532 699.59468,101.536092 699.6,101.81 C699.6,101.942608 699.547322,102.069785 699.453553,102.163553 C699.359785,102.257322 699.232608,102.31 699.1,102.31 Z" id="Shape"></path>
                <path d="M699.1,116.31 L670.6,116.31 C670.323858,116.31 670.1,116.086142 670.1,115.81 C670.1,115.533858 670.323858,115.31 670.6,115.31 L699.1,115.31 C699.373908,115.31532 699.59468,115.536092 699.6,115.81 C699.6,116.086142 699.376142,116.31 699.1,116.31 Z" id="Shape"></path>
                <path d="M642.6,116.31 L621.1,116.31 C620.823858,116.31 620.6,116.086142 620.6,115.81 C620.6,115.533858 620.823858,115.31 621.1,115.31 L642.6,115.31 C642.873908,115.31532 643.09468,115.536092 643.1,115.81 C643.1,116.086142 642.876142,116.31 642.6,116.31 Z" id="Shape"></path>
                <path d="M699.1,130.81 L621.1,130.81 C620.823858,130.81 620.6,130.586142 620.6,130.31 C620.6,130.033858 620.823858,129.81 621.1,129.81 L699.1,129.81 C699.373908,129.81532 699.59468,130.036092 699.6,130.31 C699.6,130.586142 699.376142,130.81 699.1,130.81 Z" id="Shape"></path>
                <path d="M699.1,145.31 L621.1,145.31 C620.823858,145.31 620.6,145.086142 620.6,144.81 C620.6,144.533858 620.823858,144.31 621.1,144.31 L699.1,144.31 C699.373908,144.31532 699.59468,144.536092 699.6,144.81 C699.6,144.942608 699.547322,145.069785 699.453553,145.163553 C699.359785,145.257322 699.232608,145.31 699.1,145.31 Z" id="Shape"></path>
                <path d="M699.1,159.31 L621.1,159.31 C620.823858,159.31 620.6,159.086142 620.6,158.81 C620.6,158.533858 620.823858,158.31 621.1,158.31 L699.1,158.31 C699.373908,158.31532 699.59468,158.536092 699.6,158.81 C699.6,159.086142 699.376142,159.31 699.1,159.31 Z" id="Shape"></path>
                <path d="M764.1,167.81 C763.823858,167.81 763.6,167.586142 763.6,167.31 L763.6,81 L699.6,24.88 L699.6,66.27 C699.6,66.5461424 699.376142,66.77 699.1,66.77 C698.823858,66.77 698.6,66.5461424 698.6,66.27 L698.6,22.71 L764.6,80.59 L764.6,167.31 C764.6,167.586142 764.376142,167.81 764.1,167.81 Z" id="Shape"></path>
                <path d="M756.6,167.81 C756.323858,167.81 756.1,167.586142 756.1,167.31 L756.1,88 L706.27,44.69 C706.12683,44.5746841 706.058486,44.3901037 706.092035,44.2093553 C706.125584,44.0286068 706.255613,43.8808464 706.430629,43.8245892 C706.605645,43.7683321 706.797417,43.8126529 706.93,43.94 L757.1,87.58 L757.1,167.31 C757.1,167.586142 756.876142,167.81 756.6,167.81 Z" id="Shape"></path>
                <path d="M749.1,167.81 C748.823858,167.81 748.6,167.586142 748.6,167.31 L748.6,94.87 C748.6,94.5938576 748.823858,94.37 749.1,94.37 C749.373908,94.3753201 749.59468,94.5960915 749.6,94.87 L749.6,167.31 C749.6,167.586142 749.376142,167.81 749.1,167.81 Z" id="Shape"></path>
                <path d="M742.1,167.81 C741.823858,167.81 741.6,167.586142 741.6,167.31 L741.6,94.87 C741.6,94.5938576 741.823858,94.37 742.1,94.37 C742.373908,94.3753201 742.59468,94.5960915 742.6,94.87 L742.6,167.31 C742.6,167.586142 742.376142,167.81 742.1,167.81 Z" id="Shape"></path>
                <path d="M735.6,167.81 C735.323858,167.81 735.1,167.586142 735.1,167.31 L735.1,94.87 C735.1,94.5938576 735.323858,94.37 735.6,94.37 C735.873908,94.3753201 736.09468,94.5960915 736.1,94.87 L736.1,167.31 C736.1,167.586142 735.876142,167.81 735.6,167.81 Z" id="Shape"></path>
                <path d="M727.6,167.81 C727.323858,167.81 727.1,167.586142 727.1,167.31 L727.1,94.87 C727.1,94.5938576 727.323858,94.37 727.6,94.37 C727.873908,94.3753201 728.09468,94.5960915 728.1,94.87 L728.1,167.31 C728.1,167.586142 727.876142,167.81 727.6,167.81 Z" id="Shape"></path>
                <path d="M720.85,167.81 C720.573858,167.81 720.35,167.586142 720.35,167.31 L720.35,94.87 C720.35,94.5938576 720.573858,94.37 720.85,94.37 C721.123908,94.3753201 721.34468,94.5960915 721.35,94.87 L721.35,167.31 C721.35,167.586142 721.126142,167.81 720.85,167.81 Z" id="Shape"></path>
                <path d="M735.6,81.31 C735.486488,81.3137673 735.375749,81.274473 735.29,81.2 L705.79,57.7 C705.601149,57.5217382 705.580206,57.2285737 705.741801,57.0252775 C705.903395,56.8219814 706.193725,56.7762387 706.41,56.92 L735.91,80.42 C736.124454,80.591727 736.160178,80.904315 735.99,81.12 C735.897668,81.2418182 735.752837,81.312377 735.6,81.31 Z" id="Shape"></path>
                <path d="M749.1,88.31 L721.1,88.31 C720.823858,88.31 720.6,88.0861424 720.6,87.81 C720.6,87.5338576 720.823858,87.31 721.1,87.31 L749.1,87.31 C749.373908,87.3153201 749.59468,87.5360915 749.6,87.81 C749.6,87.9426082 749.547322,88.0697852 749.453553,88.1635534 C749.359785,88.2573216 749.232608,88.31 749.1,88.31 Z" id="Shape"></path>
                <path d="M721.1,30.81 C720.823858,30.81 720.6,30.5861424 720.6,30.31 L720.6,9.31 C720.6,9.03385763 720.823858,8.81 721.1,8.81 C721.373908,8.81532011 721.59468,9.03609155 721.6,9.31 L721.6,30.31 C721.6,30.5861424 721.376142,30.81 721.1,30.81 Z" id="Shape"></path>
                <path d="M777.1,44.81 C776.823858,44.81 776.6,44.5861424 776.6,44.31 L776.6,30.31 C776.6,30.0338576 776.823858,29.81 777.1,29.81 C777.373908,29.8153201 777.59468,30.0360915 777.6,30.31 L777.6,44.31 C777.6,44.5861424 777.376142,44.81 777.1,44.81 Z" id="Shape"></path>
                <path d="M799.6,44.81 C799.323858,44.81 799.1,44.5861424 799.1,44.31 L799.1,30.31 C799.1,30.0338576 799.323858,29.81 799.6,29.81 C799.873908,29.8153201 800.09468,30.0360915 800.1,30.31 L800.1,44.31 C800.1,44.5861424 799.876142,44.81 799.6,44.81 Z" id="Shape"></path>
                <path d="M793.4,167.61 C793.264866,167.609669 793.135388,167.55572 793.04,167.46 L784.94,159.36 L791.94,152.36 L785.19,145.61 L792.25,138.55 L785.05,131.34 L792.49,123.91 L785.11,116.53 L792.05,109.59 L785.17,102.72 L792.24,95.66 L784.77,88.19 L792.33,80.62 L784.45,72.75 L792.14,65.06 L784.75,57.67 C784.655344,57.5761167 784.602101,57.4483188 784.602101,57.315 C784.602101,57.1816812 784.655344,57.0538833 784.75,56.96 C784.840733,56.8633228 784.967414,56.8084814 785.1,56.8084814 C785.232586,56.8084814 785.359267,56.8633228 785.45,56.96 L793.56,65.06 L785.87,72.75 L793.74,80.62 L786.18,88.19 L793.65,95.66 L786.59,102.72 L793.46,109.59 L786.52,116.53 L793.9,123.91 L786.46,131.34 L793.66,138.55 L786.6,145.61 L793.35,152.36 L786.35,159.36 L793.75,166.76 C793.89006,166.90285 793.931488,167.115436 793.855316,167.300424 C793.779144,167.485413 793.600038,167.60719 793.4,167.61 Z" id="Shape"></path>
                <path d="M835.1,81.31 C834.823858,81.31 834.6,81.0861424 834.6,80.81 L834.6,57.31 C834.6,57.0338576 834.823858,56.81 835.1,56.81 C835.373908,56.8153201 835.59468,57.0360915 835.6,57.31 L835.6,80.81 C835.6,81.0861424 835.376142,81.31 835.1,81.31 Z" id="Shape"></path>
                <path d="M919.6,24.31 C919.323858,24.31 919.1,24.0861424 919.1,23.81 L919.1,9.31 C919.1,9.03385763 919.323858,8.81 919.6,8.81 C919.873908,8.81532011 920.09468,9.03609155 920.1,9.31 L920.1,23.81 C920.1,23.9426082 920.047322,24.0697852 919.953553,24.1635534 C919.859785,24.2573216 919.732608,24.31 919.6,24.31 Z" id="Shape"></path>
                <path d="M1040.6,30.81 C1040.32386,30.81 1040.1,30.5861424 1040.1,30.31 L1040.1,1.81 C1040.1,1.53385763 1040.32386,1.31 1040.6,1.31 C1040.87391,1.31532011 1041.09468,1.53609155 1041.1,1.81 L1041.1,30.31 C1041.1,30.5861424 1040.87614,30.81 1040.6,30.81 Z" id="Shape"></path>
                <path d="M1012.6,81.31 C1012.32386,81.31 1012.1,81.0861424 1012.1,80.81 L1012.1,57.31 C1012.1,57.0338576 1012.32386,56.81 1012.6,56.81 C1012.87391,56.8153201 1013.09468,57.0360915 1013.1,57.31 L1013.1,80.81 C1013.1,81.0861424 1012.87614,81.31 1012.6,81.31 Z" id="Shape"></path>
                <path d="M913.6,88.31 L884.6,88.31 C884.323858,88.31 884.1,88.0861424 884.1,87.81 C884.1,87.5338576 884.323858,87.31 884.6,87.31 L913.6,87.31 C913.873908,87.3153201 914.09468,87.5360915 914.1,87.81 C914.1,87.9426082 914.047322,88.0697852 913.953553,88.1635534 C913.859785,88.2573216 913.732608,88.31 913.6,88.31 Z" id="Shape"></path>
                <path d="M906.6,95.37 L884.6,95.37 C884.323858,95.37 884.1,95.1461424 884.1,94.87 C884.1,94.5938576 884.323858,94.37 884.6,94.37 L906.6,94.37 C906.873908,94.3753201 907.09468,94.5960915 907.1,94.87 C907.1,95.1461424 906.876142,95.37 906.6,95.37 Z" id="Shape"></path>
                <path d="M899.1,102.31 L884.6,102.31 C884.323858,102.31 884.1,102.086142 884.1,101.81 C884.1,101.533858 884.323858,101.31 884.6,101.31 L899.1,101.31 C899.373908,101.31532 899.59468,101.536092 899.6,101.81 C899.6,102.086142 899.376142,102.31 899.1,102.31 Z" id="Shape"></path>
                <path d="M891.85,109.81 L884.6,109.81 C884.323858,109.81 884.1,109.586142 884.1,109.31 C884.1,109.033858 884.323858,108.81 884.6,108.81 L891.85,108.81 C892.123908,108.81532 892.34468,109.036092 892.35,109.31 C892.35,109.586142 892.126142,109.81 891.85,109.81 Z" id="Shape"></path>
                <path d="M913.6,165.81 C913.323858,165.81 913.1,165.586142 913.1,165.31 L913.1,101.81 C913.1,101.533858 913.323858,101.31 913.6,101.31 C913.873908,101.31532 914.09468,101.536092 914.1,101.81 L914.1,165.31 C914.1,165.442608 914.047322,165.569785 913.953553,165.663553 C913.859785,165.757322 913.732608,165.81 913.6,165.81 Z" id="Shape"></path>
                <path d="M963.6,167.81 L884.6,167.81 C884.323858,167.81 884.1,167.586142 884.1,167.31 C884.1,167.033858 884.323858,166.81 884.6,166.81 L962.6,166.81 L962.6,108.81 L999.6,108.81 L999.6,130.31 C999.6,130.586142 999.376142,130.81 999.1,130.81 C998.823858,130.81 998.6,130.586142 998.6,130.31 L998.6,109.81 L963.6,109.81 L963.6,167.81 Z" id="Shape"></path>
                <path d="M963.1,102.31 C962.823858,102.31 962.6,102.086142 962.6,101.81 L962.6,10.12 L907.1,37.62 L907.1,72.69 C907.09468,72.9639085 906.873908,73.1846799 906.6,73.19 C906.323858,73.19 906.1,72.9661424 906.1,72.69 L906.1,37 L963.6,8.51 L963.6,101.81 C963.6,102.086142 963.376142,102.31 963.1,102.31 Z" id="Shape"></path>
                <path d="M876.6,167.81 C876.323858,167.81 876.1,167.586142 876.1,167.31 L876.1,80.31 L920.1,80.31 L920.1,165.31 C920.1,165.586142 919.876142,165.81 919.6,165.81 C919.323858,165.81 919.1,165.586142 919.1,165.31 L919.1,81.31 L877.1,81.31 L877.1,167.31 C877.1,167.586142 876.876142,167.81 876.6,167.81 Z" id="Shape"></path>
                <path d="M919.6,73.19 C919.323858,73.19 919.1,72.9661424 919.1,72.69 L919.1,44.31 C919.1,44.0338576 919.323858,43.81 919.6,43.81 C919.873908,43.8153201 920.09468,44.0360915 920.1,44.31 L920.1,72.69 C920.09468,72.9639085 919.873908,73.1846799 919.6,73.19 Z" id="Shape"></path>
                <path d="M934.85,167.81 C934.573858,167.81 934.35,167.586142 934.35,167.31 L934.35,37.31 C934.35,37.0338576 934.573858,36.81 934.85,36.81 C935.123908,36.8153201 935.34468,37.0360915 935.35,37.31 L935.35,167.31 C935.35,167.586142 935.126142,167.81 934.85,167.81 Z" id="Shape"></path>
                <path d="M949.1,167.81 C948.823858,167.81 948.6,167.586142 948.6,167.31 L948.6,30.31 C948.6,30.0338576 948.823858,29.81 949.1,29.81 C949.373908,29.8153201 949.59468,30.0360915 949.6,30.31 L949.6,167.31 C949.6,167.586142 949.376142,167.81 949.1,167.81 Z" id="Shape"></path>
                <path d="M970.1,167.81 C969.823858,167.81 969.6,167.586142 969.6,167.31 L969.6,138.31 C969.6,138.033858 969.823858,137.81 970.1,137.81 C970.373908,137.81532 970.59468,138.036092 970.6,138.31 L970.6,167.31 C970.6,167.442608 970.547322,167.569785 970.453553,167.663553 C970.359785,167.757322 970.232608,167.81 970.1,167.81 Z" id="Shape"></path>
                <path d="M977.6,167.81 C977.323858,167.81 977.1,167.586142 977.1,167.31 L977.1,138.31 C977.1,138.033858 977.323858,137.81 977.6,137.81 C977.873908,137.81532 978.09468,138.036092 978.1,138.31 L978.1,167.31 C978.1,167.442608 978.047322,167.569785 977.953553,167.663553 C977.859785,167.757322 977.732608,167.81 977.6,167.81 Z" id="Shape"></path>
                <path d="M984.6,167.81 C984.323858,167.81 984.1,167.586142 984.1,167.31 L984.1,138.31 C984.1,138.033858 984.323858,137.81 984.6,137.81 C984.873908,137.81532 985.09468,138.036092 985.1,138.31 L985.1,167.31 C985.1,167.586142 984.876142,167.81 984.6,167.81 Z" id="Shape"></path>
                <path d="M992.1,167.81 C991.823858,167.81 991.6,167.586142 991.6,167.31 L991.6,138.31 C991.6,138.033858 991.823858,137.81 992.1,137.81 C992.373908,137.81532 992.59468,138.036092 992.6,138.31 L992.6,167.31 C992.6,167.442608 992.547322,167.569785 992.453553,167.663553 C992.359785,167.757322 992.232608,167.81 992.1,167.81 Z" id="Shape"></path>
                <path d="M999.1,167.81 C998.823858,167.81 998.6,167.586142 998.6,167.31 L998.6,138.31 C998.6,138.033858 998.823858,137.81 999.1,137.81 C999.373908,137.81532 999.59468,138.036092 999.6,138.31 L999.6,167.31 C999.6,167.442608 999.547322,167.569785 999.453553,167.663553 C999.359785,167.757322 999.232608,167.81 999.1,167.81 Z" id="Shape"></path>
                <path d="M992.1,116.31 L970.1,116.31 C969.823858,116.31 969.6,116.086142 969.6,115.81 C969.6,115.533858 969.823858,115.31 970.1,115.31 L992.1,115.31 C992.373908,115.31532 992.59468,115.536092 992.6,115.81 C992.6,116.086142 992.376142,116.31 992.1,116.31 Z" id="Shape"></path>
                <path d="M992.1,123.56 L970.1,123.56 C969.823858,123.56 969.6,123.336142 969.6,123.06 C969.6,122.783858 969.823858,122.56 970.1,122.56 L992.1,122.56 C992.373908,122.56532 992.59468,122.786092 992.6,123.06 C992.6,123.336142 992.376142,123.56 992.1,123.56 Z" id="Shape"></path>
                <path d="M992.1,130.69 L970.1,130.69 C969.823858,130.69 969.6,130.466142 969.6,130.19 C969.6,129.913858 969.823858,129.69 970.1,129.69 L992.1,129.69 C992.376142,129.69 992.6,129.913858 992.6,130.19 C992.59468,130.463908 992.373908,130.68468 992.1,130.69 Z" id="Shape"></path>
                <path d="M815.1,167.81 L770.1,167.81 C769.823858,167.81 769.6,167.586142 769.6,167.31 C769.6,167.033858 769.823858,166.81 770.1,166.81 L814.1,166.81 L814.1,52.31 L764.6,52.31 L764.6,72.69 C764.59468,72.9639085 764.373908,73.1846799 764.1,73.19 C763.823858,73.19 763.6,72.9661424 763.6,72.69 L763.6,51.31 L815.1,51.31 L815.1,167.81 Z" id="Shape"></path>
                <path d="M777.1,167.81 C776.823858,167.81 776.6,167.586142 776.6,167.31 L776.6,58.5 C776.6,58.2238576 776.823858,58 777.1,58 C777.376142,58 777.6,58.2238576 777.6,58.5 L777.6,167.31 C777.6,167.586142 777.376142,167.81 777.1,167.81 Z" id="Shape"></path>
                <path d="M799.6,167.81 C799.323858,167.81 799.1,167.586142 799.1,167.31 L799.1,58.5 C799.1,58.2238576 799.323858,58 799.6,58 C799.876142,58 800.1,58.2238576 800.1,58.5 L800.1,167.31 C800.1,167.586142 799.876142,167.81 799.6,167.81 Z" id="Shape"></path>
                <path d="M821.1,95.37 C820.862277,95.3835847 820.649199,95.2243069 820.594937,94.9924615 C820.540676,94.7606161 820.660939,94.523322 820.88,94.43 L849.64,80.24 L870.88,94.46 C870.990172,94.5331055 871.066125,94.6476323 871.090605,94.7775672 C871.115085,94.907502 871.086016,95.0418155 871.01,95.15 C870.857409,95.3781375 870.549441,95.4406236 870.32,95.29 L849.56,81.39 L821.32,95.32 C821.252259,95.3555038 821.176433,95.372737 821.1,95.37 Z" id="Shape"></path>
                <path d="M849.6,167.81 C849.323858,167.81 849.1,167.586142 849.1,167.31 L849.1,80.81 C849.1,80.5338576 849.323858,80.31 849.6,80.31 C849.873908,80.3153201 850.09468,80.5360915 850.1,80.81 L850.1,167.31 C850.1,167.586142 849.876142,167.81 849.6,167.81 Z" id="Shape"></path>
                <path d="M821.1,110.06 C820.911651,110.06 820.738635,109.95619 820.65,109.79 C820.526538,109.544173 820.624844,109.244788 820.87,109.12 L849.37,94.43 C849.487588,94.3678917 849.62537,94.356244 849.751715,94.3977306 C849.878061,94.4392173 849.982118,94.5302749 850.04,94.65 C850.16496,94.8931859 850.071413,95.1916474 849.83,95.32 L821.33,110 C821.257753,110.034187 821.179741,110.054537 821.1,110.06 Z" id="Shape"></path>
                <path d="M821.1,123.66 C820.864621,123.665826 820.657071,123.506646 820.601668,123.277807 C820.546265,123.048967 820.658022,122.812482 820.87,122.71 L849.37,108 C849.528983,107.917829 849.719727,107.926716 849.870381,108.023314 C850.021035,108.119912 850.108711,108.289545 850.100381,108.468314 C850.092052,108.647083 849.988983,108.807829 849.83,108.89 L821.33,123.58 C821.261287,123.625596 821.182177,123.653112 821.1,123.66 Z" id="Shape"></path>
                <path d="M821.1,138.16 C820.864621,138.165826 820.657071,138.006646 820.601668,137.777807 C820.546265,137.548967 820.658022,137.312482 820.87,137.21 L849.37,122.52 C849.528983,122.437829 849.719727,122.446716 849.870381,122.543314 C850.021035,122.639912 850.108711,122.809545 850.100381,122.988314 C850.092052,123.167083 849.988983,123.327829 849.83,123.41 L821.33,138.1 C821.25942,138.138574 821.180429,138.15918 821.1,138.16 Z" id="Shape"></path>
                <path d="M821.1,152.66 C820.864621,152.665826 820.657071,152.506646 820.601668,152.277807 C820.546265,152.048967 820.658022,151.812482 820.87,151.71 L849.37,137 C849.528983,136.917829 849.719727,136.926716 849.870381,137.023314 C850.021035,137.119912 850.108711,137.289545 850.100381,137.468314 C850.092052,137.647083 849.988983,137.807829 849.83,137.89 L821.33,152.58 C821.261287,152.625596 821.182177,152.653112 821.1,152.66 Z" id="Shape"></path>
                <path d="M821.1,166.66 C820.864621,166.665826 820.657071,166.506646 820.601668,166.277807 C820.546265,166.048967 820.658022,165.812482 820.87,165.71 L849.37,151 C849.528983,150.917829 849.719727,150.926716 849.870381,151.023314 C850.021035,151.119912 850.108711,151.289545 850.100381,151.468314 C850.092052,151.647083 849.988983,151.807829 849.83,151.89 L821.33,166.58 C821.261287,166.625596 821.182177,166.653112 821.1,166.66 Z" id="Shape"></path>
                <path d="M856.6,167.81 C856.323858,167.81 856.1,167.586142 856.1,167.31 L856.1,94.87 C856.1,94.5938576 856.323858,94.37 856.6,94.37 C856.873908,94.3753201 857.09468,94.5960915 857.1,94.87 L857.1,167.31 C857.1,167.586142 856.876142,167.81 856.6,167.81 Z" id="Shape"></path>
                <path d="M863.1,167.81 C862.823858,167.81 862.6,167.586142 862.6,167.31 L862.6,98.81 C862.6,98.5338576 862.823858,98.31 863.1,98.31 C863.373908,98.3153201 863.59468,98.5360915 863.6,98.81 L863.6,167.31 C863.6,167.586142 863.376142,167.81 863.1,167.81 Z" id="Shape"></path>
                <path d="M870.6,167.81 C870.323858,167.81 870.1,167.586142 870.1,167.31 L870.1,102.31 C870.1,102.033858 870.323858,101.81 870.6,101.81 C870.873908,101.81532 871.09468,102.036092 871.1,102.31 L871.1,167.31 C871.1,167.586142 870.876142,167.81 870.6,167.81 Z" id="Shape"></path>
                <path d="M1028.1,167.81 L1005.6,167.81 L1005.6,109.56 C1005.6,109.283858 1005.82386,109.06 1006.1,109.06 C1006.37391,109.06532 1006.59468,109.286092 1006.6,109.56 L1006.6,166.81 L1028.1,166.81 C1028.37391,166.81532 1028.59468,167.036092 1028.6,167.31 C1028.6,167.586142 1028.37614,167.81 1028.1,167.81 Z" id="Shape"></path>
                <path d="M1034.6,167.81 C1034.32386,167.81 1034.1,167.586142 1034.1,167.31 L1034.1,73.93 L1006.46,102.66 C1006.36612,102.754656 1006.23832,102.807899 1006.105,102.807899 C1005.97168,102.807899 1005.84388,102.754656 1005.75,102.66 C1005.65594,102.567836 1005.60293,102.44169 1005.60293,102.31 C1005.60293,102.17831 1005.65594,102.052164 1005.75,101.96 L1035.1101,71.44 L1035.11,167.3 C1035.11275,167.436085 1035.0599,167.567409 1034.96366,167.663655 C1034.86741,167.759902 1034.73608,167.81275 1034.6,167.81 Z" id="Shape"></path>
                <path d="M1077.1,167.81 C1076.82386,167.81 1076.6,167.586142 1076.6,167.31 L1076.6,3 L1035.1,44.5 L1035.1,66.29 C1035.1,66.5661424 1034.87614,66.79 1034.6,66.79 C1034.32386,66.79 1034.1,66.5661424 1034.1,66.29 L1034.1,44.11 L1077.6,0.61 L1077.6,167.31 C1077.6,167.586142 1077.37614,167.81 1077.1,167.81 Z" id="Shape"></path>
                <path d="M1040.6,52.31 C1040.39996,52.30719 1040.22086,52.1854129 1040.14468,52.0004242 C1040.06851,51.8154356 1040.10994,51.6028502 1040.25,51.46 L1076.12,15.58 C1076.31606,15.3839391 1076.63394,15.3839391 1076.83,15.5800001 C1077.02606,15.7760612 1077.02606,16.0939389 1076.83,16.29 L1041,52.17 C1040.89259,52.2713468 1040.74716,52.3222475 1040.6,52.31 Z" id="Shape"></path>
                <path d="M1040.6,66.69 C1040.4674,66.6916165 1040.34028,66.6371383 1040.25,66.54 C1040.15534,66.4461167 1040.1021,66.3183188 1040.1021,66.185 C1040.1021,66.0516812 1040.15534,65.9238833 1040.25,65.83 L1076.12,30 C1076.21388,29.9053437 1076.34168,29.8521008 1076.475,29.8521008 C1076.60832,29.8521008 1076.73612,29.9053437 1076.83,30 C1077.02178,30.1978137 1077.02178,30.5121863 1076.83,30.71 L1041,66.54 C1040.89663,66.64855 1040.74926,66.703814 1040.6,66.69 Z" id="Shape"></path>
                <path d="M1040.6,80.69 C1040.4674,80.6916165 1040.34028,80.6371383 1040.25,80.54 C1040.15534,80.4461167 1040.1021,80.3183188 1040.1021,80.185 C1040.1021,80.0516812 1040.15534,79.9238833 1040.25,79.83 L1076.12,44 C1076.21388,43.9053437 1076.34168,43.8521008 1076.475,43.8521008 C1076.60832,43.8521008 1076.73612,43.9053437 1076.83,44 C1077.02178,44.1978137 1077.02178,44.5121863 1076.83,44.71 L1041,80.54 C1040.89663,80.64855 1040.74926,80.703814 1040.6,80.69 Z" id="Shape"></path>
                <path d="M1040.6,94.87 C1040.46869,94.875474 1040.34131,94.8245219 1040.25,94.73 C1040.15534,94.6361167 1040.1021,94.5083188 1040.1021,94.375 C1040.1021,94.2416812 1040.15534,94.1138833 1040.25,94.02 L1076.12,58.15 C1076.21388,58.0553437 1076.34168,58.0021008 1076.475,58.0021008 C1076.60832,58.0021008 1076.73612,58.0553437 1076.83,58.15 C1077.02057,58.3444218 1077.02057,58.6555782 1076.83,58.85 L1041,94.73 C1040.89647,94.837542 1040.748,94.889505 1040.6,94.87 Z" id="Shape"></path>
                <path d="M1070.6,167.81 C1070.46954,167.810784 1070.34393,167.760543 1070.25,167.67 L1040.32,137.74 C1040.12943,137.545578 1040.12943,137.234422 1040.32,137.04 C1040.41388,136.945344 1040.54168,136.892101 1040.675,136.892101 C1040.80832,136.892101 1040.93612,136.945344 1041.03,137.04 L1071,167 C1071.09466,167.093883 1071.1479,167.221681 1071.1479,167.355 C1071.1479,167.488319 1071.09466,167.616117 1071,167.71 C1070.88614,167.797028 1070.74142,167.833209 1070.6,167.81 Z" id="Shape"></path>
                <path d="M1077.1,159.31 C1076.96954,159.310784 1076.84393,159.260543 1076.75,159.17 L1040.61,123 C1040.41943,122.805578 1040.41943,122.494422 1040.61,122.3 C1040.70388,122.205344 1040.83168,122.152101 1040.965,122.152101 C1041.09832,122.152101 1041.22612,122.205344 1041.32,122.3 L1077.45,158.43 C1077.54466,158.523883 1077.5979,158.651681 1077.5979,158.785 C1077.5979,158.918319 1077.54466,159.046117 1077.45,159.14 C1077.35973,159.239825 1077.23427,159.300763 1077.1,159.31 Z" id="Shape"></path>
                <path d="M1076.29,145.5 C1076.15487,145.499669 1076.02539,145.44572 1075.93,145.35 L1040.25,109.67 C1040.15534,109.576117 1040.1021,109.448319 1040.1021,109.315 C1040.1021,109.181681 1040.15534,109.053883 1040.25,108.96 C1040.34073,108.863323 1040.46741,108.808481 1040.6,108.808481 C1040.73259,108.808481 1040.85927,108.863323 1040.95,108.96 L1076.64,144.65 C1076.78006,144.79285 1076.82149,145.005436 1076.74532,145.190424 C1076.66914,145.375413 1076.49004,145.49719 1076.29,145.5 Z" id="Shape"></path>
                <path d="M1076.85,131.06 C1076.71954,131.060784 1076.59393,131.010543 1076.5,130.92 L1047.75,102.17 C1047.65534,102.076117 1047.6021,101.948319 1047.6021,101.815 C1047.6021,101.681681 1047.65534,101.553883 1047.75,101.46 C1047.84073,101.363323 1047.96741,101.308481 1048.1,101.308481 C1048.23259,101.308481 1048.35927,101.363323 1048.45,101.46 L1077.2,130.21 C1077.29466,130.303883 1077.3479,130.431681 1077.3479,130.565 C1077.3479,130.698319 1077.29466,130.826117 1077.2,130.92 C1077.10495,131.0088 1076.98007,131.058752 1076.85,131.06 Z" id="Shape"></path>
                <path d="M1076.68,115.92 C1076.5474,115.921617 1076.42028,115.867138 1076.33,115.77 L1055.33,94.77 C1055.13394,94.5739389 1055.13394,94.2560611 1055.33,94.06 C1055.52606,93.8639389 1055.84394,93.8639389 1056.04,94.06 L1077.04,115.06 C1077.13466,115.153883 1077.1879,115.281681 1077.1879,115.415 C1077.1879,115.548319 1077.13466,115.676117 1077.04,115.77 C1076.94739,115.869777 1076.81606,115.924496 1076.68,115.92 Z" id="Shape"></path>
                <path d="M1077,102.89 C1076.8674,102.891617 1076.74028,102.837138 1076.65,102.74 L1062.1,88.2 C1061.90394,88.0039389 1061.90394,87.6860612 1062.1,87.4900002 C1062.29606,87.2939391 1062.61394,87.2939391 1062.81,87.49 L1077.37,102 C1077.46668,102.090733 1077.52152,102.217414 1077.52152,102.35 C1077.52152,102.482586 1077.46668,102.609267 1077.37,102.7 C1077.28293,102.817429 1077.14617,102.887656 1077,102.89 Z" id="Shape"></path>
                <path d="M1077,87.67 C1076.86684,87.6693157 1076.73863,87.6194567 1076.64,87.53 L1070.29,81.17 C1070.19534,81.0761167 1070.1421,80.9483188 1070.1421,80.815 C1070.1421,80.6816812 1070.19534,80.5538833 1070.29,80.46 C1070.38073,80.3633228 1070.50741,80.3084814 1070.64,80.3084814 C1070.77259,80.3084814 1070.89927,80.3633228 1070.99,80.46 L1077.35,86.82 C1077.44466,86.9138833 1077.4979,87.0416812 1077.4979,87.175 C1077.4979,87.3083188 1077.44466,87.4361167 1077.35,87.53 C1077.25495,87.6187999 1077.13007,87.6687517 1077,87.67 Z" id="Shape"></path>
                <path d="M1012.6,131.06 C1012.39996,131.05719 1012.22086,130.935413 1012.14468,130.750424 C1012.06851,130.565436 1012.10994,130.35285 1012.25,130.21 L1027.18,115.27 C1027.37606,115.073939 1027.69394,115.073939 1027.89,115.27 C1028.08606,115.466061 1028.08606,115.783939 1027.89,115.98 L1013,130.92 C1012.89259,131.021347 1012.74716,131.072247 1012.6,131.06 Z" id="Shape"></path>
                <path d="M1012.6,145.62 C1012.46869,145.625474 1012.34131,145.574522 1012.25,145.48 C1012.15534,145.386117 1012.1021,145.258319 1012.1021,145.125 C1012.1021,144.991681 1012.15534,144.863883 1012.25,144.77 L1027.18,129.83 C1027.37606,129.633939 1027.69394,129.633939 1027.89,129.83 C1028.08606,130.026061 1028.08606,130.343939 1027.89,130.54 L1013,145.48 C1012.89647,145.587542 1012.748,145.639505 1012.6,145.62 Z" id="Shape"></path>
                <path d="M1012.6,160.12 C1012.46869,160.125474 1012.34131,160.074522 1012.25,159.98 C1012.15534,159.886117 1012.1021,159.758319 1012.1021,159.625 C1012.1021,159.491681 1012.15534,159.363883 1012.25,159.27 L1027.18,144.33 C1027.37606,144.133939 1027.69394,144.133939 1027.89,144.33 C1028.08606,144.526061 1028.08606,144.843939 1027.89,145.04 L1013,160 C1012.89273,160.100292 1012.74476,160.144685 1012.6,160.12 Z" id="Shape"></path>
                <path d="M1012.6,116.69 C1012.32386,116.69 1012.1,116.466142 1012.1,116.19 L1012.1,108.47 C1012.1,108.193858 1012.32386,107.97 1012.6,107.97 C1012.87614,107.97 1013.1,108.193858 1013.1,108.47 L1013.1,116.19 C1013.09468,116.463908 1012.87391,116.68468 1012.6,116.69 Z" id="Shape"></path>
                <path d="M1020.07,109.26 C1019.79386,109.26 1019.57,109.036142 1019.57,108.76 L1019.57,101 C1019.57,100.723858 1019.79386,100.5 1020.07,100.5 C1020.34614,100.5 1020.57,100.723858 1020.57,101 L1020.57,108.72 C1020.57819,108.858658 1020.52948,108.99466 1020.43511,109.09658 C1020.34074,109.198499 1020.20888,109.257518 1020.07,109.26 Z" id="Shape"></path>
                <path d="M1027.54,102.59 C1027.26386,102.59 1027.04,102.366142 1027.04,102.09 L1027.04,94.37 C1027.04,94.0938576 1027.26386,93.87 1027.54,93.87 C1027.81391,93.8753201 1028.03468,94.0960915 1028.04,94.37 L1028.04,102.09 C1028.04,102.366142 1027.81614,102.59 1027.54,102.59 Z" id="Shape"></path>
                <path d="M1041,167.81 C1040.72386,167.81 1040.5,167.586142 1040.5,167.31 L1040.5,151.31 C1040.5,151.033858 1040.72386,150.81 1041,150.81 C1041.27391,150.81532 1041.49468,151.036092 1041.5,151.31 L1041.5,167.31 C1041.5,167.586142 1041.27614,167.81 1041,167.81 Z" id="Shape"></path>
                <path d="M1048.1,167.81 C1047.82386,167.81 1047.6,167.586142 1047.6,167.31 L1047.6,158.81 C1047.6,158.533858 1047.82386,158.31 1048.1,158.31 C1048.37391,158.31532 1048.59468,158.536092 1048.6,158.81 L1048.6,167.31 C1048.6,167.586142 1048.37614,167.81 1048.1,167.81 Z" id="Shape"></path>
                <path d="M1120.1,165.81 C1119.82386,165.81 1119.6,165.586142 1119.6,165.31 L1119.6,87.67 L1083.77,87.67 C1083.49386,87.67 1083.27,87.4461424 1083.27,87.17 C1083.27,86.8938576 1083.49386,86.67 1083.77,86.67 L1120.6,86.67 L1120.6,165.31 C1120.6,165.586142 1120.37614,165.81 1120.1,165.81 Z" id="Shape"></path>
                <path d="M1113.1,102.59 L1083.77,102.59 C1083.49386,102.59 1083.27,102.366142 1083.27,102.09 C1083.27,101.813858 1083.49386,101.59 1083.77,101.59 L1113.1,101.59 C1113.37391,101.59532 1113.59468,101.816092 1113.6,102.09 C1113.6,102.366142 1113.37614,102.59 1113.1,102.59 Z" id="Shape"></path>
                <path d="M1113.1,115.92 L1083.77,115.92 C1083.49386,115.92 1083.27,115.696142 1083.27,115.42 C1083.27,115.143858 1083.49386,114.92 1083.77,114.92 L1113.1,114.92 C1113.37614,114.92 1113.6,115.143858 1113.6,115.42 C1113.59468,115.693908 1113.37391,115.91468 1113.1,115.92 Z" id="Shape"></path>
                <path d="M1113.1,130.69 L1083.77,130.69 C1083.49386,130.69 1083.27,130.466142 1083.27,130.19 C1083.27,129.913858 1083.49386,129.69 1083.77,129.69 L1113.1,129.69 C1113.37614,129.69 1113.6,129.913858 1113.6,130.19 C1113.59468,130.463908 1113.37391,130.68468 1113.1,130.69 Z" id="Shape"></path>
                <path d="M1113.1,145.19 L1083.77,145.19 C1083.49386,145.19 1083.27,144.966142 1083.27,144.69 C1083.27,144.413858 1083.49386,144.19 1083.77,144.19 L1113.1,144.19 C1113.37614,144.19 1113.6,144.413858 1113.6,144.69 C1113.59468,144.963908 1113.37391,145.18468 1113.1,145.19 Z" id="Shape"></path>
                <path d="M1163.27,167.81 L1083.77,167.81 C1083.49386,167.81 1083.27,167.586142 1083.27,167.31 C1083.27,167.033858 1083.49386,166.81 1083.77,166.81 L1162.27,166.81 L1162.27,80.19 C1162.27,79.9138576 1162.49386,79.69 1162.77,79.69 C1163.04614,79.69 1163.27,79.9138576 1163.27,80.19 L1163.27,167.81 Z" id="Shape"></path>
                <path d="M1148.1,167.81 C1147.82386,167.81 1147.6,167.586142 1147.6,167.31 L1147.6,80.19 C1147.6,79.9138576 1147.82386,79.69 1148.1,79.69 C1148.37614,79.69 1148.6,79.9138576 1148.6,80.19 L1148.6,167.31 C1148.6,167.586142 1148.37614,167.81 1148.1,167.81 Z" id="Shape"></path>
                <path d="M1134.1,167.81 C1133.82386,167.81 1133.6,167.586142 1133.6,167.31 L1133.6,80.19 C1133.6,79.9138576 1133.82386,79.69 1134.1,79.69 C1134.37614,79.69 1134.6,79.9138576 1134.6,80.19 L1134.6,167.31 C1134.6,167.586142 1134.37614,167.81 1134.1,167.81 Z" id="Shape"></path>
                <path d="M1347.77,167.81 L1176.27,167.81 L1176.27,66.69 L1120.6,66.69 L1120.6,80.19 C1120.59468,80.4639085 1120.37391,80.6846799 1120.1,80.69 C1119.82386,80.69 1119.6,80.4661424 1119.6,80.19 L1119.6,65.69 L1177.27,65.69 L1177.27,166.81 L1347.77,166.81 C1348.04391,166.81532 1348.26468,167.036092 1348.27,167.31 C1348.27,167.586142 1348.04614,167.81 1347.77,167.81 Z" id="Shape"></path>
            </g>
        </g>
    </g>
</svg>