<?xml version="1.0" encoding="UTF-8"?>
<svg width="1920px" height="289px" viewBox="0 0 1920 289" version="1.1" xmlns="http://www.w3.org/2000/svg" xmlns:xlink="http://www.w3.org/1999/xlink">
    <!-- Generator: sketchtool 50.2 (55047) - http://www.bohemiancoding.com/sketch -->
    <title>BAF8B412-BE6D-40B9-BE16-1C98206AF6E3</title>
    <desc>Created with sketchtool.</desc>
    <defs></defs>
    <g id="Page-1" stroke="none" stroke-width="1" fill="none" fill-rule="evenodd">
        <g id="00-Landing" transform="translate(0.000000, -4019.000000)" fill-rule="nonzero">
            <g id="city3" transform="translate(0.000000, 4019.000000)">
                <rect id="Rectangle-path" fill="#EEF8FB" x="3.17" y="0" width="1916.83" height="289"></rect>
                <path d="M1915.32,199.63 L1915.32,240.21 L1909,240.21 L1909,188.9 L1879.72,188.9 L1879.72,240.21 L1875.42,240.21 L1875.42,139.93 L1857.2,139.93 L1838.71,107.74 L1820.21,139.93 L1801.36,139.93 L1801.36,240.21 L1792.75,240.21 L1792.75,139.93 L1766.05,139.93 L1766.05,240.21 L1760.6,240.21 L1760.6,77.35 L1754.73,77.35 C1752.31579,71.1622854 1746.50273,66.9609205 1739.87,66.61 L1738.77,20.66 L1737.66,66.66 C1731.19917,67.1764339 1725.60196,71.3403516 1723.25,77.38 L1715.82,77.38 L1715.82,174.85 L1705.48,174.85 L1705.48,155.21 L1682.48,155.21 L1682.48,167 L1661,167 L1661,184 L1648.08,184 L1648.08,240.16 L1642.63,240.16 L1642.63,115.13 L1614.5,115.13 L1614.5,131.3 L1612.5,131.3 L1602.64,114.14 L1592.77,131.3 L1572.87,131.3 L1572.87,103.88 L1556.8,103.88 L1555.8,61.23 L1554.8,103.88 L1542.72,103.88 L1542.72,240.21 L1524.72,240.21 L1524.72,161.84 L1492.8,161.84 L1492.8,240.21 L1469.96,240.21 L1469.96,140.51 L1441.96,140.51 L1441.96,240.21 L1405.56,240.21 L1405.56,106.77 C1405.57431,99.3654083 1399.8203,93.2301295 1392.43,92.77 L1391.58,57.31 L1390.73,92.77 C1383.33576,93.2250639 1377.57601,99.3617814 1377.59,106.77 L1377.59,240.21 L1371.69,240.21 L1371.69,129.46 L1343.69,129.46 L1343.69,240.21 L1306.14,240.21 L1306.14,170.21 L1282.84,170.21 L1282.84,240.21 L1278.59,240.21 L1278.59,139.93 L1263.85,139.93 L1262.65,90.13 L1261.46,139.93 L1246.55,139.93 L1246.55,163 L1225.88,163 L1225.88,240.21 L1221.57,240.21 L1221.57,188.9 L1206.94,188.9 L1206.94,194.9 L1192.3,194.9 L1192.3,240.16 L1190.86,240.16 L1190.86,171.26 L1168.76,171.26 L1168.76,240.16 L1155.56,240.16 L1155.56,199.63 L1140.92,199.63 L1140.92,240.21 L1134.6,240.21 L1134.6,188.9 L1105.32,188.9 L1105.32,240.21 L1101,240.21 L1101,139.93 L1082.8,139.93 L1064.3,107.74 L1045.8,139.93 L1027,139.93 L1027,240.21 L1018.39,240.21 L1018.39,139.93 L991.69,139.93 L991.69,240.21 L986.24,240.21 L986.24,77.35 L980.37,77.35 C977.955789,71.1622854 972.142728,66.9609205 965.51,66.61 L964.41,20.66 L963.31,66.66 C956.845445,67.1727486 951.243516,71.3372893 948.89,77.38 L941.46,77.38 L941.46,174.85 L931.08,174.85 L931.08,155.21 L908.08,155.21 L908.08,167 L886.58,167 L886.58,184 L873.67,184 L873.67,240.16 L868.21,240.16 L868.21,115.13 L840.08,115.13 L840.08,131.3 L838.08,131.3 L828.22,114.14 L818.36,131.3 L798.46,131.3 L798.46,103.88 L782.39,103.88 L781.39,61.23 L780.39,103.88 L768.26,103.88 L768.26,240.21 L750.26,240.21 L750.26,161.84 L718.31,161.84 L718.31,240.21 L695.48,240.21 L695.48,140.51 L667.48,140.51 L667.48,240.21 L631.08,240.21 L631.08,106.77 C631.09431,99.3654083 625.340295,93.2301295 617.95,92.77 L617.1,57.31 L616.25,92.77 C608.859705,93.2301295 603.10569,99.3654083 603.12,106.77 L603.12,240.21 L597.21,240.21 L597.21,129.46 L569.21,129.46 L569.21,240.21 L555,240.21 L555,188.9 L540.37,188.9 L540.37,194.9 L525.73,194.9 L525.73,240.16 L524.3,240.16 L524.3,171.26 L502.2,171.26 L502.2,240.16 L489,240.16 L489,199.63 L474.35,199.63 L474.35,240.21 L468,240.21 L468,188.9 L438.76,188.9 L438.76,240.21 L434.45,240.21 L434.45,139.93 L416.24,139.93 L397.74,107.74 L379.25,139.93 L360.39,139.93 L360.39,240.21 L351.78,240.21 L351.78,139.93 L325.09,139.93 L325.09,240.21 L319.63,240.21 L319.63,77.35 L313.76,77.35 C311.349362,71.1638411 305.539906,66.9622552 298.91,66.61 L297.8,20.66 L296.7,66.66 C290.236324,67.1750894 284.635504,71.3388057 282.28,77.38 L274.85,77.38 L274.85,174.85 L264.52,174.85 L264.52,155.21 L241.52,155.21 L241.52,167 L220,167 L220,184 L207.11,184 L207.11,240.16 L201.66,240.16 L201.66,115.13 L173.53,115.13 L173.53,131.3 L171.53,131.3 L161.66,114.14 L151.8,131.3 L131.9,131.3 L131.9,103.88 L115.83,103.88 L114.83,61.23 L113.83,103.88 L101.71,103.88 L101.71,240.21 L83.71,240.21 L83.71,161.84 L51.76,161.84 L51.76,240.21 L28.92,240.21 L28.92,140.51 L1,140.51 L1,240.21 L0,240.21 L0,285.66 L1920,285.66 L1920,199.66 L1915.32,199.63 Z" id="Shape" fill="#E6F3F7"></path>
                <polygon id="Shape" fill="#DAEFF3" points="1868.97 192.93 1868.97 274.76 1841.78 274.76 1841.78 197.22 1794.77 197.22 1794.77 274.76 1784.7 274.76 1784.7 184.69 1737.7 184.69 1737.7 274.76 1725.61 274.76 1725.61 151.4 1695.6 151.4 1695.6 178.76 1682.84 178.76 1682.84 274.76 1666.85 274.76 1666.85 206.45 1636.84 206.45 1636.84 274.76 1593.32 274.76 1593.32 213.37 1552.7 213.37 1552.7 193.59 1502.54 193.59 1502.54 209.09 1457.21 209.09 1457.21 274.76 1424.44 274.76 1424.44 232.82 1416.05 232.82 1416.05 215.35 1389.73 215.35 1389.73 257.21 1362.54 257.21 1362.54 188.98 1348.45 188.98 1348.45 150.91 1304.53 150.91 1304.53 274.76 1294.9 274.76 1294.9 184.69 1247.89 184.69 1247.89 274.76 1235.81 274.76 1235.81 151.4 1205.8 151.4 1205.8 178.76 1193.04 178.76 1193.04 274.76 1177.05 274.76 1177.05 206.45 1147.04 206.45 1147.04 274.76 1103.52 274.76 1103.52 213.37 1062.89 213.37 1062.89 193.59 1012.74 193.59 1012.74 209.09 967.41 209.09 967.41 274.76 934.64 274.76 934.64 232.82 926.25 232.82 926.25 215.35 899.92 215.35 899.92 257.21 872.73 257.21 872.73 188.98 858.65 188.98 858.65 150.91 814.72 150.91 814.72 274.76 798.95 274.76 798.95 213.37 758.33 213.37 758.33 193.59 708.17 193.59 708.17 209.09 662.85 209.09 662.85 274.76 630.07 274.76 630.07 232.82 621.67 232.82 621.67 215.35 595.36 215.35 595.36 257.21 588.97 257.21 588.97 190.62 561.57 190.62 561.57 274.76 555.53 274.76 555.53 213.7 503.83 213.7 503.83 274.76 464.88 274.76 464.88 207.76 416.53 207.76 416.53 192.93 364.82 192.93 364.82 274.76 337.63 274.76 337.63 197.22 290.62 197.22 290.62 274.76 280.55 274.76 280.55 184.69 233.54 184.69 233.54 274.76 221.46 274.76 221.46 151.4 191.45 151.4 191.45 178.76 178.69 178.76 178.69 274.76 162.7 274.76 162.7 206.45 132.69 206.45 132.69 274.76 89.17 274.76 89.17 213.37 48.55 213.37 48.55 193.59 0 193.59 0 285.66 1920 285.66 1920 192.93"></polygon>
                <path d="M822.57,285.66 L814.72,285.66 L814.72,274.76 L822.33,274.76 C822.37,278.4 822.44,282 822.57,285.66 Z" id="Shape" fill="#AED7B5"></path>
                <path d="M822.57,285.66 L814.72,285.66 L814.72,274.76 L822.33,274.76 C822.37,278.4 822.44,282 822.57,285.66 Z" id="Shape" fill="#AED7B5"></path>
                <path d="M1140.08,222 L1166.62,222 L1166.62,285.66 L1140.08,285.66 L1140.08,222 Z M1001.67,211.02 L1029.32,211.02 L1029.32,285.66 L1001.67,285.66 L1001.67,211.02 Z M1123.36,226.18 L1123.36,252.33 L1132.24,252.33 L1132.24,285.66 L1059.2,285.66 L1059.2,183.65 L1086.85,183.65 L1086.85,239.43 L1095.71,239.43 L1095.71,226.18 L1123.36,226.18 Z M949.19,247.79 L949.19,238.03 L966.53,238.03 L966.53,285.66 L915.33,285.66 L915.33,219.03 L941.88,203 L941.88,247.79 L949.19,247.79 Z M1276.01,230.01 L1276.01,234.2 L1279.95,234.2 L1279.95,285.66 L1227.11,285.66 L1227.11,241.52 L1249.13,241.52 L1249.13,222 L1263.11,222 L1263.11,227.57 L1269.02,227.57 L1269.02,230.01 L1276.01,230.01 Z M1284.39,222 L1305.01,222 L1305.01,285.66 L1284.39,285.66 L1284.39,222 Z M1186.67,241.52 L1186.67,202.47 L1214.62,202.47 L1214.62,285.66 L1175.5,285.66 L1175.5,241.52 L1186.67,241.52 Z M881.47,195.5 L908.02,195.5 L908.02,285.65 L881.47,285.65 L881.47,195.5 Z M732.15,241.52 L732.15,202.47 L760.09,202.47 L760.09,285.66 L720.97,285.66 L720.97,241.52 L732.15,241.52 Z M1308.06,252.33 L1333.57,252.33 L1333.57,285.66 L1308.06,285.66 L1308.06,252.33 Z M821.48,230.01 L821.48,234.2 L825.43,234.2 L825.43,285.66 L772.59,285.66 L772.59,241.52 L794.61,241.52 L794.61,222 L808.58,222 L808.58,227.57 L814.5,227.57 L814.5,230.01 L821.48,230.01 Z M829.87,222 L850.5,222 L850.5,285.66 L829.87,285.66 L829.87,222 Z M1336,195.5 L1362.54,195.5 L1362.54,285.65 L1336,285.65 L1336,195.5 Z M1873.76,247.79 L1873.76,238.03 L1891.1,238.03 L1891.1,285.66 L1839.9,285.66 L1839.9,219.03 L1866.45,203 L1866.45,247.79 L1873.76,247.79 Z M1806.04,195.5 L1832.59,195.5 L1832.59,285.65 L1806.04,285.65 L1806.04,195.5 Z M1778.1,252.33 L1804.65,252.33 L1804.65,285.66 L1778.1,285.66 L1778.1,252.33 Z M1656.72,241.52 L1656.72,202.47 L1684.66,202.47 L1684.66,285.66 L1645.54,285.66 L1645.54,241.52 L1656.72,241.52 Z M1594.61,222 L1621.15,222 L1621.15,285.66 L1594.61,285.66 L1594.61,222 Z M1577.88,226.18 L1577.88,252.33 L1586.76,252.33 L1586.76,285.66 L1513.72,285.66 L1513.72,183.65 L1541.38,183.65 L1541.38,239.43 L1550.23,239.43 L1550.23,226.18 L1577.88,226.18 Z M1456.19,211.02 L1483.84,211.02 L1483.84,285.66 L1456.19,285.66 L1456.19,211.02 Z M1746.05,230.01 L1746.05,234.2 L1750,234.2 L1750,285.66 L1697.15,285.66 L1697.15,241.52 L1719.18,241.52 L1719.18,222 L1733.15,222 L1733.15,227.57 L1739.07,227.57 L1739.07,230.01 L1746.05,230.01 Z M1754.44,222 L1775.07,222 L1775.07,285.66 L1754.44,285.66 L1754.44,222 Z M1403.72,247.79 L1403.72,238.03 L1421.06,238.03 L1421.06,285.66 L1369.86,285.66 L1369.86,219.03 L1396.4,203 L1396.4,247.79 L1403.72,247.79 Z M422.89,211.02 L450.54,211.02 L450.54,285.66 L422.89,285.66 L422.89,211.02 Z M370.41,247.79 L370.41,238.03 L387.75,238.03 L387.75,285.66 L336.55,285.66 L336.55,219.03 L363.1,203 L363.1,247.79 L370.41,247.79 Z M302.69,195.5 L329.24,195.5 L329.24,285.65 L302.69,285.65 L302.69,195.5 Z M274.75,252.33 L301.3,252.33 L301.3,285.66 L274.75,285.66 L274.75,252.33 Z M153.37,241.52 L153.37,202.47 L181.31,202.47 L181.31,285.66 L142.19,285.66 L142.19,241.52 L153.37,241.52 Z M91.26,222 L117.8,222 L117.8,285.66 L91.26,285.66 L91.26,222 Z M74.53,226.18 L74.53,252.33 L83.41,252.33 L83.41,285.66 L10.37,285.66 L10.37,183.65 L38.03,183.65 L38.03,239.43 L46.88,239.43 L46.88,226.18 L74.53,226.18 Z M242.7,230.01 L242.7,234.2 L246.65,234.2 L246.65,285.66 L193.81,285.66 L193.81,241.52 L215.83,241.52 L215.83,222 L229.8,222 L229.8,227.57 L235.72,227.57 L235.72,230.01 L242.7,230.01 Z M251.09,222 L271.72,222 L271.72,285.66 L251.09,285.66 L251.09,222 Z M540.25,226.18 L540.25,252.33 L549.13,252.33 L549.13,285.66 L476.09,285.66 L476.09,183.65 L503.74,183.65 L503.74,239.43 L512.6,239.43 L512.6,226.18 L540.25,226.18 Z M619.09,241.52 L619.09,202.47 L647.03,202.47 L647.03,285.66 L607.91,285.66 L607.91,241.52 L619.09,241.52 Z M556.98,222 L583.52,222 L583.52,285.66 L556.98,285.66 L556.98,222 Z M708.42,230.01 L708.42,234.2 L712.37,234.2 L712.37,285.66 L659.52,285.66 L659.52,241.52 L681.55,241.52 L681.55,222 L695.52,222 L695.52,227.57 L701.43,227.57 L701.43,230.01 L708.42,230.01 Z" id="Combined-Shape" fill="#D1E8EE"></path>
                <rect id="Rectangle-path" fill="#C5E4EC" x="853.53" y="252.33" width="26.55" height="33.33"></rect>
            </g>
        </g>
    </g>
</svg>