<?xml version="1.0" encoding="UTF-8"?>
<svg width="1753px" height="235px" viewBox="0 0 1753 235" version="1.1" xmlns="http://www.w3.org/2000/svg" xmlns:xlink="http://www.w3.org/1999/xlink">
    <!-- Generator: sketchtool 50.2 (55047) - http://www.bohemiancoding.com/sketch -->
    <title>0885E80B-FAC1-4A1D-8759-E62237BE2CA6</title>
    <desc>Created with sketchtool.</desc>
    <defs></defs>
    <g id="Page-1" stroke="none" stroke-width="1" fill="none" fill-rule="evenodd">
        <g id="00-Landing" transform="translate(0.000000, -2181.000000)" stroke="#0080FF" stroke-width="3">
            <path d="M2128.48628,2283.46106 L2129.06832,2283.28998 L2129.06832,3292.42857 L-140.172001,3292.42857 L-140.172001,2322 L-138.51363,2322.46593 C-127.048491,2241.58041 -57.5263008,2179.3737 26.5250452,2179.3737 C118.589282,2179.3737 193.222091,2254.00651 193.222091,2346.07074 C193.222091,2353.86712 192.68687,2361.53849 191.651166,2369.05011 C195.583821,2368.7891 199.551598,2368.65652 203.550341,2368.65652 C248.426957,2368.65652 289.4034,2385.35514 320.60506,2412.87777 C387.227351,2314.06916 500.18551,2249.08576 628.321355,2249.08576 C732.465446,2249.08576 826.583402,2292.01275 893.946449,2361.13795 C938.33554,2320.64216 997.387983,2295.94657 1062.20839,2295.94657 C1138.77245,2295.94657 1207.28924,2330.40106 1253.09973,2384.65104 C1288.39247,2330.24473 1349.66707,2294.25373 1419.34783,2294.25373 C1490.47894,2294.25373 1552.85032,2331.75857 1587.76579,2388.07207 C1617.07931,2354.00389 1660.50977,2332.43067 1708.97893,2332.43067 C1711.4291,2332.43067 1713.86639,2332.4858 1716.28964,2332.59489 C1714.52523,2321.70056 1713.60813,2310.52221 1713.60813,2299.12966 C1713.60813,2184.40349 1806.61206,2091.39956 1921.33823,2091.39956 C2030.79337,2091.39956 2120.47646,2176.0538 2128.48628,2283.46107 Z" id="cloud_stroke"></path>
        </g>
    </g>
</svg>