<?xml version="1.0" encoding="UTF-8"?>
<svg width="375px" height="1804px" viewBox="0 0 375 1804" version="1.1" xmlns="http://www.w3.org/2000/svg" xmlns:xlink="http://www.w3.org/1999/xlink">
    <!-- Generator: Sketch 50.2 (55047) - http://www.bohemiancoding.com/sketch -->
    <title>cloud_stroke</title>
    <desc>Created with Sketch.</desc>
    <defs></defs>
    <g id="Page-1" stroke="none" stroke-width="1" fill="none" fill-rule="evenodd">
        <g id="iPhone-8" transform="translate(0.000000, -1088.000000)" fill="#FFFFFF" stroke="#0080FF">
            <path d="M415.882443,1127.76894 L416,1127.73551 L416,2891 L-42,2891 L-42,1135.29518 L-41.6292453,1135.39597 C-39.2091313,1119.18907 -25.2337601,1106.75869 -8.3555921,1106.75869 C10.2257013,1106.75869 25.2888158,1121.82427 25.2888158,1140.4086 C25.2888158,1141.7018 25.215878,1142.97796 25.0738923,1144.2332 C25.9708468,1144.16653 26.8769147,1144.1326 27.7909058,1144.1326 C36.8962943,1144.1326 45.2153441,1147.49987 51.5711202,1153.05727 C65.0864666,1133.58243 87.6067189,1120.83095 113.104752,1120.83095 C134.124118,1120.83095 153.119914,1129.49631 166.715775,1143.45011 C175.674809,1135.27552 187.593343,1130.2904 200.676024,1130.2904 C216.128922,1130.2904 229.957642,1137.24548 239.203558,1148.19652 C246.326678,1137.21392 258.693712,1129.94868 272.757355,1129.94868 C287.113722,1129.94868 299.702116,1137.51951 306.749093,1148.8871 C312.665432,1142.01001 321.430987,1137.65518 331.213501,1137.65518 C331.708018,1137.65518 332.199936,1137.66631 332.689018,1137.68833 C332.332909,1135.48917 332.147811,1133.23268 332.147811,1130.93295 C332.147811,1107.77402 350.918763,1089 374.073905,1089 C396.164825,1089 414.265292,1106.08795 415.882443,1127.76894 Z" id="cloud_stroke"></path>
        </g>
    </g>
</svg>