<?xml version="1.0" encoding="UTF-8"?>
<svg width="50px" height="48px" viewBox="0 0 50 48" version="1.1" xmlns="http://www.w3.org/2000/svg" xmlns:xlink="http://www.w3.org/1999/xlink">
    <!-- Generator: sketchtool 50.2 (55047) - http://www.bohemiancoding.com/sketch -->
    <title>C48665B2-11D3-4E48-82BA-086C08A1D310</title>
    <desc>Created with sketchtool.</desc>
    <defs></defs>
    <g id="Page-1" stroke="none" stroke-width="1" fill="none" fill-rule="evenodd">
        <g id="00-Landing" transform="translate(-347.000000, -882.000000)" fill="#0080FF" fill-rule="nonzero">
            <g id="Consolidate-packages--" transform="translate(347.072839, 882.444015)">
                <path d="M45.3425564,34.7688287 C45.1545658,34.259587 44.5895339,33.9991366 44.0802921,34.1870309 L33.859613,37.9583104 C33.3503713,38.1462047 33.0899209,38.7113329 33.2778152,39.2205747 C33.4243727,39.6175616 33.800065,39.8633659 34.1999426,39.8633659 C34.3128719,39.8633659 34.4278246,39.8437092 34.5400794,39.8023725 L44.7607586,36.031093 C45.2700003,35.8431987 45.5304507,35.2780704 45.3425564,34.7688287 Z" id="Shape"></path>
                <path d="M32.3117494,39.577092 C32.1239514,39.067754 31.5587268,38.8073036 31.0494851,38.9951979 L30.6166537,39.1548598 C30.1075083,39.3427541 29.8469616,39.9078824 30.0348559,40.4170278 C30.1813171,40.8140147 30.5571057,41.0599153 30.9569833,41.0599153 C31.0699126,41.0599153 31.1848654,41.0402587 31.2971202,40.998922 L31.7299515,40.83926 C32.2390969,40.6513657 32.4996437,40.0863338 32.3117494,39.577092 Z" id="Shape"></path>
                <path d="M45.3425564,30.7641748 C45.1545658,30.2549331 44.5895339,29.9946754 44.0802921,30.182377 L36.0032461,33.1626697 C35.4940043,33.350564 35.2335539,33.9156922 35.4214482,34.424934 C35.5680058,34.8219209 35.943698,35.0677252 36.3435757,35.0677252 C36.456505,35.0677252 36.5714577,35.0480685 36.6837125,35.0067318 L44.7607586,32.0264391 C45.2700003,31.8385448 45.5304507,31.2734166 45.3425564,30.7641748 Z" id="Shape"></path>
                <path d="M45.3425564,26.8011468 C45.1545658,26.291905 44.5895339,26.0316473 44.0802921,26.2193489 L36.0032461,29.1996416 C35.4940043,29.3875359 35.2335539,29.9526642 35.4214482,30.4619059 C35.5680058,30.8588928 35.943698,31.1046971 36.3435757,31.1046971 C36.456505,31.1046971 36.5714577,31.0850405 36.6837125,31.0437037 L44.7607586,28.0634111 C45.2700003,27.8755167 45.5304507,27.3103885 45.3425564,26.8011468 Z" id="Shape"></path>
                <path d="M48.6917964,8.81927672 L25.0073825,0.0801682352 C24.7877871,-0.000770848415 24.5465115,-0.000770848415 24.3270124,0.0801682352 L0.64259851,8.81927672 L0.642405798,8.82004757 C0.564839176,8.84876167 0.490259592,8.88672596 0.420883235,8.93500034 C0.157156721,9.11884768 0,9.41996035 0,9.74130778 L0,37.8585819 C0,38.2701186 0.256403454,38.6381023 0.642502154,38.7806129 L24.3269161,47.5197214 C24.4373401,47.56048 24.5524856,47.5804257 24.6670529,47.5804257 C24.7827766,47.5804257 24.897922,47.5594201 25.0069971,47.5191433 L25.0073825,47.5197214 L48.6917964,38.7806129 C49.0778951,38.6381023 49.3342986,38.2702149 49.3342986,37.8585819 L49.3342986,9.74130778 C49.3342986,9.32967473 49.0778951,8.96178732 48.6917964,8.81927672 Z M23.6844139,45.1876159 L1.96547075,37.173683 L1.96547075,11.1514786 L6.38782811,12.7833647 L6.38782811,24.6908529 C6.38782811,25.1023896 6.64423156,25.4703733 7.03033026,25.6128839 L17.6440457,29.5292757 C17.7544698,29.5700343 17.8696153,29.58998 17.9841826,29.58998 C18.1824834,29.58998 18.3790497,29.5299502 18.5462274,29.4134557 C18.8098576,29.2297047 18.9670143,28.928592 18.9670143,28.6072446 L18.9670143,17.4248357 L23.6842212,19.1654114 L23.6844139,45.1876159 Z M17.0016399,16.6995637 L17.0016399,27.1968811 L8.35339521,24.0057613 L8.35339521,13.508444 L17.0016399,16.6995637 Z M10.2095982,12.0904683 L17.9843753,9.22165959 L25.7591524,12.0904683 L17.9843753,14.9592771 L10.2095982,12.0904683 Z M24.6671493,17.4329296 L20.8128109,16.0107143 L28.9384204,13.012403 C29.3245191,12.8698924 29.5809225,12.502005 29.5809225,12.090372 C29.5809225,11.6787389 29.3245191,11.3108515 28.9384204,11.1683409 L18.3246085,7.25204553 C18.1050131,7.17110645 17.8638339,7.17110645 17.6441421,7.25204553 L7.35996431,11.0469323 L3.82177009,9.74130778 L24.6671493,2.04978229 L45.5125285,9.74140414 L24.6671493,17.4329296 Z M47.3688278,37.173683 L25.649981,45.1875195 L25.649981,19.1654114 L47.3688278,11.1514786 L47.3688278,37.173683 Z" id="Shape"></path>
            </g>
        </g>
    </g>
</svg>