<?xml version="1.0" encoding="UTF-8"?>
<svg width="52px" height="51px" viewBox="0 0 52 51" version="1.1" xmlns="http://www.w3.org/2000/svg" xmlns:xlink="http://www.w3.org/1999/xlink">
    <!-- Generator: sketchtool 50.2 (55047) - http://www.bohemiancoding.com/sketch -->
    <title>20C3C8F0-1508-4A1E-AB9B-73CBA9B67D26</title>
    <desc>Created with sketchtool.</desc>
    <defs></defs>
    <g id="Page-1" stroke="none" stroke-width="1" fill="none" fill-rule="evenodd">
        <g id="00-Landing" transform="translate(-354.000000, -705.000000)" fill="#0080FF" fill-rule="nonzero">
            <g id="register" transform="translate(354.062480, 705.418726)">
                <path d="M39.2884465,2.61759648 L31.9401616,2.61759648 L31.9401616,4.10681258 L39.2884465,4.10681258 C39.8521326,4.1069134 40.310764,4.56544395 40.310764,5.12923086 C40.310764,5.29316461 40.2730572,5.44963765 40.1986518,5.59421391 L41.522926,6.27525478 C41.7041,5.92298879 41.7998792,5.52666433 41.7998792,5.12923086 C41.79998,3.74426291 40.6733136,2.61759648 39.2884465,2.61759648 Z" id="Shape"></path>
                <rect id="Rectangle-path" x="27.9418317" y="2.6176973" width="1.85015264" height="1.4892161"></rect>
                <rect id="Rectangle-path" x="9.24471398" y="15.9432122" width="26.3096524" height="1.4892161"></rect>
                <rect id="Rectangle-path" x="9.24471398" y="43.0887655" width="26.3096524" height="1.4892161"></rect>
                <polygon id="Shape" points="44.302339 16.4258388 43.2492713 17.4788056 44.1752046 18.4048398 41.1174269 21.4626175 42.1703937 22.5156851 46.2812391 18.4048398"></polygon>
                <rect id="Rectangle-path" transform="translate(40.216284, 23.417619) rotate(-45.000000) translate(-40.216284, -23.417619) " x="39.514884" y="22.6730689" width="1.40279968" height="1.489101"></rect>
                <path d="M50.417592,12.0614305 L49.8667101,11.5105486 C48.2663901,9.91012771 45.6621018,9.91012771 44.061681,11.5105486 L43.5232,12.0490296 L42.4701323,13.1019964 L39.7407262,15.8314026 L39.7407262,10.1635899 C42.3170872,9.93382047 44.3439777,7.76437006 44.3439777,5.12923086 C44.3439777,2.3415506 42.0759251,0.0734979714 39.2883457,0.0734979714 L5.05563207,0.0734979714 C2.26805263,0.0734979714 0,2.34144978 0,5.12913004 L0,45.382124 L4.31107443,45.382124 L4.31107443,50.538173 L39.7409278,50.538173 L39.7409278,28.5432245 L48.8261441,19.4580082 L49.6218177,18.6622339 L49.8790102,18.4050414 L50.4174912,17.8665604 C51.192799,17.0912526 51.6197728,16.060567 51.6197728,14.9641467 C51.6197728,13.8677263 51.1930006,12.8366375 50.417592,12.0614305 Z M8.63525549,1.56271407 L39.2884465,1.56271407 C41.2550465,1.56271407 42.8548625,3.16263082 42.8548625,5.12923086 C42.8548625,7.0958309 41.2549457,8.69564683 39.2884465,8.69564683 L8.63525549,8.69564683 C9.54687231,7.78070295 10.111365,6.5196431 10.111365,5.12923086 C10.111365,3.73861698 9.54697313,2.47765795 8.63525549,1.56271407 Z M4.31107443,8.69554601 L4.31107443,43.8929079 L1.4892161,43.8929079 L1.4892161,5.12913004 C1.4892161,3.16253 3.08923367,1.56261325 5.05573289,1.56261325 C7.02223211,1.56261325 8.62214886,3.16263082 8.62214886,5.12913004 C8.62214886,7.09573008 7.02213129,8.69554601 5.05573289,8.69554601 L4.31107443,8.69554601 Z M38.2518125,49.0489569 L5.80018971,49.0489569 L5.80018971,10.1848629 L38.2518125,10.1848629 L38.2517117,17.3205178 L35.0232453,20.5488835 L9.24441152,20.5488835 L9.24441152,22.0380996 L33.5342308,22.0380996 L30.4173724,25.154958 L9.24441152,25.154958 L9.24441152,26.6441741 L28.9282571,26.6441741 L25.8114995,29.7609317 L9.24441152,29.7609317 L9.24441152,31.2501478 L24.3223842,31.2501478 L24.0625704,31.5099616 L23.2155794,34.3670062 L9.24441152,34.3670062 L9.24441152,35.8562223 L22.7741883,35.8562223 L21.8501706,38.9730807 L9.24441152,38.9730807 L9.24441152,40.4622968 L35.5537615,40.4622968 L35.5537615,38.9730807 L26.6838973,38.9730807 L30.4184814,37.8660742 L32.4281317,35.8564239 L35.5536607,35.8564239 L35.5536607,34.3672078 L33.9173478,34.3672078 L38.2518125,30.0327431 L38.2518125,49.0489569 Z M25.0808551,33.3138377 L28.6143028,36.8472855 L23.5921431,38.3360983 L25.0808551,33.3138377 Z M30.025484,36.152533 L25.7756075,31.9026565 L43.5232,14.155064 L47.7730765,18.4049406 L30.025484,36.152533 Z M49.364726,16.8133919 L48.826245,17.3518729 L44.5763684,13.1019964 L45.1148495,12.5635154 C46.1346464,11.5437184 47.7939463,11.5437184 48.8138441,12.5635154 L49.364726,13.1143973 C49.8587453,13.6084166 50.1308592,14.2652606 50.1308592,14.9638442 C50.1307583,15.6625286 49.8586445,16.3193726 49.364726,16.8133919 Z" id="Shape"></path>
            </g>
        </g>
    </g>
</svg>