<?xml version="1.0" encoding="UTF-8"?>
<svg width="51px" height="56px" viewBox="0 0 51 56" version="1.1" xmlns="http://www.w3.org/2000/svg" xmlns:xlink="http://www.w3.org/1999/xlink">
    <!-- Generator: sketchtool 50.2 (55047) - http://www.bohemiancoding.com/sketch -->
    <title>D4A33AA8-620F-43B1-8605-370E689F4A3E</title>
    <desc>Created with sketchtool.</desc>
    <defs>
        <polygon id="path-1" points="11.6263574 11.8624379 67.8165569 11.8624379 67.8165569 68.0549034 11.6263574 68.0549034"></polygon>
    </defs>
    <g id="Page-1" stroke="none" stroke-width="1" fill="none" fill-rule="evenodd">
        <g id="00-Landing" transform="translate(-649.000000, -894.000000)">
            <g id="ship" transform="translate(638.000000, 878.000000)">
                <mask id="mask-2" fill="white">
                    <use xlink:href="#path-1"></use>
                </mask>
                <g id="Clip-2" transform="translate(39.721457, 39.958671) rotate(36.000000) translate(-39.721457, -39.958671) "></g>
                <polyline id="Fill-1" fill="#0080FF" mask="url(#mask-2)" transform="translate(21.907336, 29.002591) rotate(36.000000) translate(-21.907336, -29.002591) " points="20.8044135 28.318993 22.6173332 27.9165499 23.010259 29.6861889 21.197226 30.0886319 20.8044135 28.318993"></polyline>
                <path d="M66.0057316,44.4732594 L46.0648615,41.0053609 L46.0648615,39.272318 L57.6514134,41.8474094 L58.0447924,40.077204 L46.0648615,37.4150978 L46.0648615,31.5062555 L66.0057316,42.3078622 L66.0057316,44.4732594 Z M52.4096838,66.2124334 L42.7021057,63.7859921 L44.5140057,58.3493858 L52.4096838,63.98812 L52.4096838,66.2124334 Z M39.9729257,66.2405319 L39.4662463,66.2405319 L36.257579,56.6127173 C35.5478653,54.4835762 35.1880233,52.2656076 35.1880233,50.0204469 L35.1880233,22.3651793 C35.1880233,22.0678791 35.2170282,21.768766 35.2759444,21.4769042 L36.2729879,16.4962187 C36.6001994,14.8583482 38.0495381,13.6691472 39.7200392,13.6691472 C41.3905403,13.6691472 42.839879,14.8583482 43.1679969,16.4953123 L44.1650404,21.4750914 C44.2230502,21.768766 44.2520551,22.0678791 44.2520551,22.3651793 L44.2520551,50.0213533 C44.2520551,52.266514 43.8922131,54.4844826 43.1824994,56.6127173 L39.9729257,66.2405319 Z M27.0303946,66.2124334 L27.0303946,63.98812 L34.9260728,58.3502922 L36.7379727,63.7868985 L27.0303946,66.2124334 Z M13.4343468,44.4732594 L13.4343468,42.3069558 L33.3752169,31.5053491 L33.3752169,37.4141914 L21.395286,40.0762976 L21.788665,41.846503 L33.3752169,39.272318 L33.3752169,41.0053609 L13.4343468,44.4732594 Z M18.8727659,35.4228236 L21.5919755,35.4228236 L21.5919755,35.8270795 L18.8727659,37.2999846 L18.8727659,35.4228236 Z M57.8481029,35.4228236 L60.5673125,35.4228236 L60.5673125,37.2999846 L57.8481029,35.8270795 L57.8481029,35.4228236 Z M62.3801189,38.2816193 L62.3801189,33.6100173 L56.0352966,33.6100173 L56.0352966,34.8454448 L46.0648615,29.4450946 L46.0648615,22.3651793 C46.0648615,21.9491403 46.023167,21.5312884 45.9415907,21.1206878 L44.9445472,16.1400023 C44.4487446,13.6573639 42.2516233,11.8563408 39.7200392,11.8563408 C37.1884551,11.8563408 34.9913338,13.6573639 34.4946248,16.1400023 L33.4975813,21.1215942 C33.4169115,21.5312884 33.3752169,21.9491403 33.3752169,22.3651793 L33.3752169,29.4450946 L23.4047819,34.8454448 L23.4047819,33.6100173 L17.0599596,33.6100173 L17.0599596,38.2816193 L11.6215405,41.2274296 L11.6215405,46.2996619 L13.5122975,46.2996619 L33.3752169,42.8453593 L33.3752169,50.0213533 C33.3752169,52.2347899 33.7142117,54.420128 34.3496003,56.5347666 L25.2175882,63.0545247 L25.2175882,68.0533383 L27.1418822,68.0533383 L37.3126323,65.509971 L38.1601193,68.0533383 L41.2790527,68.0533383 L42.1265397,65.509971 L52.1894278,68.0261462 L54.2224902,68.0533383 L54.2224902,63.0545247 L45.0904781,56.5338602 C45.7258667,54.4192216 46.0648615,52.2347899 46.0648615,50.0204469 L46.0648615,42.8444529 L65.8507366,46.2851594 L67.818538,46.2996619 L67.818538,41.2274296 L62.3801189,38.2816193 Z" id="Fill-3" fill="#0080FF" mask="url(#mask-2)" transform="translate(39.720039, 39.954840) rotate(36.000000) translate(-39.720039, -39.954840) "></path>
            </g>
        </g>
    </g>
</svg>