<?xml version="1.0" encoding="UTF-8"?>
<svg width="54px" height="46px" viewBox="0 0 54 46" version="1.1" xmlns="http://www.w3.org/2000/svg" xmlns:xlink="http://www.w3.org/1999/xlink">
    <!-- Generator: sketchtool 50.2 (55047) - http://www.bohemiancoding.com/sketch -->
    <title>7A143341-DF82-46E9-AC01-28BFFE769E66</title>
    <desc>Created with sketchtool.</desc>
    <defs></defs>
    <g id="Page-1" stroke="none" stroke-width="1" fill="none" fill-rule="evenodd">
        <g id="00-Landing" transform="translate(-658.000000, -705.000000)" fill="#0080FF" fill-rule="nonzero">
            <path d="M669.134915,712.817997 L668.405986,708.43741 L665.786395,708.43741 C665.39477,706.930488 664.035036,705.809058 662.406334,705.809058 C660.473619,705.809058 658.901864,707.380812 658.901864,709.313527 C658.901864,711.246242 660.473619,712.817997 662.406334,712.817997 C664.035036,712.817997 665.39477,711.696567 665.786395,710.189645 L666.920091,710.189645 L667.358149,712.817997 L667.333618,712.817997 L667.528116,713.835169 L667.528116,713.837797 C667.528116,713.837797 667.528116,713.837797 667.528116,713.837797 L669.7701,725.554991 L670.684767,730.340344 L670.685643,730.340344 L671.861392,736.486307 C669.699135,736.649265 667.896961,738.312136 667.684065,740.406933 C667.559656,741.637878 667.964422,742.870575 668.794982,743.786993 C669.626417,744.706917 670.810928,745.234339 672.042749,745.234339 L673.794984,745.234339 C673.794984,748.133412 676.152615,750.491044 679.051688,750.491044 C681.95076,750.491044 684.308392,748.133412 684.308392,745.234339 L693.945683,745.234339 C693.945683,748.133412 696.303315,750.491044 699.202387,750.491044 C702.101459,750.491044 704.459091,748.133412 704.459091,745.234339 L707.963561,745.234339 C708.448054,745.234339 708.839678,744.842715 708.839678,744.358222 C708.839678,743.873729 708.448054,743.482105 707.963561,743.482105 L704.15245,743.482105 C703.428777,741.443379 701.486425,739.977635 699.202387,739.977635 C696.918349,739.977635 694.975997,741.443379 694.252324,743.482105 L684.001751,743.482105 C683.278078,741.443379 681.335726,739.977635 679.051688,739.977635 C676.76765,739.977635 674.825298,741.443379 674.101625,743.482105 L672.043625,743.482105 C671.305934,743.482105 670.596279,743.16495 670.09514,742.61212 C669.58962,742.052281 669.352192,741.332113 669.428415,740.583032 C669.561584,739.260971 670.782892,738.226277 672.208335,738.226277 L672.892583,738.226277 C672.910105,738.226277 672.925875,738.226277 672.94515,738.226277 L678.313997,738.224524 L687.813737,738.22102 L687.813737,738.220144 L694.073596,738.218391 L703.58385,738.216639 L703.58385,738.215763 L707.109346,738.214887 C709.519545,738.214887 711.47942,736.255012 711.47942,733.84569 L711.47942,712.807483 L669.134915,712.817997 Z M662.406334,711.065762 C661.439976,711.065762 660.654099,710.279885 660.654099,709.313527 C660.654099,708.34717 661.439976,707.561293 662.406334,707.561293 C663.372691,707.561293 664.158569,708.34717 664.158569,709.313527 C664.158569,710.279885 663.372691,711.065762 662.406334,711.065762 Z M699.203263,741.72987 C701.135978,741.72987 702.707733,743.301624 702.707733,745.234339 C702.707733,747.167054 701.135978,748.738809 699.203263,748.738809 C697.270548,748.738809 695.698794,747.167054 695.698794,745.234339 C695.698794,743.301624 697.270548,741.72987 699.203263,741.72987 Z M679.052564,741.72987 C680.985279,741.72987 682.557033,743.301624 682.557033,745.234339 C682.557033,747.167054 680.985279,748.738809 679.052564,748.738809 C677.119849,748.738809 675.548094,747.167054 675.548094,745.234339 C675.548094,743.301624 677.119849,741.72987 679.052564,741.72987 Z M709.728061,720.703053 L703.58385,720.703053 L703.58385,714.560594 L709.728061,714.558842 L709.728061,720.703053 Z M695.698794,736.466157 L695.698794,730.34122 L701.831615,730.34122 L701.831615,736.464405 L695.698794,736.466157 Z M695.698794,728.588109 L695.698794,722.455288 L701.831615,722.455288 L701.831615,728.588109 L695.698794,728.588109 Z M679.928681,736.470537 L679.928681,730.340344 L686.061503,730.340344 L686.061503,736.468785 L679.928681,736.470537 Z M679.928681,728.588109 L679.928681,722.455288 L686.061503,722.455288 L686.061503,728.588109 L679.928681,728.588109 Z M670.96162,722.455288 L678.176446,722.455288 L678.176446,728.588109 L672.135617,728.588109 L670.96162,722.455288 Z M701.831615,720.703053 L695.698794,720.703053 L695.698794,714.570232 L701.831615,714.570232 L701.831615,720.703053 Z M693.946559,720.703053 L687.813737,720.703053 L687.813737,714.564975 L693.946559,714.563223 L693.946559,720.703053 Z M686.061503,714.570232 L686.061503,720.703053 L679.928681,720.703053 L679.928681,714.570232 L686.061503,714.570232 Z M687.813737,722.455288 L693.946559,722.455288 L693.946559,728.588109 L687.813737,728.588109 L687.813737,722.455288 Z M703.58385,722.455288 L709.716672,722.455288 L709.716672,728.588109 L703.58385,728.588109 L703.58385,722.455288 Z M678.176446,714.568479 L678.176446,720.703929 L670.626067,720.703929 L669.45207,714.571108 L678.176446,714.568479 Z M672.470294,730.340344 L678.176446,730.340344 L678.176446,736.470537 L673.644291,736.47229 L672.470294,730.340344 Z M687.813737,730.340344 L693.946559,730.340344 L693.946559,736.466157 L687.813737,736.467909 L687.813737,730.340344 Z M707.109346,736.462652 L703.58385,736.463528 L703.58385,730.340344 L709.728061,730.340344 L709.728061,733.844814 C709.728061,735.288655 708.553188,736.462652 707.109346,736.462652 Z" id="Shop"></path>
        </g>
    </g>
</svg>