<svg xmlns="http://www.w3.org/2000/svg" width="27" height="27" viewBox="0 0 27 27"><g><g><path fill="#fff" d="M13.5.748C6.46.748.75 6.457.75 13.498c0 5.222 3.14 9.707 7.633 11.679-.037-.89-.006-1.96.221-2.928l1.64-6.948s-.407-.814-.407-2.016c0-1.89 1.096-3.302 2.46-3.302 1.159 0 1.72.871 1.72 1.915 0 1.166-.744 2.91-1.126 4.524-.32 1.353.678 2.456 2.011 2.456 2.416 0 4.043-3.102 4.043-6.779 0-2.794-1.882-4.885-5.305-4.885-3.867 0-6.277 2.883-6.277 6.105 0 1.111.327 1.895.84 2.5.236.28.269.392.184.712-.061.233-.202.8-.26 1.023-.085.323-.346.439-.638.32-1.782-.728-2.611-2.679-2.611-4.871 0-3.622 3.053-7.967 9.112-7.967 4.868 0 8.072 3.524 8.072 7.305 0 5.002-2.78 8.738-6.88 8.738-1.376 0-2.671-.744-3.114-1.588 0 0-.741 2.937-.898 3.504-.27.983-.8 1.965-1.283 2.731 1.146.34 2.358.524 3.613.524 7.042 0 12.75-5.71 12.75-12.751 0-7.042-5.708-12.75-12.75-12.75"/></g></g></svg>