<svg xmlns="http://www.w3.org/2000/svg" width="26" height="21" viewBox="0 0 26 21"><g><g><path fill="#fff" d="M26.294 2.598c-.964.421-2 .706-3.088.834A5.315 5.315 0 0 0 25.57.504a10.84 10.84 0 0 1-3.415 1.283A5.403 5.403 0 0 0 18.23.116c-2.968 0-5.375 2.37-5.375 5.293 0 .416.046.82.139 1.206A15.34 15.34 0 0 1 1.913 1.083a5.224 5.224 0 0 0-.728 2.664c0 1.835.95 3.456 2.392 4.406a5.443 5.443 0 0 1-2.436-.66v.064c0 2.566 1.853 4.706 4.314 5.191a5.33 5.33 0 0 1-1.417.187 5.41 5.41 0 0 1-1.011-.094c.683 2.102 2.668 3.634 5.021 3.674a10.89 10.89 0 0 1-6.676 2.267c-.435 0-.863-.023-1.283-.073a15.404 15.404 0 0 0 8.24 2.378c9.891 0 15.297-8.066 15.297-15.063 0-.23-.004-.459-.014-.685a10.804 10.804 0 0 0 2.682-2.74"/></g></g></svg>