<svg width="129" height="105" viewBox="0 0 129 105" fill="none" xmlns="http://www.w3.org/2000/svg">
<g clip-path="url(#clip0_1485_77957)">
<mask id="mask0_1485_77957" style="mask-type:luminance" maskUnits="userSpaceOnUse" x="1" y="0" width="128" height="105">
<path d="M128.085 104.046V0.969681L1.02178 0.969681V104.046H128.085Z" fill="white"/>
</mask>
<g mask="url(#mask0_1485_77957)">
<path d="M17.685 100.405C15.4838 101.038 17.7302 100.522 17.6963 100.434C17.7302 100.412 17.6963 100.412 17.685 100.405ZM12.9776 92.8773C10.7539 93.4739 13.0229 92.9951 12.989 92.9067C13.0229 92.8847 12.989 92.8846 12.9776 92.8773ZM11.1264 92.4869C11.0699 92.5016 10.6185 92.6637 10.6185 92.6637C10.6185 92.6858 11.4086 92.4869 11.6683 92.4132C11.6683 92.3911 11.6683 92.3395 11.1264 92.4942V92.4869ZM1.36183 88.2663C0.876445 88.4063 1.0458 88.3989 1.05707 88.4358C1.51992 88.3253 1.57628 88.3032 1.565 88.2737C1.565 88.2737 1.63278 88.1853 1.36183 88.2663ZM2.1069 84.0532C2.1069 84.1047 3.35989 84.3699 3.34861 84.3257C3.29212 84.2741 2.15198 84.0237 2.1069 84.0532ZM1.44088 83.6628C1.83596 83.788 2.07308 83.8689 2.69387 84.0089C2.69387 83.9426 2.23103 83.8101 1.44088 83.6628ZM16.1272 101.51C16.5561 101.406 16.3982 101.487 16.4095 101.51C16.0369 101.613 15.3822 101.804 15.3709 101.767C15.3596 101.738 15.5401 101.642 16.1272 101.502V101.51ZM14.2195 101.031C14.6484 100.92 14.4903 101.001 14.5017 101.031C14.1292 101.141 13.4744 101.333 13.4632 101.296C13.4518 101.266 13.6324 101.171 14.2195 101.031ZM11.973 96.3906C12.3003 96.317 12.6391 96.2361 12.5149 96.3097C12.1424 96.4202 11.4877 96.6043 11.4764 96.5749L11.973 96.3981V96.3906ZM10.1669 94.564C10.2797 94.5861 9.92976 94.6892 9.15088 94.8955V94.866C9.41055 94.7776 9.78308 94.6672 10.1669 94.5714V94.564ZM8.81231 89.4595C8.83485 89.5037 7.7963 89.7837 7.78503 89.7469C8.12361 89.629 8.67677 89.4374 8.81231 89.4595ZM6.93838 89.0029C6.54331 89.0839 6.81426 88.9808 7.23187 88.8998C7.48027 88.8482 7.69471 88.8113 7.9882 88.7524C7.6044 88.8555 6.94966 89.0324 6.93838 89.0029C6.40777 89.1134 6.94966 89.0324 6.93838 89.0029ZM5.97887 87.876L6.01269 87.9716C5.54985 88.0895 5.49349 88.1043 5.48221 88.0748C5.48221 88.0527 5.42571 88.0233 5.97887 87.876ZM5.30158 84.392C5.30158 84.392 5.51603 84.4951 4.62416 84.2373V84.2151L5.30158 84.3993V84.392ZM5.99014 83.0588C5.74174 82.9115 6.03524 83.1914 5.16605 82.5653C5.06446 82.5064 5.09842 82.5653 5.05319 82.5506C5.0081 82.5358 4.87255 82.4695 4.55652 82.2486C4.72588 82.359 5.13223 82.6463 5.51604 82.8967C5.93366 83.184 6.30618 83.4418 6.30618 83.4565C6.30618 83.486 4.72588 82.4769 5.087 82.7642C5.22254 82.8673 5.7757 83.2134 5.92237 83.3018C6.53203 83.6995 6.44172 83.6775 6.41904 83.6701C6.38522 83.6701 6.02396 83.486 5.2 82.9557C4.86128 82.7347 4.71447 82.6095 4.57907 82.4916C4.46621 82.3959 4.33067 82.278 3.96955 82.057C3.10022 81.5341 3.2583 81.7035 3.85655 82.1012C4.66938 82.6389 4.1275 82.4842 3.19053 81.9465C3.41639 82.0791 4.21781 82.5358 4.20653 82.5579C4.20653 82.5947 4.20654 82.6537 4.98542 83.0882C4.57907 82.8599 4.20654 82.661 3.99209 82.5653C3.80019 82.4843 3.6421 82.4401 3.52924 82.418C3.29226 82.3738 3.19053 82.4179 3.16798 82.4326C3.1229 82.4768 3.23576 82.5947 3.50671 82.7715C3.90178 83.0146 4.57907 83.3608 5.42572 83.7659C5.31286 83.7143 4.83874 83.4786 4.33067 83.2356C4.08241 83.1177 3.82274 82.9925 3.60829 82.882C3.35989 82.7642 3.31481 82.7421 3.21322 82.7052L3.32608 82.7935C3.32608 82.8083 3.37116 82.8156 2.96481 82.6388C2.35529 82.3737 2.06181 82.2854 2.96481 82.6905C3.47275 82.9188 3.98082 83.1398 3.98082 83.1766C3.98082 83.1987 4.05986 83.2503 3.89051 83.1914C3.82274 83.1693 3.66465 83.103 3.52924 83.0441C3.42766 82.9999 3.33734 82.963 3.33734 82.9704C3.33734 82.9999 3.32607 83.0293 3.33734 83.0662C3.34861 83.0883 3.45021 83.1324 3.67606 83.2356C3.91305 83.3313 4.21781 83.4639 4.53398 83.5965C5.1435 83.8396 5.74174 84.0826 5.76443 84.09C5.76443 84.09 5.2 83.8838 4.59034 83.6554C4.28558 83.5448 3.96955 83.4271 3.6986 83.324C3.46147 83.2429 3.26957 83.1839 3.17926 83.1471C2.77291 83.0219 2.72782 83.0367 3.52924 83.3092C4.02591 83.4786 5.50476 84.0458 4.87256 83.8322C4.53398 83.7217 4.09368 83.5744 3.54052 83.3976C3.48402 83.3755 2.99863 83.2281 2.99863 83.2281C2.99863 83.2281 3.37116 83.3534 3.83401 83.5228C4.30813 83.6996 4.8162 83.8911 4.97414 83.95C5.2 84.0384 4.62429 83.8396 4.04845 83.6554C3.63083 83.5227 3.22449 83.3901 3.15672 83.3607C2.03913 83.0145 2.4907 83.1693 3.21322 83.405C3.9921 83.6701 5.07572 84.0384 5.12095 84.0532C5.48221 84.1857 2.96482 83.3755 4.28558 83.8396C2.99863 83.3902 3.54051 83.788 3.57433 83.8396C3.6421 83.9058 4.09368 84.0753 4.30813 84.171C4.43226 84.2299 3.23576 83.9205 3.66465 84.0678C3.78892 84.1046 4.12749 84.2078 4.43225 84.3036C4.74842 84.3993 5.03064 84.4876 5.03064 84.4876C5.03064 84.4876 4.20654 84.2593 3.54052 84.0678C2.89705 83.891 2.41165 83.7585 3.0099 83.95C3.52924 84.1195 3.33734 84.1194 4.37589 84.3772C5.2789 84.5982 4.1275 84.3699 4.98542 84.5761C3.94687 84.3331 3.29212 84.1784 3.03259 84.1784C2.95354 84.1784 3.51798 84.3183 4.184 84.473C4.87256 84.6351 5.62888 84.8118 5.86601 84.8708C6.47553 85.0254 5.79825 84.9002 4.85001 84.7234C3.92432 84.5467 2.72783 84.3182 2.21975 84.2225C3.38243 84.5024 4.33067 84.7086 5.38063 84.9296C4.61289 84.8117 4.05987 84.7234 3.49543 84.6645C4.3194 84.7971 4.02591 84.8044 4.19527 84.8559C4.29686 84.8854 5.44826 85.1064 5.68539 85.1285C4.79352 85.0253 3.15672 84.7676 3.94687 84.9591C4.50003 85.0917 4.11622 85.0622 2.94227 84.9296C2.94227 84.9738 3.54052 85.0181 3.90178 85.077C4.44367 85.1507 4.01464 85.158 4.35335 85.2169C4.7032 85.2759 5.3354 85.3053 5.76443 85.3569C6.20459 85.4011 5.7192 85.3937 6.27236 85.4305C5.35794 85.3643 5.41444 85.3643 5.41444 85.4011V85.4674C4.97414 85.4453 4.21781 85.4158 4.21781 85.379C3.95814 85.3495 4.19527 85.3495 3.61957 85.3127C3.67606 85.4158 4.92905 85.482 5.5838 85.5483C6.22713 85.6146 4.44367 85.5263 4.40971 85.5189C4.35335 85.5189 4.86129 85.5779 4.86129 85.5779C5.3919 85.6147 5.3919 85.6146 4.86129 85.6367C4.15004 85.6661 4.00336 85.7767 5.4708 85.7178C5.34667 85.7399 5.65143 85.7399 5.70793 85.7399C5.78697 85.7399 4.43225 85.7619 4.21781 85.7693C3.74369 85.784 3.98082 85.8062 4.11622 85.8136C4.80479 85.8725 6.63362 85.7767 6.63362 85.8283C6.01269 85.8651 5.32412 85.902 4.77096 85.9535C3.84527 86.0419 4.45494 86.064 5.31286 85.9903C4.61288 86.0419 3.81146 86.1229 3.82273 86.1819C4.20654 86.145 6.48681 85.9166 5.4708 86.0565C4.9516 86.1302 3.98082 86.2334 4.00337 86.2997C4.01464 86.3365 4.56779 86.2849 4.44366 86.3364C3.61956 86.4396 3.89051 86.6017 4.00337 86.6091C4.184 86.6312 5.12096 86.3955 5.38063 86.366C6.03524 86.2776 4.02591 86.69 3.75496 86.7489C3.26957 86.852 3.42766 86.9258 3.4502 86.9479C3.52924 87.0215 3.73242 87.0436 4.04845 87.0289C4.13877 87.0289 5.12096 86.9037 4.97414 86.9479C4.72588 87.0215 2.80673 87.3604 3.03259 87.353C3.21322 87.353 4.3759 87.2424 4.91778 87.1098C4.18399 87.2866 3.92432 87.3825 3.86796 87.4414C3.82273 87.4929 3.90178 87.5077 4.10495 87.4929C4.27431 87.4782 4.71447 87.3825 4.90637 87.3677C5.45953 87.3162 4.33067 87.6476 3.95828 87.8097C3.84528 87.8612 4.05987 87.8096 4.30813 87.7433C4.36463 87.758 4.3194 87.7948 4.33067 87.8169C4.34208 87.8611 4.86128 87.7727 4.8951 87.8169C4.92905 87.8538 4.7597 87.9275 4.61288 88.0085C4.54525 88.0454 4.44367 88.1116 4.7597 88.0453C5.30159 87.9349 4.97414 88.1559 5.03064 88.1853C5.05319 88.2001 5.99015 88.0969 5.91111 88.119C5.78698 88.1559 5.13223 88.3031 5.05319 88.3178L5.59507 88.2441C5.70793 88.2221 6.72394 88.0086 6.70126 88.0233C6.70126 88.0233 6.49808 88.0822 6.28363 88.1338C6.06919 88.1927 5.84333 88.2516 5.7757 88.2737C5.53857 88.3547 5.64016 88.3768 5.65143 88.3989C5.95633 88.3621 6.45299 88.2958 5.4708 88.5536C5.76443 88.4726 6.26109 88.3842 6.43045 88.3326C5.73048 88.5389 5.71921 88.5683 5.73048 88.6199C5.73048 88.642 5.66271 88.7082 5.91111 88.664C6.06919 88.6345 6.27236 88.5682 6.28363 88.5903C6.30618 88.6419 5.80951 88.7967 5.80951 88.8556C5.80951 88.8851 6.08046 88.944 5.34667 89.1429C5.36921 89.2018 6.34013 88.8851 6.64489 88.8482C6.80284 88.8261 6.09174 89.047 5.89983 89.0986C5.7757 89.1501 5.64016 89.2017 5.57253 89.2385C5.41445 89.3269 6.92711 89.0987 5.99014 89.3491C6.23841 89.2828 7.76248 88.8777 7.75107 88.9072C7.75107 88.9219 7.1641 89.0913 7.03997 89.1355C6.92711 89.1723 6.84807 89.2164 6.79157 89.2385C6.58839 89.3343 6.5433 89.3638 6.72393 89.3491C6.79156 89.3491 6.84807 89.3491 6.64489 89.408C6.22714 89.5406 5.3919 89.7248 5.22255 89.7837C5.01937 89.85 5.93365 89.6806 5.96761 89.6879C6.06919 89.7248 5.56112 89.931 5.36922 90.0489C5.15477 90.1741 7.83011 89.3786 6.78029 89.7616C6.23854 89.9605 5.62889 90.152 5.91111 90.1446C6.01269 90.1446 7.66076 89.7469 6.44172 90.1004C5.03064 90.5055 6.21587 90.255 6.70126 90.1592C7.59313 89.9751 6.31745 90.3582 6.19332 90.4613C6.05792 90.5645 7.62695 90.0783 8.06725 89.9678C8.49614 89.8647 6.5884 90.4687 7.17538 90.3214C7.34473 90.2772 7.63822 90.1667 7.90916 90.1151C8.0447 90.0857 8.05597 90.1298 7.9317 90.1666C7.38995 90.3581 6.65617 90.5055 6.40777 90.6455C6.08046 90.837 6.28364 90.9106 6.76903 90.8812C6.92711 90.8664 7.09646 90.8296 7.13028 90.8517C8.02202 90.6602 5.85461 91.2347 5.85461 91.2347C5.87729 91.2863 7.84139 90.7044 6.66743 91.1169C6.63362 91.139 6.74648 91.1316 6.79157 91.1316C6.90456 91.1316 8.30423 91.0063 7.31091 91.2862L8.89122 90.9474C8.07852 91.1758 7.92043 91.2716 7.88662 91.3231C7.85266 91.382 7.25441 91.5441 6.78029 91.7061C6.39649 91.8314 8.46232 91.301 8.47359 91.3452C8.19138 91.4262 6.68998 91.824 6.61094 91.8682C6.43044 91.9565 7.05124 91.8534 7.61567 91.6914C8.02202 91.5809 8.43977 91.4262 8.50741 91.4483C8.54136 91.4631 8.45105 91.4999 8.13488 91.603C7.59313 91.7798 6.73521 91.9859 6.23841 92.148C6.14823 92.1774 7.0287 91.9566 7.00616 91.9639C7.33346 91.8903 7.50281 91.8755 7.53663 91.8903C7.57058 91.905 7.24314 92.0008 7.43504 91.9639C7.70599 91.9124 8.0447 91.824 8.38327 91.7503C8.84612 91.6398 7.36727 92.0744 7.83012 91.986C8.05597 91.9418 8.47359 91.824 8.58645 91.8166C8.69931 91.8093 8.66549 91.8386 8.67676 91.8607C8.65422 91.8092 7.61567 92.0154 7.55918 92.1332C7.53663 92.1848 7.77376 92.1996 8.54137 91.986C7.09647 92.3911 7.78504 92.4722 7.80758 92.5385C7.83012 92.5974 8.50741 92.3837 9.36533 92.1406C10.2685 91.9196 10.2797 91.927 9.38801 92.2069C7.81885 92.6488 7.37868 92.9287 7.41249 92.995C7.43504 93.0319 7.43505 93.0835 7.97694 92.9583C8.76709 92.7815 9.01548 92.7373 9.03802 92.8036C9.01548 92.7373 7.96566 92.995 7.99947 93.0762C8.02202 93.1425 8.03329 93.2087 8.11233 93.2603C8.19138 93.3192 8.25914 93.3412 9.42182 93.0613C8.91389 93.1865 8.50741 93.275 7.9317 93.4518C7.61567 93.5476 7.40123 93.6581 7.8528 93.5402C8.43978 93.3855 8.12361 93.5255 8.19138 93.5402C8.22519 93.5476 8.78963 93.3929 9.00421 93.3561C9.32024 93.2971 8.64295 93.5033 8.53009 93.5622C8.41709 93.6139 8.39456 93.6507 8.43978 93.658C8.49614 93.6728 8.64295 93.6579 9.06057 93.5622C9.47833 93.4591 9.30897 93.5327 9.32024 93.5622C8.64295 93.7463 8.43977 93.7833 8.73326 93.7612C8.90262 93.7464 9.11706 93.7243 9.36533 93.6875C9.29769 93.7022 9.86213 93.6139 9.45565 93.7096C9.30897 93.7464 9.20738 93.7538 8.85739 93.8569C8.87994 93.9011 9.07184 93.8421 9.47832 93.7684C9.76054 93.7169 10.2572 93.636 9.69278 93.8054C8.97026 94.019 8.78962 94.0337 8.51882 94.1737C8.37201 94.2473 8.05597 94.3873 8.06725 94.4167C8.07852 94.4535 8.60899 94.2841 8.90262 94.2105C9.33151 94.1074 9.60246 94.0632 9.2977 94.1737C9.09453 94.2399 8.67677 94.4166 9.2412 94.2693C7.80758 94.645 8.99293 94.4977 9.07184 94.5198C9.13961 94.5419 8.87994 94.6009 8.74454 94.6672C8.59772 94.7408 8.6204 94.7776 8.63168 94.8145C8.63168 94.8439 8.95898 94.9544 8.1801 95.1607C8.20265 95.2122 8.32692 95.1901 9.1058 94.9912C9.46705 94.9029 10.1669 94.7555 10.1782 94.7776C10.1782 94.7776 9.01548 95.1017 8.86867 95.1459C8.45105 95.2859 8.50741 95.3153 8.78962 95.2859C9.02675 95.2564 9.28643 95.2269 9.34279 95.2417C9.34279 95.2417 8.77835 95.4258 8.68804 95.4553C8.2366 95.6321 10.4039 95.0575 10.4378 95.1017C10.4604 95.168 8.92517 95.4995 8.722 95.6026C8.38328 95.772 9.85085 95.47 10.2232 95.4332C10.291 95.4332 10.8216 95.4406 10.0428 95.5879C10.0201 95.5216 9.38801 95.6688 9.1058 95.8235C9.01548 95.875 9.1058 95.934 9.76055 95.7498C9.94118 95.6982 10.5845 95.4847 10.8216 95.4405C10.8667 95.4332 8.77836 96.1256 9.45565 95.9562C9.88468 95.8457 10.3475 95.7204 10.7764 95.6026C11.1829 95.5068 11.3748 95.4847 11.6796 95.4185C10.6185 95.7057 10.1556 95.8309 10.1556 95.9046C10.1556 95.9267 10.6974 95.8972 11.2167 95.7131L11.2393 95.7794C10.8555 95.8899 10.3926 96.0004 10.0653 96.1035C9.65895 96.2361 9.59119 96.3023 9.74914 96.2876C10.1104 96.2655 11.9053 95.7794 10.3023 96.2876C8.53009 96.7811 10.7088 96.2287 10.7313 96.2802C10.7426 96.3097 9.77182 96.6412 10.0991 96.5749C10.1782 96.5601 11.1264 96.3392 11.1602 96.3318C10.6072 96.5159 10.325 96.5601 9.99753 96.7075C9.85085 96.7737 9.65895 96.8841 10.1894 96.7442C10.6523 96.6263 10.4717 96.7222 10.4829 96.759C10.4829 96.7811 11.5215 96.4939 11.5327 96.538L10.5055 96.8327C10.5055 96.8327 10.5055 96.9063 11.0474 96.7516C11.5102 96.6485 11.5102 96.6559 11.0699 96.8179C11.0812 96.8474 11.1489 96.8327 11.6005 96.7001C12.1537 96.5454 12.1311 96.5895 12.1424 96.6117L10.3926 97.1126C11.0813 96.9137 11.2505 96.98 11.2393 97.0168C11.2393 97.0684 10.7313 97.2157 10.5958 97.282C10.0428 97.5987 10.2797 97.6945 10.3362 97.8344C10.3362 97.8344 9.82817 97.9965 9.83945 98.0184C9.83945 98.0406 9.89594 98.0554 9.94103 98.0701C10.0878 98.1143 10.2685 98.1438 10.4491 98.1732C10.6974 98.2101 10.8329 98.2911 11.2393 98.2837C11.4086 98.2837 11.5102 98.2911 11.9505 98.188C12.2665 98.1143 12.1875 98.1732 12.1988 98.188C12.1988 98.1659 11.8262 98.2616 11.7473 98.3132C11.5892 98.4237 11.7246 98.4531 11.7586 98.5121C11.7699 98.5341 11.6683 98.6446 12.1084 98.5342C12.4246 98.4531 13.4744 98.1143 13.8357 98.0038C13.8582 98.048 12.8761 98.3574 12.3003 98.5342C11.4989 98.7772 11.8489 98.7257 11.8715 98.7772C11.894 98.8361 12.0521 98.8729 11.8037 99.0129C11.7586 99.0423 11.4537 99.1454 11.4651 99.1528C11.5554 99.1601 11.9392 99.0644 12.21 99.0129C12.7857 98.9023 11.8827 99.256 11.7699 99.3444C11.6456 99.4475 12.3118 99.2633 13.0003 99.0865C14.2533 98.7698 12.3681 99.3223 12.0746 99.4107C11.3183 99.6537 12.7857 99.2855 12.8648 99.2634C13.4519 99.1455 12.2665 99.5138 12.0069 99.6316C11.6908 99.779 11.9053 99.7716 12.0634 99.7716C12.1649 99.7716 12.7745 99.7642 11.8489 100.044C11.6908 100.132 11.9618 100.096 12.1084 100.088C12.6503 100.066 12.6165 100.228 13.1132 100.221C13.2825 100.221 13.6098 100.184 14.4565 99.9336C13.9936 100.074 13.2938 100.272 13.0003 100.39C12.7632 100.486 13.1922 100.375 13.1132 100.427C13.0567 100.456 12.9891 100.493 12.91 100.537C12.5938 100.699 12.7068 100.736 12.7294 100.802C13.1922 100.699 13.1697 100.839 13.226 100.824C14.1743 100.567 15.2354 100.236 16.2401 99.9778C16.4998 99.9115 15.4385 100.317 14.5806 100.522C13.6663 100.736 13.3389 100.876 13.3616 100.935C13.3616 100.957 13.3276 101.023 13.6889 100.935C13.9936 100.861 14.2081 100.788 14.0727 100.869C13.9711 100.928 12.7407 101.406 12.2214 101.546C12.9213 101.362 12.9438 101.384 12.9776 101.428C13.0116 101.473 13.0794 101.502 13.4405 101.443C13.5308 101.428 14.1292 101.303 14.0162 101.34C13.8243 101.406 13.2486 101.591 13.2148 101.62C13.1357 101.679 13.6098 101.568 13.6324 101.605L13.6776 101.716C12.91 101.988 14.1968 101.635 14.6484 101.51C15.1677 101.37 15.258 101.37 15.2693 101.399C14.1968 101.708 13.8582 101.789 13.8017 101.885C13.7114 102.047 13.8357 102.143 13.9033 102.261C13.9033 102.268 13.9033 102.415 14.3324 102.276C15.0774 102.032 15.0774 102.113 14.9419 102.18C14.8065 102.246 14.3436 102.357 14.1405 102.438C13.9824 102.497 14.0049 102.519 14.0162 102.533C14.0162 102.57 13.8017 102.725 14.3098 102.614C14.7725 102.511 14.4565 102.629 14.6822 102.614C14.8065 102.6 15.5403 102.43 15.5403 102.445C15.5403 102.46 15.0435 102.6 14.9081 102.651C14.5243 102.791 14.4339 102.865 14.479 102.894C14.5468 102.946 14.6258 103.005 14.8403 103.012C14.9532 103.012 15.2919 102.938 15.8223 102.799C16.9852 102.57 18.9042 101.797 16.2965 102.533C16.9625 102.357 16.7593 102.239 17.5269 101.996C18.0688 101.826 17.606 101.944 17.4028 101.966C17.1883 101.996 17.2786 101.929 17.1658 101.929C16.6239 101.915 16.6352 101.738 16.7368 101.546C16.8045 101.421 17.8656 100.891 15.5966 101.532C15.4725 101.568 13.926 101.981 14.4114 101.826C14.8403 101.686 15.3596 101.524 15.8563 101.384C16.082 101.318 18.6332 100.567 18.6897 100.545C18.5542 100.574 18.3397 100.64 18.1929 100.655C18.0463 100.67 18.001 100.655 17.9898 100.633C17.9785 100.596 17.9559 100.537 18.6785 100.331C17.3237 100.721 18.272 100.361 17.1883 100.655C16.5901 100.817 15.3257 101.149 16.3642 100.802C16.8496 100.64 17.3915 100.493 17.7979 100.339C18.0688 100.236 18.035 100.206 17.5269 100.339C16.9964 100.478 17.1883 100.419 17.1658 100.375C17.1658 100.353 17.4931 100.272 17.7415 100.191C18.6897 99.8821 16.7255 100.339 17.5947 100.022C17.5721 99.9778 16.1385 100.339 16.4095 100.25C16.5561 100.199 17.4593 99.9189 17.335 99.9336C17.1206 99.9704 16.4884 100.169 16.1949 100.228C16.2061 100.228 17.7866 99.7127 17.8205 99.7053C17.0077 99.9189 16.4545 100.029 16.9287 99.8232C17.1544 99.7274 17.335 99.6316 17.2674 99.6169C17.2447 99.6169 16.8723 99.6758 16.8836 99.7127L16.8496 99.639C16.8271 99.5875 16.8045 99.639 16.3868 99.7348C16.082 99.8011 16.6804 99.5285 16.7368 99.4843C16.8158 99.4254 17.019 99.2928 16.6126 99.3812C16.2739 99.4549 15.2354 99.7863 16.1836 99.4328C16.8496 99.2118 17.2561 99.0055 16.1611 99.3664C15.1903 99.6537 14.9419 99.6832 15.5289 99.4549C15.9466 99.2928 16.6917 99.0718 16.2063 99.1455C16.1498 99.1529 14.9531 99.418 15.1563 99.3591C15.3257 99.3076 15.9917 99.1676 16.2739 99.0571C16.5223 98.9614 15.6757 99.1381 15.495 99.175C15.4838 99.1381 15.4047 99.1087 15.766 98.9687C16.1046 98.8361 16.2626 98.7625 16.2852 98.7109C16.3079 98.6594 16.2288 98.6299 15.9804 98.6593C15.7322 98.6887 15.0322 98.8803 15.6192 98.6741C16.2739 98.4458 16.4207 98.3426 16.2176 98.35C16.0707 98.35 15.4725 98.5489 15.0435 98.6741C16.5223 98.2248 16.0482 98.2248 15.3709 98.3868C14.9871 98.4752 14.9644 98.4384 15.4612 98.269C15.7885 98.1585 15.9917 98.1364 16.2852 98.0259C16.5674 97.9228 16.082 98.0407 15.9466 98.0628C15.6192 98.1217 15.6531 98.0627 16.082 97.8933C16.9625 97.6282 15.6982 97.9448 15.6079 97.9522C15.3822 97.9669 15.766 97.7829 15.2581 97.8785C14.8065 97.9669 14.8855 97.8786 15.0096 97.7976C15.1451 97.7018 15.5741 97.4735 14.9306 97.6208C14.6936 97.6724 15.4612 97.4146 15.5966 97.3556C15.8223 97.2525 15.2919 97.3998 15.2806 97.3704C15.2693 97.3335 15.3031 97.2746 15.1677 97.2746C15.0209 97.2746 14.4678 97.4514 14.9081 97.2746C15.3144 97.1052 16.0256 96.7737 14.4114 97.2525C16.0595 96.759 15.3935 96.6854 14.7274 96.8253C14.163 96.9432 16.7029 96.1329 15.179 96.5233C14.5017 96.7001 13.6438 96.9358 14.4114 96.6633C14.4114 96.6485 14.2759 96.5749 14.1743 96.6117C14.242 96.5895 14.6258 96.5086 14.8177 96.4276C14.9644 96.3613 14.8628 96.3613 14.8516 96.3392C14.8516 96.2802 15.4499 96.0298 15.2919 96.0224C14.8968 96.1919 13.4632 96.6412 12.7519 96.7958C12.7294 96.7443 13.7905 96.4718 14.1292 96.376C14.6936 96.214 14.2195 96.2729 14.2984 96.2287C14.3774 96.1845 15.2693 95.8825 15.0096 95.9414C14.6936 96.0151 14.1855 96.155 14.3549 96.074C14.6146 95.9414 15.1563 95.7499 15.1563 95.691C14.5806 95.8971 14.6371 95.6247 14.4678 95.6468C14.3549 95.6615 13.4632 95.9562 13.1019 96.0298C12.6278 96.1256 14.0614 95.7057 14.3662 95.6173C14.0389 95.7131 13.3954 95.875 13.7227 95.7572C14.0162 95.6467 14.6484 95.4848 14.829 95.4037C14.9419 95.3521 13.5083 95.7425 13.6438 95.6542C13.6776 95.6321 14.8968 95.2196 14.3436 95.3743C14.0276 95.4626 13.7567 95.573 13.4857 95.6099C13.3954 95.6246 13.3841 95.61 13.4857 95.5731C13.813 95.4479 14.8403 95.1975 14.9081 95.1386C14.9532 95.1017 14.9758 95.0502 14.829 95.0649C14.7725 95.0649 14.3662 95.168 14.3662 95.168C14.3436 95.1238 14.3887 95.0574 14.242 95.0427C14.0614 95.028 13.5873 95.1533 13.2825 95.3006C13.26 95.2564 13.1922 95.2269 13.7567 95.0354C14.1968 94.8808 14.8968 94.6451 14.4 94.7408C14.0276 94.8071 13.7792 94.8808 13.6889 94.8587C13.6889 94.8439 13.7567 94.7924 13.6663 94.7997C13.5308 94.8366 13.2938 94.9029 13.2148 94.9176C12.8875 94.9618 13.181 94.8217 12.9438 94.8365C12.7181 94.8512 12.21 94.9544 12.8422 94.7482C13.2373 94.623 13.1583 94.5419 12.7519 94.6303C12.3003 94.7261 11.9956 94.8881 11.9956 94.8955C11.9956 94.866 11.9278 94.8439 12.1875 94.7482C12.4133 94.6598 12.8084 94.5418 12.9213 94.4829C13.1132 94.3799 12.3681 94.5566 12.7294 94.4093C12.8761 94.3503 14.3211 93.9158 13.3051 94.1663C12.7068 94.3136 11.6683 94.5788 12.3118 94.3504C12.7068 94.2105 13.1019 94.1147 13.2938 94.019C13.3502 93.9895 13.576 93.8201 13.1697 93.9232C12.8761 93.9969 11.657 94.3504 11.7924 94.2473C11.894 94.1737 12.6729 94.0116 13.0567 93.8938C13.0229 93.8938 12.0521 94.1 11.973 94.1147C11.5102 94.1957 11.7924 94.1147 12.1649 94.0042C12.7407 93.8348 13.1357 93.6139 12.8761 93.6433C12.7181 93.6581 12.21 93.7905 11.7359 93.9158C11.4989 93.982 11.2732 94.0411 11.1039 94.0853C10.9345 94.1295 10.8216 94.1589 10.8104 94.1516C10.7651 94.1295 11.3296 93.9821 11.5667 93.9011C11.9053 93.7906 12.0521 93.7096 12.1084 93.6654C12.1875 93.5991 13.3276 93.2087 13.0567 93.2456C12.9213 93.2603 11.9618 93.4886 12.2891 93.3782C12.5826 93.2898 12.8648 93.2087 12.8987 93.1645C12.9776 93.0688 11.3861 93.4591 11.2618 93.4149C11.1377 93.3781 12.8535 92.8847 12.831 92.8331C12.831 92.8184 12.0634 93.0541 12.0634 93.0541C12.0521 93.0099 12.8875 92.7815 12.7972 92.7668C12.6842 92.7447 12.3907 92.7889 12.3681 92.7373C12.3681 92.7594 12.3116 92.7152 12.0521 92.7668C11.7021 92.8331 11.8489 92.7742 11.9843 92.7152C12.2553 92.59 12.1537 92.5458 11.8489 92.5753C11.7246 92.59 10.5958 92.8331 11.0699 92.7005C12.0181 92.4353 13.0116 92.1627 12.0295 92.3542C11.4086 92.4721 9.97499 92.811 10.7651 92.5311C11.1942 92.3764 11.8827 92.1554 12.0521 92.0597C12.21 91.9713 11.7134 92.1039 11.7021 92.0671C11.7021 92.0376 12.4584 91.8019 12.4359 91.7651C12.4359 91.7651 11.9278 91.8903 11.8262 91.9124C11.0361 92.0744 12.7745 91.544 12.7632 91.4998C12.7632 91.5219 10.4604 92.1775 11.3973 91.8314C11.9165 91.6398 11.9618 91.6397 11.9392 91.5735C12.1197 91.4924 12.244 91.4557 12.7857 91.301C11.3748 91.6914 12.4246 91.2274 11.1377 91.5883C11.9165 91.3673 11.7134 91.3009 11.6456 91.2862C11.578 91.2715 11.4764 91.2716 11.2732 91.301C11.2958 91.301 10.4151 91.5146 10.5055 91.4852C10.878 91.3673 11.8489 91.1021 12.2891 90.9843C11.894 91.0653 11.7021 91.0874 11.1039 91.2495C10.4829 91.4189 9.69277 91.6325 9.67023 91.5808C9.99753 91.4925 11.2505 91.1537 11.4199 91.0874C11.7021 90.9768 10.9345 91.161 10.6748 91.2273C10.6748 91.2052 10.6748 91.1758 10.8667 91.0948C11.0023 91.0432 11.5327 90.8664 11.5327 90.8443C11.5215 90.8149 10.291 91.1537 10.4039 91.0948C10.4266 91.0874 10.8442 90.9401 10.9232 90.9106C11.0361 90.8591 11.0699 90.8296 11.0813 90.8075C11.1038 90.7486 10.7539 90.8075 10.6636 90.7854C10.5958 90.7633 11.2167 90.5718 10.9458 90.616C10.7539 90.6455 10.5281 90.6969 10.1669 90.8001C11.0926 90.5423 11.5215 90.4245 11.4876 90.3582C11.4312 90.3729 11.0813 90.476 10.9683 90.5054C10.957 90.4686 11.2732 90.2256 10.7426 90.3508C10.6861 90.3656 9.55723 90.719 9.65895 90.6527C9.74913 90.5938 10.3363 90.395 10.4942 90.314C10.9007 90.1151 11.1151 89.9605 10.9232 89.931C10.8216 89.9163 10.2685 90.0414 10.212 90.0119C10.1217 89.9677 9.76054 90.0709 8.93644 90.2772C9.22993 90.2035 10.957 89.6069 10.0428 89.85C9.4896 89.9973 8.50741 90.395 7.90916 90.5497C7.90916 90.5497 8.89121 90.1814 8.97025 90.152C9.47832 89.9752 10.1782 89.7248 10.957 89.5112C9.67023 89.8721 10.2347 89.6216 9.53468 89.769C9.51214 89.71 9.65895 89.6732 10.4039 89.467C11.0586 89.2902 10.7877 89.3123 11.2505 89.1797L8.98153 89.8131C8.95898 89.7615 10.7651 89.2312 10.7088 89.2459C10.3475 89.3123 9.09453 89.5994 9.74914 89.3711C10.2347 89.2017 11.1942 88.782 10.0314 89.0766C9.51215 89.2092 10.0879 88.9587 9.52342 89.0766C8.48487 89.3049 10.2459 88.8113 10.3701 88.745C10.5169 88.664 9.73787 88.8555 9.76055 88.8113C9.79436 88.7524 10.0878 88.6862 10.5507 88.561C11.0926 88.421 10.5055 88.5094 10.4491 88.5242C10.0766 88.5978 10.3362 88.5241 10.4266 88.48C10.6861 88.3547 7.67217 89.2386 9.42182 88.6862C10.3588 88.3916 10.3023 88.34 9.54596 88.502C8.69931 88.6862 8.46232 88.7156 9.78308 88.3178C10.562 88.0895 8.9139 88.4137 9.74914 88.1632C9.08312 88.3695 7.32219 88.6641 8.99294 88.2663C10.5732 87.8391 9.26375 88.1189 9.12835 88.1042C9.0493 88.0968 8.98153 88.0675 9.22993 87.9791C9.37674 87.9202 9.625 87.8686 9.64754 87.8391C9.6815 87.7949 9.35406 87.7727 8.6655 87.9569C9.26375 87.7948 9.85085 87.6476 9.89594 87.5887C9.91849 87.5519 8.94771 87.7581 9.57992 87.5887C9.53469 87.6034 9.36533 87.6107 9.13961 87.6696C8.80089 87.758 9.06058 87.6697 9.12835 87.6329C9.51215 87.4782 10.054 87.2645 8.43978 87.6844C8.73327 87.6033 9.98626 87.2792 9.41056 87.3897C8.90263 87.4855 8.76708 87.5298 8.75581 87.4856C8.75581 87.515 9.8734 87.2204 9.91849 87.1689C9.96372 87.1247 9.85086 87.1247 9.6815 87.132C9.32024 87.1615 9.09452 87.2131 8.1801 87.4488C8.15756 87.3898 8.37201 87.353 9.00421 87.1689C8.99294 87.1689 8.06724 87.3825 7.81884 87.4414C8.71072 87.2131 9.37674 87.0289 10.2232 86.7932C9.72658 86.889 9.27516 86.9847 8.722 87.0952C7.77376 87.2941 8.15756 87.132 8.38327 87.0142C8.5074 86.9553 8.95898 86.7269 8.10106 86.9332C7.38995 87.1099 6.64489 87.294 5.92237 87.4708C5.9111 87.4266 7.23188 87.1099 7.69472 86.9921C7.09647 87.1394 8.03329 86.8374 8.50741 86.7269C8.89121 86.6312 9.55723 86.4691 9.54596 86.4397L7.24314 87.0068C8.49613 86.6974 8.45105 86.5279 8.43978 86.4838C8.43978 86.5133 7.78503 86.6754 7.40123 86.7711C7.46886 86.6827 9.4896 86.1671 8.40582 86.366C8.21392 86.4028 7.09647 86.6164 7.7963 86.4397C8.08979 86.366 9.25248 86.1376 9.12835 86.1228C8.99294 86.1007 8.34946 86.2407 8.5639 86.1228C8.72199 86.0344 9.1058 85.9093 9.0493 85.8725C8.99294 85.8283 7.76249 86.0714 7.78503 86.145C7.78503 86.1156 7.69471 86.086 7.83012 86.0418C7.95439 85.9976 8.34946 85.8945 8.6204 85.8356C8.78962 85.7914 8.6204 85.8357 8.49613 85.8503C8.21392 85.9019 7.83012 85.9756 7.23187 86.0935C7.64949 86.0198 7.356 86.0935 6.93838 86.1671C6.61094 86.226 6.30618 86.2555 6.45299 86.2113C6.72393 86.1303 8.15756 85.9167 8.12361 85.8946C8.12361 85.8946 7.59313 85.924 6.88189 86.0418C6.31745 86.1449 6.20459 86.1819 5.5838 86.2481C5.19999 86.285 4.91778 86.2923 5.35794 86.2039C6.01269 86.0861 8.15756 85.8357 8.27041 85.8062C8.47359 85.7694 8.32692 85.7841 8.05597 85.8062C7.69471 85.8357 7.11901 85.9093 6.75775 85.9388C6.05792 85.9756 8.48486 85.7399 7.99947 85.7767C7.52536 85.8136 6.71266 85.8651 5.86601 85.924C6.47553 85.8725 7.25442 85.8135 7.7963 85.7693C8.39455 85.7103 9.26375 85.6515 8.89122 85.6662C8.76709 85.6662 8.05597 85.7178 7.70598 85.7252C7.42377 85.7252 7.49154 85.7103 7.61567 85.6956C7.76249 85.6809 8.43977 85.6515 8.39455 85.6515C8.32692 85.6515 7.06251 85.6514 7.49154 85.6293C7.71726 85.622 9.13962 85.6294 8.55264 85.6147C7.96566 85.6 6.63362 85.5779 6.63362 85.541L7.38996 85.563C7.72853 85.563 7.89789 85.5779 7.92044 85.5852C8.20265 85.6 7.43505 85.541 7.40123 85.5263C7.33346 85.5116 7.96566 85.541 7.77376 85.5189C7.55917 85.4968 7.24314 85.4674 7.24314 85.4526C7.24314 85.4379 7.25441 85.4305 7.59313 85.4526C8.10106 85.4895 6.78029 85.3495 6.79157 85.3201C6.79157 85.3053 7.14156 85.3422 7.50281 85.379C7.8528 85.4158 8.21392 85.4526 8.21392 85.4526C8.21392 85.4526 7.15282 85.2906 6.90456 85.239C6.53203 85.158 8.68804 85.4968 9.19611 85.5705C8.6204 85.4747 8.1236 85.3863 7.42377 85.2684C5.79824 84.9738 7.26568 85.2168 8.33819 85.4084C6.74648 85.1285 7.88662 85.2905 6.65617 85.0548C7.20933 85.1506 7.84139 85.2685 7.96566 85.2906C7.13028 85.1138 7.34473 85.1506 7.31091 85.1285C7.25441 85.099 6.17078 84.8413 6.17078 84.8192C6.18205 84.8192 6.91584 84.9885 7.51409 85.1211C8.11234 85.261 8.55263 85.3715 7.94298 85.2095C7.49154 85.0843 4.88382 84.4508 5.76443 84.6423C6.31745 84.7602 6.80284 84.9002 6.01269 84.6645C6.04665 84.6719 4.90637 84.3478 5.03064 84.3772C5.69666 84.5614 7.2206 84.9886 7.61567 85.0991C7.7398 85.1286 7.08506 84.9443 7.06252 84.9296C6.61094 84.7896 6.70126 84.8118 6.70126 84.8045C6.70126 84.8045 6.83679 84.8487 7.0287 84.9002C7.2206 84.9518 7.45759 85.0254 7.66076 85.077C6.99474 84.8855 7.53663 85.0253 7.40123 84.9811C7.2206 84.9222 6.91584 84.8339 6.80284 84.8045C6.45299 84.6866 6.44172 84.6571 7.23187 84.9002C8.34947 85.2464 8.48486 85.2758 7.42377 84.9296C7.24314 84.8559 7.87534 85.0549 6.74648 84.6719C7.17537 84.7971 8.1236 85.1138 8.45105 85.2243C8.72199 85.3127 8.59772 85.2684 7.49154 84.8412C9.77181 85.7103 9.36533 85.563 8.48487 85.2095C7.6044 84.8633 6.23855 84.3036 6.64489 84.4583C7.33346 84.7234 8.98153 85.4011 7.95439 84.9591C7.69472 84.8413 5.22254 83.7732 5.07573 83.7142C6.00142 84.0973 7.14155 84.6056 6.84806 84.4435C6.67871 84.3478 5.42572 83.8174 5.42572 83.7879C6.08046 84.0825 7.69472 84.7971 8.19138 85.0181C8.57518 85.1875 8.38328 85.0917 7.61567 84.7382C7.29964 84.5909 7.10774 84.495 6.99488 84.4361C6.90457 84.3773 6.89316 84.3551 6.88189 84.3477C6.84807 84.3182 6.72393 84.2004 7.59313 84.6349C8.72199 85.2021 9.41056 85.5631 8.71072 85.1801C8.37201 84.996 7.59313 84.576 7.49154 84.5024C7.40123 84.4361 7.73981 84.613 7.97694 84.7382C8.0333 84.7603 8.75581 85.1507 8.33819 84.9076C6.7352 83.9721 7.89788 84.6056 7.9882 84.6498C8.06724 84.6866 8.11234 84.7012 8.02202 84.6349C7.93171 84.5613 7.87534 84.5245 7.6044 84.3551C7.28837 84.1488 7.73981 84.414 7.73981 84.414C7.73981 84.414 7.7398 84.392 7.63821 84.311C7.52535 84.2226 6.85934 83.707 7.61567 84.2447C8.48487 84.8634 8.609 84.9369 8.4171 84.7823C8.22519 84.6202 7.45759 84.0678 7.51409 84.0752C7.77376 84.274 8.02202 84.4656 8.21392 84.6056C8.40582 84.7455 8.53009 84.8412 8.54137 84.8412C8.54137 84.8412 8.41709 84.7382 8.21392 84.5835C7.99947 84.4288 7.71726 84.2151 7.43504 83.9941C6.84807 83.5596 6.19332 83.103 6.06919 83.0367L5.99014 83.0588ZM9.25247 84.8559C9.09452 84.3698 9.1058 84.473 9.34279 85.2169L9.25247 84.8486V84.8559ZM9.625 82.3C9.55723 82.2043 9.46705 82.2633 9.38801 82.3443C9.30897 82.4401 9.28642 82.5063 9.27515 82.9408C9.27515 83.4417 9.13962 82.7568 9.2412 83.6922C9.15089 82.8157 8.94771 82.742 8.84612 82.5873C8.80103 82.5284 8.72199 82.4474 8.65422 82.2707C8.56391 81.895 8.41709 81.5193 8.34946 81.5119L8.55264 82.2559C8.4736 82.2412 8.28169 81.6592 8.2366 81.8139C8.20265 81.9465 8.21392 82.219 8.34946 82.6462C8.40582 82.8377 8.46232 82.9556 8.42851 82.9261C8.38328 82.8966 8.32692 82.8305 8.2366 82.6831C8.06725 82.3959 7.78503 81.9759 7.87534 82.3148C7.96566 82.6463 7.99948 82.8526 7.84139 82.6831C7.77376 82.6021 7.25442 81.7624 7.33346 81.976C7.52536 82.4474 8.12361 83.2282 7.99947 83.2061C7.95439 83.1987 7.71726 82.823 7.49154 82.4473C7.27696 82.0791 7.05124 81.7109 6.96092 81.7035C6.85934 81.6961 7.31092 82.278 7.34473 82.4106C7.4125 82.6389 7.1641 82.4106 7.00616 82.3222C6.68999 82.116 5.89983 81.5045 5.86601 81.7255C5.86601 81.7992 6.14823 82.1159 6.34013 82.3589C6.56585 82.6462 6.53204 82.6095 6.37395 82.4548C6.23855 82.3148 6.02396 82.0865 5.92237 81.9981C5.62888 81.7403 5.79825 82.0644 6.00142 82.2854C6.37395 82.6684 6.50936 82.8157 6.41904 82.7421C6.35141 82.6758 6.08047 82.44 5.74175 82.1453C5.59508 82.0201 7.15283 83.5302 7.19805 83.5523C7.14155 83.5228 6.28363 82.742 6.09173 82.5799C5.62888 82.1822 5.87729 82.4843 6.00142 82.6242C6.04651 82.6979 6.49808 83.2356 5.53857 82.4106C4.57907 81.5635 5.48221 82.5137 5.5838 82.6095C5.5838 82.6905 3.42766 81.0185 4.10495 81.6372C4.33067 81.7992 4.57906 81.9834 4.83874 82.1675C5.13222 82.3738 5.43699 82.5873 5.7192 82.7935C6.34013 83.2428 6.91584 83.6628 7.25441 83.9132C7.33346 83.9648 8.48486 84.856 8.05597 84.5172C7.71726 84.2299 7.68345 84.1857 7.92044 84.3699C8.2252 84.6056 8.75581 85.0474 8.39455 84.7086C8.08979 84.4213 7.72853 84.0825 8.27041 84.5613C8.29296 84.5687 7.26569 83.4786 8.54137 84.7529C7.55918 83.7733 8.34946 84.4803 8.24788 84.3551C8.14629 84.2151 7.78503 83.8469 7.53663 83.5449C7.33345 83.2871 8.01074 84.0237 8.21392 84.252C9.24119 85.4158 8.43978 84.473 8.4171 84.3993C8.4171 84.3699 8.74454 84.6866 8.83486 84.8266C8.722 84.6645 8.82358 84.8266 8.5639 84.4656C8.4285 84.2741 8.4736 84.311 8.48487 84.3183C8.50741 84.3183 8.50741 84.2814 8.69931 84.5539C8.89121 84.8191 9.08312 85.1286 8.94771 84.9002C8.84613 84.7382 8.54136 84.2299 8.47359 84.1047C8.37201 83.8838 8.78963 84.5025 8.89122 84.6792C9.02676 84.8855 9.08311 84.9812 9.09452 84.9739C9.09452 84.9591 9.0493 84.8339 8.97025 84.5982C8.92516 84.4877 8.69931 83.8837 8.722 83.8911C8.722 83.8985 8.99294 84.576 9.0493 84.716C9.16216 84.9664 9.13962 84.8634 9.12835 84.7971C9.1058 84.6866 8.95898 84.311 8.97025 84.252C8.97025 84.2078 9.01548 84.2741 9.07184 84.3846C9.21865 84.7087 9.36533 85.3864 9.28643 84.9002C9.21866 84.4951 9.25247 84.5466 9.28643 84.5539C9.28643 84.5539 9.19612 83.8175 9.2412 83.8322C9.27516 84.0826 9.36534 84.9518 9.35406 84.7234C9.35406 84.5688 9.33151 84.1194 9.33151 83.8542C9.33151 84.5245 9.41055 84.2151 9.4331 84.2888C9.46705 84.4287 9.44438 84.9811 9.46706 84.9885C9.46706 84.9885 9.4896 84.5393 9.50087 84.0826C9.51214 83.6259 9.50087 83.1618 9.46706 83.1544H9.52342C9.52342 83.1544 9.70404 82.4548 9.60245 82.3222L9.625 82.3ZM13.6776 81.8434C13.6324 81.3647 13.5986 81.4678 13.5648 82.197H13.6098L13.6776 81.8434ZM19.638 82.5432C19.5137 81.7109 19.5137 82.8967 19.5927 82.9041L19.638 82.5432ZM10.1669 83.6186C10.0878 83.6039 10.2007 82.882 10.2572 82.8894C10.2572 83.1398 10.2572 83.5523 10.1669 83.6186ZM12.1084 82.7568C12.1084 83.1545 12.0408 83.4418 12.0069 83.1103C11.9505 82.661 11.9618 81.5487 12.0746 82.0201C12.0972 82.2116 12.1197 82.4843 12.1084 82.7568ZM14.9984 83.1103L15.0547 82.0128C15.0774 82.3295 15.0887 83.1177 14.9984 83.1103ZM16.5223 83.2944C16.4546 83.287 16.4884 82.5579 16.5561 82.5653C16.5787 82.8084 16.6126 83.2281 16.5223 83.2944ZM17.1545 83.7364C17.0755 83.7291 17.1206 82.9998 17.1771 83.0071C17.2899 83.0219 17.2787 83.7512 17.1545 83.7364ZM27.4721 84.1047C27.4721 84.1047 27.4383 83.9353 27.348 83.6849C27.2464 83.4344 27.1108 83.103 26.9754 82.7642C26.6932 82.0865 26.3772 81.394 26.2982 81.3204C26.2417 81.2688 26.061 81.1511 26.1513 81.4015C26.332 81.9245 26.5351 82.4252 26.2417 82.0128C26.0723 81.836 25.9031 81.6739 25.8466 81.7918C25.8128 81.8654 26.0498 82.661 25.9594 82.5579C25.8128 82.3885 25.4402 81.3352 25.2934 81.1953C25.2144 81.1142 25.5079 81.8508 25.5644 82.0423C25.5079 82.0423 25.1806 81.0995 25.2257 81.3941C25.2371 81.4752 25.824 83.3165 25.5418 82.7199C25.4177 82.4473 25.316 81.9908 25.1693 81.7551C25.1128 81.6593 25.0564 81.6518 25.0564 81.7329C25.0452 81.9391 25.395 82.7715 25.2483 82.7715C25.1355 82.359 25.0112 81.9908 24.8758 81.6961C24.7629 81.4973 24.5936 81.2025 24.7968 81.9391C24.5258 80.9816 24.5145 81.1953 24.5823 81.7035C24.3904 81.0111 24.2661 81.7035 24.2323 81.7035C24.3791 81.7035 24.6049 82.6389 24.3791 82.3443C24.2323 82.1454 24.1082 82.0718 24.0066 82.0644C24.1872 82.8673 24.492 82.9998 24.6161 83.1471C24.5371 83.1471 24.458 83.1765 24.3565 83.1397C24.3001 83.1102 24.1872 83.0293 24.0742 82.6168C23.9614 82.2265 23.9614 81.9907 23.8485 81.7255C23.6001 81.1952 23.7808 82.1822 23.6679 82.2337C23.5663 82.2779 23.4082 81.8654 23.239 81.3204C23.3293 81.7918 23.3631 82.4032 23.3519 82.6095C23.3293 82.9262 23.2276 82.1307 23.1938 82.1307C23.1374 82.1307 23.2503 82.7125 23.2954 82.9483C23.2503 82.6978 23.1487 81.9171 23.0922 81.7698C23.0019 81.5341 22.9341 81.6739 22.889 81.7255C22.8438 81.7844 22.7649 81.8803 22.7874 82.278C22.81 82.5358 22.8212 82.6905 22.7649 82.6242C22.7309 82.5874 22.6746 82.4547 22.6406 82.2264C22.5843 81.9317 22.5843 82.0275 22.5503 82.0275C22.4939 82.0275 22.4939 82.4105 22.4487 82.521C22.4036 82.6241 22.3471 82.6536 22.2681 82.5873C22.223 82.5431 22.1214 82.1012 22.0875 82.1012C22.0762 82.1012 22.1327 82.3737 22.1101 82.3737H22.0649L21.8279 82.3589C21.7489 82.3589 21.557 82.1085 21.636 82.9483C21.5795 82.3221 21.4102 82.2707 21.3425 82.2707C21.2522 82.2707 21.2748 82.7494 21.1844 82.6758C21.1506 82.6463 21.1392 82.1528 21.0829 81.9981C21.0376 81.8508 20.9925 81.8729 20.9587 81.9024C20.9135 81.9466 20.8684 82.0275 20.8457 82.219C20.8232 82.3442 20.8684 82.6758 20.8797 82.882C20.8232 81.976 20.7554 82.6684 20.6991 82.6316C20.6313 82.5874 20.62 81.151 20.541 81.3719C20.4394 81.6445 20.541 82.7714 20.541 83.3607C20.541 83.8542 20.3603 82.5285 20.3603 82.4548C20.3603 82.7494 20.383 82.9336 20.3153 82.9557C20.304 82.9557 20.2475 82.8966 20.2362 82.9998C20.2249 83.125 20.2588 83.3755 20.2362 83.5302C20.2249 83.7143 20.1797 83.6775 20.1459 83.6775C20.1346 83.2135 20.1121 82.9335 20.0443 83.0808C19.954 83.2797 19.9427 83.4785 19.9089 82.7199C19.8975 82.4621 19.7734 82.4547 19.7621 82.6609C19.7508 82.9335 19.7959 83.0661 19.7395 83.1397C19.683 83.2281 19.604 83.1914 19.5364 83.0882C19.4686 82.9851 19.4461 82.6168 19.3896 82.4106C19.3331 82.2191 19.2542 82.1748 19.2089 82.4989C19.1526 82.9335 19.0058 82.1381 19.017 82.0718C18.9493 82.6095 19.1073 83.2577 19.1073 83.5376C19.1073 83.6112 19.0283 83.6553 19.017 83.4196C19.017 83.0071 18.9267 83.1766 18.8816 83.3313C18.7913 83.6554 18.8251 82.9703 18.78 82.521C18.7461 82.219 18.7348 82.7494 18.7235 82.8157C18.7235 83.1987 18.6558 83.1693 18.622 83.1693C18.5204 83.1693 18.5091 82.9261 18.4188 83.5154C18.4188 83.5375 18.351 83.8248 18.3397 83.7364C18.3172 83.5376 18.4413 82.661 18.3397 82.4622C18.2494 82.2707 18.1366 82.3884 18.035 82.3737C18.035 82.3737 18.1253 82.3664 18.114 82.6831C18.114 82.8452 17.9559 82.6537 17.9559 83.0514C17.9559 82.8526 18.0688 83.405 18.0463 83.4639C17.9785 83.6259 17.8544 84.3773 17.8769 83.4492C17.8994 83.2061 17.9334 82.8526 17.8769 82.7642C17.7979 82.6389 17.685 82.5799 17.606 82.7272C17.5383 82.8377 17.5834 83.4712 17.5721 83.7805C17.5269 83.7805 17.3802 83.3681 17.369 83.0662C17.3577 82.7789 17.4931 82.6758 17.5044 82.6758C17.448 82.6758 17.3125 82.8305 17.2786 82.4695C17.2561 82.1896 17.2787 81.5341 17.3012 81.1879C17.2447 81.7919 17.1996 82.3811 17.1206 82.882C17.0755 83.1324 17.0303 82.9557 16.9739 83.0956C16.9512 83.1619 16.8949 83.7512 16.8723 83.3902C16.8496 82.9483 16.9512 82.4106 16.9399 81.9171C16.9399 81.5046 16.8384 81.8876 16.8045 82.0423C16.7593 82.2412 16.7593 82.4547 16.7029 82.521C16.6464 82.5873 16.6014 82.5727 16.5449 82.5727C16.4207 82.5727 16.2626 82.3221 16.1272 82.7346C16.0933 82.8304 16.0707 83.2355 16.0482 83.0808C16.0142 82.8819 16.0257 82.4769 15.9804 82.278C15.9014 81.8729 15.7547 81.7697 15.6304 82.1453C15.6079 82.219 15.5403 82.7273 15.5403 82.6831C15.5063 82.5285 15.5741 81.8139 15.5176 81.8065C15.5176 81.8065 15.4725 82.4105 15.416 82.4326C15.3822 82.4473 15.337 82.4031 15.3144 82.7346C15.2693 83.427 15.2466 83.3976 15.1563 83.8764C15.145 83.7291 15.1338 82.5506 15.1563 82.6242C15.1677 82.6831 15.2016 82.9336 15.2581 82.6242C15.2919 82.4253 15.2693 82.3369 15.2581 82.2707C15.2241 82.1528 15.0661 82.7347 15.0547 82.1675C15.0547 81.7403 14.7725 82.3517 14.6936 82.3369C14.6597 82.9483 14.7162 82.9114 14.6936 83.4417C14.6371 83.4417 14.6258 82.7715 14.592 82.8305C14.5355 82.9409 14.479 83.5155 14.4339 83.7733C14.4339 83.3166 14.2646 81.0553 14.2081 82.278C14.242 82.3664 14.2533 82.1749 14.2759 82.1381C14.3098 82.0644 14.2308 82.8599 14.2195 82.9557C14.1855 83.1619 14.1405 83.2282 14.1065 83.1693C14.0276 83.022 14.163 82.1159 14.0727 81.9317C14.0276 81.8507 13.9598 81.814 13.9146 81.9171C13.8582 82.0497 13.8695 82.5578 13.7905 82.5873C13.734 82.6094 13.7002 82.6609 13.7227 82.219C13.7227 82.1159 13.7792 81.8287 13.7792 81.6961C13.7792 81.4973 13.4857 83.1472 13.4744 82.6021C13.4632 82.1749 13.5083 81.7329 13.4179 81.6666C13.3954 81.6518 13.2938 81.7477 13.2825 81.8287C13.3051 81.7624 13.4292 82.8673 13.3502 82.7715C13.2825 82.6905 13.2373 82.5284 13.1583 82.521L13.0567 82.5063C13.0341 82.44 13.0229 82.4842 13.0116 82.6536C12.9776 82.7346 13.068 81.8286 13.068 81.7329C13.068 81.3719 12.9891 81.7772 12.9664 81.895C12.9438 82.0571 12.8875 82.5358 12.8535 82.3222C12.8197 82.1307 12.8535 81.7623 12.8535 81.5266C12.8648 81.8802 12.7068 82.4548 12.6616 82.5285C12.6278 82.6095 12.5713 82.6684 12.5375 82.5506C12.5037 82.4474 12.5375 82.2191 12.5037 82.1307C12.4697 82.0497 12.3456 81.9024 12.3343 82.278C12.323 82.6095 12.3116 82.7641 12.2553 82.7862C12.2553 82.7862 12.1762 82.8304 12.1875 82.7346C12.1875 82.5947 12.3456 81.7623 12.2553 81.6003C12.1875 81.4603 12.1311 82.2338 12.0634 81.9024C11.9843 81.5267 11.9165 81.9244 11.8489 82.2264C11.7924 82.4547 11.8037 82.3147 11.7811 82.219C11.7586 82.1453 11.7134 82.3663 11.6908 82.3663C11.657 82.7199 11.5667 83.2502 11.544 82.5873C11.544 82.4326 11.5102 81.0699 11.4537 81.7918C11.4312 82.138 11.4312 82.3885 11.3634 82.3222C11.3296 82.2854 11.3635 81.9097 11.3408 81.7477C11.3183 81.5635 11.2732 81.5855 11.2505 81.5855V82.3148C11.2732 82.4031 11.307 82.5506 11.3183 82.7642C11.3296 83.1398 11.2167 83.0441 11.1942 83.0367C11.1039 83.0293 11.1602 82.6168 11.0926 82.3517C11.0813 82.3075 11.0023 81.917 10.991 82.0275C10.9458 82.3221 10.957 82.5947 10.8894 82.6242C10.8555 82.6389 10.8216 82.5136 10.7877 82.7272C10.7088 83.2207 10.4942 82.9704 10.4378 82.9188C10.3813 82.8746 10.4153 82.7273 10.4378 82.4032C10.4604 82.0939 10.3588 82.1749 10.325 82.1675C10.3023 81.9908 10.2459 81.8729 10.1669 82.3296C10.1217 82.6095 10.0991 82.499 10.054 82.4916C10.0313 82.4916 9.98626 82.7493 9.94103 82.8009C9.8734 82.8819 9.85086 82.7052 9.80563 82.6758C9.71532 82.6463 9.51214 84.1121 9.53468 84.392C9.53468 84.3699 9.56864 84.2815 9.57992 84.2962C9.59119 84.3478 9.60246 84.4361 9.57992 84.6423C9.57992 84.9296 9.6815 85.1065 9.77181 85.0328C9.85085 84.9812 9.89594 84.1194 9.99753 83.9941C10.0653 83.9131 10.0879 84.0825 10.0991 84.3551C10.0653 84.6791 10.0653 84.7234 10.0991 84.7308C10.1782 84.7455 10.1443 84.7087 10.2232 84.2373C10.2572 84.0384 10.325 83.8984 10.3362 84.0678C10.3475 84.4508 10.1669 85.0916 10.3023 85.1285C10.3475 85.1432 10.4942 84.797 10.5281 84.4213C10.562 84.3624 10.5845 84.4362 10.6185 84.4067C10.6523 84.3699 10.9458 83.7733 10.9683 83.8764C11.0135 84.1636 10.7651 84.8338 10.7426 85.0474C10.7651 84.7823 11.1602 84.5392 11.2054 84.3403C11.2732 84.0383 11.2958 84.1563 11.3408 84.5098C11.4086 85.0549 11.4086 84.5172 11.4537 84.5246C11.5102 84.5246 11.5215 84.4877 11.5553 84.7455C11.5667 84.8339 11.578 84.8707 11.6005 84.8412C11.6343 84.7749 11.6683 84.4067 11.6343 84.1784C11.6231 83.95 11.6231 83.4934 11.6683 83.6701C11.7134 83.8322 11.7134 84.2667 11.7699 84.4213C11.815 84.576 11.8715 84.3771 11.9165 84.2151C11.9505 84.2151 11.9956 84.2373 12.0181 84.3846C12.0181 84.5319 12.0408 84.5982 12.0521 84.5982C12.1085 84.5982 12.1085 84.2741 12.1649 84.252C12.21 84.2373 12.2327 84.4141 12.2665 84.4656C12.3568 84.5835 12.481 84.495 12.5713 84.0678C12.6391 83.7732 12.6503 83.7143 12.6391 84.3036C12.5826 84.6498 12.6391 84.6645 12.6841 84.6719C12.7294 84.6866 12.7971 84.7382 12.8422 84.5835C12.8875 84.4656 12.9213 84.1341 12.9776 84.3403C12.9551 84.9369 13.0906 84.7824 13.147 84.6866C13.1922 84.5909 13.2938 83.7142 13.3051 83.9278C13.3276 84.4582 13.3389 84.6645 13.4292 84.7308C13.5535 84.8266 13.6889 84.8338 13.8243 84.716C13.8695 84.6718 13.926 84.6056 13.9711 84.5172C14.0049 84.4656 14.0389 84.1931 14.0614 84.1931C14.0952 84.1931 14.1065 84.7161 14.1292 84.8708C14.163 85.0696 14.1968 85.1948 14.242 85.2464C14.2984 85.3127 14.3549 85.239 14.3774 84.7234C14.3549 85.1212 14.5243 84.4656 14.5581 84.3993C14.5806 84.3552 14.6258 84.9664 14.6597 85.0548C14.7049 85.1727 14.7725 85.239 14.829 85.1138C14.8855 85.0033 14.8855 84.5024 14.8968 84.2151C14.9193 84.2151 14.9758 84.1636 14.9984 84.2299C14.9984 84.3404 14.9984 84.4509 14.9984 84.5467C14.9984 84.6571 15.0547 84.5982 15.0774 84.6056C15.1 84.6056 15.0887 84.9148 15.1112 84.9811C15.1451 85.0548 15.179 85.0475 15.2128 85.0254C15.3144 84.9444 15.3709 84.5909 15.4725 84.2373C15.5966 83.7954 15.5515 84.2373 15.5176 84.8118C15.5289 84.4804 15.5854 84.7824 15.6192 84.5172C15.6192 84.4656 15.6531 84.0384 15.6531 84.0311C15.6982 84.0311 15.6531 84.5835 15.6982 84.5909C15.7547 84.5909 15.8111 84.1268 15.8563 84.0163C15.9466 83.8322 15.8788 84.2299 15.845 84.3993C15.7885 84.6571 15.766 85.3127 15.845 85.1801C15.9127 85.0549 16.0142 84.6498 16.0369 84.1121C15.9804 85.4674 16.4884 84.1709 16.4433 85.1432C16.4998 85.7841 16.6126 84.9665 16.7142 84.8708C16.7933 84.7971 16.8609 84.8339 16.9287 84.8266C17.0302 84.8266 17.1318 84.4876 17.2221 84.495C17.2899 84.5024 17.3012 84.8855 17.3915 84.8781C17.4253 84.8781 17.4818 84.8929 17.5156 84.6792C17.5269 84.5761 17.5269 84.274 17.5609 84.2888C17.6285 84.3256 17.6172 85.0622 17.606 85.4157C17.6285 84.6865 18.2156 85.0769 18.2945 85.1211C18.3736 85.1653 18.4751 85.4968 18.5542 85.46C18.6332 85.4305 18.7123 85.2611 18.78 85.0402C18.8026 84.9665 18.8929 84.1268 18.8477 84.1195C18.9042 84.1195 18.8704 85.2243 18.9607 84.8855C18.9719 84.8413 19.0623 84.3183 19.0848 84.4656C19.0961 84.5467 19.017 85.4085 19.0848 85.3274C19.1526 85.2317 19.2767 84.9296 19.2654 84.3477C19.3105 84.274 19.367 84.9149 19.3783 85.0844C19.3896 85.1138 19.5364 85.5999 19.5364 85.4894C19.5589 85.2095 19.5364 84.6424 19.604 84.5909C19.6605 84.554 19.7056 84.8044 19.7621 84.7086C19.8186 84.6129 19.8186 84.392 19.8862 84.3993C19.9653 84.3993 19.9991 84.8634 20.0781 84.9444C20.1346 85.0033 20.2249 84.9149 20.2024 84.4213C20.2137 84.5171 20.3603 85.1801 20.3491 85.0033C20.3265 84.7824 20.2362 84.1342 20.3265 84.1931C20.3716 84.2226 20.4056 84.4877 20.4507 84.5909C20.541 84.8045 20.6991 84.8708 20.7103 84.311C20.7103 84.6277 20.8797 85.18 20.9135 85.2021C20.8797 84.7233 20.9361 84.8412 20.9926 84.8486C21.0603 84.8486 21.0376 84.9002 21.0376 84.5982C21.0376 84.171 21.2409 84.8266 21.2973 84.8634C21.3313 84.8855 21.3198 84.6055 21.3651 84.5613C21.4214 84.4876 21.5005 84.5319 21.557 84.5246C21.6811 84.5246 21.7489 84.4214 21.7263 83.6259C21.7263 83.8837 21.7263 84.2741 21.7601 84.5835C21.8052 84.9444 21.8392 84.5392 21.8392 84.4213C21.8505 83.7142 21.9182 83.9573 22.0536 84.7086C22.144 85.2389 22.0536 83.2871 22.1552 84.2005C22.223 84.8045 22.4374 84.7676 22.3359 83.9648C22.3811 84.311 22.4262 84.473 22.4939 84.6645C22.5278 84.7603 22.5278 84.5761 22.573 84.5761C22.6293 84.5761 22.6858 84.8117 22.7536 84.8486C22.8212 84.8927 22.81 84.5835 22.8665 84.5909C22.9228 84.5909 22.9906 84.6276 23.0696 84.7012C23.1825 84.8191 23.2841 85.0474 23.3519 84.9222C23.3857 84.8633 23.3519 84.3331 23.3744 84.3331C23.4082 84.3331 23.5325 84.9518 23.5888 85.077C23.6679 85.2464 23.6115 84.7675 23.5888 84.5687C23.5663 84.3772 23.3969 83.4123 23.5325 83.8027C23.6453 84.1268 23.7469 84.5761 23.8598 84.7603C24.0066 84.996 23.7808 83.6112 24.0066 84.3257C24.142 84.7603 24.3001 84.5098 24.3452 84.4361C24.4017 84.3625 24.4242 84.1784 24.5145 84.2962C24.5371 84.3257 24.8306 84.9297 24.7968 84.8118C24.729 84.5835 24.6387 84.392 24.6387 84.1857C24.6387 84.0753 24.6726 84.0604 24.7064 84.0678C24.7742 84.0899 24.9209 84.2668 25.0452 84.7603C24.6614 83.2282 25.2031 84.9812 25.2596 84.8339C25.3047 84.7013 25.1241 83.9869 25.1918 83.8911C25.2144 83.869 25.3837 84.2151 25.429 84.2814C25.6547 84.5539 25.3725 83.8027 25.5869 84.0163C25.7224 84.1563 25.824 84.2594 25.9031 84.1931C25.9256 84.171 25.9256 83.8616 25.9256 83.8616C26.0837 83.9352 26.6707 85.1506 26.6594 84.6423C26.6594 84.3992 26.5013 84.1931 26.6029 84.1857C26.6932 84.3552 26.7835 84.4951 26.84 84.5246C26.8626 84.5393 26.761 84.2814 26.7723 84.2151C26.7948 83.8247 27.7092 85.1212 27.4608 84.1195C27.5173 84.1195 27.5511 84.473 27.4608 84.1195L27.4721 84.1047Z" fill="#959EC6"/>
<path d="M116.48 9.04508C118.85 8.78728 116.367 8.52212 116.446 8.89777C116.412 8.94933 116.469 9.00089 116.48 9.04508ZM122.44 46.0209C124.845 46.0136 122.451 45.5053 122.44 45.8736C122.395 45.9178 122.44 45.9767 122.44 46.0209ZM123.908 49.6596C123.975 49.6596 124.483 49.5344 124.483 49.5197C124.483 49.4092 123.648 49.3429 123.377 49.3576C123.377 49.4681 123.309 49.6449 123.908 49.6596ZM124.799 78.71C125.341 78.6952 125.24 78.5406 125.296 78.3933C124.811 78.3196 124.743 78.327 124.698 78.4522C124.698 78.4669 124.495 78.7173 124.811 78.71H124.799ZM114.538 91.3348C114.708 91.1728 113.793 90.7455 113.601 90.9297C113.466 91.1065 114.346 91.4527 114.538 91.3348ZM114.166 92.285C113.974 92.0787 113.883 91.9167 113.387 91.7399C113.116 91.983 113.387 92.1671 114.166 92.285ZM117.835 6.12089C117.36 6.09143 117.518 5.92939 117.485 5.7968C117.891 5.75261 118.591 5.66422 118.625 5.8189C118.659 5.95885 118.478 6.15772 117.835 6.11353V6.12089ZM120.374 10.1794C119.9 10.1499 120.058 9.98789 120.024 9.85531C120.431 9.81112 121.131 9.73009 121.165 9.88477C121.187 10.0247 121.018 10.2236 120.374 10.1794ZM124.043 32.2397C123.682 32.1734 123.321 32.1439 123.445 31.9819C123.851 31.9524 124.562 31.8935 124.574 32.0482L124.032 32.2323L124.043 32.2397ZM125.849 42.0361C125.748 41.8077 126.12 41.7341 126.967 41.712V41.8593C126.673 41.9403 126.267 42.0214 125.849 42.0361ZM122.339 64.9877C122.384 64.774 123.49 64.8772 123.456 65.0613C123.061 65.135 122.418 65.2381 122.339 64.9877ZM123.151 69.1861C123.546 69.3261 123.208 69.4365 122.813 69.2598C122.564 69.1566 122.361 69.0609 122.068 68.9578C122.474 68.9872 123.185 69.0241 123.151 69.1787C123.185 69.0314 123.682 69.3629 123.151 69.1787V69.1861ZM121.481 74.9461L121.65 74.5189C122.135 74.5925 122.192 74.622 122.135 74.7472C122.09 74.8503 122.056 75.0419 121.469 74.9461H121.481ZM109.91 92.2555C110.057 92.1377 110.057 91.9609 110.632 92.2555L110.486 92.366L109.91 92.2482V92.2555ZM98.0119 99.5549C98.3619 99.5844 98.5087 99.2014 99.0053 99.7096C99.2649 99.7391 99.4004 99.3045 99.8971 99.7833C99.7164 99.577 98.6666 98.8626 98.8811 98.7373C99.0504 98.6342 100.236 99.2971 100.213 98.9731C100.213 98.8626 99.818 98.6269 99.7052 98.5606C99.3666 98.2365 99.6149 98.1628 99.7504 98.1039C99.9309 98.0229 100.45 98.0008 100.778 98.4943C101.048 98.8994 100.473 99.1719 101.116 99.5844C101.906 100.085 102.008 99.7906 101.635 99.3119C101.128 98.6637 102.29 98.4133 103.024 99.032C102.843 98.8773 102.177 98.3912 102.29 98.3028C102.426 98.1923 102.674 98.0081 102.268 97.6693C103.159 98.428 104.503 97.6988 104.762 97.5146C105.304 97.1611 105.124 96.5424 104.627 95.7027C104.695 95.8132 105.225 96.6455 105.575 96.7265L105.699 96.5424C105.801 96.4834 105.688 96.5055 106.049 96.697C106.614 96.9843 107.02 97.0064 106.365 96.5203C105.936 96.2035 105.688 96.0857 105.903 95.9457C106.016 95.8721 106.117 95.769 106.32 95.7616C106.478 95.7616 106.727 95.9531 106.794 95.9163C106.986 95.7984 107.201 95.6879 107.381 95.5627C107.697 95.3418 106.207 94.5315 106.117 94.5905C106.275 94.4947 107.912 95.0545 108.33 95.1061C108.77 95.1576 108.939 95.0766 108.228 94.8704C107.822 94.7525 106.817 94.34 107.483 94.3621C107.844 94.3695 108.239 94.4358 108.713 94.5463C108.77 94.561 109.176 94.6788 109.221 94.6567C109.154 94.7009 108.092 94.1338 107.946 93.9938C107.754 93.8244 109.357 94.3106 109.492 94.34C111.445 94.8335 108.228 93.7581 108.205 93.6992C108.059 93.5224 110.057 94.0675 109.255 93.6108C110.057 94.0675 110.836 93.0952 110.982 92.9405C111.174 92.7269 111.039 92.4397 111.118 92.2113C111.174 92.0493 112.111 92.366 111.931 92.1229C111.829 91.983 111.219 91.4895 111.31 91.4232C111.31 91.4232 111.784 91.7694 112.19 92.0272C112.597 92.285 112.947 92.4618 112.676 92.1229C112.45 91.8357 112.8 91.7105 112.077 91.3569C111.468 91.0623 112.518 91.2022 111.919 90.9297C112.619 91.2464 113.172 91.4453 113.59 91.3274C113.861 91.2464 112.089 90.3994 111.897 90.1195C111.4 89.3829 114.267 90.5393 115.035 90.856C114.369 90.2889 113.726 89.8838 113.037 89.4566C113.703 89.5523 114.188 89.6186 114.764 89.626C114.075 89.4271 114.504 89.265 114.437 89.1104C114.403 89.0293 113.68 88.4843 113.455 88.4622C114.256 88.5432 115.464 89.1325 115.114 88.5579C114.866 88.1455 115.249 88.1602 116.232 88.4401C116.344 88.278 115.803 88.2044 115.532 88.0497C115.148 87.8287 115.678 87.7182 115.475 87.512C115.272 87.3058 114.685 87.2468 114.38 87.0774C114.064 86.9007 114.595 86.8491 114.132 86.7091C114.899 86.9301 114.832 86.9522 114.967 86.7607L115.238 86.385C115.611 86.4955 116.265 86.6649 116.164 86.8123C116.344 86.9227 116.085 86.9522 116.581 87.0922C116.819 86.7165 115.769 86.3629 115.43 85.9284C115.091 85.4864 116.423 86.1935 116.446 86.1935C116.502 86.2083 116.232 85.8621 116.232 85.8621C115.87 85.619 115.893 85.5822 116.423 85.5969C117.168 85.6116 117.609 85.2507 116.198 85.0519C116.378 84.9929 116.13 84.8898 116.096 84.8383C116.062 84.772 117.191 85.1771 117.394 85.2286C117.823 85.3391 117.688 85.1844 117.62 85.0813C117.259 84.5878 115.588 84.1901 115.848 83.8291C116.401 83.9912 116.999 84.1827 117.552 84.249C118.489 84.3668 118.105 83.9912 117.327 83.7702C117.947 83.947 118.738 84.0943 118.884 83.8954C118.523 83.7923 116.378 83.3135 117.473 83.343C118.038 83.3577 118.929 83.6082 119.088 83.3946C119.189 83.2546 118.715 83.0631 118.941 82.9526C119.708 83.1736 119.945 82.496 119.934 82.356C119.912 82.1129 118.817 82.1277 118.625 82.0025C118.117 81.6636 120.16 82.0614 120.453 82.0835C120.679 82.1203 120.837 82.0466 120.961 81.9435C121.063 81.8109 121.086 81.6342 121.097 81.5679C121.153 81.2953 121.074 81.0007 120.86 80.7061C120.803 80.6177 120.002 80.0137 120.171 79.9916C120.453 79.9621 122.214 80.7355 122.079 80.5146C121.966 80.3378 121.086 79.4686 120.532 79.3876C121.289 79.5055 121.627 79.4097 121.774 79.2329C121.898 79.0856 121.887 78.9162 121.74 78.7394C121.627 78.5995 121.176 78.4964 121.04 78.3491C120.634 77.9218 121.91 77.8703 122.44 77.6419C122.598 77.5757 122.372 77.5462 122.113 77.502C122.113 77.3915 122.203 77.281 122.248 77.1779C122.327 76.9864 121.876 76.7433 121.944 76.5224C122 76.3308 122.237 76.2425 122.463 76.0878C122.576 76.0141 122.768 75.8668 122.463 75.749C121.944 75.5574 122.553 75.0492 122.587 74.8503C122.598 74.762 121.898 74.0622 121.989 74.0548C122.135 74.0401 122.768 74.2537 122.835 74.2758L122.406 73.9075C122.305 73.8633 121.334 73.5098 121.379 73.4656C121.402 73.4361 122.203 73.5908 122.384 73.554C122.677 73.4951 122.655 73.3109 122.7 73.2004C122.463 72.9942 122.068 72.648 123.106 72.81C122.801 72.7658 122.35 72.5228 122.169 72.5154C122.948 72.5301 123.016 72.4418 123.106 72.1987C123.151 72.0882 123.309 71.9335 123.106 71.7936C122.971 71.7052 122.722 71.7273 122.756 71.6463C122.858 71.4032 123.411 71.3958 123.535 71.138C123.592 71.0275 123.569 70.453 124.348 70.5709C124.461 70.2983 123.321 70.3941 123.084 70.1584C122.971 70.0405 123.761 70.0553 123.975 70.0626C124.133 70.0184 124.314 69.9669 124.438 69.8785C124.472 69.8564 124.483 69.8196 124.483 69.7827C124.416 69.4292 123.4 68.8105 124.292 68.8547C124.021 68.8473 122.395 68.6779 122.44 68.5674C122.463 68.5085 123.106 68.4937 123.242 68.4864C123.366 68.4643 123.49 68.3759 123.558 68.3391C123.829 68.1991 123.896 68.1328 123.738 67.9634C123.682 67.9045 123.648 67.8308 123.874 67.8087C124.348 67.7719 125.195 68.0223 125.398 67.9855C125.635 67.9413 124.743 67.573 124.732 67.4773C124.709 67.1974 125.33 66.9469 125.624 66.6965C125.94 66.4313 122.971 66.4903 124.224 66.1662C124.867 65.9968 125.556 65.9673 125.341 65.6358C125.274 65.5253 123.558 65.1423 124.89 65.1792C126.425 65.2234 125.251 64.8109 124.766 64.6194C123.885 64.2805 125.296 64.2658 125.511 64.008C125.736 63.7428 123.987 63.8386 123.524 63.7428C123.072 63.6545 125.228 63.485 124.619 63.3525C124.438 63.3156 124.088 63.4114 123.817 63.323C123.682 63.2788 123.727 63.0947 123.874 63.0652C124.517 62.9474 125.228 63.2493 125.59 62.94C126.064 62.5422 126.019 61.9824 125.624 61.5405C125.488 61.3932 125.319 61.3637 125.319 61.209C124.427 60.8997 126.73 61.209 126.73 61.1869C126.786 60.9365 124.608 60.9218 125.996 60.6566C126.053 60.5977 125.962 60.5019 125.928 60.443C125.849 60.281 124.675 59.0951 125.748 59.1614L124.167 58.6237C125.059 58.6752 125.296 58.469 125.375 58.2922C125.466 58.0933 126.109 58.1449 126.662 58.086C127.091 58.0344 124.924 57.6956 124.969 57.4894C125.274 57.5041 126.877 57.6882 126.989 57.6219C127.227 57.4746 126.64 57.1505 126.03 57.1063C125.59 57.0695 125.093 57.1874 125.082 57.0106C125.082 56.8927 125.183 56.8706 125.556 56.8264C126.177 56.7602 127.057 56.9517 127.622 56.8927C127.723 56.878 126.809 56.7086 126.831 56.7086C126.504 56.5981 126.357 56.4803 126.346 56.3477C126.346 56.2372 126.696 56.2372 126.515 56.1562C126.256 56.0236 125.894 55.9647 125.556 55.8763C125.082 55.751 126.719 55.7731 126.256 55.5816C126.03 55.4932 125.59 55.4564 125.488 55.3607C125.386 55.2575 125.466 55.1544 125.488 55.0587C125.432 55.3017 126.459 55.7069 126.651 55.3165C126.741 55.1397 126.549 54.7714 125.725 54.7272C127.294 54.8082 126.82 53.5929 126.843 53.3056C126.877 53.0331 126.109 53.1215 125.183 53.092C124.224 52.9373 124.224 52.9005 125.217 52.7974C126.922 52.849 127.543 52.186 127.565 51.8472C127.576 51.6631 127.61 51.4495 127.046 51.3095C126.222 51.1033 125.974 50.9928 125.996 50.6908C125.962 51.0075 127.068 51.1548 127.114 50.7645C127.148 50.4625 127.17 50.1605 127.148 49.8585C127.114 49.4976 127.068 49.3355 125.838 49.1587C126.38 49.2398 126.809 49.3208 127.441 49.2692C127.791 49.2398 128.051 49.0114 127.576 48.9967C126.944 48.9746 127.317 48.761 127.272 48.6063C127.238 48.5253 126.628 48.5253 126.414 48.4516C126.086 48.3411 126.831 48.2454 126.978 48.1423C127.125 48.0391 127.159 47.9287 127.114 47.8255C127.068 47.7151 126.922 47.5677 126.481 47.5235C126.03 47.4793 126.233 47.3468 126.233 47.2142C126.967 47.2068 127.17 47.2878 126.888 47.0374C126.719 46.8975 126.504 46.7575 126.256 46.6176C126.323 46.6323 125.748 46.3671 126.188 46.4113C126.346 46.426 126.448 46.5071 126.82 46.4702C126.82 46.2493 126.617 46.2861 126.188 46.1535C125.894 46.0651 125.386 45.8368 126.007 45.7558C126.798 45.6453 126.967 45.8073 127.306 45.5053C127.486 45.3433 127.847 45.115 127.847 44.9455C127.847 44.7614 127.272 44.894 126.944 44.8793C126.493 44.8572 126.211 44.7172 126.549 44.6141C126.775 44.5478 127.249 44.2458 126.64 44.2532C128.186 44.2311 126.967 43.5387 126.91 43.3693C126.843 43.1999 127.136 43.2293 127.283 43.082C127.452 42.9126 127.441 42.7358 127.441 42.5664C127.441 42.4412 127.159 41.5794 127.994 41.5573C127.994 41.329 127.859 41.2774 127.012 41.2848C126.628 41.2848 125.883 41.1522 125.883 41.0417C125.883 41.0638 127.148 40.9239 127.294 40.8723C127.746 40.725 127.701 40.5261 127.407 40.3862C127.159 40.2609 126.888 40.121 126.831 39.9737C126.831 39.9516 127.452 39.8337 127.543 39.7895C128.039 39.5317 125.703 39.6201 125.68 39.4139C125.669 39.1119 127.317 39.355 127.531 39.1487C127.915 38.7878 126.346 38.4932 125.94 38.2206C125.861 38.1691 125.307 37.5283 126.143 37.764C126.165 38.066 126.831 38.1175 127.159 37.7861C127.26 37.6756 127.159 37.322 126.459 37.3883C126.256 37.4104 125.567 37.624 125.319 37.5504C125.274 37.543 127.543 36.8801 126.798 36.8433C126.335 36.8285 125.838 36.9022 125.364 36.8727C124.924 36.8433 124.72 36.7254 124.393 36.6591C125.533 36.6002 126.041 36.6076 126.041 36.2614C126.041 36.173 125.466 35.7089 124.89 35.8931L124.867 35.5984C125.285 35.5616 125.793 35.6058 126.143 35.5174C126.583 35.4069 126.651 35.2081 126.493 35.0902C126.109 34.803 124.156 34.8398 125.894 34.501C127.814 34.3831 125.454 34.2874 125.432 34.0664C125.409 33.9117 126.47 33.6244 126.109 33.5361C126.03 33.514 124.98 33.3814 124.958 33.3887C125.556 33.2414 125.861 33.3593 126.211 33.0941C126.369 32.9763 126.572 32.7406 125.996 32.7185C125.488 32.7037 125.68 32.4828 125.657 32.3281C125.646 32.2323 124.529 32.2765 124.495 32.0703L125.612 31.9966C125.601 31.8861 125.612 31.702 125.014 31.7388C124.506 31.6431 124.506 31.6062 124.98 31.4442C124.969 31.3116 124.89 31.3042 124.404 31.3337C123.806 31.3779 123.829 31.1864 123.817 31.0759L125.714 30.9507C124.969 31.0022 124.788 30.5456 124.788 30.3983C124.788 30.192 125.341 30.1626 125.488 30.0005C126.086 29.3229 125.815 28.6526 125.748 27.997C125.748 27.997 126.301 27.9234 126.29 27.7982C126.278 27.6877 126.222 27.5846 126.177 27.4741C126.019 27.1352 125.804 26.7964 125.59 26.4576C125.307 26.0083 125.149 25.5148 124.687 25.0876C124.495 24.9182 124.382 24.734 123.885 24.6751C123.546 24.6309 123.614 24.4615 123.603 24.3657C123.614 24.4541 124.021 24.5057 124.1 24.3657C124.269 24.0858 124.1 23.7912 124.054 23.526C124.032 23.4082 124.133 23.0841 123.648 23.0399C123.309 23.0104 122.158 23.202 121.763 23.2314C121.729 23.0178 122.801 22.8705 123.422 22.8042C124.303 22.7158 123.896 22.5096 123.863 22.2886C123.817 22.0087 123.637 21.692 123.896 21.3974C123.942 21.3384 124.269 21.2427 124.258 21.2132C124.156 21.0733 123.727 21.0291 123.422 20.9333C122.779 20.7418 123.75 20.3072 123.851 20.0421C123.975 19.7474 123.242 19.7548 122.474 19.6885C121.086 19.5633 123.163 19.4528 123.479 19.4012C124.303 19.2687 122.677 19.1066 122.587 19.0845C121.921 18.9077 123.219 18.7236 123.501 18.5321C123.84 18.2964 123.58 18.0533 123.388 17.8618C123.276 17.744 122.542 17.0663 123.558 16.9706C123.727 16.7864 123.411 16.617 123.23 16.4771C122.598 15.932 122.576 15.2985 121.977 14.7461C121.774 14.5546 121.402 14.341 120.487 14.4368C120.995 14.3852 121.752 14.3484 122.056 14.1863C122.305 14.0537 121.831 14.039 121.91 13.9138C121.966 13.8401 122.023 13.7591 122.102 13.6781C122.418 13.3466 122.271 13.0741 122.214 12.7721C121.706 12.6911 121.673 12.1092 121.605 12.1092C120.555 12.1092 119.426 12.3154 118.32 12.286C118.026 12.2786 119.144 11.7556 120.103 11.8735C121.108 11.9987 121.458 11.7998 121.402 11.5126C121.379 11.3947 121.402 11.1737 120.995 11.1296C120.657 11.0927 120.431 11.159 120.555 10.9822C120.657 10.857 121.921 10.1868 122.497 10.2015C121.718 10.1794 121.695 10.091 121.627 9.84058C121.571 9.61961 121.469 9.4281 121.063 9.26605C120.961 9.22186 120.295 9.09664 120.408 9.05245C120.611 8.97143 121.221 8.83148 121.255 8.75046C121.323 8.58104 120.792 8.51475 120.758 8.36007L120.645 7.85184C121.447 7.53511 120.058 7.63087 119.562 7.66033C118.997 7.68979 118.896 7.57931 118.862 7.44672C120.013 7.32151 120.386 7.32151 120.408 6.99742C120.442 6.42289 120.239 5.8631 120.092 5.3033C120.092 5.26647 120.013 4.65512 119.562 4.79507C118.783 5.03814 118.749 4.69195 118.873 4.552C119.008 4.41205 119.505 4.43415 119.708 4.3163C119.866 4.22791 119.821 4.11742 119.81 4.04376C119.787 3.89645 119.957 3.43241 119.404 3.38085C118.896 3.32929 119.212 3.16724 118.952 3.01256C118.805 2.92418 118.004 2.89471 117.993 2.84315C117.981 2.79159 118.501 2.68111 118.647 2.60745C119.031 2.40121 119.099 2.1876 119.031 1.9961C118.918 1.70883 118.794 1.38474 118.523 1.11958C118.388 0.979628 118.015 0.964897 117.451 1.03119C116.175 0.847044 114.267 2.13604 117.033 1.67937C116.322 1.76039 116.638 2.4675 115.836 2.68847C115.261 2.85052 115.769 2.82106 116.006 2.92418C116.254 3.03466 116.175 3.18934 116.311 3.31456C116.977 3.91855 117.067 4.65512 117.033 5.3475C117.01 5.78207 115.983 6.85747 118.422 6.59967C118.546 6.58493 120.228 6.49655 119.708 6.6144C119.246 6.72488 118.704 6.86483 118.162 6.92376C117.925 6.95322 115.069 7.38043 115.137 7.39516C115.295 7.43199 115.52 7.3657 115.69 7.45409C115.859 7.54248 115.915 7.65296 115.938 7.76345C115.972 7.93286 116.028 8.19803 115.249 8.28642C116.706 8.12437 115.724 8.60314 116.898 8.54421C117.552 8.51475 118.918 8.49265 117.835 8.83148C117.327 8.98616 116.728 8.99352 116.311 9.19976C116.028 9.33971 116.085 9.47966 116.627 9.46493C117.214 9.4502 117.01 9.50912 117.044 9.6859C117.067 9.77429 116.694 9.75956 116.423 9.82585C115.407 10.0689 117.586 10.312 116.672 10.6655C116.706 10.8497 118.286 10.938 118.004 11.0191C117.857 11.0633 116.886 11.2474 117.01 11.2916C117.248 11.38 117.925 11.24 118.263 11.3284C118.241 11.3284 116.559 11.6967 116.525 11.7041C117.417 11.7262 118.038 11.8514 117.541 12.1976C117.315 12.3596 117.135 12.5364 117.225 12.6837C117.259 12.7353 117.676 12.8679 117.643 12.7205L117.71 13.0667C117.755 13.3024 117.755 13.1183 118.23 13.1846C118.568 13.2361 117.947 13.7002 117.902 13.8107C117.835 13.9654 117.631 14.2747 118.083 14.3557C118.467 14.422 119.584 14.2305 118.58 14.6135C117.857 14.7829 117.451 15.1807 118.636 14.9082C119.686 14.805 119.979 14.9892 119.347 15.2544C118.907 15.4459 118.094 15.5122 118.636 15.7479C118.704 15.7773 120.036 16.0351 119.821 16.0719C119.641 16.1014 118.884 15.9025 118.591 16.0572C118.331 16.1898 119.268 16.396 119.471 16.455C119.505 16.6244 119.596 16.8232 119.212 17.0074C118.85 17.1842 118.692 17.302 118.681 17.4862C118.67 17.685 118.771 17.8839 119.065 18.046C119.358 18.208 120.126 18.2301 119.483 18.4069C118.771 18.6058 118.636 18.8709 118.873 19.0698C119.042 19.2097 119.697 19.1066 120.16 19.0698C118.546 19.2171 119.099 19.7843 119.855 19.9021C120.273 19.961 120.318 20.1599 119.776 20.2778C119.426 20.3514 119.189 20.2188 118.873 20.3367C118.568 20.4472 119.099 20.5061 119.257 20.5577C119.618 20.6829 119.607 20.9186 119.133 21.088C118.173 21.169 119.573 21.3237 119.675 21.4121C119.945 21.6331 119.539 21.9571 120.092 22.1192C120.589 22.2591 120.521 22.5464 120.397 22.76C120.262 23.0104 119.81 23.445 120.521 23.5997C120.781 23.6586 119.957 23.8501 119.81 23.9459C119.562 24.1006 120.149 24.1079 120.171 24.27C120.194 24.4468 120.16 24.6456 120.318 24.8077C120.487 24.9918 121.086 24.8813 120.623 25.1391C120.183 25.3822 119.426 25.9273 121.187 25.7947C119.381 25.9273 120.137 27.0469 120.882 27.231C121.503 27.3857 118.749 27.8424 120.408 27.9676C121.142 28.0265 122.079 28.0118 121.255 28.2917C121.255 28.358 121.413 28.8073 121.515 28.7704C121.447 28.7925 121.018 28.6747 120.815 28.7999C120.657 28.903 120.77 29.0356 120.781 29.1314C120.792 29.3965 120.137 29.7353 120.307 29.9784C120.736 29.7132 122.305 29.4996 123.072 29.647C123.095 29.89 121.944 29.8237 121.571 29.8311C120.95 29.8458 121.481 30.1626 121.39 30.273C121.311 30.3762 120.341 30.634 120.623 30.6708C120.973 30.715 121.515 30.7076 121.334 30.877C121.063 31.1348 120.465 31.3337 120.476 31.5989C121.086 31.3853 121.086 32.5122 121.266 32.608C121.39 32.6743 122.35 32.4386 122.745 32.5417C123.264 32.6743 121.718 32.851 121.39 32.8731C121.752 32.851 122.451 32.8879 122.102 33.0352C121.785 33.1678 121.097 33.153 120.905 33.2783C120.781 33.3519 122.35 33.3445 122.203 33.5508C122.158 33.6097 120.86 34.0001 121.458 33.9559C121.808 33.9338 122.09 33.7791 122.384 33.9043C122.474 33.9485 122.497 34.0075 122.384 34.059C122.023 34.2063 120.916 34.1253 120.849 34.3094C120.803 34.4347 120.781 34.5967 120.939 34.7072C121.007 34.7514 121.436 34.7809 121.436 34.7809C121.458 35.0092 121.413 35.2449 121.571 35.4585C121.763 35.7163 122.282 35.7237 122.61 35.429C122.632 35.6353 122.711 35.8489 122.102 36.0404C121.616 36.1951 120.86 36.4455 121.402 36.6076C121.797 36.7254 122.068 36.718 122.169 36.9095C122.169 36.9832 122.09 37.1305 122.192 37.1968C122.339 37.1894 122.598 37.1673 122.689 37.2115C123.038 37.3736 122.722 37.6682 122.971 37.8524C123.219 38.0365 123.761 38.1765 123.072 38.3459C122.643 38.449 122.722 38.8762 123.151 38.9425C123.637 39.0161 123.975 38.6847 123.975 38.6184C123.975 38.7657 124.032 38.913 123.761 39.053C123.513 39.1856 123.095 39.2666 122.959 39.4139C122.745 39.657 123.535 39.7012 123.14 39.9369C122.982 40.0326 121.413 40.3493 122.508 40.3641C123.151 40.3714 124.269 40.3788 123.558 40.644C123.118 40.806 122.7 40.8207 122.485 41.027C122.418 41.0933 122.158 41.5794 122.587 41.5868C122.892 41.5868 124.224 41.3805 124.054 41.6604C123.93 41.8667 123.106 41.7488 122.689 41.8298C122.722 41.8298 123.75 41.9993 123.84 42.0214C124.325 42.1539 124.021 42.1908 123.614 42.2644C122.993 42.3823 122.531 42.861 122.801 43.0231C123.118 43.222 124.991 42.9642 125.014 43.0599C125.048 43.1999 124.438 43.2293 124.179 43.303C123.806 43.4135 123.625 43.5682 123.558 43.7081C123.456 43.8996 122.192 44.29 122.463 44.4299C122.598 44.4962 123.625 44.6141 123.264 44.6877C122.948 44.754 122.632 44.754 122.576 44.8866C122.451 45.196 124.156 45.3065 124.258 45.6011C124.359 45.9104 122.497 46.0578 122.474 46.2861C122.474 46.3671 123.321 46.2419 123.321 46.2124C123.321 46.3966 122.406 46.4334 122.474 46.5955C122.564 46.8017 122.869 46.9564 122.858 47.1774C122.858 47.0669 122.892 47.3247 123.174 47.4057C123.535 47.5088 123.366 47.5898 123.197 47.7003C122.869 47.9139 122.926 48.2012 123.23 48.4148C123.343 48.4958 124.54 48.7757 124.009 48.7831C122.982 48.7978 121.898 48.7831 122.926 49.1072C123.558 49.3134 125.082 49.5712 124.179 49.8437C123.693 49.9911 122.914 50.1015 122.711 50.3004C122.508 50.4919 123.038 50.5214 123.027 50.6687C123.016 50.7939 122.169 50.8897 122.147 51.0517C122.147 51.0812 122.689 51.1327 122.79 51.1622C123.603 51.4274 121.673 51.5673 121.661 51.7441C121.661 51.6483 124.19 51.6631 123.106 51.9945C122.497 52.1787 122.463 52.1124 122.429 52.3923C122.203 52.5175 122.068 52.5249 121.481 52.5101C123.016 52.5543 121.718 53.2393 123.129 53.2835C122.282 53.2614 122.395 53.7623 122.44 53.9023C122.485 54.0201 122.564 54.1453 122.768 54.2632C122.745 54.2632 123.671 54.4179 123.569 54.4326C123.151 54.4768 122.102 54.3737 121.627 54.3516C122.034 54.4768 122.214 54.6241 122.847 54.683C123.513 54.7493 124.382 54.823 124.325 55.0587C123.975 55.0366 122.632 54.8819 122.429 54.9408C122.09 55.0366 122.869 55.2354 123.151 55.287C123.129 55.3975 123.084 55.5153 122.847 55.6037C122.689 55.6627 122.068 55.7289 122.056 55.8173C122.023 55.972 123.355 56.0604 123.208 56.1562C123.174 56.1783 122.689 56.2298 122.598 56.274C122.451 56.3403 122.395 56.4213 122.361 56.5023C122.271 56.716 122.61 56.8854 122.643 57.0916C122.666 57.2684 121.977 57.2831 122.226 57.4452C122.395 57.5556 122.632 57.6146 123.027 57.6367C122.023 57.5777 121.56 57.5483 121.503 57.8429C121.56 57.8429 121.944 57.8724 122.056 57.8724C122.023 58.0491 121.481 58.6605 122.023 58.8078C122.079 58.8225 123.343 58.7563 123.197 58.8888C123.061 59.0141 122.384 59.1245 122.158 59.2498C121.605 59.5591 121.255 59.9421 121.357 60.3104C121.413 60.5093 121.966 60.6566 121.977 60.8555C121.977 61.1722 122.384 61.1722 123.242 61.3416C122.937 61.2827 120.928 61.6215 121.887 61.7615C122.474 61.8425 123.693 61.4005 124.325 61.4963C124.325 61.4963 123.151 61.8278 123.038 61.8499C122.44 61.9603 121.616 62.1298 120.781 62.0782C122.169 62.1666 121.447 62.5128 122.147 62.7558C122.09 63.021 121.932 63.0063 121.131 62.9253C120.431 62.8516 120.657 63.102 120.16 63.0726L122.61 63.2272C122.553 63.4777 120.578 63.4335 120.634 63.4703C120.973 63.6471 122.26 63.9785 121.492 64.1332C120.916 64.2511 119.697 64.8182 120.916 65.0245C121.458 65.1202 120.724 65.4591 121.3 65.6285C122.35 65.9452 120.442 65.8421 120.262 65.9894C120.058 66.1588 120.871 66.2987 120.792 66.4682C120.69 66.6744 120.386 66.6007 119.9 66.5345C119.325 66.4608 119.866 66.807 119.923 66.8291C120.284 66.969 120.002 66.9911 119.889 67.0574C119.539 67.271 122.869 67.2489 120.894 67.4183C119.833 67.5067 119.81 67.8161 120.566 68.0518C121.424 68.3243 121.627 68.4864 120.16 68.5379C119.302 68.5527 120.916 69.2303 119.991 69.2303C120.262 69.2377 120.657 69.2892 120.973 69.3703C121.526 69.4807 121.729 69.8638 120.679 69.5249C119.02 69.2745 120.25 69.7975 120.284 70.0332C120.307 70.1731 120.284 70.3573 119.979 70.4309C119.799 70.4751 119.55 70.4015 119.471 70.4972C119.37 70.6445 119.483 71.1601 120.205 71.2706C119.573 71.1749 118.963 71.0496 118.828 71.2559C118.749 71.3811 119.663 71.7346 118.975 71.6978C119.031 71.6978 119.133 71.8672 119.37 71.9114C119.72 71.9703 119.392 72.044 119.302 72.0735C118.794 72.2355 118.072 72.4712 119.765 72.7217C119.449 72.6775 118.139 72.4712 118.67 72.729C119.133 72.95 119.291 72.9353 119.212 73.1489C119.268 73.0236 118.094 72.8763 117.959 73.0384C117.846 73.171 117.902 73.333 118.015 73.4877C118.252 73.8265 118.489 73.8707 119.449 74.0327C119.347 74.2905 119.155 74.2022 118.444 74.1874C118.444 74.1874 118.681 74.2611 118.941 74.3347C119.2 74.4084 119.494 74.4894 119.618 74.5115C118.681 74.3716 117.959 74.3274 117.033 74.2685C117.485 74.4821 117.902 74.6662 118.444 74.8577C119.347 75.1892 118.817 75.4028 118.455 75.6164C118.263 75.7269 117.564 76.1246 118.455 76.2867C119.189 76.4192 119.968 76.5224 120.724 76.6328C120.645 76.8391 119.291 76.5666 118.805 76.4929C119.437 76.5886 118.309 76.7212 117.823 76.6476C117.428 76.5886 116.74 76.4708 116.672 76.6255L119.076 76.9864C117.767 76.7875 117.451 77.5683 117.36 77.7893C117.417 77.6346 118.105 77.7524 118.512 77.8114C118.309 78.0913 116.141 77.8997 117.135 78.3564C117.315 78.408 118.365 78.8352 117.62 78.7689C117.304 78.7394 116.209 78.3417 116.243 78.5627C116.277 78.8057 116.92 78.9825 116.57 79.2182C116.311 79.4024 115.836 79.5128 115.78 79.7412C115.724 80.0063 116.909 80.3746 117.033 80.0505C116.977 80.1979 116.977 80.3673 116.785 80.4851C116.593 80.603 116.164 80.603 115.848 80.6766C115.633 80.7429 115.836 80.7282 115.938 80.7871C116.04 80.8166 116.141 80.8534 116.277 80.8829C116.502 80.9418 116.807 81.0007 117.18 81.0817L117.135 81.067C116.807 80.9492 117.112 80.9712 117.485 81.0965C117.575 81.1259 117.654 81.1628 117.733 81.1996C117.902 81.288 117.97 81.3837 117.823 81.4058C117.631 81.4574 117.247 81.3174 116.909 81.1701C116.74 81.1038 116.559 81.0523 116.435 81.0154C116.311 80.9786 116.22 80.9639 116.175 81.0375C116.107 81.1554 116.175 81.8772 116.954 81.9067C117.575 81.9288 117.744 81.892 118.207 82.2087C118.489 82.4002 118.636 82.6212 118.151 82.6138C117.417 82.5991 115.599 81.7962 115.453 81.833C115.182 81.892 115.204 82.1056 115.385 82.2676C115.622 82.496 116.22 82.5401 116.48 82.7464C116.965 83.1441 114.775 82.4591 115.091 82.7832C115.385 83.0926 116.073 83.3651 116.841 83.5861C116.288 83.4314 115.611 83.1883 115.069 83.1368C114.459 83.0778 113.511 83.1073 113.726 83.3872C113.793 83.483 114.561 83.4756 114.775 83.6892C114.945 83.866 114.775 83.9986 114.595 84.0796C114.369 84.168 113.714 84.1017 113.669 84.2269C113.613 84.4258 114.708 84.7351 114.2 84.8088C113.94 84.8456 112.698 84.5142 113.105 84.8014C113.511 85.0887 114.674 85.398 114.482 85.6485L113.838 85.4643C113.534 85.4128 113.398 85.3538 113.421 85.2802C113.195 85.1844 113.545 85.8179 113.534 85.8768C113.488 86.0389 112.901 85.9505 112.98 86.1272C113.059 86.3188 113.319 86.4071 113.195 86.5692C113.071 86.7386 113.026 86.7902 112.642 86.8565C112.066 86.9522 113.093 87.35 112.958 87.5488C112.811 87.7551 111.603 87.4973 111.468 87.6888C111.355 87.8435 112.168 88.1749 112.269 88.3738C112.416 88.6684 110.723 88.116 110.316 88.0055C110.689 88.2559 111.016 88.4916 111.513 88.7347C112.676 89.3092 111.49 88.9851 110.632 88.7347C111.829 89.2061 110.824 89.0588 111.694 89.4418C111.186 89.3682 110.599 89.265 110.395 89.3829C110.994 89.6407 110.757 89.6481 110.655 89.7806C110.52 89.9648 111.163 90.392 110.994 90.5467C110.949 90.5909 108.567 89.9353 109.3 90.4067C109.571 90.5835 111.558 91.2317 110.723 91.1507C110.204 91.0991 109.865 90.9518 110.237 91.3422C110.215 91.3274 110.87 91.7915 110.768 91.7694C110.249 91.6221 109.458 90.9223 109.12 90.8634C109.018 90.8413 109.334 91.1507 109.357 91.1654C109.56 91.3864 109.458 91.3937 109.334 91.4969C109.436 91.4158 109.029 91.2759 108.77 91.1359C109.21 91.3569 108.668 91.3201 108.68 91.4379C108.792 91.4969 109.007 91.5926 109.029 91.6663C109.12 91.8946 108.894 92.0787 108.386 91.8209C107.652 91.4527 107.189 91.7105 107.855 92.064C107.855 92.2187 107.167 92.2261 107.855 92.6091C107.054 92.5796 104.92 92.2113 106.106 93.2646C103.498 91.6147 106.591 94.1706 105.948 93.9938C105.417 93.8392 104.424 93.2867 104.74 93.8318C104.83 93.9717 105.846 95.084 105.936 95.1208C105.304 94.863 104.875 94.3253 104.627 94.6862C104.48 94.8925 105.372 95.2239 105.09 95.3859C104.74 95.1429 103.938 94.5021 103.555 94.4063C103.25 94.3253 103.058 94.5684 103.453 94.8556C103.792 95.0913 103.329 95.4375 103.261 95.4964C103.126 95.5996 102.776 95.931 102.245 95.629C101.557 95.2386 101.015 95.0619 101.094 95.5185C101.128 95.7395 101.545 96.071 101.41 96.233C101.286 96.373 100.924 96.3435 100.642 96.3214C100.574 96.3214 99.4795 96.3729 99.7617 96.5497C100.811 97.1979 99.5245 97.0285 99.2536 97.1022C99.0392 97.1611 98.8247 97.2347 98.7006 97.3747C98.565 97.522 98.6441 97.5294 98.8247 97.6472C99.0392 97.7945 98.4522 97.743 98.4296 97.7577C98.3054 97.8166 98.1925 97.8903 98.1361 98.0081C98.0684 98.1334 98.0458 98.7373 97.6055 98.3101C97.0976 97.8166 96.6798 97.905 96.5782 98.1186C96.4767 98.3322 97.1427 98.6932 96.8379 98.8036C96.5332 98.4722 96.3186 98.1555 96.0929 98.2365C95.7203 98.3691 97.6055 99.5108 97.9781 99.5402L98.0119 99.5549ZM83.4611 100.756C83.7998 101.212 83.9352 101.102 83.8223 100.373H83.6191L83.4611 100.756ZM79.0021 103.466C79.3295 103.555 79.6794 103.496 79.9956 103.4C80.3567 103.297 80.4697 103.216 80.6276 102.781C80.8082 102.28 81.2711 102.943 81.2146 102.023C81.2711 102.892 82.1741 102.921 82.558 103.046C82.7047 103.091 82.9869 103.164 83.1223 103.326C83.1676 103.695 83.4385 104.048 83.6755 104.041L83.5852 103.312C83.9352 103.297 84.0593 103.871 84.398 103.68C84.669 103.533 84.9624 103.231 85.0415 102.803C85.0753 102.612 84.985 102.501 85.1431 102.516C85.3124 102.531 85.4817 102.575 85.651 102.7C85.9784 102.951 86.4186 103.326 86.6218 102.965C86.8364 102.619 87.2089 102.354 87.5927 102.472C87.7619 102.523 88.1457 103.319 88.27 103.091C88.5183 102.575 87.6378 101.934 88.2473 101.868C88.7892 101.809 88.4957 103.326 89.1505 103.245C89.5117 103.201 89.0489 102.678 89.2295 102.509C89.5004 102.236 90.0874 102.369 90.4712 102.398C91.3291 102.442 92.6386 102.862 93.3385 102.442C93.5642 102.317 93.4175 102 93.4626 101.721C93.5529 101.08 93.7223 101.861 93.9367 102.015C94.2529 102.229 94.6027 101.765 94.5915 101.514C94.3545 100.711 94.5689 101.036 95.1108 101.544C95.1898 101.61 94.5915 100.203 94.5012 100.211C94.6592 100.196 95.1446 100.874 95.2914 101.006C95.6526 101.338 95.7768 100.947 95.8332 100.792C95.9575 100.675 96.4316 99.9453 96.8266 100.711C97.312 101.647 97.3571 100.373 97.4701 100.255C97.7862 99.9527 99.2649 101.721 99.1069 100.94C98.4747 100.277 96.996 99.5476 96.3976 99.2161C96.33 99.1867 95.2914 98.5974 95.5284 98.8773C95.5849 99.1646 95.5397 99.2235 95.2349 99.1277C94.8511 99.0025 94.2642 98.7153 94.2302 99.0909C94.1964 99.415 94.3883 99.717 93.8691 99.3561C93.5416 99.4371 93.5304 100.572 92.8418 99.4445C93.3723 100.321 92.2548 99.8717 92.0742 100.041C91.8484 100.233 92.2774 100.513 92.2096 100.837C92.1532 101.117 91.6677 100.476 91.5661 100.269C91.0357 99.2161 91.0357 100.166 90.7534 100.292C90.6293 100.35 89.4665 100.255 89.4892 100.107C89.4665 100.277 89.6811 100.071 89.6584 100.439C89.6584 100.63 89.4552 100.623 89.3424 100.638C89.173 100.66 88.8908 100.741 88.6876 100.505C88.4844 100.277 88.4054 99.9822 88.2248 100.24C88.0894 100.424 88.2248 100.903 88.1232 101.043C87.9313 101.286 87.3668 100.741 87.1186 100.608C86.8137 100.446 86.5089 100.38 86.2493 100.432C85.9784 100.468 85.73 100.623 85.5269 100.874C85.4366 100.991 85.3124 101.595 85.1769 101.603C85.2107 101.603 85.1994 100.925 85.1431 100.792C85.0302 100.557 84.5561 100.704 84.4431 100.77C84.2625 100.888 84.4431 101.249 84.1948 101.323C84.0029 101.382 83.7884 101.338 83.5852 101.234C83.0095 100.962 82.9304 100.292 82.4225 100.792C82.2306 101.205 81.9822 101.168 81.6662 101.175C81.5308 101.175 81.5308 101.912 81.226 101.912C81.192 101.662 81.3389 100.807 81.034 101.036C80.8308 101.183 80.7292 101.647 80.5713 101.912C80.9438 101.234 80.0181 101.573 79.8487 101.5C79.544 101.367 79.8149 100.815 79.4537 100.807C79.115 100.8 79.1037 102.627 79.5778 102.634H79.2618C78.9456 102.619 78.5618 103.348 79.0134 103.474L79.0021 103.466ZM60.3761 102.892C60.5342 103.393 60.7261 103.312 60.918 102.597L60.6921 102.568L60.3648 102.899L60.3761 102.892ZM34.0852 97.2347C34.0852 98.126 34.8303 97.0432 34.4916 96.9548L34.0852 97.2347ZM75.9317 102.148C76.259 102.163 76.1687 102.892 75.8864 102.877C75.751 102.627 75.5591 102.207 75.9317 102.148ZM67.5556 102.634C67.6345 102.236 67.928 101.971 68.0636 102.317C68.2555 102.789 68.1313 103.893 67.6458 103.385C67.5669 103.186 67.4991 102.914 67.5556 102.641V102.634ZM54.5626 100.837L54.1674 101.905C54.0997 101.573 54.1674 100.77 54.5626 100.837ZM47.9022 99.5181C48.2184 99.5844 47.8572 100.277 47.5749 100.218C47.5411 99.9527 47.5072 99.5181 47.9022 99.5181ZM45.3172 98.5532C45.6334 98.6269 45.2382 99.3119 44.9674 99.2456C44.4706 99.1277 44.798 98.428 45.3172 98.5532ZM8.78764 84.8383C8.60714 84.7057 5.41245 86.4808 5.55913 86.8196C5.60435 86.9375 5.90911 87.3352 6.24783 87.1953C6.95893 86.9006 7.51209 86.5324 7.41051 87.0995C7.51209 87.4604 7.70399 87.8214 8.16683 87.9539C8.46032 88.0423 9.46506 87.5415 9.52142 87.7256C9.61173 88.0276 8.53936 88.8526 8.74254 89.184C8.85539 89.3682 9.46506 88.7052 9.67951 88.5653C9.84886 88.6611 8.97953 89.4492 9.46506 89.3313C9.60047 89.3019 11.5082 87.8877 11.1922 88.5211C11.0454 88.8084 10.4584 89.0883 10.4697 89.4197C10.4697 89.5523 10.6503 89.6628 10.8309 89.6628C11.305 89.6554 11.7566 88.7936 12.2645 89.0735C11.8469 89.3903 11.542 89.7144 11.4066 90.0311C11.4066 90.2962 11.4857 90.7161 12.1742 90.1195C11.2712 90.8929 11.7679 90.8781 12.4903 90.5909C11.8469 91.158 13.7094 91.2096 13.8562 91.2685C13.2918 90.996 14.1948 90.2594 14.4884 90.7677C14.6916 91.1065 15.0189 91.3569 15.3915 91.5484C16.0687 90.8708 15.2221 90.3036 15.0527 90.0384C15.3464 90.1784 15.6624 90.2889 15.9221 90.4657C16.0913 90.5835 16.3284 90.7897 16.0688 91.1875C15.8318 91.5558 15.414 91.6589 15.448 91.9977C15.5269 92.6827 16.4978 91.8946 17.017 92.0567C17.4798 92.1966 17.4233 92.6754 17.2879 93.2646C17.6605 92.8595 18.4733 92.4544 18.8344 92.3586C19.3988 92.2113 18.6312 92.8374 18.7328 92.8816C18.9473 92.97 19.3538 92.447 19.5344 92.2408C19.3425 92.4618 18.5974 93.0805 18.5974 93.2573C18.5974 93.5372 19.1279 93.5814 19.365 93.6182C19.636 93.6624 20.1214 93.7287 20.5502 93.4267C20.8325 93.2352 20.9567 93.1026 21.1259 93.2352C21.2163 93.3162 21.2389 93.4709 21.1259 93.6845C20.968 93.9644 21.0809 93.8981 21.2502 93.957C21.4872 94.0454 21.9726 93.7802 22.3 93.7729C22.6161 93.7729 22.8983 93.8318 23.0902 93.9717C23.2143 94.0675 23.1354 94.5315 23.237 94.5684C23.2934 94.5905 23.395 94.3106 23.4627 94.34L23.6659 94.4137L24.6367 94.7525C24.9641 94.863 25.506 95.2976 26.059 94.5389C25.6527 95.1061 26.3074 95.3712 26.5784 95.4596C26.9622 95.5775 27.3122 95.1576 27.6282 95.3344C27.7636 95.408 27.346 95.8279 27.4025 96.012C27.4588 96.1888 27.662 96.2256 27.8426 96.2404C28.0685 96.2625 28.3393 96.2551 28.6329 96.1225C28.8134 96.0415 28.9715 95.7174 29.0956 95.5259C28.5426 96.3582 29.4456 95.8574 29.6488 95.9605C29.9085 96.0783 28.7006 97.3084 29.2425 97.2126C29.9085 97.1022 30.36 96.0047 30.8905 95.5038C31.3195 95.0913 30.9696 96.4319 30.9132 96.4908C31.1727 96.2404 31.1953 96.0489 31.4775 96.1004C31.5453 96.1151 31.7146 96.233 31.8388 96.152C31.9856 96.0562 32.0533 95.7984 32.2113 95.6806C32.4032 95.5333 32.5613 95.6143 32.6741 95.6437C32.3919 96.0636 32.2678 96.3361 32.6516 96.2772C33.1708 96.1962 33.3514 96.0268 32.9676 96.7486C32.8322 96.9917 33.374 97.139 33.5433 96.9622C33.7805 96.7265 33.6789 96.5645 33.9611 96.5497C34.2771 96.535 34.5593 96.6528 34.7738 96.8075C34.9996 96.9769 34.8415 97.3231 34.9657 97.5809C35.0785 97.8166 35.4285 97.9492 35.7898 97.6914C36.2864 97.3452 36.4558 98.2438 36.3768 98.2954C36.975 97.8682 36.6702 97.1022 36.8283 96.837C36.8621 96.7707 37.2459 96.8075 37.1331 97.0359C36.9299 97.4336 37.404 97.36 37.6637 97.2568C38.2281 97.0506 37.6975 97.6472 37.675 98.126C37.6637 98.4427 37.991 97.964 38.0813 97.905C38.2845 97.5441 38.5554 97.6398 38.7135 97.6767C39.1311 97.7724 39.0634 98.0229 39.7294 97.5441C39.7746 97.5294 40.181 97.3231 40.1922 97.4189C40.1922 97.6325 39.244 98.347 39.5714 98.6269C39.8875 98.8994 40.4294 98.9068 40.847 99.0099C40.8019 98.9952 40.4745 98.9362 40.6551 98.6416C40.7567 98.4869 41.3098 98.8184 41.513 98.4427C41.4114 98.6269 41.163 97.9934 41.3211 97.9566C41.7049 97.8756 42.5177 97.2568 42.0436 98.1334C41.8517 98.347 41.5355 98.649 41.7274 98.7889C42.0097 98.9878 42.4952 99.1498 42.9128 99.0909C43.2401 99.0467 43.2966 98.3912 43.4885 98.1039C43.6691 98.1481 44.1433 98.6711 44.0868 98.9878C44.0417 99.2824 43.4207 99.2603 43.3531 99.2456C43.6014 99.3045 44.2223 99.2603 44.2561 99.6507C44.2787 99.9527 43.9061 100.557 43.7369 100.888C44.211 100.35 44.6174 99.8201 45.1253 99.4003C45.385 99.1867 45.5656 99.4076 45.814 99.3192C45.9381 99.275 46.367 98.7373 46.3332 99.1204C46.2994 99.577 45.6672 100.019 45.5656 100.505C45.4753 100.918 45.9945 100.623 46.1864 100.505C46.4235 100.343 46.5251 100.137 46.7621 100.115C47.0105 100.093 47.2476 100.144 47.4621 100.196C47.9926 100.306 48.6473 100.682 49.3246 100.373C49.4827 100.299 49.6859 99.9159 49.7649 100.093C49.8778 100.321 49.7536 100.719 49.8778 100.947C50.1487 101.419 50.8034 101.632 51.4017 101.345C51.526 101.286 51.8985 100.829 51.9323 100.881C52.0564 101.058 51.6049 101.721 51.8985 101.779C51.8985 101.779 52.2145 101.205 52.4515 101.22C52.6096 101.234 52.7902 101.301 52.9483 100.984C53.2756 100.321 53.3434 100.365 53.8175 99.9453C53.8401 100.107 53.682 101.286 53.6029 101.198C53.5353 101.124 53.4337 100.851 53.174 101.124C53.0047 101.308 53.0612 101.404 53.1402 101.477C53.2982 101.625 54.0885 101.153 54.0545 101.721C54.0207 102.155 55.3302 101.721 55.68 101.787C55.8833 101.19 55.6575 101.198 55.8381 100.682C56.0752 100.726 56.0752 101.404 56.2106 101.36C56.459 101.279 56.8089 100.741 57.046 100.505C56.9782 100.955 57.4976 103.348 57.8814 102.148C57.7571 102.045 57.6555 102.221 57.5765 102.258C57.4298 102.317 57.8587 101.559 57.9265 101.47C58.0958 101.286 58.299 101.242 58.4344 101.315C58.7844 101.507 58.0733 102.347 58.4684 102.575C58.649 102.678 58.9538 102.752 59.1795 102.678C59.473 102.582 59.4391 102.059 59.8004 102.074C60.0487 102.081 60.2067 102.052 60.0826 102.479C60.0261 102.575 59.8117 102.848 59.8004 102.98C59.7891 103.186 61.2566 101.669 61.2678 102.229C61.2791 102.663 61.0647 103.091 61.4597 103.201C61.5501 103.223 62.0016 103.179 62.1145 103.105C62.0242 103.164 61.5162 101.986 61.8662 102.126C62.1484 102.236 62.3854 102.428 62.6902 102.464L63.1756 102.523C63.2659 102.604 63.3224 102.56 63.3675 102.398C63.5143 102.332 63.0627 103.201 63.0515 103.304C63.0176 103.672 63.424 103.297 63.503 103.186C63.6272 103.032 63.9094 102.575 64.0449 102.803C64.169 103.01 63.9546 103.363 63.9771 103.606C63.9546 103.245 64.7335 102.744 64.9141 102.685C65.0947 102.627 65.3205 102.575 65.4671 102.708C65.5914 102.825 65.4671 103.039 65.6139 103.142C65.7381 103.231 66.3138 103.429 66.4041 103.061C66.4831 102.73 66.5622 102.582 66.7879 102.582C66.7879 102.582 67.1266 102.568 67.1153 102.656C67.0928 102.796 66.3138 103.569 66.6976 103.768C67.0138 103.938 67.296 103.179 67.5782 103.525C67.9055 103.923 68.2329 103.547 68.5941 103.275C68.8763 103.061 68.7974 103.201 68.9215 103.304C69.0118 103.385 69.2488 103.179 69.3618 103.186C69.531 102.84 70.0278 102.339 70.0504 103.002C70.0504 103.157 70.0504 104.527 70.3777 103.827C70.5357 103.488 70.547 103.238 70.8405 103.319C70.9986 103.363 70.8405 103.731 70.897 103.901C70.9646 104.092 71.168 104.078 71.2921 104.085L71.3937 103.356C71.2921 103.26 71.134 103.105 71.1227 102.892C71.0889 102.516 71.6307 102.634 71.7097 102.641C72.0822 102.671 71.8452 103.068 72.1387 103.348C72.1951 103.4 72.6467 103.812 72.7032 103.695C72.8611 103.407 72.737 103.127 73.0757 103.113C73.2336 103.113 73.403 103.238 73.4933 103.024C73.7078 102.538 74.7238 102.825 74.9947 102.87C75.2656 102.921 75.1979 103.061 75.2769 103.393C75.3447 103.702 75.7623 103.628 75.9204 103.636C76.1236 103.812 76.4734 103.93 76.5977 103.474C76.6767 103.194 76.8121 103.304 77.0153 103.312C77.1394 103.312 77.1734 103.054 77.3427 103.002C77.625 102.921 77.7942 103.098 78.0651 103.127C78.3699 103.15 79.0699 101.676 78.8215 101.404C78.844 101.426 78.5392 101.514 78.4942 101.507C78.3248 101.463 78.1554 101.367 78.0426 101.161C77.6813 100.874 77.2975 100.697 76.8912 100.763C76.609 100.815 76.8459 101.676 76.4621 101.802C76.2026 101.89 76.0333 101.706 75.8639 101.433C75.8864 101.109 75.8639 101.065 75.672 101.058C75.3447 101.043 75.5139 101.08 75.3898 101.544C75.3333 101.743 75.085 101.883 74.9947 101.706C74.8028 101.315 75.2544 100.682 74.7688 100.645C74.5996 100.63 74.1593 100.962 74.1255 101.338C74.0352 101.396 73.8884 101.315 73.7755 101.338C73.6514 101.374 72.6579 101.934 72.6016 101.831C72.466 101.536 73.1773 100.896 73.1998 100.682C73.1773 100.955 71.9806 101.139 71.8226 101.33C71.5743 101.617 71.4388 101.492 71.2695 101.131C71.0211 100.572 70.976 101.109 70.7727 101.087C70.5357 101.065 70.468 101.102 70.3438 100.837C70.2986 100.741 70.2423 100.704 70.1519 100.726C69.9826 100.778 69.802 101.139 69.9035 101.374C69.9375 101.61 69.9035 102.059 69.6778 101.875C69.4747 101.706 69.5085 101.264 69.3053 101.102C69.1021 100.932 68.8086 101.109 68.5828 101.257C68.4136 101.242 68.2442 101.212 68.1199 101.058C68.1087 100.91 68.0636 100.837 67.9845 100.829C67.7023 100.8 67.7136 101.139 67.4314 101.139C67.2395 101.139 67.1492 100.955 66.9798 100.888C66.5734 100.734 66.0203 100.785 65.5689 101.175C65.2527 101.448 65.1736 101.5 65.3092 100.91C65.5914 100.586 65.3092 100.542 65.1511 100.52C64.9254 100.483 64.6544 100.402 64.3948 100.542C64.2029 100.645 63.9884 100.955 63.774 100.726C63.9206 100.144 63.2772 100.225 63.0515 100.299C62.8257 100.373 62.3177 101.205 62.2839 100.984C62.2048 100.439 62.1935 100.233 61.821 100.122C61.2678 99.9601 60.6696 99.8864 60.0601 99.938C59.8342 99.9527 59.6085 99.9895 59.3826 100.056C59.236 100.093 59.0666 100.35 58.9538 100.328C58.7957 100.306 58.8069 99.7759 58.728 99.6139C58.6263 99.4003 58.4571 99.253 58.2765 99.1719C58.0281 99.0688 57.7684 99.113 57.5992 99.6139C57.7346 99.2308 56.9217 99.7833 56.7638 99.8348C56.6735 99.8643 56.5494 99.2235 56.4251 99.1204C56.2445 98.973 55.9735 98.8626 55.7027 98.9583C55.4543 99.0393 55.3753 99.5328 55.2737 99.8201C55.1721 99.8054 54.9237 99.8201 54.8448 99.7465C54.9011 99.636 54.9237 99.5328 54.9351 99.4297C54.9124 99.3192 54.6867 99.3413 54.6077 99.3266C54.5286 99.3119 54.6077 99.0099 54.4948 98.9215C54.3819 98.8257 54.2351 98.811 54.0772 98.8184C53.6031 98.8257 53.2982 99.1498 52.8015 99.4297C52.1693 99.7833 52.4742 99.3708 52.6999 98.8184C52.5645 99.1425 52.4177 98.8036 52.192 99.032C52.1468 99.0762 51.9661 99.496 51.9323 99.4886C51.7404 99.4518 52.0001 98.9289 51.8307 98.8994C51.6049 98.8552 51.2663 99.2824 51.0066 99.3561C50.5777 99.4739 50.9503 99.1277 51.1534 98.9878C51.4582 98.7742 51.6726 98.1334 51.3228 98.207C50.9841 98.2807 50.4987 98.6048 50.2616 99.1277C50.826 97.8314 48.3651 98.7226 48.7941 97.7945C48.7151 97.1169 48.0152 97.8387 47.5862 97.8461C47.2589 97.8535 46.9654 97.7651 46.6605 97.7061C46.2542 97.6325 45.7123 97.8756 45.3398 97.7798C45.0463 97.7061 45.1479 97.3305 44.7641 97.2568C44.6174 97.2274 44.3917 97.1684 44.1883 97.3452C44.0868 97.4336 43.9852 97.7282 43.861 97.6841C43.5901 97.5809 43.9288 96.8812 44.098 96.5497C43.7369 97.2421 41.4679 96.3288 41.1517 96.2035C40.8357 96.0783 40.5987 95.6806 40.2713 95.6364C39.944 95.5922 39.5375 95.6732 39.1424 95.8205C39.007 95.8721 38.1942 96.5718 38.3635 96.616C38.1264 96.5571 38.8829 95.5627 38.3185 95.7911C38.2507 95.8205 37.5959 96.2256 37.5959 96.071C37.5959 95.9826 38.3748 95.2534 38.1151 95.2755C37.7991 95.2976 37.1444 95.4596 36.8283 96.0047C36.6139 96.0341 36.7718 95.386 36.8283 95.2092C36.7945 95.165 36.5461 94.5905 36.4445 94.6788C36.1961 94.9145 35.9252 95.4596 35.6092 95.4301C35.3722 95.4154 35.3607 95.1355 35.0673 95.165C34.785 95.1944 34.6271 95.3859 34.39 95.3197C34.0965 95.2386 34.2771 94.7967 34.0174 94.6347C33.8368 94.5242 33.4417 94.5168 33.1595 94.9735C33.1595 94.8704 33.0805 94.1264 33.0014 94.3032C32.8998 94.5168 32.7983 95.1944 32.4822 95.0324C32.3241 94.9514 32.3919 94.6862 32.2903 94.5463C32.0984 94.259 31.534 94.038 31.0486 94.5094C31.3308 94.2443 31.1051 93.5814 30.9808 93.5224C30.6874 93.9644 30.597 93.8023 30.3713 93.736C30.1116 93.655 30.2585 93.6476 29.9875 93.9054C29.6037 94.2664 29.4118 93.4856 29.2425 93.3972C29.1183 93.3383 28.9264 93.5814 28.7118 93.574C28.4183 93.574 28.1926 93.4488 27.9442 93.3751C27.4701 93.2278 27.1541 93.2425 26.409 93.8907C26.6461 93.6771 27.075 93.3825 27.2331 93.0878C27.425 92.7417 26.8944 93.0289 26.759 93.1247C25.9914 93.6624 25.9462 93.3898 26.2623 92.6459C26.4881 92.1229 24.727 93.736 25.3479 92.9111C25.7543 92.366 24.9641 92.1377 24.3997 92.8521C24.6367 92.5428 24.6367 92.3513 24.6141 92.1377C24.6141 92.0272 24.3771 92.1598 24.2416 92.1082C24.0272 92.0346 24.0949 91.7915 23.9143 91.681C23.7337 91.5705 23.3837 91.7915 23.2143 91.7252C22.9999 91.6442 22.808 91.5337 22.6613 91.3937C22.4355 91.1728 22.3678 90.9002 21.9613 90.8781C21.7582 90.8708 21.1937 91.2685 21.1259 91.2391C21.0244 91.2022 21.4308 90.6351 21.4196 90.4804C21.3969 90.2668 20.9228 90.6424 20.7196 90.8045C20.5277 90.9592 19.7601 91.7841 19.8391 91.3569C19.9182 91.0034 20.2004 90.5835 20.0875 90.3257C19.952 89.9869 18.6877 91.1138 18.9812 90.3773C19.1619 89.928 18.3152 89.8617 18.033 89.8248C17.7508 89.788 17.3895 89.8543 17.2767 89.6481C17.2428 89.5965 17.3105 88.8673 17.2201 88.9704C17.0509 89.1693 17.0283 89.405 16.701 89.5081C16.5203 89.5597 16.3849 89.5155 16.2946 89.4639C16.114 89.3534 15.9446 89.0514 16.3849 88.639C15.0189 89.9059 16.2494 88.3075 15.8543 88.2854C15.493 88.2707 14.8158 88.8452 14.4319 88.7642C14.3191 88.7421 14.432 88.337 14.3867 88.2338C14.2288 87.7919 13.6869 88.4843 13.4499 88.0792C13.3144 87.814 13.2353 87.6225 12.8967 87.5046C12.7952 87.4678 12.242 87.5709 12.2195 87.5562C11.8582 87.2542 12.6709 86.0389 11.7679 86.1641C11.3163 86.223 11.2825 86.4955 11.0341 86.3409C11.1469 86.1641 11.2034 85.9947 11.1357 85.8989C11.1019 85.8547 10.8309 86.0536 10.6841 86.0536C9.73586 86.0241 10.3906 84.411 8.85539 84.853C9.40856 84.7057 8.71999 84.7499 8.85539 84.853L8.78764 84.8383Z" fill="#959EC6"/>
</g>
</g>
<defs>
<clipPath id="clip0_1485_77957">
<rect width="104" height="127.843" fill="white" transform="matrix(0 1 -1 0 128.546 0.375275)"/>
</clipPath>
</defs>
</svg>
