<?xml version="1.0" encoding="utf-8"?>
<!-- Generator: Adobe Illustrator 21.1.0, SVG Export Plug-In . SVG Version: 6.00 Build 0)  -->
<svg version="1.1" id="Capa_1" xmlns="http://www.w3.org/2000/svg" xmlns:xlink="http://www.w3.org/1999/xlink" x="0px" y="0px"
	 viewBox="0 0 60 60" style="enable-background:new 0 0 60 60;" xml:space="preserve">
<style type="text/css">
	.st0{opacity:0.8;}
</style>
<g class="st0">
	<g>
		<path d="M30,0C13.4,0,0,13.4,0,30s13.4,30,30,30s30-13.4,30-30C60,13.4,46.6,0,30,0z M42.6,31c-0.2,0.4-0.5,0.8-1,1v0l-17.1,8.6
			c-1.1,0.5-2.3,0.1-2.9-1c-0.2-0.3-0.2-0.6-0.2-1V21.4c0-1.2,1-2.1,2.1-2.1c0.3,0,0.7,0.1,1,0.2l17.1,8.6
			C42.7,28.6,43.2,29.9,42.6,31z"/>
	</g>
</g>
</svg>
