<svg xmlns="http://www.w3.org/2000/svg" width="19" height="25" viewBox="0 0 19 25"><g><g><path fill="#fff" d="M18.872 9.371c0 6.924-8.647 15.154-9.015 15.5a.522.522 0 0 1-.714 0c-.368-.346-9.015-8.576-9.015-15.5C.128 4.196 4.332-.014 9.5-.014s9.372 4.21 9.372 9.385zm-1.041 0c0-4.6-3.738-8.342-8.331-8.342-4.594 0-8.331 3.742-8.331 8.342 0 5.711 6.695 12.755 8.33 14.392 1.637-1.637 8.332-8.68 8.332-14.392zm-3.124 0A5.217 5.217 0 0 1 9.5 14.585a5.217 5.217 0 0 1-5.207-5.214A5.217 5.217 0 0 1 9.5 4.157c2.87 0 5.207 2.34 5.207 5.214zm-1.042 0c0-2.3-1.868-4.17-4.165-4.17a4.173 4.173 0 0 0-4.166 4.17c0 2.3 1.869 4.171 4.166 4.171a4.173 4.173 0 0 0 4.165-4.17z"/></g></g></svg>