<?xml version="1.0" encoding="utf-8"?>
<!-- Generator: Adobe Illustrator 21.1.0, SVG Export Plug-In . SVG Version: 6.00 Build 0)  -->
<svg version="1.1" id="Capa_1" xmlns="http://www.w3.org/2000/svg" xmlns:xlink="http://www.w3.org/1999/xlink" x="0px" y="0px"
	 viewBox="0 0 18 18" style="enable-background:new 0 0 18 18;" xml:space="preserve">
<style type="text/css">
	.st0{fill:#C19356;}
</style>
<g>
	<g>
		<path class="st0" d="M9,0C4,0,0,4,0,9s4,9,9,9s9-4,9-9C18,4,14,0,9,0z M12.8,9.3c-0.1,0.1-0.2,0.2-0.3,0.3v0l-5.1,2.6
			c-0.3,0.2-0.7,0-0.9-0.3c0-0.1-0.1-0.2-0.1-0.3V6.4c0-0.4,0.3-0.6,0.6-0.6c0.1,0,0.2,0,0.3,0.1l5.1,2.6C12.8,8.6,12.9,9,12.8,9.3z
			"/>
	</g>
</g>
</svg>
