<svg width="273" height="24" viewBox="0 0 273 24" fill="none" xmlns="http://www.w3.org/2000/svg">
<path d="M0 23.5385L6.27792 0.461538H13.1117L19.3896 23.5385H15.3351L13.9618 18.2637H5.42778L4.05449 23.5385H0ZM6.34331 14.6374H13.0463L9.97273 2.93407H9.41688L6.34331 14.6374Z" fill="white"/>
<path d="M30.6695 24C27.8793 24 25.6559 23.2088 23.9992 21.6264C22.3425 20.022 21.5142 17.7253 21.5142 14.7363V9.26374C21.5142 6.27473 22.3425 3.98901 23.9992 2.40659C25.6559 0.802198 27.8793 0 30.6695 0C33.4597 0 35.6068 0.769231 37.1109 2.30769C38.6368 3.84615 39.3997 5.95604 39.3997 8.63736V8.83517H35.5414V8.53846C35.5414 7.08791 35.1381 5.9011 34.3316 4.97802C33.5469 4.03297 32.3261 3.56044 30.6695 3.56044C29.0564 3.56044 27.7812 4.06594 26.8439 5.07692C25.9283 6.06593 25.4706 7.43956 25.4706 9.1978V14.8022C25.4706 16.5385 25.9283 17.9121 26.8439 18.9231C27.7812 19.9341 29.0564 20.4396 30.6695 20.4396C32.3261 20.4396 33.5469 19.978 34.3316 19.0549C35.1381 18.1099 35.5414 16.9121 35.5414 15.4615V14.9011H39.3997V15.3626C39.3997 18.044 38.6368 20.1538 37.1109 21.6923C35.6068 23.2308 33.4597 24 30.6695 24Z" fill="white"/>
<path d="M47.9968 23.5385V4.05495H41.1631V0.461538H58.7543V4.05495H51.9205V23.5385H47.9968Z" fill="white"/>
<path d="M61.8243 23.5385V0.461538H65.7807V23.5385H61.8243Z" fill="white"/>
<path d="M74.7656 23.5385L68.6839 0.461538H72.7384L77.9046 21H78.3623L83.5612 0.461538H87.6157L81.5013 23.5385H74.7656Z" fill="white"/>
<path d="M90.6837 24C89.8553 24 89.1578 23.7253 88.591 23.1758C88.0461 22.6264 87.7736 21.9231 87.7736 21.0659C87.7736 20.2308 88.0461 19.5385 88.591 18.989C89.1578 18.4396 89.8553 18.1648 90.6837 18.1648C91.512 18.1648 92.1987 18.4396 92.7436 18.989C93.2886 19.5385 93.5611 20.2418 93.5611 21.0989C93.5611 21.956 93.2886 22.6593 92.7436 23.2088C92.1987 23.7363 91.512 24 90.6837 24Z" fill="white"/>
<path d="M97.6191 23.5385V0.461538H111.875V4.05495H101.576V10.1538H111.058V13.7802H101.576V23.5385H97.6191Z" fill="white"/>
<path d="M122.74 24C121.127 24 119.677 23.6703 118.391 23.011C117.127 22.3297 116.124 21.3736 115.383 20.1429C114.663 18.8901 114.304 17.3956 114.304 15.6593V15.1319C114.304 13.3956 114.663 11.9011 115.383 10.6484C116.124 9.39561 117.127 8.43956 118.391 7.78022C119.677 7.12088 121.127 6.79121 122.74 6.79121C124.353 6.79121 125.791 7.12088 127.056 7.78022C128.32 8.43956 129.312 9.39561 130.031 10.6484C130.772 11.9011 131.143 13.3956 131.143 15.1319V15.6593C131.143 17.3956 130.772 18.8901 130.031 20.1429C129.312 21.3736 128.32 22.3297 127.056 23.011C125.791 23.6703 124.353 24 122.74 24ZM122.74 20.6374C124.113 20.6374 125.236 20.1978 126.108 19.3187C126.979 18.4176 127.415 17.1648 127.415 15.5604V15.2308C127.415 13.6264 126.979 12.3846 126.108 11.5055C125.236 10.6044 124.113 10.1538 122.74 10.1538C121.366 10.1538 120.244 10.6044 119.372 11.5055C118.5 12.3846 118.064 13.6264 118.064 15.2308V15.5604C118.064 17.1648 118.5 18.4176 119.372 19.3187C120.244 20.1978 121.366 20.6374 122.74 20.6374Z" fill="white"/>
<path d="M141.321 23.8022C140.079 23.8022 138.978 23.5275 138.019 22.978C137.06 22.4066 136.318 21.6154 135.795 20.6044C135.272 19.5714 135.01 18.3736 135.01 17.011V7.25275H138.738V16.7143C138.738 18.033 139.054 19.011 139.686 19.6484C140.34 20.2857 141.256 20.6044 142.433 20.6044C143.762 20.6044 144.809 20.1648 145.572 19.2857C146.357 18.4066 146.749 17.1429 146.749 15.4945V7.25275H150.476V23.5385H146.814V21.2637H146.258C145.975 21.8571 145.452 22.4286 144.689 22.978C143.948 23.5275 142.825 23.8022 141.321 23.8022Z" fill="white"/>
<path d="M155.258 23.5385V7.25275H158.953V9.52747H159.509C159.792 8.91209 160.304 8.32967 161.045 7.78022C161.786 7.23077 162.909 6.95605 164.413 6.95605C165.656 6.95605 166.757 7.24176 167.716 7.81319C168.675 8.38462 169.416 9.17582 169.939 10.1868C170.484 11.1978 170.757 12.3956 170.757 13.7802V23.5385H166.996V14.0769C166.996 12.7582 166.669 11.7802 166.015 11.1429C165.383 10.4835 164.479 10.1538 163.301 10.1538C161.972 10.1538 160.925 10.6044 160.163 11.5055C159.4 12.3846 159.018 13.6484 159.018 15.2967V23.5385H155.258Z" fill="white"/>
<path d="M181.979 24C180.671 24 179.451 23.6813 178.317 23.044C177.184 22.3846 176.279 21.4286 175.603 20.1758C174.928 18.9231 174.59 17.4176 174.59 15.6593V15.1319C174.59 13.3736 174.928 11.8681 175.603 10.6154C176.279 9.36264 177.173 8.41758 178.285 7.78022C179.418 7.12088 180.65 6.79121 181.979 6.79121C182.982 6.79121 183.832 6.91209 184.53 7.15385C185.227 7.39561 185.783 7.7033 186.197 8.07692C186.633 8.45055 186.971 8.85714 187.211 9.2967H187.767V0.461538H191.494V23.5385H187.832V21.3956H187.276C186.884 22.0549 186.285 22.6593 185.478 23.2088C184.671 23.7363 183.505 24 181.979 24ZM183.091 20.7033C184.443 20.7033 185.565 20.2637 186.459 19.3846C187.353 18.4835 187.8 17.2088 187.8 15.5604V15.2308C187.8 13.5604 187.353 12.2857 186.459 11.4066C185.587 10.5275 184.464 10.0879 183.091 10.0879C181.74 10.0879 180.606 10.5275 179.691 11.4066C178.797 12.2857 178.35 13.5604 178.35 15.2308V15.5604C178.35 17.2088 178.797 18.4835 179.691 19.3846C180.606 20.2637 181.74 20.7033 183.091 20.7033Z" fill="white"/>
<path d="M201.26 24C200.127 24 199.102 23.8022 198.187 23.4066C197.271 22.989 196.541 22.3956 195.996 21.6264C195.473 20.8571 195.211 19.9121 195.211 18.7912C195.211 17.6923 195.473 16.7692 195.996 16.022C196.541 15.2747 197.282 14.7143 198.219 14.3407C199.157 13.9451 200.225 13.7473 201.424 13.7473H206.099V12.7582C206.099 11.9011 205.838 11.2088 205.315 10.6813C204.792 10.1319 203.974 9.85714 202.862 9.85714C201.772 9.85714 200.944 10.1209 200.377 10.6484C199.832 11.1538 199.473 11.8132 199.298 12.6264L195.832 11.4725C196.094 10.6154 196.508 9.83517 197.075 9.13187C197.663 8.42857 198.437 7.86813 199.396 7.45055C200.356 7.01099 201.533 6.79121 202.928 6.79121C205.042 6.79121 206.699 7.32967 207.898 8.40659C209.118 9.46154 209.729 11 209.729 13.022V19.4176C209.729 20.0769 210.034 20.4066 210.644 20.4066H212.018V23.5385H209.369C208.584 23.5385 207.941 23.3407 207.44 22.9451C206.939 22.5495 206.688 22.011 206.688 21.3297V21.2637H206.132C206.001 21.5714 205.772 21.9451 205.445 22.3846C205.118 22.8242 204.617 23.2088 203.941 23.5385C203.287 23.8462 202.394 24 201.26 24ZM201.881 20.9011C203.124 20.9011 204.138 20.5495 204.922 19.8462C205.707 19.1209 206.099 18.1538 206.099 16.9451V16.6154H201.653C200.846 16.6154 200.192 16.7912 199.691 17.1429C199.189 17.4945 198.939 18.011 198.939 18.6923C198.939 19.3517 199.2 19.8901 199.723 20.3077C200.247 20.7033 200.966 20.9011 201.881 20.9011Z" fill="white"/>
<path d="M220.126 23.5385C219.08 23.5385 218.241 23.2308 217.609 22.6154C216.998 21.978 216.693 21.1209 216.693 20.044V10.3846H212.475V7.25275H216.693V2.01099H220.453V7.25275H225.096V10.3846H220.453V19.4176C220.453 20.0769 220.759 20.4066 221.369 20.4066H224.606V23.5385H220.126Z" fill="white"/>
<path d="M228.923 23.5385V7.25275H232.683V23.5385H228.923ZM230.787 5.17582C230.111 5.17582 229.522 4.95604 229.021 4.51648C228.542 4.05494 228.302 3.45055 228.302 2.7033C228.302 1.95605 228.542 1.36264 229.021 0.923077C229.522 0.461539 230.111 0.23077 230.787 0.23077C231.506 0.23077 232.095 0.461539 232.552 0.923077C233.032 1.36264 233.272 1.95605 233.272 2.7033C233.272 3.45055 233.032 4.05494 232.552 4.51648C232.095 4.95604 231.506 5.17582 230.787 5.17582Z" fill="white"/>
<path d="M245.1 24C243.487 24 242.037 23.6703 240.751 23.011C239.487 22.3297 238.484 21.3736 237.743 20.1429C237.024 18.8901 236.664 17.3956 236.664 15.6593V15.1319C236.664 13.3956 237.024 11.9011 237.743 10.6484C238.484 9.39561 239.487 8.43956 240.751 7.78022C242.037 7.12088 243.487 6.79121 245.1 6.79121C246.713 6.79121 248.152 7.12088 249.416 7.78022C250.68 8.43956 251.672 9.39561 252.391 10.6484C253.133 11.9011 253.503 13.3956 253.503 15.1319V15.6593C253.503 17.3956 253.133 18.8901 252.391 20.1429C251.672 21.3736 250.68 22.3297 249.416 23.011C248.152 23.6703 246.713 24 245.1 24ZM245.1 20.6374C246.473 20.6374 247.596 20.1978 248.468 19.3187C249.34 18.4176 249.776 17.1648 249.776 15.5604V15.2308C249.776 13.6264 249.34 12.3846 248.468 11.5055C247.596 10.6044 246.473 10.1538 245.1 10.1538C243.727 10.1538 242.604 10.6044 241.732 11.5055C240.86 12.3846 240.424 13.6264 240.424 15.2308V15.5604C240.424 17.1648 240.86 18.4176 241.732 19.3187C242.604 20.1978 243.727 20.6374 245.1 20.6374Z" fill="white"/>
<path d="M257.501 23.5385V7.25275H261.196V9.52747H261.752C262.035 8.91209 262.548 8.32967 263.289 7.78022C264.03 7.23077 265.153 6.95605 266.657 6.95605C267.899 6.95605 269 7.24176 269.959 7.81319C270.918 8.38462 271.659 9.17582 272.183 10.1868C272.728 11.1978 273 12.3956 273 13.7802V23.5385H269.24V14.0769C269.24 12.7582 268.913 11.7802 268.259 11.1429C267.627 10.4835 266.722 10.1538 265.545 10.1538C264.215 10.1538 263.169 10.6044 262.406 11.5055C261.643 12.3846 261.262 13.6484 261.262 15.2967V23.5385H257.501Z" fill="white"/>
</svg>
