<svg width="230" height="38" viewBox="0 0 230 38" fill="none" xmlns="http://www.w3.org/2000/svg">
<g clip-path="url(#clip0_268_185)">
<path d="M59.4625 22.5416V13.257H55.6674V14.3896C55.6674 17.0857 55.376 20.3321 53.9509 22.5416H59.4625ZM52.1714 22.5416C53.8564 20.1407 54.0769 16.9661 54.0769 14.286V11.7654H61.1632V22.5416H62.5018V26.4661H60.9743V24.0332H52.5336V26.4661H50.9589V22.5416H52.1714Z" fill="black"/>
<path d="M68.7929 22.5416C70.1 22.5416 70.8716 21.7041 70.8716 20.4358C70.8716 19.1995 70.0685 18.354 68.7929 18.354H66.0607V22.5416H68.7929ZM68.604 16.9262C69.6984 16.9262 70.3913 16.1445 70.3913 15.0676C70.3913 13.9908 69.7378 13.257 68.5882 13.257H66.0686V16.9262H68.604ZM64.3679 11.7654H68.604C70.6669 11.7654 72.1235 12.914 72.1235 14.8922C72.1235 16.0886 71.5409 17.0458 70.6118 17.5324V17.5643C71.8952 17.9472 72.6196 19.1676 72.6196 20.5395C72.6196 22.8527 70.8322 24.0332 68.7063 24.0332H64.3679V11.7654Z" fill="black"/>
<path d="M78.3674 21.1695C79.2099 22.039 80.6666 22.6851 82.139 22.6851C84.5719 22.6851 86.2884 20.8983 86.5483 18.6011H80.2178V17.1733H86.564C86.3435 14.8442 84.5877 13.1213 82.1547 13.1213C80.8713 13.1213 79.5957 13.5919 78.5721 14.4932L77.7297 13.209C78.8241 12.1003 80.5563 11.5579 82.1862 11.5579C85.8711 11.5579 88.3435 14.3018 88.3435 17.8114C88.3435 21.4407 85.7373 24.2405 82.1311 24.2405C80.2807 24.2405 78.5958 23.4907 77.4619 22.366L78.3674 21.1695Z" fill="black"/>
<path d="M89.9497 15.2431H91.6111V18.7846H92.8315L95.2015 15.2431H97.0833L94.1858 19.4307V19.4626L97.4298 24.0411H95.4535L92.863 20.2284H91.6111V24.0411H89.9497V15.2431Z" fill="black"/>
<path d="M102.201 15.0356C103.351 15.0356 104.634 15.4345 105.461 16.3199L104.674 17.5004C104.091 16.9101 103.178 16.4953 102.272 16.4953C100.524 16.4953 99.2564 17.8354 99.2564 19.6221C99.2564 21.4089 100.524 22.7888 102.327 22.7888C103.288 22.7888 104.335 22.3182 105.004 21.6083L105.674 22.8446C104.886 23.6981 103.563 24.2565 102.209 24.2565C99.4612 24.2565 97.5636 22.2942 97.5636 19.654C97.5478 17.0298 99.469 15.0356 102.201 15.0356Z" fill="black"/>
<path d="M107.036 15.2431H114.618V24.0411H112.957V16.6868H108.697V24.0411H107.036V15.2431Z" fill="black"/>
<path d="M122.634 18.649C122.578 17.1335 121.657 16.3358 120.523 16.3358C119.24 16.3358 118.224 17.1893 117.988 18.649H122.634ZM120.555 15.0356C123.012 15.0356 124.311 16.8942 124.311 19.1515C124.311 19.3749 124.279 19.6221 124.24 19.8614H117.925C118.012 21.7518 119.35 22.7808 120.909 22.7808C121.838 22.7808 122.775 22.382 123.468 21.7518L124.169 22.9882C123.326 23.7699 122.004 24.2405 120.807 24.2405C118.075 24.2405 116.193 22.2384 116.193 19.6381C116.201 16.8383 118.083 15.0356 120.555 15.0356Z" fill="black"/>
<path d="M129.956 22.7888C131.326 22.7888 132.46 21.6561 132.46 19.662C132.46 17.7477 131.452 16.5193 130.003 16.5193C128.696 16.5193 127.5 17.4605 127.5 19.6859C127.507 21.2414 128.366 22.7888 129.956 22.7888ZM125.893 15.243H127.437V16.0247C127.437 16.3916 127.381 16.6868 127.381 16.6868H127.413C127.964 15.6259 129.059 15.0356 130.326 15.0356C132.681 15.0356 134.137 16.9101 134.137 19.6381C134.137 22.4378 132.492 24.2405 130.208 24.2405C129.114 24.2405 128.114 23.6822 127.515 22.7489H127.484C127.484 22.7489 127.555 23.06 127.555 23.5147V27.5109H125.893V15.243Z" fill="black"/>
<path d="M137.696 16.6868H134.68V15.2431H142.381V16.6868H139.342V24.0411H137.696V16.6868Z" fill="black"/>
<path d="M143.578 15.2431H145.176V20.4916C145.176 20.9622 145.145 21.5844 145.121 21.6721H145.153C145.223 21.5126 145.633 20.9064 145.924 20.4916L149.664 15.2431H151.278V24.0411H149.664V18.7926C149.664 18.3778 149.711 17.7716 149.711 17.628H149.68C149.625 17.7876 149.2 18.3778 148.924 18.7926L145.168 24.0411H143.57V15.2431H143.578Z" fill="black"/>
<path d="M153.341 21.8477C153.735 22.2624 154.562 22.8926 155.609 22.8926C156.601 22.8926 157.412 22.406 157.412 21.4488C157.412 20.5954 156.845 20.1088 155.625 20.1088H154.562V18.8884H155.475C156.451 18.8884 157.121 18.5055 157.121 17.6201C157.121 16.8065 156.538 16.3519 155.577 16.3519C154.821 16.3519 154.136 16.6151 153.467 17.1176L152.853 15.9849C153.522 15.4824 154.499 15.0278 155.869 15.0278C157.514 15.0278 158.806 15.8414 158.806 17.4127C158.806 18.5055 158.223 19.1197 157.538 19.4148V19.4467C158.412 19.7259 159.097 20.388 159.097 21.5127C159.097 23.3233 157.554 24.2406 155.766 24.2406C154.428 24.2406 153.294 23.6504 152.577 22.9564L153.341 21.8477Z" fill="black"/>
<path d="M163.246 22.9085C164.703 22.9085 165.577 21.4169 165.577 20.1088V19.7818H165.152C163.916 19.7818 161.616 19.8855 161.616 21.5047C161.616 22.1986 162.16 22.9085 163.246 22.9085ZM165.128 18.5614H165.577V18.3859C165.577 16.9421 164.75 16.4556 163.672 16.4556C162.813 16.4556 161.939 16.8065 161.239 17.309L160.569 16.0727C161.27 15.4824 162.593 15.0278 163.813 15.0278C165.994 15.0278 167.246 16.2482 167.246 18.4656V24.0253H165.687V23.1399C165.687 22.741 165.742 22.4459 165.742 22.4459H165.711C165.215 23.4509 164.152 24.2326 162.861 24.2326C161.349 24.2326 159.963 23.2755 159.963 21.6243C159.947 18.8724 163.325 18.5614 165.128 18.5614Z" fill="black"/>
<path d="M173.435 11.7654H182.97V24.0412H181.277V13.265H175.136V24.0412H173.435V11.7654Z" fill="black"/>
<path d="M189.387 22.7888C190.757 22.7888 191.891 21.6561 191.891 19.662C191.891 17.7477 190.875 16.5193 189.434 16.5193C188.127 16.5193 186.931 17.4605 186.931 19.6859C186.938 21.2414 187.797 22.7888 189.387 22.7888ZM185.324 15.243H186.868V16.0247C186.868 16.3916 186.82 16.6868 186.82 16.6868H186.852C187.403 15.6259 188.497 15.0356 189.765 15.0356C192.119 15.0356 193.576 16.9101 193.576 19.6381C193.576 22.4378 191.93 24.2405 189.647 24.2405C188.553 24.2405 187.553 23.6822 186.954 22.7489H186.923C186.923 22.7489 186.994 23.06 186.994 23.5147V27.5109H185.332L185.324 15.243Z" fill="black"/>
<path d="M199.324 22.7888C200.954 22.7888 202.308 21.4647 202.308 19.6221C202.308 17.7955 200.954 16.4953 199.324 16.4953C197.678 16.4953 196.34 17.7955 196.34 19.6221C196.34 21.4647 197.678 22.7888 199.324 22.7888ZM199.308 15.0356C201.899 15.0356 203.993 16.966 203.993 19.6221C203.993 22.2942 201.899 24.2485 199.324 24.2485C196.733 24.2485 194.639 22.3022 194.639 19.6221C194.639 16.966 196.733 15.0356 199.308 15.0356Z" fill="black"/>
<path d="M211.434 18.649C211.386 17.1335 210.457 16.3358 209.324 16.3358C208.04 16.3358 207.024 17.1893 206.788 18.649H211.434ZM209.363 15.0356C211.82 15.0356 213.119 16.8942 213.119 19.1515C213.119 19.3749 213.087 19.6221 213.048 19.8614H206.733C206.82 21.7518 208.158 22.7808 209.717 22.7808C210.646 22.7808 211.583 22.382 212.276 21.7518L212.977 22.9882C212.134 23.7699 210.812 24.2405 209.615 24.2405C206.883 24.2405 205.001 22.2384 205.001 19.6381C205.001 16.8383 206.891 15.0356 209.363 15.0356Z" fill="black"/>
<path d="M214.693 15.2431H216.363V18.7846H217.575L219.945 15.2431H221.835L218.937 19.4307V19.4626L222.173 24.0411H220.205L217.615 20.2284H216.363V24.0411H214.693V15.2431Z" fill="black"/>
<path d="M225.315 16.6868H222.299V15.2431H230V16.6868H226.961V24.0411H225.315V16.6868Z" fill="black"/>
<path d="M18.0545 7.09909H13.1177V15.5941L0 23.1637L2.74006 27.5747L18.0545 18.4337V7.09909Z" fill="#EA5921"/>
<path d="M20.0859 3.73303L20.0938 19.6063L6.70055 27.5429L9.44061 31.9539L25.0228 22.4379V3.73303H20.0859Z" fill="#EA5921"/>
<path d="M32.0146 26.3703H32.0225H32.0146V0H27.0778L27.0936 23.6343L13.5586 31.9937L16.3065 36.3967L32.0146 26.3703Z" fill="#EA5921"/>
<path d="M34.0539 27.6625L32.9752 28.3485L36.4712 30.5021L39.0223 26.2188L34.109 23.1957V27.6625H34.0539Z" fill="#EA5921"/>
<path d="M36.9829 22.7969L39.534 18.5135L34.109 15.1794V21.0181L36.9829 22.7969Z" fill="#EA5921"/>
<path d="M35.9121 37.9999L38.4632 33.7165L31.2587 29.4332L26.566 32.4084L35.9121 37.9999Z" fill="#EA5921"/>
</g>
<defs>
<clipPath id="clip0_268_185">
<rect width="230" height="38" fill="white"/>
</clipPath>
</defs>
</svg>
