<svg width="85" height="30" viewBox="0 0 85 30" fill="none" xmlns="http://www.w3.org/2000/svg">
<path d="M46.7991 17.796V10.466H43.8122V11.3602C43.8122 13.4887 43.5829 16.0517 42.4613 17.796H46.7991ZM41.0608 17.796C42.3869 15.9005 42.5604 13.3942 42.5604 11.2784V9.28845H48.1377V17.796H49.1911V20.8942H47.9889V18.9736H41.3458V20.8942H40.1064V17.796H41.0608Z" fill="black"/>
<path d="M54.1426 17.796C55.1713 17.796 55.7786 17.1348 55.7786 16.1335C55.7786 15.1575 55.1465 14.49 54.1426 14.49H51.9922V17.796H54.1426ZM53.9939 13.3628C54.8552 13.3628 55.4006 12.7456 55.4006 11.8955C55.4006 11.0454 54.8862 10.466 53.9815 10.466H51.9984V13.3628H53.9939ZM50.6599 9.28845H53.9939C55.6174 9.28845 56.7639 10.1953 56.7639 11.757C56.7639 12.7015 56.3053 13.4572 55.5741 13.8413V13.8665C56.5842 14.1688 57.1543 15.1323 57.1543 16.2154C57.1543 18.0416 55.7476 18.9736 54.0744 18.9736H50.6599V9.28845Z" fill="black"/>
<path d="M59.3169 16.7128C59.98 17.3992 61.1264 17.9093 62.2852 17.9093C64.2001 17.9093 65.551 16.4987 65.7555 14.6851H60.7732V13.5579H65.7679C65.5944 11.7191 64.2125 10.3589 62.2976 10.3589C61.2875 10.3589 60.2836 10.7304 59.478 11.442L58.8149 10.4282C59.6763 9.55285 61.0396 9.12463 62.3224 9.12463C65.2226 9.12463 67.1684 11.2909 67.1684 14.0617C67.1684 16.9269 65.1172 19.1372 62.279 19.1372C60.8228 19.1372 59.4966 18.5453 58.6042 17.6574L59.3169 16.7128Z" fill="black"/>
<path d="M69.2593 9.28845H76.7638V18.9799H75.4314V10.4723H70.5978V18.9799H69.2593V9.28845Z" fill="black"/>
<path d="M14.2096 5.60455H10.3241V12.3111L0 18.2872L2.15653 21.7695L14.2096 14.5529V5.60455Z" fill="#EA5921"/>
<path d="M15.8085 2.94714L15.8147 15.4786L5.27368 21.7444L7.43021 25.2267L19.6939 17.7141V2.94714H15.8085Z" fill="#EA5921"/>
<path d="M25.1968 20.8186H25.2029H25.1968V0H21.3113L21.3237 18.6587L10.6711 25.2582L12.8339 28.7343L25.1968 20.8186Z" fill="#EA5921"/>
<path d="M26.8016 21.8388L25.9526 22.3804L28.7041 24.0806L30.7119 20.699L26.845 18.3124V21.8388H26.8016Z" fill="#EA5921"/>
<path d="M29.1069 17.9976L31.1147 14.6159L26.845 11.9837V16.5933L29.1069 17.9976Z" fill="#EA5921"/>
<path d="M28.2642 30L30.272 26.6183L24.6018 23.2367L20.9084 25.5856L28.2642 30Z" fill="#EA5921"/>
</svg>
