<svg width="297" height="49" viewBox="0 0 297 49" fill="none" xmlns="http://www.w3.org/2000/svg">
<g clip-path="url(#clip0_208_214)">
<path d="M76.7842 29.0668V17.0945H71.8835V18.5551C71.8835 22.0316 71.5073 26.2177 69.667 29.0668H76.7842ZM67.3692 29.0668C69.545 25.9709 69.8297 21.8773 69.8297 18.4214V15.1711H78.9803V29.0668H80.7088V34.1273H78.7363V30.9902H67.8369V34.1273H65.8034V29.0668H67.3692Z" fill="black"/>
<path d="M88.8326 29.0668C90.5204 29.0668 91.5168 27.9868 91.5168 26.3515C91.5168 24.7572 90.4797 23.6669 88.8326 23.6669H85.3045V29.0668H88.8326ZM88.5886 21.8258C90.0019 21.8258 90.8966 20.8179 90.8966 19.4293C90.8966 18.0408 90.0527 17.0945 88.5683 17.0945H85.3147V21.8258H88.5886ZM83.1185 15.1711H88.5886C91.2524 15.1711 93.1334 16.6523 93.1334 19.203C93.1334 20.7459 92.381 21.9801 91.1813 22.6075V22.6487C92.8386 23.1424 93.774 24.7161 93.774 26.4852C93.774 29.4679 91.466 30.9902 88.7208 30.9902H83.1185V15.1711Z" fill="black"/>
<path d="M101.196 27.2976C102.284 28.4187 104.165 29.2518 106.066 29.2518C109.208 29.2518 111.425 26.9479 111.76 23.9856H103.586V22.1445H111.78C111.496 19.1412 109.228 16.9195 106.087 16.9195C104.429 16.9195 102.782 17.5264 101.461 18.6886L100.373 17.0327C101.786 15.603 104.023 14.9036 106.127 14.9036C110.886 14.9036 114.078 18.4418 114.078 22.9674C114.078 27.6473 110.713 31.2575 106.056 31.2575C103.667 31.2575 101.491 30.2906 100.027 28.8404L101.196 27.2976Z" fill="black"/>
<path d="M116.152 19.6555H118.298V24.2223H119.874L122.934 19.6555H125.364L121.623 25.0554V25.0965L125.811 31.0004H123.259L119.914 26.0839H118.298V31.0004H116.152V19.6555Z" fill="black"/>
<path d="M131.973 19.3882C133.457 19.3882 135.115 19.9025 136.182 21.0441L135.165 22.5664C134.413 21.8053 133.234 21.2704 132.064 21.2704C129.807 21.2704 128.17 22.9984 128.17 25.3023C128.17 27.6063 129.807 29.3857 132.136 29.3857C133.376 29.3857 134.728 28.7788 135.593 27.8634L136.457 29.4577C135.44 30.5582 133.732 31.2782 131.983 31.2782C128.435 31.2782 125.984 28.748 125.984 25.3435C125.964 21.9596 128.445 19.3882 131.973 19.3882Z" fill="black"/>
<path d="M138.216 19.6555H148.007V31.0004H145.862V21.5172H140.361V31.0004H138.216V19.6555Z" fill="black"/>
<path d="M158.357 24.0475C158.286 22.0933 157.097 21.0647 155.632 21.0647C153.975 21.0647 152.664 22.1653 152.359 24.0475H158.357ZM155.673 19.3882C158.845 19.3882 160.523 21.7847 160.523 24.6955C160.523 24.9835 160.482 25.3023 160.431 25.6109H152.277C152.389 28.0486 154.118 29.3754 156.131 29.3754C157.33 29.3754 158.54 28.8611 159.435 28.0486L160.34 29.6428C159.252 30.6508 157.544 31.2576 155.998 31.2576C152.47 31.2576 150.04 28.676 150.04 25.3229C150.051 21.7127 152.481 19.3882 155.673 19.3882Z" fill="black"/>
<path d="M167.813 29.3857C169.582 29.3857 171.046 27.9251 171.046 25.3538C171.046 22.8852 169.745 21.3013 167.874 21.3013C166.186 21.3013 164.641 22.515 164.641 25.3846C164.651 27.3903 165.759 29.3857 167.813 29.3857ZM162.567 19.6556H164.559V20.6636C164.559 21.1367 164.488 21.5173 164.488 21.5173H164.529C165.241 20.1493 166.654 19.3882 168.291 19.3882C171.331 19.3882 173.212 21.8053 173.212 25.3229C173.212 28.9331 171.087 31.2576 168.138 31.2576C166.725 31.2576 165.434 30.5376 164.661 29.3342H164.62C164.62 29.3342 164.712 29.7354 164.712 30.3216V35.4747H162.567V19.6556Z" fill="black"/>
<path d="M177.807 21.5172H173.913V19.6555H183.857V21.5172H179.932V31.0004H177.807V21.5172Z" fill="black"/>
<path d="M185.403 19.6555H187.467V26.4234C187.467 27.0302 187.426 27.8325 187.395 27.9456H187.436C187.528 27.7399 188.056 26.9582 188.432 26.4234L193.262 19.6555H195.346V31.0004H193.262V24.2326C193.262 23.6977 193.323 22.916 193.323 22.7309H193.282C193.211 22.9366 192.662 23.6977 192.306 24.2326L187.456 31.0004H185.392V19.6555H185.403Z" fill="black"/>
<path d="M198.01 28.172C198.519 28.7069 199.586 29.5194 200.938 29.5194C202.219 29.5194 203.267 28.892 203.267 27.6577C203.267 26.5572 202.535 25.9298 200.959 25.9298H199.586V24.3561H200.766C202.026 24.3561 202.891 23.8624 202.891 22.7207C202.891 21.6716 202.138 21.0853 200.898 21.0853C199.922 21.0853 199.037 21.4247 198.173 22.0727L197.38 20.6122C198.244 19.9642 199.505 19.3779 201.274 19.3779C203.399 19.3779 205.066 20.427 205.066 22.4533C205.066 23.8624 204.314 24.6544 203.429 25.0349V25.0761C204.558 25.4361 205.443 26.2898 205.443 27.74C205.443 30.0748 203.45 31.2577 201.142 31.2577C199.413 31.2577 197.949 30.4965 197.024 29.6017L198.01 28.172Z" fill="black"/>
<path d="M210.801 29.54C212.682 29.54 213.81 27.6166 213.81 25.9298V25.5081H213.261C211.665 25.5081 208.696 25.6418 208.696 27.7297C208.696 28.6246 209.398 29.54 210.801 29.54ZM213.231 23.9344H213.81V23.7081C213.81 21.8464 212.743 21.219 211.35 21.219C210.241 21.219 209.113 21.6716 208.208 22.3196L207.344 20.7253C208.249 19.9642 209.957 19.3779 211.533 19.3779C214.349 19.3779 215.966 20.9516 215.966 23.811V30.9799H213.953V29.8383C213.953 29.324 214.024 28.9434 214.024 28.9434H213.983C213.343 30.2394 211.97 31.2474 210.302 31.2474C208.35 31.2474 206.561 30.0131 206.561 27.884C206.541 24.3355 210.902 23.9344 213.231 23.9344Z" fill="black"/>
<path d="M223.957 15.1711H236.27V31.0005H234.084V17.1048H226.154V31.0005H223.957V15.1711Z" fill="black"/>
<path d="M244.556 29.3857C246.326 29.3857 247.79 27.9251 247.79 25.3538C247.79 22.8852 246.478 21.3013 244.617 21.3013C242.93 21.3013 241.384 22.515 241.384 25.3846C241.394 27.3903 242.503 29.3857 244.556 29.3857ZM239.31 19.6556H241.303V20.6636C241.303 21.1367 241.242 21.5173 241.242 21.5173H241.282C241.994 20.1493 243.407 19.3882 245.044 19.3882C248.085 19.3882 249.965 21.8053 249.965 25.3229C249.965 28.9331 247.841 31.2576 244.892 31.2576C243.479 31.2576 242.187 30.5376 241.415 29.3342H241.374C241.374 29.3342 241.465 29.7354 241.465 30.3216V35.4747H239.32L239.31 19.6556Z" fill="black"/>
<path d="M257.388 29.3857C259.492 29.3857 261.241 27.6783 261.241 25.3023C261.241 22.947 259.492 21.2704 257.388 21.2704C255.263 21.2704 253.534 22.947 253.534 25.3023C253.534 27.6783 255.263 29.3857 257.388 29.3857ZM257.368 19.3882C260.713 19.3882 263.417 21.8773 263.417 25.3023C263.417 28.748 260.713 31.2679 257.388 31.2679C254.043 31.2679 251.338 28.7583 251.338 25.3023C251.338 21.8773 254.043 19.3882 257.368 19.3882Z" fill="black"/>
<path d="M273.025 24.0475C272.964 22.0933 271.765 21.0647 270.3 21.0647C268.643 21.0647 267.332 22.1653 267.026 24.0475H273.025ZM270.351 19.3882C273.523 19.3882 275.201 21.7847 275.201 24.6955C275.201 24.9835 275.16 25.3023 275.11 25.6109H266.955C267.067 28.0486 268.796 29.3754 270.809 29.3754C272.009 29.3754 273.218 28.8611 274.113 28.0486L275.018 29.6428C273.93 30.6508 272.222 31.2576 270.677 31.2576C267.148 31.2576 264.718 28.676 264.718 25.3229C264.718 21.7127 267.159 19.3882 270.351 19.3882Z" fill="black"/>
<path d="M277.234 19.6555H279.39V24.2223H280.956L284.016 19.6555H286.456L282.715 25.0554V25.0965L286.894 31.0004H284.352L281.007 26.0839H279.39V31.0004H277.234V19.6555Z" fill="black"/>
<path d="M290.95 21.5172H287.056V19.6555H297V21.5172H293.075V31.0004H290.95V21.5172Z" fill="black"/>
<path d="M23.3139 9.15405H16.9389V20.1081L0 29.869L3.53826 35.5569L23.3139 23.7697V9.15405Z" fill="#EA5921"/>
<path d="M25.937 4.81372L25.9472 25.2818L8.65244 35.5159L12.1907 41.2037L32.312 28.9332V4.81372H25.937Z" fill="#EA5921"/>
<path d="M41.3407 34.0038H41.3508H41.3407V0H34.9657L34.986 30.4759L17.5083 41.255L21.0567 46.9326L41.3407 34.0038Z" fill="#EA5921"/>
<path d="M43.974 35.67L42.581 36.5546L47.0954 39.3316L50.3896 33.8084L44.0451 29.9102V35.67H43.974Z" fill="#EA5921"/>
<path d="M47.7562 29.3961L51.0505 23.8728L44.0451 19.5735V27.1025L47.7562 29.3961Z" fill="#EA5921"/>
<path d="M46.3735 49L49.6677 43.4767L40.3646 37.9534L34.3048 41.7899L46.3735 49Z" fill="#EA5921"/>
</g>
<defs>
<clipPath id="clip0_208_214">
<rect width="297" height="49" fill="white"/>
</clipPath>
</defs>
</svg>
