<svg width="31" height="31" viewBox="0 0 31 31" fill="none" xmlns="http://www.w3.org/2000/svg">
<path d="M29.9649 9.01678C29.9482 7.7602 29.7129 6.51611 29.2697 5.34016C28.8854 4.34825 28.2984 3.44742 27.5462 2.69523C26.794 1.94304 25.8932 1.35602 24.9013 0.971679C23.7404 0.535921 22.5141 0.300299 21.2744 0.274846C19.6783 0.203503 19.1723 0.183594 15.1207 0.183594C11.0691 0.183594 10.5498 0.183594 8.96535 0.274846C7.72625 0.300486 6.50047 0.536105 5.34016 0.971679C4.3481 1.35575 3.44713 1.94267 2.6949 2.6949C1.94267 3.44713 1.35575 4.3481 0.971679 5.34016C0.535048 6.50011 0.299937 7.72617 0.276505 8.96535C0.205162 10.5631 0.183594 11.0691 0.183594 15.1207C0.183594 19.1723 0.183594 19.6899 0.276505 21.2761C0.301392 22.5171 0.535328 23.7415 0.971679 24.9046C1.35639 25.8963 1.94375 26.7969 2.69623 27.5489C3.44871 28.3008 4.34977 28.8874 5.34182 29.2714C6.49895 29.7247 7.72494 29.9772 8.96701 30.018C10.5647 30.0893 11.0708 30.1109 15.1224 30.1109C19.174 30.1109 19.6933 30.1109 21.2777 30.018C22.5174 29.9936 23.7438 29.7585 24.9046 29.3228C25.8962 28.9381 26.7968 28.3509 27.549 27.5987C28.3011 26.8466 28.8883 25.946 29.2731 24.9544C29.7094 23.793 29.9433 22.5685 29.9682 21.3258C30.0396 19.7298 30.0611 19.2237 30.0611 15.1705C30.0578 11.1189 30.0578 10.6046 29.9649 9.01678ZM15.1108 22.7826C10.8733 22.7826 7.44061 19.3498 7.44061 15.1124C7.44061 10.875 10.8733 7.44227 15.1108 7.44227C17.145 7.44227 19.0959 8.25038 20.5344 9.68881C21.9728 11.1272 22.7809 13.0782 22.7809 15.1124C22.7809 17.1467 21.9728 19.0976 20.5344 20.536C19.0959 21.9745 17.145 22.7826 15.1108 22.7826ZM23.0862 8.9471C22.0957 8.9471 21.2976 8.1474 21.2976 7.15856C21.2976 6.9238 21.3439 6.69133 21.4337 6.47444C21.5236 6.25754 21.6552 6.06047 21.8212 5.89446C21.9873 5.72846 22.1843 5.59678 22.4012 5.50693C22.6181 5.41709 22.8506 5.37085 23.0853 5.37085C23.3201 5.37085 23.5526 5.41709 23.7695 5.50693C23.9864 5.59678 24.1834 5.72846 24.3494 5.89446C24.5155 6.06047 24.6471 6.25754 24.737 6.47444C24.8268 6.69133 24.8731 6.9238 24.8731 7.15856C24.8731 8.1474 24.0734 8.9471 23.0862 8.9471Z" fill="black"/>
<path d="M15.1106 20.0936C17.8623 20.0936 20.093 17.8629 20.093 15.1113C20.093 12.3596 17.8623 10.1289 15.1106 10.1289C12.3589 10.1289 10.1283 12.3596 10.1283 15.1113C10.1283 17.8629 12.3589 20.0936 15.1106 20.0936Z" fill="black"/>
</svg>
