<svg xmlns="http://www.w3.org/2000/svg" width="41" height="24" viewBox="0 0 41 24"><g><g><path fill="#002e74" d="M20.914 23.947c-1.334-.034-2.229-.43-2.967-1.167-5.35-5.35-10.706-10.697-16.045-16.06a3.846 3.846 0 0 1 .031-5.502c1.525-1.496 3.921-1.487 5.468.053 4.33 4.312 8.652 8.634 12.965 12.963.28.28.415.317.72.013 4.251-4.27 8.516-8.526 12.783-12.78C35.046.294 36.74-.022 38.214.635a3.883 3.883 0 0 1 2.3 3.698 3.75 3.75 0 0 1-1.12 2.57c-5.288 5.292-10.58 10.581-15.873 15.87-.796.794-1.762 1.187-2.607 1.174z"/></g></g></svg>