<svg xmlns="http://www.w3.org/2000/svg" width="55" height="43" viewBox="0 0 55 43"><g><g><path fill="#002e74" d="M25.71 41.47c-.359-.203-.621-.338-.872-.493-4.383-2.7-9.217-3.704-14.289-3.806-.616-.012-1.234.004-1.851-.003-1.346-.014-2.095-.77-2.095-2.126-.002-7.677-.001-15.354-.001-23.03 0-3.23-.002-6.46.001-9.692C6.604.927 7.356.195 8.734.16c4.68-.119 9.241.505 13.641 2.154.969.363 1.902.804 2.824 1.275.391.2.522.432.521.871-.015 5.863-.01 11.725-.01 17.587v18.665z"/></g><g><path fill="#002e74" d="M29.532 41.473v-.685c0-12.085.002-24.169-.01-36.253 0-.47.12-.734.56-.966 3.104-1.629 6.426-2.52 9.865-3.05 2.21-.342 4.437-.383 6.668-.354 1.219.016 2.022.804 2.022 2.026.005 10.988.005 21.975 0 32.963 0 1.23-.782 2.022-2.026 2.008-2.652-.028-5.29.093-7.897.623-2.906.59-5.668 1.555-8.197 3.135-.284.178-.585.33-.985.553z"/></g><g><path fill="#002e74" d="M21.703 42.285H2.424c-1.436 0-2.18-.733-2.18-2.162-.003-10.905-.003-21.812 0-32.717.001-1.402.731-2.125 2.144-2.12.532.001 1.215-.228 1.558.098.35.331.112 1.021.112 1.552.008 9.351.003 18.702.007 28.053.001 2.331 1.24 4.026 3.331 4.593.583.157 1.18.175 1.777.16 3.243-.087 6.433.248 9.54 1.223 1.038.326 2.06.694 2.99 1.32z"/></g><g><path fill="#002e74" d="M33.538 42.285c1.476-.886 3.076-1.39 4.715-1.792 2.688-.659 5.421-.812 8.175-.752 1.194.025 2.285-.289 3.198-1.09.94-.826 1.476-1.862 1.537-3.125.015-.299.014-.598.014-.897l.001-28.589c0-.759.001-.76.78-.76.397.001.796-.01 1.193.007 1.04.044 1.786.79 1.842 1.823.01.198.006.398.006.597v32.178c0 1.755-.65 2.4-2.42 2.4H34.192z"/></g></g></svg>