<svg xmlns="http://www.w3.org/2000/svg" width="122" height="107" viewBox="0 0 122 107"><g><g><path fill="#002e74" d="M121.842 18.818V97.49c-.058.146-.142.287-.171.44-1.041 5.513-5.186 9.052-10.83 9.056-33.226.021-66.452.013-99.678.005-1.716 0-3.39-.293-4.936-1.089C2.032 103.74.15 100.213.15 95.573c.002-25.148 0-50.294 0-75.442v-.985c.327.332.463.688.584 1.05L12.738 56.2c1.773 5.314 5.519 8.011 11.137 8.014 5.386.003 10.773-.01 16.158.011 1.014.004 2.317-.444 2.963.21.592.596.153 1.882.168 2.863.04 2.631 1.418 4.037 4.042 4.044 3.802.011 7.604.003 11.406.003 5.464 0 10.929.014 16.395-.006 2.329-.009 3.767-1.466 3.813-3.785.014-.752.067-1.51-.014-2.256-.1-.91.242-1.109 1.116-1.104 6.02.04 12.039.022 18.059.02 5.795 0 9.475-2.643 11.3-8.112 4.03-12.076 8.057-24.152 12.092-36.226.12-.364.139-.784.469-1.058z"/></g><g><path fill="#002e74" d="M15.607 14.303c6.377 0 12.755-.033 19.13.03 1.14.012 1.373-.352 1.323-1.386-.112-2.303-.044-4.613 1.02-6.734 1.995-3.968 5.274-6.098 9.683-6.14 9.506-.088 19.013-.107 28.518.003 6.107.07 10.513 4.664 10.67 10.784.029 1.1-.357 2.574.203 3.205.653.735 2.159.223 3.292.226 8.277.022 16.555.012 24.834.012h1.418c-1.168 3.524-2.292 6.934-3.427 10.339-3.226 9.679-6.455 19.354-9.682 29.033-.9 2.702-1.864 3.409-4.677 3.41-5.98 0-11.962-.021-17.942.023-.94.007-1.256-.245-1.164-1.178.078-.784.037-1.584.008-2.375-.074-2.055-1.49-3.573-3.524-3.58-9.546-.031-19.091-.032-28.637.004-1.973.008-3.373 1.522-3.476 3.508-.008.158.005.317-.008.475-.077 1.012.447 2.359-.231 2.944-.577.498-1.883.174-2.866.175-5.466.008-10.933.01-16.4 0-2.243-.003-3.374-.784-4.08-2.897C15.218 41.096 10.86 28 6.499 14.909c-.05-.145-.086-.294-.176-.606zm62.176.019c.822.004 1.13-.193 1.056-1.043-.076-.865.01-1.742-.03-2.61-.094-1.975-1.52-3.47-3.5-3.475-9.534-.034-19.07-.034-28.607-.001-2.031.006-3.448 1.524-3.523 3.575-.028.79.052 1.589-.023 2.373-.087.914.197 1.194 1.153 1.185 5.539-.048 11.079-.023 16.619-.023 5.618 0 11.237-.018 16.855.019z"/></g><g><path fill="#002e74" d="M61.04 64.215c-3.205 0-6.411-.026-9.616.019-.833.01-1.195-.125-1.148-1.078.086-1.737.054-3.481.01-5.221-.017-.682.204-.866.871-.864 6.57.023 13.14.025 19.709-.001.711-.002.851.257.838.895-.035 1.78-.049 3.562.005 5.342.022.74-.208.933-.934.925-3.244-.038-6.49-.017-9.735-.017z"/></g></g></svg>