<svg xmlns="http://www.w3.org/2000/svg" width="27" height="26" viewBox="0 0 27 26"><g><g><path fill="#002e74" d="M3.006 12.016c.618.009 1.244.257 1.777.742 1.54 1.402 3.08 2.802 4.618 4.204.494.45.781.437 1.224-.062L24.973.686c.24-.27.517-.41.88-.291a.78.78 0 0 1 .535.696c.015.198-.073.354-.172.513l-6.06 9.76c-2.717 4.376-5.436 8.75-8.15 13.129-.448.722-1.049 1.22-1.904 1.359-.955.154-1.754-.151-2.362-.893-2.184-2.661-4.356-5.333-6.535-7.998-.4-.49-.8-.97-.946-1.616-.378-1.686.916-3.326 2.747-3.33z"/></g></g></svg>