<svg xmlns="http://www.w3.org/2000/svg" width="17" height="16" viewBox="0 0 17 16"><defs><linearGradient id="hahra" x1=".74" x2="16.79" y1="7.82" y2="7.82" gradientUnits="userSpaceOnUse"><stop offset="0" stop-color="#15ffc1"/><stop offset="1" stop-color="#15e8ff"/></linearGradient></defs><g><g><path fill="url(#hahra)" d="M15.919.202L7.131 10.13c-.27.307-.446.316-.749.039L3.553 7.596c-.326-.298-.71-.451-1.088-.455C1.344 7.143.551 8.146.783 9.179c.088.395.333.689.58.99 1.334 1.632 2.663 3.268 4.001 4.898.371.454.863.642 1.447.548.524-.086.891-.391 1.166-.833 1.663-2.682 3.327-5.361 4.991-8.04L16.679.765c.06-.099.114-.193.105-.316a.474.474 0 0 0-.328-.425.483.483 0 0 0-.154-.026c-.149 0-.273.079-.383.204z"/></g></g></svg>