<svg xmlns="http://www.w3.org/2000/svg" width="113" height="112" viewBox="0 0 113 112"><g><g><path fill="#002e74" d="M.19 99.968c.396-1.845.66-3.718 1.308-5.508 1.557-4.292 4.144-7.82 7.725-10.644.586-.462.927-.503 1.525.065 7.097 6.75 17.858 6.755 24.991.016.574-.542.9-.583 1.517-.095 3.001 2.37 5.36 5.239 6.925 8.732.294.655.691 1.026 1.373 1.249 7.088 2.32 14.164 2.329 21.255.008.731-.24 1.114-.663 1.424-1.341 1.59-3.478 3.936-6.36 6.971-8.692.518-.398.815-.45 1.346.048 7.328 6.86 17.824 6.866 25.154.017.505-.471.806-.52 1.35-.087 5.734 4.545 8.85 10.447 9.107 17.767.123 3.494.027 6.997.031 10.496H66.035c.01-3.457.006-6.915.041-10.372.006-.625-.17-.72-.75-.584-6.088 1.437-12.183 1.439-18.27 0-.58-.137-.758-.04-.75.584.034 3.457.03 6.915.04 10.372-15.094 0-30.187-.007-45.28.022-.75 0-.909-.146-.899-.897.05-3.72.023-7.437.023-11.156z"/></g><g><path fill="#002e74" d="M78.963 38.856c.479 4.35.17 8.508.292 12.657.028.935-.191 1.224-1.188 1.221-12.03-.039-24.06-.025-36.09-.025-2.624 0-5.25-.016-7.874.01-.65.007-.992-.089-.972-.87.11-4.26-.19-8.527.26-12.796-.391-.044-.54.302-.742.513-5.095 5.282-8.15 11.55-9.13 18.835-.104.777.123.87.798.954 5.682.707 9.83 4.828 10.407 10.283.55 5.223-2.594 10.213-7.575 12.02-5.267 1.907-11.153-.286-13.944-5.198-2.718-4.783-1.603-10.953 2.655-14.45.587-.482.842-.976.905-1.729 1.285-15.312 8.81-26.435 22.49-33.41 1.187-.605 1.985-1.699 3.05-2.464.509-.364.783-.39 1.27.065 7.424 6.921 17.813 6.923 25.229.007.477-.445.799-.527 1.258-.06 1.79 1.815 4.099 2.841 6.234 4.148 11.23 6.877 17.623 16.913 19.18 29.97.212 1.766.61 3.083 1.963 4.403 3.813 3.727 4.253 9.706 1.343 14.174-2.884 4.43-8.457 6.325-13.44 4.57-5.051-1.777-8.23-6.758-7.685-12.044.555-5.388 4.698-9.565 10.299-10.26.93-.115.986-.404.873-1.194-1.033-7.316-4.148-13.592-9.321-18.856-.121-.123-.262-.229-.545-.474z"/></g><g><path fill="#002e74" d="M56.205 23.031c-6.372.01-11.573-5.178-11.555-11.523C44.668 5.205 49.826.031 56.123 0c6.358-.03 11.566 5.12 11.608 11.482.041 6.346-5.14 11.54-11.526 11.55z"/></g></g></svg>