<svg xmlns="http://www.w3.org/2000/svg" width="108" height="119" viewBox="0 0 108 119"><g><g><path fill="#002e74" d="M50.996 118.355c-2.123-.454-3.64-1.678-4.712-3.554-.711-1.241-1.85-1.918-3.302-2.025-.306-.024-.61-.092-.91-.153-1.511-.308-2.431-1.395-2.386-2.81.045-1.397 1.055-2.485 2.535-2.7.379-.055.768-.046 1.152-.047 6.93-.002 13.86-.003 20.792.002.46 0 .93.004 1.378.093 1.402.275 2.329 1.41 2.31 2.767-.02 1.334-.887 2.559-2.272 2.639-2.476.142-4.007 1.428-5.202 3.456-.83 1.408-2.326 1.929-3.834 2.332z"/></g><g><path fill="#002e74" d="M43.306 98.644c-.698.001-1.396-.037-2.028-.343-1.03-.5-1.568-1.399-1.564-2.506.005-1.164.578-2.174 1.704-2.504.944-.278.837-.773.73-1.449-.82-5.248-3.538-9.533-6.827-13.537-2.273-2.766-4.613-5.475-6.633-8.446-6.63-9.749-5.585-22.83.894-31.92 4.456-6.25 10.433-10.33 17.954-11.882 9.527-1.962 18.112.218 25.55 6.524 4.747 4.025 7.875 9.121 9.353 15.177 2.106 8.626.652 16.588-4.727 23.714-2.296 3.042-4.795 5.93-7.126 8.946-2.623 3.394-4.516 7.144-5.198 11.436-.11.69-.18 1.173.747 1.44 1.129.321 1.82 1.655 1.695 2.742-.148 1.28-.977 2.213-2.233 2.457a7.99 7.99 0 0 1-1.488.144c-3.467.011-6.934.005-10.401.005-3.468 0-6.935-.002-10.402.002zM31.438 51.3c1.002.258 1.836-.094 2.353-1.01.223-.397.356-.85.494-1.289 1.839-5.834 5.565-10.01 11.064-12.642.449-.215.912-.433 1.3-.737.668-.524.85-1.258.664-2.074-.178-.783-.68-1.25-1.444-1.49-.688-.217-1.283.022-1.886.287-5.189 2.282-9.127 5.943-11.86 10.883-1.044 1.885-1.857 3.882-2.226 5.89.018 1.2.53 1.92 1.54 2.182z"/></g><g><path fill="#002e74" d="M53.767 100.053c3.656 0 7.312-.025 10.967.01 2.252.02 3.607 1.808 2.92 3.746-.42 1.177-1.469 1.84-3.027 1.847-3.194.014-6.388.004-9.583.004-4.079 0-8.158-.003-12.237 0-1.262 0-2.277-.472-2.825-1.633-.479-1.015-.346-2.023.367-2.92.69-.867 1.638-1.062 2.681-1.06 3.58.01 7.158.005 10.737.006z"/></g><g><path fill="#002e74" d="M8.689 56.364c-1.808 0-3.617.04-5.423-.014-1.572-.047-2.624-.877-2.908-2.146-.282-1.268.189-2.426 1.28-3.062.258-.149.563-.285.854-.3 4.108-.23 8.224-.3 12.323.02 1.874.146 2.841 2.328 1.957 3.956-.623 1.15-1.671 1.53-2.89 1.543-1.731.02-3.462.005-5.193.003z"/></g><g><path fill="#002e74" d="M98.825 50.714c1.846 0 3.693-.028 5.54.01 1.197.025 2.183.533 2.671 1.679.435 1.024.313 2.034-.409 2.919-.634.779-1.52 1.03-2.465 1.036-3.539.02-7.078.039-10.617-.005-1.848-.023-3.044-1.152-3.088-2.748-.045-1.654 1.136-2.772 3.06-2.898.076-.005.153-.004.23-.004h5.078z"/></g><g><path fill="#002e74" d="M28.644 25.305c-.035 1.424-.499 2.296-1.461 2.786-1.035.528-2.182.542-3.031-.28-2.82-2.731-5.611-5.495-8.319-8.336-1.128-1.185-.919-2.881.228-3.933 1.025-.94 2.767-.896 3.87.188a859.87 859.87 0 0 1 7.763 7.754c.582.587.983 1.283.95 1.82z"/></g><g><path fill="#002e74" d="M15.129 89.363c-.026-.925.45-1.617 1.06-2.229 2.498-2.51 4.996-5.023 7.516-7.512 1.219-1.205 2.967-1.295 4.04-.268 1.176 1.123 1.249 2.857.018 4.127-2.597 2.682-5.252 5.311-7.915 7.928-.918.901-2.07 1.021-3.208.482-1.027-.486-1.495-1.396-1.511-2.528z"/></g><g><path fill="#002e74" d="M78.907 81.509c.017-1.211.535-2.027 1.49-2.533.913-.485 1.847-.45 2.731.11.29.185.57.4.812.64 2.482 2.47 4.954 4.948 7.431 7.422.885.882 1.308 1.923.905 3.142-.337 1.02-1.099 1.647-2.173 1.847-.89.167-1.717-.05-2.346-.671a891.643 891.643 0 0 1-8.073-8.083c-.527-.533-.815-1.207-.777-1.874z"/></g><g><path fill="#002e74" d="M78.909 25.657c-.046-.92.394-1.632 1.006-2.247 2.496-2.509 4.986-5.024 7.512-7.504 1.343-1.318 3.062-1.363 4.2-.199 1.119 1.143 1.08 2.817-.197 4.125a696.245 696.245 0 0 1-7.583 7.596c-.958.95-2.105 1.301-3.377.718-1.034-.472-1.52-1.362-1.561-2.489z"/></g><g><path fill="#002e74" d="M56.57 8.462c0 1.729.016 3.46-.004 5.189-.022 1.974-1.17 3.249-2.852 3.209-1.645-.038-2.729-1.274-2.74-3.206-.018-3.498-.02-6.996.002-10.494.012-1.908 1.15-3.16 2.792-3.16 1.642-.001 2.771 1.25 2.797 3.157.024 1.768.005 3.536.005 5.305z"/></g></g></svg>