<svg xmlns="http://www.w3.org/2000/svg" width="105" height="105" viewBox="0 0 105 105"><g><g><path fill="#002e74" d="M2.73 104.738c-1.77-.816-2.282-2.22-2.275-4.117.05-14.666.037-29.332.006-44-.002-.894.21-1.114 1.111-1.113 15.654.03 31.306.03 46.96.004.895-.002 1.185.178 1.183 1.144-.035 16.027-.025 32.054-.025 48.082zM28.236 73.64c-.016-.805.204-.835.846-.505a425.495 425.495 0 0 0 6.65 3.339c1.85.91 3.645.4 4.448-1.233.785-1.6.123-3.311-1.677-4.218-3.853-1.944-7.71-3.88-11.58-5.791-2.567-1.268-4.78.117-4.793 2.982-.014 2.824-.02 5.65.009 8.473.007.624-.09.852-.776.654-6.17-1.777-12.357 3.634-11.348 10.232.659 4.31 4.547 7.743 9.026 7.764 4.448.022 8.482-3.426 9.05-7.721.334-2.51.057-5.032.16-7.101 0-2.588.03-4.732-.014-6.875z"/></g><g><path fill="#002e74" d="M105.023 49.406c-16.027 0-32.055-.01-48.083.023-.965.002-1.145-.287-1.143-1.183.026-15.652.027-31.305-.004-46.96-.001-.901.219-1.112 1.115-1.11C71.574.206 86.241.22 100.907.17c1.897-.007 3.301.505 4.116 2.274zM95.834 13.25c-.005-3.082-2.173-4.447-4.917-3.087a1596.74 1596.74 0 0 0-10.392 5.193 3.286 3.286 0 0 1-1.557.366c-3.435-.015-6.871-.015-10.307-.005-2.246.007-3.446 1.22-3.451 3.487-.008 3.81-.009 7.62.001 11.43.005 2.249 1.217 3.448 3.483 3.454 3.334.009 6.668.017 10.001-.008a4.283 4.283 0 0 1 2.046.467 1229.05 1229.05 0 0 0 10.206 5.109c2.689 1.33 4.88-.035 4.886-3.035.008-3.912.002-7.824.002-11.736 0-3.878.004-7.756-.001-11.635z"/></g><g><path fill="#002e74" d="M55.816 104.737c0-4.455.013-8.91-.015-13.366-.004-.636.189-1.068.638-1.506 3.726-3.633 7.443-7.274 11.123-10.953.588-.588.89-.519 1.432.031a751.406 751.406 0 0 0 9.235 9.234c1.84 1.807 4.61 1.108 5.245-1.276.309-1.16-.058-2.149-.87-2.982-1.067-1.097-2.134-2.197-3.25-3.243-.516-.483-.526-.776-.008-1.28a324.523 324.523 0 0 0 6.635-6.64c.556-.576.837-.493 1.355.03 5.657 5.692 11.339 11.362 17.017 17.037.215.215.446.415.67.622v12.046a4.72 4.72 0 0 1-2.246 2.246z"/></g><g><path fill="#002e74" d="M105.023 81.665c-.397-.091-.587-.442-.844-.698-4.94-4.926-9.871-9.859-14.806-14.789-1.975-1.974-3.485-1.965-5.484.031-2.866 2.861-5.762 5.692-8.572 8.606-.771.8-1.203.74-1.871-.042-.728-.851-1.574-1.599-2.37-2.392-2.057-2.052-3.512-2.069-5.563-.06-2.918 2.858-5.833 5.716-8.752 8.572-.256.25-.53.48-.945.857v-1.177c0-7.962.014-15.925-.02-23.887-.004-.9.186-1.181 1.147-1.179 16.027.033 32.054.023 48.08.023z"/></g><g><path fill="#002e74" d="M49.709 48.416c.003.801-.205 1.009-1.007 1.007-15.755-.025-31.51-.023-47.264-.002-.734.001-.976-.143-.974-.937C.49 33.547.481 18.608.486 3.67.486 1.412 1.697.201 3.955.2 18.893.195 33.832.205 48.77.179c.792-.002.939.237.937.972-.026 7.895-.017 15.789-.017 23.684 0 7.86-.012 15.721.019 23.581zM15.994 36.608c-.008 1.397.378 2.555 1.678 3.241 1.269.668 2.414.309 3.534-.44 5.817-3.893 11.649-7.765 17.47-11.655 2.461-1.645 2.442-4.066-.041-5.726-5.793-3.87-11.595-7.725-17.384-11.601-1.149-.77-2.321-1.154-3.622-.446-1.292.702-1.645 1.875-1.636 3.266.024 3.876.008 7.753.008 11.63 0 3.91.014 7.821-.007 11.731z"/></g><g><path fill="#002e74" d="M16.009 86.139c.01-1.666 1.408-3.047 3.073-3.036 1.666.01 3.047 1.407 3.036 3.073-.01 1.666-1.407 3.047-3.072 3.036-1.667-.01-3.048-1.407-3.037-3.073z"/></g><g><path fill="#002e74" d="M89.71 24.97c0 2.14-.018 4.28.01 6.42.01.669-.166.75-.738.453a188.45 188.45 0 0 0-4.823-2.413c-.42-.203-.59-.444-.586-.926.025-2.411.022-4.822.003-7.234-.004-.43.126-.674.52-.864a185.914 185.914 0 0 0 4.914-2.456c.665-.347.711-.066.706.5-.017 2.173-.006 4.347-.006 6.52z"/></g><g><path fill="#002e74" d="M71.41 24.898c0-.978-.386-2.292.1-2.847.566-.648 1.91-.16 2.916-.204.814-.035 1.63.011 2.445-.012.431-.013.6.124.595.576-.02 1.664-.014 3.33-.004 4.993.002.358-.069.57-.498.565a247.138 247.138 0 0 0-5.094.003c-.487.007-.548-.236-.54-.628.015-.815.004-1.63.004-2.445h.075z"/></g><g><path fill="#002e74" d="M22.206 18.435c3.14 2.089 6.16 4.104 9.188 6.107.41.27.4.457-.002.725-3.028 2.004-6.048 4.018-9.185 6.106z"/></g></g></svg>