<svg xmlns="http://www.w3.org/2000/svg" width="95" height="107" viewBox="0 0 95 107"><g><g><path fill="#002e74" d="M3.16 106.804c-1.807-.833-2.329-2.266-2.323-4.202.047-18.134.027-36.269.028-54.403 0-2.866 1.095-3.959 3.964-3.96 3.787-.001 7.573-.02 11.36.006 4.641.032 8.156 2.695 9.38 7.087.272.973.323 1.982.323 2.993-.002 14.105-.056 28.209.027 42.314.03 5.274-3.338 9.395-8.195 10.06-.062.008-.117.069-.175.105zm10.226-15.672c-.018 1.7 1.387 3.134 3.09 3.151 1.7.017 3.132-1.387 3.15-3.09.017-1.701-1.388-3.133-3.09-3.151-1.7-.018-3.133 1.388-3.15 3.09z"/></g><g><path fill="#002e74" d="M62.917 50.496h7.347c5.976 0 11.953-.027 17.928.01 4.636.027 7.646 4.21 6.087 8.431-.793 2.15-2.426 3.406-4.905 4.03 3.308 1.018 5.302 2.99 5.289 6.3-.012 3.275-1.918 5.282-5.033 6.178.155.382.491.321.723.4 2.856.973 4.664 3.734 4.303 6.611-.384 3.06-2.741 5.351-5.841 5.535-1.728.104-3.468.02-5.224.098.813.378 1.659.651 2.357 1.22 2.083 1.696 2.927 3.87 2.28 6.478-.647 2.607-2.405 4.151-5.044 4.647-.576.108-1.175.108-1.764.11-9.277.005-18.555-.014-27.832.012a34.356 34.356 0 0 1-10.953-1.745c-3.195-1.056-6.379-2.14-9.58-3.17-.65-.21-.93-.452-.929-1.207.028-14.489.02-28.978.021-43.467 0-.479-.084-.922.61-1.107 6.133-1.624 10.114-5.829 13.122-11.129 2.988-5.264 4.713-11.014 6.275-16.819.559-2.077 1.654-2.859 3.829-2.916 3.463-.09 6.427.911 8.618 3.733 1.4 1.805 1.883 3.882 1.966 6.127.264 7.08-1.125 13.875-3.401 20.53-.09.262-.17.528-.247.795-.018.062-.002.134-.002.315z"/></g><g><path fill="#002e74" d="M60.297 6.45c0 1.04.025 2.081-.005 3.121-.054 1.872-1.381 3.19-3.154 3.17-1.733-.02-3.046-1.316-3.08-3.137-.04-2.15-.042-4.3 0-6.452.037-1.813 1.366-3.108 3.098-3.117 1.734-.01 3.066 1.278 3.132 3.084.04 1.108.008 2.22.009 3.33z"/></g><g><path fill="#002e74" d="M34.17 11.651c-.005-1.26.55-2.224 1.66-2.794 1.103-.566 2.289-.569 3.237.245a46.378 46.378 0 0 1 5.145 5.155c.989 1.168.757 2.902-.333 3.984-1.09 1.081-2.821 1.3-3.986.303-1.845-1.58-3.538-3.33-5.161-5.142-.428-.477-.576-1.102-.562-1.75z"/></g><g><path fill="#002e74" d="M80.18 11.572c.027.885-.294 1.64-.905 2.258-1.466 1.481-2.917 2.978-4.431 4.41-1.333 1.26-3.175 1.214-4.394-.017-1.192-1.2-1.261-3.024-.048-4.316 1.472-1.569 3.008-3.082 4.563-4.57.97-.929 2.164-1.089 3.385-.555 1.187.52 1.789 1.488 1.83 2.79z"/></g></g></svg>