<svg xmlns="http://www.w3.org/2000/svg" width="109" height="108" viewBox="0 0 109 108"><g><g><path fill="#002e74" d="M104.737 22.42c1.729.185 3.084.812 3.766 2.51v1.68c-1.412 2.253-3.555 3.818-5.396 5.662-.751.753-1.018 1.404-.776 2.467.442 1.942.69 3.927 1.035 5.89.227 1.293-.141 2.377-1.168 3.173-1.067.826-2.246.903-3.45.27-1.952-1.021-3.912-2.028-5.845-3.087-.59-.323-1.058-.32-1.647.005-1.868 1.03-3.771 1.996-5.654 3-1.258.67-2.486.699-3.642-.19-1.124-.861-1.38-2.035-1.134-3.383.389-2.134.732-4.276 1.134-6.407.105-.56-.072-.912-.461-1.282-1.547-1.473-3.055-2.988-4.604-4.458-1.03-.977-1.511-2.11-1.065-3.496.445-1.383 1.473-2.032 2.895-2.215 2.15-.28 4.289-.652 6.44-.932.567-.074.844-.323 1.078-.812.936-1.956 1.928-3.885 2.869-5.838.6-1.245 1.518-2.008 2.929-2.024 1.46-.015 2.405.769 3.023 2.047.945 1.95 1.932 3.882 2.867 5.839.237.495.526.715 1.089.783 1.91.23 3.804.597 5.717.799zm-60.644-2.305c-1.555-1.464-3.06-2.982-4.604-4.458-1.021-.973-1.521-2.092-1.065-3.491.453-1.387 1.472-2.028 2.894-2.212 2.15-.277 4.289-.655 6.44-.935.566-.075.842-.321 1.076-.81.887-1.863 1.854-3.688 2.714-5.563.493-1.076 1.256-1.81 2.285-2.318h1.683c1.217.537 1.93 1.509 2.472 2.694.799 1.748 1.703 3.449 2.528 5.185.232.488.506.727 1.077.8 2.186.28 4.36.649 6.543.956 1.373.193 2.353.859 2.789 2.204.438 1.353-.008 2.466-.991 3.42-1.56 1.51-3.097 3.044-4.678 4.532-.438.414-.546.822-.44 1.392.394 2.132.742 4.273 1.129 6.407.239 1.322-.081 2.45-1.154 3.277-1.111.856-2.315.879-3.547.228-1.948-1.03-3.907-2.04-5.842-3.093-.521-.283-.932-.28-1.456.008-1.902 1.042-3.836 2.023-5.75 3.043-1.26.67-2.49.704-3.641-.19-1.108-.863-1.39-2.018-1.131-3.38.398-2.096.722-4.206 1.109-6.305.106-.57-.002-.98-.44-1.391zm30.66 66.42c5.922 1.41 10.245 6.757 10.394 12.838.043 1.716.023 3.434.014 5.15-.012 2.174-1.293 3.458-3.472 3.46-9.04.006-18.08.002-27.121.002H27.973c-2.602 0-3.81-1.182-3.78-3.78.028-2.376-.276-4.785.279-7.124 1.377-5.803 5.03-9.382 10.837-10.723 1.873-.433 3.795-.671 5.655-1.15 1.058-.271 1.147.097 1.107.97-.145 3.122.71 5.949 2.607 8.449 3.205 4.227 8.842 5.975 13.92 4.313 5.059-1.656 8.597-6.424 8.689-11.712.039-2.208.04-2.213 2.225-1.774 1.749.352 3.507.669 5.242 1.082zM27.323 43.852c-1.098.8-2.267.82-3.46.192-1.887-.994-3.788-1.962-5.654-2.994-.65-.358-1.161-.397-1.831-.021-1.83 1.027-3.712 1.957-5.562 2.947-1.256.673-2.482.73-3.64-.16-1.107-.853-1.423-1.99-1.158-3.363.405-2.094.72-4.206 1.106-6.303.113-.613-.031-1.043-.493-1.478-1.53-1.44-3.006-2.936-4.524-4.388-1.012-.968-1.553-2.066-1.097-3.48.448-1.391 1.45-2.054 2.872-2.236 2.012-.258 4.012-.61 6.026-.851.847-.103 1.346-.422 1.705-1.238.758-1.727 1.683-3.38 2.477-5.093.649-1.401 1.527-2.446 3.204-2.434 1.622.013 2.494 1.015 3.13 2.384.842 1.807 1.78 3.567 2.63 5.369.265.557.562.846 1.22.928 2.22.276 4.433.63 6.644.979 1.699.268 2.769 1.526 2.75 3.176.013.98-.448 1.737-1.126 2.396-1.532 1.488-3.042 2.999-4.601 4.459-.49.458-.646.882-.513 1.554.418 2.127.766 4.268 1.125 6.407.22 1.313-.127 2.442-1.23 3.248zm5.306 4.028c-.47-5.356 3.36-10.305 8.65-11.208a13.514 13.514 0 0 1 2.298-.177c6.337 0 12.675-.003 19.012 0 4.783.004 7.848 3.09 7.856 7.904.003 1.89-.045 3.783.02 5.67.032.882-.146 1.189-1.12 1.172-3.851-.067-7.703-.027-11.554-.027-3.886 0-7.773.019-11.66-.017-.727-.006-.98.173-.934.924.065 1.08.032 2.17.012 3.255-.027 1.395-.787 2.135-2.16 2.14-5.282.017-9.953-4.302-10.42-9.636zm33.749 25.426c-4.5 4.81-10.071 6.443-16.35 4.493-6.222-1.933-9.87-6.37-10.943-12.837-.267-1.607-.228-1.605 1.357-1.37 1.669.249 3.346.429 5-.055 2.74-.801 4.629-2.554 5.597-5.235.217-.6.469-.797 1.099-.794 5.813.024 11.626.024 17.44 0 .673-.003.928.162.882.866-.06.907-.014 1.82-.014 3.137.262 4.2-.878 8.385-4.068 11.795zm-6.574 10.909c.973-.262 1.339-.111 1.187.925-.046.307-.007.629-.007.944-.001 3.824-1.771 6.315-4.996 7.027-3.774.834-7.444-1.975-7.605-5.845-.042-1.014-.391-2.353.109-2.961.575-.701 1.809.187 2.767.31 2.878.373 5.737.355 8.545-.4z"/></g></g></svg>