<svg xmlns="http://www.w3.org/2000/svg" width="58" height="57" viewBox="0 0 58 57"><g><g><path fill="#002e74" d="M57.705 20.96c-.259 1.183-.645 2.307-1.418 3.27-1.249 1.555-2.868 2.429-4.843 2.593-.466.039-.53.199-.517.592.024.74-.027 1.484.018 2.223.03.487-.146.569-.59.565-2.682-.021-5.365-.011-8.046-.011h-.674c.28.803.558 1.544.798 2.299.676 2.128-.834 4.3-3.03 4.372a3.336 3.336 0 0 1-3.297-4.341c.2-.636.42-1.266.668-1.883.158-.387.051-.455-.33-.453-2.757.012-5.512-.006-8.269.019-.477.004-.576-.139-.567-.589.032-1.315.02-2.632.006-3.948-.003-.318.028-.474.428-.503 3.546-.262 6.24-3.152 6.238-6.656 0-3.502-2.699-6.389-6.243-6.651-.343-.025-.429-.118-.425-.451.018-1.39.016-2.78.001-4.17-.003-.31.08-.419.402-.411.85.021 1.701.005 2.552.009.214 0 .382.013.394-.302.108-3.05 2.427-5.901 5.68-6.417.03-.005.054-.045.082-.068H38.5c.063.032.124.08.19.094 3.162.657 5.327 3.083 5.564 6.276.025.35.128.424.454.422 1.904-.014 3.81.006 5.713-.017.41-.005.53.094.524.517-.024 1.89 0 3.78-.019 5.669-.003.367.07.491.47.523 1.997.16 3.631 1.034 4.895 2.602.774.961 1.156 2.087 1.415 3.269z"/></g><g><path fill="#002e74" d="M23.623 57c-1.132-.253-2.291-.343-3.42-.63-7.088-1.805-12.451-5.9-16.129-12.21-1.825-3.132-2.838-6.535-3.182-10.145-.04-.405.063-.496.455-.494 2.811.016 5.624.009 8.435.007.143 0 .285-.015.484-.028-.276-.787-.555-1.529-.796-2.284a3.318 3.318 0 0 1 1.283-3.774 3.305 3.305 0 0 1 3.976.164 3.325 3.325 0 0 1 1.067 3.607c-.19.6-.389 1.198-.63 1.778-.177.424-.132.553.367.549 2.738-.022 5.477-.001 8.214-.02.428-.003.563.097.554.544a109.016 109.016 0 0 0-.005 4.003c.004.34-.067.463-.444.49-3.039.213-5.567 2.463-6.107 5.398a6.683 6.683 0 0 0 3.789 7.321c.729.337 1.496.558 2.296.583.41.013.472.163.467.526-.019 1.538-.008 3.076-.008 4.615z"/></g><g><path fill="#002e74" d="M27.62 57c0-2.965-.009-5.931.01-8.896.001-.439-.07-.553-.508-.369-.577.244-1.178.437-1.775.627-1.394.442-2.906-.084-3.775-1.297-.82-1.144-.814-2.601.014-3.733.886-1.211 2.383-1.72 3.782-1.268.734.238 1.46.504 2.251.778v-1.44c0-2.446.013-4.893-.01-7.339-.005-.449.128-.552.554-.543 1.35.026 2.7.018 4.051.003.306-.003.392.086.418.398.27 3.391 2.831 6.005 6.116 6.267 3.292.263 6.246-1.928 7.027-5.221.07-.287.144-.586.134-.876-.017-.451.13-.588.595-.574 1.257.037 2.516.037 3.773 0 .485-.014.582.131.536.59-.528 5.276-2.45 9.973-5.869 14.019-3.96 4.687-8.98 7.562-15.029 8.617-.542.094-1.102.076-1.629.257z"/></g><g><path fill="#002e74" d="M24.29 20.874v.667c0 2.707-.013 5.413.011 8.119.003.45-.132.55-.556.542a118.289 118.289 0 0 0-3.996-.002c-.356.006-.45-.095-.478-.456-.242-3.317-2.854-5.959-6.112-6.211-3.263-.253-6.187 1.884-6.993 5.116-.08.323-.172.656-.166.982.01.453-.132.586-.597.574a108.076 108.076 0 0 0-4.106-.006c-.334.004-.452-.066-.409-.431C2.013 20.07 7.046 13.19 15.815 9.027c2.442-1.159 5.05-1.768 7.733-2.051.741-.078.741-.08.741.682v7.897c0 .607.001.607.593.397.556-.197 1.11-.408 1.673-.589 1.394-.449 2.9.069 3.774 1.285.814 1.134.825 2.551.026 3.687-.855 1.217-2.382 1.772-3.762 1.34-.754-.236-1.494-.518-2.304-.801z"/></g></g></svg>