<svg xmlns="http://www.w3.org/2000/svg" width="65" height="52" viewBox="0 0 65 52"><g><g><path fill="#002e74" d="M32.563 51.999c-3.479 0-6.957.002-10.435-.001-1.62-.001-2.453-.844-2.455-2.48-.002-2.14-.008-4.281.003-6.421.031-6.051 4.717-11.498 10.692-12.44 7.037-1.11 13.4 3.279 14.87 10.255.18.855.222 1.719.218 2.591-.011 2.029 0 4.058-.005 6.087-.004 1.564-.836 2.406-2.387 2.408-3.501.004-7.001.001-10.501.001z"/></g><g><path fill="#002e74" d="M56.43 43.437c-2.029 0-4.057-.012-6.085.009-.495.005-.717-.13-.742-.663-.116-2.454-.675-4.798-1.795-7-1.503-2.957-3.657-5.306-6.514-6.994-.478-.283-.62-.493-.279-1.022 2.886-4.48 8.404-6.71 13.754-5.526 5.037 1.114 9.09 5.504 9.815 10.652.287 2.04.075 4.095.13 6.142.02.735.012 1.47 0 2.206-.024 1.289-.909 2.182-2.2 2.192-2.028.014-4.057.004-6.085.004z"/></g><g><path fill="#002e74" d="M8.696 43.437c-1.983 0-3.967.005-5.95-.002C1.3 43.43.415 42.547.41 41.105c-.006-2.229-.012-4.458.002-6.687.041-5.991 4.855-11.524 10.801-12.325 5.37-.724 9.656 1.156 12.811 5.572.497.696.467.696-.253 1.151-4.92 3.112-7.692 7.537-8.197 13.367-.129 1.5.038 1.236-1.328 1.25-1.85.018-3.7.004-5.55.004z"/></g><g><path fill="#002e74" d="M32.597 9.096c4.798.005 8.582 3.826 8.574 8.658-.008 4.788-3.841 8.568-8.676 8.558-4.773-.009-8.552-3.856-8.541-8.693.012-4.745 3.848-8.527 8.643-8.523z"/></g><g><path fill="#002e74" d="M13.281.534c4.82-.002 8.625 3.795 8.625 8.606 0 4.815-3.804 8.613-8.624 8.61-4.795-.002-8.596-3.824-8.592-8.64A8.557 8.557 0 0 1 13.281.533z"/></g><g><path fill="#002e74" d="M43.218 9.108c.004-4.789 3.833-8.58 8.66-8.574 4.787.007 8.567 3.837 8.557 8.674-.01 4.776-3.854 8.554-8.692 8.542-4.739-.012-8.528-3.853-8.525-8.642z"/></g></g></svg>