<svg width="12" height="12" viewBox="0 0 12 12" fill="none" xmlns="http://www.w3.org/2000/svg">
<path d="M11.9695 3.15206C11.8992 2.94113 11.7305 2.75128 11.5195 2.64581C11.4188 2.59659 11.3695 2.58956 11.168 2.58956C10.7578 2.58956 10.9922 2.38566 8.33906 5.03644L6 7.37081L3.66328 5.03644C1.00781 2.38566 1.24219 2.58956 0.832031 2.58956C0.61875 2.58956 0.585938 2.59659 0.461719 2.65753C0.302344 2.73956 0.15 2.89425 0.0703125 3.05831C0.01875 3.15909 0.0117188 3.20831 0.0117188 3.42159C0.0117188 3.64659 0.0164063 3.67941 0.0773438 3.79659C0.133594 3.90206 0.644531 4.42472 2.80781 6.59034C5.02031 8.80519 5.49609 9.26925 5.61328 9.33253C5.74688 9.40519 5.76562 9.40988 6 9.40988C6.23438 9.40988 6.25313 9.40519 6.38672 9.33253C6.50391 9.26925 6.97969 8.80519 9.19219 6.59034C11.3906 4.38956 11.8664 3.90206 11.9203 3.79659C11.9742 3.68878 11.9859 3.63253 11.993 3.45675C11.9977 3.3255 11.9883 3.21066 11.9695 3.15206Z" fill="#222222"/>
</svg>
