<svg width="24" height="24" viewBox="0 0 24 24" fill="none" xmlns="http://www.w3.org/2000/svg">
<path fill-rule="evenodd" clip-rule="evenodd" d="M9.32867 0.648101C7.75751 0.811299 6.19259 1.43708 4.84315 2.44185C4.3431 2.81419 3.42445 3.7329 3.05136 4.23381C1.8926 5.78949 1.27312 7.55378 1.20649 9.48817C1.16683 10.6408 1.30627 11.6332 1.65914 12.709C2.09942 14.0514 2.8558 15.2881 3.85726 16.303C5.32543 17.7908 7.18081 18.7048 9.25347 18.961C9.81144 19.0301 11.2377 18.9926 11.7693 18.895C13.0057 18.6681 14.1057 18.2425 15.1007 17.606L15.4857 17.3597L18.1835 20.1995C19.6674 21.7614 20.943 23.0919 21.0184 23.1562C21.4906 23.5588 22.3121 23.4479 22.6726 22.9328C22.8537 22.674 22.9098 22.5045 22.9138 22.2042C22.9202 21.7204 22.8891 21.6823 20.0383 18.6839C18.6122 17.1839 17.4001 15.9021 17.3448 15.8354L17.2442 15.7143L17.4797 15.4088C19.0757 13.3385 19.6943 10.615 19.1735 7.95068C18.9132 6.61938 18.2319 5.15577 17.3631 4.06152C15.4171 1.6108 12.4003 0.32906 9.32867 0.648101ZM11.1326 3.06812C13.9851 3.45303 16.2443 5.56916 16.8497 8.42311C16.9699 8.9902 17.0148 10.1244 16.9384 10.6653C16.7194 12.2158 16.0752 13.5402 15.02 14.6096C14.0026 15.6406 12.7407 16.2945 11.3092 16.5324C10.8289 16.6122 9.77401 16.6125 9.25901 16.5331C7.40333 16.2467 5.72249 15.1552 4.68981 13.5659C4.32076 12.9979 4.1223 12.5866 3.91817 11.9669C3.69609 11.2928 3.60774 10.7879 3.57942 10.0304C3.43729 6.23265 6.46031 3.04134 10.2302 3.00943C10.472 3.00738 10.8782 3.03376 11.1326 3.06812Z" fill="#3B71FE"/>
</svg>
