<svg width="14" height="14" viewBox="0 0 14 14" fill="none" xmlns="http://www.w3.org/2000/svg">
<path d="M6.48877 1.25968C6.67505 0.800681 7.32495 0.800681 7.51123 1.25968L8.95391 4.8145C9.033 5.00938 9.21601 5.14235 9.4258 5.15734L13.2524 5.43092C13.7465 5.46624 13.9474 6.08433 13.5684 6.40333L10.6334 8.87391C10.4725 9.00935 10.4026 9.22449 10.4531 9.42864L11.3755 13.1525C11.4945 13.6334 10.9688 14.0154 10.5483 13.7535L7.29164 11.7256C7.11311 11.6144 6.88689 11.6144 6.70836 11.7256L3.45173 13.7535C3.03123 14.0154 2.50546 13.6334 2.62455 13.1525L3.54686 9.42864C3.59742 9.22449 3.52752 9.00935 3.36662 8.87391L0.431595 6.40333C0.052626 6.08433 0.253455 5.46624 0.747551 5.43092L4.5742 5.15734C4.78399 5.14235 4.967 5.00938 5.04609 4.8145L6.48877 1.25968Z" fill="#DDDDDD"/>
</svg>
