<svg xmlns="http://www.w3.org/2000/svg" width="182" height="24" viewBox="0 0 182 24"><g><g><g><path fill="#fff" d="M16 8v4H4v2h10a2 2 0 0 1 2 2v6a2 2 0 0 1-2 2H0v-4h12v-2H2a2 2 0 0 1-2-2v-6a2 2 0 0 1 2-2zm76 4h-8v12h-4V12h-6a2 2 0 0 1-2-2V8h18a2 2 0 0 1 2 2zM22 24h-4V8h14a2 2 0 0 1 2 2v6a2 2 0 0 1-2 2H22zm0-12v2h8v-2zm14-2a2 2 0 0 1 2-2h12a2 2 0 0 1 2 2v12a2 2 0 0 1-2 2H38a2 2 0 0 1-2-2zm4 2v8h8v-8zm18 12h-4V8h14a2 2 0 0 1 2 2v6a2 2 0 0 1-2 2h-2l4 6h-5l-4-6h-3zm0-12v2h8v-2zm52-4v4H98v2h10a2 2 0 0 1 2 2v6a2 2 0 0 1-2 2H94v-4h12v-2H96a2 2 0 0 1-2-2v-6a2 2 0 0 1 2-2z"/></g><g><path fill="#ff7373" d="M16 4a2 2 0 0 1-2 2H2a2 2 0 0 1-2-2V0h3l1 2h1l1-2h4l1 2h1l1-2h3zm100 20h-4V8h4v6h8V8h4v16h-4v-6h-8zm14-14a2 2 0 0 1 2-2h12a2 2 0 0 1 2 2v12a2 2 0 0 1-2 2h-12a2 2 0 0 1-2-2zm4 2v8h8v-8zm32-4h12a4 4 0 0 1 4 4v8a4 4 0 0 1-4 4h-12zm4 4v8h8v-8zm-22-4h4v12h12v2a2 2 0 0 1-2 2h-12a2 2 0 0 1-2-2z"/></g></g></g></svg>