<svg width="28" height="30" viewBox="0 0 28 30" fill="none" xmlns="http://www.w3.org/2000/svg">
<path fill-rule="evenodd" clip-rule="evenodd" d="M14 28.167C21.732 28.167 28 21.899 28 14.167C28 6.43501 21.732 0.166992 14 0.166992C6.26801 0.166992 0 6.43501 0 14.167C0 18.2895 1.78186 21.9959 4.61743 24.5579C4.70712 25.5433 4.62734 26.6014 4.35963 27.8226C4.18059 28.6392 4.09107 29.0476 4.23267 29.3532C4.32655 29.5558 4.51433 29.7442 4.71662 29.8387C5.02175 29.9813 5.35164 29.9101 6.01143 29.7677C7.71594 29.3998 9.49031 28.6829 10.9326 27.8299C11.9198 28.0506 12.9463 28.167 14 28.167Z" fill="white"/>
<circle cx="8.86631" cy="14.6329" r="1.4" fill="#FF4C00"/>
<circle cx="13.5335" cy="14.6329" r="1.4" fill="#FF4C00"/>
<circle cx="18.2" cy="14.6329" r="1.4" fill="#FF4C00"/>
</svg>
