<svg width="51" height="52" viewBox="0 0 51 52" fill="none" xmlns="http://www.w3.org/2000/svg">
<g opacity="0.8">
<path d="M33.0803 30.3648C33.0803 30.3648 30.1353 33.9346 25.0484 33.9346C19.9615 33.9346 17.0165 30.3648 17.0165 30.3648" stroke="white" stroke-width="2" stroke-miterlimit="10" stroke-linecap="round"/>
<path fill-rule="evenodd" clip-rule="evenodd" d="M30.5685 4.90967C30.6781 4.20196 30.9023 3.55133 31.2175 2.99358C29.7595 2.72658 28.2887 2.59177 26.8332 2.59177C15.3976 2.59177 5.98447 6.50587 1.9157 15.495L1.91562 15.4952C-1.64504 23.3661 0.0711286 31.0809 4.48841 36.6113C8.79195 41.9992 15.6885 45.353 22.811 44.7886C24.3215 46.328 25.3721 48.7334 25.2983 50.9468C25.2887 51.2362 25.405 51.5156 25.6171 51.7127C25.8292 51.9098 26.1164 52.0053 26.4043 51.9744C27.8318 51.8215 29.9195 51.108 31.6687 49.8083C33.221 48.6548 34.5987 46.9638 34.908 44.7092C38.1052 44.4241 41.3405 42.7184 43.9447 40.3789C46.8067 37.8077 49.0511 34.3431 49.6814 30.8138C51.3878 21.8127 48.8501 14.7239 44.2454 9.89605C43.9702 9.60752 43.6879 9.32729 43.3988 9.0554C42.9851 9.55656 42.5068 10.0369 42.0063 10.4914C42.277 10.7452 42.5411 11.0069 42.7982 11.2764C46.9385 15.6174 49.3091 22.0472 47.7154 30.4461L47.7154 30.4461L47.7134 30.4572C47.1821 33.4407 45.2329 36.533 42.6081 38.8911C39.9781 41.2538 36.8147 42.7514 33.9727 42.7514C33.4204 42.7514 32.9727 43.1991 32.9727 43.7514C32.9727 45.6528 31.9239 47.127 30.4759 48.2029C29.4298 48.9802 28.2376 49.4985 27.2514 49.7729C26.9791 47.181 25.6346 44.6288 23.8452 43.0098C23.6349 42.8196 23.3537 42.7275 23.0716 42.7567C16.5255 43.4324 10.065 40.3884 6.05112 35.3631C2.05723 30.3628 0.516005 23.4417 3.73775 16.3197C7.34392 8.35261 15.7795 4.59177 26.8332 4.59177C28.0738 4.59177 29.3258 4.69859 30.5685 4.90967Z" fill="white"/>
<path d="M37.6314 14.3902C37.6314 13.2301 30.4919 9.8388 30.4919 5.91208C30.4919 1.89612 34.0617 -0.959676 37.6314 2.78855C41.2012 -1.04892 44.7709 1.89612 44.7709 5.91208C44.7709 9.8388 37.6314 13.2301 37.6314 14.3902Z" stroke="white" stroke-width="2" stroke-miterlimit="10" stroke-linecap="round" stroke-linejoin="round"/>
</g>
</svg>
