<svg width="55" height="54" viewBox="0 0 55 54" fill="none" xmlns="http://www.w3.org/2000/svg">
<g opacity="0.8">
<path d="M20.6402 26.8319C20.2159 26.4783 19.5853 26.5356 19.2318 26.9599C18.8782 27.3842 18.9355 28.0148 19.3598 28.3683L20.6402 26.8319ZM26 32.6001L25.3598 33.3683C25.5648 33.5391 25.8295 33.6209 26.095 33.5956C26.3606 33.5702 26.605 33.4398 26.774 33.2333L26 32.6001ZM35.774 22.2333C36.1237 21.8059 36.0607 21.1759 35.6332 20.8261C35.2058 20.4764 34.5758 20.5394 34.226 20.9669L35.774 22.2333ZM19.3598 28.3683L25.3598 33.3683L26.6402 31.8319L20.6402 26.8319L19.3598 28.3683ZM26.774 33.2333L35.774 22.2333L34.226 20.9669L25.226 31.9669L26.774 33.2333Z" fill="white"/>
<path d="M31.9158 2L32.753 1.45321L32.1635 0.550566L31.3077 1.20612L31.9158 2ZM27.4803 5.39737L26.8722 6.19125L27.4803 6.65701L28.0884 6.19125L27.4803 5.39737ZM23.0448 2L23.6529 1.20612L22.7891 0.54448L22.2026 1.46095L23.0448 2ZM20.025 6.71857L19.7189 7.6706L20.4521 7.90626L20.8672 7.25763L20.025 6.71857ZM14.7401 5.01989L15.0462 4.06786L14.0038 3.73282L13.7644 4.80118L14.7401 5.01989ZM13.5133 10.4934L13.5641 11.4921L14.3229 11.4536L14.4891 10.7121L13.5133 10.4934ZM7.9454 10.7765L7.89462 9.77784L6.80832 9.83307L6.95447 10.9109L7.9454 10.7765ZM8.70038 16.3445L9.08618 17.267L9.79446 16.9709L9.69131 16.2101L8.70038 16.3445ZM3.50994 18.515L3.12414 17.5924L2.11372 18.015L2.62616 18.9829L3.50994 18.515ZM6.05797 23.328L6.73908 24.0601L7.30057 23.5378L6.94176 22.8601L6.05797 23.328ZM2 27.1028L1.3189 26.3706L0.531795 27.1028L1.3189 27.835L2 27.1028ZM6.05797 30.8777L6.94547 31.3385L7.29594 30.6635L6.73908 30.1455L6.05797 30.8777ZM3.50994 35.785L2.62245 35.3242L2.12179 36.2884L3.12414 36.7076L3.50994 35.785ZM8.70038 37.9555L9.69131 38.0899L9.79446 37.3291L9.08618 37.033L8.70038 37.9555ZM7.9454 43.5235L6.95447 43.3891L6.80832 44.4669L7.89462 44.5222L7.9454 43.5235ZM13.5133 43.8066L14.4891 43.5879L14.3229 42.8464L13.5641 42.8079L13.5133 43.8066ZM14.7401 49.2801L13.7644 49.4988L14.0038 50.5672L15.0462 50.2321L14.7401 49.2801ZM20.025 47.5814L20.8672 47.0424L20.4521 46.3937L19.7189 46.6294L20.025 47.5814ZM23.0448 52.3L22.2026 52.8391L22.797 53.7678L23.6634 53.0857L23.0448 52.3ZM27.4803 48.8083L28.0884 48.0144L27.4719 47.5422L26.8617 48.0225L27.4803 48.8083ZM31.9158 52.2056L31.3077 52.9995L32.1715 53.6611L32.758 52.7447L31.9158 52.2056ZM34.9356 47.487L35.2417 46.535L34.5085 46.2994L34.0934 46.948L34.9356 47.487ZM40.2204 49.1857L39.9144 50.1378L40.9568 50.4728L41.1962 49.4044L40.2204 49.1857ZM41.4473 43.7122L41.3965 42.7135L40.6377 42.7521L40.4715 43.4935L41.4473 43.7122ZM47.0152 43.4291L47.066 44.4278L48.1523 44.3726L48.0061 43.2947L47.0152 43.4291ZM46.2602 37.8612L45.8744 36.9386L45.1661 37.2348L45.2693 37.9955L46.2602 37.8612ZM51.4507 35.6906L51.8365 36.6132L52.8469 36.1907L52.3344 35.2227L51.4507 35.6906ZM48.9026 30.8777L48.2215 30.1455L47.66 30.6678L48.0188 31.3456L48.9026 30.8777ZM52.9606 27.1028L53.6417 27.835L54.4288 27.1028L53.6417 26.3706L52.9606 27.1028ZM48.9026 23.328L48.0151 22.8671L47.6647 23.5421L48.2215 24.0601L48.9026 23.328ZM51.4507 18.4206L52.3382 18.8815L52.8388 17.9172L51.8365 17.4981L51.4507 18.4206ZM46.2602 16.2501L45.2693 16.1157L45.1661 16.8765L45.8744 17.1727L46.2602 16.2501ZM47.0152 10.6822L48.0061 10.8165L48.1523 9.7387L47.066 9.68347L47.0152 10.6822ZM41.4473 10.3991L40.4715 10.6178L40.6377 11.3592L41.3965 11.3978L41.4473 10.3991ZM40.2204 4.92552L41.1962 4.7068L40.9568 3.63845L39.9144 3.97349L40.2204 4.92552ZM34.9356 6.6242L34.0984 7.17099L34.5155 7.80965L35.2417 7.57623L34.9356 6.6242ZM31.3077 1.20612L26.8722 4.60349L28.0884 6.19125L32.5238 2.79388L31.3077 1.20612ZM28.0884 4.60349L23.6529 1.20612L22.4368 2.79388L26.8722 6.19125L28.0884 4.60349ZM22.2026 1.46095L19.1827 6.17952L20.8672 7.25763L23.8871 2.53905L22.2026 1.46095ZM20.331 5.76655L15.0462 4.06786L14.4341 5.97192L19.7189 7.6706L20.331 5.76655ZM13.7644 4.80118L12.5375 10.2747L14.4891 10.7121L15.7159 5.2386L13.7644 4.80118ZM13.4625 9.49472L7.89462 9.77784L7.99619 11.7753L13.5641 11.4921L13.4625 9.49472ZM6.95447 10.9109L7.70944 16.4788L9.69131 16.2101L8.93634 10.6422L6.95447 10.9109ZM8.31457 15.4219L3.12414 17.5924L3.89575 19.4376L9.08618 17.267L8.31457 15.4219ZM2.62616 18.9829L5.17419 23.7958L6.94176 22.8601L4.39373 18.0471L2.62616 18.9829ZM5.37687 22.5958L1.3189 26.3706L2.6811 27.835L6.73908 24.0601L5.37687 22.5958ZM1.3189 27.835L5.37687 31.6099L6.73908 30.1455L2.6811 26.3706L1.3189 27.835ZM5.17048 30.4169L2.62245 35.3242L4.39744 36.2458L6.94547 31.3385L5.17048 30.4169ZM3.12414 36.7076L8.31457 38.8781L9.08618 37.033L3.89575 34.8624L3.12414 36.7076ZM7.70944 37.8212L6.95447 43.3891L8.93634 43.6578L9.69131 38.0899L7.70944 37.8212ZM7.89462 44.5222L13.4625 44.8053L13.5641 42.8079L7.99619 42.5247L7.89462 44.5222ZM12.5375 44.0253L13.7644 49.4988L15.7159 49.0614L14.4891 43.5879L12.5375 44.0253ZM15.0462 50.2321L20.331 48.5335L19.7189 46.6294L14.4341 48.3281L15.0462 50.2321ZM19.1827 48.1205L22.2026 52.8391L23.8871 51.7609L20.8672 47.0424L19.1827 48.1205ZM23.6634 53.0857L28.0989 49.594L26.8617 48.0225L22.4263 51.5143L23.6634 53.0857ZM26.8722 49.6021L31.3077 52.9995L32.5238 51.4117L28.0884 48.0144L26.8722 49.6021ZM32.758 52.7447L35.7779 48.0261L34.0934 46.948L31.0735 51.6666L32.758 52.7447ZM34.6296 48.4391L39.9144 50.1378L40.5265 48.2337L35.2417 46.535L34.6296 48.4391ZM41.1962 49.4044L42.4231 43.9309L40.4715 43.4935L39.2447 48.967L41.1962 49.4044ZM41.4981 44.7109L47.066 44.4278L46.9644 42.4304L41.3965 42.7135L41.4981 44.7109ZM48.0061 43.2947L47.2512 37.7268L45.2693 37.9955L46.0243 43.5634L48.0061 43.2947ZM46.646 38.7837L51.8365 36.6132L51.0648 34.768L45.8744 36.9386L46.646 38.7837ZM52.3344 35.2227L49.7864 30.4098L48.0188 31.3456L50.5669 36.1585L52.3344 35.2227ZM49.5837 31.6099L53.6417 27.835L52.2795 26.3706L48.2215 30.1455L49.5837 31.6099ZM53.6417 26.3706L49.5837 22.5958L48.2215 24.0601L52.2795 27.835L53.6417 26.3706ZM49.7901 23.7888L52.3382 18.8815L50.5632 17.9598L48.0151 22.8671L49.7901 23.7888ZM51.8365 17.4981L46.646 15.3275L45.8744 17.1727L51.0648 19.3432L51.8365 17.4981ZM47.2512 16.3845L48.0061 10.8165L46.0243 10.5478L45.2693 16.1157L47.2512 16.3845ZM47.066 9.68347L41.4981 9.40035L41.3965 11.3978L46.9644 11.6809L47.066 9.68347ZM42.4231 10.1804L41.1962 4.7068L39.2447 5.14423L40.4715 10.6178L42.4231 10.1804ZM39.9144 3.97349L34.6296 5.67217L35.2417 7.57623L40.5265 5.87754L39.9144 3.97349ZM35.7729 6.07741L32.753 1.45321L31.0785 2.54679L34.0984 7.17099L35.7729 6.07741Z" fill="white"/>
</g>
</svg>
