<svg width="100" height="100" viewBox="0 0 100 100" fill="none" xmlns="http://www.w3.org/2000/svg">
<path d="M50 100C77.6142 100 100 77.6142 100 50C100 22.3858 77.6142 0 50 0C22.3858 0 0 22.3858 0 50C0 77.6142 22.3858 100 50 100Z" fill="#F7579F"/>
<path d="M13.7009 38.6614L34.882 79.7638L37.5592 59.9212L49.5277 74.9606L45.9844 30.4724L38.2679 32.2835L44.3309 61.811L34.5671 49.6063L32.9135 65.8268L21.3387 36.2992L13.7009 38.6614Z" fill="white"/>
<path d="M67.4017 57.0866C66.693 50 62.2048 44.7244 57.2442 45.1969C52.2835 45.6693 48.8977 51.811 49.6064 58.8189C50.315 65.9055 54.8032 71.1811 59.7639 70.7087C64.6458 70.2362 68.1103 64.1733 67.4017 57.0866ZM59.1339 64.8032C56.8505 65.0394 54.7245 62.3622 54.3308 58.7402C54.0158 55.1181 55.5906 52.0473 57.8741 51.8111C60.1576 51.5748 62.2836 54.252 62.6773 57.874C63.071 61.4961 61.4174 64.567 59.1339 64.8032Z" fill="white"/>
<path d="M85.9843 53.2284C85.5119 46.6143 81.1812 41.4962 76.2993 41.8111C71.4174 42.1261 67.8741 47.7954 68.3465 54.4095C68.8189 61.0237 73.1497 66.1418 78.0315 65.8269C82.9134 65.5119 86.5355 59.8426 85.9843 53.2284ZM77.6378 59.9214C75.4331 60.0788 73.4646 57.5592 73.2284 54.3308C72.9922 51.1025 74.6457 48.2678 76.8504 48.1103C79.0552 47.9529 81.0237 50.4725 81.2599 53.7009C81.4174 57.008 79.8426 59.7639 77.6378 59.9214Z" fill="white"/>
</svg>
