<svg width="23" height="16" viewBox="0 0 23 16" fill="none" xmlns="http://www.w3.org/2000/svg">
<path d="M8.3474 14.6717C7.68623 14.6717 7.79858 14.4622 7.57054 13.934L5.62622 8.56522L20.5927 1.11572" fill="#C8DAEA"/>
<path d="M8.34741 14.6718C8.85763 14.6718 9.08307 14.476 9.36786 14.2437L12.089 12.0237L8.6947 10.3064" fill="#A9C9DD"/>
<path d="M8.69439 10.3068L16.9192 15.4051C17.8577 15.8396 18.5351 15.6146 18.7689 14.674L22.1168 1.43725C22.4596 0.284255 21.593 -0.238693 20.6951 0.103317L1.03623 6.46335C-0.305668 6.91494 -0.297845 7.54306 0.791632 7.82294L5.83654 9.14405L17.516 2.96182C18.0674 2.68129 18.5734 2.83211 18.1581 3.14138" fill="url(#paint0_linear)"/>
<defs>
<linearGradient id="paint0_linear" x1="14.641" y1="6.82344" x2="17.0024" y2="13.2281" gradientUnits="userSpaceOnUse">
<stop stop-color="#EFF7FC"/>
<stop offset="1" stop-color="white"/>
</linearGradient>
</defs>
</svg>
