<svg width="23" height="12" viewBox="0 0 23 12" fill="none" xmlns="http://www.w3.org/2000/svg">
<path fill-rule="evenodd" clip-rule="evenodd" d="M22.4722 0.812561C22.6321 0.344174 22.4722 0 21.7113 0H19.1951C18.5553 0 18.2603 0.297317 18.1004 0.625168C18.1004 0.625168 16.8208 3.3652 15.0081 5.14503C14.4217 5.66024 14.1551 5.82416 13.8352 5.82416C13.6752 5.82416 13.4437 5.66024 13.4437 5.19189V0.812561C13.4437 0.250497 13.258 0 12.7248 0H8.77079C8.37098 0 8.13053 0.260866 8.13053 0.5081C8.13053 1.04093 9.03683 1.1638 9.13025 2.66264V5.91788C9.13025 6.63158 8.98354 6.76098 8.66364 6.76098C7.81064 6.76098 5.73569 4.0087 4.50506 0.85938C4.26389 0.247261 4.02199 0 3.37892 0H0.862709C0.143792 0 0 0.297317 0 0.625168C0 1.21066 0.853052 4.11462 3.97195 7.95531C6.05119 10.5782 8.98072 12 11.6465 12C13.2459 12 13.4438 11.6842 13.4438 11.1403V9.1579C13.4438 8.52632 13.5953 8.40027 14.1018 8.40027C14.4749 8.40027 15.1147 8.5642 16.6076 9.82882C18.3136 11.3276 18.5949 12 19.5545 12H22.0708C22.7897 12 23.1491 11.6842 22.9418 11.061C22.7148 10.4399 21.9003 9.53876 20.8195 8.47052C20.233 7.86163 19.3533 7.20593 19.0867 6.878C18.7135 6.45651 18.8201 6.26912 19.0867 5.89445C19.0867 5.89445 22.1523 2.10058 22.4722 0.812561Z" fill="white"/>
</svg>
