<?xml version="1.0" encoding="iso-8859-1"?>
<!-- Generator: Adobe Illustrator 16.0.0, SVG Export Plug-In . SVG Version: 6.00 Build 0)  -->
<!DOCTYPE svg PUBLIC "-//W3C//DTD SVG 1.1//EN" "http://www.w3.org/Graphics/SVG/1.1/DTD/svg11.dtd">
<svg version="1.1" id="Capa_1" xmlns="http://www.w3.org/2000/svg" xmlns:xlink="http://www.w3.org/1999/xlink" x="0px" y="0px"
	 width="448px" height="448px" viewBox="0 0 448 448" style="enable-background:new 0 0 448 448;" xml:space="preserve">
<g>
	<path d="M414.875,340.719C415.531,344.406,416,348.125,416,352c0,35.344-28.656,64-64,64c0,17.688-14.312,32-32,32
		s-32-14.312-32-32V288c0-17.688,14.312-32,32-32s32,14.312,32,32c17.625,0,33.594,7.125,45.156,18.688
		C409.188,281.625,416,253.594,416,224c0-105.875-86.125-192-192-192S32,118.125,32,224c0,29.594,6.813,57.625,18.844,82.656
		C62.422,295.125,78.375,288,96,288c0-17.688,14.313-32,32-32s32,14.312,32,32v128c0,17.688-14.313,32-32,32s-32-14.312-32-32
		c-35.344,0-64-28.656-64-64c0-3.875,0.484-7.625,1.141-11.281C12.266,306.719,0,266.844,0,224C0,100.281,100.281,0,224,0
		s224,100.281,224,224C448,266.844,435.75,306.719,414.875,340.719z"/>
</g>
<g>
</g>
<g>
</g>
<g>
</g>
<g>
</g>
<g>
</g>
<g>
</g>
<g>
</g>
<g>
</g>
<g>
</g>
<g>
</g>
<g>
</g>
<g>
</g>
<g>
</g>
<g>
</g>
<g>
</g>
</svg>
