<?xml version="1.0" encoding="utf-8"?>
<!-- Generator: Adobe Illustrator 21.1.0, SVG Export Plug-In . SVG Version: 6.00 Build 0)  -->
<svg version="1.1" id="Layer_1" xmlns="http://www.w3.org/2000/svg" xmlns:xlink="http://www.w3.org/1999/xlink" x="0px" y="0px"
	 viewBox="0 0 507.9 104.5" style="enable-background:new 0 0 507.9 104.5;" xml:space="preserve">
<style type="text/css">
	.st0{fill-rule:evenodd;clip-rule:evenodd;fill:#FFFFFF;}
</style>
<g>
	<path class="st0" d="M412.1,37.9c-3.3,1.2-7.2,4.5-9.5,8.3c-5,8-3.5,17.6,2.4,22.3c0.3,0.3,0.7,0.5,1,0.7
		C404.2,59.3,406.2,47.8,412.1,37.9z"/>
	<path class="st0" d="M498.4,5.8c-7.1-6.3-16.6-7.4-25.6-3.8c8.3-2,16.6-0.3,23,5.4c11.3,10.1,13.1,29.5,5.2,46.2
		C511,37,510.1,16.2,498.4,5.8z"/>
	<path class="st0" d="M466.6,12.7c6.1-1.5,12.3-0.3,17,4c8.4,7.5,9.7,21.8,3.9,34.2c7.4-12.3,6.7-27.7-1.9-35.4
		C480.3,10.9,473.3,10.1,466.6,12.7z"/>
	<path class="st0" d="M464.4,22.5c3.5-0.8,7-0.1,9.7,2.3c4.8,4.2,5.5,12.4,2.2,19.5c4.2-7,3.8-15.8-1.1-20.1
		C472.2,21.5,468.2,21,464.4,22.5z"/>
	<path class="st0" d="M468.7,44.5c-0.3,0-0.5-0.1-0.8-0.1c-0.9-0.3-1.5-1.1-1.5-2.1c0-0.7,0.3-1.3,0.8-1.7c0.3-0.2,0.6-0.4,1-0.5
		c-1.3-4.5-3.5-8.4-6.6-11.5c-1.2-1.5-2.6-2.9-4.1-4.2c-9.8-7.9-23.4-6.2-34.1,2.8c0.1,0.4,0.2,0.9,0.2,1.3c0,2.3-1.8,4.1-4.1,4.1
		c-0.4,0-0.9-0.1-1.3-0.2c-1.3,1.6-2.6,3.3-3.7,5.2c-7.3,11.9-9,26-5.3,37.1c0,0,0,0,0.1,0c3.3,0,5.9,2.7,5.9,5.9
		c0,1.3-0.4,2.4-1.1,3.4c1.2,1.5,2.5,2.8,4,4c11,8.8,26.7,5.7,37.8-6.4c0-0.2-0.1-0.4-0.1-0.6c0-0.4,0.1-0.8,0.3-1.1
		c0.3-0.5,0.7-1,1.3-1.2c0.3-0.1,0.6-0.2,1-0.2c0,0,0.1,0,0.1,0c0.9-1.1,1.7-2.4,2.5-3.6c0.4-0.7,0.8-1.3,1.2-2
		c0.3-0.5,0.6-0.9,0.9-1.4c5.3-8.5,7.2-18.3,6-26.9C469,44.4,468.8,44.5,468.7,44.5z M459.4,71.4c-5.1,8.3-12.6,13.8-20.6,15.2
		c-1.2,0.2-2.5,0.3-3.7,0.3c-0.6,0-1.3,0-1.9-0.1c-3.8-0.4-7.4-1.8-10.5-4.2c-10.9-8.7-12.3-28-3.1-42.8c4-6.4,9.3-11.1,15.3-13.6
		c1.7-0.7,3.5-1.3,5.3-1.6c5.9-1,11.6,0.4,16.1,4C467.3,37.3,468.6,56.5,459.4,71.4z"/>
	<path class="st0" d="M455.6,29.5c-3.4-2.7-7.3-4.1-11.6-4.1c-1.2,0-2.3,0.1-3.6,0.3c-5.3,0.9-10.3,3.7-14.6,8
		c-1.9,1.9-3.7,4.1-5.2,6.6c-8.9,14.4-7.6,32.9,2.8,41.3c0.7,0.5,1.4,1,2.1,1.4c3.9,2.3,8.3,3.1,13,2.3c7.6-1.3,14.8-6.6,19.8-14.6
		C467.3,56.4,466.1,37.9,455.6,29.5z M445,63.4c-5,8-13.8,10.7-19.6,6c-5.9-4.7-6.6-15-1.6-23c5-8,13.7-10.7,19.6-6
		C449.2,45.1,450,55.4,445,63.4z"/>
	<path class="st0" d="M424.6,49.1c-2.1,3.4-1.8,7.8,0.7,9.8c1.2,1,2.7,1.2,4.2,0.8c-0.3-0.1-0.6-0.3-0.9-0.5c-2.3-1.8-2.6-5.9-0.6-9
		c1.4-2.2,3.4-3.4,5.3-3.3c-0.1-0.1-0.2-0.2-0.3-0.3C430.4,44.5,426.7,45.6,424.6,49.1z"/>
	<path class="st0" d="M419.3,31.2c0.1,0,0.2,0,0.2,0c1.5,0,2.7-1.2,2.7-2.7c0-0.1,0-0.2,0-0.3c-0.1-1.3-1.3-2.4-2.7-2.4
		c-1.5,0-2.7,1.2-2.7,2.7C416.9,29.9,418,31,419.3,31.2z"/>
	<path class="st0" d="M468.7,40.7c-0.1,0-0.2,0-0.3,0c-0.4,0.1-0.8,0.3-1,0.7c-0.1,0.2-0.2,0.5-0.2,0.8c0,0.5,0.2,0.9,0.6,1.2
		c0.3,0.2,0.6,0.3,0.9,0.3c0.1,0,0.2,0,0.3,0c0.7-0.1,1.2-0.7,1.2-1.5C470.2,41.4,469.5,40.7,468.7,40.7z"/>
	<path class="st0" d="M458.4,79.2c-0.2,0-0.4,0-0.6,0.1c-0.5,0.2-0.9,0.7-1,1.2c0,0.1,0,0.2,0,0.3c0,0.9,0.8,1.7,1.7,1.7
		c0.9,0,1.7-0.7,1.7-1.7C460.1,80,459.3,79.2,458.4,79.2z"/>
	<path class="st0" d="M410,76.7c-0.2,0-0.5-0.1-0.7-0.1c-2.1,0-3.9,1.7-3.9,3.9s1.7,3.9,3.9,3.9c1.6,0,2.9-0.9,3.5-2.3
		c0.2-0.5,0.3-1,0.3-1.6C413.2,78.6,411.8,77,410,76.7z"/>
	<polygon class="st0" points="45.7,104.5 402.9,81.6 0,81.6 	"/>
	<path class="st0" d="M177.2,59.2c-0.3,1.1-0.6,2.1-0.7,3.2c-0.6,4.9,1.3,8.8,5.5,11.1c1.9,1,3.9,1.7,6,2.2c3.9,0.9,8,1,12,1.2
		c3.1-0.2,6.1-0.4,9.2-0.7c5.5-0.6,10.8-2,15.9-4.3c8.4-3.7,15.1-9.4,19.7-17.4c0.6-1.1,1.2-2.1,1.7-3.2c1.2-2.6,2.1-5.3,2.7-8.2
		c1-5.4-1.1-9.7-6-12.2c-0.8-0.4-1.7-0.8-2.6-1.1c-2.9-1.1-5.9-1.6-9-1.8c-5-0.3-9.9-0.3-14.9,0.3c-6.3,0.8-12.4,2.4-18,5.3
		c-8.1,4.1-14.2,10-18.2,17.6C179.1,53.7,178.1,56.3,177.2,59.2z M198.3,58.3c0.3-2.5,1.2-4.9,2.3-7.1c2.8-5.2,7.7-9.3,13.5-10.8
		c3-0.8,6-1.1,9.1-0.3c2.1,0.6,3.7,1.7,4.2,4c0.2,0.8,0.2,1.8,0,2.6c-0.4,1.6-0.9,3.1-1.5,4.5c-2.5,5.9-6.9,10.3-13.5,12.6
		c-1.9,0.7-4,1-6,1.1c-1.4-0.2-2.8-0.3-4.2-0.7C199.3,63.4,197.9,61.2,198.3,58.3z"/>
	<path class="st0" d="M107.1,73.4c-0.3,0.7-1,1.3-0.8,2.1c3.4,0.3,17,0.2,18.7-0.1c0.9-1.8,1.9-3.6,2.9-5.4c1-1.8,1.9-3.6,2.9-5.4
		c1-1.8,1.7-3.7,3-5.4c0.8,0,1.6,0,2.4,0c5,0,10.1,0,15.1,0c3.4,0,6.8-0.3,10.1-1.1c4.7-1.1,9.1-3,13-6c0.3-0.3,0.7-0.6,1-0.8
		c3.2-2.8,5.6-6.3,6.8-10.5c0.3-1.1,0.5-2.3,0.5-3.5c0.1-2.3-1-4.1-2.8-5.4c-1.3-1-2.9-1.6-4.5-2c-2.5-0.6-5.1-0.9-7.7-0.9
		c-11.7,0-23.3,0-35,0c-0.6,0-1.3,0-1.9,0c-0.5,0.8-0.9,1.6-1.3,2.3c-2.2,4.2-4.4,8.4-6.6,12.5c-1.3,2.5-2.6,5-4,7.5
		C114.9,58.6,111,66,107.1,73.4z M140.4,46.5c1.4-2.7,2.4-4.5,3.7-7.1c0.3-0.1,0.6-0.2,0.8-0.2c3.9,0,7.9,0,11.8,0
		c0.7,0,1.4,0.1,2.1,0.2c1.9,0.5,2.4,1.5,1.8,3.3c-0.8,2.3-2.1,4-4.4,5c-1.1,0.5-2.4,0.9-3.6,1c-2,0.2-4.1,0.2-6.1,0.3
		c-1.9,0-3.8,0-5.7,0c-0.2,0-0.4,0-0.6,0l-7,0L140.4,46.5z"/>
	<path class="st0" d="M46.9,75.3c0,0.1,0,0.1,0.1,0.2c2.3,0.3,16.7,0.2,18.8-0.1c4.3-8,8.6-16.1,12.9-24.2c1.6-3.1,2.4-4.6,4-7.6
		l-4.9-3l6.5,0c0,0,0,0,0,0c0.9,0,1.8,0,2.6,0c8.2,0,16.4,0,24.6,0c0.8,0,1.7,0.2,2.7-0.3c1.9-3.6,3.8-7.3,6-11.4
		c-16.5,0-32.6,0-48.7,0c-0.3,0.5-0.6,0.9-0.9,1.4c-3.7,7-7.4,13.9-11.1,20.9c-4.2,7.9-8.4,15.9-12.7,23.8
		C46.9,75.1,46.9,75.2,46.9,75.3z"/>
	<path class="st0" d="M325.3,75c-0.1,0.1,0,0.3,0,0.4c1.7,0.3,16,0.4,18.7,0.1c0.3-0.6,0.7-1.3,1.1-2c1.6-3,3.1-6,4.6-9
		c0.4-0.9,1-1.5,1.9-2c3.1-1.6,6.1-3.3,9.1-5c0.3-0.2,0.7-0.3,1.2-0.4c1.3,6.2,2.2,12.4,3.4,18.5c0.4,0.1,0.7,0.2,1,0.2
		c7.3,0,14.5,0,21.8,0c0.2,0,0.4-0.1,0.8-0.2c-1.9-8-3.7-16.1-5.6-24.2c-0.4-1.8-0.8-3.6-1.3-5.4c4.8-2.8,9.5-5.5,14.2-8.2
		c4.7-2.7,9.4-5.4,14-8.2c0-0.2-0.1-0.3-0.1-0.5c-0.7,0-1.4,0-2.1,0c-6.7,0-13.4,0-20.1,0c-1.6,0-3,0.4-4.4,1.3
		c-6.3,4.1-12.7,8-19.1,12l-12.6,8l10-8.7c1.9-3.6,3.7-7.3,5.6-10.9c0.2-0.5,0.6-0.9,0.1-1.5c-2.8-0.2-16.3-0.2-18.2,0.1
		c-0.1,0.2-0.3,0.3-0.4,0.5c-3.7,7.2-7.4,14.4-11.2,21.6C333.5,59.2,329.4,67.1,325.3,75z"/>
	<path class="st0" d="M241.5,75.7c2.1,0,4,0,6,0c1.9,0,3.8,0,5.7,0c2,0,3.9,0.2,5.9-0.2c4.2-8.1,8.4-16.2,12.6-24.3
		c1.3-2.5,2.6-5.1,3.9-7.6l-3-5.8l4.6,3.7c0,0.4,0,0.8-0.1,1.2c-0.6,2.8-1.2,5.7-1.8,8.5c-1.5,7.3-3,14.5-4.5,21.8
		c-0.2,0.8-0.4,1.6-0.3,2.5c2.6,0.3,12.8,0.2,14.8,0c0.6-0.7,1.2-1.4,1.8-2.1c6.2-7.4,12.3-14.8,18.5-22.1c2.2-2.6,4.4-5.2,6.5-7.8
		c0.5-0.5,0.9-1.1,1.4-1.6c0.1-0.1,0.5,0,0.8,0c-0.1-0.1-0.1-0.2-0.2-0.3c0-0.1,0-0.1-0.1-0.2c0,0.1,0.1,0.1,0.1,0.2
		c0,0.1,0.1,0.2,0.1,0.4c-0.2,0.3-0.6,0.5-0.7,0.9c-1.5,2.8-2.9,5.7-4.4,8.5c-4,7.7-8,15.5-12,23.2c-0.2,0.3-0.2,0.7-0.3,1.1
		c2.8,0.2,15.6,0.2,17.4-0.1c0.4-0.7,0.8-1.5,1.2-2.3c3.8-7.3,7.6-14.6,11.4-22c0.8-1.6,1.6-3.1,2.4-4.7c2.7-5.2,5.5-10.5,8.2-15.7
		c0.3-0.5,0.8-1,0.4-1.8c-8.9,0-17.9,0-27,0c-0.4,0.4-0.9,0.9-1.4,1.5c-2.5,3-5.1,6.1-7.6,9.1c-3.3,3.9-6.5,7.8-9.8,11.7
		c-1,1.2-2,2.4-3,3.6c-0.4,0.5-0.7,1.2-1.7,1.3c0.4-1.6,0.7-3.3,1.1-4.9c1.7-7.4,3.4-14.7,5.1-22.3c-3.3-0.1-6.3-0.1-9.3-0.1
		c-3.2,0-6.3,0-9.5,0c-3.1,0-6.1-0.1-9.3,0.1c-3.9,7.4-7.8,14.9-11.6,22.3c-4.1,7.8-8.1,15.5-12.2,23.3
		C241.7,74.8,241.7,75.1,241.5,75.7z"/>
	<path class="st0" d="M8.1,64.4c0.2,0.9-0.4,1.3-0.7,1.8c-1.6,2.7-3.2,5.4-4.7,8.2c-0.2,0.4-0.3,0.8-0.4,1.2c2.6,0.3,7.1,0.2,9-0.1
		c2.1-3.4,4-6.9,6.1-10.3l-5.2-1.1l9,0.3c1,0,2.1,0,3.1,0c0.1,0,0.2,0,0.2,0.1c0,0,0.1,0.1,0.1,0.4c-0.2,0.5-0.5,1-0.8,1.5
		c-1.6,2.7-3.1,5.5-4.7,8.2c-0.2,0.3-0.2,0.7-0.4,1.1c2.1,0.3,6.9,0.3,8.9,0c2.3-3.7,4.3-7.6,6.7-11.3c2.7,0,5.3,0,7.8,0
		c1.8-2.5,4.1-6.6,4.8-8.4c-0.5,0-0.9-0.1-1.4-0.1c-1.7,0-3.3,0-5,0c-0.4,0-0.8,0.1-1.1-0.6c0.7-1.2,1.4-2.6,2.2-3.9
		c0.4-0.7,0.8-1.4,1.3-2.1c2.7,0,5.2,0,7.9,0c1.5-2.5,2.9-4.9,4.3-7.4c0.2-0.3,0.2-0.7,0.4-1.2c-0.9,0-1.6,0-2.3,0c-1.3,0-2.7,0-4,0
		c-0.4,0-0.7-0.2-1.2-0.3c0.6-1,1.1-1.9,1.6-2.8c0.5-0.9,1-1.8,1.5-2.7c0.6-1,1.1-1.9,1.6-2.9c0.5-0.9,1.1-1.7,1.3-2.9
		c-1.6-0.1-3,0-4.4,0c-1.5,0-3,0-4.5,0c-2.1,3.5-4,7-6.1,10.5l4.7,1.3l-7.3-0.1c-1.6,0.1-3.2,0.1-4.9-0.2c0.3-0.8,0.6-1.3,0.9-1.8
		c1.5-2.7,3.1-5.5,4.7-8.2c0.2-0.4,0.2-0.8,0.3-1.3c-3,0-5.8,0-8.8,0c-0.4,0.7-0.8,1.3-1.2,2c-1.6,2.8-3.3,5.6-4.8,8.4
		c-0.4,0.8-1,1.1-1.9,1.1c-1.7,0-3.5,0-5.2,0c-0.6,0-1.2,0.1-1.8,0.2c-1.5,2.6-3,5.1-4.4,7.7c-0.1,0.1,0,0.3,0,0.8
		c0.9,0,1.7,0,2.4,0c0.9,0,1.7,0,2.6,0c0.7,0,1.5-0.1,2.5,0.2c-0.3,0.6-0.7,1.3-1,1.9c-0.8,1.5-1.7,3-2.6,4.4
		c-2.7,0-5.4,0.1-7.9,0.1c-2.7,4-4.3,6.9-4.6,8.5c1.2,0,2.4,0,3.5,0C5.7,64.3,6.9,64.2,8.1,64.4z M25.1,51.3c0.4-0.7,0.8-1.3,1.2-2
		c2.4,0,4.7,0,7.1,0c-0.1,0.4-0.1,0.8-0.3,1.1c-0.2,0.3-0.4,0.6-0.6,1c-0.8,1.4-1.7,2.9-2.5,4.3c-2.4,0.3-4.6,0.1-7.3,0.1
		C23.4,54,24.3,52.6,25.1,51.3z"/>
</g>
</svg>
