<?xml version="1.0" encoding="iso-8859-1"?>
<!-- Generator: Adobe Illustrator 16.0.0, SVG Export Plug-In . SVG Version: 6.00 Build 0)  -->
<!DOCTYPE svg PUBLIC "-//W3C//DTD SVG 1.1//EN" "http://www.w3.org/Graphics/SVG/1.1/DTD/svg11.dtd">
<svg version="1.1" id="Capa_1" xmlns="http://www.w3.org/2000/svg" xmlns:xlink="http://www.w3.org/1999/xlink" x="0px" y="0px"
	 width="512px" height="512px" viewBox="0 0 512 512" style="enable-background:new 0 0 512 512;" xml:space="preserve">
<g>
	<path d="M480,0H32C14.313,0,0,14.328,0,32v448c0,17.688,14.313,32,32,32h448c17.688,0,32-14.312,32-32V32
		C512,14.328,497.688,0,480,0z M432,448H160v16c0,8.844-7.156,16-16,16s-16-7.156-16-16v-16H80c-8.844,0-16-7.156-16-16
		s7.156-16,16-16h48v-16c0-8.844,7.156-16,16-16s16,7.156,16,16v16h272c8.844,0,16,7.156,16,16S440.844,448,432,448z M480,352H32V32
		h448V352z M356.219,176.125c15.281,8.734,15.281,23.016,0,31.75l-168.438,96.25C172.5,312.844,160,305.594,160,288V96
		c0-17.594,12.5-24.859,27.781-16.125L356.219,176.125z"/>
</g>
<g>
</g>
<g>
</g>
<g>
</g>
<g>
</g>
<g>
</g>
<g>
</g>
<g>
</g>
<g>
</g>
<g>
</g>
<g>
</g>
<g>
</g>
<g>
</g>
<g>
</g>
<g>
</g>
<g>
</g>
</svg>
