<svg width="36" height="36" viewBox="0 0 36 36" fill="none" xmlns="http://www.w3.org/2000/svg">
<path fill-rule="evenodd" clip-rule="evenodd" d="M0.201151 20.7C0.0686697 19.8193 0 18.9177 0 18C0 8.05888 8.05888 0 18 0C25.0276 0 31.1146 4.02736 34.0789 9.9H27.6518C25.3405 7.14875 21.8745 5.4 18 5.4C11.968 5.4 6.92597 9.63867 5.68996 15.3H35.7989C35.9313 16.1807 36 17.0823 36 18C36 27.9411 27.9411 36 18 36C10.9605 36 4.86483 31.959 1.90613 26.0702L8.24146 25.9712C10.0078 28.1311 12.4771 29.6938 15.3001 30.3101V20.7H0.201151ZM20.7001 30.31C25.4916 29.2639 29.2639 25.4915 30.31 20.7H20.7001V30.31Z" fill="#21CCE7"/>
</svg>
