<svg width="143" height="24" viewBox="0 0 143 24" fill="none" xmlns="http://www.w3.org/2000/svg">
<path fill-rule="evenodd" clip-rule="evenodd" d="M0.134101 13.8C0.0457798 13.2129 0 12.6118 0 12C0 5.37258 5.37258 0 12 0C16.6851 0 20.7431 2.68491 22.7193 6.6H18.4345C16.8937 4.76583 14.583 3.6 12 3.6C7.97866 3.6 4.61731 6.42578 3.79331 10.2H23.8659C23.9542 10.7871 24 11.3882 24 12C24 18.6274 18.6274 24 12 24C7.307 24 3.24322 21.306 1.27075 17.3801L5.4943 17.3142C6.67189 18.7541 8.31807 19.7958 10.2001 20.2067V13.8H0.134101ZM13.8001 20.2067C16.9944 19.5093 19.5093 16.9943 20.2067 13.8H13.8001V20.2067Z" fill="#21CCE7"/>
<path fill-rule="evenodd" clip-rule="evenodd" d="M71.2095 14.1299C71.2095 11.0411 69.009 8.75976 66.1826 8.75976C64.7089 8.75976 63.5783 9.34522 62.8112 10.2739L62.8115 4.5H60.2069V19.2376H62.8112V17.9657C63.5783 18.9145 64.7089 19.5 66.1826 19.5C69.009 19.5 71.2095 17.2187 71.2095 14.1299ZM68.6052 14.1097C68.6052 15.9065 67.3939 17.1581 65.7183 17.1581C64.083 17.1581 62.791 15.9065 62.791 14.1097C62.791 12.3331 64.083 11.1016 65.7183 11.1016C67.3939 11.1016 68.6052 12.3331 68.6052 14.1097Z" fill="#F4F6F6"/>
<path d="M39.6132 19.5C36.0197 19.5 33.9201 17.4408 33.375 15.1999L35.9793 14.4125C36.3629 15.9065 37.6953 17.0976 39.7949 17.0976C41.4908 17.0976 42.5204 16.2295 42.5204 15.3008C42.5204 14.5337 42.0157 14.0289 40.764 13.605L37.2714 12.4744C35.4342 11.8486 34.0816 10.6979 34.1018 8.90109C34.0816 6.68036 36.2418 4.84321 39.3912 4.84321C42.4194 4.84321 44.4786 6.45829 45.0439 8.43675L42.5002 9.20391C42.0964 8.03299 40.8851 7.24564 39.2498 7.24564C37.7963 7.24564 36.8676 7.95223 36.8676 8.77996C36.8676 9.44617 37.2916 9.80957 38.3817 10.173L41.5109 11.2228C43.6509 11.9294 45.2862 12.858 45.2862 15.1191C45.2862 17.6023 43.0049 19.5 39.6132 19.5Z" fill="#F4F6F6"/>
<path fill-rule="evenodd" clip-rule="evenodd" d="M55.1849 9.02222V10.3143C54.438 9.34523 53.2872 8.75977 51.8135 8.75977C48.9871 8.75977 46.7865 11.0411 46.7865 14.1299C46.7865 17.2187 48.9871 19.5 51.8135 19.5C53.2872 19.5 54.438 18.8944 55.1849 17.9657V19.2376H57.769V9.02222H55.1849ZM55.2051 14.1097C55.2051 15.9065 53.913 17.1582 52.2576 17.1582C50.582 17.1582 49.3908 15.9065 49.3908 14.1097C49.3908 12.3331 50.582 11.1016 52.2576 11.1016C53.913 11.1016 55.2051 12.3331 55.2051 14.1097Z" fill="#F4F6F6"/>
<path d="M75.7466 19.2375H73.1221V9.02219H75.7466V19.2375Z" fill="#F4F6F6"/>
<path fill-rule="evenodd" clip-rule="evenodd" d="M83.1105 19.5C79.9611 19.5 77.6596 17.1985 77.6596 14.1299C77.6596 11.0612 79.9611 8.75977 83.1105 8.75977C86.2599 8.75977 88.5613 11.0612 88.5613 14.1299C88.5613 17.1985 86.2599 19.5 83.1105 19.5ZM83.1105 17.1178C84.8265 17.1178 85.9974 15.8459 85.9974 14.1299C85.9974 12.4139 84.8265 11.142 83.1105 11.142C81.3944 11.142 80.2033 12.4139 80.2033 14.1299C80.2033 15.8459 81.3944 17.1178 83.1105 17.1178Z" fill="#F4F6F6"/>
<path d="M101.915 9.02225V10.5364C102.52 9.36545 103.671 8.67904 105.286 8.88093V11.3641C103.106 11.0209 101.915 12.0303 101.915 14.7961V19.2376H99.2701V9.02225H101.915Z" fill="#F4F6F6"/>
<path fill-rule="evenodd" clip-rule="evenodd" d="M114.81 10.3143V9.02222H117.394V19.2376H114.81V17.9657C114.063 18.8944 112.912 19.5 111.438 19.5C108.612 19.5 106.412 17.2187 106.412 14.1299C106.412 11.0411 108.612 8.75977 111.438 8.75977C112.912 8.75977 114.063 9.34523 114.81 10.3143ZM111.883 17.1582C113.538 17.1582 114.83 15.9065 114.83 14.1097C114.83 12.3331 113.538 11.1016 111.883 11.1016C110.207 11.1016 109.016 12.3331 109.016 14.1097C109.016 15.9065 110.207 17.1582 111.883 17.1582Z" fill="#F4F6F6"/>
<path fill-rule="evenodd" clip-rule="evenodd" d="M127.554 4.5H130.139V19.2376H127.555V17.9657C126.808 18.8943 125.657 19.5 124.183 19.5C121.357 19.5 119.156 17.2187 119.156 14.1299C119.156 11.0411 121.357 8.75976 124.183 8.75976C125.657 8.75976 126.808 9.34522 127.555 10.3143L127.554 4.5ZM124.627 17.1581C126.283 17.1581 127.575 15.9065 127.575 14.1097C127.575 12.3331 126.283 11.1016 124.627 11.1016C122.952 11.1016 121.761 12.3331 121.761 14.1097C121.761 15.9065 122.952 17.1581 124.627 17.1581Z" fill="#F4F6F6"/>
<path fill-rule="evenodd" clip-rule="evenodd" d="M142.5 13.9886C142.5 14.3318 142.48 14.6346 142.439 14.9778H134.465C134.667 16.29 135.616 17.2995 137.473 17.2995C138.785 17.2995 139.573 16.6938 139.976 15.9267L142.359 16.6131C141.773 17.9455 140.098 19.5 137.412 19.5C134.162 19.5 131.901 17.36 131.901 14.1501C131.901 11.0814 134.021 8.75977 137.231 8.75977C140.562 8.75977 142.5 11.0612 142.5 13.9886ZM137.211 10.9805C135.656 10.9805 134.626 12.0707 134.465 13.2214H139.896C139.774 11.9697 138.805 10.9805 137.211 10.9805Z" fill="#F4F6F6"/>
<path d="M99.7202 5.10564V7.58882H94.9558V19.2375H92.2303V7.58882H87.4658V5.10564H99.7202Z" fill="#F4F6F6"/>
<path d="M74.4243 7.58883C73.5562 7.58883 72.8496 6.90242 72.8496 6.01413C72.8496 5.18641 73.5562 4.5 74.4243 4.5C75.3126 4.5 76.0192 5.18641 76.0192 6.01413C76.0192 6.90242 75.3126 7.58883 74.4243 7.58883Z" fill="#F4F6F6"/>
</svg>
