<svg width="290" height="5" viewBox="0 0 290 5" fill="none" xmlns="http://www.w3.org/2000/svg">
<path d="M289.83 3.9497C289.818 3.95595 289.804 3.95653 289.792 3.95146C289.452 3.81207 289.532 3.82074 289.496 3.52071L289.412 2.72682C289.393 2.58382 288.863 2.60848 288.836 2.34221C288.817 2.15976 288.836 1.88363 288.472 1.84418C288.104 1.80326 287.988 1.80426 287.951 1.56497C287.945 1.52403 287.932 1.49182 287.894 1.47428C287.754 1.4086 284.972 1.08951 284.818 1.08082C284.62 1.06975 284.443 1.07425 284.317 1.09467C284.203 1.11271 284.097 1.12175 283.996 1.12451C283.713 1.1323 282.022 1.51434 281.993 1.23274C281.955 0.857988 280.924 1.3215 280.878 0.857988C280.896 1.00098 280.962 1.1785 280.655 1.19329C280.543 1.19329 280.412 1.09467 280.116 1.31657C279.93 1.45463 279.669 1.59763 279.372 1.61242C278.895 1.63216 278.663 1.36119 278.967 1.23712C279.173 1.15253 279.481 1.23415 279.696 1.17328C280.091 1.06147 279.585 0.835347 279.187 0.935282C279.09 0.959624 278.985 0.97393 278.842 0.961538C278.228 0.912228 277.586 0.636094 276.964 0.66568C276.648 0.680473 276.611 0.9714 276.49 1.10947C276.304 1.3215 275.792 1.50887 275.43 1.35601C275.388 1.33879 275.357 1.3196 275.335 1.29904C275.03 1.0215 275.095 1.42443 274.686 1.37574C274.333 1.33629 274.445 0.912228 274.11 0.823471C273.85 0.755853 273.45 0.907806 273.083 1.08809C272.639 1.30666 272.206 1.11855 271.776 0.872781C271.897 0.941814 271.535 1.25246 271.386 1.28698C271.107 1.34615 270.995 1.16371 270.819 1.08481C270.456 0.917159 269.889 1.12919 269.917 1.42012C269.955 1.79487 269.09 1.19329 269.062 0.931952C269.034 0.690335 268.913 0.710059 268.737 0.907297C268.504 1.16371 268.346 1.48915 268.309 1.78501C268.301 1.84283 268.305 1.89762 268.314 1.9505C268.381 2.36633 267.882 2.45999 267.835 2.04142L267.74 1.14929C267.73 1.06054 267.653 0.993023 267.565 1.00549C267.561 1.00598 267.558 1.00648 267.554 1.00699C267.409 1.02865 267.068 1.02584 266.921 1.02463C266.751 1.02323 266.103 1.06382 265.94 1.01563C265.682 0.939329 265.354 0.921549 265.027 0.936883C264.618 0.956607 264.144 0.966469 263.865 1.19329C263.632 1.38067 263.558 1.5927 263.094 1.54832C262.555 1.49408 262.6 0.734714 262.396 0.853057C262.275 0.92209 260.704 1.90335 260.63 1.73077C260.546 1.54339 261.402 1.23274 261.094 1.08974C260.825 0.961538 260.313 1.21795 259.914 0.991122C259.652 0.839458 258.77 0.730537 258.219 0.83022C258.078 0.855698 257.22 1.00411 257.172 1.13905C257.054 1.51511 257.02 1.72476 256.666 1.55097C256.564 1.50086 256.475 1.48313 256.4 1.55325C256.177 1.76035 256.4 2.2929 256.028 2.39645C255.758 2.47041 255.108 2.22879 255.405 2.02662C255.666 1.85404 255.889 1.76035 255.86 1.47929C255.86 1.41025 255.629 1.28205 255.535 1.35601C255.721 1.21795 256.52 0.991122 256.205 0.724852C255.898 0.471419 255.258 0.844057 254.864 0.791865C254.448 0.736879 254.011 0.649005 253.62 0.645956C253.463 0.645956 251.798 0.631163 251.817 0.81854C251.824 0.890535 251.83 0.959036 251.834 1.02505C251.866 1.54159 251.169 1.71083 250.8 1.34816C250.483 1.03734 249.821 0.795275 249.904 1.23105C249.911 1.26944 249.934 1.30245 249.976 1.32643C249.353 0.9714 248.879 0.379684 248.07 0.986192C247.722 1.24852 246.354 0.63612 245.946 0.789584C245.312 1.02777 244.618 1.37267 244.556 0.788954C244.574 0.955578 244.336 1.08104 244.19 0.999381C243.952 0.866925 243.673 0.759347 243.413 0.690335C242.65 0.493096 243.022 1.07988 242.995 1.38067C242.976 1.56804 242.734 1.61735 242.493 1.53353C242.158 1.41519 242.251 1.23767 242.121 1.04536C241.972 0.838264 241.414 0.931952 241.144 0.808678C240.894 0.695266 240.819 0.305719 240.392 0.650887C240.271 0.749506 240.15 1.16371 239.862 1.05522C239.369 0.86785 239.043 0.542406 238.393 0.626232C238.262 0.645956 237.612 0.902366 237.825 1.02071C237.408 0.779092 237.482 0.66568 236.859 0.601577C236.524 0.567061 236.133 0.527613 235.799 0.586785C235.436 0.64923 235.375 0.83334 234.916 0.865607C234.891 0.867339 234.862 0.863422 234.838 0.857064C234.615 0.797411 233.662 0.726265 233.456 0.832935C233.264 0.932752 233.088 1.04742 233.029 1.06509C232.465 1.23071 231.875 0.918961 231.308 0.764289C230.783 0.621128 230.265 0.477264 230.333 1.1785C230.286 0.710059 229.719 0.86785 229.617 1.21795C229.604 1.26354 229.588 1.3072 229.569 1.34939C229.504 1.49491 229.274 1.36629 229.254 1.20808C229.115 0.31065 228.798 1.32643 228.185 1.10947C227.683 0.931952 227.869 0.295858 227.051 0.71499C226.488 1.00635 226.366 1.6456 225.895 1.22135C225.803 1.13933 225.716 1.05005 225.62 0.961538C225.257 0.626232 224.717 0.705128 224.188 0.81854C223.928 0.872781 224.504 1.47929 223.779 1.15877C223.147 0.882643 223.007 0.502958 222.179 0.759368C221.733 0.897436 222.319 1.28698 221.705 1.19822C221.408 1.15384 220.897 0.66568 220.916 1.08481C220.916 1.21656 220.789 2.05563 220.318 1.92853C220.23 1.90482 220.129 1.91539 220.147 1.82615C220.199 1.5611 220.176 1.341 219.912 1.28512C219.374 1.17151 218.75 0.968401 218.805 1.51874C218.786 1.30177 218.656 0.961538 218.842 0.759368C218.898 0.700197 219.344 0.453648 218.842 0.493096C218.132 0.546871 218.161 1.28787 217.993 1.7668C217.871 2.11333 217.583 1.81027 217.28 1.60256C217.048 1.43491 217.309 1.1144 216.871 1.05029C216.438 0.983189 216.109 1.07217 215.791 1.11909C215.338 1.186 214.099 0.883878 213.645 0.946745C213.348 0.986192 213.45 1.1785 213.19 1.24753C212.921 1.3215 212.139 0.636094 212.018 0.724852C211.916 0.798816 211.944 1.05522 211.703 1.0996C211.489 1.13905 211.154 0.92209 211.024 1.20808C210.996 1.26726 210.903 1.8639 210.643 1.62722C210.282 1.30154 210.121 0.865543 209.637 0.912148C209.389 0.936017 209.154 0.963681 209.053 0.961538C208.811 0.952233 208.577 0.931691 208.345 0.912369C207.708 0.859371 208.108 1.05812 207.575 1.41025C207.266 1.61587 206.937 0.968007 206.743 0.712646C206.73 0.695421 206.628 0.723552 206.621 0.744104C206.614 0.765291 206.449 0.963238 206.427 0.967513C206.235 1.00496 205.947 0.935425 205.762 0.946745C205.316 0.976331 205.446 1.1785 205.102 1.24753C204.448 1.38465 203.898 0.695518 203.235 0.614189C203.166 0.60576 203.097 0.598323 203.028 0.591716C202.397 0.527613 201.105 0.448718 200.9 0.976331C200.807 1.20808 200.863 1.50887 201.337 1.48422C201.644 1.46943 201.802 1.84911 201.569 1.89842C201.309 1.95266 201.272 1.57791 200.984 1.6568C200.77 1.71597 200.882 1.8787 200.835 1.97732C200.807 2.05128 200.733 1.98718 200.668 1.90335C200.575 1.78504 200.539 1.63429 200.524 1.48467L200.5 1.25739C200.5 1.21302 200.528 0.581854 200.575 0.571992C200.296 0.626232 200.128 1.0996 199.979 1.10453C200.005 1.10453 199.963 1.01918 199.874 0.925939C199.61 0.647482 199.106 0.742117 199.143 1.12426C199.106 0.754437 198.148 0.793885 197.786 0.729783C197.47 0.675542 197.228 0.335305 197.024 0.483234C196.707 0.700197 195.963 1.83925 195.489 1.49901C195.201 1.29191 195.61 0.857988 195.09 0.877712C194.829 0.877712 194.866 0.853057 194.82 1.01085C194.774 1.16864 194.365 1.00591 194.3 1.01085C194.25 1.01319 194.203 1.01921 194.16 1.02777C193.479 1.1623 193.564 0.874603 193.063 0.394477C192.71 0.0591716 191.966 0.345167 191.696 0.591716C191.464 0.798816 191.492 1.50887 191.195 1.57298C191.114 1.59016 191.024 1.5905 190.933 1.58908C190.737 1.58602 190.615 1.77692 190.419 1.79073C190.388 1.7929 190.324 1.79905 190.295 1.80793C190.024 1.88942 189.413 2.09314 189.307 1.88363C189.006 1.23979 188.539 1.20037 187.843 1.05462C187.752 1.03555 187.663 1.01426 187.578 0.991122C187.188 0.882643 187.421 0.606509 186.928 0.626232C186.727 0.634843 185.661 0.757776 185.46 0.757977C184.999 0.758442 184.46 0.828153 184.231 0.838264C184.417 0.828402 185.598 0.976331 185.096 1.27712C184.975 1.35108 183.385 1.45956 183.646 1.74556C183.46 1.53846 183.72 1.16371 183.237 1.06016C182.79 0.966469 182.782 1.32643 182.735 1.48915C182.549 2.03649 181.907 1.7357 182.149 1.26233C182.27 1.03057 183.07 0.61637 182.661 0.384615C182.224 0.133136 182.149 0.581854 182.158 0.744576C182.158 0.917159 182.13 1.39546 181.703 1.38067C181.266 1.36588 181.535 0.931952 181.294 0.902366C181.214 0.893587 181.136 0.920446 181.067 0.944427C180.929 0.992231 180.977 0.528498 180.838 0.571992C180.448 0.695266 180.058 0.152859 179.816 0.276134C179.49 0.438856 179.304 0.700197 178.952 0.848126C178.738 0.937479 178.655 0.990904 178.753 1.0902C178.878 1.21611 179.016 1.36679 179.052 1.54051C179.084 1.69795 179.008 1.91285 178.872 1.82778C178.772 1.76514 178.667 1.66397 178.682 1.6716C178.347 1.51874 178.003 1.83925 177.761 1.64694C177.429 1.38278 177.985 0.976288 177.692 0.669293C177.441 0.407654 177.185 0.172174 177.166 0.192307C176.858 0.543317 177.025 0.854587 176.634 0.598566C176.565 0.552997 176.481 0.517525 176.37 0.503439C176.263 0.49006 176.156 0.485878 176.051 0.464713C175.637 0.381246 175.16 0.315581 174.749 0.315581C174.08 0.315581 172.555 1.58284 172.435 0.488165C172.397 0.142998 170.9 0.315581 170.826 0.606508C170.751 0.86785 170.036 0.641025 170.064 0.946745C170.101 1.30177 169.887 1.3067 169.394 1.32643C170.342 1.28698 168.744 1.83432 168.669 2.00197C168.549 2.26868 168.282 2.27381 168.298 1.98148C168.319 1.6045 168.422 1.25586 168.701 1.08546C168.955 0.930783 169.088 0.764589 168.827 0.622704C168.599 0.499001 168.314 0.370741 168.057 0.253935C167.779 0.12687 167.434 0.254926 167.32 0.53957C167.208 0.822762 166.876 0.932625 166.614 0.776361C166.292 0.584185 165.933 0.400238 165.554 0.374753C165.33 0.360654 165.39 0.45434 165.496 0.572459C165.552 0.635594 165.892 1.29979 165.824 1.35108C165.76 1.40039 165.313 1.77021 165.229 1.77515C165.323 1.77515 165.211 1.42012 165.118 1.33629C164.951 1.19822 164.765 1.07002 164.579 0.946745C164.189 0.690335 163.658 0.305719 163.091 0.212031C162.19 0.0641026 162.812 1.07002 162.19 1.24753C161.91 1.32473 161.783 1.30295 161.74 1.23284C161.526 0.885312 161.617 0.734067 161.316 0.458579C161.158 0.315581 160.73 0.246548 160.488 0.241617C160.014 0.236686 160.488 0.759368 160.339 0.991122C160.032 1.48915 159.642 1.38067 159.084 1.18836C158.908 1.12919 158.452 0.843195 158.313 0.848126C158.378 0.848126 158.982 1.66173 157.988 1.27219C157.422 1.05207 157.296 0.847876 156.693 0.917945C156.676 0.919926 156.658 0.921324 156.64 0.92209C156.137 0.941814 156.472 0.404339 156.008 0.369822C155.883 0.361022 155.765 0.396152 155.653 0.45906C155.422 0.589071 155.158 0.30179 154.911 0.2071C153.962 -0.0493097 154.706 1.35601 154.659 1.3856C154.39 1.58777 153.599 0.611439 153.674 1.3215C153.702 1.60749 153.553 2.03156 153.256 2.25345C152.921 2.5 152.773 1.5138 152.716 1.39546C152.587 1.09467 152.475 0.784023 152.279 0.498027C152.038 0.142998 151.415 0.0739644 150.95 0.345167C150.671 0.51282 150.709 1.14398 150.067 0.902366C149.967 0.865378 148.586 0.829701 148.509 0.903086C148.233 1.16425 147.991 1.45614 147.594 1.52367C147.288 1.57791 147 1.31163 146.925 1.15384C146.824 0.919776 146.722 0.902182 146.552 0.712919C146.531 0.690061 146.513 0.666096 146.497 0.641025C146.199 0.285996 148.357 0.690335 147.557 0.325443C147.373 0.242802 146.677 0.294425 146.151 0.423209C146.04 0.450432 145.078 0.482966 144.963 0.488165C144.768 0.498027 144.535 0.685404 144.824 0.670611C144.48 0.685404 144.22 0.567061 143.894 0.581854C143.438 0.601577 143.346 1.00098 143.029 1.01578C142.676 1.03057 142.937 0.0394477 142.369 0.197238C142.063 0.281065 142.221 0.586785 142.435 0.611439C142.503 0.619455 141.99 1.08491 141.922 1.08099C141.525 1.05817 141.125 0.724527 140.715 1.03057C140.351 1.29915 140.405 0.996291 140.245 0.796771C140.187 0.724571 140.09 0.707368 139.997 0.711591L139.966 0.713043C139.752 0.72281 139.516 0.565682 139.302 0.571992C139.116 0.567061 138.744 0.557199 138.595 0.650887C138.242 0.862919 138.995 1.86883 138.047 1.32643C137.703 1.12919 137.34 1.13905 137.043 1.31657C136.987 1.35108 136.541 1.42505 136.69 1.31657C136.587 1.39546 136.42 1.83925 136.355 1.84418C136.178 1.85404 136.057 1.27712 136.271 1.23767C136.735 1.14536 136.811 0.477978 136.338 0.507383C136.12 0.520984 135.865 0.58096 135.621 0.645956C135.341 0.719921 134.904 0.907297 134.932 1.13905C134.942 1.25246 135.304 1.08481 135.406 1.13905C135.911 1.42822 134.341 1.32735 134.22 0.758587C134.213 0.727905 134.206 0.696933 134.198 0.66568C134.096 0.305719 133.101 0.502958 132.711 0.488165C132.489 0.480983 132.305 0.44358 132.122 0.413767C131.773 0.35726 131.325 0.574288 130.972 0.586785C130.405 0.611439 129.875 0.162721 129.633 0.764299C129.643 0.734714 128.936 0.325443 128.685 0.453648C128.369 0.61637 128.722 0.996052 128.295 1.12919C128.35 1.10947 128.388 0.458579 127.728 0.660749C127.562 0.71094 127.374 0.781331 127.178 0.836864C126.537 1.01854 125.892 0.447863 125.227 0.493096C124.781 0.527613 125.069 0.675542 125.078 0.902366C125.078 1.12426 124.967 1.28205 124.585 1.17357C124.111 1.04536 124.483 1.11933 124.39 0.927021C124.307 0.759368 123.665 1.00591 123.516 0.981262C123.237 0.931952 123.293 0.823471 123.126 0.779092C122.651 0.648797 121.257 0.515665 121.595 0.873595C121.625 0.906004 121.676 0.943204 121.715 0.965558L121.853 1.04536C121.964 1.10947 122.103 1.19822 122.233 1.28698C122.494 1.46449 122.707 1.64694 122.513 1.6716C122.225 1.70611 121.917 1.47929 121.667 1.42505C121.379 1.36094 121.127 1.39053 120.839 1.38067C120.514 1.37081 120.421 1.07988 120.588 0.92209C120.722 0.795267 120.479 0.664778 120.307 0.732768C120.284 0.742193 120.259 0.752548 120.235 0.764299C119.993 0.882643 120.114 1.16371 119.938 1.23274C119.635 1.34893 119.346 1.25961 119.143 1.1007C118.893 0.904543 118.988 1.07237 118.673 1.03057C118.348 0.958809 118.289 1.13828 118.547 1.34812C118.735 1.50134 118.81 1.65383 118.31 1.72584C117.604 1.82939 117.855 0.946745 117.864 0.76923C117.901 0.15286 117.353 0.784023 117.288 1.02564C117.13 1.42012 116.897 1.66666 116.33 1.47929C116.061 1.39053 115.959 1.82939 115.642 1.64694C115.419 1.52367 115.438 1.29684 115.419 1.12426C115.373 0.784023 115.103 0.774161 114.629 0.788954C114.165 0.804849 113.332 0.926419 112.768 0.825925C112.529 0.783249 112.194 0.689296 112.168 0.931157C112.162 0.993277 112.165 1.06338 112.166 1.13452C112.173 1.59789 111.725 1.24771 111.426 0.893945C111.336 0.787969 111.207 0.702944 111.011 0.656703C110.742 0.593291 110.458 1.0665 110.734 1.05029C110.576 1.05522 110.102 0.759368 109.906 0.719921C109.67 0.67574 109.363 0.869748 109.139 0.783704C109.062 0.75426 108.992 0.729871 108.958 0.754437C108.832 0.846624 108.757 1.01256 108.625 0.927856C108.448 0.813665 108.252 0.730277 108.001 0.734714C107.833 0.734714 107.266 0.710059 107.22 0.872781C107.201 0.936883 107.499 1.37081 107.536 1.37081C107.359 1.38067 106.922 1.04043 106.802 0.976331C105.835 0.498027 107.053 1.11933 106.513 0.976331C106.399 0.946099 106.165 0.858183 105.943 0.79872C105.864 0.77762 104.977 0.608346 104.895 0.611439C104.515 0.626232 104.672 0.941814 104.598 1.08481C104.496 1.27219 103.91 0.567061 103.52 0.581854C102.683 0.61637 103.473 1.00591 103.612 1.13905C103.775 1.28831 103.266 1.463 103.12 1.29684C103.067 1.23743 103.024 1.23354 102.99 1.26473C102.63 1.59186 102.356 2.34706 102.302 1.8639C102.257 1.3633 102.008 0.97533 101.658 0.615249C101.605 0.561356 101.549 0.535412 101.493 0.557199C100.675 0.870576 100.994 1.88524 100.554 1.12772C100.462 0.969388 100.369 0.846204 100.266 0.823471C100.219 0.813609 100.377 1.28205 100.285 1.37081C100.127 1.52367 99.5591 1.35108 99.5868 1.63215C99.5687 1.40532 99.6707 0.838264 99.1872 0.784023C98.9126 0.754073 98.7034 0.762932 98.5504 0.806343C98.3906 0.851688 97.8622 1.06285 97.7202 1.14904C97.6909 1.16681 97.6447 1.18929 97.6104 1.19044C97.2041 1.20408 96.9405 1.15736 96.5663 1.12426C96.0731 1.07988 95.2922 1.69625 95.4038 1.92801C95.6548 2.43096 94.8275 2.78106 94.5021 2.20907C94.1705 1.62723 95.4839 0.670224 94.8162 0.61809C94.7821 0.615424 94.7456 0.614761 94.7065 0.61637C94.6547 0.618663 94.593 0.619423 94.5245 0.619604C94.1905 0.620484 91.8881 0.75009 91.555 0.724852C90.9415 0.675542 89.9189 0.473372 89.3612 0.749507C89.0078 0.92209 88.7103 0.853057 88.227 0.828402C88.101 0.822627 88.0008 0.830516 87.9241 0.847681C87.426 0.959096 87.9715 1.33079 87.4647 1.39053C87.0855 1.43694 86.8956 1.79087 86.8879 1.40897C86.8851 1.26644 86.9228 1.14997 87.0091 1.13412C87.1671 1.10453 87.9574 1.1785 87.3252 0.892505C86.9905 0.739645 86.6652 0.838264 86.3119 0.754437C86.1631 0.719921 86.0237 0.576923 85.8564 0.581854C85.6537 0.58476 85.3799 0.652737 85.195 0.761567C85.0224 0.863112 85.2586 1.01347 85.4526 1.06303C85.8114 1.15466 85.3273 1.26839 84.9867 1.12328C84.6818 0.99342 84.3457 0.890895 84.0529 0.808678C83.6159 0.685404 83.1882 0.680473 82.7885 0.862919C82.7235 0.897435 81.9984 1.37081 81.9426 1.29191C81.8588 1.16371 82.2493 0.986192 81.7566 1.00591C81.6349 1.01237 80.9637 0.882535 80.842 0.877176C80.7845 0.874647 80.7232 0.875118 80.6596 0.877712C80.1855 0.897436 80.1111 1.34122 80.1391 1.34122C79.8694 1.35108 79.981 0.86785 79.5906 0.986192C79.2838 1.07495 79.386 1.27219 79.0699 1.1144C79.0235 1.08974 77.9823 0.517751 78.1496 0.843195C78.4099 1.32643 78.0566 1.15384 77.4988 1.19822C77.4948 1.19851 77.4908 1.19882 77.4868 1.19915C77.0047 1.23925 76.6625 1.01085 76.1787 1.01085C75.7232 1.01085 76.4297 1.75542 76.4577 1.88856C76.5135 2.13511 75.9184 1.74556 75.872 1.70611C75.621 1.49901 75.3141 1.21302 75.2863 0.941814C75.2583 0.700197 74.747 0.710059 74.7564 0.941814C74.7564 1.07988 74.8586 1.3215 74.7284 1.44477C74.4049 1.74762 73.9147 1.96419 73.4851 1.85575C73.3717 1.82714 73.2978 1.76401 73.3434 1.68639C73.4456 1.50887 73.6966 1.55818 73.7152 1.35601C73.7152 1.23518 73.5877 1.1936 73.5335 1.3016C73.5025 1.3634 73.4819 1.42685 73.4548 1.48915C73.4397 1.52938 73.4124 1.53344 73.3801 1.51638C73.2036 1.42337 73.0266 1.29445 72.8702 1.41813C72.6928 1.55838 72.2915 1.54118 72.0772 1.469C72.0291 1.45282 71.9769 1.42912 71.921 1.39053C71.7071 1.2426 71.8931 1.10947 71.9024 0.966469C71.9338 0.677657 69.9143 0.915974 69.6302 0.855635C69.2701 0.779198 68.9202 0.740221 68.7416 0.749507C68.7013 0.751183 68.6682 0.755386 68.6414 0.761729C68.2454 0.855408 69.1938 1.31166 69.0763 1.70118C69.0391 1.83432 68.7694 2.80079 68.3511 2.45562C68.1466 2.2929 67.7747 1.18836 67.6074 1.19822C67.6446 1.19822 67.8677 1.3067 68.0815 1.41519C68.2581 1.50479 68.3809 1.39111 68.258 1.23584C68.0064 0.918017 67.6233 0.589401 67.4308 0.892505C67.3192 1.07495 67.1426 2.357 67.3006 2.40631C67.1612 2.36193 66.1944 1.47436 66.278 2.28304C66.2316 1.85897 66.185 1.46943 65.8411 1.08974C65.3949 0.601577 65.181 1.22781 64.6883 1.17357C64.1863 1.1144 63.4705 0.123274 63.6471 1.16371C63.7308 1.6716 63.9818 2.18935 63.833 2.70217C63.7308 3.04733 63.4426 2.75641 63.3961 2.59369C63.2939 2.214 63.3961 1.77515 63.2195 1.41025C63.2043 1.37884 63.171 1.35598 63.1251 1.33974C62.6077 1.15676 62.9782 1.51324 62.9313 0.966469C62.9127 0.764299 62.671 0.857988 62.4572 0.912228C62.0574 1.01578 61.5833 1.18836 61.5368 1.50887C61.5021 1.82092 61.5842 1.88312 61.284 1.79135C61.263 1.78493 61.2419 1.7786 61.2207 1.77236C61.1596 1.75433 61.1031 1.72354 61.0544 1.68257C60.9105 1.56173 60.7397 1.43569 60.5421 1.35601C60.0958 1.18343 60.4119 1.69132 60.2818 1.69625C60.2577 1.69724 60.2246 1.68209 60.1844 1.65713C59.8161 1.42873 59.2411 1.18578 58.8222 1.29684C58.72 1.32643 58.5991 1.58284 58.6549 1.61242C58.4411 1.49408 58.2551 0.86785 57.8461 0.976331C57.4092 1.08974 57.0466 1.57791 57.2233 1.8639C57.4556 2.24359 57.6974 2.44576 57.7438 2.87968C57.7438 2.94872 57.7346 3.72781 57.3906 3.57002C56.8793 3.32347 57.0373 3.46154 57.2697 3.11637C57.5346 2.69499 57.1004 2.12229 56.732 1.78763C56.7239 1.78026 56.7171 1.77593 56.712 1.77515C56.4144 1.74556 56.6283 1.57791 56.4238 1.42998C55.9403 1.07495 54.1647 0.719921 53.7185 1.26726C53.5791 1.43491 53.7557 1.92801 53.3839 1.83925C52.8632 1.71597 52.3984 1.55818 52.073 1.25739C51.8685 1.07002 51.98 0.690335 51.5988 0.9714C51.478 1.05522 51.1899 1.34615 50.9481 1.26233C50.7808 1.20808 50.9481 1.00591 50.7622 0.986192C50.1393 0.912228 50.0278 1.10947 49.5444 0.833333C49.3296 0.709645 48.5103 0.916347 48.2627 0.902995C48.0814 0.893214 47.9014 0.898274 47.7688 0.907297C47.2389 0.941814 47.0622 1.2426 46.5323 1.27712C46.173 1.30272 45.7209 1.14291 45.3366 1.05324C44.9184 0.955669 44.5381 1.05107 44.1152 0.976331C43.8921 0.936883 43.5853 1.07495 43.3901 1.12426C43.7577 1.05624 43.4705 1.3776 43.2379 1.67033C43.1507 1.78006 43.1403 1.9182 43.1078 2.05451C43.0835 2.15633 43.0313 2.25524 42.9439 2.34221C42.8695 2.4211 42.5627 2.34221 42.5349 2.44576C42.4463 2.72704 42.3589 3.0087 42.2642 2.72945C42.196 2.52869 42.3479 2.21576 42.3303 2.05128C42.2571 1.29497 41.4465 1.51579 40.7541 1.20283C40.6654 1.16274 40.5686 1.1306 40.4617 1.1144C40.3595 1.0996 38.9464 1.17357 39.2997 1.37574C38.7512 1.06509 38.3142 0.941814 37.5055 1.04043C37.4813 1.04327 37.4593 1.04703 37.439 1.05161C36.8978 1.1745 37.8276 2.42313 37.273 2.44576C37.0872 2.45562 36.957 1.98225 36.9476 1.93294C36.9198 1.64201 36.9012 1.16371 36.4549 0.996052C36.1668 0.887574 35.2371 0.853057 35.0047 1.03057C34.763 1.21302 35.8692 1.74556 35.1255 1.7357C34.7166 1.73077 34.6328 1.5286 34.1866 1.53353C33.9449 1.53353 33.7125 1.55818 33.4894 1.50394C33.0245 1.39053 32.8665 0.887574 32.3831 0.838264C32.4203 0.838264 32.8479 1.76035 32.4203 1.70611C31.7789 1.62722 32.0206 1.28205 31.6579 1.16371C31.1932 1.01578 29.9753 1.12426 29.5198 1.25739C29.1445 1.36597 27.8821 2.58205 27.5023 2.4906C27.4775 2.48464 27.4527 2.47476 27.4281 2.46055C27.3618 2.4215 27.8378 1.6526 27.8863 1.28046C27.8962 1.20498 27.7747 1.12283 27.7019 1.14516C27.6084 1.17386 27.1839 1.85033 27.0953 1.8919C27.0424 1.91676 26.9296 1.90982 26.7215 1.85404C26.6089 1.82332 26.5119 1.80973 26.4286 1.81005C25.8788 1.81216 25.8971 2.79511 25.4851 2.43096C25.1412 2.13018 25.2248 1.57791 24.8065 1.34122C24.9088 1.40039 24.6949 2.02169 24.4439 1.79487C24.3509 1.71104 23.5794 1.09467 23.4678 1.49408C23.4492 1.55325 23.5329 1.78501 23.4027 1.81459C23.2633 1.84418 23.0123 1.7209 22.9751 1.81459C22.9472 1.89349 22.9937 2.45069 23.1703 2.44576C22.752 2.46548 22.1663 1.75542 22.1105 1.51874C22.0455 1.25246 22.157 1.18343 21.7479 1.0996C21.497 1.04536 21.1994 1.01578 20.9299 0.991122C20.1582 0.92209 20.8648 1.55325 20.8741 1.78994C20.902 2.31262 20.0838 1.74556 20.1862 1.6716C20.0995 1.73792 19.8787 1.76645 19.7697 1.76211C19.5838 1.75471 19.3324 1.8529 19.1315 1.97867C19.065 2.02033 18.9071 1.91941 18.8846 1.84418C18.8382 1.67653 18.5314 1.6568 18.3919 1.49901C18.2339 1.31657 18.3919 1.05029 17.9829 1.02071C17.4251 0.981262 16.5606 0.941814 16.0306 1.02564C15.6309 1.08974 15.5658 1.72091 15.6216 1.71597C15.3706 1.72584 15.3334 1.20315 15.2962 1.20315C14.9894 1.21795 15.101 1.99211 14.5617 1.88856C14.0504 1.78994 14.4781 1.20315 14.1248 1.02564C13.66 0.793885 13.5299 1.28205 13.2417 1.27712C12.7676 1.27712 12.5073 1.07988 12.1075 0.961538C11.7636 0.857988 10.9919 0.941814 11.308 1.29191C11.4754 1.47929 11.4568 1.60749 11.0849 1.51874C10.7502 1.43491 10.5085 1.3067 10.2203 1.1785C9.7927 0.991122 9.76481 1.22781 9.50451 1.37081C9.09546 1.59763 9.15124 0.951676 9.08617 0.951676C8.87235 0.961538 8.89094 1.48915 8.66782 1.49901C8.54697 1.50394 8.72361 0.941814 8.38893 1.07002C8.33316 1.08974 8.12863 1.21795 7.9427 1.34122C7.92649 1.35197 7.91036 1.3626 7.89441 1.37305C7.72184 1.48617 7.55051 1.41373 7.53365 1.20808C7.56155 1.47436 6.77135 1.16864 6.58542 1.14398C6.04622 1.07988 5.44195 0.981262 4.89346 1.05522C4.23341 1.14891 4.05678 1.5138 3.7314 1.83925C3.38743 2.18935 3.88945 1.92307 4.08467 1.79487C4.14885 1.7534 4.2019 1.7284 4.24564 1.71661C4.66866 1.60264 3.73307 2.7244 4.17113 2.71852C4.29612 2.71685 4.52106 2.6332 4.64517 2.64806C4.96069 2.68585 4.93225 2.88063 4.82569 3.08001C4.79841 3.13106 4.75887 3.17538 4.7058 3.19849C4.63332 3.23004 4.53438 3.2568 4.42751 3.28215C4.13774 3.35089 3.34431 3.23806 3.05277 3.29881C2.82035 3.34812 2.6902 3.75246 2.54145 3.74753C2.58344 3.74753 2.75579 3.35151 2.89626 2.9791C3.02495 2.63793 2.54948 2.25488 2.57864 2.61834C2.56935 2.49507 2.57864 1.46943 2.34623 1.45956C1.96507 1.4497 1.70477 2.0069 1.66759 2.17455C1.60251 2.47534 1.56533 2.96844 1.9093 3.21006C2.28116 3.46647 1.97437 3.62919 1.34221 3.65384C1.22091 3.65952 1.13643 3.67447 1.08175 3.69519C0.498266 3.91626 2.27221 4.66933 2.83894 4.40828C3.15503 4.26528 3.29447 3.96943 3.75929 4.30473C4.20552 4.62031 3.65703 4.69921 4.5216 4.84714C4.72609 4.88001 5.25027 4.8445 5.45647 4.864C5.89554 4.90551 6.4805 4.83889 6.71557 4.82248C7.25476 4.78797 7.36632 4.62031 7.91481 4.59566C8.32386 4.57593 8.01707 4.66962 8.23089 4.78797C8.56556 4.97534 9.41154 4.91124 9.80199 4.89152C9.85777 4.89152 11.1686 4.73373 10.8897 4.571C11.0105 4.64004 11.2801 5.01972 11.5218 4.90631C11.6148 4.86686 11.7636 4.60059 11.8937 4.65483C12.2283 4.79783 12.3399 4.88165 12.8326 4.91124C13.66 4.96548 14.4967 4.9211 15.3148 4.82741C15.6123 4.7929 16.4954 4.82741 16.7093 4.64004C16.9138 4.45759 16.4954 3.86094 16.9881 3.83629C17.4251 3.81657 17.2949 4.46252 17.36 4.64004C17.5088 5.04931 18.1874 4.76824 18.4384 4.571C18.8288 4.27021 18.7916 3.97436 18.8568 3.61933C18.8288 3.7426 19.2007 4.39349 19.3401 4.54142C19.6469 4.88165 20.2977 4.90138 20.8183 4.91617C21.1237 4.92598 22.1472 4.80392 22.9635 4.78333C22.9712 4.78313 22.9788 4.78436 22.9861 4.78694C22.9971 4.79084 23.009 4.79159 23.0204 4.78944C23.0356 4.7866 23.0569 4.78304 23.0681 4.78304C23.6352 4.77317 24.0907 4.81755 24.0999 5C24.0721 4.56607 25.4015 4.857 25.8663 4.84221C26.5356 4.82248 27.1864 4.78797 27.8465 4.84221C28.1253 4.86686 28.367 4.92603 28.646 4.88659C29.1015 4.82741 28.8969 4.42307 29.6128 4.5069C29.8824 4.53649 29.6406 4.83235 30.1799 4.82248C30.4633 4.81691 30.7743 4.82182 31.0486 4.79594C31.7011 4.73435 31.9529 4.73598 32.6062 4.78797C33.1547 4.82741 33.7311 4.79783 34.2796 4.7781C34.9954 4.75345 35.7112 4.71893 36.4177 4.64004C36.7636 4.60267 36.9241 4.47873 37.1395 4.39877C37.3415 4.32375 37.5286 4.47297 37.4404 4.66962C37.6727 4.24556 39.4856 4.90138 39.6808 4.81755C40.2201 4.57593 39.8575 4.29487 40.7406 4.53649C41.1497 4.68935 41.5773 4.82741 42.0607 4.75838C42.5999 4.67948 43.102 4.47732 43.6597 4.45266C43.9758 4.43787 43.5481 4.64004 43.7341 4.73373C44.2481 4.99238 44.7948 4.51021 45.2649 4.19874C45.5617 4.00208 45.4845 4.1975 45.677 4.49704C45.6584 4.46252 46.0954 4.88165 46.1419 4.76824C46.2906 4.38856 46.7182 4.33432 46.9692 4.73373C46.9925 4.77067 47.0356 4.74372 47.084 4.68916C47.2736 4.47527 47.4427 4.44766 47.7223 4.5069C48.1871 4.60059 49.2376 4.34911 49.5815 4.571C49.6505 4.61724 49.8402 4.65821 50.044 4.67156C50.4739 4.6997 51.6368 4.62417 51.2085 4.66962C51.4688 4.64004 51.7755 4.44773 51.9707 4.35404C52.0916 4.29487 52.5471 3.92505 52.6866 3.92012C52.4263 3.92998 52.4727 4.60059 52.8354 4.68442C53.0492 4.73373 53.2815 4.68442 53.4581 4.61045C53.5977 4.55128 53.7836 4.22584 53.8672 4.2209C53.8022 4.2209 54.0438 4.69921 54.2205 4.75345C54.6481 4.89152 55.4012 4.76824 55.8381 4.74852C55.8934 4.74622 55.9543 4.74499 56.0184 4.7439C56.8724 4.72946 57.336 4.30301 58.1436 4.58087C58.2478 4.61701 58.3745 4.63757 58.5144 4.64739C59.4244 4.71123 60.944 5.16913 61.6763 4.62524C61.8343 4.5069 61.5926 4.2998 61.7785 4.19132C61.8715 4.13708 62.4386 4.04339 62.4944 4.16173C62.5966 4.35897 62.3921 4.41814 62.7268 4.45759C62.8662 4.47238 62.8941 4.62031 62.7174 4.62524L63.6192 4.5858C63.5541 4.5858 63.8702 4.81755 63.9911 4.82741C64.4931 4.86193 64.5581 4.56114 64.8836 4.41321C65.0788 4.32446 65.3298 4.64004 65.3949 4.59566C65.6976 4.36696 65.3711 4.02661 65.0844 3.68716C64.6391 3.15995 65.8916 3.13735 65.8225 2.45069C65.8597 2.85503 66.1478 3.15582 66.2036 3.55522C66.2316 3.71795 65.8318 3.95463 65.5807 3.85601C65.5637 3.84697 65.5497 3.85695 65.5576 3.87455C65.7275 4.25384 66.0011 4.69722 66.2408 4.65483C66.576 4.59328 66.9952 4.6013 67.3322 4.65181C67.9897 4.75035 69.0474 4.67277 69.3087 4.66962C70.3685 4.6499 71.4654 4.52169 72.5159 4.59073C72.8413 4.61045 73.1016 4.81755 73.3154 4.67455C73.5403 4.53013 74.1001 4.47155 74.3651 4.50638C75.1222 4.60588 76.4088 4.60206 76.6435 4.60552C77.7499 4.62031 76.9596 3.86588 77.8149 3.71302C77.9544 3.68836 77.7405 4.45759 77.8986 4.54635C77.9358 4.56607 78.2518 4.02367 78.3448 4.01874C78.5586 4.00887 78.6702 4.51676 78.9863 4.36883C78.9973 4.36376 79.0082 4.35874 79.0191 4.35377C79.3039 4.22375 80.9384 4.11959 81.0594 4.40828C81.1616 4.63511 82.5375 4.4428 82.9094 4.42801C83.6717 4.39842 84.5084 4.62031 85.2149 4.54142C85.6332 4.49704 86.0423 4.3639 86.3583 4.17653C86.4234 4.13708 86.8604 3.63412 86.6744 3.64398C86.8046 3.63905 87.1114 4.11242 87.2229 4.18639C87.4739 4.35404 87.8272 4.4428 88.1712 4.48225C88.7383 4.54635 89.5285 4.55621 90.0863 4.4428C90.3094 4.39842 90.2814 4.03846 90.5232 3.91025C90.5892 3.87388 90.7129 3.85002 90.8545 3.83706C91.4069 3.78653 90.7273 3.6987 91.0251 4.16666C91.1647 4.38856 91.6294 4.46745 91.9548 4.5069C92.1407 4.52662 94.1395 4.48718 93.9536 4.17653C94.1231 4.45569 94.4296 4.74395 94.7415 4.31366C94.7677 4.27751 94.7627 4.25304 94.8073 4.2546C94.9979 4.26129 96.9186 4.48032 97.1072 4.50863C97.297 4.53712 97.493 4.55471 97.7003 4.55621C97.7833 4.55621 99.4475 4.36883 99.0851 4.16666C99.4666 4.38363 99.6612 4.75838 100.248 4.44773C100.524 4.30107 101.173 4.34371 101.469 4.44462C101.55 4.47205 101.641 4.49322 101.744 4.5069C102.051 4.54635 102.367 4.2998 102.023 4.16173C101.772 4.06311 101.456 4.31459 101.345 4.25049C101.139 4.13215 101.958 3.44181 102.404 3.77219C102.581 3.90039 102.534 4.20118 102.813 4.24556C102.953 4.27021 103.064 4.22091 103.185 4.26528C103.548 4.38856 104.077 4.35404 104.468 4.3639C105.369 4.3787 106.271 4.38856 107.173 4.41321C107.787 4.46745 108.577 4.5069 109.107 4.25542C109.377 4.12722 109.925 3.57002 110.306 3.96943C110.594 4.27515 110.891 4.62524 111.608 4.4428C111.989 4.34418 112.528 3.73767 112.909 3.71795C112.798 3.72288 112.575 4.34911 113.076 4.32446C113.318 4.31459 113.569 4.2209 113.774 4.14694C113.941 4.08777 113.96 3.84615 114.164 3.83629C114.359 3.82643 113.82 4.3787 114.22 4.3639C114.582 4.34911 114.536 4.06804 114.722 3.95956C114.62 4.01874 116.135 4.3787 116.395 4.36883C116.646 4.3639 116.981 4.31952 117.093 4.14694C117.195 3.96943 116.767 3.89546 116.869 3.75739C117.111 3.44674 117.427 3.60947 117.548 3.87081C117.715 4.21597 117.688 4.28008 118.32 4.26528C118.701 4.25542 119.323 4.14201 119.695 4.26035C120.111 4.39285 120.555 4.21643 120.992 4.21118C121.43 4.20592 121.955 4.28242 122.289 4.27021C123.219 4.23077 124.102 4.19625 125.023 4.28008C125.468 4.31952 126.268 4.39842 126.231 3.98422C126.277 4.46745 127.021 4.37377 127.43 4.04832C127.497 3.99502 128.098 3.9591 128.178 3.99093C128.289 4.03555 128.433 4.07252 128.62 4.10256C129.68 4.27021 130.982 4.21104 132.069 4.18639C132.803 4.1716 133.547 4.11242 134.282 4.11242C134.738 4.11242 135.09 4.23077 135.5 4.21104C135.797 4.19625 135.583 4.07791 135.852 4.06311C136.206 4.04832 137.297 4.17653 137.669 4.15187C137.781 4.14201 137.479 3.96943 137.35 3.89053C137.331 3.88067 137.781 4.1716 137.669 4.00394C137.585 3.87081 136.922 3.60453 137.061 3.51085C137.712 3.07692 138.58 3.86094 138.58 4.03846C138.562 4.56607 139.891 4.06311 140.244 4.03846C140.867 3.99525 140.343 3.86643 140.951 4.00546C141.844 4.20971 143.237 4.07864 143.82 3.99901C144.294 3.93491 143.513 3.5355 144.276 3.58481C144.861 3.62426 145.432 4.0927 145.962 4.11735C146.882 4.16173 147.821 4.0286 148.741 4.03846C149.058 4.03846 149.336 4.16666 149.597 4.1568C149.988 4.14201 149.352 3.99901 149.742 3.97929C150.094 3.96449 150.963 4.15187 151.224 4.1568C151.577 4.1568 151.099 4.06311 151.424 3.98915C151.815 3.90039 152.252 3.69329 152.67 3.67357C153.125 3.65384 153.967 3.91025 154.236 4.05818C154.161 4.01874 153.535 3.71302 153.609 3.65384C153.47 3.75739 154.083 3.97929 154.214 3.98422C154.935 4.00087 155.674 4.00984 156.395 3.99042C156.412 3.98998 156.428 3.98956 156.444 3.98915C156.742 3.98422 156.844 4.14694 157.002 4.13708C157.439 4.11735 157.69 4.07791 158.109 3.98915C158.573 3.89053 158.787 4.05818 159.186 4.03846L161.205 3.9497C161.957 3.91519 162.431 4.00394 163.073 4.08777C163.686 4.16666 164.849 4.30473 165.378 4.00394C165.648 3.85108 165.323 3.27909 165.703 3.21992C166.364 3.19033 166.308 3.87081 166.336 4.14201C166.28 3.57495 167.275 3.98422 167.6 3.99408C168.288 4.01874 168.957 3.96449 169.655 4.0138C169.971 4.03846 171.188 4.19132 171.403 3.97436C171.607 3.76233 171.477 3.67357 172.044 3.70315C173.355 3.77219 174.415 4.21597 175.809 4.06311C176.441 3.99408 176.357 3.87081 176.71 3.58974C177.309 3.11356 178.026 4.13816 178.787 4.06401C178.955 4.04768 179.115 4.03304 179.258 4.0286C179.9 4.00887 180.532 4.01874 181.173 4.03846C181.731 4.05818 184.194 4.48225 183.702 3.7426C183.525 3.47633 185.022 3.58974 185.189 3.60947C185.459 3.63905 185.44 3.99901 185.831 4.11242C186.356 4.25908 187.493 4.25065 187.024 3.69792C187.016 3.68871 187.01 3.67923 187.006 3.66787C186.972 3.5725 187.06 3.48709 187.141 3.54809C187.404 3.74624 187.697 3.91378 188.118 4.0286C189.158 4.31459 189.363 3.72288 190.284 3.71795C190.785 3.71795 190.265 4.00394 190.516 4.10256C190.767 4.19625 191.725 4.00394 192.059 3.98915C192.147 3.9854 192.179 4.01238 192.202 4.04207C192.31 4.18517 192.52 4.04608 192.68 3.96324C192.848 3.87553 193.037 3.7984 193.208 3.88078C193.42 3.98276 193.667 4.17881 193.965 4.15187C194.118 4.13691 194.236 4.10711 194.351 4.08539C194.682 4.02298 195.011 4.26114 195.34 4.19132C195.889 4.14694 196.149 3.9497 196.54 3.73274C196.707 3.63905 196.828 4.07791 196.903 4.15187C197.032 4.27515 197.795 4.08777 198.083 4.07298C199.245 4.02367 200.361 4.41814 201.569 4.25049C201.709 4.23077 202.601 3.86588 202.638 3.9497C202.685 4.03846 202.881 4.4428 203.057 4.22584C203.4 3.80177 203.196 3.90039 203.745 4.1568C203.958 4.25542 204.591 4.50197 204.553 4.13708C204.489 3.49605 205.335 4.17653 205.548 4.21104C206.357 4.33925 207.379 4.18639 208.188 4.15187C209.128 4.11242 209.917 4.12722 210.81 4.16666C211.898 4.21597 213.079 4.14201 214.157 4.04339C214.947 3.97436 214.705 3.76726 215.189 3.54536C215.267 3.51084 215.41 3.53791 215.561 3.59402C215.975 3.74835 216.167 4.38199 216.509 4.10256C216.558 4.06256 216.628 3.98629 216.704 3.9097C216.975 3.63785 218.049 4.02324 217.717 3.83136C217.804 3.88084 217.875 3.93474 217.937 3.98835C218.34 4.34121 218.949 4.02283 219.447 4.2209C219.874 4.38856 220.552 4.35404 221.027 4.3787C221.864 4.42307 222.728 4.42801 223.556 4.30473C223.732 4.28008 223.9 4.15187 224.03 4.15187C224.504 4.15187 224.903 4.29487 225.387 4.26035C226.019 4.21597 226.223 3.71795 226.716 4.12722C227.004 4.36975 228.297 4.41817 229.203 4.33182C229.75 4.27974 230.557 4.12029 231.104 4.16173C231.786 4.22202 232.697 4.40246 233.348 4.1923C233.404 4.17409 233.451 4.15663 233.484 4.14201C233.968 3.92998 234.692 4.29487 235.232 4.35404C235.836 4.41814 236.515 4.42801 237.11 4.30966C237.565 4.21597 237.612 3.89546 238.076 3.93491C238.7 3.98422 239.22 4.40335 239.843 4.2209C240.05 4.15878 240.921 3.59186 240.645 4.06407C240.626 4.09582 240.616 4.13278 240.623 4.16896C240.632 4.21927 240.646 4.26094 240.664 4.29479C240.738 4.43469 241.679 4.2438 241.818 4.1693C241.897 4.12695 242.017 4.10967 242.101 4.14364C242.857 4.45252 245.761 4.43282 245.718 3.98915C245.746 4.23077 245.793 4.5858 246.314 4.56114C246.7 4.54161 247.129 4.30164 247.501 4.40921C247.595 4.43647 247.689 4.44845 247.782 4.42801C248.304 4.31993 248.664 4.09039 249.19 4.17336C249.718 4.2566 250.328 4.27234 250.739 4.30966C251.51 4.3787 252.625 4.51183 253.388 4.31952C253.862 4.20118 254.02 3.63412 254.652 3.77712C254.95 3.84615 255.34 4.24556 255.637 4.23077C255.768 4.22584 255.591 3.84615 255.86 3.78698C256.27 3.70315 256.075 4.28994 256.716 4.27021C257.162 4.25542 257.441 4.0927 257.841 4.04339C258.343 4.01874 258.715 4.20611 259.207 4.26035C259.422 4.28535 260.041 4.34788 260.507 4.30436C260.695 4.28678 261.468 4.26305 261.657 4.26868C261.849 4.2744 262.067 4.25539 262.28 4.21699C262.431 4.18977 264.356 3.92599 264.509 3.92185C264.534 3.92117 264.563 3.91162 264.585 3.89876C264.961 3.6728 265.878 3.99197 266.366 4.08777C266.445 4.10337 266.521 4.11478 266.593 4.12264C267.545 4.22656 269.035 4.42009 269.992 4.39349C270.717 4.36883 270.623 3.73767 271.191 3.80177C271.581 3.84615 270.866 4.14201 271.498 4.13215C271.935 4.12722 272.213 3.90039 272.659 3.98422C273.007 4.04851 273.643 3.94886 274.023 4.02213C274.126 4.04203 274.18 4.075 274.253 4.1508C274.432 4.33695 274.684 3.98646 274.922 4.08556C275.071 4.14753 275.194 4.30503 275.485 4.24556C275.783 4.18146 275.876 3.6785 276.062 3.66864C275.969 3.66864 276.286 4.16666 276.433 4.21597C276.638 4.28501 276.926 4.25542 277.14 4.22584C277.228 4.21178 277.953 4.0267 278.042 4.01909C278.158 4.00922 278.247 3.95381 278.256 3.83136C278.283 3.54324 278.46 3.78351 278.692 3.95687C279.084 4.25068 279.988 4.12879 280.692 4.16173C281.064 4.17653 281.575 4.2357 281.937 4.13215C282.179 4.06311 281.9 3.76726 281.863 3.76726C282.067 3.75739 282.411 4.07791 282.709 4.11242C283.146 4.16173 283.602 4.1568 284.038 4.16666C285.823 4.20118 287.626 4.2357 289.402 4.27021C289.631 4.27021 290.274 4.12687 289.869 3.94835C289.856 3.94297 289.842 3.94345 289.83 3.9497Z" fill="#FF6D02"/>
</svg>
