<svg width="131" height="131" viewBox="0 0 131 131" fill="none" xmlns="http://www.w3.org/2000/svg">
<path d="M65.5 114.625C92.631 114.625 114.625 92.631 114.625 65.5C114.625 38.369 92.631 16.375 65.5 16.375C38.369 16.375 16.375 38.369 16.375 65.5C16.375 92.631 38.369 114.625 65.5 114.625Z" stroke="black" stroke-width="4" stroke-linecap="round" stroke-linejoin="round"/>
<path d="M73.6875 94.1562C73.6875 91.9848 74.5501 89.9023 76.0856 88.3668C77.621 86.8314 79.7035 85.9688 81.875 85.9688C84.0465 85.9688 86.129 86.8314 87.6644 88.3668C89.1999 89.9023 90.0625 91.9848 90.0625 94.1562" stroke="black" stroke-width="4" stroke-linecap="round" stroke-linejoin="round"/>
<path d="M40.9375 94.1562C40.9375 91.9848 41.8001 89.9023 43.3356 88.3668C44.871 86.8314 46.9535 85.9688 49.125 85.9688C51.2965 85.9688 53.379 86.8314 54.9144 88.3668C56.4499 89.9023 57.3125 91.9848 57.3125 94.1562" stroke="black" stroke-width="4" stroke-linecap="round" stroke-linejoin="round"/>
<path d="M73.6875 113.942V94.1562C73.6875 91.9848 72.8249 89.9023 71.2894 88.3668C69.754 86.8314 67.6715 85.9688 65.5 85.9688C63.3285 85.9688 61.246 86.8314 59.7106 88.3668C58.1751 89.9023 57.3125 91.9848 57.3125 94.1562V113.942" stroke="black" stroke-width="4" stroke-linecap="round" stroke-linejoin="round"/>
<path d="M90.0625 108.055V90.0625L65.5 36.8438L40.9375 90.0625V108.057" stroke="black" stroke-width="4" stroke-linecap="round" stroke-linejoin="round"/>
<path d="M54.1635 61.4062H76.8365" stroke="black" stroke-width="4" stroke-linecap="round" stroke-linejoin="round"/>
</svg>
