<svg width="142" height="142" viewBox="0 0 142 142" fill="none" xmlns="http://www.w3.org/2000/svg">
<path d="M62.125 102.062H17.75C15.3962 102.062 13.1388 101.127 11.4744 99.4631C9.81004 97.7987 8.875 95.5413 8.875 93.1875V53.25C8.875 50.8962 9.81004 48.6388 11.4744 46.9744C13.1388 45.31 15.3962 44.375 17.75 44.375H62.125" stroke="black" stroke-width="4" stroke-linecap="round" stroke-linejoin="round"/>
<path d="M62.125 119.812H35.5" stroke="black" stroke-width="4" stroke-linecap="round" stroke-linejoin="round"/>
<path d="M115.375 39.9375H97.625" stroke="black" stroke-width="4" stroke-linecap="round" stroke-linejoin="round"/>
<path d="M115.375 57.6875H97.625" stroke="black" stroke-width="4" stroke-linecap="round" stroke-linejoin="round"/>
<path d="M128.688 22.1875H84.3125C81.8617 22.1875 79.875 24.1742 79.875 26.625V115.375C79.875 117.826 81.8617 119.812 84.3125 119.812H128.688C131.138 119.812 133.125 117.826 133.125 115.375V26.625C133.125 24.1742 131.138 22.1875 128.688 22.1875Z" stroke="black" stroke-width="4" stroke-linecap="round" stroke-linejoin="round"/>
<path d="M48.8125 102.062V119.812" stroke="black" stroke-width="4" stroke-linecap="round" stroke-linejoin="round"/>
<path d="M106.5 106.5C110.176 106.5 113.156 103.52 113.156 99.8438C113.156 96.1676 110.176 93.1875 106.5 93.1875C102.824 93.1875 99.8438 96.1676 99.8438 99.8438C99.8438 103.52 102.824 106.5 106.5 106.5Z" fill="black"/>
</svg>
