<?xml version="1.0" encoding="utf-8"?>
<!-- Generator: Adobe Illustrator 21.1.0, SVG Export Plug-In . SVG Version: 6.00 Build 0)  -->
<svg version="1.1" id="Capa_1" xmlns="http://www.w3.org/2000/svg" xmlns:xlink="http://www.w3.org/1999/xlink" x="0px" y="0px"
	 viewBox="0 0 40 35" style="enable-background:new 0 0 40 35;" xml:space="preserve">
<style type="text/css">
	.st0{fill:#C19356;}
</style>
<g>
	<path class="st0" d="M40,1.4c0.2-0.9-0.7-1.7-1.6-1.4L0.8,14.6C0.3,14.7,0,15.2,0,15.7c0,0.5,0.3,0.9,0.7,1.1l10.6,4.1v13
		c0,0.5,0.4,1,0.9,1.1c0.5,0.1,1.1-0.1,1.3-0.6l4.4-8.7l10.7,8c0.6,0.5,1.6,0.2,1.8-0.6C40.4,0.1,40,1.5,40,1.4L40,1.4z M30.7,5.6
		L12.3,18.7l-7.9-3.1L30.7,5.6z M13.7,20.7l16-11.5C15.9,23.8,16.6,23,16.6,23.1c-0.1,0.1,0.2-0.3-2.9,5.7V20.7z M28.7,30.7l-9.4-7
		l17-18L28.7,30.7z"/>
</g>
</svg>
