<?xml version="1.0" encoding="utf-8"?>
<!-- Generator: Adobe Illustrator 21.1.0, SVG Export Plug-In . SVG Version: 6.00 Build 0)  -->
<svg version="1.1" id="Layer_1" xmlns="http://www.w3.org/2000/svg" xmlns:xlink="http://www.w3.org/1999/xlink" x="0px" y="0px"
	 viewBox="0 0 37 37" style="enable-background:new 0 0 37 37;" xml:space="preserve">
<style type="text/css">
	.st0{fill:#C19356;}
</style>
<g>
	<g>
		<path class="st0" d="M32.8,27.9l-5.4-5.4c-1.1-1.1-2.9-1.1-4.1,0l-1.6,1.6c-3.6-2.2-6.6-5.2-8.8-8.8l1.7-1.7
			c1.1-1.1,1.1-2.9,0-4.1L9.2,4.1C8.1,3,6.3,3,5.2,4.1L1.8,7.5c-1.6,1.4-2.2,3.6-1.5,5.7c3.8,10.9,12.6,19.6,23.4,23.4
			c2,0.7,4.1,0.2,5.5-1.2c0,0,0,0,0.1-0.1l3.4-3.4C33.9,30.9,33.9,29,32.8,27.9z M31,30.3l-3.4,3.4c0,0-0.1,0.1-0.1,0.1
			c-0.7,0.8-1.8,1-3,0.6C14.4,30.8,6.2,22.6,2.6,12.4c-0.4-1.2-0.1-2.4,0.7-3.1c0,0,0.1-0.1,0.1-0.1l3.4-3.5C7,5.7,7.1,5.7,7.2,5.7
			c0.1,0,0.2,0,0.3,0.1l5.4,5.4c0.2,0.2,0.2,0.5,0,0.6l-2.4,2.4c-0.4,0.4-0.5,1-0.2,1.5c2.6,4.6,6.4,8.4,11,11
			c0.5,0.3,1.1,0.2,1.5-0.2l2.2-2.2c0.2-0.2,0.5-0.2,0.6,0l5.4,5.4C31.2,29.8,31.2,30.1,31,30.3z"/>
	</g>
</g>
<g>
	<g>
		<path class="st0" d="M19.4,9.5c-0.7,0-1.2,0.5-1.2,1.2c0,0.7,0.5,1.2,1.2,1.2c3.1,0,5.6,2.5,5.6,5.6c0,0.7,0.5,1.2,1.2,1.2
			s1.2-0.5,1.2-1.2C27.5,13.1,23.9,9.5,19.4,9.5z"/>
	</g>
</g>
<g>
	<g>
		<path class="st0" d="M19.4,4.7c-0.7,0-1.2,0.5-1.2,1.2s0.5,1.2,1.2,1.2c5.7,0,10.4,4.7,10.4,10.4c0,0.7,0.5,1.2,1.2,1.2
			s1.2-0.5,1.2-1.2C32.3,10.5,26.5,4.7,19.4,4.7z"/>
	</g>
</g>
<g>
	<g>
		<path class="st0" d="M31.9,5.1C28.5,1.8,24.1,0,19.4,0c-0.7,0-1.2,0.5-1.2,1.2s0.5,1.2,1.2,1.2c8.3,0,15.1,6.8,15.1,15.1
			c0,0.7,0.5,1.2,1.2,1.2s1.2-0.5,1.2-1.2C37,12.9,35.2,8.5,31.9,5.1z"/>
	</g>
</g>
</svg>
