<?xml version="1.0" encoding="utf-8"?>
<!-- Generator: Adobe Illustrator 21.1.0, SVG Export Plug-In . SVG Version: 6.00 Build 0)  -->
<svg version="1.1" id="Capa_1" xmlns="http://www.w3.org/2000/svg" xmlns:xlink="http://www.w3.org/1999/xlink" x="0px" y="0px"
	 viewBox="0 0 55 57" style="enable-background:new 0 0 55 57;" xml:space="preserve">
<style type="text/css">
	.st0{fill:#F7C129;}
</style>
<g>
	<g>
		<path class="st0" d="M5.1,41.9c-1.2,1.2-1.8,2.6-1.8,4.1c0,1.5,0.6,2.9,1.8,4.2c0.5,0.5,1,1.1,1.5,1.6c0.7,0.7,1.4,1.4,2,2.2
			c0,0,0,0,0,0.1c1.8,2,4,3,6.7,3c0.2,0,0.5,0,0.7,0c4-0.3,7.6-1.8,10.2-3.1c7-3.5,13.1-8.5,18.2-14.8c4.2-5.2,7-10.1,8.9-15.4
			c0.8-2.1,1.8-5.4,1.5-8.9c-0.2-2.2-1-4.1-2.5-5.6l-4-4.1c0,0,0,0,0,0c-1.2-1.2-2.5-1.8-4-1.8c-1.4,0-2.8,0.6-3.9,1.8
			c-0.8,0.7-1.5,1.5-2.2,2.2c-0.3,0.4-0.7,0.8-1.1,1.1l-3.2,3.3c-2.4,2.5-2.4,5.8,0,8.3c0.3,0.3,0.7,0.7,1,1
			c0.9,0.9,1.7,1.8,2.7,2.7c-0.7,1.6-1.7,3.2-3.1,5.1c-3,3.8-6.1,6.8-9.6,9c-0.3,0.2-0.7,0.4-1.2,0.6c-0.3,0.2-0.6,0.3-0.9,0.5
			l-3.7-3.8c-1.2-1.2-2.5-1.9-4-1.9c-1.4,0-2.8,0.6-3.9,1.9L5.1,41.9z M7.4,44.2l6.4-6.6c0,0,0,0,0,0c0.4-0.4,1-0.9,1.7-0.9
			c0.7,0,1.4,0.5,1.8,0.9l4,4.1c0.2,0.2,0.8,0.8,1.8,0.8c0.4,0,0.8-0.1,1.2-0.3c0,0,0.1-0.1,0.1-0.1c0.3-0.2,0.7-0.4,1.2-0.6
			c0.5-0.2,1-0.5,1.4-0.8c3.7-2.4,7.1-5.6,10.3-9.7l0,0c1.8-2.3,2.9-4.3,3.8-6.3c0,0,0-0.1,0-0.1c0.2-0.7,0.4-1.7-0.6-2.7
			c0,0,0,0-0.1-0.1c-1-0.9-1.9-1.9-2.9-2.9c-0.3-0.3-0.7-0.7-1-1c-1.2-1.3-1.2-2.5,0-3.7l3.2-3.3c0.4-0.4,0.7-0.8,1.1-1.2
			c0.7-0.8,1.4-1.5,2.1-2.2c0,0,0,0,0,0c0.4-0.4,1-0.8,1.7-0.8c0.6,0,1.2,0.3,1.8,0.9l4,4.1c1,1,1.5,2.2,1.6,3.6
			c0.2,2.2-0.2,4.5-1.3,7.5c-1.8,4.9-4.4,9.5-8.4,14.4C37.3,43,31.6,47.6,25,50.9c-2.4,1.2-5.6,2.6-9.1,2.8c-0.2,0-0.4,0-0.5,0
			c-1.8,0-3.2-0.6-4.4-1.9c-0.7-0.9-1.5-1.7-2.2-2.4c-0.5-0.5-1-1-1.4-1.5c0,0,0,0,0,0C6.2,46.7,6.2,45.4,7.4,44.2z"/>
		<path class="st0" d="M25.3,13.6c-3,0.5-5.8,2-8,4.3s-3.6,5.1-4.2,8.3c-0.1,0.8-0.8,1.3-1.5,1.3c-0.1,0-0.2,0-0.3,0
			c-0.9-0.1-1.4-1-1.3-1.9c0.6-3.8,2.4-7.3,5-10s6-4.6,9.7-5.2c0.9-0.1,1.7,0.4,1.8,1.3C26.7,12.6,26.1,13.4,25.3,13.6z"/>
		<path class="st0" d="M0,25.1c1-6.3,3.9-12,8.3-16.5s9.9-7.5,16-8.6c0.8-0.2,1.7,0.4,1.8,1.3c0.1,0.9-0.4,1.7-1.3,1.9
			c-5.4,1-10.4,3.6-14.3,7.7C6.6,15,4,20.1,3.1,25.7C3,26.5,2.3,27,1.6,27c-0.1,0-0.2,0-0.3,0C0.5,26.9-0.1,26,0,25.1z"/>
	</g>
</g>
</svg>
