<?xml version="1.0" encoding="utf-8"?>
<!-- Generator: Adobe Illustrator 21.1.0, SVG Export Plug-In . SVG Version: 6.00 Build 0)  -->
<svg version="1.1" id="regular" xmlns="http://www.w3.org/2000/svg" xmlns:xlink="http://www.w3.org/1999/xlink" x="0px" y="0px"
	 viewBox="0 0 56 49" style="enable-background:new 0 0 56 49;" xml:space="preserve">
<style type="text/css">
	.st0{fill:#419FD9;}
</style>
<path class="st0" d="M1,23.8l13.7,6.8c0.5,0.3,1.2,0.2,1.7-0.1l12.2-7.1L21.1,30c-0.4,0.3-0.6,0.8-0.6,1.3v15.9
	c0,1.7,2.1,2.4,3.2,1.1l5.9-7.9l14.6,8.3c1,0.6,2.3,0,2.6-1.2L56,2.1c0.3-1.4-1.1-2.5-2.4-2L1.1,20.6C-0.3,21.1-0.4,23.1,1,23.8
	L1,23.8z M51.9,4.5l-8,40L30,36.6c-0.8-0.4-1.7-0.2-2.3,0.5L24,42v-9.9l20-17.7c1.6-1.4-0.2-3.9-2-2.8L15.4,27.1l-9.3-4.6L51.9,4.5z
	"/>
</svg>
