<?xml version="1.0" encoding="utf-8"?>
<!-- Generator: Adobe Illustrator 21.1.0, SVG Export Plug-In . SVG Version: 6.00 Build 0)  -->
<svg version="1.1" id="Layer_1" xmlns="http://www.w3.org/2000/svg" xmlns:xlink="http://www.w3.org/1999/xlink" x="0px" y="0px"
	 viewBox="0 0 49 49" style="enable-background:new 0 0 49 49;" xml:space="preserve">
<style type="text/css">
	.st0{fill:#1EBEA5;}
</style>
<path class="st0" d="M41.7,7.1C37.1,2.5,31,0,24.5,0C11.1,0,0.2,10.9,0.2,24.3c0,4.3,1.1,8.5,3.2,12.1L0,49l12.9-3.4
	c3.5,1.9,7.5,3,11.6,3h0C37.9,48.6,49,37.7,49,24.3C49,17.8,46.2,11.7,41.7,7.1z M24.5,44.5c-3.6,0-7.2-1-10.3-2.8l-0.7-0.4l-7.6,2
	l2-7.4L7.4,35c-2-3.2-3.1-6.9-3.1-10.7c0-11.1,9.1-20.2,20.2-20.2c5.4,0,10.5,2.1,14.3,5.9c3.8,3.8,6.1,8.9,6.1,14.3
	C44.9,35.4,35.6,44.5,24.5,44.5z M35.6,29.4c-0.6-0.3-3.6-1.8-4.1-2c-0.6-0.2-1-0.3-1.4,0.3c-0.4,0.6-1.6,2-1.9,2.4
	c-0.4,0.4-0.7,0.5-1.3,0.2c-3.6-1.8-5.9-3.2-8.3-7.2c-0.6-1.1,0.6-1,1.8-3.3c0.2-0.4,0.1-0.8-0.1-1.1c-0.2-0.3-1.4-3.3-1.9-4.5
	c-0.5-1.2-1-1-1.4-1c-0.4,0-0.8,0-1.2,0s-1.1,0.2-1.6,0.8c-0.6,0.6-2.1,2.1-2.1,5.1s2.2,5.9,2.5,6.3c0.3,0.4,4.3,6.5,10.4,9.2
	c3.9,1.7,5.4,1.8,7.3,1.5c1.2-0.2,3.6-1.5,4.1-2.9c0.5-1.4,0.5-2.6,0.3-2.9C36.6,29.8,36.2,29.7,35.6,29.4z"/>
</svg>
