<svg width="55" height="56" viewBox="0 0 55 56" fill="none" xmlns="http://www.w3.org/2000/svg">
<g id="request-a-call-ico-2.svg" clip-path="url(#clip0_1_224)">
<path id="Vector" d="M37.8751 29.3786L37.8731 29.3749C37.7699 29.1553 37.5924 28.9692 37.3554 28.8587C36.8178 28.608 36.1785 28.8405 35.9278 29.3784L29.366 43.4527C29.1153 43.9904 29.348 44.6295 29.8857 44.8802C30.0325 44.9488 30.1869 44.981 30.3389 44.981C30.7434 44.981 31.131 44.7513 31.3132 44.3605L33.3623 39.9656H40.4387L42.4867 44.3603C42.6689 44.7513 43.0564 44.981 43.461 44.981C43.613 44.981 43.7673 44.9486 43.9141 44.8802C44.4519 44.6296 44.6846 43.9906 44.434 43.4528L37.8751 29.3786ZM34.3639 37.8171L36.9012 32.3749L39.4373 37.8171H34.3639Z" fill="#71836D"/>
<path id="Vector_2" d="M54.948 53.564L51.9947 44.4129C53.5082 41.3814 54.0797 37.8838 53.6051 34.5099C53.092 30.8625 51.4408 27.5543 48.8298 24.9432C45.1236 21.237 39.9894 19.4936 34.846 20.1275C35.2476 16.768 34.6491 13.4194 33.1033 10.4127C32.8321 9.88508 32.1846 9.67711 31.6568 9.94856C31.1291 10.2198 30.9214 10.8674 31.1926 11.3951C34.1279 17.1048 33.0478 23.9934 28.5048 28.5363C23.9577 33.0837 16.824 34.1433 11.1571 31.1136C10.9 30.9762 10.5982 30.9493 10.3209 31.0385L2.73985 33.4828L5.18412 25.9015C5.27361 25.6241 5.24643 25.3224 5.10904 25.0654C2.07921 19.3984 3.13903 12.2645 7.68597 7.71742C12.2361 3.16983 19.1277 2.09185 24.8351 5.03477C25.3624 5.30666 26.0103 5.09966 26.2822 4.57232C26.5541 4.0451 26.3471 3.39724 25.8197 3.12525C22.6672 1.49974 19.1365 0.917193 15.6096 1.44044C12.0124 1.97422 8.7473 3.61917 6.16703 6.19794C3.55647 8.80871 1.90561 12.1167 1.39289 15.7647C0.918732 19.1378 1.49011 22.6358 3.00228 25.6677L0.0518386 34.819C-0.0718037 35.2026 0.0296024 35.6232 0.314699 35.9083C0.519338 36.1129 0.7938 36.2229 1.07439 36.2229C1.1846 36.2229 1.29578 36.2059 1.40396 36.1711L10.555 33.2206C13.4954 34.6873 16.8743 35.2688 20.1525 34.8699C19.5382 39.998 21.2847 45.1126 24.9759 48.801C27.5866 51.4117 30.8942 53.0626 34.5412 53.5753C37.9139 54.0496 41.4118 53.4783 44.4449 51.9659L53.5961 54.9164C53.7042 54.9512 53.8154 54.9682 53.9256 54.9682C54.2062 54.9682 54.4808 54.8582 54.6854 54.6535C54.9703 54.3683 55.0718 53.9476 54.948 53.564ZM44.6789 49.7838C44.4015 49.6946 44.0998 49.7214 43.8429 49.8588C38.0849 52.936 31.1133 51.9002 26.4946 47.2813C23.1109 43.9002 21.6013 39.1451 22.3841 34.4449C25.2686 33.6939 27.8814 32.1982 30.024 30.0555C32.1787 27.9007 33.6811 25.267 34.4283 22.3606C39.1413 21.5588 43.9136 23.0654 47.3105 26.4624C51.8596 31.0117 52.9194 38.1453 49.8879 43.8102C49.7503 44.0675 49.7231 44.3694 49.8127 44.647L52.2592 52.2278L44.6789 49.7838Z" fill="#71836D"/>
<path id="Vector_3" d="M25.733 17.4001C25.733 12.7909 21.9845 9.04102 17.3771 9.04102C12.768 9.04102 9.01807 12.7909 9.01807 17.4001C9.01807 22.0078 12.768 25.7563 17.3771 25.7563C19.2932 25.7563 21.0593 25.1065 22.4705 24.0177L25.2012 26.7485C25.411 26.9582 25.6859 27.0632 25.9608 27.0632C26.2356 27.0632 26.5106 26.9582 26.7203 26.7485C27.1398 26.329 27.1399 25.6488 26.7203 25.2293L23.9902 22.4991C25.0814 21.0871 25.733 19.3187 25.733 17.4001ZM22.455 20.964L19.93 18.4389C19.5105 18.0196 18.8303 18.0195 18.4108 18.4389C17.9913 18.8584 17.9912 19.5386 18.4108 19.9582L20.935 22.4825C19.9267 23.1906 18.7 23.6079 17.377 23.6079C13.9525 23.6079 11.1664 20.8231 11.1664 17.4002C11.1664 13.9756 13.9525 11.1895 17.377 11.1895C20.7998 11.1895 23.5845 13.9757 23.5845 17.4002C23.5846 18.7257 23.1655 19.9545 22.455 20.964Z" fill="#71836D"/>
<path id="Vector_4" d="M29.282 7.8617C29.5539 7.8617 29.826 7.75911 30.0352 7.5534C30.4582 7.13746 30.4639 6.45737 30.048 6.03424L30.0448 6.03112C29.6288 5.60831 28.9504 5.60391 28.5273 6.01995C28.1043 6.43589 28.1001 7.11759 28.5161 7.54061C28.7263 7.75449 29.0041 7.8617 29.282 7.8617Z" fill="#71836D"/>
</g>
<defs>
<clipPath id="clip0_1_224">
<rect width="55" height="55" fill="white" transform="translate(0 0.611328)"/>
</clipPath>
</defs>
</svg>
