<svg width="50" height="46" viewBox="0 0 50 46" fill="none" xmlns="http://www.w3.org/2000/svg">
<rect y="0.541016" width="50" height="45" rx="4" fill="#60BD6F"/>
<g clip-path="url(#clip0_1_280)">
<path fill-rule="evenodd" clip-rule="evenodd" d="M24.0679 11.5538C22.8064 11.683 21.8438 11.9056 20.8516 12.2976C19.4651 12.8454 18.3374 13.5729 17.2485 14.6222C15.1706 16.6245 14.031 19.1486 13.9101 22.0168C13.832 23.8678 14.3003 25.8807 15.188 27.5094C15.2945 27.7049 15.3817 27.8912 15.3816 27.9235C15.3816 27.9557 14.9583 29.2246 14.4408 30.7432C13.9234 32.2617 13.5 33.5382 13.5 33.5797C13.5 33.671 13.6765 33.8448 13.7692 33.8448C13.8058 33.8448 15.1372 33.4329 16.7278 32.9294C18.3185 32.426 19.648 32.0141 19.6824 32.0141C19.7167 32.0141 19.9692 32.1202 20.2435 32.25C21.141 32.6746 22.2582 33.0082 23.3459 33.1762C24.0532 33.2855 25.7453 33.2862 26.4528 33.1775C28.8564 32.8082 31.0085 31.7368 32.6897 30.0722C33.7198 29.0524 34.5502 27.8161 35.0891 26.5001C35.4334 25.6593 35.6557 24.8288 35.8241 23.754C35.8983 23.2809 35.8984 21.5991 35.8244 21.0734C35.4564 18.4617 34.2875 16.2046 32.4002 14.4616C30.75 12.9377 28.7492 11.9875 26.4528 11.6371C26.0128 11.57 24.445 11.5152 24.0679 11.5538ZM26.2667 13.9011C28.8394 14.331 31.0603 15.8279 32.3976 18.0332C32.9562 18.9544 33.3987 20.2108 33.545 21.2913C33.6144 21.8042 33.6154 23.0184 33.5467 23.5143C33.4307 24.3519 33.0813 25.4821 32.7103 26.2189C31.8566 27.915 30.3233 29.4002 28.6145 30.1861C27.4739 30.7107 26.4591 30.9524 25.2057 30.998C23.4839 31.0607 21.8778 30.6518 20.4191 29.7796C20.206 29.6522 20.0042 29.5622 19.9377 29.565C19.8748 29.5677 19.1833 29.7734 18.4011 30.0222C17.6189 30.2709 16.9739 30.471 16.9678 30.4668C16.9617 30.4626 17.1636 29.8467 17.4164 29.0982C17.6691 28.3497 17.8757 27.6845 17.8753 27.62C17.8748 27.5494 17.7596 27.329 17.5861 27.0668C16.7906 25.8645 16.3154 24.441 16.2155 22.9612C16.174 22.3455 16.2102 21.513 16.3007 21.008C16.7961 18.2415 18.5224 15.9468 21.0485 14.6969C21.9903 14.231 22.9353 13.9661 24.1773 13.8198C24.4953 13.7824 25.8782 13.8362 26.2667 13.9011ZM21.4861 17.3451C20.8063 17.4519 20.5012 17.5782 20.1812 17.8852C19.4004 18.6343 19.176 20.1111 19.6517 21.37C20.1041 22.5673 21.6233 24.5369 22.8829 25.5594C24.1064 26.5526 25.5056 27.2107 27.1092 27.5472C27.5346 27.6366 28.3175 27.6361 28.6587 27.5464C29.3112 27.3748 30.0966 26.8119 30.3515 26.3331C30.583 25.8982 30.6901 24.9719 30.5418 24.6863C30.4849 24.5766 30.3059 24.4733 29.4587 24.0615C28.9006 23.7902 28.3125 23.5168 28.152 23.4541C27.616 23.2445 27.4824 23.2943 27.0118 23.8789C26.4501 24.5766 26.3498 24.6912 26.3014 24.6907C26.2764 24.6904 26.1027 24.6235 25.9155 24.5421C25.2001 24.231 24.2008 23.4624 23.4858 22.6735C23.1804 22.3365 22.6895 21.693 22.6895 21.6296C22.6895 21.6084 22.8232 21.4373 22.9866 21.2492C23.4012 20.7721 23.5412 20.5051 23.5358 20.2016C23.5322 19.9992 23.4588 19.7922 23.0646 18.8721C22.8078 18.2728 22.5458 17.7075 22.4824 17.6159C22.2811 17.3253 22.0359 17.2586 21.4861 17.3451Z" fill="white"/>
</g>
<defs>
<clipPath id="clip0_1_280">
<rect width="23" height="23" fill="white" transform="translate(13.5 11.541)"/>
</clipPath>
</defs>
</svg>
