<svg width="36" height="35" viewBox="0 0 36 35" fill="none" xmlns="http://www.w3.org/2000/svg">
<path d="M32.7435 0.0493164H3.25649C1.458 0.0493164 0 1.44947 0 3.17661V31.4937C0 33.2209 1.458 34.6211 3.25649 34.6211H32.7434C34.542 34.6211 36 33.2209 36 31.4937V3.17661C36 1.44947 34.542 0.0493164 32.7435 0.0493164ZM11.1399 29.9009C11.1399 30.4035 10.7157 30.811 10.1922 30.811H6.15817C5.63475 30.811 5.21048 30.4035 5.21048 29.9009V13.6611C5.21048 13.1584 5.63475 12.751 6.15817 12.751H10.1922C10.7157 12.751 11.1399 13.1584 11.1399 13.6611V29.9009ZM8.1752 11.2202C6.05865 11.2202 4.34281 9.57239 4.34281 7.53981C4.34281 5.50722 6.05865 3.85945 8.1752 3.85945C10.2918 3.85945 12.0076 5.50722 12.0076 7.53981C12.0076 9.57239 10.2919 11.2202 8.1752 11.2202ZM32.2219 29.9742C32.2219 30.4363 31.8317 30.811 31.3505 30.811H27.0217C26.5405 30.811 26.1503 30.4363 26.1503 29.9742V22.3568C26.1503 21.2205 26.4974 17.3773 23.058 17.3773C20.3901 17.3773 19.849 20.0078 19.7403 21.1883V29.9742C19.7403 30.4363 19.3503 30.811 18.869 30.811H14.6823C14.2011 30.811 13.8109 30.4363 13.8109 29.9742V13.5878C13.8109 13.1257 14.2011 12.751 14.6823 12.751H18.869C19.3502 12.751 19.7403 13.1257 19.7403 13.5878V15.0046C20.7296 13.5789 22.1997 12.4785 25.33 12.4785C32.2616 12.4785 32.2219 18.6974 32.2219 22.1144V29.9742Z" fill="#E2E2E2"/>
</svg>
