<svg width="24" height="24" viewBox="0 0 24 24" xmlns="http://www.w3.org/2000/svg"><path fill-rule="evenodd" clip-rule="evenodd" d="M5.54039 5.54036C5.79423 5.28652 6.20578 5.28652 6.45963 5.54036L12 11.0807L17.5404 5.54036C17.7942 5.28652 18.2058 5.28652 18.4596 5.54036C18.7135 5.7942 18.7135 6.20575 18.4596 6.4596L12.9192 12L18.4596 17.5404C18.7135 17.7942 18.7135 18.2058 18.4596 18.4596C18.2058 18.7134 17.7942 18.7134 17.5404 18.4596L12 12.9192L6.45963 18.4596C6.20578 18.7134 5.79423 18.7134 5.54039 18.4596C5.28655 18.2058 5.28655 17.7942 5.54039 17.5404L11.0808 12L5.54039 6.4596C5.28655 6.20575 5.28655 5.7942 5.54039 5.54036Z"/></svg>