<svg width="24" height="24" viewBox="0 0 24 24" fill="none" xmlns="http://www.w3.org/2000/svg">
    <rect x="2" y="2" width="20" height="20" rx="2" fill="#B9BADB" />
    <path
        d="M17.5535 6.92125C16.5178 6.49087 15.4104 6.1781 14.2526 6C14.1104 6.22832 13.9443 6.5354 13.8298 6.77969C12.599 6.61531 11.3796 6.61531 10.1714 6.77969C10.0569 6.5354 9.88704 6.22832 9.74357 6C8.58454 6.1781 7.47584 6.49202 6.44013 6.92353C4.3511 9.72718 3.78479 12.4612 4.06794 15.1564C5.4535 16.0753 6.79627 16.6336 8.11638 16.9989C8.44233 16.6005 8.73302 16.1769 8.98345 15.7306C8.5065 15.5696 8.04969 15.371 7.61805 15.1404C7.73256 15.0651 7.84457 14.9863 7.95279 14.9053C10.5855 15.9989 13.4459 15.9989 16.0472 14.9053C16.1566 14.9863 16.2686 15.0651 16.3819 15.1404C15.949 15.3721 15.4909 15.5708 15.014 15.7318C15.2644 16.1769 15.5538 16.6016 15.881 17C17.2024 16.6347 18.5464 16.0765 19.932 15.1564C20.2642 12.032 19.3644 9.32307 17.5535 6.92125ZM9.34212 13.4989C8.55181 13.4989 7.9037 12.8436 7.9037 12.0457C7.9037 11.2477 8.53797 10.5913 9.34212 10.5913C10.1463 10.5913 10.7944 11.2466 10.7805 12.0457C10.7818 12.8436 10.1463 13.4989 9.34212 13.4989ZM14.6578 13.4989C13.8675 13.4989 13.2194 12.8436 13.2194 12.0457C13.2194 11.2477 13.8537 10.5913 14.6578 10.5913C15.462 10.5913 16.1101 11.2466 16.0962 12.0457C16.0962 12.8436 15.462 13.4989 14.6578 13.4989Z"
        fill="#2E5AEE" />
</svg>