<svg width="20" height="20" viewBox="0 0 20 20" xmlns="http://www.w3.org/2000/svg"><path fill-rule="evenodd" clip-rule="evenodd" d="M17.5565 0C18.9051 0 20 1.09492 20 2.44352V17.5565C20 18.9051 18.9051 20 17.5565 20H13.3976V12.4643H15.9991L16.4941 9.23688H13.3976V7.14246C13.3976 6.25953 13.8301 5.39887 15.2171 5.39887H16.625V2.65121C16.625 2.65121 15.3473 2.43316 14.1257 2.43316C11.5754 2.43316 9.90852 3.97883 9.90852 6.77707V9.23688H7.07363V12.4643H9.90852V20H2.44352C1.09492 20 0 18.9051 0 17.5565V2.44352C0 1.09492 1.09488 0 2.44352 0H17.5565V0Z"/></svg>