<svg width="48" height="48" viewBox="0 0 48 48" fill="none" xmlns="http://www.w3.org/2000/svg">
<g clip-path="url(#clip0_4_44)">
<mask id="mask0_4_44" style="mask-type:alpha" maskUnits="userSpaceOnUse" x="0" y="0" width="48" height="48">
<path d="M9.81331e-05 24.0001C9.75537e-05 10.7453 10.7453 0.000100811 24.0001 0.000100231C37.2549 9.96518e-05 48.0001 10.7453 48.0001 24.0001C48.0001 37.2549 37.2549 48.0001 24.0001 48.0001C10.7453 48.0001 9.87124e-05 37.2549 9.81331e-05 24.0001Z" fill="#D9D9D9"/>
</mask>
<g mask="url(#mask0_4_44)">
<path d="M15.9999 47.9999H-6.10352e-05V-9.91821e-05H15.9999V47.9999Z" fill="#008259"/>
<path d="M32.0001 47.9999H16.0001V-9.91821e-05H32.0001V47.9999Z" fill="#F5F7F8"/>
<path d="M48.0001 47.9999H32.0001V-9.91821e-05H48.0001V47.9999Z" fill="#DD2033"/>
</g>
</g>
<defs>
<clipPath id="clip0_4_44">
<rect width="48" height="48" fill="white"/>
</clipPath>
</defs>
</svg>
