<?xml version="1.0" encoding="utf-8"?>
<svg viewBox="0 0 48 48" xmlns="http://www.w3.org/2000/svg"
    xmlns:xlink="http://www.w3.org/1999/xlink">
    <style>:root>svg{display:none}:root>svg:target{display:block}</style>
    <svg viewBox="0 0 24 24" id="arrow" xmlns="http://www.w3.org/2000/svg">
        <path fill-rule="evenodd" clip-rule="evenodd"
            d="M5.434 8.434a.8.8 0 011.132 0L12 13.87l5.434-5.435a.8.8 0 011.132 1.132l-6 6a.8.8 0 01-1.132 0l-6-6a.8.8 0 010-1.132z" />
    </svg>
    <svg viewBox="0 0 24 24" id="close" xmlns="http://www.w3.org/2000/svg">
        <path fill-rule="evenodd" clip-rule="evenodd"
            d="M5.54 5.54a.65.65 0 01.92 0L12 11.08l5.54-5.54a.65.65 0 11.92.92L12.92 12l5.54 5.54a.65.65 0 11-.92.92L12 12.92l-5.54 5.54a.65.65 0 01-.92-.92L11.08 12 5.54 6.46a.65.65 0 010-.92z" />
    </svg>
    <svg viewBox="0 0 20 20" id="facebook" xmlns="http://www.w3.org/2000/svg">
        <path fill-rule="evenodd" clip-rule="evenodd"
            d="M17.556 0A2.445 2.445 0 0120 2.444v15.113A2.445 2.445 0 0117.556 20h-4.158v-7.536h2.601l.495-3.227h-3.096V7.142c0-.882.432-1.743 1.82-1.743h1.407V2.65s-1.278-.218-2.5-.218c-2.55 0-4.216 1.546-4.216 4.344v2.46H7.074v3.227h2.835V20H2.444A2.445 2.445 0 010 17.556V2.444A2.445 2.445 0 012.444 0h15.113z" />
    </svg>
    <svg fill="none" viewBox="0 0 48 48" id="flag-de" xmlns="http://www.w3.org/2000/svg">
        <mask id="da" style="mask-type:alpha" maskUnits="userSpaceOnUse" x="0" y="0" width="48"
            height="48">
            <circle cx="24" cy="24" r="24" fill="#D9D9D9" />
        </mask>
        <g mask="url(#da)">
            <path fill="#F1B434" d="M0 48V32h48v16z" />
            <path fill="#DD2033" d="M0 32V16h48v16z" />
            <path fill="#31373D" d="M0 16V0h48v16z" />
        </g>
    </svg>
    <svg fill="none" viewBox="0 0 48 48" id="flag-en" xmlns="http://www.w3.org/2000/svg">
        <g clip-path="url(#eclip0_4_52)">
            <mask id="ea" style="mask-type:alpha" maskUnits="userSpaceOnUse" x="0" y="0" width="48"
                height="48">
                <path
                    d="M24 48c13.255 0 24-10.745 24-24S37.255 0 24 0 0 10.745 0 24s10.745 24 24 24z"
                    fill="#D9D9D9" />
            </mask>
            <g mask="url(#ea)">
                <path d="M48 0H0v48h48V0z" fill="#004692" />
                <path
                    d="M28.526 22.003l-1.415 1.414 16.97 16.97 1.415-1.413-16.97-16.971zM24.754 25.774l-2.357 2.357 16.97 16.97 2.358-2.356-16.97-16.97z"
                    fill="#F5F7F8" />
                <path d="M24.754 25.774l2.357-2.357 16.97 16.97-2.356 2.358-16.97-16.97z"
                    fill="#DD2033" />
                <path
                    d="M25.496 28.128l-1.414-1.414-16.97 16.97L8.525 45.1l16.97-16.97zM21.725 24.357L19.368 22 2.398 38.97l2.356 2.358 16.97-16.97z"
                    fill="#F5F7F8" />
                <path d="M21.725 24.357l2.357 2.357-16.97 16.97-2.358-2.356 16.97-16.97z"
                    fill="#DD2033" />
                <path
                    d="M20.037 27.099l1.415-1.414L4.48 8.715l-1.414 1.413L20.037 27.1zM23.808 23.328l2.358-2.357L9.195 4 6.838 6.356l16.97 16.97z"
                    fill="#F5F7F8" />
                <path d="M23.808 23.328l-2.357 2.357-16.97-16.97 2.357-2.358 16.97 16.97z"
                    fill="#DD2033" />
                <path
                    d="M21.734 20.973l1.414 1.415 16.97-16.971-1.414-1.414-16.97 16.97zM25.505 24.744l2.357 2.358 16.97-16.971-2.357-2.357-16.97 16.97z"
                    fill="#F5F7F8" />
                <path d="M25.505 24.744l-2.357-2.357 16.97-16.97 2.357 2.357-16.97 16.97z"
                    fill="#DD2033" />
                <path fill-rule="evenodd" clip-rule="evenodd"
                    d="M20 48h-3.333V31.333H0V28h16.667v-8H0v-3.333h16.667V0H20v16.667h8V0h3.333v16.667H48V20H31.333v8H48v3.333H31.333V48H28V31.333h-8V48zm8-28h-8v8h8v-8z"
                    fill="#F5F7F8" />
                <path d="M20 48h8V28h20v-8H28V0h-8v20H0v8h20v20z" fill="#DD2033" />
            </g>
        </g>
        <defs>
            <clipPath id="eclip0_4_52">
                <path fill="#fff" d="M0 0h48v48H0z" />
            </clipPath>
        </defs>
    </svg>
    <svg fill="none" viewBox="0 0 48 48" id="flag-it" xmlns="http://www.w3.org/2000/svg">
        <g clip-path="url(#fclip0_4_44)">
            <mask id="fa" style="mask-type:alpha" maskUnits="userSpaceOnUse" x="0" y="0" width="48"
                height="48">
                <path
                    d="M0 24C0 10.745 10.745 0 24 0s24 10.745 24 24-10.745 24-24 24S0 37.255 0 24z"
                    fill="#D9D9D9" />
            </mask>
            <g mask="url(#fa)">
                <path d="M16 48H0V0h16v48z" fill="#008259" />
                <path d="M32 48H16V0h16v48z" fill="#F5F7F8" />
                <path d="M48 48H32V0h16v48z" fill="#DD2033" />
            </g>
        </g>
        <defs>
            <clipPath id="fclip0_4_44">
                <path fill="#fff" d="M0 0h48v48H0z" />
            </clipPath>
        </defs>
    </svg>
    <svg viewBox="0 0 20 20" id="instagram" xmlns="http://www.w3.org/2000/svg">
        <path
            d="M10 0c2.717 0 3.056.01 4.122.06 1.065.05 1.79.217 2.428.465.66.254 1.216.598 1.772 1.153.509.5.902 1.105 1.153 1.772.247.637.415 1.363.465 2.428.047 1.066.06 1.405.06 4.122 0 2.717-.01 3.056-.06 4.122-.05 1.065-.218 1.79-.465 2.428a4.884 4.884 0 01-1.153 1.772c-.5.508-1.105.902-1.772 1.153-.637.247-1.363.415-2.428.465-1.066.047-1.405.06-4.122.06-2.717 0-3.056-.01-4.122-.06-1.065-.05-1.79-.218-2.428-.465a4.892 4.892 0 01-1.772-1.153A4.905 4.905 0 01.525 16.55C.277 15.913.11 15.187.06 14.122.013 13.056 0 12.717 0 10c0-2.717.01-3.056.06-4.122.05-1.066.217-1.79.465-2.428a4.88 4.88 0 011.153-1.772A4.897 4.897 0 013.45.525C4.088.277 4.812.11 5.878.06 6.944.013 7.283 0 10 0zm0 5a5 5 0 100 10 5 5 0 000-10zm6.5-.25a1.25 1.25 0 10-2.5 0 1.25 1.25 0 002.5 0zM10 7a3 3 0 110 6 3 3 0 010-6z" />
    </svg>
    <svg viewBox="0 0 20 20" id="twitter" xmlns="http://www.w3.org/2000/svg">
        <path
            d="M20 3.797a8.164 8.164 0 01-2.357.646 4.11 4.11 0 001.805-2.27c-.793.47-1.671.812-2.606.996A4.103 4.103 0 009.85 6.911a11.65 11.65 0 01-8.458-4.287 4.082 4.082 0 00-.556 2.064c0 1.423.724 2.68 1.825 3.415a4.092 4.092 0 01-1.858-.514v.052a4.106 4.106 0 003.291 4.024 4.12 4.12 0 01-1.853.07 4.108 4.108 0 003.833 2.849A8.231 8.231 0 010 16.284a11.612 11.612 0 006.29 1.843c7.548 0 11.674-6.252 11.674-11.675 0-.178-.003-.355-.01-.531A8.312 8.312 0 0020 3.797z" />
    </svg>
    <svg id="telegram" width="20" height="20" viewBox="0 0 20 20" fill="none"
        xmlns="http://www.w3.org/2000/svg">
        <path fill-rule="evenodd" clip-rule="evenodd"
            d="M4 2C2.89543 2 2 2.89543 2 4V20C2 21.1046 2.89543 22 4 22H20C21.1046 22 22 21.1046 22 20V4C22 2.89543 21.1046 2 20 2H4ZM18.9149 6.42549L16.5651 17.7282C16.5098 17.995 16.1968 18.116 15.976 17.9555L12.7684 15.6267C12.5736 15.4853 12.3081 15.4928 12.1217 15.6448L10.3432 17.0945C10.1368 17.2633 9.8258 17.1692 9.74677 16.915L8.80318 13.8804C8.61943 13.2895 8.17247 12.8169 7.59269 12.6005L5.32141 11.7528C4.99732 11.6314 4.99455 11.1739 5.31771 11.0494L18.4114 5.9982C18.689 5.89086 18.9754 6.13402 18.9149 6.42549Z"
            fill="#B9BADB" />
        <path fill-rule="evenodd" clip-rule="evenodd"
            d="M15.8255 8.01973L9.31178 12.3776C9.06211 12.545 8.94461 12.8725 9.02515 13.1791L9.72941 15.8672C9.77951 16.0576 10.0339 16.0382 10.0583 15.8414L10.2413 14.3673C10.2759 14.0898 10.3977 13.8339 10.5867 13.6429L15.9624 8.21486C16.063 8.11361 15.9425 7.94167 15.8255 8.01973Z"
            fill="#B9BADB" />
    </svg>
    <svg id="discord" width="20" height="20" viewBox="0 0 20 20" fill="none" xmlns="http://www.w3.org/2000/svg">
        <rect x="2" y="2" width="20" height="20" rx="2" fill="#B9BADB" />
        <path
            d="M17.5535 6.92125C16.5178 6.49087 15.4104 6.1781 14.2526 6C14.1104 6.22832 13.9443 6.5354 13.8298 6.77969C12.599 6.61531 11.3796 6.61531 10.1714 6.77969C10.0569 6.5354 9.88704 6.22832 9.74357 6C8.58454 6.1781 7.47584 6.49202 6.44013 6.92353C4.3511 9.72718 3.78479 12.4612 4.06794 15.1564C5.4535 16.0753 6.79627 16.6336 8.11638 16.9989C8.44233 16.6005 8.73302 16.1769 8.98345 15.7306C8.5065 15.5696 8.04969 15.371 7.61805 15.1404C7.73256 15.0651 7.84457 14.9863 7.95279 14.9053C10.5855 15.9989 13.4459 15.9989 16.0472 14.9053C16.1566 14.9863 16.2686 15.0651 16.3819 15.1404C15.949 15.3721 15.4909 15.5708 15.014 15.7318C15.2644 16.1769 15.5538 16.6016 15.881 17C17.2024 16.6347 18.5464 16.0765 19.932 15.1564C20.2642 12.032 19.3644 9.32307 17.5535 6.92125ZM9.34212 13.4989C8.55181 13.4989 7.9037 12.8436 7.9037 12.0457C7.9037 11.2477 8.53797 10.5913 9.34212 10.5913C10.1463 10.5913 10.7944 11.2466 10.7805 12.0457C10.7818 12.8436 10.1463 13.4989 9.34212 13.4989ZM14.6578 13.4989C13.8675 13.4989 13.2194 12.8436 13.2194 12.0457C13.2194 11.2477 13.8537 10.5913 14.6578 10.5913C15.462 10.5913 16.1101 11.2466 16.0962 12.0457C16.0962 12.8436 15.462 13.4989 14.6578 13.4989Z"
            fill="#2E5AEE" />
    </svg>
</svg>