<?xml version="1.0" encoding="utf-8"?><svg viewBox="0 0 48 48" xmlns="http://www.w3.org/2000/svg" xmlns:xlink="http://www.w3.org/1999/xlink"><style>:root>svg{display:none}:root>svg:target{display:block}</style><svg viewBox="0 0 24 24" id="arrow" xmlns="http://www.w3.org/2000/svg"><path fill-rule="evenodd" clip-rule="evenodd" d="M5.434 8.434a.8.8 0 011.132 0L12 13.87l5.434-5.435a.8.8 0 011.132 1.132l-6 6a.8.8 0 01-1.132 0l-6-6a.8.8 0 010-1.132z"/></svg><svg viewBox="0 0 24 24" id="close" xmlns="http://www.w3.org/2000/svg"><path fill-rule="evenodd" clip-rule="evenodd" d="M5.54 5.54a.65.65 0 01.92 0L12 11.08l5.54-5.54a.65.65 0 11.92.92L12.92 12l5.54 5.54a.65.65 0 11-.92.92L12 12.92l-5.54 5.54a.65.65 0 01-.92-.92L11.08 12 5.54 6.46a.65.65 0 010-.92z"/></svg><svg viewBox="0 0 20 20" id="facebook" xmlns="http://www.w3.org/2000/svg"><path fill-rule="evenodd" clip-rule="evenodd" d="M17.556 0A2.445 2.445 0 0120 2.444v15.113A2.445 2.445 0 0117.556 20h-4.158v-7.536h2.601l.495-3.227h-3.096V7.142c0-.882.432-1.743 1.82-1.743h1.407V2.65s-1.278-.218-2.5-.218c-2.55 0-4.216 1.546-4.216 4.344v2.46H7.074v3.227h2.835V20H2.444A2.445 2.445 0 010 17.556V2.444A2.445 2.445 0 012.444 0h15.113z"/></svg><svg fill="none" viewBox="0 0 48 48" id="flag-de" xmlns="http://www.w3.org/2000/svg"><mask id="da" style="mask-type:alpha" maskUnits="userSpaceOnUse" x="0" y="0" width="48" height="48"><circle cx="24" cy="24" r="24" fill="#D9D9D9"/></mask><g mask="url(#da)"><path fill="#F1B434" d="M0 48V32h48v16z"/><path fill="#DD2033" d="M0 32V16h48v16z"/><path fill="#31373D" d="M0 16V0h48v16z"/></g></svg><svg fill="none" viewBox="0 0 48 48" id="flag-en" xmlns="http://www.w3.org/2000/svg"><g clip-path="url(#eclip0_4_52)"><mask id="ea" style="mask-type:alpha" maskUnits="userSpaceOnUse" x="0" y="0" width="48" height="48"><path d="M24 48c13.255 0 24-10.745 24-24S37.255 0 24 0 0 10.745 0 24s10.745 24 24 24z" fill="#D9D9D9"/></mask><g mask="url(#ea)"><path d="M48 0H0v48h48V0z" fill="#004692"/><path d="M28.526 22.003l-1.415 1.414 16.97 16.97 1.415-1.413-16.97-16.971zM24.754 25.774l-2.357 2.357 16.97 16.97 2.358-2.356-16.97-16.97z" fill="#F5F7F8"/><path d="M24.754 25.774l2.357-2.357 16.97 16.97-2.356 2.358-16.97-16.97z" fill="#DD2033"/><path d="M25.496 28.128l-1.414-1.414-16.97 16.97L8.525 45.1l16.97-16.97zM21.725 24.357L19.368 22 2.398 38.97l2.356 2.358 16.97-16.97z" fill="#F5F7F8"/><path d="M21.725 24.357l2.357 2.357-16.97 16.97-2.358-2.356 16.97-16.97z" fill="#DD2033"/><path d="M20.037 27.099l1.415-1.414L4.48 8.715l-1.414 1.413L20.037 27.1zM23.808 23.328l2.358-2.357L9.195 4 6.838 6.356l16.97 16.97z" fill="#F5F7F8"/><path d="M23.808 23.328l-2.357 2.357-16.97-16.97 2.357-2.358 16.97 16.97z" fill="#DD2033"/><path d="M21.734 20.973l1.414 1.415 16.97-16.971-1.414-1.414-16.97 16.97zM25.505 24.744l2.357 2.358 16.97-16.971-2.357-2.357-16.97 16.97z" fill="#F5F7F8"/><path d="M25.505 24.744l-2.357-2.357 16.97-16.97 2.357 2.357-16.97 16.97z" fill="#DD2033"/><path fill-rule="evenodd" clip-rule="evenodd" d="M20 48h-3.333V31.333H0V28h16.667v-8H0v-3.333h16.667V0H20v16.667h8V0h3.333v16.667H48V20H31.333v8H48v3.333H31.333V48H28V31.333h-8V48zm8-28h-8v8h8v-8z" fill="#F5F7F8"/><path d="M20 48h8V28h20v-8H28V0h-8v20H0v8h20v20z" fill="#DD2033"/></g></g><defs><clipPath id="eclip0_4_52"><path fill="#fff" d="M0 0h48v48H0z"/></clipPath></defs></svg><svg fill="none" viewBox="0 0 48 48" id="flag-it" xmlns="http://www.w3.org/2000/svg"><g clip-path="url(#fclip0_4_44)"><mask id="fa" style="mask-type:alpha" maskUnits="userSpaceOnUse" x="0" y="0" width="48" height="48"><path d="M0 24C0 10.745 10.745 0 24 0s24 10.745 24 24-10.745 24-24 24S0 37.255 0 24z" fill="#D9D9D9"/></mask><g mask="url(#fa)"><path d="M16 48H0V0h16v48z" fill="#008259"/><path d="M32 48H16V0h16v48z" fill="#F5F7F8"/><path d="M48 48H32V0h16v48z" fill="#DD2033"/></g></g><defs><clipPath id="fclip0_4_44"><path fill="#fff" d="M0 0h48v48H0z"/></clipPath></defs></svg><svg viewBox="0 0 20 20" id="instagram" xmlns="http://www.w3.org/2000/svg"><path d="M10 0c2.717 0 3.056.01 4.122.06 1.065.05 1.79.217 2.428.465.66.254 1.216.598 1.772 1.153.509.5.902 1.105 1.153 1.772.247.637.415 1.363.465 2.428.047 1.066.06 1.405.06 4.122 0 2.717-.01 3.056-.06 4.122-.05 1.065-.218 1.79-.465 2.428a4.884 4.884 0 01-1.153 1.772c-.5.508-1.105.902-1.772 1.153-.637.247-1.363.415-2.428.465-1.066.047-1.405.06-4.122.06-2.717 0-3.056-.01-4.122-.06-1.065-.05-1.79-.218-2.428-.465a4.892 4.892 0 01-1.772-1.153A4.905 4.905 0 01.525 16.55C.277 15.913.11 15.187.06 14.122.013 13.056 0 12.717 0 10c0-2.717.01-3.056.06-4.122.05-1.066.217-1.79.465-2.428a4.88 4.88 0 011.153-1.772A4.897 4.897 0 013.45.525C4.088.277 4.812.11 5.878.06 6.944.013 7.283 0 10 0zm0 5a5 5 0 100 10 5 5 0 000-10zm6.5-.25a1.25 1.25 0 10-2.5 0 1.25 1.25 0 002.5 0zM10 7a3 3 0 110 6 3 3 0 010-6z"/></svg><svg viewBox="0 0 20 20" id="twitter" xmlns="http://www.w3.org/2000/svg"><path d="M20 3.797a8.164 8.164 0 01-2.357.646 4.11 4.11 0 001.805-2.27c-.793.47-1.671.812-2.606.996A4.103 4.103 0 009.85 6.911a11.65 11.65 0 01-8.458-4.287 4.082 4.082 0 00-.556 2.064c0 1.423.724 2.68 1.825 3.415a4.092 4.092 0 01-1.858-.514v.052a4.106 4.106 0 003.291 4.024 4.12 4.12 0 01-1.853.07 4.108 4.108 0 003.833 2.849A8.231 8.231 0 010 16.284a11.612 11.612 0 006.29 1.843c7.548 0 11.674-6.252 11.674-11.675 0-.178-.003-.355-.01-.531A8.312 8.312 0 0020 3.797z"/></svg></svg>