<svg width="20" height="20" viewBox="0 0 20 20" xmlns="http://www.w3.org/2000/svg"><path d="M10 -4.95911e-05C12.717 -4.95911e-05 13.056 0.00995059 14.122 0.0599506C15.187 0.109951 15.912 0.276951 16.55 0.524951C17.21 0.778951 17.766 1.12295 18.322 1.67795C18.8305 2.17785 19.224 2.78254 19.475 3.44995C19.722 4.08695 19.89 4.81295 19.94 5.87795C19.987 6.94395 20 7.28295 20 10C20 12.717 19.99 13.056 19.94 14.122C19.89 15.187 19.722 15.912 19.475 16.55C19.2247 17.2177 18.8311 17.8226 18.322 18.322C17.822 18.8303 17.2173 19.2237 16.55 19.475C15.913 19.722 15.187 19.89 14.122 19.94C13.056 19.987 12.717 20 10 20C7.283 20 6.944 19.99 5.878 19.94C4.813 19.89 4.088 19.722 3.45 19.475C2.78233 19.2244 2.17753 18.8309 1.678 18.322C1.16941 17.8221 0.77593 17.2174 0.525 16.55C0.277 15.913 0.11 15.187 0.0599999 14.122C0.0129999 13.056 0 12.717 0 10C0 7.28295 0.00999994 6.94395 0.0599999 5.87795C0.11 4.81195 0.277 4.08795 0.525 3.44995C0.77524 2.78213 1.1688 2.17728 1.678 1.67795C2.17767 1.16919 2.78243 0.775681 3.45 0.524951C4.088 0.276951 4.812 0.109951 5.878 0.0599506C6.944 0.0129506 7.283 -4.95911e-05 10 -4.95911e-05ZM10 4.99995C8.6739 4.99995 7.40215 5.52674 6.46447 6.46442C5.52678 7.4021 5 8.6739 5 10C5 11.326 5.52678 12.5978 6.46447 13.5355C7.40215 14.4732 8.6739 15 10 15C11.3261 15 12.5979 14.4732 13.5355 13.5355C14.4732 12.5978 15 11.326 15 10C15 8.6739 14.4732 7.4021 13.5355 6.46442C12.5979 5.52674 11.3261 4.99995 10 4.99995ZM16.5 4.74995C16.5 4.41843 16.3683 4.10049 16.1339 3.86607C15.8995 3.63165 15.5815 3.49995 15.25 3.49995C14.9185 3.49995 14.6005 3.63165 14.3661 3.86607C14.1317 4.10049 14 4.41843 14 4.74995C14 5.08148 14.1317 5.39942 14.3661 5.63384C14.6005 5.86826 14.9185 5.99995 15.25 5.99995C15.5815 5.99995 15.8995 5.86826 16.1339 5.63384C16.3683 5.39942 16.5 5.08148 16.5 4.74995ZM10 6.99995C10.7956 6.99995 11.5587 7.31602 12.1213 7.8786C12.6839 8.4412 13 9.2043 13 10C13 10.7956 12.6839 11.5587 12.1213 12.1213C11.5587 12.6839 10.7956 13 10 13C9.2044 13 8.4413 12.6839 7.87868 12.1213C7.31607 11.5587 7 10.7956 7 10C7 9.2043 7.31607 8.4412 7.87868 7.8786C8.4413 7.31602 9.2044 6.99995 10 6.99995Z"/></svg>