<svg width="24" height="24" viewBox="0 0 24 24" fill="none" xmlns="http://www.w3.org/2000/svg">
    <path fill-rule="evenodd" clip-rule="evenodd"
        d="M4 2C2.89543 2 2 2.89543 2 4V20C2 21.1046 2.89543 22 4 22H20C21.1046 22 22 21.1046 22 20V4C22 2.89543 21.1046 2 20 2H4ZM18.9149 6.42549L16.5651 17.7282C16.5098 17.995 16.1968 18.116 15.976 17.9555L12.7684 15.6267C12.5736 15.4853 12.3081 15.4928 12.1217 15.6448L10.3432 17.0945C10.1368 17.2633 9.8258 17.1692 9.74677 16.915L8.80318 13.8804C8.61943 13.2895 8.17247 12.8169 7.59269 12.6005L5.32141 11.7528C4.99732 11.6314 4.99455 11.1739 5.31771 11.0494L18.4114 5.9982C18.689 5.89086 18.9754 6.13402 18.9149 6.42549Z"
        fill="#B9BADB" />
    <path fill-rule="evenodd" clip-rule="evenodd"
        d="M15.8255 8.01973L9.31178 12.3776C9.06211 12.545 8.94461 12.8725 9.02515 13.1791L9.72941 15.8672C9.77951 16.0576 10.0339 16.0382 10.0583 15.8414L10.2413 14.3673C10.2759 14.0898 10.3977 13.8339 10.5867 13.6429L15.9624 8.21486C16.063 8.11361 15.9425 7.94167 15.8255 8.01973Z"
        fill="#B9BADB" />
</svg>