<svg width="20" height="20" viewBox="0 0 20 20" xmlns="http://www.w3.org/2000/svg"><path d="M20 3.79734C19.2648 4.12416 18.4735 4.34462 17.6433 4.44327C18.491 3.93579 19.141 3.13194 19.4475 2.17299C18.6546 2.64353 17.7769 2.98497 16.8418 3.16928C16.0936 2.37192 15.0271 1.87338 13.8469 1.87338C11.5811 1.87338 9.74404 3.71047 9.74404 5.97668C9.74404 6.29782 9.78019 6.61083 9.85039 6.91167C6.44013 6.74034 3.41636 5.10706 1.39253 2.62445C1.03932 3.23018 0.837139 3.93497 0.837139 4.68767C0.837139 6.11106 1.56141 7.36718 2.66244 8.10284C1.99013 8.08136 1.35721 7.89656 0.803842 7.58928C0.803439 7.60636 0.803439 7.62381 0.803439 7.64126C0.803439 9.62893 2.21789 11.287 4.09516 11.6645C3.75089 11.758 3.38835 11.8083 3.01403 11.8083C2.74932 11.8083 2.49233 11.7827 2.24185 11.7344C2.76435 13.3644 4.27949 14.5511 6.07475 14.584C4.67044 15.6847 2.90157 16.3407 0.978825 16.3407C0.647943 16.3407 0.321128 16.3213 0 16.2831C1.81638 17.4478 3.97296 18.1266 6.28992 18.1266C13.8376 18.1266 17.9644 11.8745 17.9644 6.45209C17.9644 6.27427 17.9607 6.09686 17.9531 5.92066C18.7544 5.34334 19.4503 4.62028 20 3.79734Z"/></svg>