<svg xmlns="http://www.w3.org/2000/svg" version="1.1" xmlns:xlink="http://www.w3.org/1999/xlink" xmlns:svgjs="http://svgjs.com/svgjs" width="512" height="512" x="0" y="0" viewBox="0 0 24 24" style="enable-background:new 0 0 512 512" xml:space="preserve" class=""><g><g fill-rule="evenodd" clip-rule="evenodd"><path fill="#c8ced9" d="M12.568 16.491a.75.75 0 0 1-.133-1.488 2.409 2.409 0 0 0 1.931-1.937.75.75 0 0 1 1.477.266 3.92 3.92 0 0 1-3.14 3.147.778.778 0 0 1-.135.012z" data-original="#999999" class=""></path><path fill="#c8ced9" d="M12 20.69a8.771 8.771 0 0 1-2.769-.452.75.75 0 0 1 .474-1.424A7.245 7.245 0 0 0 12 19.19c3.428 0 6.561-2.442 8.43-6.553a14.5 14.5 0 0 0-1.58-2.694.75.75 0 0 1 1.197-.902c.724.961 1.36 2.072 1.891 3.298a.742.742 0 0 1 0 .595C19.842 17.79 16.128 20.69 12 20.69z" data-original="#999999" class=""></path><g fill="#000"><path d="M9.76 15.617a.744.744 0 0 1-.53-.22 3.874 3.874 0 0 1-1.144-2.759A3.92 3.92 0 0 1 12 8.721c1.038 0 2.046.42 2.765 1.15a.75.75 0 0 1-1.07 1.053A2.387 2.387 0 0 0 12 10.221a2.418 2.418 0 0 0-2.414 2.417c0 .641.25 1.245.705 1.7a.75.75 0 0 1-.53 1.28z" fill="#8994a9" data-original="#000000" class=""></path><path d="M6.654 18.723a.754.754 0 0 1-.463-.16c-1.69-1.328-3.12-3.275-4.13-5.63a.745.745 0 0 1 0-.592c1.021-2.364 2.46-4.321 4.16-5.658 3.465-2.743 8.08-2.752 11.58.02a.75.75 0 1 1-.93 1.176c-2.966-2.348-6.787-2.34-9.721-.018-1.437 1.13-2.67 2.776-3.58 4.778.901 1.99 2.123 3.626 3.548 4.744a.75.75 0 0 1-.464 1.34z" fill="#8994a9" data-original="#000000" class=""></path><path d="M4.113 21.273a.749.749 0 0 1-.53-1.28L19.357 4.22a.749.749 0 1 1 1.06 1.061L4.643 21.053a.744.744 0 0 1-.53.22z" fill="#8994a9" data-original="#000000" class=""></path></g></g></g></svg>