<svg xmlns="http://www.w3.org/2000/svg" width="40" height="28" viewBox="0 0 40 28"><g><g><path fill="#ff7373" d="M40 0v10H19.999V0zM15.999 14H40v10h-6.37c-.828 2.323-3.027 4-5.631 4s-4.803-1.677-5.631-4H15.63c-.829 2.323-3.028 4-5.632 4-2.604 0-4.803-1.677-5.631-4H0v-8c0-3.309 2.691-6 6-6 1.103 0 2-.897 2-2V6c0-3.309 2.691-6 6-6h1.999zm-4 8c0-1.102-.897-2-2-2C8.898 20 8 20.898 8 22v.005A2.002 2.002 0 0 0 9.999 24c1.103 0 2-.897 2-2zM26 22.005A2.002 2.002 0 0 0 27.999 24c1.103 0 2-.897 2-2 0-1.102-.897-2-2-2-1.102 0-1.999.898-1.999 2z"/></g></g></svg>