<svg xmlns="http://www.w3.org/2000/svg" width="40" height="40" viewBox="0 0 40 40"><g><g><path fill="#ff7373" d="M40 20c0 11.028-8.972 20-20 20S0 31.028 0 20 8.972 0 20 0s20 8.972 20 20zm-22-4c0-1.102.898-2 2-2 1.103 0 2 .898 2 2h4c0-2.604-1.677-4.803-4-5.631V8h-4v2.369c-2.323.828-4 3.027-4 5.631 0 3.308 2.691 6 6 6 1.103 0 2 .898 2 2 0 1.103-.897 2-2 2-1.102 0-2-.897-2-2h-4c0 2.604 1.677 4.803 4 5.631V32h4v-2.368c2.323-.829 4-3.028 4-5.632 0-3.309-2.691-6-6-6-1.102 0-2-.897-2-2z"/></g></g></svg>