<svg width="24" height="24" viewBox="0 0 24 24" fill="none" xmlns="http://www.w3.org/2000/svg">
<g id="branch (bank)">
<path id="Vector" d="M2 19.9995V21.9995H22V19.9995H2ZM4 12.9995H6V17.9995H4V12.9995ZM20 17.9995V12.9995H18V17.9995H20ZM11 12.9995H13V17.9995H11V12.9995ZM5.07 7.99945C3.92 8.63945 3.51 8.87945 2.7 8.87945V8.99945H21.3V8.87945C20.51 8.87945 20.17 8.68945 18.94 7.99945L12 4.13945L5.07 7.99945ZM11.51 2.12945C11.81 1.95945 12.18 1.95945 12.48 2.12945L21.48 7.12945C21.8 7.29945 22 7.63945 22 7.99945V9.99945C22 10.5495 21.55 10.9995 21 10.9995H3C2.44 10.9995 2 10.5495 2 9.99945V7.99945C2 7.63945 2.19 7.29945 2.51 7.12945L11.51 2.12945Z" fill="#2B2D33"/>
</g>
</svg>
