<svg width="24" height="24" viewBox="0 0 24 24" fill="none" xmlns="http://www.w3.org/2000/svg">
<g id="chart-bar-grow-2">
<g id="Vector">
<path d="M14 7.38V20.38H10V12.38H13C13.6 12.38 14 12.88 14 13.38V11.68H13.85C13.55 10.98 12.9 10.38 12 10.38H9C8.4 10.38 8 10.78 8 11.38V20.38H4V16.38H7C7.6 16.38 8 16.88 8 17.38V15.68H7.85C7.55 14.98 6.9 14.38 6 14.38H3C2.4 14.38 2 14.78 2 15.38V21.38C2 21.98 2.4 22.38 3 22.38H21C21.6 22.38 22 21.98 22 21.38V7.38C22 6.78 21.6 6.38 21 6.38H15C14.4 6.38 14 6.78 14 7.38ZM16 20.38V8.38H20V20.38H16Z" fill="#2B2D33"/>
<path d="M2.02 10.4L8.28 4.15L8.18 4.05C6.93 4.87 5.82 4.47 4.77 3.41L6.18 2C7.12 2.94 8.4 3.27 9.93 2.54C10.42 2.3 10.81 2.4 11.13 2.71C11.45 3.02 11.54 3.42 11.31 3.91C10.58 5.44 10.9 6.72 11.84 7.66L10.43 9.07C9.37 8.02 8.97 6.91 9.79 5.66L9.69 5.56L3.43 11.82L2.02 10.4Z" fill="#2B2D33"/>
</g>
</g>
</svg>
