<svg width="48" height="48" viewBox="0 0 48 48" fill="none" xmlns="http://www.w3.org/2000/svg">
<rect width="48" height="48" rx="12" fill="#FEE600"/>
<path d="M24 32C28.42 32 32 28.42 32 24C32 19.58 28.42 16 24 16C19.58 16 16 19.58 16 24C16 28.42 19.58 32 24 32ZM24 34C18.48 34 14 29.52 14 24C14 18.48 18.48 14 24 14C29.52 14 34 18.48 34 24C34 29.52 29.52 34 24 34ZM23.72 24.21C24.91 23.94 25.61 24.25 26.49 25.13L28.21 26.84L26.79 28.26L23.59 25.05C23.22 24.67 23 24.17 23 23.64V18.01H25V21.61C25 22.85 24.69 23.45 23.67 24.11L23.72 24.21Z" fill="#2B2D34"/>
</svg>
