<svg width="24" height="24" viewBox="0 0 24 24" fill="none" xmlns="http://www.w3.org/2000/svg">
<g id="history">
<path id="Vector" d="M12 20C16.42 20 20 16.42 20 12C20 7.58 16.42 4 12 4C7.58 4 4 7.58 4 12C4 16.42 7.58 20 12 20ZM12 22C6.48 22 2 17.52 2 12C2 6.48 6.48 2 12 2C17.52 2 22 6.48 22 12C22 17.52 17.52 22 12 22ZM11.72 12.21C12.91 11.94 13.61 12.25 14.49 13.13L16.21 14.84L14.79 16.26L11.59 13.05C11.22 12.67 11 12.17 11 11.64V6.01H13V9.61C13 10.85 12.69 11.45 11.67 12.11L11.72 12.21Z" fill="#2B2D34"/>
</g>
</svg>
