<svg width="24" height="24" viewBox="0 0 24 24" fill="none" xmlns="http://www.w3.org/2000/svg">
<g id="send-to-company">
<path id="Vector" d="M21 2V20H23V22H13V20H15V17H17V20H19V3H9V13H7V2C7 1.45 7.45 1 8 1H20C20.55 1 21 1.45 21 2ZM2 20H8.97V20.14C7.51 20.45 7 21.51 7 23H9C9.01 21.68 9.69 20.53 11.29 19.97C11.8 19.79 12 19.45 12 18.99C12 18.54 11.8 18.2 11.29 18.02C9.69 17.45 9.01 16.3 9 14.98H7C7 16.46 7.51 17.56 8.97 17.86V18H2V20ZM11 7H17V5H11V7ZM17 15H11V13H17V15ZM11 11H17V9H11V11Z" fill="#2B2D33"/>
</g>
</svg>
