<svg width="24" height="24" viewBox="0 0 24 24" fill="none" xmlns="http://www.w3.org/2000/svg">
<g id="conversion">
<path id="Vector" d="M21.3 16C19.7 15.4 19 14.3 19 13H17C17 14.6 17.5 15.6 19 15.9V16H15C12.8 16 11 14.2 11 12C11 9.8 12.8 8 15 8H19V8.1C17.5 8.4 17 9.4 17 11H19C19 9.7 19.7 8.6 21.3 8C21.8 7.8 22 7.4 22 7C22 6.6 21.8 6.2 21.3 6C19.7 5.4 19 4.3 19 3H17C17 4.6 17.5 5.6 19 5.9V6H15C12.9 6 11.1 7.1 10 8.7C8.9 7.1 7.1 6 5 6H2V8H5C7.2 8 9 9.8 9 12C9 14.2 7.2 16 5 16H2V18H5C7.1 18 8.9 16.9 10 15.3C11.1 16.9 12.9 18 15 18H19V18.1C17.5 18.4 17 19.4 17 21H19C19 19.7 19.7 18.6 21.3 18C21.8 17.8 22 17.5 22 17C22 16.5 21.8 16.2 21.3 16Z" fill="#2B2D34"/>
</g>
</svg>
