<svg width="48" height="48" viewBox="0 0 48 48" fill="none" xmlns="http://www.w3.org/2000/svg">
<rect width="48" height="48" rx="12" fill="#FEE600"/>
<path d="M33.3 28C31.7 27.4 31 26.3 31 25H29C29 26.6 29.5 27.6 31 27.9V28H27C24.8 28 23 26.2 23 24C23 21.8 24.8 20 27 20H31V20.1C29.5 20.4 29 21.4 29 23H31C31 21.7 31.7 20.6 33.3 20C33.8 19.8 34 19.4 34 19C34 18.6 33.8 18.2 33.3 18C31.7 17.4 31 16.3 31 15H29C29 16.6 29.5 17.6 31 17.9V18H27C24.9 18 23.1 19.1 22 20.7C20.9 19.1 19.1 18 17 18H14V20H17C19.2 20 21 21.8 21 24C21 26.2 19.2 28 17 28H14V30H17C19.1 30 20.9 28.9 22 27.3C23.1 28.9 24.9 30 27 30H31V30.1C29.5 30.4 29 31.4 29 33H31C31 31.7 31.7 30.6 33.3 30C33.8 29.8 34 29.5 34 29C34 28.5 33.8 28.2 33.3 28Z" fill="#2B2D34"/>
</svg>
