<svg width="20" height="20" viewBox="0 0 20 20" fill="none" xmlns="http://www.w3.org/2000/svg">
<g id="doc">
<path id="shape" d="M15.4167 15H17.0834C17.875 15 18.3334 14.5584 18.3334 13.75V12.4917H17.0834V13.75H15.4167V9.58335H17.0834V10.8417H18.3334V9.58335C18.3334 8.77502 17.875 8.33335 17.0834 8.33335H15.4167C14.6167 8.33335 14.1667 8.77502 14.1667 9.58335V13.75C14.1667 14.5584 14.6167 15 15.4167 15ZM10.4167 13.75V9.58335H12.0834V13.75H10.4167ZM10.4167 15H12.0834C12.875 15 13.3334 14.55 13.3334 13.75V9.58335C13.3334 8.78335 12.875 8.33335 12.0834 8.33335H10.4167C9.61671 8.33335 9.16671 8.78335 9.16671 9.58335V13.75C9.16671 14.55 9.61671 15 10.4167 15ZM5.41671 13.75V9.58335H7.08337V13.75H5.41671ZM4.16671 15H7.08337C7.87504 15 8.33337 14.55 8.33337 13.75V9.58335C8.33337 8.78335 7.87504 8.33335 7.08337 8.33335H4.16671V15ZM1.66671 18.3334H13.3334C13.7834 18.3334 14.1667 17.9584 14.1667 17.4917V16.6667H2.50004V4.90835C2.50004 4.01669 2.05837 3.54169 1.31671 3.43335V3.33335H12.5V6.66669H14.1667V2.50002C14.1667 2.04169 13.8 1.66669 13.3334 1.66669H1.66671C1.20837 1.66669 0.833374 2.05835 0.833374 2.50002V17.5C0.833374 17.9667 1.20837 18.3334 1.66671 18.3334Z" fill="#2B2D33"/>
</g>
</svg>
