<svg width="20" height="20" viewBox="0 0 20 20" fill="none" xmlns="http://www.w3.org/2000/svg">
<g id="doc">
<path id="shape" d="M15.4167 15H17.0834C17.875 15 18.3334 14.5583 18.3334 13.75V12.4916H17.0834V13.75H15.4167V9.58329H17.0834V10.8416H18.3334V9.58329C18.3334 8.77496 17.875 8.33329 17.0834 8.33329H15.4167C14.6167 8.33329 14.1667 8.77496 14.1667 9.58329V13.75C14.1667 14.5583 14.6167 15 15.4167 15ZM10.4167 13.75V9.58329H12.0834V13.75H10.4167ZM10.4167 15H12.0834C12.875 15 13.3334 14.55 13.3334 13.75V9.58329C13.3334 8.78329 12.875 8.33329 12.0834 8.33329H10.4167C9.61671 8.33329 9.16671 8.78329 9.16671 9.58329V13.75C9.16671 14.55 9.61671 15 10.4167 15ZM5.41671 13.75V9.58329H7.08337V13.75H5.41671ZM4.16671 15H7.08337C7.87504 15 8.33337 14.55 8.33337 13.75V9.58329C8.33337 8.78329 7.87504 8.33329 7.08337 8.33329H4.16671V15ZM1.66671 18.3333H13.3334C13.7834 18.3333 14.1667 17.9583 14.1667 17.4916V16.6666H2.50004V4.90829C2.50004 4.01663 2.05837 3.54163 1.31671 3.43329V3.33329H12.5V6.66663H14.1667V2.49996C14.1667 2.04163 13.8 1.66663 13.3334 1.66663H1.66671C1.20837 1.66663 0.833374 2.05829 0.833374 2.49996V17.5C0.833374 17.9666 1.20837 18.3333 1.66671 18.3333Z" fill="#2B2D33"/>
</g>
</svg>
