<svg width="24" height="24" viewBox="0 0 24 24" fill="none" xmlns="http://www.w3.org/2000/svg">
<g id="insurance">
<path id="Vector" d="M13 3H13.1C13.3 4.1 13.6 4.6 14.8 4.9C15.8 5.2 17.4 5.6 19 5.7V12C19 14.7 17.3 16.7 15.4 18.1C15.1 18.3 14.6 18.6 14.2 18.9C13.5 19.3 13.2 19.9 13.1 20.9H13V3ZM11 19.5C10.2 19 9.4 18.6 8.6 18C6.7 16.6 5 14.6 5 12V5.7C7 5.5 8.8 5.1 11 4.3V19.5ZM12 22C12.7 22 15.5 20.5 16.6 19.7C18.7 18.2 21 15.6 21 12V4.7C21 4.2 20.6 3.8 20.1 3.8C17.9 3.8 14.5 2.9 12.3 2H11.7C9.5 2.9 6.1 3.8 3.9 3.8C3.4 3.8 3 4.2 3 4.7V12C3 15.6 5.3 18.1 7.4 19.7C8.5 20.5 11.3 22 12 22Z" fill="#2B2D33"/>
</g>
</svg>
