<svg width="25" height="24" viewBox="0 0 25 24" fill="none" xmlns="http://www.w3.org/2000/svg">
<g id="location-3">
<g id="Vector">
<path d="M23.14 11C22.56 11 22.27 11.16 22.15 11.51H22.03C21.79 6.55 17.93 2.54 13.04 2.05V0H11.04V0.9C11.04 1.48 11.2 1.77 11.55 1.89V2.01C6.59 2.25 2.58 6.11 2.09 11H0V13H0.9C1.48 13 1.77 12.84 1.89 12.49H2.01C2.25 17.45 6.11 21.46 11 21.95V24H13V23.1C13 22.52 12.84 22.23 12.49 22.11V21.99C17.45 21.75 21.46 17.89 21.95 13H24.04V11H23.14ZM12 20C7.58 20 4 16.42 4 12C4 7.58 7.58 4 12 4C16.42 4 20 7.58 20 12C20 16.42 16.42 20 12 20Z" fill="#2B2D33"/>
<path d="M12 14.25C13.1046 14.25 14 13.3546 14 12.25C14 11.1454 13.1046 10.25 12 10.25C10.8954 10.25 10 11.1454 10 12.25C10 13.3546 10.8954 14.25 12 14.25Z" fill="#2B2D33"/>
</g>
</g>
</svg>
