<svg width="40" height="40" viewBox="0 0 40 40" fill="none" xmlns="http://www.w3.org/2000/svg">
<rect width="40" height="40" rx="8" fill="#FEE600"/>
<path fill-rule="evenodd" clip-rule="evenodd" d="M11 12C11 11.4477 11.4477 11 12 11H28C28.5523 11 29 11.4477 29 12V28C29 28.5523 28.5523 29 28 29H27V31H25V29H15V31H13V29H12C11.4477 29 11 28.5523 11 28V12ZM13 13V27H27V23H25V24C25 24.5523 24.5523 25 24 25H16C15.4477 25 15 24.5523 15 24V16C15 15.4477 15.4477 15 16 15H24C24.5523 15 25 15.4477 25 16V17H27V13H13ZM25 21H27V19H25V21ZM17 17V19H19V21H17V23H23V17H17Z" fill="#2B2D33"/>
</svg>
