<svg width="52" height="52" viewBox="0 0 52 52" fill="none" xmlns="http://www.w3.org/2000/svg">
<rect width="52" height="52" rx="8" fill="#E6F4FC"/>
<path d="M17.8046 21.144C18.4859 21.144 19.0739 21.284 19.5686 21.564C20.0632 21.844 20.4366 22.222 20.6886 22.698C20.9499 23.174 21.0806 23.7013 21.0806 24.28C21.0806 24.8493 20.9499 25.3767 20.6886 25.862C20.4272 26.338 20.0492 26.7207 19.5546 27.01C19.0599 27.29 18.4859 27.43 17.8326 27.43H15.3686V26.296H17.6646C18.3366 26.296 18.8592 26.114 19.2326 25.75C19.6152 25.3767 19.8066 24.8867 19.8066 24.28C19.8066 23.8787 19.7226 23.5287 19.5546 23.23C19.3866 22.9313 19.1439 22.698 18.8266 22.53C18.5092 22.362 18.1219 22.278 17.6646 22.278H15.3406L15.6206 21.998V31H14.3746V21.144H17.8046ZM26.0265 21.144C27.0438 21.144 27.9165 21.3447 28.6445 21.746C29.3818 22.138 29.9418 22.7027 30.3245 23.44C30.7165 24.1773 30.9125 25.0547 30.9125 26.072C30.9125 27.0893 30.7165 27.9667 30.3245 28.704C29.9418 29.4413 29.3818 30.0107 28.6445 30.412C27.9165 30.804 27.0438 31 26.0265 31H22.9605V21.144H26.0265ZM25.8725 29.866C27.1138 29.866 28.0518 29.5393 28.6865 28.886C29.3212 28.2233 29.6385 27.2853 29.6385 26.072C29.6385 25.2693 29.4985 24.588 29.2185 24.028C28.9385 23.4587 28.5185 23.0247 27.9585 22.726C27.3985 22.4273 26.7032 22.278 25.8725 22.278H23.6745L24.2065 21.732V30.412L23.6745 29.866H25.8725ZM32.8726 21.144H39.0886V22.292H33.6286L34.1186 21.83V31H32.8726V21.144ZM38.7526 26.688H33.8946V25.554H38.7526V26.688Z" fill="#57B6ED"/>
</svg>
