<svg width="48" height="48" viewBox="0 0 48 48" fill="none" xmlns="http://www.w3.org/2000/svg">
<rect width="48" height="48" rx="12" fill="#FEE600"/>
<path fill-rule="evenodd" clip-rule="evenodd" d="M23.9987 14C21.2372 14 18.9987 16.2386 18.9987 19C18.9987 21.4834 20.8092 23.5439 23.1823 23.9337V24.0404C19.9845 24.3582 17.2982 26.5231 16.2671 29.5C15.8759 30.6293 15.776 31.8467 15.6776 33.0459L15.6774 33.0487C15.6512 33.3678 15.6252 33.6855 15.5938 34H17.6037C17.6307 33.7301 17.6531 33.456 17.6755 33.1808L17.6768 33.165C17.7789 31.9132 17.8838 30.6283 18.4273 29.5C19.4316 27.4151 21.5632 26 23.9987 26C26.4341 26 28.5657 27.4151 29.57 29.5C30.1135 30.6283 30.2184 31.9138 30.3205 33.1657L30.321 33.1732C30.3438 33.4511 30.3663 33.7274 30.3936 34H32.4036C32.3722 33.6854 32.3461 33.3675 32.3199 33.0484L32.3197 33.0458V33.0447L32.3195 33.0421C32.221 31.8442 32.121 30.6281 31.7303 29.5C30.6992 26.5231 28.0128 24.3582 24.8151 24.0404V23.9337C27.1881 23.5439 28.9987 21.4834 28.9987 19C28.9987 16.2386 26.7601 14 23.9987 14ZM20.9987 19C20.9987 17.3431 22.3418 16 23.9987 16C25.6555 16 26.9987 17.3431 26.9987 19C26.9987 20.6569 25.6555 22 23.9987 22C22.3418 22 20.9987 20.6569 20.9987 19Z" fill="#2B2D34"/>
</svg>
