<svg width="24" height="24" viewBox="0 0 24 24" fill="none" xmlns="http://www.w3.org/2000/svg">
<g id="man (person)">
<path id="Shape" fill-rule="evenodd" clip-rule="evenodd" d="M11.9987 2C9.23723 2 6.99866 4.23858 6.99866 7C6.99866 9.4834 8.80917 11.5439 11.1823 11.9337V12.0404C7.98449 12.3582 5.29817 14.5231 4.26709 17.5C3.87589 18.6293 3.77602 19.8467 3.67764 21.0459L3.67741 21.0487C3.65123 21.3678 3.62516 21.6855 3.59375 22H5.6037C5.63071 21.7301 5.65308 21.456 5.67554 21.1808L5.67682 21.165C5.77893 19.9132 5.88379 18.6283 6.42731 17.5C7.43158 15.4151 9.56323 14 11.9987 14C14.4341 14 16.5657 15.4151 17.57 17.5C18.1135 18.6283 18.2184 19.9138 18.3205 21.1657L18.321 21.1732C18.3438 21.4511 18.3663 21.7274 18.3936 22H20.4036C20.3722 21.6854 20.3461 21.3675 20.3199 21.0484L20.3197 21.0458V21.0447L20.3195 21.0421C20.221 19.8442 20.121 18.6281 19.7303 17.5C18.6992 14.5231 16.0128 12.3582 12.8151 12.0404V11.9337C15.1881 11.5439 16.9987 9.4834 16.9987 7C16.9987 4.23858 14.7601 2 11.9987 2ZM8.99866 7C8.99866 5.34315 10.3418 4 11.9987 4C13.6555 4 14.9987 5.34315 14.9987 7C14.9987 8.65685 13.6555 10 11.9987 10C10.3418 10 8.99866 8.65685 8.99866 7Z" fill="#303030"/>
</g>
</svg>
