<svg width="24" height="24" viewBox="0 0 24 24" fill="none" xmlns="http://www.w3.org/2000/svg">
<g id="code-qr">
<g id="shape">
<path fill-rule="evenodd" clip-rule="evenodd" d="M2 3C2 2.44772 2.44772 2 3 2H7C7.55228 2 8 2.44772 8 3V7C8 7.55228 7.55228 8 7 8H3C2.44772 8 2 7.55228 2 7V3ZM4 4V6H6V4H4Z" fill="#2B2D33"/>
<path fill-rule="evenodd" clip-rule="evenodd" d="M16 3C16 2.44772 16.4477 2 17 2H21C21.5523 2 22 2.44772 22 3V7C22 7.55228 21.5523 8 21 8H17C16.4477 8 16 7.55228 16 7V3ZM18 4V6H20V4H18Z" fill="#2B2D33"/>
<path fill-rule="evenodd" clip-rule="evenodd" d="M3 16C2.44772 16 2 16.4477 2 17V21C2 21.5523 2.44772 22 3 22H7C7.55228 22 8 21.5523 8 21V17C8 16.4477 7.55228 16 7 16H3ZM4 20V18H6V20H4Z" fill="#2B2D33"/>
<path d="M10 2H12V4H10V2Z" fill="#2B2D33"/>
<path d="M12 6V4H14V8H12V10H10V6H12Z" fill="#2B2D33"/>
<path fill-rule="evenodd" clip-rule="evenodd" d="M10 12V10H6V12H4V10H2V12H4V14H8V16H12V18H10V22H12V20H16V22H18V20H22V18H18V16H20V14H22V12H20V10H16V8H14V10H12V12H10ZM14 12H12V16H14V18H16V20H18V18H16V16H18V14H20V12H18V14H16V16H14V12ZM14 12H16V10H14V12ZM10 12V14H8V12H10Z" fill="#2B2D33"/>
</g>
</g>
</svg>
