<svg width="24" height="24" viewBox="0 0 24 24" fill="none" xmlns="http://www.w3.org/2000/svg">
<g id="scheme-1">
<path id="Vector" d="M8 11V5H16V11H8ZM17 19V17H19V19H17ZM5 19V17H7V19H5ZM4 21H8C8.55 21 9 20.55 9 20V19H10C11.39 19 11.94 18.11 11.94 17H12.06C12.06 18.11 12.61 19 14 19H15V20C15 20.55 15.45 21 16 21H20C20.55 21 21 20.55 21 20V16C21 15.45 20.55 15 20 15H16C15.45 15 15 15.45 15 16V17H14C13.35 17 13 16.64 13 15.99V13H17C17.55 13 18 12.55 18 12V4C18 3.45 17.55 3 17 3H7C6.45 3 6 3.45 6 4V12C6 12.55 6.45 13 7 13H11V16C11 16.64 10.64 17 10 17H9V16C9 15.45 8.55 15 8 15H4C3.45 15 3 15.45 3 16V20C3 20.55 3.45 21 4 21Z" fill="#2B2D33"/>
</g>
</svg>
