<svg width="48" height="48" viewBox="0 0 48 48" fill="none" xmlns="http://www.w3.org/2000/svg">
<rect width="48" height="48" rx="12" fill="#FEE600"/>
<path d="M20 23V17H28V23H20ZM29 31V29H31V31H29ZM17 31V29H19V31H17ZM16 33H20C20.55 33 21 32.55 21 32V31H22C23.39 31 23.94 30.11 23.94 29H24.06C24.06 30.11 24.61 31 26 31H27V32C27 32.55 27.45 33 28 33H32C32.55 33 33 32.55 33 32V28C33 27.45 32.55 27 32 27H28C27.45 27 27 27.45 27 28V29H26C25.35 29 25 28.64 25 27.99V25H29C29.55 25 30 24.55 30 24V16C30 15.45 29.55 15 29 15H19C18.45 15 18 15.45 18 16V24C18 24.55 18.45 25 19 25H23V28C23 28.64 22.64 29 22 29H21V28C21 27.45 20.55 27 20 27H16C15.45 27 15 27.45 15 28V32C15 32.55 15.45 33 16 33Z" fill="#2B2D33"/>
</svg>
