<svg width="24" height="24" viewBox="0 0 24 24" fill="none" xmlns="http://www.w3.org/2000/svg">
<g id="shield_check">
<path id="Vector" d="M10.3 15.2C10.7 15.6 11.3 15.6 11.7 15.2L17.2 9.7L15.8 8.3L10.1 14L10 13.9C10.4 13.1 10.3 12.3 9.6 11.6L8.2 10.3L6.8 11.7L10.3 15.2ZM11.9 21.1C11.9 20.3 11.5 19.8 10.7 19.4C10.1 19 9.4 18.6 8.6 18C6.7 16.6 5 14.6 5 12V5.7C7.2 5.5 9.6 4.9 12 4C14.4 4.9 16.8 5.5 19 5.7V12C19 14.7 17.3 16.7 15.4 18.1C14.6 18.7 13.9 19.1 13.2 19.4C12.5 19.8 12.1 20.4 12 21.1H11.9ZM12 22C12.2 22 12.4 21.9 12.9 21.7C14 21.2 15.5 20.4 16.5 19.7C18.6 18.2 20.9 15.6 20.9 12V4.7C20.9 4.2 20.5 3.8 20 3.8C17.8 3.8 14.6 3 12.2 2H11.7C9.3 2.9 6.1 3.8 3.9 3.8C3.4 3.8 3 4.2 3 4.7V12C3 15.6 5.3 18.2 7.4 19.7C8.4 20.4 9.9 21.3 11 21.7C11.6 21.9 11.8 22 12 22Z" fill="#2B2D33"/>
</g>
</svg>
