<svg width="24" height="24" viewBox="0 0 24 24" fill="none" xmlns="http://www.w3.org/2000/svg">
<g id="star-person-1">
<path id="Vector" d="M15.79 16.03L16.82 14.53L17.86 16.03L19.6 16.55L18.49 17.99L18.54 19.81L16.82 19.2L15.11 19.81L15.15 17.99L14.05 16.55L15.79 16.03ZM17.73 12.49C17.29 11.85 16.36 11.86 15.92 12.49L14.61 14.39L12.4 15.04C11.66 15.26 11.36 16.15 11.84 16.77L13.25 18.59L13.18 20.9C13.16 21.67 13.92 22.22 14.65 21.96L16.82 21.19L19 21.96C19.72 22.21 20.48 21.67 20.46 20.9L20.4 18.59L21.81 16.77C22.29 16.15 21.99 15.26 21.25 15.04L19.03 14.39L17.73 12.49ZM12.4 13.78V11.57C11.71 11.3 10.98 11.12 10.22 11.04V10.93C12.59 10.54 14.4 8.48 14.4 6C14.4 3.24 12.16 1 9.4 1C6.64 1 4.4 3.24 4.4 6C4.4 8.48 6.21 10.54 8.58 10.93V11.04C5.39 11.36 2.7 13.52 1.67 16.5C1.28 17.63 1.18 18.85 1.08 20.05L1 21H3.01L3.08 20.05C3.17 18.85 3.26 17.71 3.75 16.66C4.81 14.39 6.97 13 9.4 13C10.47 13 11.49 13.27 12.4 13.78ZM6.4 6C6.4 4.34 7.74 3 9.4 3C11.06 3 12.4 4.34 12.4 6C12.4 7.66 11.06 9 9.4 9C7.74 9 6.4 7.66 6.4 6Z" fill="#303030"/>
</g>
</svg>
