<svg width="25" height="24" viewBox="0 0 25 24" fill="none" xmlns="http://www.w3.org/2000/svg">
<g id="to-people">
<g id="Vector">
<path d="M6.5 12C8.71 12 10.5 10.21 10.5 8C10.5 5.79 8.71 4 6.5 4C4.29 4 2.5 5.79 2.5 8C2.5 9.94 3.88 11.56 5.72 11.92V12.04C2.03 12.46 0 15.84 0 19H2C2 16.38 3.75 14 6.5 14V12ZM4.5 8C4.5 6.9 5.39 6 6.5 6C7.6 6 8.5 6.9 8.5 8C8.5 9.11 7.6 10 6.5 10C5.39 10 4.5 9.11 4.5 8Z" fill="#303030"/>
<path d="M16.85 11.04V10.91C18.92 10.51 20.5 8.69 20.5 6.5C20.5 4.02 18.48 2 16 2C13.51 2 11.5 4.02 11.5 6.5C11.5 8.7 13.07 10.52 15.15 10.91V11.06C13.92 11.2 12.83 11.61 11.92 12.25L13.07 13.89C13.84 13.35 14.81 13 16 13C19.78 13 22.02 15.96 22.02 19H24.02C24.02 15.28 21.38 11.47 16.85 11.04ZM13.5 6.5C13.5 5.12 14.62 4 16 4C17.38 4 18.5 5.12 18.5 6.5C18.5 7.88 17.38 9 16 9C14.62 9 13.5 7.88 13.5 6.5Z" fill="#303030"/>
<path d="M13.29 17.02C11.69 16.45 11.01 15.3 11 13.98H9C9 15.46 9.51 16.56 10.97 16.86V17H5V19H10.97V19.14C9.51 19.45 9 20.51 9 22H11C11.01 20.68 11.69 19.53 13.29 18.97C13.8 18.79 14 18.45 14 17.99C14 17.54 13.8 17.2 13.29 17.02Z" fill="#303030"/>
</g>
</g>
</svg>
