<svg width="38" height="38" viewBox="0 0 38 38" fill="none" xmlns="http://www.w3.org/2000/svg">
<path d="M34.8333 17.416C34.8378 16.3 34.5472 15.2027 33.9912 14.2351C33.4351 13.2675 32.6332 12.464 31.6667 11.906C31.6905 11.6321 31.6905 11.3566 31.6667 11.0827C31.6667 9.8229 31.1662 8.61472 30.2754 7.72392C29.3846 6.83312 28.1765 6.33268 26.9167 6.33268H26.6317C26.368 5.60167 25.929 4.94652 25.3532 4.42468C24.7774 3.90283 24.0823 3.53023 23.329 3.33955C22.5756 3.14887 21.787 3.14593 21.0323 3.331C20.2775 3.51606 19.5797 3.88347 19 4.40101C18.4203 3.88347 17.7225 3.51606 16.9678 3.331C16.213 3.14593 15.4244 3.14887 14.671 3.33955C13.9177 3.53023 13.2226 3.90283 12.6468 4.42468C12.071 4.94652 11.632 5.60167 11.3683 6.33268H11.0833C9.82357 6.33268 8.61539 6.83312 7.72459 7.72392C6.83379 8.61472 6.33335 9.8229 6.33335 11.0827C6.30952 11.3566 6.30952 11.6321 6.33335 11.906C5.43474 12.4139 4.67391 13.1338 4.11706 14.0029C3.56022 14.8721 3.22425 15.8641 3.1384 16.8928C3.05255 17.9214 3.21942 18.9555 3.62449 19.9049C4.02955 20.8543 4.66054 21.6903 5.46252 22.3402C4.94361 23.308 4.68528 24.3941 4.71288 25.492C4.74048 26.5898 5.05306 27.6616 5.61993 28.6021C6.18681 29.5426 6.98851 30.3196 7.94634 30.8568C8.90417 31.3939 9.9852 31.6728 11.0833 31.666H11.3683C11.632 32.397 12.071 33.0522 12.6468 33.574C13.2226 34.0959 13.9177 34.4685 14.671 34.6591C15.4244 34.8498 16.213 34.8528 16.9678 34.6677C17.7225 34.4826 18.4203 34.1152 19 33.5977C19.5797 34.1152 20.2775 34.4826 21.0323 34.6677C21.787 34.8528 22.5756 34.8498 23.329 34.6591C24.0823 34.4685 24.7774 34.0959 25.3532 33.574C25.929 33.0522 26.368 32.397 26.6317 31.666H26.9167C28.0081 31.6591 29.0792 31.3703 30.0262 30.8275C30.9731 30.2847 31.7637 29.5064 32.3213 28.5681C32.8788 27.6298 33.1844 26.5634 33.2085 25.4722C33.2325 24.381 32.9741 23.3021 32.4583 22.3402C33.1969 21.7489 33.7935 20.9997 34.2045 20.1476C34.6155 19.2954 34.8304 18.3621 34.8333 17.416ZM17.4167 13.5368C17.0718 13.3396 16.7118 13.1702 16.34 13.0302C15.9411 12.8958 15.5051 12.9254 15.128 13.1125C14.7509 13.2995 14.4636 13.6287 14.3292 14.0277C14.1948 14.4266 14.2244 14.8626 14.4115 15.2397C14.5985 15.6168 14.9278 15.9041 15.3267 16.0385C15.9362 16.2589 16.4634 16.6609 16.8371 17.1904C17.2109 17.7199 17.4132 18.3513 17.4167 18.9993V21.4535C17.0718 21.2563 16.7118 21.0868 16.34 20.9468C15.9411 20.8125 15.5051 20.8421 15.128 21.0291C14.7509 21.2162 14.4636 21.5454 14.3292 21.9443C14.1948 22.3433 14.2244 22.7792 14.4115 23.1563C14.5985 23.5335 14.9278 23.8208 15.3267 23.9552C15.9362 24.1755 16.4634 24.5776 16.8371 25.107C17.2109 25.6365 17.4132 26.2679 17.4167 26.916V30.0827C17.4167 30.5026 17.2499 30.9053 16.9529 31.2023C16.656 31.4992 16.2533 31.666 15.8333 31.666C15.527 31.664 15.2279 31.5732 14.9721 31.4046C14.7164 31.236 14.515 30.9968 14.3925 30.716C14.658 30.5602 14.912 30.3856 15.1525 30.1935C15.3126 30.0604 15.4449 29.8971 15.5419 29.7129C15.6389 29.5287 15.6987 29.3272 15.7178 29.1199C15.7369 28.9126 15.715 28.7035 15.6533 28.5047C15.5917 28.3059 15.4914 28.1211 15.3583 27.961C15.2253 27.8009 15.062 27.6686 14.8778 27.5716C14.6935 27.4746 14.492 27.4148 14.2847 27.3957C14.0774 27.3766 13.8684 27.3985 13.6695 27.4602C13.4707 27.5219 13.286 27.6221 13.1258 27.7552C12.5542 28.2365 11.8307 28.5001 11.0833 28.4993C10.2435 28.4993 9.43804 28.1657 8.84418 27.5718C8.25031 26.978 7.91668 26.1725 7.91668 25.3327C7.92426 24.7367 8.09988 24.155 8.42335 23.6543C8.77868 23.7181 9.13901 23.7499 9.50001 23.7493C9.91994 23.7493 10.3227 23.5825 10.6196 23.2856C10.9165 22.9887 11.0833 22.5859 11.0833 22.166C11.0833 21.7461 10.9165 21.3434 10.6196 21.0464C10.3227 20.7495 9.91994 20.5827 9.50001 20.5827C9.12601 20.5848 8.75509 20.5149 8.40752 20.3768C7.83806 20.1715 7.33941 19.8072 6.97063 19.3271C6.60185 18.847 6.37839 18.2713 6.32674 17.6682C6.27509 17.065 6.39741 16.4597 6.67919 15.9239C6.96098 15.3882 7.39044 14.9444 7.91668 14.6452C8.14167 14.8522 8.38551 15.0377 8.64502 15.1993C9.01035 15.4093 9.44413 15.4655 9.85093 15.3557C10.2577 15.2458 10.6042 14.9788 10.8142 14.6135C11.0241 14.2482 11.0804 13.8144 10.9705 13.4076C10.8606 13.0008 10.5937 12.6543 10.2283 12.4443C10.0055 12.3214 9.81957 12.141 9.69001 11.9218C9.54363 11.6676 9.47741 11.3752 9.50001 11.0827C9.50001 10.6628 9.66683 10.26 9.96376 9.96309C10.2607 9.66616 10.6634 9.49934 11.0833 9.49934C11.1936 9.48396 11.3055 9.48396 11.4158 9.49934C11.4997 9.75374 11.6002 10.0023 11.7167 10.2435C11.8201 10.4249 11.9584 10.5841 12.1236 10.7119C12.2889 10.8396 12.4777 10.9334 12.6793 10.9879C12.881 11.0423 13.0914 11.0563 13.2984 11.0291C13.5055 11.0019 13.7051 10.934 13.8858 10.8293C14.2369 10.6181 14.4924 10.2791 14.5987 9.88345C14.705 9.48781 14.6538 9.06636 14.4558 8.70768C14.323 8.4648 14.2523 8.19284 14.25 7.91601C14.25 7.49608 14.4168 7.09336 14.7138 6.79643C15.0107 6.49949 15.4134 6.33268 15.8333 6.33268C16.2533 6.33268 16.656 6.49949 16.9529 6.79643C17.2499 7.09336 17.4167 7.49608 17.4167 7.91601V13.5368ZM29.5925 20.3768C29.2449 20.5149 28.874 20.5848 28.5 20.5827C28.0801 20.5827 27.6774 20.7495 27.3804 21.0464C27.0835 21.3434 26.9167 21.7461 26.9167 22.166C26.9167 22.5859 27.0835 22.9887 27.3804 23.2856C27.6774 23.5825 28.0801 23.7493 28.5 23.7493C28.861 23.7499 29.2213 23.7181 29.5767 23.6543C29.9002 24.155 30.0758 24.7367 30.0833 25.3327C30.0833 26.1725 29.7497 26.978 29.1559 27.5718C28.562 28.1657 27.7565 28.4993 26.9167 28.4993C26.1694 28.5001 25.4459 28.2365 24.8742 27.7552C24.5508 27.4864 24.134 27.3571 23.7153 27.3957C23.2966 27.4343 22.9104 27.6377 22.6417 27.961C22.3729 28.2844 22.2436 28.7012 22.2822 29.1199C22.3208 29.5386 22.5242 29.9248 22.8475 30.1935C23.088 30.3856 23.342 30.5602 23.6075 30.716C23.485 30.9968 23.2837 31.236 23.0279 31.4046C22.7722 31.5732 22.473 31.664 22.1667 31.666C21.7468 31.666 21.344 31.4992 21.0471 31.2023C20.7502 30.9053 20.5833 30.5026 20.5833 30.0827V26.916C20.5869 26.2679 20.7892 25.6365 21.1629 25.107C21.5366 24.5776 22.0639 24.1755 22.6733 23.9552C23.0723 23.8208 23.4015 23.5335 23.5886 23.1563C23.7756 22.7792 23.8052 22.3433 23.6708 21.9443C23.5365 21.5454 23.2491 21.2162 22.872 21.0291C22.4949 20.8421 22.0589 20.8125 21.66 20.9468C21.2882 21.0868 20.9282 21.2563 20.5833 21.4535V18.9993C20.5869 18.3513 20.7892 17.7199 21.1629 17.1904C21.5366 16.6609 22.0639 16.2589 22.6733 16.0385C22.8709 15.972 23.0534 15.8672 23.2104 15.7301C23.3674 15.5931 23.4959 15.4264 23.5886 15.2397C23.6812 15.053 23.7361 14.8498 23.7502 14.6419C23.7644 14.4339 23.7374 14.2252 23.6708 14.0277C23.6043 13.8301 23.4995 13.6477 23.3625 13.4906C23.2254 13.3336 23.0587 13.2051 22.872 13.1125C22.6853 13.0198 22.4822 12.9649 22.2742 12.9508C22.0662 12.9367 21.8575 12.9636 21.66 13.0302C21.2882 13.1702 20.9282 13.3396 20.5833 13.5368V7.91601C20.5833 7.49608 20.7502 7.09336 21.0471 6.79643C21.344 6.49949 21.7468 6.33268 22.1667 6.33268C22.5866 6.33268 22.9893 6.49949 23.2863 6.79643C23.5832 7.09336 23.75 7.49608 23.75 7.91601C23.7477 8.19284 23.677 8.4648 23.5442 8.70768C23.4388 8.88745 23.37 9.08624 23.3417 9.29266C23.3133 9.49908 23.3259 9.70907 23.3789 9.91058C23.4319 10.1121 23.5241 10.3012 23.6502 10.467C23.7764 10.6328 23.9341 10.7721 24.1142 10.8768C24.2949 10.9815 24.4945 11.0494 24.7016 11.0766C24.9087 11.1038 25.1191 11.0898 25.3207 11.0354C25.5223 10.9809 25.7112 10.8871 25.8764 10.7594C26.0416 10.6316 26.1799 10.4724 26.2833 10.291C26.4019 10.0344 26.5024 9.76989 26.5842 9.49934C26.6945 9.48396 26.8064 9.48396 26.9167 9.49934C27.3366 9.49934 27.7393 9.66616 28.0363 9.96309C28.3332 10.26 28.5 10.6628 28.5 11.0827C28.4976 11.3931 28.404 11.6959 28.2308 11.9535C28.1014 12.159 27.9215 12.3279 27.7083 12.4443C27.343 12.6543 27.076 13.0008 26.9662 13.4076C26.8563 13.8144 26.9125 14.2482 27.1225 14.6135C27.3325 14.9788 27.679 15.2458 28.0858 15.3557C28.4926 15.4655 28.9263 15.4093 29.2917 15.1993C29.576 15.0456 29.8416 14.8597 30.0833 14.6452C30.6114 14.9391 31.0443 15.378 31.331 15.91C31.6176 16.442 31.7461 17.045 31.7011 17.6476C31.6562 18.2503 31.4397 18.8275 31.0773 19.3111C30.7149 19.7947 30.2216 20.1645 29.6558 20.3768H29.5925Z" fill="#FFB800"/>
</svg>
