<svg width="38" height="38" viewBox="0 0 38 38" fill="none" xmlns="http://www.w3.org/2000/svg">
<path d="M23.9051 20.0042L20.5833 18.0867V11.0837C20.5833 10.6637 20.4165 10.261 20.1196 9.96407C19.8226 9.66714 19.4199 9.50033 19 9.50033C18.58 9.50033 18.1773 9.66714 17.8804 9.96407C17.5834 10.261 17.4166 10.6637 17.4166 11.0837V19.0003C17.4166 19.2783 17.4898 19.5513 17.6288 19.792C17.7677 20.0327 17.9676 20.2325 18.2083 20.3715L22.3218 22.7465C22.5019 22.8521 22.7012 22.921 22.9081 22.9493C23.115 22.9776 23.3254 22.9647 23.5273 22.9113C23.7291 22.8579 23.9185 22.7652 24.0843 22.6383C24.2502 22.5115 24.3894 22.3531 24.4938 22.1723C24.5982 21.9914 24.6658 21.7917 24.6927 21.5847C24.7196 21.3776 24.7053 21.1672 24.6506 20.9657C24.5959 20.7642 24.5018 20.5755 24.3739 20.4105C24.246 20.2455 24.0867 20.1074 23.9051 20.0042ZM19 3.16699C15.8684 3.16699 12.8072 4.0956 10.2034 5.83539C7.59966 7.57518 5.57026 10.048 4.37187 12.9412C3.17349 15.8343 2.85993 19.0179 3.47087 22.0893C4.0818 25.1606 5.58978 27.9819 7.80411 30.1962C10.0184 32.4105 12.8397 33.9185 15.911 34.5294C18.9824 35.1404 22.166 34.8268 25.0591 33.6284C27.9523 32.43 30.4251 30.4006 32.1649 27.7969C33.9047 25.1931 34.8333 22.1319 34.8333 19.0003C34.8287 14.8025 33.1591 10.7779 30.1907 7.80956C27.2224 4.84123 23.1978 3.1716 19 3.16699ZM19 31.667C16.4947 31.667 14.0458 30.9241 11.9627 29.5323C9.87972 28.1404 8.2562 26.1622 7.29749 23.8476C6.33878 21.5331 6.08794 18.9863 6.57669 16.5292C7.06543 14.0721 8.27182 11.8151 10.0433 10.0436C11.8147 8.27217 14.0717 7.06579 16.5288 6.57705C18.9859 6.0883 21.5328 6.33914 23.8473 7.29785C26.1618 8.25656 28.1401 9.88008 29.5319 11.9631C30.9237 14.0461 31.6666 16.4951 31.6666 19.0003C31.6624 22.3584 30.3266 25.5778 27.952 27.9524C25.5775 30.3269 22.3581 31.6628 19 31.667Z" fill="#28A352"/>
</svg>
