<svg width="38" height="38" viewBox="0 0 38 38" fill="none" xmlns="http://www.w3.org/2000/svg">
<path d="M15.8333 20.5837H4.74996C4.33003 20.5837 3.92731 20.7505 3.63037 21.0474C3.33344 21.3443 3.16663 21.7471 3.16663 22.167V33.2503C3.16663 33.6703 3.33344 34.073 3.63037 34.3699C3.92731 34.6668 4.33003 34.8337 4.74996 34.8337H15.8333C16.2532 34.8337 16.6559 34.6668 16.9529 34.3699C17.2498 34.073 17.4166 33.6703 17.4166 33.2503V22.167C17.4166 21.7471 17.2498 21.3443 16.9529 21.0474C16.6559 20.7505 16.2532 20.5837 15.8333 20.5837ZM14.25 31.667H6.33329V23.7503H14.25V31.667ZM33.25 3.16699H22.1666C21.7467 3.16699 21.344 3.33381 21.047 3.63074C20.7501 3.92767 20.5833 4.3304 20.5833 4.75033V15.8337C20.5833 16.2536 20.7501 16.6563 21.047 16.9532C21.344 17.2502 21.7467 17.417 22.1666 17.417H33.25C33.6699 17.417 34.0726 17.2502 34.3695 16.9532C34.6665 16.6563 34.8333 16.2536 34.8333 15.8337V4.75033C34.8333 4.3304 34.6665 3.92767 34.3695 3.63074C34.0726 3.33381 33.6699 3.16699 33.25 3.16699ZM31.6666 14.2503H23.75V6.33366H31.6666V14.2503ZM33.25 20.5837H22.1666C21.7467 20.5837 21.344 20.7505 21.047 21.0474C20.7501 21.3443 20.5833 21.7471 20.5833 22.167V33.2503C20.5833 33.6703 20.7501 34.073 21.047 34.3699C21.344 34.6668 21.7467 34.8337 22.1666 34.8337H33.25C33.6699 34.8337 34.0726 34.6668 34.3695 34.3699C34.6665 34.073 34.8333 33.6703 34.8333 33.2503V22.167C34.8333 21.7471 34.6665 21.3443 34.3695 21.0474C34.0726 20.7505 33.6699 20.5837 33.25 20.5837ZM31.6666 31.667H23.75V23.7503H31.6666V31.667ZM15.8333 3.16699H4.74996C4.33003 3.16699 3.92731 3.33381 3.63037 3.63074C3.33344 3.92767 3.16663 4.3304 3.16663 4.75033V15.8337C3.16663 16.2536 3.33344 16.6563 3.63037 16.9532C3.92731 17.2502 4.33003 17.417 4.74996 17.417H15.8333C16.2532 17.417 16.6559 17.2502 16.9529 16.9532C17.2498 16.6563 17.4166 16.2536 17.4166 15.8337V4.75033C17.4166 4.3304 17.2498 3.92767 16.9529 3.63074C16.6559 3.33381 16.2532 3.16699 15.8333 3.16699ZM14.25 14.2503H6.33329V6.33366H14.25V14.2503Z" fill="#B2DB34"/>
</svg>
