<svg width="13" height="12" viewBox="0 0 13 12" fill="none" xmlns="http://www.w3.org/2000/svg">
<path fill-rule="evenodd" clip-rule="evenodd" d="M12.093 4.58916C11.4884 3.97931 10.6941 3.67438 9.71129 3.67438C9.17089 3.67438 8.67369 3.76913 8.22178 3.95644C7.76987 4.14484 7.39065 4.41165 7.08622 4.75687V3.79635H4.88883V12H7.18945V7.94337C7.18945 7.21154 7.36115 6.6605 7.70562 6.29023C8.05008 5.91887 8.51147 5.73264 9.09189 5.73264C9.61332 5.73264 10.0105 5.89273 10.2864 6.2129C10.5614 6.53308 10.6994 7.01879 10.6994 7.66894V12H13V7.30302C13 6.10509 12.6977 5.20011 12.093 4.58916ZM1.43052 0C1.0081 0 0.663642 0.127416 0.398185 0.382249C0.132728 0.635992 0 0.950722 0 1.32644C0 1.70324 0.132728 2.01797 0.398185 2.27171C0.663642 2.52546 1.0081 2.65396 1.43052 2.65396C1.85293 2.65396 2.19739 2.52437 2.46285 2.26409C2.7283 2.0049 2.86103 1.6771 2.86103 1.2807C2.86103 0.914784 2.7283 0.610945 2.46285 0.365913C2.19739 0.121971 1.85293 0 1.43052 0ZM0.280204 12H2.58083V3.79744H0.280204V12Z" fill="black"/>
</svg>
