<svg width="12" height="10" viewBox="0 0 12 10" fill="none" xmlns="http://www.w3.org/2000/svg">
<path fill-rule="evenodd" clip-rule="evenodd" d="M12 1.24754V1.28941C11.9677 1.32378 11.9354 1.35816 11.903 1.39128C11.5727 1.73626 11.2481 2.08687 10.9068 2.42061C10.8169 2.5081 10.7672 2.57873 10.771 2.70372C10.7885 3.33994 10.7096 3.96679 10.5545 4.58363C9.86855 7.30976 7.70477 9.67715 4.43357 9.96901C2.85874 10.1096 1.40222 9.77277 0.0743454 8.93531C0.0517186 8.92031 0.037496 8.89156 0 8.84657C0.669755 8.92344 1.29555 8.86344 1.90777 8.68345C2.51094 8.50721 3.05851 8.23222 3.57505 7.81349C2.43142 7.69037 1.53604 6.97478 1.30848 6.02544H2.29695C1.03114 5.42172 0.265704 4.37739 0.45383 3.46994C0.614158 3.53306 0.771253 3.6068 0.936106 3.65618C1.09773 3.7043 1.26775 3.7268 1.43454 3.76055C0.186187 2.67872 0.301261 1.07879 0.797112 0.376952C2.09202 1.95438 3.74313 2.89996 5.83967 3.07558C5.83967 2.74122 5.80412 2.43561 5.84614 2.14062C5.97996 1.20566 6.49003 0.510696 7.40739 0.168211C8.31311 -0.169898 9.16 0.00946844 9.87825 0.636315C10.0644 0.799432 10.2144 0.836931 10.4297 0.755059C10.8305 0.604441 11.2346 0.459448 11.6418 0.31008C11.4789 0.825056 11.1428 1.23191 10.6469 1.59877C11.1654 1.55502 11.585 1.40878 12 1.24754Z" fill="black"/>
</svg>
