<svg width="470" height="643" viewBox="0 0 470 643" fill="none" xmlns="http://www.w3.org/2000/svg">
<path d="M2.00006 1C1.16673 19.6667 7.50006 61.1 39.5001 77.5C71.5001 93.9 99.5 93.3333 109.5 91C123.667 88.5 157.9 77.9 181.5 55.5C195.167 42 229.2 18.3 256 31.5C271 39.6667 297.8 63.4 285 93C272.2 122.6 293.333 140.667 305.5 146L425.5 164.5C447.833 168.667 482.9 189.6 444.5 240C432.5 255.167 392.8 287 330 293C267.2 299 252.167 339.833 252.5 359.5C247.667 399.333 267.4 478.5 385 476.5C406.833 474.833 453.1 480.7 463.5 517.5C474.167 546.5 470.6 603.8 371 601C356.667 601.167 316.3 595.9 269.5 573.5C212.333 553.667 108.1 539.6 148.5 642" stroke="white" stroke-width="3" stroke-dasharray="10 7"/>
</svg>
