<svg xmlns="http://www.w3.org/2000/svg" width="24" height="26" viewBox="0 0 24 26"><g><g><path fill="#fff" d="M20.91 17.62c-1.512-1.292-3.047-2.074-4.54-.784l-.892.78c-.652.565-1.865 3.21-6.555-2.18-4.69-5.384-1.9-6.223-1.246-6.784l.897-.78c1.485-1.293.925-2.921-.147-4.597l-.646-1.014C6.705.589 5.532-.51 4.043.782l-.805.703C2.58 1.964.74 3.52.294 6.48c-.538 3.55 1.157 7.616 5.04 12.076 3.877 4.463 7.673 6.704 11.27 6.665 2.988-.032 4.793-1.634 5.357-2.217l.808-.704c1.486-1.29.563-2.603-.95-3.898z"/></g></g></svg>