<svg width="20" height="16" viewBox="0 0 20 16" fill="none" xmlns="http://www.w3.org/2000/svg">
<path d="M18.5714 0H1.42857C1.04969 0 0.686328 0.168571 0.418419 0.468629C0.15051 0.768687 0 1.17565 0 1.6V14.4C0 14.8243 0.15051 15.2313 0.418419 15.5314C0.686328 15.8314 1.04969 16 1.42857 16H18.5714C18.9503 16 19.3137 15.8314 19.5816 15.5314C19.8495 15.2313 20 14.8243 20 14.4V1.6C20 1.17565 19.8495 0.768687 19.5816 0.468629C19.3137 0.168571 18.9503 0 18.5714 0ZM17 1.6L10 7.024L3 1.6H17ZM1.42857 14.4V2.328L9.59286 8.656C9.71243 8.7489 9.85448 8.79869 10 8.79869C10.1455 8.79869 10.2876 8.7489 10.4071 8.656L18.5714 2.328V14.4H1.42857Z" fill="white"/>
</svg>
