<svg width="20" height="21" viewBox="0 0 20 21" fill="none" xmlns="http://www.w3.org/2000/svg">
<path d="M15.465 20.1479C15.2703 20.1473 15.0763 20.1255 14.8861 20.0828C11.2665 19.3171 7.93176 17.5217 5.26585 14.9033C2.65684 12.2791 0.847349 8.93801 0.0563121 5.28418C-0.036961 4.8288 -0.0140681 4.35654 0.122788 3.91283C0.259645 3.46912 0.505859 3.0689 0.837743 2.75066L3.1531 0.471674C3.27136 0.357303 3.41187 0.26972 3.56547 0.214641C3.71907 0.159562 3.8823 0.138226 4.04451 0.152024C4.2127 0.169968 4.375 0.225374 4.52 0.314346C4.66501 0.403319 4.78919 0.523697 4.88382 0.667016L7.77801 5.04148C7.88654 5.21122 7.93894 5.4121 7.92747 5.61457C7.91601 5.81703 7.8413 6.01039 7.71434 6.16618L6.26146 7.94201C6.84009 9.25166 7.65955 10.4353 8.67521 11.4286C9.6843 12.4578 10.877 13.2797 12.1888 13.8496L13.9889 12.3875C14.1401 12.2653 14.3241 12.1931 14.5164 12.1804C14.7087 12.1677 14.9003 12.2152 15.0656 12.3165L19.4358 15.2052C19.5858 15.2967 19.7135 15.4218 19.8095 15.5711C19.9055 15.7203 19.9672 15.8898 19.9901 16.0669C20.0129 16.244 19.9962 16.4241 19.9414 16.5937C19.8865 16.7632 19.7948 16.9179 19.6731 17.0461L17.4157 19.331C17.1592 19.592 16.8549 19.7985 16.5201 19.9387C16.1853 20.0789 15.8267 20.15 15.465 20.1479ZM3.95189 1.32407L1.63654 3.60306C1.44984 3.78097 1.31163 4.00551 1.23551 4.2546C1.15939 4.5037 1.14799 4.76876 1.20241 5.02373C1.93795 8.45235 3.62874 11.5898 6.07044 14.0568C8.57924 16.5202 11.7174 18.2089 15.1235 18.9285C15.3813 18.9836 15.6484 18.9725 15.901 18.896C16.1536 18.8196 16.3836 18.6802 16.5706 18.4905L18.828 16.2056L14.6083 13.4175L12.675 14.9921C12.601 15.052 12.5138 15.0925 12.4209 15.11C12.3281 15.1275 12.2325 15.1216 12.1424 15.0927C10.5372 14.4878 9.0824 13.5277 7.8822 12.281C6.6408 11.0954 5.67719 9.63853 5.06326 8.01896C5.03729 7.92092 5.03643 7.81769 5.06076 7.7192C5.08508 7.62071 5.13379 7.53029 5.20218 7.45662L6.76504 5.54464L3.95189 1.32407Z" fill="white"/>
</svg>
