<svg xmlns="http://www.w3.org/2000/svg" width="42" height="30" viewBox="0 0 42 30"><defs><clipPath id="hbama"><path fill="#fff" d="M27 0c8.284 0 15 6.716 15 15 0 8.284-6.716 15-15 15-8.284 0-15-6.716-15-15 0-8.284 6.716-15 15-15z"/></clipPath></defs><g><g><path fill="#fff" d="M30.11 14.291l-4.383-4.386a.625.625 0 1 0-.884.885l3.315 3.318H.895a.625.625 0 1 0 0 1.251h27.263l-3.315 3.318a.626.626 0 0 0 .884.885l4.383-4.386a.625.625 0 0 0 0-.885z"/></g><g><path fill="none" stroke="#fff" stroke-miterlimit="20" stroke-width="2" d="M27 0c8.284 0 15 6.716 15 15 0 8.284-6.716 15-15 15-8.284 0-15-6.716-15-15 0-8.284 6.716-15 15-15z" clip-path="url(&quot;#hbama&quot;)"/></g></g></svg>