<svg xmlns="http://www.w3.org/2000/svg" width="16" height="26" viewBox="0 0 16 26"><g><g><path fill="#fff" d="M.094 22.994V3.006a2.5 2.5 0 0 1 2.497-2.5h10.818a2.5 2.5 0 0 1 2.497 2.5v19.988a2.5 2.5 0 0 1-2.497 2.498H2.591a2.5 2.5 0 0 1-2.497-2.498zm14.98 0v-.833H.925v.833c0 .92.746 1.666 1.665 1.666h10.818c.92 0 1.664-.746 1.664-1.666zM.925 21.328h14.147V4.671H.926zm0-18.322v.832h14.147v-.832c0-.92-.745-1.666-1.664-1.666H8.416v.833a.416.416 0 1 1-.832 0V1.34H2.59c-.92 0-1.665.746-1.665 1.666zM9.664 23.41c0 .23-.186.417-.416.417H6.752a.416.416 0 0 1 0-.833h2.496c.23 0 .416.187.416.416zm-6.77-10.96a.416.416 0 1 1-.607-.567l5.825-6.247a.415.415 0 0 1 .71.159.417.417 0 0 1-.102.41zm8.523-6.937a.417.417 0 0 1 .22.688l-8.322 9.161a.416.416 0 1 1-.616-.56L11.02 5.64c.1-.11.251-.158.396-.127zm-.836 4.164a.416.416 0 0 1 .226.685L7.48 14.11a.416.416 0 1 1-.622-.554l3.329-3.748a.416.416 0 0 1 .395-.131z"/></g></g></svg>