<svg xmlns="http://www.w3.org/2000/svg" width="53" height="60" viewBox="0 0 53 60"><g><g><path fill="#fff" d="M52.606 30.022L17.308 50.406c-.017-.221-.037-.36-.037-.497-.002-4.517.003-9.033-.011-13.55-.001-.378.142-.58.448-.755 1.624-.93 3.237-1.878 4.86-2.811 2.299-1.324 4.605-2.637 6.905-3.961 1.989-1.146 3.972-2.301 5.959-3.452 1.436-.833 2.868-1.672 4.314-2.487.14-.078.403-.065.547.016 1.549.873 3.085 1.77 4.625 2.658 1.908 1.101 3.817 2.199 5.724 3.301.628.363 1.25.734 1.964 1.154zM35.748 20.38c-.623.368-1.165.693-1.712 1.01-2.161 1.247-4.324 2.49-6.485 3.736-1.402.809-2.8 1.624-4.208 2.423a.461.461 0 0 1-.387-.007c-3.093-1.78-6.178-3.577-9.27-5.36-3.401-1.962-6.81-3.912-10.213-5.872-.932-.536-1.86-1.078-2.777-1.637-.133-.08-.274-.275-.276-.42C.4 12.812.407 11.369.407 9.926V7.559c0-2.438 0-4.875.002-7.313 0-.06.028-.12.058-.242L35.748 20.38zM.491 59.995C.455 59.75.4 59.545.4 59.342c-.005-13.19-.005-26.38-.004-39.57 0-.103.011-.207.019-.338.113.027.21.03.285.073 1.84 1.062 3.676 2.129 5.514 3.193 2.147 1.244 4.293 2.492 6.447 3.724.252.144.362.292.361.588-.007 6.843.009 13.685-.023 20.526-.004.817.063 1.631.026 2.45-.036.826-.023 1.657.002 2.484.008.292-.083.465-.328.606-1.992 1.144-3.978 2.297-5.968 3.444a991.225 991.225 0 0 1-5.146 2.951c-.331.189-.69.331-1.093.522z"/></g></g></svg>