<svg width="38" height="38" viewBox="0 0 38 38" fill="none" xmlns="http://www.w3.org/2000/svg">
<path d="M19 3.16699C16.9208 3.16699 14.8619 3.57653 12.9409 4.37223C11.0199 5.16793 9.27444 6.33421 7.80417 7.80447C4.83485 10.7738 3.1667 14.8011 3.1667 19.0003C3.15286 22.6565 4.41879 26.2022 6.74503 29.0228L3.57837 32.1895C3.35867 32.4121 3.20984 32.6949 3.15066 33.002C3.09149 33.3092 3.12461 33.627 3.24587 33.9153C3.37737 34.2002 3.59056 34.4396 3.85837 34.6031C4.12618 34.7666 4.43653 34.8469 4.75003 34.8337H19C23.1993 34.8337 27.2266 33.1655 30.1959 30.1962C33.1652 27.2269 34.8334 23.1996 34.8334 19.0003C34.8334 14.8011 33.1652 10.7738 30.1959 7.80447C27.2266 4.83514 23.1993 3.16699 19 3.16699ZM19 31.667H8.56587L10.0384 30.1945C10.3333 29.8978 10.4988 29.4965 10.4988 29.0782C10.4988 28.6599 10.3333 28.2586 10.0384 27.962C7.96513 25.8911 6.67406 23.1653 6.38513 20.2492C6.09619 17.3332 6.82727 14.4071 8.45381 11.9696C10.0803 9.53205 12.5017 7.73389 15.3053 6.88145C18.109 6.02901 21.1215 6.17502 23.8295 7.29461C26.5376 8.41419 28.7737 10.4381 30.1569 13.0215C31.5401 15.6049 31.9847 18.5879 31.4151 21.4624C30.8456 24.3369 29.2969 26.925 27.0331 28.7857C24.7693 30.6464 21.9304 31.6647 19 31.667Z" fill="#FD7634"/>
</svg>
