<svg width="38" height="38" viewBox="0 0 38 38" fill="none" xmlns="http://www.w3.org/2000/svg">
<path d="M33.8991 13.68V13.6009C32.7835 10.5549 30.7593 7.92507 28.1002 6.06715C25.4411 4.20924 22.2755 3.21289 19.0317 3.21289C15.7878 3.21289 12.6222 4.20924 9.96312 6.06715C7.30404 7.92507 5.27977 10.5549 4.16415 13.6009V13.68C2.91826 17.1173 2.91826 20.8828 4.16415 24.32V24.3992C5.27977 27.4452 7.30404 30.075 9.96312 31.9329C12.6222 33.7908 15.7878 34.7872 19.0317 34.7872C22.2755 34.7872 25.4411 33.7908 28.1002 31.9329C30.7593 30.075 32.7835 27.4452 33.8991 24.3992V24.32C35.145 20.8828 35.145 17.1173 33.8991 13.68ZM6.74498 22.1667C6.19593 20.0913 6.19593 17.9088 6.74498 15.8334H9.68998C9.4367 17.9369 9.4367 20.0632 9.68998 22.1667H6.74498ZM8.04332 25.3334H10.26C10.6316 26.7455 11.1628 28.1106 11.8433 29.4025C10.2905 28.3448 8.99252 26.9548 8.04332 25.3334ZM10.26 12.6667H8.04332C8.97886 11.0503 10.2603 9.66069 11.7958 8.59754C11.1317 9.8915 10.6165 11.2566 10.26 12.6667ZM17.4166 31.1917C15.4719 29.7646 14.1061 27.685 13.5691 25.3334H17.4166V31.1917ZM17.4166 22.1667H12.8883C12.5929 20.0659 12.5929 17.9341 12.8883 15.8334H17.4166V22.1667ZM17.4166 12.6667H13.5691C14.1061 10.3151 15.4719 8.23546 17.4166 6.80837V12.6667ZM29.9566 12.6667H27.74C27.3683 11.2546 26.8371 9.88944 26.1567 8.59754C27.7094 9.65531 29.0074 11.0453 29.9566 12.6667ZM20.5833 6.80837C22.528 8.23546 23.8938 10.3151 24.4308 12.6667H20.5833V6.80837ZM20.5833 31.1917V25.3334H24.4308C23.8938 27.685 22.528 29.7646 20.5833 31.1917ZM25.1116 22.1667H20.5833V15.8334H25.1116C25.4071 17.9341 25.4071 20.0659 25.1116 22.1667ZM26.2041 29.4025C26.8846 28.1106 27.4158 26.7455 27.7875 25.3334H30.0041C29.0549 26.9548 27.7569 28.3448 26.2041 29.4025ZM31.255 22.1667H28.31C28.4388 21.1161 28.5022 20.0585 28.5 19C28.5017 17.9416 28.4383 16.884 28.31 15.8334H31.255C31.804 17.9088 31.804 20.0913 31.255 22.1667Z" fill="#28A352"/>
</svg>
