<svg xmlns="http://www.w3.org/2000/svg" width="80" height="96" viewBox="0 0 80 96"><defs><mask id="pza1b" width="2" height="2" x="-1" y="-1"><path fill="#fff" d="M24 24h32v48H24z"/><path d="M56 40v8H32v4h20a4 4 0 0 1 4 4v12a4 4 0 0 1-4 4H24v-8h24v-4H28a4 4 0 0 1-4-4V44a4 4 0 0 1 4-4zm0-8a4 4 0 0 1-4 4H28a4 4 0 0 1-4-4v-8h6l2 4h2l2-4h8l2 4h2l2-4h6z"/></mask><filter id="pza1a" width="112" height="128" x="-16" y="-16" filterUnits="userSpaceOnUse"><feOffset in="SourceGraphic" result="FeOffset1023Out"/><feGaussianBlur in="FeOffset1023Out" result="FeGaussianBlur1024Out" stdDeviation="12 12"/></filter></defs><g><g><g filter="url(#pza1a)"><path fill="none" d="M56 40v8H32v4h20a4 4 0 0 1 4 4v12a4 4 0 0 1-4 4H24v-8h24v-4H28a4 4 0 0 1-4-4V44a4 4 0 0 1 4-4zm0-8a4 4 0 0 1-4 4H28a4 4 0 0 1-4-4v-8h6l2 4h2l2-4h8l2 4h2l2-4h6z" mask="url(&quot;#pza1b&quot;)"/><path fill-opacity=".2" d="M56 40v8H32v4h20a4 4 0 0 1 4 4v12a4 4 0 0 1-4 4H24v-8h24v-4H28a4 4 0 0 1-4-4V44a4 4 0 0 1 4-4zm0-8a4 4 0 0 1-4 4H28a4 4 0 0 1-4-4v-8h6l2 4h2l2-4h8l2 4h2l2-4h6z"/></g><path fill="#fff" d="M56 40v8H32v4h20a4 4 0 0 1 4 4v12a4 4 0 0 1-4 4H24v-8h24v-4H28a4 4 0 0 1-4-4V44a4 4 0 0 1 4-4zm0-8a4 4 0 0 1-4 4H28a4 4 0 0 1-4-4v-8h6l2 4h2l2-4h8l2 4h2l2-4h6z"/></g></g></svg>